#N canvas 386 32 1534 805 10;
#X obj 111 103 hsl 128 15 0 127 0 1 empty empty ATTACK 135 7 0 10 #fcfcfc #000000 #000000 0 1;
#X obj 108 154 hsl 128 15 0 127 0 1 empty empty RELEASE 135 7 0 10 #fcfcfc #000000 #000000 0 1;
#X obj 109 120 hsl 128 15 0 127 0 1 empty empty DECAY 135 7 0 10 #fcfcfc #000000 #000000 7000 1;
#X obj 108 137 hsl 128 15 0 127 0 1 empty empty SUSTAIN 135 7 0 10 #fcfcfc #000000 #000000 6400 1;
#X obj 108 172 hsl 128 15 0 127 0 1 empty empty CURVE 135 7 0 10 #fcfcfc #000000 #000000 6400 1;
#X obj 165 -52 inlet;
#X obj 304 -52 inlet;
#X obj 374 -51 inlet;
#X obj 436 -52 inlet;
#X obj 514 -52 inlet;
#X obj 14 -51 inlet;
#X text 161 -81 attack;
#X text 294 -80 decay;
#X text 368 -79 sustain;
#X text 431 -78 release;
#X text 517 -81 curve;
#X obj 69 -51 inlet;
#X text 12 -82 noteon;
#X text 67 -79 noteoff;
#X obj 501 127 / 127;
#X obj 451 203 / 127;
#X obj 179 242 / 127;
#X text 546 169 ms;
#X text 468 334 ms;
#X obj 179 266 * 2;
#X obj 181 291 - 1;
#X obj -32 56 loadbang;
#X msg -40 91 10;
#X msg -40 114 10;
#X msg -40 137 127;
#X msg -40 160 10;
#X msg -40 183 64;
#X obj 206 401 * -1;
#X text 125 317 +/- 100;
#X obj 188 371 line;
#X obj 170 343 pack 0 100;
#X obj 447 254 line;
#X obj 532 21 / 127;
#X obj 425 291 / 127;
#X text 575 66 ms;
#X obj 447 231 pack 0 200;
#X obj -7 -3 s \$0-note-on;
#X obj 68 30 s \$0-note-off;
#X obj 623 86 s \$0-attack;
#X obj 628 198 s \$0-decay;
#X obj 571 251 s \$0-sustain;
#X obj 564 357 s \$0-release;
#X obj 531 89 + 1;
#X obj 505 192 + 1;
#X msg 284 646 0;
#X obj 185 630 unpack f f;
#X obj 269 740 +;
#X obj 299 740 f;
#X obj 242 651 t f f;
#X obj 269 719 f;
#X obj 269 672 t f b;
#X obj 185 764 pack f f f f;
#X obj 269 693 + 1;
#X obj 279 821 unpack f f f;
#X obj 204 1108 outlet~;
#X obj 306 975 -~;
#X obj 338 959 sig~ 1;
#X obj 338 980 -~;
#X obj 388 943 *~;
#X obj 306 996 *~;
#X obj 291 1045 +~;
#X obj 306 1023 /~;
#X obj 204 915 sig~ 1;
#X obj 204 936 -~;
#X obj 204 957 *~;
#X obj 204 978 +~;
#X obj 247 962 *~;
#X obj 204 999 *~;
#X obj 291 1066 *~;
#X obj 204 1082 +~;
#N canvas 349 167 179 187 hv.vline 0;
#X obj 12 34 t a b;
#X msg 75 56 0;
#N canvas 274 138 292 165 dbl-pipe 0;
#X obj 22 22 inlet;
#X obj 82 22 inlet;
#X obj 182 22 inlet;
#X obj 22 64 pipe 0;
#X obj 82 64 pipe 0;
#X obj 22 86 outlet;
#X obj 82 86 outlet;
#X obj 132 64 pipe 0;
#X obj 132 86 outlet;
#X obj 132 22 inlet;
#X obj 239 29 inlet;
#X msg 239 50 clear;
#X connect 0 0 3 0;
#X connect 0 0 4 0;
#X connect 1 0 4 0;
#X connect 2 0 3 1;
#X connect 2 0 4 1;
#X connect 2 0 7 1;
#X connect 3 0 5 0;
#X connect 4 0 6 0;
#X connect 7 0 8 0;
#X connect 9 0 7 0;
#X connect 10 0 11 0;
#X connect 11 0 7 0;
#X connect 11 0 4 0;
#X connect 11 0 3 0;
#X restore 12 100 pd dbl-pipe;
#X obj 12 78 unpack f f f f;
#X obj 12 122 pack f f f;
#X obj 12 12 inlet;
#X obj 12 144 outlet;
#X obj 110 86 inlet;
#X connect 0 0 3 0;
#X connect 0 1 1 0;
#X connect 1 0 2 3;
#X connect 2 0 4 0;
#X connect 2 1 4 1;
#X connect 2 2 4 2;
#X connect 3 0 2 0;
#X connect 3 1 2 1;
#X connect 3 2 2 2;
#X connect 3 3 2 3;
#X connect 4 0 6 0;
#X connect 5 0 0 0;
#X connect 7 0 2 4;
#X restore 185 785 pd hv.vline;
#X msg 219 855 0 \, 1 \$1;
#X obj 185 829 unpack f f f;
#X obj 388 964 exp~;
#X text 350 735 https://github.com/dotmmb/mmb;
#X text 340 715 Mike Moser-Booth;
#X text 350 805 https://github.com/enzienaudio/heavylib;
#X text 340 785 from the heavylib;
#X text 350 665 https://github.com/MikeMorenoAudio;
#X text 340 695 Based on the [curve.mmb~] object from the mmb library;
#X obj 495 983 == 0;
#X msg 495 1029 1 \$1;
#X obj 495 1050 -;
#X obj 352 863 snapshot~;
#X obj 423 1007 +;
#X obj 468 927 t f f;
#X obj 423 941 exp;
#X msg 423 962 1 \$1;
#X obj 423 983 -;
#X text 340 765 Used [hv.vline] as subpatches;
#X text 340 645 Made by Mike Moreno;
#X obj 185 807 t a a b;
#X obj 441 837 t f f;
#X obj 279 872 t f f;
#X obj 352 884 t f f f;
#X obj 219 877 line~;
#X obj 315 547 f;
#X obj 405 583 pack f f;
#X obj 405 547 f;
#X obj 185 536 t b b b;
#X obj 245 536 t b b;
#X obj 560 519 f;
#X text 511 447 Release;
#X text 49 610 Curve;
#X text 321 452 Attack;
#X text 352 561 Peak;
#X text 411 452 Decay;
#X text 450 542 Sustain;
#X msg 557 599 \$1 0;
#X msg 315 604 \$2 \$1;
#X obj 100 445 r \$0-note-on;
#X obj 175 478 r \$0-note-off;
#X obj 315 583 pack f 1;
#X obj 328 471 r \$0-attack;
#X obj 418 471 r \$0-decay;
#X obj 511 467 r \$0-release;
#X obj 450 562 r \$0-sustain;
#X obj 49 630 r \$0-curve;
#X obj 205 427 s \$0-curve;
#X obj 181 313 * 3;
#X obj 426 354 + 2;
#X text 624 33 100 4000;
#X obj 532 41 0_to_1_log 100;
#X obj 532 67 * 4000;
#X obj 502 148 0_to_1_log 100;
#X obj 503 170 * 3000;
#X obj 426 312 0_to_1_log 100;
#X obj 426 333 * 4000;
#X obj 595 -52 inlet;
#X text 596 -80 ms and log scaling;
#X text 820 2 the last inlet takes a list where \; 1st item is Attack max ms \; 2nd item is Attack log factor \; 3rd item is decay max ms \; 4th item is decay log factor \; 5th item is release max ms \; 6th item is release log factor \;;
#X obj 648 -22 unpack 0 0 0 0 0 0;
#X connect 0 0 37 0;
#X connect 1 0 38 0;
#X connect 2 0 19 0;
#X connect 3 0 20 0;
#X connect 4 0 21 0;
#X connect 5 0 0 0;
#X connect 6 0 2 0;
#X connect 7 0 3 0;
#X connect 8 0 1 0;
#X connect 9 0 4 0;
#X connect 10 0 41 0;
#X connect 16 0 42 0;
#X connect 19 0 129 0;
#X connect 20 0 40 0;
#X connect 21 0 24 0;
#X connect 24 0 25 0;
#X connect 25 0 124 0;
#X connect 26 0 27 0;
#X connect 27 0 28 0;
#X connect 27 0 0 0;
#X connect 28 0 29 0;
#X connect 28 0 2 0;
#X connect 29 0 30 0;
#X connect 29 0 3 0;
#X connect 30 0 31 0;
#X connect 30 0 1 0;
#X connect 31 0 4 0;
#X connect 32 0 123 0;
#X connect 34 0 32 0;
#X connect 35 0 34 0;
#X connect 36 0 45 0;
#X connect 37 0 127 0;
#X connect 38 0 131 0;
#X connect 40 0 36 0;
#X connect 47 0 43 0;
#X connect 48 0 44 0;
#X connect 49 0 54 1;
#X connect 49 0 51 1;
#X connect 50 0 56 0;
#X connect 50 1 53 0;
#X connect 51 0 52 0;
#X connect 51 0 56 3;
#X connect 52 0 51 1;
#X connect 53 0 56 1;
#X connect 53 1 55 0;
#X connect 54 0 51 0;
#X connect 55 0 57 0;
#X connect 55 1 54 0;
#X connect 56 0 75 0;
#X connect 57 0 54 1;
#X connect 58 0 98 0;
#X connect 58 2 97 0;
#X connect 60 0 64 0;
#X connect 61 0 62 0;
#X connect 62 0 64 1;
#X connect 63 0 78 0;
#X connect 64 0 66 0;
#X connect 65 0 73 0;
#X connect 66 0 65 1;
#X connect 67 0 68 0;
#X connect 68 0 69 0;
#X connect 69 0 70 0;
#X connect 70 0 72 0;
#X connect 71 0 70 1;
#X connect 72 0 74 0;
#X connect 73 0 74 1;
#X connect 74 0 59 0;
#X connect 74 0 88 0;
#X connect 75 0 96 0;
#X connect 76 0 100 0;
#X connect 77 1 76 0;
#X connect 78 0 62 1;
#X connect 85 0 72 1;
#X connect 85 0 86 0;
#X connect 85 0 89 1;
#X connect 86 0 87 0;
#X connect 87 0 73 1;
#X connect 88 0 99 0;
#X connect 89 0 66 1;
#X connect 90 0 91 0;
#X connect 90 1 85 0;
#X connect 91 0 92 0;
#X connect 92 0 93 0;
#X connect 93 0 89 0;
#X connect 96 0 77 0;
#X connect 96 1 58 0;
#X connect 96 2 88 0;
#X connect 97 0 63 1;
#X connect 97 1 90 0;
#X connect 98 0 71 1;
#X connect 98 1 60 0;
#X connect 99 0 69 1;
#X connect 99 1 65 0;
#X connect 99 2 60 1;
#X connect 100 0 63 0;
#X connect 100 0 68 1;
#X connect 100 0 71 0;
#X connect 101 0 117 0;
#X connect 102 0 114 0;
#X connect 103 0 102 0;
#X connect 104 0 103 0;
#X connect 104 1 101 0;
#X connect 104 2 75 1;
#X connect 104 2 49 0;
#X connect 105 0 106 0;
#X connect 105 1 75 1;
#X connect 105 1 49 0;
#X connect 106 0 113 0;
#X connect 113 0 114 0;
#X connect 114 0 50 0;
#X connect 115 0 104 0;
#X connect 116 0 105 0;
#X connect 117 0 114 0;
#X connect 118 0 101 1;
#X connect 119 0 103 1;
#X connect 120 0 106 1;
#X connect 121 0 102 1;
#X connect 122 0 56 2;
#X connect 124 0 35 0;
#X connect 125 0 46 0;
#X connect 127 0 128 0;
#X connect 128 0 47 0;
#X connect 129 0 130 0;
#X connect 130 0 48 0;
#X connect 131 0 132 0;
#X connect 132 0 125 0;
#X connect 133 0 136 0;
#X connect 136 0 128 1;
#X connect 136 1 127 1;
#X connect 136 2 130 1;
#X connect 136 3 129 1;
#X connect 136 4 132 1;
#X connect 136 5 131 1;
#X coords 0 -1 1 1 200 90 2 100 100;
