#N canvas 66 32 1854 1097 10;
#X obj 379 638 outlet~;
#X obj 802 626 *~;
#X obj 788 236 / 127;
#X obj 817 491 pack 0 50;
#X obj 817 513 line~;
#X text 786 198 RESONANCE;
#X obj 802 649 delwrite~ \$0-q-feedback 1;
#X obj 353 123 delread~ \$0-q-feedback 1;
#X obj 346 457 clip~ -1 1;
#X obj 379 609 clip~ -1 1;
#X obj 788 283 t f f;
#X obj 488 322 + 1;
#X obj 27 9 inlet~;
#X obj 615 -2 r \$0-analog-filter-cutoff-s;
#X obj 106 134 hsl 128 15 0 127 0 1 \$0-analog-filter-cutoff-s \$0-analog-filter-cutoff-r CUTOFF 133 7 0 10 #fcfcfc #000000 #000000 5000 1;
#X obj 788 213 r \$0-analog-filter-q-s;
#X text 11 -9 SIGNAL IN;
#X obj 106 149 hsl 128 15 0 127 0 1 \$0-analog-filter-q-s \$0-analog-filter-q-r Q 133 7 0 10 #fcfcfc #000000 #000000 3000 1;
#X obj 788 258 +;
#X obj 488 344 min 3;
#X obj 817 535 min~ 5;
#X obj 313 383 vcf~ 1;
#X obj 346 486 vcf~ 1;
#X obj 488 366 t f f;
#X obj 468 473 r \$0-analog-filter-q-s;
#X obj 379 520 *~;
#X obj 468 495 / 127;
#X obj 468 517 * 3;
#X obj 468 539 + 2;
#X obj 468 561 pack 0 50;
#X obj 468 583 line~;
#X text 467 455 GAIN COMPENSATION;
#X obj 105 123 cnv 5 5 5 empty empty ANALOG-FILTER 0 0 0 12 #fcfcfc #404040 0;
#X obj 205 123 cnv 5 5 5 empty \$0-instance-num 0 0 0 0 12 #fcfcfc #404040 0;
#X obj 346 431 *~ 1.5;
#X obj 817 466 * 4;
#X obj 488 300 * 1.5;
#X obj 353 146 *~ 0.2;
#X obj 313 188 *~ 0.5;
#X obj 107 3 inlet;
#X obj 164 1 inlet;
#X obj 436 5 inlet;
#X obj 434 49 switch~;
#X obj 254 14 inlet~;
#X obj 338 20 inlet~;
#X obj 615 23 / 127;
#X obj 542 90 pack 0 50;
#X obj 542 112 line~;
#X obj 541 197 *~;
#X obj 619 127 + 50;
#X obj 541 144 *~;
#X floatatom 674 153 5 0 0 0 - - - 0;
#X obj 615 57 0_to_1_log 50;
#X obj 615 101 * 14949;
#X connect 1 0 6 0;
#X connect 2 0 18 0;
#X connect 3 0 4 0;
#X connect 4 0 20 0;
#X connect 7 0 37 0;
#X connect 8 0 22 0;
#X connect 9 0 0 0;
#X connect 9 0 1 0;
#X connect 10 0 36 0;
#X connect 10 1 35 0;
#X connect 11 0 19 0;
#X connect 12 0 38 0;
#X connect 13 0 45 0;
#X connect 15 0 2 0;
#X connect 18 0 10 0;
#X connect 19 0 23 0;
#X connect 20 0 1 1;
#X connect 21 1 34 0;
#X connect 22 1 25 0;
#X connect 23 0 21 2;
#X connect 23 1 22 2;
#X connect 24 0 26 0;
#X connect 25 0 9 0;
#X connect 26 0 27 0;
#X connect 27 0 28 0;
#X connect 28 0 29 0;
#X connect 29 0 30 0;
#X connect 30 0 25 1;
#X connect 34 0 8 0;
#X connect 35 0 3 0;
#X connect 36 0 11 0;
#X connect 37 0 38 0;
#X connect 38 0 21 0;
#X connect 39 0 14 0;
#X connect 40 0 17 0;
#X connect 41 0 42 0;
#X connect 43 0 50 1;
#X connect 44 0 48 1;
#X connect 45 0 52 0;
#X connect 46 0 47 0;
#X connect 47 0 50 0;
#X connect 48 0 22 1;
#X connect 48 0 21 1;
#X connect 49 0 46 0;
#X connect 49 0 51 0;
#X connect 50 0 48 0;
#X connect 52 0 53 0;
#X connect 53 0 49 0;
#X coords 0 -1 1 1 175 100 2 100 100;
