#N canvas 66 32 1854 1097 10;
#X obj 587 383 bob~;
#X obj 591 173 pack 0 10;
#X obj 657 400 bob~;
#X obj 765 417 bob~;
#X obj 608 357 * 4;
#X obj 765 455 *~ 0.33;
#X obj 591 195 line~;
#X obj 678 374 * 2;
#X obj 786 389 * 1;
#X obj 592 305 clip~ 10 5000;
#X obj 52 5 inlet~;
#X obj 765 496 outlet~;
#X obj 106 137 hsl 128 15 1.27 127 1 0 \$0-bob-cutoff-s \$0-bob-cutoff-r CUTOFF 133 7 0 10 #fcfcfc #000000 #000000 0 1;
#X obj 104 128 cnv 5 5 5 empty empty BOB-FILTER 0 0 0 12 #fcfcfc #404040 0;
#X obj 182 128 cnv 5 5 5 empty \$0-instance-num 0 0 0 0 12 #fcfcfc #404040 0;
#X obj 106 152 hsl 128 15 0 127 0 0 \$0-bob-res-s \$0-bob-res-r RES 133 7 0 10 #fcfcfc #000000 #000000 0 1;
#X obj 601 40 r \$0-bob-cutoff-s;
#X obj 816 81 r \$0-bob-res-s;
#X obj 816 194 t f f f;
#X obj 816 115 / 127;
#X obj 816 164 clip 0 8;
#X obj 146 3 inlet;
#X obj 230 1 inlet;
#X obj 429 6 inlet;
#X obj 436 57 switch~;
#X obj 292 3 inlet~;
#X obj 357 5 inlet~;
#X obj 584 272 *~;
#X obj 590 226 *~;
#X obj 648 124 * 4949;
#X obj 648 146 + 50;
#X obj 651 63 / 127;
#X obj 652 87 0_to_1_log 50;
#X connect 0 0 2 0;
#X connect 1 0 6 0;
#X connect 2 0 3 0;
#X connect 2 0 11 0;
#X connect 3 0 5 0;
#X connect 4 0 0 2;
#X connect 6 0 28 0;
#X connect 7 0 2 2;
#X connect 8 0 3 2;
#X connect 9 0 0 1;
#X connect 9 0 2 1;
#X connect 9 0 3 1;
#X connect 10 0 0 0;
#X connect 16 0 31 0;
#X connect 17 0 19 0;
#X connect 18 0 4 0;
#X connect 18 1 7 0;
#X connect 18 2 8 0;
#X connect 19 0 20 0;
#X connect 20 0 18 0;
#X connect 21 0 12 0;
#X connect 22 0 15 0;
#X connect 23 0 24 0;
#X connect 25 0 28 1;
#X connect 26 0 27 1;
#X connect 27 0 9 0;
#X connect 28 0 27 0;
#X connect 29 0 30 0;
#X connect 30 0 1 0;
#X connect 31 0 32 0;
#X connect 32 0 29 0;
#X coords 0 -1 1 1 175 100 2 100 100;
