#N canvas 0 23 1854 1097 10;
#X obj 71 25 inlet~;
#X obj 294 303 vcf~ 1;
#X obj 294 364 vcf~ 1;
#X obj 294 434 vcf~ 1;
#X obj 294 499 vcf~ 1;
#X obj 294 621 outlet~;
#X obj 106 120 hsl 128 15 1.27 127 1 1 \$0-bandpass-cutoff-s \$0-bandpass-cutoff-r CUTOFF 133 7 0 10 #fcfcfc #000000 #000000 10129 1;
#X obj 105 109 cnv 5 5 5 empty empty IN 0 0 0 8 #fcfcfc #404040 0;
#X obj 541 258 lop~ 10;
#X obj 106 135 hsl 128 15 1.27 127 1 1 \$0-bandpass-res-s \$0-bandpass-res-r RES. 133 7 0 10 #fcfcfc #000000 #000000 8721 1;
#X obj 120 265 / 127;
#X obj 120 287 * 9;
#X obj 120 309 + 1;
#X obj 120 331 pack 0 50;
#X obj 120 356 line;
#X obj 294 564 min~ 1;
#X obj 294 586 max~ -1;
#X obj 121 112 cnv 5 5 5 empty empty BANDPASS-FILTER 0 0 0 12 #fcfcfc #404040 0;
#X obj 374 253 t f f f f;
#X obj 79 394 hsl 128 15 1.27 127 1 1 \$0-bandpass-drive-s \$0-bandpass-drive-r DRIVE 133 7 0 10 #fcfcfc #000000 #000000 2400 1;
#X obj 228 437 / 127;
#X obj 228 459 * 3;
#X obj 228 481 + 1;
#X obj 228 503 pack 0 50;
#X obj 228 525 line~;
#X obj 294 542 *~;
#X obj 232 112 cnv 5 5 5 empty \$0-instance-num 0 0 0 0 12 #fcfcfc #404040 0;
#X obj 141 23 inlet;
#X obj 197 24 inlet;
#X obj 378 30 inlet;
#X obj 384 83 switch~;
#X obj 243 30 inlet~;
#X obj 315 31 inlet~;
#X obj 539 222 *~;
#X obj 631 215 pack 0 10;
#X obj 619 249 line~;
#X obj 629 191 + 50;
#X obj 629 169 * 4949;
#X obj 543 297 *~;
#X obj 626 121 / 127;
#X obj 628 146 0_to_1_log 50;
#X connect 0 0 1 0;
#X connect 1 0 2 0;
#X connect 2 0 3 0;
#X connect 3 0 4 0;
#X connect 4 0 25 0;
#X connect 6 0 39 0;
#X connect 8 0 38 0;
#X connect 9 0 10 0;
#X connect 10 0 11 0;
#X connect 11 0 12 0;
#X connect 12 0 13 0;
#X connect 13 0 14 0;
#X connect 14 0 18 0;
#X connect 15 0 16 0;
#X connect 16 0 5 0;
#X connect 18 0 1 2;
#X connect 18 1 2 2;
#X connect 18 2 3 2;
#X connect 18 3 4 2;
#X connect 19 0 20 0;
#X connect 20 0 21 0;
#X connect 21 0 22 0;
#X connect 22 0 23 0;
#X connect 23 0 24 0;
#X connect 24 0 25 1;
#X connect 25 0 15 0;
#X connect 27 0 6 0;
#X connect 28 0 9 0;
#X connect 29 0 30 0;
#X connect 31 0 38 1;
#X connect 32 0 33 1;
#X connect 33 0 8 0;
#X connect 34 0 35 0;
#X connect 35 0 33 0;
#X connect 36 0 34 0;
#X connect 37 0 36 0;
#X connect 38 0 1 1;
#X connect 38 0 2 1;
#X connect 38 0 3 1;
#X connect 38 0 4 1;
#X connect 39 0 40 0;
#X connect 40 0 37 0;
#X coords 0 -1 1 1 175 100 2 100 100;
