#N canvas 0 23 1534 1097 10;
#X obj 100 100 cnv 18 140 150 empty empty comb_filter 10 12 1 10 #e0e0e0 #404040 0;
#N canvas 667 172 450 300 allpass 0;
#X obj 57 71 inlet~;
#X obj 57 132 rzero_rev~;
#X obj 57 154 rpole~;
#X obj 57 185 outlet~;
#X obj 102 30 inlet;
#X obj 102 100 / 100;
#X obj 102 65 clip -1 1;
#X connect 0 0 1 0;
#X connect 1 0 2 0;
#X connect 2 0 3 0;
#X connect 4 0 6 0;
#X connect 5 0 1 1;
#X connect 5 0 2 1;
#X connect 6 0 5 0;
#X restore 444 418 pd allpass;
#N canvas 0 22 793 555 comb_filter1 0;
#X obj 195 157 inlet~;
#X obj 197 510 delwrite~ \$0-comb1 100;
#X obj 365 300 vd~ \$0-comb1;
#X obj 365 126 inlet;
#X obj 365 148 / 127;
#X obj 365 192 + 1;
#X obj 365 214 sig~;
#X obj 365 506 outlet~;
#X obj 456 356 *~;
#X obj 472 158 inlet;
#X obj 472 182 / 127;
#X obj 472 253 pack 0 50;
#X obj 472 275 line~;
#X obj 472 297 min~ 0.9;
#X text 454 141 FEEDBACK;
#X text 365 106 DELAY;
#X text 193 135 SIGNAL IN;
#X obj 472 226 + 0.5;
#X obj 472 204 * 0.48;
#X obj 365 236 lop~ 10;
#X obj 443 25 r \$0-combfilter-comb/dly-s;
#X obj 443 47 sel 0 1;
#X msg 462 113 9;
#X obj 365 170 *;
#X msg 443 83 99;
#X connect 0 0 1 0;
#X connect 2 0 7 0;
#X connect 2 0 8 0;
#X connect 3 0 4 0;
#X connect 4 0 23 0;
#X connect 5 0 6 0;
#X connect 6 0 19 0;
#X connect 8 0 1 0;
#X connect 9 0 10 0;
#X connect 10 0 18 0;
#X connect 11 0 12 0;
#X connect 12 0 13 0;
#X connect 13 0 8 1;
#X connect 17 0 11 0;
#X connect 18 0 17 0;
#X connect 19 0 2 0;
#X connect 20 0 21 0;
#X connect 21 0 24 0;
#X connect 21 0 4 0;
#X connect 21 1 22 0;
#X connect 21 1 4 0;
#X connect 22 0 23 1;
#X connect 23 0 5 0;
#X connect 24 0 23 1;
#X restore 444 289 pd comb_filter1;
#X obj 90 298 hsl 128 15 0 127 0 1 \$0-combfilter-delay-s \$0-combfilter-delay-r DELAY 133 7 0 10 #fcfcfc #000000 #000000 9800 1;
#N canvas 0 22 793 555 comb_filter2 0;
#X obj 195 112 inlet~;
#X obj 365 79 inlet;
#X obj 365 101 / 127;
#X obj 365 145 + 1;
#X obj 365 167 sig~;
#X obj 365 461 outlet~;
#X obj 456 311 *~;
#X obj 472 113 inlet;
#X obj 472 208 pack 0 50;
#X obj 472 230 line~;
#X obj 472 252 min~ 0.9;
#X text 454 96 FEEDBACK;
#X text 365 59 DELAY;
#X text 193 90 SIGNAL IN;
#X obj 365 255 vd~ \$0-comb2;
#X obj 197 465 delwrite~ \$0-comb2 100;
#X obj 365 189 lop~ 10;
#X obj 472 135 / 127;
#X obj 472 181 + 0.5;
#X obj 472 159 * 0.48;
#X obj 443 22 r \$0-combfilter-comb/dly-s;
#X obj 443 44 sel 0 1;
#X msg 463 65 9;
#X msg 421 81 99;
#X obj 365 123 *;
#X connect 0 0 15 0;
#X connect 1 0 2 0;
#X connect 2 0 24 0;
#X connect 3 0 4 0;
#X connect 4 0 16 0;
#X connect 6 0 15 0;
#X connect 7 0 17 0;
#X connect 8 0 9 0;
#X connect 9 0 10 0;
#X connect 10 0 6 1;
#X connect 14 0 5 0;
#X connect 14 0 6 0;
#X connect 16 0 14 0;
#X connect 17 0 19 0;
#X connect 18 0 8 0;
#X connect 19 0 18 0;
#X connect 20 0 21 0;
#X connect 21 0 23 0;
#X connect 21 0 2 0;
#X connect 21 1 22 0;
#X connect 21 1 2 0;
#X connect 22 0 24 1;
#X connect 23 0 24 1;
#X connect 24 0 3 0;
#X restore 547 290 pd comb_filter2;
#N canvas 667 172 450 300 allpass 0;
#X obj 57 71 inlet~;
#X obj 57 132 rzero_rev~;
#X obj 57 154 rpole~;
#X obj 57 185 outlet~;
#X obj 102 30 inlet;
#X obj 102 100 / 100;
#X obj 102 65 clip -1 1;
#X connect 0 0 1 0;
#X connect 1 0 2 0;
#X connect 2 0 3 0;
#X connect 4 0 6 0;
#X connect 5 0 1 1;
#X connect 5 0 2 1;
#X connect 6 0 5 0;
#X restore 444 441 pd allpass;
#X msg 501 366 1;
#X obj 501 341 loadbang;
#X obj 26 8 inlet~;
#X obj 444 527 lop~;
#X obj 444 549 lop~;
#X obj 612 332 / 127;
#X obj 612 354 * 4950;
#X obj 612 376 + 50;
#X obj 612 398 pack 0 50;
#X obj 612 420 line;
#X obj 612 442 t f f;
#X obj 444 665 *~ -1;
#X obj 501 392 t f f;
#X obj 87 645 *~;
#X obj 444 641 *~;
#X obj 115 375 hsl 128 15 0 127 0 1 \$0-combfilter-dry/wet-s \$0-combfilter-dry/wet-r DRY/WET 133 7 0 10 #fcfcfc #000000 #000000 8200 1;
#X obj 50 438 t f f;
#X msg 50 460 127 \$1;
#X obj 50 482 -;
#X obj 50 504 / 127;
#X obj 50 526 pack 0 50;
#X obj 50 548 line~;
#X obj 254 579 / 127;
#X obj 254 601 pack 0 50;
#X obj 254 623 line~;
#X obj 444 505 hip~ 5;
#X obj 87 675 hip~ 5;
#X obj 445 693 min~ 1;
#X obj 445 715 max~ -1;
#X obj 43 836 outlet~;
#X obj 251 464 / 127;
#X obj 251 530 pack 0 50;
#X obj 251 552 line~;
#X obj 444 469 *~;
#X obj 251 508 + 0.25;
#X obj 251 486 * 4.75;
#X obj 279 267 cnv 5 5 5 empty empty DELAY 0 0 0 8 #fcfcfc #404040 0;
#X obj 111 281 cnv 5 5 5 empty empty COMBFILTER 0 0 0 12 #fcfcfc #404040 0;
#X obj 444 369 *~ 0.5;
#X obj 607 237 t f f;
#X obj 444 571 hip~;
#X obj 444 593 hip~;
#X obj 725 351 / 127;
#X obj 725 373 * 4950;
#X obj 725 395 + 50;
#X obj 725 417 pack 0 50;
#X obj 725 439 line;
#X obj 725 461 t f f;
#X obj 491 206 r \$0-combfilter-delay-s;
#X obj 491 228 t f f;
#X obj 445 737 *~ 1;
#X obj 192 281 cnv 5 5 5 empty \$0-instance-num 0 0 0 0 12 #fcfcfc #404040 0;
#X obj 191 106 tgl 15 1 \$0-combfilter-comb/dly-s \$0-combfilter-comb/dly-r COMB 17 7 0 10 #fcfcfc #000000 #000000 1 1;
#X obj 107 140 vsl 18 100 0 127 0 0 empty empty del 0 -9 1 10 #000000 #ffffff #7c7c7c 0 1;
#X obj 129 140 vsl 18 100 0 127 0 0 empty empty fbk 0 -9 1 10 #000000 #ffffff #7c7c7c 0 1;
#X obj 194 140 vsl 18 100 0 127 0 0 empty empty drv 0 -9 1 10 #000000 #ffffff #7c7c7c 0 1;
#X obj 151 140 vsl 18 100 0 127 0 0 empty empty lop 0 -9 1 10 #000000 #ffffff #7c7c7c 0 1;
#X obj 173 140 vsl 18 100 0 127 0 0 empty empty hip 0 -9 1 10 #000000 #ffffff #7c7c7c 0 1;
#X obj 215 140 vsl 18 100 0 127 0 0 empty empty d/w 0 -9 1 10 #000000 #ffffff #7c7c7c 0 1;
#X obj 79 10 inlet;
#X obj 124 12 inlet;
#X obj 165 11 inlet;
#X obj 205 13 inlet;
#X obj 244 14 inlet;
#X obj 285 15 inlet;
#X obj 331 12 inlet;
#X obj 115 832 outlet;
#X obj 163 829 outlet;
#X obj 213 830 outlet;
#X obj 261 827 outlet;
#X obj 309 830 outlet;
#X obj 357 827 outlet;
#X obj 411 827 outlet;
#X obj 725 324 midi_to_log;
#X obj 250 434 midi_to_log;
#X connect 1 0 5 0;
#X connect 2 0 44 0;
#X connect 4 0 44 0;
#X connect 5 0 39 0;
#X connect 6 0 18 0;
#X connect 7 0 6 0;
#X connect 8 0 2 0;
#X connect 8 0 4 0;
#X connect 8 0 19 0;
#X connect 9 0 10 0;
#X connect 10 0 46 0;
#X connect 11 0 12 0;
#X connect 12 0 13 0;
#X connect 13 0 14 0;
#X connect 14 0 15 0;
#X connect 15 0 16 0;
#X connect 16 0 9 1;
#X connect 16 1 10 1;
#X connect 17 0 33 0;
#X connect 18 0 1 1;
#X connect 18 1 5 1;
#X connect 19 0 32 0;
#X connect 20 0 17 0;
#X connect 21 0 22 0;
#X connect 22 0 23 0;
#X connect 22 1 28 0;
#X connect 23 0 24 0;
#X connect 24 0 25 0;
#X connect 25 0 26 0;
#X connect 26 0 27 0;
#X connect 27 0 19 1;
#X connect 28 0 29 0;
#X connect 29 0 30 0;
#X connect 30 0 20 1;
#X connect 31 0 9 0;
#X connect 32 0 33 0;
#X connect 33 0 34 0;
#X connect 34 0 56 0;
#X connect 36 0 41 0;
#X connect 37 0 38 0;
#X connect 38 0 39 1;
#X connect 39 0 31 0;
#X connect 40 0 37 0;
#X connect 41 0 40 0;
#X connect 44 0 1 0;
#X connect 45 0 2 2;
#X connect 45 1 4 2;
#X connect 46 0 47 0;
#X connect 47 0 20 0;
#X connect 48 0 49 0;
#X connect 49 0 50 0;
#X connect 50 0 51 0;
#X connect 51 0 52 0;
#X connect 52 0 53 0;
#X connect 53 0 46 1;
#X connect 53 1 47 1;
#X connect 54 0 55 0;
#X connect 55 0 2 1;
#X connect 55 1 4 1;
#X connect 56 0 35 0;
#X connect 58 0 72 0;
#X connect 59 0 3 0;
#X connect 59 0 73 0;
#X connect 60 0 74 0;
#X connect 60 0 45 0;
#X connect 61 0 77 0;
#X connect 61 0 80 0;
#X connect 62 0 75 0;
#X connect 62 0 11 0;
#X connect 63 0 76 0;
#X connect 63 0 79 0;
#X connect 64 0 21 0;
#X connect 64 0 78 0;
#X connect 65 0 58 0;
#X connect 66 0 59 0;
#X connect 67 0 60 0;
#X connect 68 0 62 0;
#X connect 69 0 63 0;
#X connect 70 0 61 0;
#X connect 71 0 64 0;
#X connect 79 0 48 0;
#X connect 80 0 36 0;
#X coords 0 -1 1 1 140 150 2 100 100;
