#N canvas 0 0 1854 1097 12;
#X obj 7 7 cnv 15 146 216 empty empty COMPRESSOR 0 20 0 14 #a8d0b4 #000000 0;
#X obj 7 7 cnv 5 18 10 empty empty CH1 0 5 0 10 #a8d0b4 #000000 0;
#X obj 7 213 cnv 5 18 10 empty empty OUT 0 5 0 10 #a8d0b4 #000000 0;
#X obj 17 68 hsl 128 12 0 10 0 0 \$0-gain-send \$0-gain-recv GAIN -2 -8 0 10 #dcdcdc #000000 #000000 0 1;
#X obj 135 213 cnv 5 18 10 empty empty SND 0 5 0 10 #a8d0b4 #000000 0;
#X obj 17 94 hsl 128 12 0 100 0 0 \$0-ratio-send \$0-ratio-recv RATIO -2 -8 0 10 #dcdcdc #000000 #000000 0 1;
#X obj 17 120 hsl 128 12 -100 0 0 0 \$0-threshold-send \$0-threshold-recv THRESHOLD -2 -8 0 10 #dcdcdc #000000 #000000 0 1;
#X obj 17 146 hsl 128 12 0 5000 0 0 \$0-response-send \$0-response-recv RESPONSE -2 -8 0 10 #dcdcdc #000000 #000000 0 1;
#X obj 61 199 hradio 15 1 0 2 \$0-rmspeak-send \$0-rmspeak-recv RMS/PEAK -6 -8 0 10 #000000 #a8d0b4 #000000 0;
#X obj 17 172 hsl 128 12 0 500 0 0 \$0-lookahead-send \$0-lookahead-recv LOOKAHEAD -2 -8 0 10 #dcdcdc #000000 #000000 0 1;
#X obj 624 628 *~;
#X obj 624 736 *~;
#X obj 922 482 dbtorms;
#X obj 1081 485 /;
#X obj 1081 454 swap 1;
#X obj 735 566 /;
#X obj 735 544 swap 1000;
#X obj 641 588 lop~;
#X obj 641 533 clip~ 0 1;
#X obj 642 711 line~;
#X obj 642 690 pack f 5;
#X obj 922 454 + 100;
#X obj 778 636 + 100;
#X obj 778 658 dbtorms;
#X obj 40 -94 inlet~ CH1;
#X obj 1081 507 s \$0-Aratio;
#X obj 922 504 s \$0-Athresh;
#N canvas 0 22 450 300 DELWRITE 0;
#X obj 68 39 inlet~;
#X obj 68 156 outlet~;
#X obj 68 80 delwrite~ \$0-BUFFER 500;
#X connect 0 0 2 0;
#X restore 457 411 pd DELWRITE;
#N canvas 0 22 450 300 DELREAD 0;
#X obj 68 41 inlet~;
#X obj 133 155 outlet~;
#X obj 133 42 inlet lookAhead;
#X obj 133 116 delread~ \$0-BUFFER 0;
#X connect 2 0 3 0;
#X connect 3 0 1 0;
#X restore 457 487 pd DELREAD;
#N canvas 0 0 1854 1037 RMS-PEAK 0;
#X obj 506 137 abs~;
#X obj 506 246 -~;
#X obj 506 294 *~;
#X obj 506 346 +~;
#X obj 506 386 /~;
#X obj 714 233 +~ 0;
#X obj 549 218 r \$0-Athresh;
#X obj 524 270 r \$0-Aratio;
#X obj 257 245 -~;
#X obj 257 293 *~;
#X obj 257 345 +~;
#X obj 257 385 /~;
#X obj 404 221 +~ 0;
#X obj 257 135 dbtorms~;
#X obj 257 107 env~ 411;
#X obj 257 570 outlet~ RMS;
#X obj 506 571 outlet~ PEAK;
#X obj 256 488 *~;
#X obj 273 437 pack f 50;
#X obj 273 464 line~;
#X obj 505 478 *~;
#X obj 522 427 pack f 50;
#X obj 522 454 line~;
#X obj 801 46 inlet RMS-PEAK-CONTROL;
#X obj 801 96 sel 0 1;
#X obj 801 125 bng 15 250 50 0 empty empty empty 17 7 0 10 #fcfcfc #000000 #000000;
#X msg 801 153 0;
#X msg 845 154 1;
#X obj 824 177 bng 15 250 50 0 empty empty empty 17 7 0 10 #fcfcfc #000000 #000000;
#X msg 824 205 0;
#X msg 868 206 1;
#X obj 257 34 inlet~ CH1;
#X connect 0 0 1 0;
#X connect 0 0 5 0;
#X connect 1 0 2 0;
#X connect 2 0 3 0;
#X connect 3 0 4 0;
#X connect 4 0 20 0;
#X connect 5 0 4 1;
#X connect 6 0 1 1;
#X connect 6 0 3 1;
#X connect 6 0 8 1;
#X connect 6 0 10 1;
#X connect 7 0 2 1;
#X connect 7 0 9 1;
#X connect 8 0 9 0;
#X connect 9 0 10 0;
#X connect 10 0 11 0;
#X connect 11 0 17 0;
#X connect 12 0 11 1;
#X connect 13 0 8 0;
#X connect 13 0 12 0;
#X connect 14 0 13 0;
#X connect 17 0 15 0;
#X connect 18 0 19 0;
#X connect 19 0 17 1;
#X connect 20 0 16 0;
#X connect 21 0 22 0;
#X connect 22 0 20 1;
#X connect 23 0 24 0;
#X connect 24 0 25 0;
#X connect 24 1 28 0;
#X connect 25 0 26 0;
#X connect 25 0 27 0;
#X connect 26 0 21 0;
#X connect 27 0 18 0;
#X connect 28 0 29 0;
#X connect 28 0 30 0;
#X connect 29 0 18 0;
#X connect 30 0 21 0;
#X connect 31 0 14 0;
#X connect 31 0 0 0;
#X restore 687 410 pd RMS-PEAK;
#X obj 778 598 r \$0-gain-send;
#X obj 735 515 r \$0-response-send;
#X obj 267 921 outlet~ OUT;
#X obj 1081 424 r \$0-ratio-send;
#X obj 922 425 r \$0-threshold-send;
#X obj 761 376 r \$0-rmspeak-send;
#X obj 524 463 r \$0-lookahead-send;
#X obj 10 38 bng 15 250 50 0 \$0-savemodulestate-send \$0-savemodulestate-recv S 4 5 0 14 #000000 #a8d0b4 #a8d0b4;
#X obj 28 38 bng 15 250 50 0 \$0-loadmodulestate-send \$0-loadmodulestate-recv L 4 5 0 14 #000000 #a8d0b4 #a8d0b4;
#X obj 176 -102 inlet;
#X obj 176 -77 / 127;
#X obj 176 -52 * 10;
#X obj 244 -103 inlet;
#X obj 244 -78 / 127;
#X obj 244 -53 * 10;
#X obj 312 -103 inlet;
#X obj 425 -103 inlet;
#X obj 425 -78 / 127;
#X obj 425 -53 * 5000;
#X obj 514 -101 inlet;
#X obj 514 -76 / 127;
#X obj 514 -51 * 500;
#X obj 577 -102 inlet;
#X obj 577 -77 / 127;
#X obj 577 -52 * 500;
#X obj 312 -78 expr 127 - $f1;
#X obj 312 -53 / 127;
#X obj 312 -27 * -100;
#X obj 436 919 outlet;
#X obj 500 918 outlet;
#X obj 561 918 outlet;
#X obj 650 920 outlet;
#X obj 718 920 outlet;
#X obj 782 919 outlet;
#X text 179 -127 gain;
#X text 244 -127 ratio;
#X text 294 -130 threshold;
#X text 419 -132 response;
#X text 490 -128 lookahead;
#X text 563 -128 rms/peak;
#X text 433 948 gain;
#X text 498 948 ratio;
#X text 548 945 threshold;
#X text 634 945 response;
#X text 705 949 lookahead;
#X text 778 949 rms/peak;
#X connect 10 0 11 0;
#X connect 11 0 32 0;
#X connect 12 0 26 0;
#X connect 13 0 25 0;
#X connect 14 0 13 0;
#X connect 14 1 13 1;
#X connect 15 0 17 1;
#X connect 16 0 15 0;
#X connect 16 1 15 1;
#X connect 17 0 10 1;
#X connect 18 0 17 0;
#X connect 19 0 11 1;
#X connect 20 0 19 0;
#X connect 21 0 12 0;
#X connect 22 0 23 0;
#X connect 23 0 20 0;
#X connect 24 0 27 0;
#X connect 24 0 29 0;
#X connect 27 0 28 0;
#X connect 28 0 10 0;
#X connect 29 0 18 0;
#X connect 29 1 18 0;
#X connect 30 0 22 0;
#X connect 31 0 16 0;
#X connect 33 0 14 0;
#X connect 34 0 21 0;
#X connect 35 0 29 1;
#X connect 36 0 28 1;
#X connect 39 0 40 0;
#X connect 40 0 41 0;
#X connect 41 0 3 0;
#X connect 42 0 43 0;
#X connect 43 0 44 0;
#X connect 44 0 5 0;
#X connect 45 0 55 0;
#X connect 46 0 47 0;
#X connect 47 0 48 0;
#X connect 48 0 7 0;
#X connect 49 0 50 0;
#X connect 50 0 51 0;
#X connect 51 0 9 0;
#X connect 52 0 53 0;
#X connect 53 0 54 0;
#X connect 54 0 8 0;
#X connect 55 0 56 0;
#X connect 56 0 57 0;
#X connect 57 0 6 0;
#X coords 0 -1 1 1 150 220 2 5 5;
