#N canvas 66 32 1395 735 10;
#X obj 100 100 cnv 18 90 140 empty empty Compressor 13 12 1 10 #e0e0e0 #404040 0;
#X obj 41 21 inlet~;
#X obj 339 102 delwrite~ \$0-comp 100;
#X obj 527 98 env~ 1024;
#X floatatom 527 120 5 0 0 0 - - - 0;
#X obj 527 139 moses;
#X obj 527 161 t b;
#X msg 527 183 1;
#X obj 527 205 pack 0 20;
#X obj 526 331 line~;
#X obj 384 475 *~;
#X obj 335 184 / 127;
#X obj 335 206 * 99;
#X obj 335 228 + 1;
#X floatatom 598 171 5 0 0 0 - - - 0;
#X obj 598 190 expr (($f1 - $f3) / $f2) - $f1 + $f3;
#X floatatom 598 212 5 0 0 0 - - - 0;
#X obj 598 231 expr 100 + $f1;
#X floatatom 598 253 5 0 0 0 - - - 0;
#X obj 598 272 dbtorms;
#X floatatom 598 294 5 0 0 0 - - - 0;
#X obj 598 313 pack 0 20;
#X obj 810 97 / 127;
#X obj 810 119 * 9;
#X obj 810 141 + 1;
#X obj 335 295 vd~ \$0-comp;
#X obj 335 250 pack 0 50;
#X obj 335 272 line~;
#X obj 708 51 / 127;
#X obj 708 95 + 1;
#X obj 708 73 * 9;
#X obj 384 499 *~;
#X obj 560 393 / 127;
#X obj 560 415 * 9;
#X obj 560 437 + 1;
#X obj 560 459 pack 0 20;
#X obj 560 481 line~;
#X obj 384 521 clip~ -1 1;
#X obj -8 621 outlet~;
#X obj 105 132 vsl 18 100 0 127 0 0 empty empty att 0 -9 1 10 #000000 #ffffff #7c7c7c 0 1;
#X obj 125 132 vsl 18 100 0 127 0 0 empty empty thr 0 -9 1 10 #000000 #ffffff #7c7c7c 0 1;
#X obj 145 132 vsl 18 100 0 127 0 0 empty empty lim 0 -9 1 10 #000000 #ffffff #7c7c7c 0 1;
#X obj 165 132 vsl 18 100 0 127 0 0 empty empty gain 0 -9 1 10 #000000 #ffffff #7c7c7c 0 1;
#X obj 95 21 inlet;
#X obj 132 21 inlet;
#X obj 219 21 inlet;
#X obj 177 21 inlet;
#X obj 60 621 outlet;
#X obj 113 621 outlet;
#X obj 163 621 outlet;
#X obj 224 620 outlet;
#X connect 1 0 2 0;
#X connect 1 0 3 0;
#X connect 3 0 4 0;
#X connect 4 0 5 0;
#X connect 5 0 6 0;
#X connect 5 1 14 0;
#X connect 6 0 7 0;
#X connect 7 0 8 0;
#X connect 8 0 9 0;
#X connect 9 0 10 1;
#X connect 10 0 31 0;
#X connect 11 0 12 0;
#X connect 12 0 13 0;
#X connect 13 0 26 0;
#X connect 14 0 15 0;
#X connect 15 0 16 0;
#X connect 16 0 17 0;
#X connect 17 0 18 0;
#X connect 18 0 19 0;
#X connect 19 0 20 0;
#X connect 20 0 21 0;
#X connect 21 0 9 0;
#X connect 22 0 23 0;
#X connect 23 0 24 0;
#X connect 24 0 15 2;
#X connect 25 0 10 0;
#X connect 26 0 27 0;
#X connect 27 0 25 0;
#X connect 28 0 30 0;
#X connect 29 0 15 1;
#X connect 30 0 29 0;
#X connect 31 0 37 0;
#X connect 32 0 33 0;
#X connect 33 0 34 0;
#X connect 34 0 35 0;
#X connect 35 0 36 0;
#X connect 36 0 31 1;
#X connect 37 0 38 0;
#X connect 39 0 11 0;
#X connect 39 0 47 0;
#X connect 40 0 22 0;
#X connect 40 0 48 0;
#X connect 41 0 28 0;
#X connect 41 0 49 0;
#X connect 42 0 32 0;
#X connect 42 0 50 0;
#X connect 43 0 39 0;
#X connect 44 0 40 0;
#X connect 45 0 42 0;
#X connect 46 0 41 0;
#X coords 0 -1 1 1 90 140 2 100 100;
