#N canvas 222 168 1111 831 10;
#X obj 430 154 hp-filter;
#X obj 429 -9 lp-filter;
#X obj 429 660 analog-filter;
#X obj 430 484 bob-filter;
#X obj 428 837 ladder-filter;
#X obj 431 309 bp-filter;
#X obj 105 103 vradio 15 1 0 7 empty empty empty 0 -9 0 10 #fcfcfc #000000 #000000 0;
#X msg 620 369 0;
#X msg 643 -8 1;
#X msg 640 163 1;
#X msg 641 308 1;
#X msg 648 481 1;
#X msg 645 660 1;
#X msg 650 838 1;
#X obj 714 21 delay 10;
#X obj 716 57 i;
#X obj 715 -14 t b f b;
#X text 126 102 lp;
#X text 126 116 hp;
#X text 126 131 bp;
#X text 126 145 bob;
#X text 125 190 off;
#X obj 738 120 sel 0 1 2 3 4 5;
#X obj 153 121 vsl 18 80 0 127 0 0 empty empty frq 0 -9 0 10 #000000 #ffffff #7c7c7c 0 1;
#X obj 175 121 vsl 18 80 0 127 0 0 empty empty q 6 -9 1 10 #000000 #ffffff #7c7c7c 0 1;
#X obj 162 314 s freq_\$0;
#X obj 252 299 s q_\$0;
#X obj 477 -34 r freq_\$0;
#X obj 555 -49 r q_\$0;
#X obj 495 121 r freq_\$0;
#X obj 450 245 r freq_\$0;
#X obj 483 266 r q_\$0;
#X obj 481 433 r freq_\$0;
#X obj 497 455 r q_\$0;
#X obj 478 613 r freq_\$0;
#X obj 543 610 r q_\$0;
#X obj 477 803 r freq_\$0;
#X obj 552 803 r q_\$0;
#X obj 26 -5 inlet~;
#X obj 141 -6 inlet;
#X obj 179 -6 inlet;
#X obj 27 41 s~ sig_in_\$0;
#X obj 392 -35 r~ sig_in_\$0;
#X obj 394 130 r~ sig_in_\$0;
#X obj 396 280 r~ sig_in_\$0;
#X obj 400 460 r~ sig_in_\$0;
#X obj 393 634 r~ sig_in_\$0;
#X obj 386 808 r~ sig_in_\$0;
#X obj -2 617 r~ sig_in_\$0;
#X obj 4 1024 outlet~;
#X obj 52 710 *~;
#X obj 238 724 *~;
#X obj 81 660 line~;
#X obj 170 661 line~;
#X obj 67 492 == 0;
#X obj 66 411 < 6;
#X obj 89 567 pack 0 50;
#X obj 174 570 pack 0 50;
#X text 26 -35 signal;
#X text 138 -33 freq;
#X text 190 -34 q;
#X text 126 160 an;
#X text 125 176 lad;
#X obj 84 -5 inlet;
#X text 78 -34 selection;
#X obj 99 1024 outlet;
#X obj 153 1024 outlet;
#X obj 205 1026 outlet;
#X text 229 -33 mod;
#X text 15 1054 signal;
#X text 162 1055 freq;
#X text 217 1053 q;
#X text 91 1056 selection;
#X obj 218 -5 inlet~;
#X obj 194 31 s~ mod_\$0;
#X obj 589 608 r~ mod_\$0;
#X obj 549 428 r~ mod_\$0;
#X obj 540 254 r~ mod_\$0;
#X obj 623 798 r~ mod_\$0;
#X obj 615 -49 r~ mod_\$0;
#X obj 563 116 r~ mod_\$0;
#X obj 266 -5 inlet~;
#X text 277 -33 env;
#X obj 264 30 s~ env_\$0;
#X obj 684 -51 r~ env_\$0;
#X obj 688 797 r~ env_\$0;
#X obj 657 609 r~ env_\$0;
#X obj 568 454 r~ env_\$0;
#X obj 575 280 r~ env_\$0;
#X obj 636 116 r~ env_\$0;
#X connect 0 0 51 0;
#X connect 1 0 51 0;
#X connect 2 0 51 0;
#X connect 3 0 51 0;
#X connect 4 0 51 0;
#X connect 5 0 51 0;
#X connect 6 0 16 0;
#X connect 6 0 55 0;
#X connect 6 0 65 0;
#X connect 7 0 2 5;
#X connect 7 0 1 5;
#X connect 7 0 4 5;
#X connect 7 0 3 5;
#X connect 7 0 0 4;
#X connect 7 0 5 5;
#X connect 8 0 1 5;
#X connect 9 0 0 4;
#X connect 10 0 5 5;
#X connect 11 0 3 5;
#X connect 12 0 2 5;
#X connect 13 0 4 5;
#X connect 14 0 15 0;
#X connect 15 0 22 0;
#X connect 16 0 14 0;
#X connect 16 1 15 1;
#X connect 16 2 7 0;
#X connect 22 0 8 0;
#X connect 22 1 9 0;
#X connect 22 2 10 0;
#X connect 22 3 11 0;
#X connect 22 4 12 0;
#X connect 22 5 13 0;
#X connect 23 0 25 0;
#X connect 23 0 66 0;
#X connect 24 0 26 0;
#X connect 24 0 67 0;
#X connect 27 0 1 1;
#X connect 28 0 1 2;
#X connect 29 0 0 1;
#X connect 30 0 5 1;
#X connect 31 0 5 2;
#X connect 32 0 3 1;
#X connect 33 0 3 2;
#X connect 34 0 2 1;
#X connect 35 0 2 2;
#X connect 36 0 4 1;
#X connect 37 0 4 2;
#X connect 38 0 41 0;
#X connect 39 0 23 0;
#X connect 40 0 24 0;
#X connect 42 0 1 0;
#X connect 43 0 0 0;
#X connect 44 0 5 0;
#X connect 45 0 3 0;
#X connect 46 0 2 0;
#X connect 47 0 4 0;
#X connect 48 0 50 0;
#X connect 50 0 49 0;
#X connect 51 0 49 0;
#X connect 52 0 50 1;
#X connect 53 0 51 1;
#X connect 54 0 56 0;
#X connect 55 0 57 0;
#X connect 55 0 54 0;
#X connect 56 0 52 0;
#X connect 57 0 53 0;
#X connect 63 0 6 0;
#X connect 73 0 74 0;
#X connect 75 0 2 3;
#X connect 76 0 3 3;
#X connect 77 0 5 3;
#X connect 78 0 4 3;
#X connect 79 0 1 3;
#X connect 80 0 0 2;
#X connect 81 0 83 0;
#X connect 84 0 1 4;
#X connect 85 0 4 4;
#X connect 86 0 2 4;
#X connect 87 0 3 4;
#X connect 88 0 5 4;
#X connect 89 0 0 3;
#X coords 0 -1 1 1 100 110 2 100 100;
