#N canvas 714 183 1390 805 12;
#X obj -169 470 r sync_1_\$0;
#X obj -193 449 r rst_1_\$0;
#X obj -119 512 r bpm_1_\$0;
#X obj -140 491 r div_1_\$0;
#X obj 6 540 r phase_1_\$0;
#X obj 20 564 r shape_1_\$0;
#X obj 37 583 r trans_1_\$0;
#X obj 68 605 r spread_1_\$0;
#X obj -239 402 r ext_metro_\$0;
#X obj -219 424 r ext_rst_\$0;
#X obj 209 424 r ext_metro_\$0;
#X obj 221 445 r ext_rst_\$0;
#X obj 252 488 r sync_2_\$0;
#X obj 236 466 r rst_2_\$0;
#X obj 268 510 r div_2_\$0;
#X obj 285 531 r bpm_2_\$0;
#X obj 305 552 r phase_2_\$0;
#X obj 326 573 r shape_2_\$0;
#X obj 343 592 r trans_2_\$0;
#X obj 374 614 r spread_2_\$0;
#X obj 485 435 r ext_metro_\$0;
#X obj 505 457 r ext_rst_\$0;
#X obj 809 431 r ext_metro_\$0;
#X obj 829 453 r ext_rst_\$0;
#X obj 544 496 r sync_3_\$0;
#X obj 524 477 r rst_3_\$0;
#X obj 587 534 r bpm_3_\$0;
#X obj 566 516 r div_3_\$0;
#X obj 606 555 r phase_3_\$0;
#X obj 626 576 r shape_3_\$0;
#X obj 643 595 r trans_3_\$0;
#X obj 674 617 r spread_3_\$0;
#X obj 891 514 r div_4_\$0;
#X obj 907 536 r bpm_4_\$0;
#X obj 848 474 r rst_4_\$0;
#X obj 868 494 r sync_4_\$0;
#X obj 929 556 r phase_4_\$0;
#X obj 949 577 r shape_4_\$0;
#X obj 966 596 r trans_4_\$0;
#X obj 986 618 r spread_4_\$0;
#X obj -167 801 s x_1_\$0;
#X obj -157 811 s y_1_\$0;
#X obj 178 803 s x_2_\$0;
#X obj 188 813 s y_2_\$0;
#X obj 446 804 s x_3_\$0;
#X obj 456 814 s y_3_\$0;
#X obj 779 807 s y_4_\$0;
#X obj 769 797 s x_4_\$0;
#X obj 290 112 bng 20 250 50 0 empty empty + 7 10 1 12 #000000 #7c7c7c #ffffff;
#X obj 267 112 bng 20 250 50 0 empty empty - 8 11 1 12 #000000 #7c7c7c #ffffff;
#X obj 269 136 hsl 120 20 0 127 0 0 empty empty transition\ time 6 12 1 12 #000000 #ffffff #dfdfdf 0 1;
#X obj 269 158 hsl 120 20 0 127 0 0 empty empty spatial\ spread 6 12 1 12 #000000 #ffffff #dfdfdf 0 1;
#X obj 108 107 internal_sync;
#X obj 311 113 cnv 20 80 20 empty main_shape_label_\$0 eight_(r) 3 12 1 12 #ffffff #000000 0;
#X obj 458 66 s trans_1_\$0;
#X obj 422 243 s spread_1_\$0;
#X obj 459 87 s trans_2_\$0;
#X obj 460 108 s trans_3_\$0;
#X obj 459 130 s trans_4_\$0;
#X obj 420 306 s spread_4_\$0;
#X obj 420 285 s spread_3_\$0;
#X obj 421 263 s spread_2_\$0;
#X obj 479 -192 loadbang;
#X floatatom 425 -166 5 0 27 0 - - - 0;
#X obj 552 -140 i;
#X obj 474 -140 i;
#X obj 553 -115 + 1;
#X obj 474 -114 - 1;
#X obj 432 -114 max 0;
#X obj 120 -228 inlet;
#X obj 76 -228 inlet;
#X obj 31 -228 inlet;
#X text 34 -252 shape;
#X text 72 -252 trans;
#X text 119 -252 spread;
#X obj -67 -228 inlet;
#X obj -114 -228 inlet;
#X text -112 -252 sync;
#X text -67 -252 div;
#X obj -20 -228 inlet;
#X obj -158 -228 inlet;
#X text -152 -251 rst;
#X text -28 -252 bpm;
#X obj -285 -228 inlet;
#X obj -213 -228 inlet;
#X text -221 -252 ext_rst;
#X text -290 -252 ext_metro;
#X obj -116 320 s sync_1_\$0;
#X obj -175 224 s rst_1_\$0;
#X obj 242 268 s bpm_1_\$0;
#X obj 9 339 s div_1_\$0;
#X obj -266 -150 s ext_metro_\$0;
#X obj -216 -103 s ext_rst_\$0;
#X obj -105 340 s sync_2_\$0;
#X obj -90 358 s sync_3_\$0;
#X obj -78 378 s sync_4_\$0;
#X obj -171 242 s rst_2_\$0;
#X obj -175 263 s rst_3_\$0;
#X obj -172 283 s rst_4_\$0;
#X obj 252 287 s bpm_2_\$0;
#X obj 269 311 s bpm_3_\$0;
#X obj 281 331 s bpm_4_\$0;
#X obj 25 359 s div_2_\$0;
#X obj 42 379 s div_3_\$0;
#X obj 60 399 s div_4_\$0;
#X obj 20 1157 r x_1_\$0;
#X obj 82 1157 r y_1_\$0;
#X obj 149 1157 r x_2_\$0;
#X obj 215 1157 r y_2_\$0;
#X obj 284 1157 r x_3_\$0;
#X obj 347 1157 r y_3_\$0;
#X obj 483 1157 r y_4_\$0;
#X obj 421 1158 r x_4_\$0;
#X obj 698 43 s selection_\$0;
#X msg 480 -167 13;
#X obj 503 -115 min 13;
#X obj 21 1216 outlet;
#X obj 87 1220 outlet;
#X obj 147 1221 outlet;
#X obj 213 1220 outlet;
#X obj 281 1221 outlet;
#X obj 351 1220 outlet;
#X obj 419 1221 outlet;
#X obj 487 1221 outlet;
#X obj 613 1220 outlet;
#X obj 669 1219 outlet;
#X obj 783 1220 outlet;
#X obj 728 1220 outlet;
#X obj 463 153 s out_trans_\$0;
#X obj 426 327 s out_spread_\$0;
#X obj 73 419 s out_div_\$0;
#X obj -68 397 s out_sync_\$0;
#X obj 293 352 s out_bpm_\$0;
#X obj 607 1004 r out_sync_\$0;
#X obj 714 1084 r out_shape_\$0;
#X obj 641 1034 r out_div_\$0;
#X obj 676 1059 r out_bpm_\$0;
#X obj 812 1134 r out_spread_\$0;
#X obj 765 1109 r out_trans_\$0;
#X obj 835 1221 outlet;
#X obj 889 1221 outlet;
#X text 31 1253 x_1;
#X text 160 1253 x_2;
#X text 288 1254 x_3;
#X text 429 1255 x_4;
#X text 94 1253 y_1;
#X text 221 1253 y_2;
#X text 367 1253 y_3;
#X text 486 1253 y_4;
#N canvas 66 32 1534 1097 handle_selections 0;
#X obj 847 632 s shape_1_\$0;
#X obj 847 692 s shape_4_\$0;
#X obj 847 672 s shape_3_\$0;
#X obj 847 652 s shape_2_\$0;
#X obj 987 635 s phase_1_\$0;
#X obj 987 655 s phase_2_\$0;
#X obj 987 675 s phase_3_\$0;
#X obj 987 695 s phase_4_\$0;
#X msg 685 576 4_corner;
#X obj 384 142 r selection_\$0;
#X obj 353 858 s shape_name_\$0;
#X msg 678 220 circle;
#X msg 678 246 circle_(r);
#X msg 680 322 infinite;
#X msg 680 349 infinite_(r);
#X msg 680 426 cross;
#X msg 680 452 cross_(r);
#X msg 681 483 inv_cross;
#X msg 681 509 inv_cross_(r);
#X obj 376 248 s out_shape_\$0;
#X msg 684 540 center;
#X msg 802 631 20;
#X msg 801 654 21;
#X msg 803 673 22;
#X msg 803 691 23;
#X obj 277 320 s shape_1_\$0;
#X obj 307 350 s shape_4_\$0;
#X obj 297 340 s shape_3_\$0;
#X obj 287 330 s shape_2_\$0;
#X obj 846 541 s shape_1_\$0;
#X obj 846 601 s shape_4_\$0;
#X obj 846 581 s shape_3_\$0;
#X obj 846 561 s shape_2_\$0;
#X obj 986 544 s phase_1_\$0;
#X obj 986 564 s phase_2_\$0;
#X obj 986 584 s phase_3_\$0;
#X obj 986 604 s phase_4_\$0;
#X msg 800 540 28;
#X msg 800 563 28;
#X msg 802 582 28;
#X msg 802 600 28;
#X obj 820 221 s shape_all_\$0;
#X obj 277 294 r shape_all_\$0;
#X obj 281 386 r phase_all_\$0;
#X obj 318 425 s phase_1_\$0;
#X obj 318 445 s phase_2_\$0;
#X obj 318 465 s phase_3_\$0;
#X obj 318 485 s phase_4_\$0;
#X obj 960 221 s phase_all_\$0;
#X obj 934 221 bng 20 250 50 0 empty empty empty 0 -10 0 12 #fcfcfc #000000 #000000;
#X obj 820 246 s shape_all_\$0;
#X obj 960 246 s phase_all_\$0;
#X msg 785 245 1;
#X obj 934 246 bng 20 250 50 0 empty empty empty 0 -10 0 12 #fcfcfc #000000 #000000;
#X obj 821 270 s shape_all_\$0;
#X obj 961 270 s phase_all_\$0;
#X obj 935 270 bng 20 250 50 0 empty empty empty 0 -10 0 12 #fcfcfc #000000 #000000;
#X obj 821 295 s shape_all_\$0;
#X obj 961 295 s phase_all_\$0;
#X obj 935 295 bng 20 250 50 0 empty empty empty 0 -10 0 12 #fcfcfc #000000 #000000;
#X obj 823 320 s shape_all_\$0;
#X obj 963 320 s phase_all_\$0;
#X obj 937 320 bng 20 250 50 0 empty empty empty 0 -10 0 12 #fcfcfc #000000 #000000;
#X obj 823 345 s shape_all_\$0;
#X obj 963 345 s phase_all_\$0;
#X obj 937 345 bng 20 250 50 0 empty empty empty 0 -10 0 12 #fcfcfc #000000 #000000;
#X obj 826 373 s shape_all_\$0;
#X obj 966 373 s phase_all_\$0;
#X obj 940 373 bng 20 250 50 0 empty empty empty 0 -10 0 12 #fcfcfc #000000 #000000;
#X obj 826 398 s shape_all_\$0;
#X obj 966 398 s phase_all_\$0;
#X obj 940 398 bng 20 250 50 0 empty empty empty 0 -10 0 12 #fcfcfc #000000 #000000;
#X obj 828 424 s shape_all_\$0;
#X obj 968 424 s phase_all_\$0;
#X obj 942 424 bng 20 250 50 0 empty empty empty 0 -10 0 12 #fcfcfc #000000 #000000;
#X obj 828 449 s shape_all_\$0;
#X obj 968 449 s phase_all_\$0;
#X obj 942 449 bng 20 250 50 0 empty empty empty 0 -10 0 12 #fcfcfc #000000 #000000;
#X obj 830 483 s shape_all_\$0;
#X obj 970 483 s phase_all_\$0;
#X obj 944 483 bng 20 250 50 0 empty empty empty 0 -10 0 12 #fcfcfc #000000 #000000;
#X obj 832 509 s shape_all_\$0;
#X obj 972 509 s phase_all_\$0;
#X obj 946 509 bng 20 250 50 0 empty empty empty 0 -10 0 12 #fcfcfc #000000 #000000;
#X msg 785 220 0;
#X msg 786 269 2;
#X msg 786 294 3;
#X msg 788 319 4;
#X msg 788 344 5;
#X msg 791 372 6;
#X msg 791 397 7;
#X msg 793 423 8;
#X msg 793 448 9;
#X msg 795 483 10;
#X msg 797 508 11;
#X obj 198 390 loadbang;
#X obj 723 113 loadbang;
#X msg 678 273 diamond;
#X msg 679 296 diamond_(r);
#X msg 681 373 eight;
#X msg 681 399 eight_(r);
#X msg 945 634 0;
#X msg 947 653 1;
#X msg 947 674 2;
#X msg 950 694 3;
#X msg 944 543 0;
#X msg 946 562 1;
#X msg 946 583 2;
#X msg 949 603 3;
#X msg 276 424 0;
#X msg 278 443 1;
#X msg 278 464 2;
#X msg 281 484 3;
#X obj 352 173 sel 13 12 11 10 9 8 7 6 5 4 3 2 1 0, f 43;
#X connect 8 0 10 0;
#X connect 8 0 21 0;
#X connect 9 0 19 0;
#X connect 9 0 113 0;
#X connect 11 0 10 0;
#X connect 11 0 84 0;
#X connect 12 0 10 0;
#X connect 12 0 52 0;
#X connect 13 0 10 0;
#X connect 13 0 87 0;
#X connect 14 0 10 0;
#X connect 14 0 88 0;
#X connect 15 0 10 0;
#X connect 15 0 91 0;
#X connect 16 0 10 0;
#X connect 16 0 92 0;
#X connect 17 0 10 0;
#X connect 17 0 93 0;
#X connect 18 0 10 0;
#X connect 18 0 94 0;
#X connect 20 0 10 0;
#X connect 20 0 37 0;
#X connect 21 0 0 0;
#X connect 21 0 22 0;
#X connect 22 0 3 0;
#X connect 22 0 23 0;
#X connect 23 0 2 0;
#X connect 23 0 24 0;
#X connect 24 0 1 0;
#X connect 24 0 101 0;
#X connect 37 0 29 0;
#X connect 37 0 38 0;
#X connect 38 0 32 0;
#X connect 38 0 39 0;
#X connect 39 0 31 0;
#X connect 39 0 40 0;
#X connect 40 0 30 0;
#X connect 40 0 105 0;
#X connect 42 0 25 0;
#X connect 42 0 28 0;
#X connect 42 0 27 0;
#X connect 42 0 26 0;
#X connect 43 0 109 0;
#X connect 49 0 48 0;
#X connect 52 0 50 0;
#X connect 52 0 53 0;
#X connect 53 0 51 0;
#X connect 56 0 55 0;
#X connect 59 0 58 0;
#X connect 62 0 61 0;
#X connect 65 0 64 0;
#X connect 68 0 67 0;
#X connect 71 0 70 0;
#X connect 74 0 73 0;
#X connect 77 0 76 0;
#X connect 80 0 79 0;
#X connect 83 0 82 0;
#X connect 84 0 41 0;
#X connect 84 0 49 0;
#X connect 85 0 54 0;
#X connect 85 0 56 0;
#X connect 86 0 57 0;
#X connect 86 0 59 0;
#X connect 87 0 60 0;
#X connect 87 0 62 0;
#X connect 88 0 63 0;
#X connect 88 0 65 0;
#X connect 89 0 66 0;
#X connect 89 0 68 0;
#X connect 90 0 69 0;
#X connect 90 0 71 0;
#X connect 91 0 72 0;
#X connect 91 0 74 0;
#X connect 92 0 75 0;
#X connect 92 0 77 0;
#X connect 93 0 78 0;
#X connect 93 0 80 0;
#X connect 94 0 81 0;
#X connect 94 0 83 0;
#X connect 95 0 109 0;
#X connect 96 0 11 0;
#X connect 97 0 10 0;
#X connect 97 0 85 0;
#X connect 98 0 10 0;
#X connect 98 0 86 0;
#X connect 99 0 10 0;
#X connect 99 0 89 0;
#X connect 100 0 10 0;
#X connect 100 0 90 0;
#X connect 101 0 4 0;
#X connect 101 0 102 0;
#X connect 102 0 5 0;
#X connect 102 0 103 0;
#X connect 103 0 6 0;
#X connect 103 0 104 0;
#X connect 104 0 7 0;
#X connect 105 0 33 0;
#X connect 105 0 106 0;
#X connect 106 0 34 0;
#X connect 106 0 107 0;
#X connect 107 0 35 0;
#X connect 107 0 108 0;
#X connect 108 0 36 0;
#X connect 109 0 44 0;
#X connect 109 0 110 0;
#X connect 110 0 45 0;
#X connect 110 0 111 0;
#X connect 111 0 46 0;
#X connect 111 0 112 0;
#X connect 112 0 47 0;
#X connect 113 0 11 0;
#X connect 113 1 12 0;
#X connect 113 2 97 0;
#X connect 113 3 98 0;
#X connect 113 4 13 0;
#X connect 113 5 14 0;
#X connect 113 6 99 0;
#X connect 113 7 100 0;
#X connect 113 8 15 0;
#X connect 113 9 16 0;
#X connect 113 10 17 0;
#X connect 113 11 18 0;
#X connect 113 12 20 0;
#X connect 113 13 8 0;
#X restore 870 -140 pd handle_selections;
#X text 615 1253 sync;
#X text 680 1253 div;
#X text 738 1253 bpm;
#X text 792 1253 shape;
#X text 839 1253 trans;
#X obj 457 14 loadbang;
#X obj 426 197 loadbang;
#X msg 458 39 127;
#X msg 427 222 127;
#X obj -135 695 quad_pan_automation;
#X obj 185 705 quad_pan_automation;
#X obj 479 709 quad_pan_automation;
#X obj 775 707 quad_pan_automation;
#X obj 180 -227 inlet;
#X obj 225 -228 inlet;
#X obj 187 -141 bng 20 250 50 0 empty empty empty 0 -10 0 12 #fcfcfc #000000 #000000;
#X obj 220 -144 bng 20 250 50 0 empty empty empty 0 -10 0 12 #fcfcfc #000000 #000000;
#X obj 1026 1220 outlet;
#X obj 766 862 r shape_name_\$0;
#X text 909 1253 spread;
#X text 1023 1255 shape_name;
#X obj 292 -227 inlet;
#X obj 968 1221 outlet;
#X text 971 1256 mono;
#X obj 905 1178 r mono_\$0;
#X msg 603 -155 13;
#X obj 607 -192 sel 0 1;
#X msg 638 -155 28;
#X obj 695 -5 spigot;
#X obj 624 -62 f;
#X obj 641 -5 spigot;
#X obj 630 89 s selection_mono_\$0;
#X obj 768 -34 delay 10;
#X obj 762 -62 bng 20 250 50 0 empty empty empty 0 -10 0 12 #fcfcfc #000000 #000000;
#X obj 242 108 vradio 15 1 0 5 empty empty empty 0 -10 0 12 #fcfcfc #000000 #000000 0;
#X obj 972 1022 spigot;
#X obj 885 1024 spigot;
#X obj 976 986 == 0;
#X obj 898 922 delay 10;
#X obj 892 894 bng 20 250 50 0 empty empty empty 0 -10 0 12 #fcfcfc #000000 #000000;
#X obj 874 956 symbol;
#X obj 1031 861 r shape_name_mono_\$0;
#X obj -6 809 s shape_name_mono_\$0;
#X obj 993 954 symbol;
#X obj 705 -31 == 0;
#X obj 969 924 < 1;
#X obj 663 -221 tgl 20 0 empty empty empty 0 -10 0 12 #fcfcfc #000000 #000000 0 1;
#X obj 607 -223 > 0;
#X obj 696 -69 > 0;
#X msg 637 -120 0;
#X obj 1094 1108 f \$0;
#X obj 1032 1109 pack s 0;
#X obj 1077 1085 loadbang;
#X msg 1015 1132 \; main_shape_label_\$2 label \$1;
#X obj 239 213 s mono_phase_\$0;
#X obj 607 -253 r mono_phase_\$0;
#X obj 719 -101 r mono_phase_\$0;
#X obj 972 890 r mono_phase_\$0;
#X text 288 -248 mono_phase;
#X obj -38 -7 loadbang;
#X msg -38 19 0;
#X text 172 -252 shape-;
#X text 226 -248 shape+;
#X obj 768 252 r mono_phase_\$0;
#X obj 735 287 - 1;
#X obj 733 320 s phase_1_\$0;
#X obj 735 342 s phase_2_\$0;
#X obj 737 365 s phase_3_\$0;
#X obj 738 388 s phase_4_\$0;
#X obj 896 250 r selection_mono_\$0;
#X obj 902 321 s shape_1_\$0;
#X obj 904 396 s shape_4_\$0;
#X obj 904 372 s shape_3_\$0;
#X obj 903 347 s shape_2_\$0;
#X obj 215 159 bng 20 250 50 0 empty empty go 3 10 1 12 #fcfcfc #000000 #000000;
#X obj 215 130 tgl 20 0 empty empty trig 0 -10 1 12 #fcfcfc #000000 #000000 0 1;
#X obj 375 -229 inlet;
#X obj 454 -231 inlet;
#X text 371 -250 trig_onoff;
#X text 450 -252 trig_go;
#X obj 128 283 s trig_onoff_\$0;
#X obj 92 628 r trig_onoff_\$0;
#X obj 126 310 s trig_go_\$0;
#X obj 113 649 r trig_go_\$0;
#X obj 394 638 r trig_onoff_\$0;
#X obj 435 661 r trig_go_\$0;
#X obj 700 640 r trig_onoff_\$0;
#X obj 741 663 r trig_go_\$0;
#X obj 1006 644 r trig_onoff_\$0;
#X obj 1047 667 r trig_go_\$0;
#X obj 1104 1181 r trig_onoff_\$0;
#X obj 1105 1217 outlet;
#X text 1100 1251 trig_onoff;
#X obj 397 392 s out_sync_name_\$0;
#X obj 1228 1183 r out_sync_name_\$0;
#X obj 1216 1224 outlet;
#X text 1201 1245 sync_name;
#X connect 0 0 159 3;
#X connect 1 0 159 2;
#X connect 2 0 159 5;
#X connect 3 0 159 4;
#X connect 4 0 159 6;
#X connect 5 0 159 7;
#X connect 6 0 159 8;
#X connect 7 0 159 9;
#X connect 8 0 159 0;
#X connect 9 0 159 1;
#X connect 10 0 160 0;
#X connect 11 0 160 1;
#X connect 12 0 160 3;
#X connect 13 0 160 2;
#X connect 14 0 160 4;
#X connect 15 0 160 5;
#X connect 16 0 160 6;
#X connect 17 0 160 7;
#X connect 18 0 160 8;
#X connect 19 0 160 9;
#X connect 20 0 161 0;
#X connect 21 0 161 1;
#X connect 22 0 162 0;
#X connect 23 0 162 1;
#X connect 24 0 161 3;
#X connect 25 0 161 2;
#X connect 26 0 161 5;
#X connect 27 0 161 4;
#X connect 28 0 161 6;
#X connect 29 0 161 7;
#X connect 30 0 161 8;
#X connect 31 0 161 9;
#X connect 32 0 162 4;
#X connect 33 0 162 5;
#X connect 34 0 162 2;
#X connect 35 0 162 3;
#X connect 36 0 162 6;
#X connect 37 0 162 7;
#X connect 38 0 162 8;
#X connect 39 0 162 9;
#X connect 48 0 64 0;
#X connect 49 0 65 0;
#X connect 50 0 54 0;
#X connect 50 0 56 0;
#X connect 50 0 57 0;
#X connect 50 0 58 0;
#X connect 50 0 128 0;
#X connect 51 0 55 0;
#X connect 51 0 61 0;
#X connect 51 0 60 0;
#X connect 51 0 59 0;
#X connect 51 0 129 0;
#X connect 52 1 88 0;
#X connect 52 1 96 0;
#X connect 52 1 97 0;
#X connect 52 1 98 0;
#X connect 52 3 87 0;
#X connect 52 3 93 0;
#X connect 52 3 94 0;
#X connect 52 3 95 0;
#X connect 52 3 131 0;
#X connect 52 4 90 0;
#X connect 52 4 102 0;
#X connect 52 4 103 0;
#X connect 52 4 104 0;
#X connect 52 4 130 0;
#X connect 52 5 89 0;
#X connect 52 5 100 0;
#X connect 52 5 99 0;
#X connect 52 5 101 0;
#X connect 52 5 132 0;
#X connect 52 7 243 0;
#X connect 62 0 114 0;
#X connect 63 0 64 1;
#X connect 63 0 65 1;
#X connect 63 0 179 0;
#X connect 64 0 66 0;
#X connect 65 0 67 0;
#X connect 66 0 115 0;
#X connect 67 0 68 0;
#X connect 68 0 63 0;
#X connect 69 0 51 0;
#X connect 70 0 50 0;
#X connect 71 0 63 0;
#X connect 75 0 52 4;
#X connect 76 0 52 3;
#X connect 79 0 52 5;
#X connect 80 0 52 2;
#X connect 83 0 91 0;
#X connect 84 0 92 0;
#X connect 105 0 116 0;
#X connect 106 0 117 0;
#X connect 107 0 118 0;
#X connect 108 0 119 0;
#X connect 109 0 120 0;
#X connect 110 0 121 0;
#X connect 111 0 123 0;
#X connect 112 0 122 0;
#X connect 114 0 63 0;
#X connect 115 0 63 0;
#X connect 133 0 124 0;
#X connect 134 0 126 0;
#X connect 135 0 125 0;
#X connect 136 0 127 0;
#X connect 137 0 140 0;
#X connect 138 0 139 0;
#X connect 155 0 157 0;
#X connect 156 0 158 0;
#X connect 157 0 50 0;
#X connect 158 0 51 0;
#X connect 159 0 40 0;
#X connect 159 1 41 0;
#X connect 159 9 192 0;
#X connect 160 0 42 0;
#X connect 160 1 43 0;
#X connect 161 0 44 0;
#X connect 161 1 45 0;
#X connect 162 0 47 0;
#X connect 162 1 46 0;
#X connect 163 0 165 0;
#X connect 164 0 166 0;
#X connect 165 0 49 0;
#X connect 166 0 48 0;
#X connect 168 0 190 0;
#X connect 171 0 184 0;
#X connect 174 0 172 0;
#X connect 175 0 115 1;
#X connect 175 0 199 0;
#X connect 176 0 175 0;
#X connect 176 1 177 0;
#X connect 177 0 115 1;
#X connect 177 0 199 0;
#X connect 178 0 113 0;
#X connect 179 0 178 0;
#X connect 179 0 180 0;
#X connect 180 0 181 0;
#X connect 182 0 179 0;
#X connect 183 0 182 0;
#X connect 184 0 204 0;
#X connect 185 0 201 0;
#X connect 185 0 167 0;
#X connect 186 0 201 0;
#X connect 186 0 167 0;
#X connect 187 0 185 1;
#X connect 188 0 190 0;
#X connect 188 0 193 0;
#X connect 189 0 188 0;
#X connect 190 0 186 0;
#X connect 191 0 193 0;
#X connect 193 0 185 0;
#X connect 194 0 178 1;
#X connect 195 0 189 0;
#X connect 195 0 187 0;
#X connect 195 0 186 1;
#X connect 197 0 176 0;
#X connect 197 0 196 0;
#X connect 198 0 194 0;
#X connect 198 0 180 1;
#X connect 199 0 63 0;
#X connect 200 0 201 1;
#X connect 201 0 203 0;
#X connect 202 0 200 0;
#X connect 205 0 197 0;
#X connect 206 0 183 0;
#X connect 206 0 198 0;
#X connect 207 0 195 0;
#X connect 209 0 210 0;
#X connect 210 0 184 0;
#X connect 210 0 225 0;
#X connect 213 0 214 0;
#X connect 214 0 215 0;
#X connect 214 0 216 0;
#X connect 214 0 217 0;
#X connect 214 0 218 0;
#X connect 219 0 220 0;
#X connect 219 0 221 0;
#X connect 219 0 222 0;
#X connect 219 0 223 0;
#X connect 224 0 232 0;
#X connect 225 0 230 0;
#X connect 226 0 225 0;
#X connect 227 0 224 0;
#X connect 231 0 159 12;
#X connect 233 0 159 13;
#X connect 234 0 160 12;
#X connect 235 0 160 13;
#X connect 236 0 161 12;
#X connect 237 0 161 13;
#X connect 238 0 162 12;
#X connect 239 0 162 13;
#X connect 240 0 241 0;
#X connect 244 0 245 0;
#X coords 0 -1 1 1 300 90 2 100 100;
