#N canvas 386 134 1534 805 10;
#X obj 10 -182 inlet~;
#X obj 19 606 outlet~;
#X obj 104 157 s \$0-control-x;
#X obj 157 178 s \$0-control-y;
#X obj 76 -180 inlet;
#X obj 137 -179 inlet;
#X obj 201 -178 inlet;
#X obj 386 -177 inlet;
#X obj 383 -97 s preset_\$0;
#X obj 400 111 r preset_\$0;
#X obj 399 182 sel 0 1 2 3 4 5;
#N canvas 440 189 1024 720 (subpatch) 0;
#X obj 0 0 cnv 4 190 17 empty empty empty 20 12 0 10 #e0e0e0 #404040 0;
#X obj -8 -292 inlet~;
#X text 96 36 audio input;
#X obj 70 375 outlet~;
#N canvas 0 22 553 562 bypass~ 0;
#X obj 35 32 inlet~;
#X obj 251 35 inlet;
#X obj 35 279 outlet~;
#X obj 51 227 line~;
#X obj 35 252 *~;
#X msg 51 195 1 5;
#X msg 84 195 0 5;
#X text 84 32 audio input;
#X obj 252 278 outlet~;
#X obj 268 226 line~;
#X obj 252 251 *~;
#X msg 268 194 1 5;
#X msg 301 194 0 5;
#X text 290 36 toggle (0/1);
#X obj 251 58 sel 0;
#X obj 238 92 t b b;
#X obj 281 92 t b b;
#X text 90 279 outlet for bypass;
#X text 310 278 outlet for processing;
#X obj 172 92 loadbang;
#X connect 0 0 4 0;
#X connect 0 0 10 0;
#X connect 1 0 14 0;
#X connect 3 0 4 1;
#X connect 4 0 2 0;
#X connect 5 0 3 0;
#X connect 6 0 3 0;
#X connect 9 0 10 1;
#X connect 10 0 8 0;
#X connect 11 0 9 0;
#X connect 12 0 9 0;
#X connect 14 0 15 0;
#X connect 14 1 16 0;
#X connect 15 0 5 0;
#X connect 15 1 12 0;
#X connect 16 0 6 0;
#X connect 16 1 11 0;
#X connect 19 0 5 0;
#X connect 19 0 12 0;
#X restore 70 227 pd bypass~;
#X obj 46 -277 spigot;
#X obj 155 -277 spigot;
#X obj 155 2 nbx 3 13 0 100 0 0 \$0rdelyadizan \$0rdeodn empty 0 -8 0 9 #000000 #ffffff #7c7c7c 0 256;
#X obj 46 -298 r \$0-control-x;
#X obj 155 -298 r \$0-control-y;
#X obj 252 -64 clip 0 1;
#X obj 71 2 tgl 13 0 empty empty x 15 7 1 10 #000000 #ffffff #7c7c7c 0 1;
#X obj 94 2 tgl 13 0 empty empty y 15 7 1 10 #000000 #ffffff #7c7c7c 0 1;
#X obj 118 2 tgl 13 0 empty empty fix 15 7 1 10 #000000 #ffffff #7c7c7c 0 1;
#X obj 2 2 tgl 13 0 empty empty dwn_samp 15 7 1 10 #000000 #ffffff #7c7c7c 0 1;
#X obj -25 -130 r ds_onoff_\$0;
#X obj 35 -95 r ds_x_\$0;
#X obj 55 -78 r ds_y_\$0;
#X obj 80 -60 r ds_fixed_\$0;
#X obj -30 103 r activate_\$0;
#X obj -10 130 spigot;
#N canvas 52 20 1534 1097 guts 0;
#X obj 154 71 inlet;
#X obj 79 71 inlet~;
#X obj 273 72 inlet;
#X text 273 53 switch;
#X text 153 54 ctrl;
#X obj 95 553 outlet~;
#X obj 234 445 samphold~;
#X obj 311 250 -~ 1;
#X obj 311 273 abs~;
#X obj 312 412 phasor~;
#X obj 311 388 *~ 20000;
#X obj 310 295 pow~ 4;
#X obj 396 221 noise~;
#X obj 484 285 *~;
#X obj 310 364 clip~ 0 1;
#X obj 396 267 hip~ 200;
#X obj 396 243 *~ 0.05;
#X obj 311 227 *~ 0.8;
#X text 510 243 add noise to control depth little bit;
#X obj 311 168 sig~;
#X obj 381 127 * 0.7;
#X obj 503 200 pow~ 0.4;
#X obj 273 124 switch~;
#X connect 0 0 20 0;
#X connect 1 0 6 0;
#X connect 2 0 22 0;
#X connect 6 0 5 0;
#X connect 7 0 8 0;
#X connect 8 0 11 0;
#X connect 9 0 6 1;
#X connect 10 0 9 0;
#X connect 11 0 14 0;
#X connect 12 0 16 0;
#X connect 13 0 14 0;
#X connect 14 0 10 0;
#X connect 15 0 13 0;
#X connect 16 0 15 0;
#X connect 17 0 7 0;
#X connect 19 0 17 0;
#X connect 19 0 21 0;
#X connect 20 0 19 0;
#X connect 21 0 13 1;
#X restore 171 283 pd guts;
#X obj 80 143 sel 0;
#X msg 80 166 0;
#X connect 1 0 4 0;
#X connect 4 0 3 0;
#X connect 4 1 21 0;
#X connect 5 0 10 0;
#X connect 6 0 10 0;
#X connect 7 0 21 1;
#X connect 8 0 5 0;
#X connect 9 0 6 0;
#X connect 10 0 7 0;
#X connect 11 0 5 1;
#X connect 12 0 6 1;
#X connect 14 0 20 1;
#X connect 14 0 21 2;
#X connect 14 0 22 0;
#X connect 15 0 14 0;
#X connect 16 0 11 0;
#X connect 17 0 12 0;
#X connect 18 0 13 0;
#X connect 18 0 7 0;
#X connect 19 0 20 0;
#X connect 20 0 4 1;
#X connect 21 0 3 0;
#X connect 22 0 23 0;
#X connect 23 0 4 1;
#X coords 0 1 100 -1 190 17 2 0 0;
#X restore 84 309 graph;
#N canvas 419 172 1024 720 (subpatch) 0;
#X obj 0 0 cnv 4 190 17 empty empty empty 20 12 0 10 #e0e0e0 #404040 0;
#X obj 46 34 inlet~;
#X text 96 36 audio input;
#X obj 46 311 outlet~;
#N canvas 0 22 450 300 bypass~ 0;
#X obj 35 32 inlet~;
#X obj 251 35 inlet;
#X obj 35 279 outlet~;
#X obj 51 227 line~;
#X obj 35 252 *~;
#X msg 51 195 1 5;
#X msg 84 195 0 5;
#X text 84 32 audio input;
#X obj 252 278 outlet~;
#X obj 268 226 line~;
#X obj 252 251 *~;
#X msg 268 194 1 5;
#X msg 301 194 0 5;
#X text 290 36 toggle (0/1);
#X obj 251 58 sel 0;
#X obj 238 92 t b b;
#X obj 281 92 t b b;
#X text 90 279 outlet for bypass;
#X text 310 278 outlet for processing;
#X obj 172 92 loadbang;
#X connect 0 0 4 0;
#X connect 0 0 10 0;
#X connect 1 0 14 0;
#X connect 3 0 4 1;
#X connect 4 0 2 0;
#X connect 5 0 3 0;
#X connect 6 0 3 0;
#X connect 9 0 10 1;
#X connect 10 0 8 0;
#X connect 11 0 9 0;
#X connect 12 0 9 0;
#X connect 14 0 15 0;
#X connect 14 1 16 0;
#X connect 15 0 5 0;
#X connect 15 1 12 0;
#X connect 16 0 6 0;
#X connect 16 1 11 0;
#X connect 19 0 5 0;
#X connect 19 0 12 0;
#X restore 56 221 pd bypass~;
#X obj 88 -276 spigot;
#X obj 155 -277 spigot;
#X obj 155 2 nbx 3 13 0 100 0 0 \$0rdelyadizan \$0rdeodn empty 0 -8 0 9 #000000 #ffffff #7c7c7c 0 256;
#X obj 88 -297 r \$0-control-x;
#X obj 155 -298 r \$0-control-y;
#X obj 252 -64 clip 0 1;
#X obj 71 2 tgl 13 0 empty empty x 15 7 1 10 #000000 #ffffff #7c7c7c 0 1;
#X obj 94 2 tgl 13 0 empty empty y 15 7 1 10 #000000 #ffffff #7c7c7c 0 1;
#X obj 118 2 tgl 13 0 empty empty fix 15 7 1 10 #000000 #ffffff #7c7c7c 0 1;
#X obj 2 2 tgl 13 0 empty empty ring_mod 15 7 1 10 #000000 #ffffff #7c7c7c 0 1;
#X obj 2 -120 r rm_onoff_\$0;
#X obj 35 -95 r rm_x_\$0;
#X obj 55 -78 r rm_y_\$0;
#X obj 80 -60 r rm_fixed_\$0;
#X obj -60 79 r activate_\$0;
#X obj -58 115 spigot;
#N canvas 102 70 806 482 guts 0;
#X obj 111 103 inlet~;
#X obj 219 94 inlet;
#X obj 432 107 inlet;
#X obj 432 130 switch~;
#X obj 101 390 outlet~;
#X obj 284 322 line~;
#X obj 220 350 *~;
#X obj 284 344 osc~;
#X obj 286 195 * 1270;
#X obj 286 157 + 0.05;
#X obj 284 303 pack 0 5;
#X connect 0 0 6 0;
#X connect 0 0 4 0;
#X connect 1 0 9 0;
#X connect 2 0 3 0;
#X connect 5 0 7 0;
#X connect 6 0 4 0;
#X connect 7 0 6 1;
#X connect 8 0 10 0;
#X connect 9 0 8 0;
#X connect 10 0 5 0;
#X restore 198 259 pd guts;
#X obj 13 112 sel 0;
#X msg 13 135 0;
#X connect 1 0 4 0;
#X connect 4 0 3 0;
#X connect 4 1 21 0;
#X connect 5 0 10 0;
#X connect 6 0 10 0;
#X connect 7 0 21 1;
#X connect 8 0 5 0;
#X connect 9 0 6 0;
#X connect 10 0 7 0;
#X connect 11 0 5 1;
#X connect 12 0 6 1;
#X connect 14 0 20 1;
#X connect 14 0 21 2;
#X connect 14 0 22 0;
#X connect 15 0 14 0;
#X connect 16 0 11 0;
#X connect 17 0 12 0;
#X connect 18 0 13 0;
#X connect 18 0 7 0;
#X connect 19 0 20 0;
#X connect 20 0 4 1;
#X connect 21 0 3 0;
#X connect 22 0 23 0;
#X connect 23 0 4 1;
#X coords 0 1 100 -1 190 17 2 0 0;
#X restore 84 327 graph;
#N canvas 766 172 1024 720 (subpatch) 0;
#X obj 0 0 cnv 4 190 17 empty empty empty 20 12 0 10 #e0e0e0 #404040 0;
#X obj 46 34 inlet~;
#X text 294 -84 stream of incoming data values (0 - 100);
#X text 96 36 audio input;
#X obj 46 311 outlet~;
#N canvas 0 22 450 300 bypass~ 0;
#X obj 35 32 inlet~;
#X obj 251 35 inlet;
#X obj 35 279 outlet~;
#X obj 51 227 line~;
#X obj 35 252 *~;
#X msg 51 195 1 5;
#X msg 84 195 0 5;
#X text 84 32 audio input;
#X obj 252 278 outlet~;
#X obj 268 226 line~;
#X obj 252 251 *~;
#X msg 268 194 1 5;
#X msg 301 194 0 5;
#X text 290 36 toggle (0/1);
#X obj 251 58 sel 0;
#X obj 238 92 t b b;
#X obj 281 92 t b b;
#X text 90 279 outlet for bypass;
#X text 310 278 outlet for processing;
#X obj 172 92 loadbang;
#X connect 0 0 4 0;
#X connect 0 0 10 0;
#X connect 1 0 14 0;
#X connect 3 0 4 1;
#X connect 4 0 2 0;
#X connect 5 0 3 0;
#X connect 6 0 3 0;
#X connect 9 0 10 1;
#X connect 10 0 8 0;
#X connect 11 0 9 0;
#X connect 12 0 9 0;
#X connect 14 0 15 0;
#X connect 14 1 16 0;
#X connect 15 0 5 0;
#X connect 15 1 12 0;
#X connect 16 0 6 0;
#X connect 16 1 11 0;
#X connect 19 0 5 0;
#X connect 19 0 12 0;
#X restore 70 227 pd bypass~;
#X obj 88 -276 spigot;
#X obj 155 -277 spigot;
#X obj 155 2 nbx 3 13 0 100 0 0 \$0rdelyadizan \$0rdeodn empty 0 -8 0 9 #000000 #ffffff #7c7c7c 0 256;
#X obj 88 -297 r \$0-control-x;
#X obj 155 -298 r \$0-control-y;
#X obj 252 -64 clip 0 1;
#X obj 71 2 tgl 13 0 empty empty x 15 7 1 10 #000000 #ffffff #7c7c7c 0 1;
#X obj 94 2 tgl 13 0 empty empty y 15 7 1 10 #000000 #ffffff #7c7c7c 0 1;
#X obj 118 2 tgl 13 0 empty empty fix 15 7 1 10 #000000 #ffffff #7c7c7c 0 1;
#X obj 2 2 tgl 13 0 empty empty phaser 15 7 1 10 #000000 #ffffff #7c7c7c 0 1;
#X obj 2 -120 r ph_onoff_\$0;
#X obj 35 -95 r ph_x_\$0;
#X obj 55 -78 r ph_y_\$0;
#X obj 80 -60 r ph_fixed_\$0;
#X obj -140 83 r activate_\$0;
#X obj -138 119 spigot;
#N canvas 102 70 648 689 guts 0;
#X obj 121 43 inlet~;
#X obj 208 39 inlet;
#X obj 320 38 inlet;
#X obj 320 61 switch~;
#X obj 104 229 outlet~;
#X obj 346 223 +~ 1;
#X obj 346 250 *~ 0.5;
#X text 397 150 Low Frequency Oscillator;
#X text 425 306 t (ms);
#X text 430 277 Depth (ms);
#X obj 346 196 osc~ 1;
#X text 402 171 Rate (Hz);
#X obj 311 393 +~, f 4;
#N canvas 640 145 622 635 apset~ 0;
#N canvas 0 22 450 300 ap~ 0;
#X obj 127 160 rpole~;
#X obj 127 135 rzero_rev~;
#X obj 127 92 inlet~;
#X obj 127 185 outlet~;
#X obj 204 92 inlet~;
#X connect 0 0 3 0;
#X connect 1 0 0 0;
#X connect 2 0 1 0;
#X connect 4 0 1 1;
#X connect 4 0 0 1;
#X restore 155 36 pd ap~;
#N canvas 0 22 450 300 ap~ 0;
#X obj 127 160 rpole~;
#X obj 127 135 rzero_rev~;
#X obj 127 92 inlet~;
#X obj 127 185 outlet~;
#X obj 204 92 inlet~;
#X connect 0 0 3 0;
#X connect 1 0 0 0;
#X connect 2 0 1 0;
#X connect 4 0 1 1;
#X connect 4 0 0 1;
#X restore 155 66 pd ap~;
#N canvas 0 22 450 300 ap~ 0;
#X obj 127 160 rpole~;
#X obj 127 135 rzero_rev~;
#X obj 127 92 inlet~;
#X obj 127 185 outlet~;
#X obj 204 92 inlet~;
#X connect 0 0 3 0;
#X connect 1 0 0 0;
#X connect 2 0 1 0;
#X connect 4 0 1 1;
#X connect 4 0 0 1;
#X restore 155 96 pd ap~;
#N canvas 0 22 450 300 ap~ 0;
#X obj 127 160 rpole~;
#X obj 127 135 rzero_rev~;
#X obj 127 92 inlet~;
#X obj 127 185 outlet~;
#X obj 204 92 inlet~;
#X connect 0 0 3 0;
#X connect 1 0 0 0;
#X connect 2 0 1 0;
#X connect 4 0 1 1;
#X connect 4 0 0 1;
#X restore 155 126 pd ap~;
#N canvas 0 22 450 300 ap~ 0;
#X obj 127 160 rpole~;
#X obj 127 135 rzero_rev~;
#X obj 127 92 inlet~;
#X obj 127 185 outlet~;
#X obj 204 92 inlet~;
#X connect 0 0 3 0;
#X connect 1 0 0 0;
#X connect 2 0 1 0;
#X connect 4 0 1 1;
#X connect 4 0 0 1;
#X restore 155 156 pd ap~;
#N canvas 0 22 450 300 ap~ 0;
#X obj 127 160 rpole~;
#X obj 127 135 rzero_rev~;
#X obj 127 92 inlet~;
#X obj 127 185 outlet~;
#X obj 204 92 inlet~;
#X connect 0 0 3 0;
#X connect 1 0 0 0;
#X connect 2 0 1 0;
#X connect 4 0 1 1;
#X connect 4 0 0 1;
#X restore 155 186 pd ap~;
#N canvas 0 22 450 300 ap~ 0;
#X obj 127 160 rpole~;
#X obj 127 135 rzero_rev~;
#X obj 127 92 inlet~;
#X obj 127 185 outlet~;
#X obj 204 92 inlet~;
#X connect 0 0 3 0;
#X connect 1 0 0 0;
#X connect 2 0 1 0;
#X connect 4 0 1 1;
#X connect 4 0 0 1;
#X restore 155 216 pd ap~;
#N canvas 0 22 450 300 ap~ 0;
#X obj 127 160 rpole~;
#X obj 127 135 rzero_rev~;
#X obj 127 92 inlet~;
#X obj 127 185 outlet~;
#X obj 204 92 inlet~;
#X connect 0 0 3 0;
#X connect 1 0 0 0;
#X connect 2 0 1 0;
#X connect 4 0 1 1;
#X connect 4 0 0 1;
#X restore 155 246 pd ap~;
#N canvas 0 22 450 300 ap~ 0;
#X obj 127 160 rpole~;
#X obj 127 135 rzero_rev~;
#X obj 127 92 inlet~;
#X obj 127 185 outlet~;
#X obj 204 92 inlet~;
#X connect 0 0 3 0;
#X connect 1 0 0 0;
#X connect 2 0 1 0;
#X connect 4 0 1 1;
#X connect 4 0 0 1;
#X restore 155 276 pd ap~;
#N canvas 0 22 450 300 ap~ 0;
#X obj 127 160 rpole~;
#X obj 127 135 rzero_rev~;
#X obj 127 92 inlet~;
#X obj 127 185 outlet~;
#X obj 204 92 inlet~;
#X connect 0 0 3 0;
#X connect 1 0 0 0;
#X connect 2 0 1 0;
#X connect 4 0 1 1;
#X connect 4 0 0 1;
#X restore 155 306 pd ap~;
#N canvas 0 22 450 300 ap~ 0;
#X obj 127 160 rpole~;
#X obj 127 135 rzero_rev~;
#X obj 127 92 inlet~;
#X obj 127 185 outlet~;
#X obj 204 92 inlet~;
#X connect 0 0 3 0;
#X connect 1 0 0 0;
#X connect 2 0 1 0;
#X connect 4 0 1 1;
#X connect 4 0 0 1;
#X restore 155 336 pd ap~;
#N canvas 0 22 450 300 ap~ 0;
#X obj 127 160 rpole~;
#X obj 127 135 rzero_rev~;
#X obj 127 92 inlet~;
#X obj 127 185 outlet~;
#X obj 204 92 inlet~;
#X connect 0 0 3 0;
#X connect 1 0 0 0;
#X connect 2 0 1 0;
#X connect 4 0 1 1;
#X connect 4 0 0 1;
#X restore 155 366 pd ap~;
#N canvas 0 22 450 300 ap~ 0;
#X obj 127 160 rpole~;
#X obj 127 135 rzero_rev~;
#X obj 127 92 inlet~;
#X obj 127 185 outlet~;
#X obj 204 92 inlet~;
#X connect 0 0 3 0;
#X connect 1 0 0 0;
#X connect 2 0 1 0;
#X connect 4 0 1 1;
#X connect 4 0 0 1;
#X restore 155 396 pd ap~;
#N canvas 0 22 450 300 ap~ 0;
#X obj 127 160 rpole~;
#X obj 127 135 rzero_rev~;
#X obj 127 92 inlet~;
#X obj 127 185 outlet~;
#X obj 204 92 inlet~;
#X connect 0 0 3 0;
#X connect 1 0 0 0;
#X connect 2 0 1 0;
#X connect 4 0 1 1;
#X connect 4 0 0 1;
#X restore 155 426 pd ap~;
#N canvas 0 22 450 300 ap~ 0;
#X obj 127 160 rpole~;
#X obj 127 135 rzero_rev~;
#X obj 127 92 inlet~;
#X obj 127 185 outlet~;
#X obj 204 92 inlet~;
#X connect 0 0 3 0;
#X connect 1 0 0 0;
#X connect 2 0 1 0;
#X connect 4 0 1 1;
#X connect 4 0 0 1;
#X restore 155 456 pd ap~;
#N canvas 0 22 450 300 ap~ 0;
#X obj 127 160 rpole~;
#X obj 127 135 rzero_rev~;
#X obj 127 92 inlet~;
#X obj 127 185 outlet~;
#X obj 204 92 inlet~;
#X connect 0 0 3 0;
#X connect 1 0 0 0;
#X connect 2 0 1 0;
#X connect 4 0 1 1;
#X connect 4 0 0 1;
#X restore 155 486 pd ap~;
#X obj 155 6 inlet~;
#X obj 225 6 inlet~;
#X obj 155 511 outlet~;
#X connect 0 0 1 0;
#X connect 1 0 2 0;
#X connect 2 0 3 0;
#X connect 3 0 4 0;
#X connect 4 0 5 0;
#X connect 5 0 6 0;
#X connect 6 0 7 0;
#X connect 7 0 8 0;
#X connect 8 0 9 0;
#X connect 9 0 10 0;
#X connect 10 0 11 0;
#X connect 11 0 12 0;
#X connect 12 0 13 0;
#X connect 13 0 14 0;
#X connect 14 0 15 0;
#X connect 15 0 18 0;
#X connect 16 0 0 0;
#X connect 17 0 0 1;
#X connect 17 0 1 1;
#X connect 17 0 2 1;
#X connect 17 0 3 1;
#X connect 17 0 4 1;
#X connect 17 0 5 1;
#X connect 17 0 6 1;
#X connect 17 0 7 1;
#X connect 17 0 8 1;
#X connect 17 0 9 1;
#X connect 17 0 10 1;
#X connect 17 0 11 1;
#X connect 17 0 12 1;
#X connect 17 0 13 1;
#X connect 17 0 14 1;
#X connect 17 0 15 1;
#X restore 323 365 pd apset~;
#X obj 345 278 *~ 0.3, f 9;
#X obj 343 302 +~ 0.6, f 11;
#X obj 341 331 clip~ 0 1;
#X obj 346 148 + 0.02;
#X obj 346 171 * 7;
#X connect 0 0 13 0;
#X connect 0 0 12 0;
#X connect 1 0 17 0;
#X connect 2 0 3 0;
#X connect 5 0 6 0;
#X connect 6 0 14 0;
#X connect 10 0 5 0;
#X connect 12 0 4 0;
#X connect 13 0 12 1;
#X connect 14 0 15 0;
#X connect 15 0 16 0;
#X connect 16 0 13 1;
#X connect 17 0 18 0;
#X connect 18 0 10 0;
#X restore 171 265 pd guts;
#X obj 10 128 sel 0;
#X msg 10 151 0;
#X connect 1 0 5 0;
#X connect 5 0 4 0;
#X connect 5 1 22 0;
#X connect 6 0 11 0;
#X connect 7 0 11 0;
#X connect 8 0 22 1;
#X connect 9 0 6 0;
#X connect 10 0 7 0;
#X connect 11 0 8 0;
#X connect 12 0 6 1;
#X connect 13 0 7 1;
#X connect 15 0 21 1;
#X connect 15 0 22 2;
#X connect 15 0 23 0;
#X connect 16 0 15 0;
#X connect 17 0 12 0;
#X connect 18 0 13 0;
#X connect 19 0 14 0;
#X connect 19 0 8 0;
#X connect 20 0 21 0;
#X connect 21 0 5 1;
#X connect 22 0 4 0;
#X connect 23 0 24 0;
#X connect 24 0 5 1;
#X coords 0 1 100 -1 190 17 2 0 0;
#X restore 84 399 graph;
#N canvas 484 69 1024 720 (subpatch) 0;
#X obj 0 0 cnv 4 190 17 empty empty empty 20 12 0 10 #e0e0e0 #404040 0;
#X obj -48 180 inlet~;
#X obj 32 478 outlet~;
#N canvas 0 22 450 300 bypass~ 0;
#X obj 35 32 inlet~;
#X obj 251 35 inlet;
#X obj 35 279 outlet~;
#X obj 51 227 line~;
#X obj 35 252 *~;
#X msg 51 195 1 5;
#X msg 84 195 0 5;
#X text 84 32 audio input;
#X obj 252 278 outlet~;
#X obj 268 226 line~;
#X obj 252 251 *~;
#X msg 268 194 1 5;
#X msg 301 194 0 5;
#X text 290 36 toggle (0/1);
#X obj 251 58 sel 0;
#X obj 238 92 t b b;
#X obj 281 92 t b b;
#X text 90 279 outlet for bypass;
#X text 310 278 outlet for processing;
#X obj 172 92 loadbang;
#X connect 0 0 4 0;
#X connect 0 0 10 0;
#X connect 1 0 14 0;
#X connect 3 0 4 1;
#X connect 4 0 2 0;
#X connect 5 0 3 0;
#X connect 6 0 3 0;
#X connect 9 0 10 1;
#X connect 10 0 8 0;
#X connect 11 0 9 0;
#X connect 12 0 9 0;
#X connect 14 0 15 0;
#X connect 14 1 16 0;
#X connect 15 0 5 0;
#X connect 15 1 12 0;
#X connect 16 0 6 0;
#X connect 16 1 11 0;
#X connect 19 0 5 0;
#X connect 19 0 12 0;
#X restore 55 230 pd bypass~;
#X obj 88 -276 spigot;
#X obj 155 -277 spigot;
#X obj 155 2 nbx 3 13 0 100 0 0 \$0rdelyadizan \$0rdeodn empty 0 -8 0 9 #000000 #ffffff #7c7c7c 0 256;
#X obj 88 -297 r \$0-control-x;
#X obj 155 -298 r \$0-control-y;
#X obj 252 -64 clip 0 1;
#X obj 71 2 tgl 13 0 empty empty x 15 7 1 10 #000000 #ffffff #7c7c7c 0 1;
#X obj 94 2 tgl 13 0 empty empty y 15 7 1 10 #000000 #ffffff #7c7c7c 0 1;
#X obj 118 2 tgl 13 0 empty empty fix 15 7 1 10 #000000 #ffffff #7c7c7c 0 1;
#X obj 2 2 tgl 13 0 empty empty reverb 15 7 1 10 #000000 #ffffff #7c7c7c 0 1;
#X obj 2 -120 r rv_onoff_\$0;
#X obj 35 -95 r rv_x_\$0;
#X obj 55 -78 r rv_y_\$0;
#X obj 80 -60 r rv_fixed_\$0;
#X obj 245 393 line~;
#X obj 239 438 *~;
#X msg 243 348 0 200;
#X msg 302 348 1 10;
#X obj 269 308 sel 0 1;
#X obj -32 77 r activate_\$0;
#X obj -30 113 spigot;
#N canvas 102 70 1010 645 guts 0;
#X obj 156 89 inlet~;
#X obj 236 94 inlet;
#X obj 419 78 inlet;
#X obj 359 123 switch~;
#X obj 149 482 outlet~;
#N canvas 179 36 500 386 rev3-hacked~ 0;
#X obj 39 58 inlet;
#X obj 39 164 pack 0 50;
#X obj -27 290 outlet~;
#X obj 39 115 clip 0 100;
#X obj 131 224 s \$0-lop;
#N canvas 169 45 927 813 doit 0;
#X obj 218 386 *~;
#X obj 341 396 *~;
#X obj 267 389 *~;
#X obj 305 392 *~;
#X obj 28 175 lop~;
#X obj 27 204 -~;
#X obj 27 291 *~;
#X obj 16 319 +~;
#X obj 75 182 lop~;
#X obj 76 214 -~;
#X obj 77 294 *~;
#X obj 67 318 +~;
#X obj 124 187 lop~;
#X obj 124 214 -~;
#X obj 125 297 *~;
#X obj 116 322 +~;
#X obj 176 191 lop~;
#X obj 175 218 -~;
#X obj 175 301 *~;
#X obj 168 326 +~;
#X obj 15 372 *~;
#X obj 169 383 *~;
#X obj 67 376 *~;
#X obj 115 380 *~;
#X obj 207 160 r \$0-lop;
#X obj 183 246 r \$0-damp;
#X obj 183 271 line~;
#X obj 17 14 delread~ \$0-del1 10;
#X obj 117 56 delread~ \$0-del3 13.4567;
#X obj 68 35 delread~ \$0-del2 11.6356;
#X obj 171 77 delread~ \$0-del4 16.7345;
#X obj 524 407 *~;
#X obj 631 409 *~;
#X obj 560 408 *~;
#X obj 595 409 *~;
#X obj 377 399 *~;
#X obj 488 406 *~;
#X obj 414 402 *~;
#X obj 451 405 *~;
#X obj 654 354 line~;
#X obj 708 387 r \$0-fb;
#X obj 218 100 delread~ \$0-del5 20.1862;
#X obj 267 121 delread~ \$0-del6 25.7417;
#X obj 304 142 delread~ \$0-del7 31.4693;
#X obj 341 163 delread~ \$0-del8 38.2944;
#X obj 376 184 delread~ \$0-del9 46.6838;
#X obj 414 205 delread~ \$0-del10 55.4567;
#X obj 488 247 delread~ \$0-del12 76.8243;
#X obj 524 268 delread~ \$0-del13 88.5623;
#X obj 561 289 delread~ \$0-del14 101.278;
#X obj 595 310 delread~ \$0-del15 115.397;
#X obj 632 331 delread~ \$0-del16 130.502;
#X obj 25 346 inlet~;
#X obj 69 440 +~;
#X obj 105 440 -~;
#X obj 141 440 +~;
#X obj 177 440 -~;
#X obj 214 440 +~;
#X obj 250 440 -~;
#X obj 286 440 +~;
#X obj 322 440 -~;
#X obj 359 440 +~;
#X obj 395 440 -~;
#X obj 431 440 +~;
#X obj 467 440 -~;
#X obj 504 440 +~;
#X obj 540 440 -~;
#X obj 576 440 +~;
#X obj 612 440 -~;
#X obj 69 474 +~;
#X obj 177 474 -~;
#X obj 105 474 +~;
#X obj 141 474 -~;
#X obj 214 474 +~;
#X obj 322 474 -~;
#X obj 250 474 +~;
#X obj 286 474 -~;
#X obj 359 474 +~;
#X obj 467 474 -~;
#X obj 395 474 +~;
#X obj 431 474 -~;
#X obj 504 474 +~;
#X obj 612 474 -~;
#X obj 540 474 +~;
#X obj 576 474 -~;
#X obj 69 518 +~;
#X obj 105 518 +~;
#X obj 322 518 -~;
#X obj 286 518 -~;
#X obj 141 518 +~;
#X obj 177 518 +~;
#X obj 214 518 -~;
#X obj 250 518 -~;
#X obj 360 518 +~;
#X obj 396 518 +~;
#X obj 613 518 -~;
#X obj 577 518 -~;
#X obj 432 518 +~;
#X obj 468 518 +~;
#X obj 505 518 -~;
#X obj 541 518 -~;
#X obj 70 575 +~;
#X obj 106 575 +~;
#X obj 469 575 -~;
#X obj 433 575 -~;
#X obj 142 575 +~;
#X obj 178 575 +~;
#X obj 361 575 -~;
#X obj 397 575 -~;
#X obj 215 575 +~;
#X obj 251 575 +~;
#X obj 287 575 +~;
#X obj 323 575 +~;
#X obj 614 575 -~;
#X obj 578 575 -~;
#X obj 506 575 -~;
#X obj 542 575 -~;
#X obj 628 606 outlet~;
#X obj 451 226 delread~ \$0-del11 65.1755;
#X obj 614 629 delwrite~ \$0-del16 130.502;
#X obj 361 776 delwrite~ \$0-del9 46.6838;
#X obj 398 755 delwrite~ \$0-del10 55.4567;
#X obj 434 734 delwrite~ \$0-del11 65.1755;
#X obj 470 713 delwrite~ \$0-del12 76.8243;
#X obj 506 692 delwrite~ \$0-del13 88.5623;
#X obj 542 671 delwrite~ \$0-del14 101.278;
#X obj 579 650 delwrite~ \$0-del15 115.397;
#X obj 323 606 delwrite~ \$0-del8 38.2944;
#X obj 287 628 delwrite~ \$0-del7 31.4693;
#X obj 252 650 delwrite~ \$0-del6 25.7417;
#X obj 215 672 delwrite~ \$0-del5 20.1862;
#X obj 71 761 delwrite~ \$0-del1 10;
#X obj 106 737 delwrite~ \$0-del2 11.6356;
#X obj 141 715 delwrite~ \$0-del3 13.4567;
#X obj 179 693 delwrite~ \$0-del4 16.7345;
#X connect 0 0 57 0;
#X connect 0 0 58 0;
#X connect 1 0 59 1;
#X connect 1 0 60 1;
#X connect 2 0 57 1;
#X connect 2 0 58 1;
#X connect 3 0 59 0;
#X connect 3 0 60 0;
#X connect 4 0 5 0;
#X connect 5 0 6 0;
#X connect 6 0 7 1;
#X connect 7 0 20 0;
#X connect 8 0 9 0;
#X connect 9 0 10 0;
#X connect 10 0 11 1;
#X connect 11 0 22 0;
#X connect 12 0 13 0;
#X connect 13 0 14 0;
#X connect 14 0 15 1;
#X connect 15 0 23 0;
#X connect 16 0 17 0;
#X connect 17 0 18 0;
#X connect 18 0 19 1;
#X connect 19 0 21 0;
#X connect 20 0 53 0;
#X connect 20 0 54 0;
#X connect 21 0 55 1;
#X connect 21 0 56 1;
#X connect 22 0 54 1;
#X connect 22 0 53 1;
#X connect 23 0 55 0;
#X connect 23 0 56 0;
#X connect 24 0 16 1;
#X connect 24 0 12 1;
#X connect 24 0 8 1;
#X connect 24 0 4 1;
#X connect 25 0 26 0;
#X connect 26 0 18 1;
#X connect 26 0 14 1;
#X connect 26 0 10 1;
#X connect 26 0 6 1;
#X connect 27 0 4 0;
#X connect 27 0 5 1;
#X connect 27 0 7 0;
#X connect 28 0 15 0;
#X connect 28 0 12 0;
#X connect 28 0 13 1;
#X connect 29 0 8 0;
#X connect 29 0 9 1;
#X connect 29 0 11 0;
#X connect 30 0 19 0;
#X connect 30 0 17 1;
#X connect 30 0 16 0;
#X connect 31 0 65 0;
#X connect 31 0 66 0;
#X connect 32 0 67 1;
#X connect 32 0 68 1;
#X connect 33 0 65 1;
#X connect 33 0 66 1;
#X connect 34 0 67 0;
#X connect 34 0 68 0;
#X connect 35 0 61 0;
#X connect 35 0 62 0;
#X connect 36 0 63 1;
#X connect 36 0 64 1;
#X connect 37 0 61 1;
#X connect 37 0 62 1;
#X connect 38 0 63 0;
#X connect 38 0 64 0;
#X connect 39 0 2 1;
#X connect 39 0 0 1;
#X connect 39 0 3 1;
#X connect 39 0 1 1;
#X connect 39 0 21 1;
#X connect 39 0 23 1;
#X connect 39 0 22 1;
#X connect 39 0 20 1;
#X connect 39 0 35 1;
#X connect 39 0 38 1;
#X connect 39 0 36 1;
#X connect 39 0 31 1;
#X connect 39 0 33 1;
#X connect 39 0 34 1;
#X connect 39 0 32 1;
#X connect 39 0 37 1;
#X connect 40 0 39 0;
#X connect 41 0 0 0;
#X connect 42 0 2 0;
#X connect 43 0 3 0;
#X connect 44 0 1 0;
#X connect 45 0 35 0;
#X connect 46 0 37 0;
#X connect 47 0 36 0;
#X connect 48 0 31 0;
#X connect 49 0 33 0;
#X connect 50 0 34 0;
#X connect 51 0 32 0;
#X connect 52 0 20 0;
#X connect 53 0 69 0;
#X connect 53 0 72 0;
#X connect 54 0 71 0;
#X connect 54 0 70 0;
#X connect 55 0 69 1;
#X connect 55 0 72 1;
#X connect 56 0 71 1;
#X connect 56 0 70 1;
#X connect 57 0 73 0;
#X connect 57 0 76 0;
#X connect 58 0 75 0;
#X connect 58 0 74 0;
#X connect 59 0 73 1;
#X connect 59 0 76 1;
#X connect 60 0 75 1;
#X connect 60 0 74 1;
#X connect 61 0 77 0;
#X connect 61 0 80 0;
#X connect 62 0 79 0;
#X connect 62 0 78 0;
#X connect 63 0 77 1;
#X connect 63 0 80 1;
#X connect 64 0 79 1;
#X connect 64 0 78 1;
#X connect 65 0 81 0;
#X connect 65 0 84 0;
#X connect 66 0 83 0;
#X connect 66 0 82 0;
#X connect 67 0 81 1;
#X connect 67 0 84 1;
#X connect 68 0 83 1;
#X connect 68 0 82 1;
#X connect 69 0 85 0;
#X connect 69 0 91 0;
#X connect 70 0 90 0;
#X connect 70 0 87 0;
#X connect 71 0 86 0;
#X connect 71 0 92 0;
#X connect 72 0 89 0;
#X connect 72 0 88 0;
#X connect 73 0 85 1;
#X connect 73 0 91 1;
#X connect 74 0 90 1;
#X connect 74 0 87 1;
#X connect 75 0 86 1;
#X connect 75 0 92 1;
#X connect 76 0 89 1;
#X connect 76 0 88 1;
#X connect 77 0 93 0;
#X connect 77 0 99 0;
#X connect 78 0 98 0;
#X connect 78 0 95 0;
#X connect 79 0 94 0;
#X connect 79 0 100 0;
#X connect 80 0 97 0;
#X connect 80 0 96 0;
#X connect 81 0 93 1;
#X connect 81 0 99 1;
#X connect 82 0 98 1;
#X connect 82 0 95 1;
#X connect 83 0 94 1;
#X connect 83 0 100 1;
#X connect 84 0 97 1;
#X connect 84 0 96 1;
#X connect 85 0 101 0;
#X connect 85 0 107 0;
#X connect 86 0 102 0;
#X connect 86 0 108 0;
#X connect 87 0 112 0;
#X connect 87 0 113 0;
#X connect 88 0 111 0;
#X connect 88 0 114 0;
#X connect 89 0 105 0;
#X connect 89 0 104 0;
#X connect 90 0 106 0;
#X connect 90 0 103 0;
#X connect 91 0 109 0;
#X connect 91 0 115 0;
#X connect 92 0 110 0;
#X connect 92 0 116 0;
#X connect 93 0 107 1;
#X connect 93 0 101 1;
#X connect 94 0 108 1;
#X connect 94 0 102 1;
#X connect 95 0 113 1;
#X connect 95 0 112 1;
#X connect 96 0 114 1;
#X connect 96 0 111 1;
#X connect 97 0 104 1;
#X connect 97 0 105 1;
#X connect 98 0 103 1;
#X connect 98 0 106 1;
#X connect 99 0 115 1;
#X connect 99 0 109 1;
#X connect 100 0 116 1;
#X connect 100 0 110 1;
#X connect 101 0 131 0;
#X connect 102 0 132 0;
#X connect 103 0 123 0;
#X connect 104 0 122 0;
#X connect 105 0 133 0;
#X connect 106 0 134 0;
#X connect 107 0 120 0;
#X connect 108 0 121 0;
#X connect 109 0 130 0;
#X connect 110 0 129 0;
#X connect 111 0 128 0;
#X connect 112 0 127 0;
#X connect 113 0 119 0;
#X connect 114 0 126 0;
#X connect 115 0 117 0;
#X connect 115 0 124 0;
#X connect 116 0 125 0;
#X connect 118 0 38 0;
#X restore -27 198 pd doit;
#X obj -27 36 inlet~;
#X obj 39 194 s \$0-fb;
#X obj 198 224 s \$0-damp;
#X obj 39 140 / 400;
#X text 42 290 abused version of Miller Puckette's rev3~;
#X obj 131 144 loadbang;
#X msg 131 201 3000;
#X msg 198 200 0.2;
#X obj 131 165 t b b;
#X text 85 58 liveness \, 0-100 \, usually between 85 and 100;
#X text 24 36 audio input;
#X connect 0 0 3 0;
#X connect 1 0 7 0;
#X connect 3 0 9 0;
#X connect 5 0 2 0;
#X connect 6 0 5 0;
#X connect 9 0 1 0;
#X connect 11 0 14 0;
#X connect 12 0 4 0;
#X connect 13 0 8 0;
#X connect 14 0 12 0;
#X connect 14 1 13 0;
#X restore 187 309 pd rev3-hacked~ 100 90 3000 20;
#X obj 445 260 + 75;
#X obj 451 234 * 25;
#X msg 514 202 0.5;
#X connect 0 0 5 0;
#X connect 1 0 7 0;
#X connect 2 0 3 0;
#X connect 2 0 8 0;
#X connect 5 0 4 0;
#X connect 6 0 5 1;
#X connect 7 0 6 0;
#X connect 8 0 7 0;
#X restore 396 315 pd guts;
#X obj 112 144 sel 0;
#X msg 112 167 0;
#X connect 1 0 3 0;
#X connect 3 0 2 0;
#X connect 3 1 25 0;
#X connect 4 0 9 0;
#X connect 5 0 9 0;
#X connect 6 0 25 1;
#X connect 7 0 4 0;
#X connect 8 0 5 0;
#X connect 9 0 6 0;
#X connect 10 0 4 1;
#X connect 11 0 5 1;
#X connect 13 0 24 1;
#X connect 13 0 26 0;
#X connect 13 0 25 2;
#X connect 14 0 13 0;
#X connect 15 0 10 0;
#X connect 16 0 11 0;
#X connect 17 0 12 0;
#X connect 17 0 6 0;
#X connect 18 0 19 1;
#X connect 19 0 2 0;
#X connect 20 0 18 0;
#X connect 21 0 18 0;
#X connect 22 0 20 0;
#X connect 22 1 21 0;
#X connect 23 0 24 0;
#X connect 24 0 3 1;
#X connect 24 0 22 0;
#X connect 25 0 19 0;
#X connect 26 0 27 0;
#X connect 27 0 3 1;
#X coords 0 1 100 -1 190 17 2 0 0;
#X restore 84 507 graph;
#N canvas 66 32 1024 720 (subpatch) 0;
#X obj 0 0 cnv 4 190 17 empty empty empty 20 12 0 10 #e0e0e0 #404040 0;
#X obj 245 -130 inlet;
#X obj 46 34 inlet~;
#X text 96 36 audio input;
#X obj 46 311 outlet~;
#N canvas 0 22 450 300 bypass~ 0;
#X obj 35 32 inlet~;
#X obj 251 35 inlet;
#X obj 35 279 outlet~;
#X obj 51 227 line~;
#X obj 35 252 *~;
#X msg 51 195 1 5;
#X msg 84 195 0 5;
#X text 84 32 audio input;
#X obj 252 278 outlet~;
#X obj 268 226 line~;
#X obj 252 251 *~;
#X msg 268 194 1 5;
#X msg 301 194 0 5;
#X text 290 36 toggle (0/1);
#X obj 251 58 sel 0;
#X obj 238 92 t b b;
#X obj 281 92 t b b;
#X text 90 279 outlet for bypass;
#X text 310 278 outlet for processing;
#X obj 172 92 loadbang;
#X connect 0 0 4 0;
#X connect 0 0 10 0;
#X connect 1 0 14 0;
#X connect 3 0 4 1;
#X connect 4 0 2 0;
#X connect 5 0 3 0;
#X connect 6 0 3 0;
#X connect 9 0 10 1;
#X connect 10 0 8 0;
#X connect 11 0 9 0;
#X connect 12 0 9 0;
#X connect 14 0 15 0;
#X connect 14 1 16 0;
#X connect 15 0 5 0;
#X connect 15 1 12 0;
#X connect 16 0 6 0;
#X connect 16 1 11 0;
#X connect 19 0 5 0;
#X connect 19 0 12 0;
#X restore 70 227 pd bypass~;
#X obj 37 -279 spigot;
#X obj 155 -277 spigot;
#X obj 155 2 nbx 3 13 0 100 0 0 \$0rdelyadizan \$0rdeodn empty 0 -8 0 9 #000000 #ffffff #7c7c7c 0 256;
#X obj 37 -300 r \$0-control-x;
#X obj 155 -298 r \$0-control-y;
#X obj 252 -64 clip 0 1;
#X obj 71 2 tgl 13 0 empty empty x 15 7 1 10 #000000 #ffffff #7c7c7c 0 1;
#X obj 94 2 tgl 13 0 empty empty y 15 7 1 10 #000000 #ffffff #7c7c7c 0 1;
#X obj 118 2 tgl 13 0 empty empty fix 15 7 1 10 #000000 #ffffff #7c7c7c 0 1;
#X obj 2 2 tgl 13 0 empty empty rnd_comb 15 7 1 10 #000000 #ffffff #7c7c7c 0 1;
#X obj 1 -120 r rc_onoff_\$0;
#X obj 35 -95 r rc_x_\$0;
#X obj 55 -78 r rc_y_\$0;
#X obj 80 -60 r rc_fixed_\$0;
#X obj 5 74 r activate_\$0;
#X obj 7 110 spigot;
#N canvas 102 70 806 482 guts 0;
#X obj 111 103 inlet~;
#X obj 219 94 inlet;
#X obj 432 107 inlet;
#X obj 432 130 switch~;
#X obj 101 390 outlet~;
#X obj 588 426 delwrite~ \$0-comb 100;
#X obj 677 358 *~;
#X obj 677 274 vd~ \$0-comb 100;
#X obj 677 248 line~;
#X obj 649 181 /;
#X msg 649 157 22050;
#X obj 649 204 * 0.022675;
#X obj 795 274 line~;
#X obj 742 182 random 200;
#X obj 742 220 / 1000;
#X obj 742 201 + 800;
#X obj 795 252 pack 0 5;
#X obj 677 229 pack 0 5;
#X obj 649 129 t b f b;
#X floatatom 747 112 5 0 0 0 - - - 0;
#X obj 649 88 * 200;
#X obj 651 54 + 0.05;
#X obj 652 30 expr 1 - $f1;
#X connect 0 0 5 0;
#X connect 1 0 22 0;
#X connect 2 0 3 0;
#X connect 6 0 5 0;
#X connect 7 0 6 0;
#X connect 7 0 4 0;
#X connect 8 0 7 0;
#X connect 9 0 11 0;
#X connect 10 0 9 0;
#X connect 11 0 17 0;
#X connect 12 0 6 1;
#X connect 13 0 15 0;
#X connect 14 0 16 0;
#X connect 15 0 14 0;
#X connect 16 0 12 0;
#X connect 17 0 8 0;
#X connect 18 0 10 0;
#X connect 18 1 9 1;
#X connect 18 2 13 0;
#X connect 20 0 18 0;
#X connect 20 0 19 0;
#X connect 21 0 20 0;
#X connect 22 0 21 0;
#X restore 222 226 pd guts;
#X obj 22 155 sel 0;
#X msg 14 192 0;
#X connect 1 0 11 0;
#X connect 2 0 5 0;
#X connect 5 0 4 0;
#X connect 5 1 22 0;
#X connect 6 0 11 0;
#X connect 7 0 11 0;
#X connect 8 0 22 1;
#X connect 9 0 6 0;
#X connect 10 0 7 0;
#X connect 11 0 8 0;
#X connect 12 0 6 1;
#X connect 13 0 7 1;
#X connect 15 0 21 1;
#X connect 15 0 22 2;
#X connect 15 0 23 0;
#X connect 16 0 15 0;
#X connect 17 0 12 0;
#X connect 18 0 13 0;
#X connect 19 0 14 0;
#X connect 19 0 8 0;
#X connect 20 0 21 0;
#X connect 21 0 5 1;
#X connect 22 0 4 0;
#X connect 23 0 24 0;
#X connect 24 0 5 1;
#X coords 0 1 100 -1 190 17 2 0 0;
#X restore 84 345 graph;
#N canvas 507 103 1024 720 (subpatch) 0;
#X obj 0 0 cnv 4 190 17 empty empty empty 20 12 0 10 #e0e0e0 #404040 0;
#X obj -14 184 inlet~;
#X text 96 36 audio input;
#X obj 32 451 outlet~;
#N canvas 0 22 450 300 bypass~ 0;
#X obj 35 32 inlet~;
#X obj 251 35 inlet;
#X obj 35 279 outlet~;
#X obj 51 227 line~;
#X obj 35 252 *~;
#X msg 51 195 1 5;
#X msg 84 195 0 5;
#X text 84 32 audio input;
#X obj 252 278 outlet~;
#X obj 268 226 line~;
#X obj 252 251 *~;
#X msg 268 194 1 5;
#X msg 301 194 0 5;
#X text 290 36 toggle (0/1);
#X obj 251 58 sel 0;
#X obj 238 92 t b b;
#X obj 281 92 t b b;
#X text 90 279 outlet for bypass;
#X text 310 278 outlet for processing;
#X obj 172 92 loadbang;
#X connect 0 0 4 0;
#X connect 0 0 10 0;
#X connect 1 0 14 0;
#X connect 3 0 4 1;
#X connect 4 0 2 0;
#X connect 5 0 3 0;
#X connect 6 0 3 0;
#X connect 9 0 10 1;
#X connect 10 0 8 0;
#X connect 11 0 9 0;
#X connect 12 0 9 0;
#X connect 14 0 15 0;
#X connect 14 1 16 0;
#X connect 15 0 5 0;
#X connect 15 1 12 0;
#X connect 16 0 6 0;
#X connect 16 1 11 0;
#X connect 19 0 5 0;
#X connect 19 0 12 0;
#X restore 34 275 pd bypass~;
#X obj 88 -276 spigot;
#X obj 191 -276 spigot;
#X obj 155 2 nbx 3 13 0 100 0 0 \$0rdelyadizan \$0rdeodn empty 0 -8 0 9 #000000 #ffffff #7c7c7c 0 256;
#X obj 88 -297 r \$0-control-x;
#X obj 191 -297 r \$0-control-y;
#X obj 204 -80 clip 0 1;
#X obj 71 2 tgl 13 0 empty empty x 15 7 1 10 #000000 #ffffff #7c7c7c 0 1;
#X obj 94 2 tgl 13 0 empty empty y 15 7 1 10 #000000 #ffffff #7c7c7c 0 1;
#X obj 118 2 tgl 13 0 empty empty fix 15 7 1 10 #000000 #ffffff #7c7c7c 0 1;
#X obj 2 2 tgl 13 0 empty empty rnd_delay 15 7 1 10 #000000 #ffffff #7c7c7c 0 1;
#X obj 1 -120 r rd_onoff_\$0;
#X obj 35 -95 r rd_x_\$0;
#X obj 55 -78 r rd_y_\$0;
#X obj 80 -60 r rd_fixed_\$0;
#X obj 478 373 *~;
#X obj 478 260 line~;
#X obj 478 241 pack;
#X msg 511 197 5;
#X obj 597 289 line~;
#X obj 544 235 / 1000;
#X obj 291 282 delwrite~ \$0-delay 1500;
#X obj 478 289 vd~ \$0-delay 100;
#X obj 544 197 random 500;
#X obj 544 216 + 400;
#X obj 153 310 pack 0 100;
#X obj 150 341 line~;
#X obj 144 386 *~;
#X obj 605 -44 * 5;
#X obj 607 -13 i;
#X obj 606 -72 + 0.09;
#X obj 664 9 sel 0 1 2 3 4;
#X msg 623 43 8;
#X msg 650 37 4;
#X msg 693 48 2;
#X msg 718 43 1;
#X msg 742 39 0.5;
#X obj 474 191 *;
#X obj 382 203 sel 0;
#X msg 382 226 0;
#X obj 597 267 pack 0 5;
#X obj 478 148 trigger f b b;
#X obj 5 74 r activate_\$0;
#X obj 7 110 spigot;
#X obj 714 124 r timediv_\$0;
#X obj 119 177 sel 0;
#X msg 116 205 0;
#X connect 1 0 4 0;
#X connect 1 0 25 0;
#X connect 4 0 3 0;
#X connect 5 0 10 0;
#X connect 6 0 10 0;
#X connect 7 0 34 0;
#X connect 8 0 5 0;
#X connect 9 0 6 0;
#X connect 10 0 7 0;
#X connect 11 0 5 1;
#X connect 12 0 6 1;
#X connect 14 0 47 1;
#X connect 14 0 49 0;
#X connect 15 0 14 0;
#X connect 16 0 11 0;
#X connect 17 0 12 0;
#X connect 18 0 13 0;
#X connect 18 0 7 0;
#X connect 19 0 25 0;
#X connect 20 0 26 0;
#X connect 21 0 20 0;
#X connect 22 0 21 1;
#X connect 23 0 19 1;
#X connect 24 0 44 0;
#X connect 26 0 19 0;
#X connect 26 0 31 0;
#X connect 27 0 28 0;
#X connect 28 0 24 0;
#X connect 29 0 30 0;
#X connect 30 0 31 1;
#X connect 31 0 3 0;
#X connect 32 0 33 0;
#X connect 33 0 35 0;
#X connect 34 0 32 0;
#X connect 35 0 36 0;
#X connect 35 1 37 0;
#X connect 35 2 38 0;
#X connect 35 3 39 0;
#X connect 35 4 40 0;
#X connect 36 0 45 0;
#X connect 37 0 45 0;
#X connect 38 0 45 0;
#X connect 39 0 45 0;
#X connect 40 0 45 0;
#X connect 41 0 21 0;
#X connect 42 0 43 0;
#X connect 43 0 44 0;
#X connect 43 0 38 0;
#X connect 44 0 23 0;
#X connect 45 0 41 0;
#X connect 45 1 22 0;
#X connect 45 2 27 0;
#X connect 46 0 47 0;
#X connect 46 0 42 0;
#X connect 47 0 4 1;
#X connect 47 0 29 0;
#X connect 48 0 41 1;
#X connect 49 0 50 0;
#X connect 50 0 4 1;
#X connect 50 0 29 0;
#X coords 0 1 100 -1 190 17 2 0 0;
#X restore 84 489 graph;
#N canvas 593 84 1024 720 (subpatch) 0;
#X obj 0 0 cnv 4 190 17 empty empty empty 20 12 0 10 #e0e0e0 #404040 0;
#X obj 46 34 inlet~;
#X text 96 36 audio input;
#X obj 46 311 outlet~;
#N canvas 0 22 450 300 bypass~ 0;
#X obj 35 32 inlet~;
#X obj 251 35 inlet;
#X obj 35 279 outlet~;
#X obj 51 227 line~;
#X obj 35 252 *~;
#X msg 51 195 1 5;
#X msg 84 195 0 5;
#X text 84 32 audio input;
#X obj 252 278 outlet~;
#X obj 268 226 line~;
#X obj 252 251 *~;
#X msg 268 194 1 5;
#X msg 301 194 0 5;
#X text 290 36 toggle (0/1);
#X obj 251 58 sel 0;
#X obj 238 92 t b b;
#X obj 281 92 t b b;
#X text 90 279 outlet for bypass;
#X text 310 278 outlet for processing;
#X obj 172 92 loadbang;
#X connect 0 0 4 0;
#X connect 0 0 10 0;
#X connect 1 0 14 0;
#X connect 3 0 4 1;
#X connect 4 0 2 0;
#X connect 5 0 3 0;
#X connect 6 0 3 0;
#X connect 9 0 10 1;
#X connect 10 0 8 0;
#X connect 11 0 9 0;
#X connect 12 0 9 0;
#X connect 14 0 15 0;
#X connect 14 1 16 0;
#X connect 15 0 5 0;
#X connect 15 1 12 0;
#X connect 16 0 6 0;
#X connect 16 1 11 0;
#X connect 19 0 5 0;
#X connect 19 0 12 0;
#X restore 70 227 pd bypass~;
#X obj 88 -276 spigot;
#X obj 155 -277 spigot;
#X obj 155 2 nbx 3 13 0 100 0 0 \$0rdelyadizan \$0rdeodn empty 0 -8 0 9 #000000 #ffffff #7c7c7c 0 256;
#X obj 88 -297 r \$0-control-x;
#X obj 155 -298 r \$0-control-y;
#X obj 252 -64 clip 0 1;
#X obj 71 2 tgl 13 0 empty empty x 15 7 1 10 #000000 #ffffff #7c7c7c 0 1;
#X obj 94 2 tgl 13 0 empty empty y 15 7 1 10 #000000 #ffffff #7c7c7c 0 1;
#X obj 118 2 tgl 13 0 empty empty fix 15 7 1 10 #000000 #ffffff #7c7c7c 0 1;
#X obj 2 2 tgl 13 0 empty empty band_pass 15 7 1 10 #000000 #ffffff #7c7c7c 0 1;
#X obj 1 -120 r bp_onoff_\$0;
#X obj 35 -95 r bp_x_\$0;
#X obj 55 -78 r bp_y_\$0;
#X obj 80 -60 r bp_fixed_\$0;
#X obj -75 73 r activate_\$0;
#X obj -73 109 spigot;
#N canvas 102 70 663 721 guts 0;
#X obj 111 103 inlet~;
#X obj 219 94 inlet;
#X obj 432 107 inlet;
#X obj 432 130 switch~;
#X obj 101 390 outlet~;
#X obj 380 328 *~ -2;
#X obj 332 392 +~;
#X obj 332 366 *~ 3;
#X obj 380 364 vcf~;
#X obj 332 432 vcf~;
#X obj 332 474 vcf~;
#X obj 502 323 line~;
#X obj 493 247 + 0.04;
#X obj 499 271 * 2600;
#X obj 500 296 pack 0 5;
#X obj 219 506 clip~ -1 1;
#X obj 486 444 pack 0 20;
#X obj 436 506 line~;
#X obj 494 383 * 4;
#X obj 495 409 + 5;
#X obj 354 556 *~;
#X connect 0 0 5 0;
#X connect 0 0 7 0;
#X connect 1 0 12 0;
#X connect 1 0 18 0;
#X connect 2 0 3 0;
#X connect 5 0 8 0;
#X connect 6 0 9 0;
#X connect 7 0 6 0;
#X connect 8 0 6 1;
#X connect 9 0 10 0;
#X connect 10 0 20 0;
#X connect 11 0 8 1;
#X connect 11 0 9 1;
#X connect 11 0 10 1;
#X connect 12 0 13 0;
#X connect 13 0 14 0;
#X connect 14 0 11 0;
#X connect 15 0 4 0;
#X connect 16 0 17 0;
#X connect 17 0 20 1;
#X connect 18 0 19 0;
#X connect 19 0 16 0;
#X connect 20 0 15 0;
#X restore 172 274 pd guts;
#X obj 9 114 sel 0;
#X msg 9 137 0;
#X connect 1 0 4 0;
#X connect 4 0 3 0;
#X connect 4 1 21 0;
#X connect 5 0 10 0;
#X connect 6 0 10 0;
#X connect 7 0 21 1;
#X connect 8 0 5 0;
#X connect 9 0 6 0;
#X connect 10 0 7 0;
#X connect 11 0 5 1;
#X connect 12 0 6 1;
#X connect 14 0 20 1;
#X connect 14 0 21 2;
#X connect 14 0 22 0;
#X connect 15 0 14 0;
#X connect 16 0 11 0;
#X connect 17 0 12 0;
#X connect 18 0 13 0;
#X connect 18 0 7 0;
#X connect 19 0 20 0;
#X connect 20 0 4 1;
#X connect 21 0 3 0;
#X connect 22 0 23 0;
#X connect 23 0 4 1;
#X coords 0 1 100 -1 190 17 2 0 0;
#X restore 84 363 graph;
#N canvas 405 160 1024 720 (subpatch) 0;
#X obj 0 0 cnv 4 190 17 empty empty empty 20 12 0 10 #e0e0e0 #404040 0;
#X obj 46 34 inlet~;
#X text 96 36 audio input;
#X obj 46 311 outlet~;
#N canvas 0 22 450 300 bypass~ 0;
#X obj 35 32 inlet~;
#X obj 251 35 inlet;
#X obj 35 279 outlet~;
#X obj 51 227 line~;
#X obj 35 252 *~;
#X msg 51 195 1 5;
#X msg 84 195 0 5;
#X text 84 32 audio input;
#X obj 252 278 outlet~;
#X obj 268 226 line~;
#X obj 252 251 *~;
#X msg 268 194 1 5;
#X msg 301 194 0 5;
#X text 290 36 toggle (0/1);
#X obj 251 58 sel 0;
#X obj 238 92 t b b;
#X obj 281 92 t b b;
#X text 90 279 outlet for bypass;
#X text 310 278 outlet for processing;
#X obj 172 92 loadbang;
#X connect 0 0 4 0;
#X connect 0 0 10 0;
#X connect 1 0 14 0;
#X connect 3 0 4 1;
#X connect 4 0 2 0;
#X connect 5 0 3 0;
#X connect 6 0 3 0;
#X connect 9 0 10 1;
#X connect 10 0 8 0;
#X connect 11 0 9 0;
#X connect 12 0 9 0;
#X connect 14 0 15 0;
#X connect 14 1 16 0;
#X connect 15 0 5 0;
#X connect 15 1 12 0;
#X connect 16 0 6 0;
#X connect 16 1 11 0;
#X connect 19 0 5 0;
#X connect 19 0 12 0;
#X restore 63 205 pd bypass~;
#X obj 88 -276 spigot;
#X obj 155 -277 spigot;
#X obj 155 2 nbx 3 13 0 100 0 0 \$0rdelyadizan \$0rdeodn empty 0 -8 0 9 #000000 #ffffff #7c7c7c 0 256;
#X obj 88 -297 r \$0-control-x;
#X obj 155 -298 r \$0-control-y;
#X obj 252 -64 clip 0 1;
#X obj 71 2 tgl 13 0 empty empty x 15 7 1 10 #000000 #ffffff #7c7c7c 0 1;
#X obj 94 2 tgl 13 0 empty empty y 15 7 1 10 #000000 #ffffff #7c7c7c 0 1;
#X obj 118 2 tgl 13 0 empty empty fix 15 7 1 10 #000000 #ffffff #7c7c7c 0 1;
#X obj 2 2 tgl 13 0 empty empty chorus 15 7 1 10 #000000 #ffffff #7c7c7c 0 1;
#X obj 1 -120 r ch_onoff_\$0;
#X obj 35 -95 r ch_x_\$0;
#X obj 55 -78 r ch_y_\$0;
#X obj 80 -60 r ch_fixed_\$0;
#X obj -41 75 r activate_\$0;
#X obj -39 111 spigot;
#N canvas 0 0 1162 796 guts 0;
#X obj 39 53 inlet~;
#X obj 49 173 outlet~;
#X obj 137 46 inlet;
#X obj 289 46 inlet;
#X obj 289 69 switch~;
#X obj 643 180 + 0.3;
#X obj 642 202 * 6.5;
#X obj 642 478 delread4~ chorus_\$0;
#X obj 487 232 delwrite~ chorus_\$0 10;
#X obj 569 298 osc~;
#X text 693 502 wave in chorus has -1 phase direction;
#X obj 642 419 *~;
#X obj 568 321 +~ 1;
#X obj 568 345 *~ 0.5;
#X obj 642 502 *~ -1;
#X obj 641 452 +~ 3.5;
#X text 687 441 shift ms;
#X obj 646 232 pack 0 10;
#X obj 654 257 line~;
#X text 541 265 speed;
#X text 668 399 depth;
#X connect 0 0 8 0;
#X connect 2 0 5 0;
#X connect 3 0 4 0;
#X connect 5 0 6 0;
#X connect 6 0 17 0;
#X connect 7 0 14 0;
#X connect 9 0 12 0;
#X connect 11 0 15 0;
#X connect 12 0 13 0;
#X connect 13 0 11 0;
#X connect 14 0 1 0;
#X connect 15 0 7 0;
#X connect 17 0 18 0;
#X connect 18 0 9 0;
#X connect 18 0 11 1;
#X restore 172 261 pd guts;
#X obj 16 100 sel 0;
#X msg 16 122 0;
#X connect 1 0 4 0;
#X connect 4 0 3 0;
#X connect 4 1 21 0;
#X connect 5 0 10 0;
#X connect 6 0 10 0;
#X connect 7 0 21 1;
#X connect 8 0 5 0;
#X connect 9 0 6 0;
#X connect 10 0 7 0;
#X connect 11 0 5 1;
#X connect 12 0 6 1;
#X connect 14 0 20 1;
#X connect 14 0 21 2;
#X connect 14 0 22 0;
#X connect 15 0 14 0;
#X connect 16 0 11 0;
#X connect 17 0 12 0;
#X connect 18 0 13 0;
#X connect 18 0 7 0;
#X connect 19 0 20 0;
#X connect 20 0 4 1;
#X connect 21 0 3 0;
#X connect 22 0 23 0;
#X connect 23 0 4 1;
#X coords 0 1 100 -1 190 17 2 0 0;
#X restore 84 381 graph;
#N canvas 785 227 1024 720 (subpatch) 0;
#X obj 0 0 cnv 4 190 17 empty empty empty 20 12 0 10 #e0e0e0 #404040 0;
#X obj 46 34 inlet~;
#X text 96 36 audio input;
#X obj 46 311 outlet~;
#N canvas 0 22 450 300 bypass~ 0;
#X obj 35 32 inlet~;
#X obj 251 35 inlet;
#X obj 35 279 outlet~;
#X obj 51 227 line~;
#X obj 35 252 *~;
#X msg 51 195 1 5;
#X msg 84 195 0 5;
#X text 84 32 audio input;
#X obj 252 278 outlet~;
#X obj 268 226 line~;
#X obj 252 251 *~;
#X msg 268 194 1 5;
#X msg 301 194 0 5;
#X text 290 36 toggle (0/1);
#X obj 251 58 sel 0;
#X obj 238 92 t b b;
#X obj 281 92 t b b;
#X text 90 279 outlet for bypass;
#X text 310 278 outlet for processing;
#X obj 172 92 loadbang;
#X connect 0 0 4 0;
#X connect 0 0 10 0;
#X connect 1 0 14 0;
#X connect 3 0 4 1;
#X connect 4 0 2 0;
#X connect 5 0 3 0;
#X connect 6 0 3 0;
#X connect 9 0 10 1;
#X connect 10 0 8 0;
#X connect 11 0 9 0;
#X connect 12 0 9 0;
#X connect 14 0 15 0;
#X connect 14 1 16 0;
#X connect 15 0 5 0;
#X connect 15 1 12 0;
#X connect 16 0 6 0;
#X connect 16 1 11 0;
#X connect 19 0 5 0;
#X connect 19 0 12 0;
#X restore 70 227 pd bypass~;
#X obj 55 -277 spigot;
#X obj 155 -277 spigot;
#X obj 155 2 nbx 3 13 0 100 0 0 \$0rdelyadizan \$0rdeodn empty 0 -8 0 9 #000000 #ffffff #7c7c7c 0 256;
#X obj 55 -298 r \$0-control-x;
#X obj 155 -298 r \$0-control-y;
#X obj 252 -64 clip 0 1;
#X obj 71 2 tgl 13 0 empty empty x 15 7 1 10 #000000 #ffffff #7c7c7c 0 1;
#X obj 94 2 tgl 13 0 empty empty y 15 7 1 10 #000000 #ffffff #7c7c7c 0 1;
#X obj 118 2 tgl 13 0 empty empty fix 15 7 1 10 #000000 #ffffff #7c7c7c 0 1;
#X obj 2 2 tgl 13 0 empty empty scratch 15 7 1 10 #000000 #ffffff #7c7c7c 0 1;
#X obj 1 -120 r sc_onoff_\$0;
#X obj 35 -95 r sc_x_\$0;
#X obj 55 -78 r sc_y_\$0;
#X obj 80 -60 r sc_fixed_\$0;
#X obj -85 119 r activate_\$0;
#X obj -83 155 spigot;
#X obj 14 126 sel 0;
#X msg 14 149 0;
#N canvas 102 70 1050 643 guts 0;
#X obj 718 210 bng 15 250 50 0 empty empty empty 17 7 0 10 #fcfcfc #000000 #000000;
#X obj 718 187 r reset_phase_\$0;
#X obj 388 204 tgl 15 0 empty empty empty 17 7 0 10 #fcfcfc #000000 #000000 0 1;
#X obj 279 237 fx_babyscratch~;
#X obj 603 211 sig~;
#X msg 444 87 4;
#X msg 420 180 1;
#X msg 460 194 0;
#X obj 491 137 t b f b;
#X msg 417 93 8;
#X msg 520 71 0.5, f 4;
#X msg 496 75 1;
#X msg 471 80 2;
#X obj 383 -12 * 5;
#X obj 385 19 i;
#X obj 384 -40 + 0.09;
#X obj 442 41 sel 0 1 2 3 4;
#X obj 499 209 sig~ 2;
#X obj 588 170 r timediv_\$0;
#X obj 186 400 outlet~;
#X obj 84 13 inlet~;
#X obj 202 13 inlet;
#X obj 641 22 inlet;
#X obj 641 45 switch~;
#X connect 0 0 3 4;
#X connect 1 0 0 0;
#X connect 2 0 3 1;
#X connect 3 0 19 0;
#X connect 4 0 3 3;
#X connect 5 0 8 0;
#X connect 6 0 2 0;
#X connect 7 0 2 0;
#X connect 8 0 6 0;
#X connect 8 1 17 0;
#X connect 8 2 7 0;
#X connect 9 0 8 0;
#X connect 10 0 8 0;
#X connect 11 0 8 0;
#X connect 12 0 8 0;
#X connect 13 0 14 0;
#X connect 14 0 16 0;
#X connect 15 0 13 0;
#X connect 16 0 9 0;
#X connect 16 1 5 0;
#X connect 16 2 12 0;
#X connect 16 3 11 0;
#X connect 16 4 10 0;
#X connect 17 0 3 2;
#X connect 18 0 4 0;
#X connect 20 0 3 0;
#X connect 21 0 15 0;
#X connect 22 0 23 0;
#X restore 148 263 pd guts;
#X connect 1 0 4 0;
#X connect 4 0 3 0;
#X connect 4 1 23 0;
#X connect 5 0 10 0;
#X connect 6 0 10 0;
#X connect 7 0 23 1;
#X connect 8 0 5 0;
#X connect 9 0 6 0;
#X connect 10 0 7 0;
#X connect 11 0 5 1;
#X connect 12 0 6 1;
#X connect 14 0 20 1;
#X connect 14 0 21 0;
#X connect 14 0 23 2;
#X connect 15 0 14 0;
#X connect 16 0 11 0;
#X connect 17 0 12 0;
#X connect 18 0 13 0;
#X connect 18 0 7 0;
#X connect 19 0 20 0;
#X connect 20 0 4 1;
#X connect 21 0 22 0;
#X connect 22 0 4 1;
#X connect 23 0 3 0;
#X coords 0 1 100 -1 190 17 2 0 0;
#X restore 84 435 graph;
#N canvas 195 133 1150 890 (subpatch) 0;
#X obj 0 0 cnv 4 190 17 empty empty empty 20 12 0 10 #e0e0e0 #404040 0;
#X obj -49 185 inlet~;
#X obj 69 383 outlet~;
#N canvas 0 22 450 300 bypass~ 0;
#X obj 35 32 inlet~;
#X obj 251 35 inlet;
#X obj 35 279 outlet~;
#X obj 51 227 line~;
#X obj 35 252 *~;
#X msg 51 195 1 5;
#X msg 84 195 0 5;
#X text 84 32 audio input;
#X obj 252 278 outlet~;
#X obj 268 226 line~;
#X obj 252 251 *~;
#X msg 268 194 1 5;
#X msg 301 194 0 5;
#X text 290 36 toggle (0/1);
#X obj 251 58 sel 0;
#X obj 238 92 t b b;
#X obj 281 92 t b b;
#X text 90 279 outlet for bypass;
#X text 310 278 outlet for processing;
#X obj 172 92 loadbang;
#X connect 0 0 4 0;
#X connect 0 0 10 0;
#X connect 1 0 14 0;
#X connect 3 0 4 1;
#X connect 4 0 2 0;
#X connect 5 0 3 0;
#X connect 6 0 3 0;
#X connect 9 0 10 1;
#X connect 10 0 8 0;
#X connect 11 0 9 0;
#X connect 12 0 9 0;
#X connect 14 0 15 0;
#X connect 14 1 16 0;
#X connect 15 0 5 0;
#X connect 15 1 12 0;
#X connect 16 0 6 0;
#X connect 16 1 11 0;
#X connect 19 0 5 0;
#X connect 19 0 12 0;
#X restore 70 227 pd bypass~;
#X obj 88 -276 spigot;
#X obj 155 -277 spigot;
#X obj 155 2 nbx 3 13 0 100 0 0 \$0rdelyadizan \$0rdeodn empty 0 -8 0 9 #000000 #ffffff #7c7c7c 0 256;
#X obj 88 -297 r \$0-control-x;
#X obj 155 -298 r \$0-control-y;
#X obj 252 -64 clip 0 1;
#X obj 71 2 tgl 13 0 empty empty x 15 7 1 10 #000000 #ffffff #7c7c7c 0 1;
#X obj 94 2 tgl 13 0 empty empty y 15 7 1 10 #000000 #ffffff #7c7c7c 0 1;
#X obj 118 2 tgl 13 0 empty empty fix 15 7 1 10 #000000 #ffffff #7c7c7c 0 1;
#X obj 2 2 tgl 13 0 empty empty beat_rep 15 7 1 10 #000000 #ffffff #7c7c7c 0 1;
#X obj 35 -95 r br_x_\$0;
#X obj 1 -120 r br_onoff_\$0;
#X obj 55 -77 r br_y_\$0;
#X obj 80 -60 r br_fixed_\$0;
#X obj -34 72 r activate_\$0;
#X obj -32 108 spigot;
#X obj 112 154 sel 0;
#X msg 112 177 0;
#N canvas 52 20 1534 1097 guts 0;
#X obj 70 54 inlet~;
#X obj 242 61 inlet;
#X obj 394 40 inlet;
#X obj 394 63 switch~;
#X obj 96 617 outlet~;
#X obj 511 189 loadbang;
#X obj 866 472 bng 15 250 50 0 empty empty empty 17 7 0 10 #fcfcfc #000000 #000000;
#X obj 292 492 fx_beat_repeat~;
#X obj 866 449 r reset_phase_\$0;
#X obj 579 469 sig~ 4;
#X obj 432 421 tgl 15 0 empty empty empty 17 7 0 10 #fcfcfc #000000 #000000 0 1;
#X msg 464 397 1;
#X msg 504 411 0;
#X obj 535 354 t b f b;
#X obj 427 205 * 5;
#X obj 429 236 i;
#X obj 428 177 + 0.09;
#X obj 486 258 sel 0 1 2 3 4;
#X msg 564 288 0.25;
#X msg 461 310 4;
#X msg 488 304 2;
#X msg 515 297 1;
#X msg 540 292 0.5;
#X obj 709 394 r timediv_\$0;
#X connect 0 0 7 0;
#X connect 1 0 16 0;
#X connect 2 0 3 0;
#X connect 6 0 7 4;
#X connect 7 0 4 0;
#X connect 8 0 6 0;
#X connect 9 0 7 2;
#X connect 10 0 7 1;
#X connect 11 0 10 0;
#X connect 12 0 10 0;
#X connect 13 0 11 0;
#X connect 13 1 9 0;
#X connect 13 2 12 0;
#X connect 14 0 15 0;
#X connect 15 0 17 0;
#X connect 16 0 14 0;
#X connect 17 0 19 0;
#X connect 17 1 20 0;
#X connect 17 2 21 0;
#X connect 17 3 22 0;
#X connect 17 4 18 0;
#X connect 18 0 13 0;
#X connect 19 0 13 0;
#X connect 20 0 13 0;
#X connect 21 0 13 0;
#X connect 22 0 13 0;
#X connect 23 0 7 3;
#X restore 247 277 pd guts;
#X connect 1 0 3 0;
#X connect 3 0 2 0;
#X connect 3 1 22 0;
#X connect 4 0 9 0;
#X connect 5 0 9 0;
#X connect 6 0 22 1;
#X connect 7 0 4 0;
#X connect 8 0 5 0;
#X connect 9 0 6 0;
#X connect 10 0 4 1;
#X connect 11 0 5 1;
#X connect 13 0 19 1;
#X connect 13 0 20 0;
#X connect 13 0 22 2;
#X connect 14 0 10 0;
#X connect 15 0 13 0;
#X connect 16 0 11 0;
#X connect 17 0 12 0;
#X connect 17 0 6 0;
#X connect 18 0 19 0;
#X connect 19 0 3 1;
#X connect 20 0 21 0;
#X connect 21 0 3 1;
#X connect 22 0 2 0;
#X coords 0 1 100 -1 190 17 2 0 0;
#X restore 84 453 graph;
#N canvas 525 131 1061 861 (subpatch) 0;
#X obj 0 0 cnv 4 190 17 empty empty empty 20 12 0 10 #e0e0e0 #404040 0;
#X obj 46 34 inlet~;
#X text 294 -84 stream of incoming data values (0 - 100);
#X text 96 36 audio input;
#X obj 41 400 outlet~;
#N canvas 0 22 450 300 bypass~ 0;
#X obj 35 32 inlet~;
#X obj 251 35 inlet;
#X obj 35 279 outlet~;
#X obj 51 227 line~;
#X obj 35 252 *~;
#X msg 51 195 1 5;
#X msg 84 195 0 5;
#X text 84 32 audio input;
#X obj 252 278 outlet~;
#X obj 268 226 line~;
#X obj 252 251 *~;
#X msg 268 194 1 5;
#X msg 301 194 0 5;
#X text 290 36 toggle (0/1);
#X obj 251 58 sel 0;
#X obj 238 92 t b b;
#X obj 281 92 t b b;
#X text 90 279 outlet for bypass;
#X text 310 278 outlet for processing;
#X obj 172 92 loadbang;
#X connect 0 0 4 0;
#X connect 0 0 10 0;
#X connect 1 0 14 0;
#X connect 3 0 4 1;
#X connect 4 0 2 0;
#X connect 5 0 3 0;
#X connect 6 0 3 0;
#X connect 9 0 10 1;
#X connect 10 0 8 0;
#X connect 11 0 9 0;
#X connect 12 0 9 0;
#X connect 14 0 15 0;
#X connect 14 1 16 0;
#X connect 15 0 5 0;
#X connect 15 1 12 0;
#X connect 16 0 6 0;
#X connect 16 1 11 0;
#X connect 19 0 5 0;
#X connect 19 0 12 0;
#X restore 40 214 pd bypass~;
#X obj 88 -276 spigot;
#X obj 203 -275 spigot;
#X obj 155 2 nbx 3 13 0 100 0 0 \$0rdelyadizan \$0rdeodn empty 0 -8 0 9 #000000 #ffffff #7c7c7c 0 256;
#X obj 88 -297 r \$0-control-x;
#X obj 203 -296 r \$0-control-y;
#X obj 252 -64 clip 0 1;
#X obj 71 2 tgl 13 0 empty empty x 15 7 1 10 #000000 #ffffff #7c7c7c 0 1;
#X obj 94 2 tgl 13 0 empty empty y 15 7 1 10 #000000 #ffffff #7c7c7c 0 1;
#X obj 118 2 tgl 13 0 empty empty fix 15 7 1 10 #000000 #ffffff #7c7c7c 0 1;
#X obj 2 2 tgl 13 0 empty empty tremolo 15 7 1 10 #000000 #ffffff #7c7c7c 0 1;
#X obj 1 -120 r tr_onoff_\$0;
#X obj 35 -95 r tr_x_\$0;
#X obj 54 -78 r tr_y_\$0;
#X obj 80 -60 r tr_fixed_\$0;
#X obj 5 74 r activate_\$0;
#X obj 7 114 spigot;
#X obj 108 118 sel 0;
#X msg 108 141 0;
#N canvas 475 128 1048 736 guts 0;
#X obj 111 64 inlet~;
#X obj 291 69 inlet;
#X obj 366 75 inlet;
#X obj 366 98 switch~;
#X obj 100 263 outlet~;
#X obj 793 370 bng 15 250 50 0 empty empty empty 17 7 0 10 #fcfcfc #000000 #000000;
#X obj 793 347 r reset_phase_\$0;
#X obj 506 367 sig~ 0.5;
#X obj 219 413 fx_tremolo~;
#X obj 641 379 sig~;
#X msg 417 310 0.25;
#X msg 399 290 0.5;
#X msg 377 270 0.75;
#X msg 361 251 1;
#X msg 439 330 0.125;
#X obj 367 175 * 5;
#X obj 368 197 i;
#X obj 366 151 + 0.09;
#X obj 367 224 sel 0 1 2 3 4;
#X obj 658 348 r timediv_\$0;
#X obj 199 69 inlet;
#X connect 0 0 8 0;
#X connect 1 0 17 0;
#X connect 2 0 3 0;
#X connect 5 0 8 4;
#X connect 6 0 5 0;
#X connect 7 0 8 2;
#X connect 8 0 4 0;
#X connect 9 0 8 3;
#X connect 10 0 7 0;
#X connect 11 0 7 0;
#X connect 12 0 7 0;
#X connect 13 0 7 0;
#X connect 14 0 7 0;
#X connect 15 0 16 0;
#X connect 16 0 18 0;
#X connect 17 0 15 0;
#X connect 18 0 13 0;
#X connect 18 1 12 0;
#X connect 18 2 11 0;
#X connect 18 3 10 0;
#X connect 18 4 14 0;
#X connect 19 0 9 0;
#X connect 20 0 8 1;
#X restore 244 242 pd guts;
#X connect 1 0 5 0;
#X connect 5 0 4 0;
#X connect 5 1 24 0;
#X connect 6 0 11 0;
#X connect 7 0 11 0;
#X connect 8 0 24 2;
#X connect 9 0 6 0;
#X connect 10 0 7 0;
#X connect 11 0 8 0;
#X connect 12 0 6 1;
#X connect 13 0 7 1;
#X connect 15 0 21 1;
#X connect 15 0 22 0;
#X connect 15 0 24 3;
#X connect 16 0 15 0;
#X connect 17 0 12 0;
#X connect 18 0 13 0;
#X connect 19 0 14 0;
#X connect 19 0 8 0;
#X connect 20 0 21 0;
#X connect 21 0 5 1;
#X connect 21 0 24 1;
#X connect 22 0 23 0;
#X connect 23 0 24 1;
#X connect 23 0 5 1;
#X connect 24 0 4 0;
#X coords 0 1 100 -1 190 17 2 0 0;
#X restore 84 417 graph;
#N canvas 344 156 1024 720 (subpatch) 0;
#X obj 0 0 cnv 4 190 17 empty empty empty 20 12 0 10 #e0e0e0 #404040 0;
#X obj -212 73 inlet~;
#X obj 25 456 outlet~;
#N canvas 0 22 450 300 bypass~ 0;
#X obj 35 32 inlet~;
#X obj 251 35 inlet;
#X obj 35 279 outlet~;
#X obj 51 227 line~;
#X obj 35 252 *~;
#X msg 51 195 1 5;
#X msg 84 195 0 5;
#X text 84 32 audio input;
#X obj 252 278 outlet~;
#X obj 268 226 line~;
#X obj 252 251 *~;
#X msg 268 194 1 5;
#X msg 301 194 0 5;
#X text 290 36 toggle (0/1);
#X obj 251 58 sel 0;
#X obj 238 92 t b b;
#X obj 281 92 t b b;
#X text 90 279 outlet for bypass;
#X text 310 278 outlet for processing;
#X obj 172 92 loadbang;
#X connect 0 0 4 0;
#X connect 0 0 10 0;
#X connect 1 0 14 0;
#X connect 3 0 4 1;
#X connect 4 0 2 0;
#X connect 5 0 3 0;
#X connect 6 0 3 0;
#X connect 9 0 10 1;
#X connect 10 0 8 0;
#X connect 11 0 9 0;
#X connect 12 0 9 0;
#X connect 14 0 15 0;
#X connect 14 1 16 0;
#X connect 15 0 5 0;
#X connect 15 1 12 0;
#X connect 16 0 6 0;
#X connect 16 1 11 0;
#X connect 19 0 5 0;
#X connect 19 0 12 0;
#X restore 25 226 pd bypass~;
#X obj 88 -276 spigot;
#X obj 155 -277 spigot;
#X obj 155 2 nbx 3 13 0 100 0 0 \$0rdelyadizan \$0rdeodn empty 0 -8 0 9 #000000 #ffffff #7c7c7c 0 256;
#X obj 88 -297 r \$0-control-x;
#X obj 155 -298 r \$0-control-y;
#X obj 252 -64 clip 0 1;
#X obj 71 2 tgl 13 0 empty empty x 15 7 1 10 #000000 #ffffff #7c7c7c 0 1;
#X obj 94 2 tgl 13 0 empty empty y 15 7 1 10 #000000 #ffffff #7c7c7c 0 1;
#X obj 118 2 tgl 13 0 empty empty fix 15 7 1 10 #000000 #ffffff #7c7c7c 0 1;
#X obj 2 2 tgl 13 0 empty empty looper 15 7 1 10 #000000 #ffffff #7c7c7c 0 1;
#X obj 137 422 *~;
#X obj 149 361 pack 0 5;
#X obj 151 392 line~;
#X obj 1 -120 r lp_onoff_\$0;
#X obj 35 -95 r lp_x_\$0;
#X obj 55 -78 r lp_y_\$0;
#X obj 80 -60 r lp_fixed_\$0;
#X obj -17 73 r activate_\$0;
#X obj -13 98 spigot;
#N canvas 102 70 1025 721 guts 0;
#X obj 75 41 inlet~;
#X obj 184 41 inlet;
#X obj 322 37 inlet;
#X obj 73 259 outlet~;
#X obj 296 328 fx_loop~;
#X obj 625 291 sig~;
#X obj 406 274 tgl 15 0 empty empty empty 17 7 0 10 #fcfcfc #000000 #000000 0 1;
#X msg 436 191 1;
#X msg 473 239 0;
#X obj 404 27 * 5;
#X obj 406 58 i;
#X obj 405 -1 + 0.09;
#X obj 463 80 sel 0 1 2 3 4;
#X obj 504 239 f;
#X obj 523 162 t b f;
#X obj 472 191 del 100;
#X msg 438 132 8;
#X msg 465 126 4;
#X msg 492 119 2;
#X msg 517 114 1;
#X msg 541 110 0.5;
#X obj 515 290 sig~ 2;
#X obj 588 170 r timediv_\$0;
#X obj 320 78 switch~;
#X connect 0 0 4 0;
#X connect 1 0 11 0;
#X connect 2 0 23 0;
#X connect 4 0 3 0;
#X connect 5 0 4 3;
#X connect 6 0 4 1;
#X connect 7 0 6 0;
#X connect 8 0 6 0;
#X connect 9 0 10 0;
#X connect 10 0 12 0;
#X connect 11 0 9 0;
#X connect 12 0 16 0;
#X connect 12 1 17 0;
#X connect 12 2 18 0;
#X connect 12 3 19 0;
#X connect 12 4 20 0;
#X connect 13 0 21 0;
#X connect 14 0 8 0;
#X connect 14 0 13 0;
#X connect 14 0 15 0;
#X connect 14 1 13 1;
#X connect 15 0 7 0;
#X connect 16 0 14 0;
#X connect 17 0 14 0;
#X connect 18 0 14 0;
#X connect 19 0 14 0;
#X connect 20 0 14 0;
#X connect 21 0 4 2;
#X connect 22 0 5 0;
#X restore 247 322 pd guts;
#X obj 60 136 sel 0;
#X msg 60 159 0;
#X connect 1 0 3 0;
#X connect 3 0 2 0;
#X connect 3 1 23 0;
#X connect 4 0 9 0;
#X connect 5 0 9 0;
#X connect 6 0 23 1;
#X connect 7 0 4 0;
#X connect 8 0 5 0;
#X connect 9 0 6 0;
#X connect 10 0 4 1;
#X connect 11 0 5 1;
#X connect 13 0 22 1;
#X connect 13 0 24 0;
#X connect 13 0 23 2;
#X connect 14 0 2 0;
#X connect 15 0 16 0;
#X connect 16 0 14 1;
#X connect 17 0 13 0;
#X connect 18 0 10 0;
#X connect 19 0 11 0;
#X connect 20 0 12 0;
#X connect 20 0 6 0;
#X connect 21 0 22 0;
#X connect 22 0 3 1;
#X connect 22 0 15 0;
#X connect 23 0 14 0;
#X connect 24 0 25 0;
#X connect 25 0 3 1;
#X coords 0 1 100 -1 190 17 2 0 0;
#X restore 84 471 graph;
#X obj 475 -173 inlet;
#X obj 401 136 hradio 18 1 0 8 empty empty empty 0 -9 0 10 #fcfcfc #000000 #000000 0;
#X obj 640 -69 expr 60/$f1*4*1000/16;
#X floatatom 640 -46 5 0 0 0 - - - 0;
#X obj 635 -131 loadbang;
#X obj 472 -48 s timediv_\$0;
#X text 468 -68 ms duration of a 16th note;
#X msg 559 -93 125;
#X msg 639 -93 120;
#X obj 724 541 s bp_x_\$0;
#X obj 724 507 s rm_x_\$0;
#X obj 837 557 s rd_x_\$0;
#X obj 724 524 s rc_x_\$0;
#X obj 837 574 s rv_x_\$0;
#X obj 724 490 s ds_x_\$0;
#X obj 724 575 s ph_x_\$0;
#X obj 724 558 s ch_x_\$0;
#X obj 837 489 s tr_x_\$0;
#X obj 837 506 s sc_x_\$0;
#X obj 837 523 s br_x_\$0;
#X obj 837 540 s lp_x_\$0;
#X obj 417 464 route ds rm rc bp ch ph tr sc br lp rd rv;
#X obj 465 543 s bp_onoff_\$0;
#X obj 433 507 s rm_onoff_\$0;
#X obj 449 525 s rc_onoff_\$0;
#X obj 596 577 s rv_onoff_\$0;
#X obj 416 489 s ds_onoff_\$0;
#X obj 496 577 s ph_onoff_\$0;
#X obj 480 560 s ch_onoff_\$0;
#X obj 586 559 s rd_onoff_\$0;
#X obj 541 487 s tr_onoff_\$0;
#X obj 552 505 s sc_onoff_\$0;
#X obj 564 523 s br_onoff_\$0;
#X obj 575 541 s lp_onoff_\$0;
#X obj 686 464 route ds rm rc bp ch ph tr sc br lp rd rv;
#X obj 698 693 s bp_fixed_\$0;
#X obj 698 659 s rm_fixed_\$0;
#X obj 788 711 s rd_fixed_\$0;
#X obj 698 676 s rc_fixed_\$0;
#X obj 788 728 s rv_fixed_\$0;
#X obj 698 642 s ds_fixed_\$0;
#X obj 698 727 s ph_fixed_\$0;
#X obj 698 710 s ch_fixed_\$0;
#X obj 788 643 s tr_fixed_\$0;
#X obj 788 660 s sc_fixed_\$0;
#X obj 788 677 s br_fixed_\$0;
#X obj 788 694 s lp_fixed_\$0;
#X obj 448 692 s bp_y_\$0;
#X obj 448 658 s rm_y_\$0;
#X obj 520 710 s rd_y_\$0;
#X obj 448 675 s rc_y_\$0;
#X obj 520 727 s rv_y_\$0;
#X obj 448 641 s ds_y_\$0;
#X obj 448 726 s ph_y_\$0;
#X obj 448 709 s ch_y_\$0;
#X obj 520 642 s tr_y_\$0;
#X obj 520 659 s sc_y_\$0;
#X obj 520 676 s br_y_\$0;
#X obj 520 693 s lp_y_\$0;
#X obj 428 612 route ds rm rc bp ch ph tr sc br lp rd rv;
#X obj 693 613 route ds rm rc bp ch ph tr sc br lp rd rv;
#X msg 671 419 ds 0 \, rm 0 \, rc 0 \, bp 0 \, ch 0 \, ph 0 \, tr 0 \, sc 0 \, br 0 \, lp 0 \, rd 0 \, rv 0;
#X obj 399 158 t f b;
#X obj 445 159 s reset_all_\$0;
#X obj 672 396 r reset_all_\$0;
#X obj 420 426 route x y fixed name;
#X symbolatom 145 106 15 0 0 0 - - - 0;
#X msg 457 384 set \$2;
#X floatatom 632 185 5 0 127 0 - - - 0;
#X obj 596 131 i;
#X obj 667 136 i;
#X obj 695 136 - 1;
#X obj 625 135 + 1;
#X obj 648 160 max 0;
#X obj 124 105 bng 18 250 50 0 empty empty + 6 9 1 10 #000000 #7c7c7c #ffffff;
#X obj 103 105 bng 18 250 50 0 empty empty - 7 9 1 10 #000000 #7c7c7c #ffffff;
#X obj 31 175 s preset+_\$0;
#X obj 17 156 s preset-_\$0;
#X obj 112 129 nbx 3 16 0 1 0 0 empty empty x -9 9 1 10 #000000 #ffffff #7c7c7c 0 256;
#X obj 160 129 nbx 3 16 0 1 0 0 empty empty y -9 9 1 10 #000000 #ffffff #7c7c7c 0 256;
#X obj 726 31 loadbang;
#X msg 726 54 0;
#X obj 221 157 s activate_\$0;
#X obj 166 606 outlet;
#X obj 475 -119 change;
#X obj 93 606 outlet;
#X text 89 633 preset n;
#X text 173 630 preset name;
#X obj -58 269 readsf~;
#X msg -77 243 start;
#X msg -53 220 open ../lo.wav;
#X obj 218 128 tgl 18 0 empty empty act -20 10 1 10 #000000 #ffffff #7c7c7c 0 1;
#X msg 541 249 name 0 prst1 \, x ds \, y br;
#X msg 542 274 name 0 prst2 \, x ds \, y br \, fixed rv 0.5;
#X msg 540 224 name 0 none \, x ds \, y br;
#X obj 263 -175 inlet;
#X obj 324 -174 inlet;
#X obj 247 -126 s preset+_\$0;
#X obj 302 -144 s preset-_\$0;
#X msg 543 301 name 0 pr3 \, x ds \, y br;
#X msg 544 326 name 0 prst4 \, x ds \, y br;
#X msg 545 351 name 0 prst5 \, x ds \, y br \, fixed rv 0.5;
#X obj 599 157 min 5;
#X obj 562 89 bng 18 250 50 0 empty empty empty 0 -9 0 10 #fcfcfc #000000 #000000;
#X obj 694 99 bng 18 250 50 0 empty empty empty 0 -9 0 10 #fcfcfc #000000 #000000;
#X obj 543 56 r preset-_\$0;
#X obj 743 82 r preset+_\$0;
#X obj 829 -138 loadbang;
#X obj 827 -112 f \$1;
#X obj 827 -86 == -1;
#X obj 838 30 switch~;
#X msg 827 -1 0;
#X msg 866 -1 1;
#X obj 827 -53 sel 0 1;
#X connect 0 0 11 0;
#X connect 4 0 101 0;
#X connect 5 0 102 0;
#X connect 6 0 114 0;
#X connect 7 0 8 0;
#X connect 9 0 24 0;
#X connect 10 0 117 0;
#X connect 10 1 115 0;
#X connect 10 2 116 0;
#X connect 10 3 122 0;
#X connect 10 4 123 0;
#X connect 10 5 124 0;
#X connect 11 0 12 0;
#X connect 12 0 15 0;
#X connect 13 0 21 0;
#X connect 14 0 1 0;
#X connect 15 0 17 0;
#X connect 16 0 14 0;
#X connect 17 0 18 0;
#X connect 18 0 13 0;
#X connect 19 0 20 0;
#X connect 20 0 22 0;
#X connect 21 0 19 0;
#X connect 22 0 16 0;
#X connect 23 0 107 0;
#X connect 24 0 85 0;
#X connect 24 0 108 0;
#X connect 25 0 26 0;
#X connect 27 0 30 0;
#X connect 30 0 28 0;
#X connect 31 0 25 0;
#X connect 44 0 49 0;
#X connect 44 1 46 0;
#X connect 44 2 47 0;
#X connect 44 3 45 0;
#X connect 44 4 51 0;
#X connect 44 5 50 0;
#X connect 44 6 53 0;
#X connect 44 7 54 0;
#X connect 44 8 55 0;
#X connect 44 9 56 0;
#X connect 44 10 52 0;
#X connect 44 11 48 0;
#X connect 57 0 37 0;
#X connect 57 1 33 0;
#X connect 57 2 35 0;
#X connect 57 3 32 0;
#X connect 57 4 39 0;
#X connect 57 5 38 0;
#X connect 57 6 40 0;
#X connect 57 7 41 0;
#X connect 57 8 42 0;
#X connect 57 9 43 0;
#X connect 57 10 34 0;
#X connect 57 11 36 0;
#X connect 82 0 75 0;
#X connect 82 1 71 0;
#X connect 82 2 73 0;
#X connect 82 3 70 0;
#X connect 82 4 77 0;
#X connect 82 5 76 0;
#X connect 82 6 78 0;
#X connect 82 7 79 0;
#X connect 82 8 80 0;
#X connect 82 9 81 0;
#X connect 82 10 72 0;
#X connect 82 11 74 0;
#X connect 83 0 63 0;
#X connect 83 1 59 0;
#X connect 83 2 61 0;
#X connect 83 3 58 0;
#X connect 83 4 65 0;
#X connect 83 5 64 0;
#X connect 83 6 66 0;
#X connect 83 7 67 0;
#X connect 83 8 68 0;
#X connect 83 9 69 0;
#X connect 83 10 60 0;
#X connect 83 11 62 0;
#X connect 84 0 44 0;
#X connect 84 0 57 0;
#X connect 84 0 82 0;
#X connect 84 0 83 0;
#X connect 85 0 10 0;
#X connect 85 1 86 0;
#X connect 87 0 84 0;
#X connect 88 0 44 0;
#X connect 88 0 57 0;
#X connect 88 1 44 0;
#X connect 88 1 82 0;
#X connect 88 2 44 0;
#X connect 88 2 83 0;
#X connect 88 3 90 0;
#X connect 88 3 106 0;
#X connect 90 0 89 0;
#X connect 91 0 93 1;
#X connect 91 0 92 1;
#X connect 91 0 24 0;
#X connect 92 0 95 0;
#X connect 93 0 94 0;
#X connect 94 0 96 0;
#X connect 95 0 125 0;
#X connect 96 0 91 0;
#X connect 97 0 99 0;
#X connect 98 0 100 0;
#X connect 101 0 2 0;
#X connect 102 0 3 0;
#X connect 103 0 104 0;
#X connect 104 0 24 0;
#X connect 107 0 28 0;
#X connect 111 0 11 0;
#X connect 111 1 113 0;
#X connect 112 0 111 0;
#X connect 113 0 111 0;
#X connect 113 0 112 0;
#X connect 114 0 105 0;
#X connect 115 0 88 0;
#X connect 116 0 88 0;
#X connect 117 0 88 0;
#X connect 118 0 120 0;
#X connect 119 0 121 0;
#X connect 122 0 88 0;
#X connect 123 0 88 0;
#X connect 124 0 88 0;
#X connect 125 0 91 0;
#X connect 126 0 92 0;
#X connect 127 0 93 0;
#X connect 128 0 126 0;
#X connect 129 0 127 0;
#X connect 130 0 131 0;
#X connect 131 0 132 0;
#X connect 132 0 136 0;
#X connect 134 0 133 0;
#X connect 135 0 133 0;
#X connect 136 0 135 0;
#X connect 136 1 134 0;
#X coords 0 -1 1 1 140 50 2 100 100;
