#N canvas 551 92 1107 873 10;
#X obj 133 220 fx_chain;
#X obj 421 147 readsf~;
#X msg 365 103 start;
#X obj 407 43 bng 18 250 50 0 empty empty empty 0 -9 0 10 #fcfcfc #000000 #000000;
#X msg 407 71 open ../../808.wav;
#X obj 107 117 vsl 18 153 0 1 0 0 empty empty empty 0 -9 0 10 #fcfcfc #000000 #000000 0 1;
#X obj 132 276 hsl 153 18 0 1 0 0 empty empty empty -2 -9 0 10 #fcfcfc #000000 #000000 0 1;
#X obj 107 276 tgl 18 0 empty empty empty 0 -9 0 10 #fcfcfc #000000 #000000 0 1;
#X obj 395 214 *~;
#X msg 424 180 1;
#X msg 423 202 0;
#X obj 136 376 dac~;
#X obj 515 481 ctlin;
#X obj 515 504 swap;
#X obj 515 543 pack 0 0;
#X obj 506 589 route 100 101 102;
#X obj 483 632 / 127;
#X obj 526 659 / 127;
#X obj 610 687 change;
#X obj 626 787 print;
#X obj 597 629 / 127;
#X msg 659 8 set open ../../808.wav;
#X msg 660 28 set open ../../jump.wav;
#X msg 661 49 set open ../../ambient_synth.wav;
#X msg 660 70 set open ../../beverly_hills_cop.wav;
#X msg 661 90 set open ../../final_countdown.wav;
#X msg 662 111 set open ../../acoustic_drum.wav;
#X msg 661 156 stop;
#X msg 663 132 set open ../../satie.wav;
#X connect 0 0 11 0;
#X connect 0 0 11 1;
#X connect 1 0 8 0;
#X connect 1 1 3 0;
#X connect 2 0 1 0;
#X connect 3 0 4 0;
#X connect 4 0 1 0;
#X connect 4 0 2 0;
#X connect 5 0 0 2;
#X connect 6 0 0 1;
#X connect 7 0 0 3;
#X connect 8 0 0 0;
#X connect 9 0 8 1;
#X connect 10 0 8 1;
#X connect 12 0 13 0;
#X connect 12 1 13 1;
#X connect 13 0 14 0;
#X connect 13 1 14 1;
#X connect 14 0 15 0;
#X connect 15 0 16 0;
#X connect 15 1 17 0;
#X connect 15 2 20 0;
#X connect 16 0 0 1;
#X connect 17 0 0 2;
#X connect 18 0 0 3;
#X connect 18 0 19 0;
#X connect 20 0 18 0;
#X connect 21 0 4 0;
#X connect 21 0 3 0;
#X connect 22 0 4 0;
#X connect 22 0 3 0;
#X connect 23 0 4 0;
#X connect 23 0 3 0;
#X connect 24 0 4 0;
#X connect 24 0 3 0;
#X connect 25 0 4 0;
#X connect 25 0 3 0;
#X connect 26 0 4 0;
#X connect 26 0 3 0;
#X connect 27 0 1 0;
#X connect 28 0 3 0;
#X connect 28 0 4 0;
#X coords 0 -1 1 1 190 200 2 100 100;
