#N canvas 518 32 1118 977 10;
#X obj 503 472 soundfiler;
#X obj 120 433 i;
#X obj 160 433 + 10;
#X obj 121 463 % 1000;
#X obj 242 429 bng 20 250 50 0 empty empty empty 0 -10 0 12 #fcfcfc #000000 #000000;
#X obj 197 394 random 29;
#X obj 213 463 random 13;
#X obj 198 574 table gauss_dist_\$0 1000;
#X obj 503 360 loadbang;
#X obj 503 422 f \$0;
#X obj 71 54 inlet;
#X obj 290 54 inlet;
#X text 36 31 bang to obtain a new random number;
#X text 268 33 bang to reset;
#X obj 98 536 outlet;
#X obj 121 495 tabread gauss_dist_\$0;
#X msg 503 447 read -ascii -resize ./gaussian_samples.txt gauss_dist_\$1;
#X obj 583 584 f \$1;
#X obj 618 642 f \$2;
#X obj 407 951 tabwrite gauss_dist_\$0;
#X obj 445 647 tabread gauss_dist_\$0;
#X obj 435 551 until;
#X obj 463 590 i;
#X obj 494 589 + 1;
#X msg 478 553 0;
#X obj 463 617 t f f;
#X obj 407 917 +;
#X obj 450 516 t f b b b;
#X obj 419 56 inlet;
#X obj 533 52 inlet;
#X obj 618 268 t b f;
#X msg 647 353 stop;
#X obj 549 290 t b f;
#X obj 474 886 *;
#X obj 618 676 / 2;
#X obj 76 327 spigot;
#X obj 135 328 spigot;
#X obj 168 301 == 0;
#X obj 168 272 tgl 18 0 empty empty empty 0 -9 0 10 #fcfcfc #000000 #000000 0 1;
#X obj 77 379 f;
#X obj 170 200 bng 18 250 50 0 empty empty empty 0 -9 0 10 #fcfcfc #000000 #000000;
#X obj 564 386 delay 500;
#X obj 195 222 delay 600;
#X text -211 220 The randomizer takes time to rebuild the distribution. So we temporarily send a constant value until the table is built.;
#X obj 588 522 r center_value_\$0;
#X obj 703 522 r deviation_\$0;
#X obj 109 354 r center_value_\$0;
#X msg 166 246 1;
#X msg 195 245 0;
#X obj 688 329 s center_value_\$0;
#X obj 803 329 s deviation_\$0;
#X text 639 388 Put a delay to avoid recalculation until a stable value is reached.;
#X obj 180 158 r center_value_\$0;
#X obj 206 181 r deviation_\$0;
#X obj 289 209 loadbang;
#X text 395 32 center_value;
#X text 522 34 deviation;
#X text 792 -1 Generate a random number from a (simulated) gaussian distribution between a center value and a spread value (+/-) that can be set as arguments at creation time. I.e. 26 and 3 generates random numbers between 23 and 29 with expected value of 26 If it is set to unipolar \, it will generate a random number between 26 and 23 with expected value of 26 If it is set to inverted unipolar \, it will generate a random number between 26 and 29 with expected value of 26;
#X obj 655 54 inlet;
#X text 650 33 unipolar;
#X obj 652 141 vradio 18 1 0 3 empty empty empty 0 -9 0 10 #fcfcfc #000000 #000000 0;
#X text 679 143 0 = bipolar (simple gaussian);
#X text 679 161 1 = unipolar (half gaussian);
#X text 679 178 2 = inverted unipolar (half gaussian);
#X text 574 470 This table contains gaussian samples from -2 to +2;
#X obj 596 785 spigot;
#X obj 597 816 abs;
#X obj 428 791 spigot;
#X obj 661 727 < 1;
#X obj 655 761 == 0, f 5;
#X obj 689 682 r unip_\$0;
#X obj 640 229 s unip_\$0;
#X obj 716 727 sel 1 2;
#X obj 612 204 t b f;
#X obj 504 240 f \$1;
#X obj 575 240 f \$2;
#X obj 597 842 *;
#X msg 718 785 1;
#X msg 735 823 -1;
#X obj 590 78 loadbang;
#X obj 577 164 bng 18 250 50 0 empty empty empty 0 -9 0 10 #fcfcfc #000000 #000000;
#X obj 598 110 f \$3;
#X connect 0 0 27 0;
#X connect 1 0 2 0;
#X connect 1 0 3 0;
#X connect 2 0 1 1;
#X connect 3 0 15 0;
#X connect 4 0 5 0;
#X connect 4 0 6 0;
#X connect 5 0 1 1;
#X connect 6 0 2 1;
#X connect 8 0 9 0;
#X connect 9 0 16 0;
#X connect 10 0 35 0;
#X connect 10 0 36 0;
#X connect 11 0 4 0;
#X connect 15 0 14 0;
#X connect 16 0 0 0;
#X connect 17 0 26 1;
#X connect 18 0 34 0;
#X connect 20 0 67 0;
#X connect 20 0 65 0;
#X connect 21 0 22 0;
#X connect 22 0 23 0;
#X connect 22 0 25 0;
#X connect 23 0 22 1;
#X connect 24 0 22 1;
#X connect 25 0 20 0;
#X connect 25 1 19 1;
#X connect 26 0 19 0;
#X connect 27 0 21 0;
#X connect 27 1 24 0;
#X connect 27 2 18 0;
#X connect 27 3 17 0;
#X connect 28 0 74 0;
#X connect 29 0 75 0;
#X connect 30 0 41 0;
#X connect 30 1 31 0;
#X connect 30 1 50 0;
#X connect 31 0 41 0;
#X connect 32 0 41 0;
#X connect 32 1 31 0;
#X connect 32 1 49 0;
#X connect 33 0 26 0;
#X connect 34 0 33 1;
#X connect 35 0 39 0;
#X connect 36 0 1 0;
#X connect 37 0 36 1;
#X connect 38 0 37 0;
#X connect 38 0 35 1;
#X connect 39 0 14 0;
#X connect 40 0 47 0;
#X connect 40 0 42 0;
#X connect 41 0 9 0;
#X connect 42 0 48 0;
#X connect 44 0 17 1;
#X connect 45 0 18 1;
#X connect 46 0 39 1;
#X connect 47 0 38 0;
#X connect 48 0 38 0;
#X connect 52 0 40 0;
#X connect 53 0 40 0;
#X connect 54 0 48 0;
#X connect 58 0 60 0;
#X connect 60 0 73 0;
#X connect 65 0 66 0;
#X connect 66 0 76 0;
#X connect 67 0 33 0;
#X connect 68 0 67 1;
#X connect 68 0 69 0;
#X connect 69 0 65 1;
#X connect 70 0 68 0;
#X connect 70 0 72 0;
#X connect 72 0 77 0;
#X connect 72 1 78 0;
#X connect 73 0 74 0;
#X connect 73 0 75 0;
#X connect 73 1 71 0;
#X connect 74 0 32 0;
#X connect 75 0 30 0;
#X connect 76 0 33 0;
#X connect 77 0 76 1;
#X connect 78 0 76 1;
#X connect 79 0 81 0;
#X connect 80 0 75 0;
#X connect 80 0 74 0;
#X connect 81 0 60 0;
#X connect 81 0 80 0;
