#N canvas 66 32 1476 950 10;
#X obj 110 19 inlet~;
#X obj 313 338 hip~;
#X obj 108 128 hsl 128 15 0 127 0 1 \$0-highpass-freq-s \$0-highpass-freq-r FREQ 133 7 0 10 #fcfcfc #000000 #000000 5000 1;
#X obj 86 187 / 127;
#X obj 118 334 pack 0 50;
#X obj 118 356 line;
#X obj 313 399 min~ 1;
#X obj 313 421 max~ -1;
#X obj 313 443 outlet~;
#X obj 118 288 * 9950;
#X obj 105 109 cnv 5 5 5 empty empty IN 0 0 0 8 #fcfcfc #404040 0;
#X obj 250 109 cnv 5 5 5 empty empty FREQ 0 0 0 8 #fcfcfc #5ca878 0;
#X obj 168 120 cnv 5 5 5 empty empty FILTER 0 0 0 12 #fcfcfc #404040 0;
#X obj 105 120 cnv 5 5 5 empty empty HIGHPASS- 0 0 0 12 #fcfcfc #404040 0;
#X obj 118 310 + 100;
#X obj 218 120 cnv 5 5 5 empty \$0-instance-num 0 0 0 0 12 #fcfcfc #404040 0;
#X obj 313 373 *~ 1;
#X obj 212 19 inlet;
#X obj 491 21 inlet;
#X obj 491 44 switch~;
#X obj 489 81 *~ 10000;
#X obj 454 235 snapshot~;
#X obj 452 264 t b f;
#X obj 356 150 bang~;
#X obj 424 301 +;
#X obj 307 17 inlet~;
#X floatatom 477 305 5 0 0 0 - - - 0;
#X obj 372 19 inlet~;
#X obj 123 240 0_to_1_log 50;
#X connect 0 0 1 0;
#X connect 1 0 16 0;
#X connect 2 0 3 0;
#X connect 3 0 28 0;
#X connect 4 0 5 0;
#X connect 5 0 24 0;
#X connect 6 0 7 0;
#X connect 7 0 8 0;
#X connect 9 0 14 0;
#X connect 14 0 4 0;
#X connect 16 0 6 0;
#X connect 17 0 2 0;
#X connect 18 0 19 0;
#X connect 20 0 21 0;
#X connect 21 0 22 0;
#X connect 22 0 24 0;
#X connect 22 1 24 1;
#X connect 22 1 26 0;
#X connect 23 0 21 0;
#X connect 24 0 1 1;
#X connect 25 0 20 0;
#X connect 28 0 9 0;
#X coords 0 -1 1 1 175 75 2 100 100;
