#N canvas 577 162 1663 809 12;
#X obj -64 -222 inlet;
#X obj -134 -222 inlet;
#X obj -239 286 s reset_\$0;
#X obj -662 291 s bang_rate_\$0;
#X obj -521 225 spigot;
#X obj -245 238 spigot;
#X obj 105 129 bng 15 250 50 0 empty empty rst 2 8 1 8 #fcfcfc #000000 #000000;
#X obj -390 227 spigot;
#X obj -181 238 spigot;
#X obj 567 393 s sync_\$0;
#X obj -168 118 r sync_\$0;
#X obj 22 256 s manual_reset_\$0;
#X obj -168 155 == 0;
#X obj 163 188 s bpm_select_\$0;
#X obj -479 140 r sync_\$0;
#X obj -339 191 == 0;
#X obj -172 191 r manual_reset_\$0;
#X obj -659 481 i;
#X obj -629 481 + 1;
#X msg -622 392 0;
#X obj -644 356 r reset_\$0;
#X obj -644 509 % 4;
#X obj -552 356 r division_\$0;
#X obj -613 537 sel 0;
#X obj -531 536 *;
#X obj -758 390 r bang_rate_\$0;
#X obj -675 453 bng 20 250 50 0 empty empty empty 0 -10 0 12 #fcfcfc #000000 #000000;
#X obj -551 482 f;
#X obj -494 482 t b f;
#X obj 67 -222 inlet;
#X obj 3 -223 inlet, f 6;
#X obj 171 -223 inlet;
#X obj 121 -223 inlet;
#X obj -46 761 outlet;
#X obj -86 517 r reset_\$0;
#X text -113 783 bang;
#X text -45 783 reset;
#X obj -582 582 f;
#X obj -118 761 outlet;
#X obj 277 9 loadbang;
#X msg 277 34 120;
#X obj 48 -62 loadbang;
#X msg 47 -9 0;
#X text 374 -217 Internal_sync allow to choose between an internal and an external metro;
#X text 374 -186 Puts out a message containing the current rate every selected step (that can be used as a bang) and a reset bang from the second outlet;
#X obj 124 129 nbx 3 15 20 208 0 0 empty empty empty 0 -12 1 12 #fcfcfc #000000 #000000 0 256;
#X obj -580 652 spigot;
#X obj -98 598 spigot;
#X obj -518 612 r on_\$0;
#X obj -36 558 r on_\$0;
#X obj 648 236 s on_\$0;
#X msg 567 361 0;
#X msg 598 361 1;
#X obj -586 153 spigot;
#X obj -493 94 r on_\$0;
#X obj 152 104 cnv 20 30 20 empty mode_label_\$0 sync 2 12 1 12 #ffffff #404040 0;
#X obj 105 107 hradio 15 1 0 3 empty empty empty 0 -8 1 12 #fcfcfc #000000 #000000 0;
#X obj 164 126 cnv 20 30 20 empty division_label_\$0 6x 2 12 1 12 #ffffff #404040 0;
#X obj 370 335 f \$0;
#X obj 377 375 pack s 0;
#X obj 370 307 bng 20 250 50 0 empty empty empty 0 -10 0 12 #fcfcfc #000000 #000000;
#X msg 340 409 \; mode_label_\$2 label \$1;
#X obj 369 282 loadbang;
#X msg 428 310 off;
#X msg 443 326 sync;
#X obj 698 119 f \$0;
#X obj 628 119 pack s 0;
#X obj 737 120 bng 20 250 50 0 empty empty empty 0 -10 0 12 #fcfcfc #000000 #000000;
#X obj 763 120 loadbang;
#X msg 737 214 \; division_label_\$2 label \$1;
#X obj 111 760 outlet;
#X obj 168 760 outlet;
#X obj 234 760 outlet;
#X text 68 -246 sync;
#X text 12 -246 rst;
#X text 127 -245 div;
#X text -146 -246 ext_metro;
#X text -74 -246 ext_rst;
#X text 108 782 sync;
#X text 173 782 div;
#X text 246 782 bpm;
#X obj 47 -35 delay 100;
#X msg 462 343 int;
#X obj 292 652 r bpm_select_\$0;
#X obj -5 182 s selection_\$0;
#X obj 564 206 r selection_\$0;
#X obj 153 551 r selection_\$0;
#X msg -402 -13 0;
#X msg -402 -64 1;
#X obj -402 -90 r start_metro_\$0;
#X obj -402 -39 r stop_metro_\$0;
#X obj 560 266 sel 0 1 2, f 19;
#X obj 614 237 > 0;
#X obj 565 238 t f f;
#X obj 697 347 s start_metro_\$0;
#X obj 675 381 s stop_metro_\$0;
#X obj -259 -73 expr 60000 / $f1;
#X obj -259 -104 r bpm_select_\$0;
#X obj -184 -44 r division_\$0;
#X obj -225 -16 t b f;
#X floatatom -259 60 5 0 0 0 - - - 0;
#X obj -385 49 metro 125;
#X obj -368 -66 bng 20 250 50 0 empty empty empty 0 -10 0 12 #fcfcfc #000000 #000000;
#X obj -489 -91 loadbang;
#X obj -385 132 f;
#X obj 107 150 hsl 85 15 0 27 0 0 empty empty division 3 9 1 12 #000000 #ffffff #ffffff 0 1;
#X obj 166 226 i;
#X msg 1314 38 4x;
#X msg 913 65 24;
#X msg 879 64 20;
#X msg 846 64 16;
#X msg 813 65 12;
#X msg 775 66 10;
#X msg 734 66 8;
#X msg 692 67 6;
#X msg 648 66 5;
#X msg 1011 65 48;
#X msg 945 64 32;
#X msg 979 64 40;
#X msg 1043 65 64;
#X msg 1075 65 80;
#X msg 1117 65 96;
#X msg 1153 65 128;
#X msg 1187 65 160;
#X msg 1215 65 192;
#X msg 1250 65 256;
#X msg 1285 65 320;
#X msg 1315 65 384;
#X msg 1345 65 512;
#X msg 1375 65 640;
#X msg 1399 38 4x;
#X msg 1400 65 384;
#X msg 1430 65 512;
#X msg 1460 65 640;
#X msg 1429 38 5x;
#X msg 1459 38 6x;
#X msg 648 38 1/16t;
#X msg 692 38 1/16;
#X msg 729 38 1/16d;
#X msg 773 38 1/8t;
#X msg 810 38 1/8;
#X msg 840 38 1/8d;
#X msg 876 38 1/4t;
#X msg 912 38 1/4;
#X msg 942 38 1/4d;
#X msg 977 38 1/2t;
#X msg 1012 38 1/2;
#X msg 1042 38 1/2d;
#X obj 1016 135 s division_\$0;
#X obj 168 254 s div_select_\$0;
#X obj 512 -84 r div_select_\$0;
#X obj -259 21 * 4;
#X obj -262 -27 / 24;
#X msg 604 38 1/32d;
#X msg 567 38 1/32;
#X msg 523 38 1/32t;
#X obj 522 -7 sel 0 1 2 3 4 5 6 7 8 9 10 11 12 13 14 15 16 17 18 19 20 21 22 23 24 25 26 27, f 133;
#X msg 1344 38 4x;
#X msg 1374 38 5x;
#X obj 260 94 loadbang;
#X msg 609 66 4;
#X msg 567 67 3;
#X msg 523 66 2;
#X msg 1078 38 1/1t;
#X msg 1152 38 1/1d;
#X msg 1118 38 1/1;
#X msg 1186 38 2/1;
#X msg 1214 38 2/1d;
#X msg 1249 38 3/1t;
#X msg 1284 38 3/1;
#X msg -664 617 0;
#X obj -661 585 bng 20 250 50 0 empty empty empty 0 -10 0 12 #fcfcfc #000000 #000000;
#X floatatom -496 414 5 0 0 0 - - - 0;
#X obj -729 684 s reset_for_sync_\$0;
#X obj 127 525 r reset_for_sync_\$0;
#X text 165 -245 int_bpm;
#X obj 297 758 outlet;
#X obj 358 758 outlet;
#X obj 358 709 r div_name_\$0;
#X text 353 780 div_name;
#X text 292 781 div_amt;
#X msg 378 454 symbol \$1;
#X obj 378 479 s div_name_\$0;
#X obj 324 680 r division_\$0;
#X text 443 637 div_name is the name of the subdivision to show (i.e. 1/16t). div_amt is the division that has to be done on the "midi clock" (24ppqn).;
#X msg 260 120 10;
#X text 290 118 10 = 1/4;
#X obj 627 174 s div_name_\$0;
#X msg 625 149 symbol \$1;
#X obj 28 761 outlet;
#X text 18 783 sync_reset;
#X text 444 595 reset bangs on start and stop of metro \, sync_reset bangs whenever a cycle is completed (1/4 \, 1 bar \, ...);
#X obj 112 -185 s divis_in_\$0;
#X obj 161 13 / 127;
#X obj 161 45 * 27;
#X obj 157 -21 r divis_in_\$0;
#X obj 172 681 / 27;
#X obj 169 714 * 127;
#X obj 171 620 r div_select_\$0;
#X floatatom 181 330 5 0 0 0 - - - 0;
#X connect 0 0 5 0;
#X connect 1 0 53 0;
#X connect 4 0 3 0;
#X connect 5 0 2 0;
#X connect 6 0 11 0;
#X connect 7 0 38 0;
#X connect 8 0 2 0;
#X connect 10 0 12 0;
#X connect 10 0 5 1;
#X connect 12 0 8 1;
#X connect 14 0 15 0;
#X connect 14 0 4 1;
#X connect 15 0 7 1;
#X connect 16 0 8 0;
#X connect 17 0 18 0;
#X connect 17 0 21 0;
#X connect 18 0 17 1;
#X connect 19 0 17 1;
#X connect 20 0 19 0;
#X connect 21 0 23 0;
#X connect 22 0 21 1;
#X connect 22 0 28 0;
#X connect 22 0 172 0;
#X connect 23 0 27 0;
#X connect 23 0 37 0;
#X connect 23 0 170 0;
#X connect 23 0 171 0;
#X connect 24 0 37 1;
#X connect 25 0 26 0;
#X connect 25 0 27 1;
#X connect 26 0 17 0;
#X connect 27 0 24 0;
#X connect 28 0 24 0;
#X connect 28 1 24 1;
#X connect 29 0 56 0;
#X connect 30 0 6 0;
#X connect 31 0 45 0;
#X connect 32 0 192 0;
#X connect 34 0 47 0;
#X connect 37 0 46 0;
#X connect 39 0 40 0;
#X connect 40 0 45 0;
#X connect 41 0 81 0;
#X connect 42 0 56 0;
#X connect 45 0 13 0;
#X connect 46 0 38 0;
#X connect 47 0 33 0;
#X connect 47 0 189 0;
#X connect 48 0 46 1;
#X connect 49 0 47 1;
#X connect 51 0 9 0;
#X connect 52 0 9 0;
#X connect 53 0 4 0;
#X connect 54 0 53 1;
#X connect 56 0 84 0;
#X connect 58 0 59 1;
#X connect 59 0 61 0;
#X connect 59 0 181 0;
#X connect 60 0 58 0;
#X connect 62 0 60 0;
#X connect 63 0 59 0;
#X connect 64 0 59 0;
#X connect 65 0 66 1;
#X connect 66 0 69 0;
#X connect 66 0 188 0;
#X connect 67 0 65 0;
#X connect 68 0 67 0;
#X connect 81 0 42 0;
#X connect 82 0 59 0;
#X connect 83 0 72 0;
#X connect 85 0 93 0;
#X connect 86 0 70 0;
#X connect 87 0 101 0;
#X connect 88 0 101 0;
#X connect 88 0 102 0;
#X connect 89 0 88 0;
#X connect 90 0 87 0;
#X connect 91 0 52 0;
#X connect 91 0 63 0;
#X connect 91 0 95 0;
#X connect 91 1 52 0;
#X connect 91 1 64 0;
#X connect 91 1 95 0;
#X connect 91 2 51 0;
#X connect 91 2 82 0;
#X connect 91 2 94 0;
#X connect 91 3 51 0;
#X connect 91 3 95 0;
#X connect 92 0 50 0;
#X connect 93 0 91 0;
#X connect 93 1 92 0;
#X connect 96 0 152 0;
#X connect 97 0 96 0;
#X connect 98 0 99 0;
#X connect 99 0 151 0;
#X connect 99 1 151 1;
#X connect 100 0 101 1;
#X connect 100 0 104 1;
#X connect 101 0 104 0;
#X connect 102 0 8 0;
#X connect 103 0 87 0;
#X connect 104 0 7 0;
#X connect 105 0 106 0;
#X connect 106 0 149 0;
#X connect 106 0 199 0;
#X connect 107 0 127 0;
#X connect 107 0 66 0;
#X connect 108 0 148 0;
#X connect 109 0 148 0;
#X connect 110 0 148 0;
#X connect 111 0 148 0;
#X connect 112 0 148 0;
#X connect 113 0 148 0;
#X connect 114 0 148 0;
#X connect 115 0 148 0;
#X connect 116 0 148 0;
#X connect 117 0 148 0;
#X connect 118 0 148 0;
#X connect 119 0 148 0;
#X connect 120 0 148 0;
#X connect 121 0 148 0;
#X connect 122 0 148 0;
#X connect 123 0 148 0;
#X connect 124 0 148 0;
#X connect 125 0 148 0;
#X connect 126 0 148 0;
#X connect 127 0 148 0;
#X connect 128 0 148 0;
#X connect 129 0 148 0;
#X connect 130 0 131 0;
#X connect 130 0 66 0;
#X connect 131 0 148 0;
#X connect 132 0 148 0;
#X connect 133 0 148 0;
#X connect 134 0 132 0;
#X connect 134 0 66 0;
#X connect 135 0 133 0;
#X connect 135 0 66 0;
#X connect 136 0 115 0;
#X connect 136 0 66 0;
#X connect 137 0 114 0;
#X connect 137 0 66 0;
#X connect 138 0 113 0;
#X connect 138 0 66 0;
#X connect 139 0 112 0;
#X connect 139 0 66 0;
#X connect 140 0 111 0;
#X connect 140 0 66 0;
#X connect 141 0 110 0;
#X connect 141 0 66 0;
#X connect 142 0 109 0;
#X connect 142 0 66 0;
#X connect 143 0 108 0;
#X connect 143 0 66 0;
#X connect 144 0 117 0;
#X connect 144 0 66 0;
#X connect 145 0 118 0;
#X connect 145 0 66 0;
#X connect 146 0 116 0;
#X connect 146 0 66 0;
#X connect 147 0 119 0;
#X connect 147 0 66 0;
#X connect 150 0 156 0;
#X connect 151 0 100 0;
#X connect 152 0 151 0;
#X connect 153 0 160 0;
#X connect 153 0 66 0;
#X connect 154 0 161 0;
#X connect 154 0 66 0;
#X connect 155 0 162 0;
#X connect 155 0 66 0;
#X connect 156 0 155 0;
#X connect 156 1 154 0;
#X connect 156 2 153 0;
#X connect 156 3 136 0;
#X connect 156 4 137 0;
#X connect 156 5 138 0;
#X connect 156 6 139 0;
#X connect 156 7 140 0;
#X connect 156 8 141 0;
#X connect 156 9 142 0;
#X connect 156 10 143 0;
#X connect 156 11 144 0;
#X connect 156 12 145 0;
#X connect 156 13 146 0;
#X connect 156 14 147 0;
#X connect 156 15 163 0;
#X connect 156 16 165 0;
#X connect 156 17 164 0;
#X connect 156 18 166 0;
#X connect 156 19 167 0;
#X connect 156 20 168 0;
#X connect 156 21 169 0;
#X connect 156 22 107 0;
#X connect 156 23 157 0;
#X connect 156 24 158 0;
#X connect 156 25 130 0;
#X connect 156 26 134 0;
#X connect 156 27 135 0;
#X connect 157 0 128 0;
#X connect 157 0 66 0;
#X connect 158 0 129 0;
#X connect 158 0 66 0;
#X connect 159 0 185 0;
#X connect 160 0 148 0;
#X connect 161 0 148 0;
#X connect 162 0 148 0;
#X connect 163 0 120 0;
#X connect 163 0 66 0;
#X connect 164 0 122 0;
#X connect 164 0 66 0;
#X connect 165 0 121 0;
#X connect 165 0 66 0;
#X connect 166 0 123 0;
#X connect 166 0 66 0;
#X connect 167 0 124 0;
#X connect 167 0 66 0;
#X connect 168 0 125 0;
#X connect 168 0 66 0;
#X connect 169 0 126 0;
#X connect 169 0 66 0;
#X connect 170 0 173 0;
#X connect 174 0 189 0;
#X connect 178 0 177 0;
#X connect 181 0 182 0;
#X connect 183 0 176 0;
#X connect 185 0 105 0;
#X connect 188 0 187 0;
#X connect 193 0 194 0;
#X connect 194 0 105 0;
#X connect 195 0 193 0;
#X connect 196 0 197 0;
#X connect 197 0 71 0;
#X connect 198 0 196 0;
#X coords 0 -1 1 1 100 70 2 100 100;
