#N canvas 257 162 1663 809 12;
#X obj -64 -222 inlet;
#X obj -134 -222 inlet;
#X obj 209 110 s bpm_select_\$0;
#X obj 4 -221 inlet;
#X obj 74 -223 inlet;
#X obj 277 9 loadbang;
#X msg 277 34 120;
#X text 376 -169 Puts out a message containing the current rate every selected step (that can be used as a bang) and a reset bang from the second outlet;
#X obj 153 109 nbx 3 15 20 208 0 0 empty empty empty 0 -12 1 12 #fcfcfc #000000 #000000 0 256;
#X text 11 -244 sync;
#X text -146 -246 ext_metro;
#X text -74 -246 ext_rst;
#X text 68 -245 int_bpm;
#X obj 133 108 vradio 15 1 0 3 empty empty empty 0 -10 0 12 #fcfcfc #000000 #000000 0;
#X text 105 106 off;
#X text 105 136 int;
#X text 105 121 ext;
#X obj 190 217 metronome;
#X obj -46 495 outlet;
#X obj 43 494 outlet;
#X obj 114 492 outlet;
#X obj 203 491 outlet;
#X obj -87 332 spigot;
#X obj -27 333 spigot;
#X obj 10 202 sel 0 1 2;
#X msg -82 240 0;
#X msg -10 239 1;
#X msg 21 239 0;
#X text 376 -218 Internal_sync_simple allow to choose between an internal and an external metro. The internal outputs only 24ppqn as division.;
#X msg 55 239 0;
#X text -58 520 bang_bpm;
#X text 47 522 rst;
#X text 119 521 selection;
#X text 204 519 bpm;
#X obj 150 -221 inlet;
#X text 144 -243 metro_onoff;
#X obj 165 131 tgl 20 0 empty empty empty 0 -10 0 12 #fcfcfc #000000 #000000 0 1;
#X obj 44 338 spigot;
#X obj 109 336 spigot;
#X msg 87 240 1;
#X connect 0 0 23 0;
#X connect 1 0 22 0;
#X connect 3 0 13 0;
#X connect 4 0 8 0;
#X connect 5 0 6 0;
#X connect 6 0 8 0;
#X connect 8 0 2 0;
#X connect 8 0 17 1;
#X connect 13 0 20 0;
#X connect 13 0 24 0;
#X connect 17 0 37 0;
#X connect 17 1 38 0;
#X connect 17 2 21 0;
#X connect 22 0 18 0;
#X connect 23 0 19 0;
#X connect 24 0 25 0;
#X connect 24 1 26 0;
#X connect 24 1 27 0;
#X connect 24 2 29 0;
#X connect 24 2 39 0;
#X connect 25 0 23 1;
#X connect 25 0 22 1;
#X connect 25 0 36 0;
#X connect 25 0 37 1;
#X connect 25 0 38 1;
#X connect 26 0 22 1;
#X connect 26 0 23 1;
#X connect 27 0 36 0;
#X connect 27 0 38 1;
#X connect 27 0 37 1;
#X connect 29 0 23 1;
#X connect 29 0 22 1;
#X connect 34 0 36 0;
#X connect 36 0 17 0;
#X connect 37 0 18 0;
#X connect 38 0 19 0;
#X connect 39 0 37 1;
#X connect 39 0 38 1;
#X coords 0 -1 1 1 100 60 2 100 100;
