#N canvas 697 232 796 696 12;
#X obj 58 55 inlet;
#X obj 88 379 outlet;
#X obj 92 272 list store;
#X obj 213 137 list length;
#X obj 97 158 until;
#X obj 94 182 i;
#X obj 125 182 + 1;
#X obj 149 94 t b l l b;
#X msg 135 158 0;
#X msg 91 251 get \$1;
#X obj 97 137 i;
#X text 56 28 list;
#X obj 198 378 outlet;
#X obj 179 349 pack 0 0;
#X obj 179 300 t b f;
#X obj 176 324 i;
#X text 90 397 iteration;
#X text 195 398 enumerate;
#X obj 90 215 t f f;
#X connect 0 0 7 0;
#X connect 2 0 1 0;
#X connect 2 0 14 0;
#X connect 3 0 10 1;
#X connect 4 0 5 0;
#X connect 5 0 6 0;
#X connect 5 0 18 0;
#X connect 6 0 5 1;
#X connect 7 0 10 0;
#X connect 7 1 2 1;
#X connect 7 2 3 0;
#X connect 7 3 8 0;
#X connect 8 0 5 1;
#X connect 9 0 2 0;
#X connect 10 0 4 0;
#X connect 13 0 12 0;
#X connect 14 0 15 0;
#X connect 14 1 13 1;
#X connect 15 0 13 0;
#X connect 18 0 9 0;
#X connect 18 1 15 1;
