#N canvas 185 100 1627 1089 10;
#X obj 547 113 pack 0 10;
#X obj 547 135 line~;
#X obj 108 146 hsl 128 15 0 127 0 1 \$0-ladder-q-s \$0-ladder-q-r Q 135 7 0 10 #fcfcfc #000000 #000000 3000 1;
#X obj 333 63 / 127;
#X obj 333 128 pack 0 50;
#X obj 333 150 line~;
#X obj 333 106 * 0.99;
#X obj 501 643 clip~ -1 1;
#X obj 536 233 lop~ 10;
#X obj 396 102 * 2;
#X obj 536 275 s~ \$0-ladder-cutoff;
#X obj 68 -83 inlet~;
#X obj 333 85 t f f;
#X obj 501 745 outlet~;
#X obj 396 124 + 1;
#X obj 396 148 s \$0-ladder-q-mess;
#X obj 554 -76 r \$0-ladder-freq-s;
#X obj 333 43 r \$0-ladder-q-s;
#X obj 303 336 vcf~ 1;
#X obj 318 232 *~;
#X obj 303 264 +~;
#X obj 319 287 r~ \$0-ladder-cutoff;
#X obj 318 210 r~ \$0-ladder-Q;
#X obj 336 309 r \$0-ladder-q-mess;
#X obj 336 380 vcf~ 1;
#X obj 352 331 r~ \$0-ladder-cutoff;
#X obj 369 353 r \$0-ladder-q-mess;
#X obj 369 427 vcf~ 1;
#X obj 385 378 r~ \$0-ladder-cutoff;
#X obj 402 400 r \$0-ladder-q-mess;
#X obj 402 471 vcf~ 1;
#X obj 418 422 r~ \$0-ladder-cutoff;
#X obj 435 444 r \$0-ladder-q-mess;
#X obj 435 515 vcf~ 1;
#X obj 451 466 r~ \$0-ladder-cutoff;
#X obj 468 488 r \$0-ladder-q-mess;
#X obj 468 559 vcf~ 1;
#X obj 484 510 r~ \$0-ladder-cutoff;
#X obj 501 532 r \$0-ladder-q-mess;
#X obj 577 638 s~ \$0-ladder-Q;
#X obj 577 576 *~ 2;
#X obj 501 591 *~ 2;
#X obj 839 200 * 3;
#X obj 839 222 + 1;
#X obj 501 613 *~;
#X obj 838 254 pack 0 50;
#X obj 839 285 line~;
#X obj 577 598 *~ -1;
#X obj 680 377 vcf~ 1;
#X obj 713 350 r \$0-ladder-q-mess;
#X obj 713 421 vcf~ 1;
#X obj 746 394 r \$0-ladder-q-mess;
#X obj 746 468 vcf~ 1;
#X obj 779 441 r \$0-ladder-q-mess;
#X obj 779 512 vcf~ 1;
#X obj 812 485 r \$0-ladder-q-mess;
#X obj 812 556 vcf~ 1;
#X obj 845 529 r \$0-ladder-q-mess;
#X obj 845 600 vcf~ 1;
#X obj 878 573 r \$0-ladder-q-mess;
#X obj 696 328 r~ \$0-ladder-cutoff2;
#X obj 729 372 r~ \$0-ladder-cutoff2;
#X obj 762 419 r~ \$0-ladder-cutoff2;
#X obj 795 463 r~ \$0-ladder-cutoff2;
#X obj 828 507 r~ \$0-ladder-cutoff2;
#X obj 861 551 r~ \$0-ladder-cutoff2;
#X obj 691 283 s~ \$0-ladder-cutoff2;
#X obj 878 670 clip~ -1 1;
#X obj 878 624 *~ 2;
#X obj 878 646 *~;
#X obj 501 724 clip~ -1 1;
#X obj 691 261 +~ 10;
#X obj 104 120 cnv 5 5 5 empty empty LADDER-FILTER 0 0 0 12 #fcfcfc #404040 0;
#X obj 229 120 cnv 5 5 5 empty \$0-instance-num 0 0 0 0 12 #fcfcfc #404040 0;
#X obj 108 131 hsl 128 15 1.27 127 1 1 \$0-ladder-freq-s \$0-ladder-freq-r FREQ 135 7 0 10 #fcfcfc #000000 #000000 10129 1;
#X obj 255 69 clip~ -1 1;
#X obj 501 687 *~ 2;
#X obj 130 -76 inlet;
#X obj 190 -76 inlet;
#X obj 410 -74 inlet;
#X obj 427 -23 switch~;
#X obj 248 -77 inlet~;
#X obj 332 -75 inlet~;
#X obj 537 212 *~;
#X obj 542 167 *~;
#X obj 551 85 + 50;
#X obj 553 -38 / 127;
#X obj 552 -5 0_to_1_log 50;
#X obj 550 60 * 14949;
#X connect 0 0 1 0;
#X connect 1 0 84 0;
#X connect 3 0 12 0;
#X connect 4 0 5 0;
#X connect 5 0 19 1;
#X connect 6 0 4 0;
#X connect 7 0 76 0;
#X connect 8 0 10 0;
#X connect 8 0 71 0;
#X connect 9 0 14 0;
#X connect 11 0 75 0;
#X connect 12 0 6 0;
#X connect 12 1 9 0;
#X connect 14 0 15 0;
#X connect 16 0 86 0;
#X connect 17 0 3 0;
#X connect 18 1 24 0;
#X connect 19 0 20 1;
#X connect 20 0 18 0;
#X connect 20 0 48 0;
#X connect 21 0 18 1;
#X connect 22 0 19 0;
#X connect 23 0 18 2;
#X connect 24 1 27 0;
#X connect 25 0 24 1;
#X connect 26 0 24 2;
#X connect 27 1 30 0;
#X connect 28 0 27 1;
#X connect 29 0 27 2;
#X connect 30 1 33 0;
#X connect 31 0 30 1;
#X connect 32 0 30 2;
#X connect 33 1 36 0;
#X connect 34 0 33 1;
#X connect 35 0 33 2;
#X connect 36 1 40 0;
#X connect 36 1 41 0;
#X connect 37 0 36 1;
#X connect 38 0 36 2;
#X connect 40 0 47 0;
#X connect 41 0 44 0;
#X connect 42 0 43 0;
#X connect 43 0 45 0;
#X connect 44 0 7 0;
#X connect 45 0 46 0;
#X connect 46 0 44 1;
#X connect 47 0 39 0;
#X connect 48 1 50 0;
#X connect 49 0 48 2;
#X connect 50 1 52 0;
#X connect 51 0 50 2;
#X connect 52 1 54 0;
#X connect 53 0 52 2;
#X connect 54 1 56 0;
#X connect 55 0 54 2;
#X connect 56 1 58 0;
#X connect 57 0 56 2;
#X connect 58 1 68 0;
#X connect 59 0 58 2;
#X connect 60 0 48 1;
#X connect 61 0 50 1;
#X connect 62 0 52 1;
#X connect 63 0 54 1;
#X connect 64 0 56 1;
#X connect 65 0 58 1;
#X connect 67 0 76 0;
#X connect 68 0 69 0;
#X connect 69 0 67 0;
#X connect 70 0 13 0;
#X connect 71 0 66 0;
#X connect 75 0 20 0;
#X connect 76 0 70 0;
#X connect 77 0 74 0;
#X connect 78 0 2 0;
#X connect 79 0 80 0;
#X connect 81 0 84 1;
#X connect 82 0 83 1;
#X connect 83 0 8 0;
#X connect 84 0 83 0;
#X connect 85 0 0 0;
#X connect 86 0 87 0;
#X connect 87 0 42 0;
#X connect 87 0 88 0;
#X connect 88 0 85 0;
#X coords 0 -1 1 1 175 95 2 100 100;
