#N canvas 348 164 1390 805 10;
#X obj 76 556 line~;
#X obj 374 170 hsl 128 15 0 127 0 1 \$0-basic-lfo-freq-s \$0-basic-lfo-freq-r FREQ 135 7 0 10 #fcfcfc #000000 #000000 9003 1;
#X obj 79 531 pack 0 50;
#N canvas 0 22 1534 1097 sinewave 0;
#X obj 231 28 r \$0-basic-lfo-sync!;
#X obj 209 58 inlet~;
#X obj 209 136 osc~;
#X obj 450 235 switch~;
#X obj 450 158 sel 0;
#X obj 450 180 del 100;
#X msg 450 202 0;
#X obj 440 6 r \$0-basic-lfo-sine-on/off;
#X obj 206 182 *~ 0.5;
#X obj 208 207 +~ 0.5;
#X obj 205 240 outlet~ UNI;
#X obj 238 108 f;
#X obj 354 102 bng 18 250 50 0 empty empty empty 0 -9 0 10 #fcfcfc #000000 #000000;
#X obj 344 142 del 100;
#X connect 0 0 11 0;
#X connect 1 0 2 0;
#X connect 2 0 8 0;
#X connect 4 0 5 0;
#X connect 4 1 3 0;
#X connect 4 1 12 0;
#X connect 5 0 6 0;
#X connect 6 0 3 0;
#X connect 7 0 4 0;
#X connect 8 0 9 0;
#X connect 9 0 10 0;
#X connect 11 0 2 1;
#X connect 12 0 13 0;
#X connect 13 0 11 0;
#X restore 76 612 pd sinewave;
#N canvas 202 115 1534 805 triangle 0;
#X obj 425 80 r \$0-basic-lfo-sync!;
#X obj 340 53 inlet~;
#X obj 388 335 switch~;
#X obj 340 125 phasor~;
#X obj 340 213 min~;
#X obj 361 167 *~ -1;
#X obj 361 189 +~ 1;
#X obj 388 225 sel 0;
#X obj 388 247 del 100;
#X msg 388 269 0;
#X obj 388 52 r \$0-basic-lfo-triangle-on/off;
#X obj 547 231 *~ 2;
#X obj 547 360 outlet~ UNI;
#X obj 490 149 del 10;
#X obj 419 132 f;
#X connect 0 0 14 0;
#X connect 1 0 3 0;
#X connect 3 0 4 0;
#X connect 3 0 5 0;
#X connect 4 0 11 0;
#X connect 5 0 6 0;
#X connect 6 0 4 1;
#X connect 7 0 8 0;
#X connect 7 1 2 0;
#X connect 7 1 13 0;
#X connect 8 0 9 0;
#X connect 9 0 2 0;
#X connect 10 0 7 0;
#X connect 11 0 12 0;
#X connect 13 0 14 0;
#X connect 14 0 3 1;
#X restore 162 610 pd triangle;
#N canvas 0 22 652 481 saw 0;
#X obj 404 116 r \$0-basic-lfo-sync!;
#X obj 365 68 inlet~;
#X obj 413 350 switch~;
#X obj 311 230 phasor~;
#X obj 413 177 sel 0;
#X obj 413 199 del 100;
#X msg 413 221 0;
#X obj 413 67 r \$0-basic-lfo-saw-on/off;
#X obj 369 407 outlet~ UNI;
#X obj 362 178 f;
#X obj 464 246 bng 18 250 50 0 empty empty empty 0 -9 0 10 #fcfcfc #000000 #000000;
#X obj 464 269 del 10;
#X connect 0 0 9 0;
#X connect 1 0 3 0;
#X connect 3 0 8 0;
#X connect 4 0 5 0;
#X connect 4 1 2 0;
#X connect 4 1 10 0;
#X connect 5 0 6 0;
#X connect 6 0 2 0;
#X connect 7 0 4 0;
#X connect 9 0 3 1;
#X connect 10 0 11 0;
#X connect 11 0 9 0;
#X restore 252 608 pd saw;
#X obj 374 191 hsl 128 15 0 127 0 1 \$0-basic-lfo-depth-s \$0-basic-lfo-depth-r DEPTH 135 7 0 10 #8480d4 #000000 #000000 12700 1;
#X obj 68 208 r \$0-basic-lfo-freq-s;
#X obj 781 397 r \$0-basic-lfo-depth-s;
#X obj 782 531 pack 0 50;
#X obj 782 567 line~;
#X obj 63 786 outlet~ UNI-POLAR;
#X obj 103 132 hradio 10 1 1 5 \$0-basic-lfo-wform-s \$0-basic-lfo-wform-r empty 65 7 0 10 #fcfcfc #000000 #000000 0;
#X obj 155 137 cnv 5 5 5 empty \$0-lfo-waveform-gui-r SINE 0 0 0 10 #fcfcfc #404040 0;
#N canvas 66 32 1132 690 choose-wform 0;
#X obj 52 971 t b b;
#X obj 688 575 makefilename %s;
#X msg 688 599 label \$1;
#X msg 693 499 symbol SINE;
#X obj 67 802 t b b;
#X msg 693 477 symbol TRIANGLE;
#X obj 83 634 t b b;
#X msg 694 455 symbol SAW;
#X obj 80 14 r \$0-basic-lfo-wform-s;
#X obj 688 622 s \$0-lfo-waveform-gui-r;
#X obj 52 1116 s \$0-basic-lfo-sine-on/off;
#X obj 79 1091 s \$0-basic-lfo-triangle-on/off;
#X obj 106 1065 s \$0-basic-lfo-saw-on/off;
#X obj 67 946 s \$0-basic-lfo-sine-on/off;
#X obj 94 921 s \$0-basic-lfo-triangle-on/off;
#X obj 121 895 s \$0-basic-lfo-saw-on/off;
#X obj 83 778 s \$0-basic-lfo-sine-on/off;
#X obj 110 753 s \$0-basic-lfo-triangle-on/off;
#X obj 137 727 s \$0-basic-lfo-saw-on/off;
#X obj 104 443 t b b;
#X obj 102 603 s \$0-basic-lfo-sine-on/off;
#X obj 129 578 s \$0-basic-lfo-triangle-on/off;
#X obj 156 552 s \$0-basic-lfo-saw-on/off;
#X obj 175 530 s \$0-basic-lfo-invsaw-on/off;
#X msg 698 421 symbol INV_SAW;
#X obj 162 704 s \$0-basic-lfo-invsaw-on/off;
#X obj 148 874 s \$0-basic-lfo-invsaw-on/off;
#X obj 138 1044 s \$0-basic-lfo-invsaw-on/off;
#X obj 104 488 unpack f f f f f;
#X obj 83 679 unpack f f f f f;
#X obj 67 847 unpack f f f f f;
#X obj 52 1017 unpack f f f f f;
#X obj 172 1025 s \$0-basic-lfo-samphold-on/off;
#X obj 187 856 s \$0-basic-lfo-samphold-on/off;
#X obj 196 683 s \$0-basic-lfo-samphold-on/off;
#X obj 220 510 s \$0-basic-lfo-samphold-on/off;
#X msg 104 465 0 0 0 1 0;
#X msg 83 656 0 0 1 0 0;
#X msg 67 824 0 1 0 0 0;
#X msg 52 995 1 0 0 0 0;
#X obj 132 253 t b b;
#X obj 130 413 s \$0-basic-lfo-sine-on/off;
#X obj 157 388 s \$0-basic-lfo-triangle-on/off;
#X obj 184 362 s \$0-basic-lfo-saw-on/off;
#X obj 203 340 s \$0-basic-lfo-invsaw-on/off;
#X obj 132 298 unpack f f f f f;
#X obj 248 320 s \$0-basic-lfo-samphold-on/off;
#X obj 80 35 sel 0 1 2 3 4;
#X msg 697 393 symbol S_HOLD;
#X msg 132 275 0 0 0 0 1;
#X obj 254 85 loadbang;
#X msg 254 108 0;
#X connect 0 0 39 0;
#X connect 0 1 3 0;
#X connect 1 0 2 0;
#X connect 2 0 9 0;
#X connect 3 0 1 0;
#X connect 4 0 38 0;
#X connect 4 1 5 0;
#X connect 5 0 1 0;
#X connect 6 0 37 0;
#X connect 6 1 7 0;
#X connect 7 0 1 0;
#X connect 8 0 47 0;
#X connect 19 0 36 0;
#X connect 19 1 24 0;
#X connect 24 0 1 0;
#X connect 28 0 20 0;
#X connect 28 1 21 0;
#X connect 28 2 22 0;
#X connect 28 3 23 0;
#X connect 28 4 35 0;
#X connect 29 0 16 0;
#X connect 29 1 17 0;
#X connect 29 2 18 0;
#X connect 29 3 25 0;
#X connect 29 4 34 0;
#X connect 30 0 13 0;
#X connect 30 1 14 0;
#X connect 30 2 15 0;
#X connect 30 3 26 0;
#X connect 30 4 33 0;
#X connect 31 0 10 0;
#X connect 31 1 11 0;
#X connect 31 2 12 0;
#X connect 31 3 27 0;
#X connect 31 4 32 0;
#X connect 36 0 28 0;
#X connect 37 0 29 0;
#X connect 38 0 30 0;
#X connect 39 0 31 0;
#X connect 40 0 49 0;
#X connect 40 1 48 0;
#X connect 45 0 41 0;
#X connect 45 1 42 0;
#X connect 45 2 43 0;
#X connect 45 3 44 0;
#X connect 45 4 46 0;
#X connect 47 0 0 0;
#X connect 47 1 4 0;
#X connect 47 2 6 0;
#X connect 47 3 19 0;
#X connect 47 4 40 0;
#X connect 48 0 1 0;
#X connect 49 0 45 0;
#X connect 50 0 51 0;
#X connect 51 0 47 0;
#X restore 1036 -9 pd choose-wform;
#X obj 78 696 *~;
#X obj 78 15 inlet;
#X obj 148 15 inlet;
#X obj 214 14 inlet;
#X text 77 -9 freq;
#X text 140 -9 depth;
#X text 214 -9 wform;
#X obj 108 103 hsl 80 10 0 127 0 0 empty empty frq 10 6 1 10 #000000 #ffffff #7c7c7c 0 1;
#X obj 107 118 hsl 80 10 0 127 0 0 empty empty dep 10 6 1 10 #000000 #ffffff #7c7c7c 0 1;
#X obj 589 709 outlet;
#X obj 647 710 outlet;
#X obj 711 711 outlet;
#X obj 785 501 * 0.1;
#X obj 805 472 t b f;
#X obj 103 145 hradio 10 1 0 3 empty empty empty 0 -9 0 10 #fcfcfc #000000 #000000 0;
#X obj 945 456 sel 0 1 2;
#X msg 981 485 0.5;
#X obj 275 11 inlet;
#X obj 854 712 outlet;
#X obj 278 53 loadbang;
#X obj 390 10 inlet;
#X obj 677 327 s \$0-basic-lfo-sync!;
#X msg 276 102 0;
#N canvas 0 22 1199 764 invsaw 0;
#X obj 404 116 r \$0-basic-lfo-sync!;
#X obj 365 68 inlet~;
#X obj 413 350 switch~;
#X obj 311 230 phasor~;
#X obj 413 177 sel 0;
#X obj 413 199 del 100;
#X msg 413 221 0;
#X obj 369 407 outlet~ UNI;
#X obj 362 178 f;
#X obj 464 246 bng 18 250 50 0 empty empty empty 0 -9 0 10 #fcfcfc #000000 #000000;
#X obj 464 269 del 10;
#X obj 184 223 loadbang;
#X msg 184 261 1;
#X obj 188 305 sig~;
#X obj 299 327 -~;
#X obj 413 67 r \$0-basic-lfo-invsaw-on/off;
#X connect 0 0 8 0;
#X connect 1 0 3 0;
#X connect 3 0 14 1;
#X connect 4 0 5 0;
#X connect 4 1 2 0;
#X connect 4 1 9 0;
#X connect 5 0 6 0;
#X connect 6 0 2 0;
#X connect 8 0 3 1;
#X connect 9 0 10 0;
#X connect 10 0 8 0;
#X connect 11 0 12 0;
#X connect 12 0 13 0;
#X connect 13 0 14 0;
#X connect 14 0 7 0;
#X connect 15 0 4 0;
#X restore 309 608 pd invsaw;
#X obj 461 8 inlet;
#X obj 63 742 -~;
#X obj 9 722 sig~;
#X msg 10 688 1;
#X obj 3 663 loadbang;
#N canvas 0 22 1199 764 samphold 0;
#X obj 404 116 r \$0-basic-lfo-sync!;
#X obj 413 350 switch~;
#X obj 413 177 sel 0;
#X obj 413 199 del 100;
#X msg 413 221 0;
#X obj 336 437 outlet~ UNI;
#X obj 464 246 bng 18 250 50 0 empty empty empty 0 -9 0 10 #fcfcfc #000000 #000000;
#X obj 464 269 del 10;
#X obj 337 413 -~;
#X obj 306 237 random 100;
#X obj 306 260 / 100;
#X obj 287 183 metro;
#X msg 280 149 1;
#X msg 313 147 0;
#X obj 246 77 inlet;
#X obj 358 76 r \$0-basic-lfo-samphold-on/off;
#X obj 362 346 line~;
#X obj 344 322 pack 0 10;
#X connect 2 0 3 0;
#X connect 2 1 1 0;
#X connect 2 1 6 0;
#X connect 3 0 4 0;
#X connect 4 0 1 0;
#X connect 4 0 13 0;
#X connect 6 0 7 0;
#X connect 7 0 12 0;
#X connect 8 0 5 0;
#X connect 9 0 10 0;
#X connect 10 0 17 0;
#X connect 11 0 9 0;
#X connect 12 0 11 0;
#X connect 13 0 11 0;
#X connect 14 0 11 1;
#X connect 15 0 2 0;
#X connect 16 0 8 0;
#X connect 17 0 16 0;
#X restore 385 609 pd samphold;
#X obj 230 325 t b f;
#X msg 227 355 1;
#X obj 227 379 /;
#X obj 226 403 * 1000;
#X text 161 754 output 1 minus osc;
#X obj 70 330 * 23;
#X text 275 -12 mul;
#X obj 73 242 / 127;
#X obj 75 363 + 0.05;
#X obj 73 268 0_to_1_log 300;
#X text 81 292 from 0.05Hz to 23Hz;
#X obj 781 426 / 127;
#X msg 945 477 1;
#X msg 1011 488 0.1;
#X msg 248 79 0;
#X text 863 67 The depth can be scaled with the radio selector: 0 means from 0 to 1 \, 1 means from 0 to 0.5 \, 2 means from 0 to 0.1.;
#X text 863 27 This is an LFO that outputs 1 when depth slider is at minimum and moves from 1 to 0 when the depth slider is at max.;
#X text 390 -12 ext_bang;
#X text 448 -13 ext_rst;
#X obj 474 48 s ext_rst_\$0;
#X obj 581 201 internal_sync;
#X obj 559 288 change;
#X obj 538 322 t b f;
#X msg 538 345 1000;
#X obj 538 368 /;
#X floatatom 512 396 5 0 0 0 - - - 0;
#X obj 644 303 bng 18 250 50 0 empty empty empty 0 -9 0 10 #fcfcfc #000000 #000000;
#X obj 591 62 loadbang;
#X obj 181 146 tgl 15 0 empty empty empty 0 -9 0 10 #fcfcfc #000000 #000000 0 1;
#X obj 329 8 inlet;
#X text 329 -14 sync;
#X obj 779 711 outlet;
#X obj 257 209 s sync_\$0;
#X obj 748 678 r sync_\$0;
#X obj 688 121 r sync_\$0;
#X obj 50 495 spigot;
#X obj 147 361 r sync_\$0;
#X obj 110 437 == 0;
#X obj 120 491 spigot;
#X obj 281 501 spigot;
#X obj 349 513 spigot;
#X obj 374 467 r sync_\$0;
#X obj 484 463 t b f;
#X msg 481 493 1;
#X obj 481 517 /;
#X obj 480 541 * 1000;
#X obj 690 171 expr 127 - $f1;
#X msg 637 171 0;
#X obj 106 397 bng 18 250 50 0 empty empty empty 0 -9 0 10 #fcfcfc #000000 #000000;
#X obj 559 134 r ext_rst_\$0;
#X text 153 145 sync;
#X connect 0 0 4 0;
#X connect 0 0 5 0;
#X connect 0 0 38 0;
#X connect 0 0 3 0;
#X connect 2 0 0 0;
#X connect 3 0 15 0;
#X connect 4 0 15 0;
#X connect 5 0 15 0;
#X connect 7 0 52 0;
#X connect 8 0 56 0;
#X connect 9 0 10 0;
#X connect 10 0 15 1;
#X connect 12 0 26 0;
#X connect 15 0 40 1;
#X connect 16 0 22 0;
#X connect 17 0 23 0;
#X connect 18 0 12 0;
#X connect 22 0 1 0;
#X connect 22 0 24 0;
#X connect 22 0 91 0;
#X connect 23 0 6 0;
#X connect 23 0 25 0;
#X connect 27 0 9 0;
#X connect 28 0 27 0;
#X connect 28 1 27 1;
#X connect 29 0 30 0;
#X connect 29 0 33 0;
#X connect 30 0 57 0;
#X connect 30 1 31 0;
#X connect 30 2 58 0;
#X connect 31 0 28 0;
#X connect 32 0 29 0;
#X connect 34 0 59 0;
#X connect 34 0 37 0;
#X connect 35 0 65 0;
#X connect 37 0 12 0;
#X connect 38 0 15 0;
#X connect 39 0 64 0;
#X connect 40 0 11 0;
#X connect 41 0 40 0;
#X connect 42 0 41 0;
#X connect 43 0 42 0;
#X connect 44 0 15 0;
#X connect 45 0 46 0;
#X connect 45 1 47 1;
#X connect 46 0 47 0;
#X connect 47 0 48 0;
#X connect 48 0 83 0;
#X connect 50 0 53 0;
#X connect 52 0 54 0;
#X connect 53 0 45 0;
#X connect 53 0 80 0;
#X connect 54 0 50 0;
#X connect 56 0 27 0;
#X connect 57 0 28 0;
#X connect 58 0 28 0;
#X connect 59 0 29 0;
#X connect 59 0 73 0;
#X connect 65 0 66 0;
#X connect 65 1 71 0;
#X connect 66 0 67 0;
#X connect 67 0 68 0;
#X connect 67 1 69 1;
#X connect 68 0 69 0;
#X connect 69 0 70 0;
#X connect 70 0 2 0;
#X connect 70 0 84 0;
#X connect 70 0 87 0;
#X connect 71 0 36 0;
#X connect 72 0 92 0;
#X connect 73 0 77 0;
#X connect 74 0 73 0;
#X connect 78 0 76 0;
#X connect 79 0 65 3;
#X connect 80 0 2 0;
#X connect 81 0 82 0;
#X connect 81 0 93 0;
#X connect 82 0 80 1;
#X connect 82 0 83 1;
#X connect 83 0 44 0;
#X connect 84 0 2 0;
#X connect 85 0 44 0;
#X connect 86 0 84 1;
#X connect 86 0 85 1;
#X connect 87 0 88 0;
#X connect 87 1 89 1;
#X connect 88 0 89 0;
#X connect 89 0 90 0;
#X connect 90 0 85 0;
#X connect 91 0 65 4;
#X connect 92 0 65 3;
#X connect 93 0 53 0;
#X connect 94 0 65 1;
#X coords 0 -1 1 1 100 65 2 100 100;
