#N canvas 207 256 1516 910 12;
#X obj 650 698 soundfiler;
#X obj 352 474 until;
#X obj 351 507 i;
#X obj 387 507 + 1;
#X obj 315 674 pack 0 0;
#X obj 312 647 i;
#X obj 347 646 t b f;
#X msg 406 473 0;
#X obj 351 536 t f f;
#X obj 649 603 list append;
#X obj 679 373 t a a;
#X obj 650 647 list prepend;
#X obj 649 626 list trim;
#X obj 650 668 list trim;
#X obj 750 621 loadbang;
#X msg 745 647 read -ascii -resize;
#X msg 693 529 set \$1;
#X obj 693 502 makefilename %s%%s;
#X obj 649 559 makefilename;
#X obj 378 186 inlet;
#X obj 494 188 inlet;
#X text 370 162 preset_n;
#X text 503 165 ID;
#X obj 374 337 t b f;
#X obj 374 379 t b b;
#X obj 315 710 outlet;
#X obj 571 189 inlet;
#X text 559 166 current_path;
#X obj 369 425 array size;
#X obj 382 598 tabread;
#X obj 378 242 t f b;
#X obj 534 301 symbol \$1;
#X obj 485 331 pack 0 0 s;
#X msg 441 389 symbol \$3;
#X msg 447 493 set \$3;
#X msg 758 562 \$3;
#X obj 891 346 symbol \$2;
#X text 745 528 set /path/to/file%s;
#X msg 891 412 set \$1;
#X obj 891 380 makefilename %%s%s.txt;
#X obj 914 253 loadbang;
#X obj 649 463 makefilename %s;
#X msg 679 404 symbol /presets/\$2/\$1;
#X text 949 404 set %s.txt if no argument;
#X obj 652 729 outlet;
#X obj 779 756 print;
#X text 974 148 1st argument: table;
#X text 973 166 2nd argument: file_spec;
#X obj 816 185 inlet;
#X text 951 419 set %stest.txt if argument is test;
#X connect 0 0 44 0;
#X connect 1 0 2 0;
#X connect 2 0 3 0;
#X connect 2 0 8 0;
#X connect 3 0 2 1;
#X connect 4 0 25 0;
#X connect 5 0 4 0;
#X connect 6 0 5 0;
#X connect 6 1 4 1;
#X connect 7 0 2 1;
#X connect 8 0 29 0;
#X connect 8 1 5 1;
#X connect 9 0 12 0;
#X connect 10 0 42 0;
#X connect 10 1 35 0;
#X connect 11 0 13 0;
#X connect 12 0 11 0;
#X connect 13 0 0 0;
#X connect 13 0 45 0;
#X connect 14 0 15 0;
#X connect 15 0 11 1;
#X connect 16 0 18 0;
#X connect 17 0 16 0;
#X connect 18 0 9 0;
#X connect 19 0 30 0;
#X connect 20 0 32 1;
#X connect 23 0 24 0;
#X connect 23 1 32 0;
#X connect 24 0 28 0;
#X connect 24 1 7 0;
#X connect 26 0 17 0;
#X connect 28 0 1 0;
#X connect 29 0 6 0;
#X connect 30 0 23 0;
#X connect 30 1 31 0;
#X connect 31 0 32 2;
#X connect 32 0 10 0;
#X connect 32 0 33 0;
#X connect 32 0 34 0;
#X connect 33 0 28 1;
#X connect 34 0 29 0;
#X connect 35 0 9 1;
#X connect 36 0 39 0;
#X connect 38 0 41 0;
#X connect 39 0 38 0;
#X connect 40 0 36 0;
#X connect 41 0 18 0;
#X connect 42 0 41 0;
#X connect 48 0 39 0;
