#N canvas 344 549 1390 715 12;
#X obj 650 698 soundfiler;
#X obj 352 474 until;
#X obj 351 507 i;
#X obj 387 507 + 1;
#X obj 315 674 pack 0 0;
#X obj 312 647 i;
#X obj 347 646 t b f;
#X msg 406 473 0;
#X obj 351 536 t f f;
#X obj 649 603 list append;
#X obj 650 647 list prepend;
#X obj 649 626 list trim;
#X obj 650 668 list trim;
#X obj 750 621 loadbang;
#X msg 745 647 read -ascii -resize;
#X obj 378 186 inlet;
#X text 370 162 preset_n;
#X obj 374 337 t b f;
#X obj 374 379 t b b;
#X obj 315 710 outlet;
#X obj 369 425 array size;
#X obj 382 598 tabread;
#X obj 378 242 t f b;
#X obj 534 301 symbol \$1;
#X obj 652 729 outlet;
#X obj 779 756 print;
#X text 606 142 2nd argument: module abstraction folder;
#X obj 485 331 pack 0 s;
#X text 609 123 1st argument: table of presets;
#X obj 761 225 loadbang;
#X msg 753 393 set \$1;
#X obj 649 453 makefilename;
#X obj 679 372 t f a;
#X msg 805 560 \$2;
#X msg 447 493 set \$2;
#X msg 450 388 symbol \$2;
#X obj 779 332 file patchpath;
#X msg 781 305 symbol ../\$1;
#X obj 775 280 symbol \$2;
#X msg 1095 401 set \$1;
#X obj 1163 204 loadbang;
#X obj 1001 169 inlet;
#X text 606 161 3rd argument: file_spec;
#X obj 649 518 makefilename;
#X obj 1095 369 makefilename %%s%s.txt;
#X obj 1095 335 symbol \$3;
#X obj 753 368 makefilename %s/factory_presets/%%s;
#X connect 0 0 24 0;
#X connect 1 0 2 0;
#X connect 2 0 3 0;
#X connect 2 0 8 0;
#X connect 3 0 2 1;
#X connect 4 0 19 0;
#X connect 5 0 4 0;
#X connect 6 0 5 0;
#X connect 6 1 4 1;
#X connect 7 0 2 1;
#X connect 8 0 21 0;
#X connect 8 1 5 1;
#X connect 9 0 11 0;
#X connect 10 0 12 0;
#X connect 11 0 10 0;
#X connect 12 0 0 0;
#X connect 12 0 25 0;
#X connect 13 0 14 0;
#X connect 14 0 10 1;
#X connect 15 0 22 0;
#X connect 17 0 18 0;
#X connect 17 1 27 0;
#X connect 18 0 20 0;
#X connect 18 1 7 0;
#X connect 20 0 1 0;
#X connect 21 0 6 0;
#X connect 22 0 17 0;
#X connect 22 1 23 0;
#X connect 23 0 27 1;
#X connect 27 0 35 0;
#X connect 27 0 34 0;
#X connect 27 0 32 0;
#X connect 29 0 38 0;
#X connect 30 0 31 0;
#X connect 31 0 43 0;
#X connect 32 0 31 0;
#X connect 32 1 33 0;
#X connect 33 0 9 1;
#X connect 34 0 21 0;
#X connect 35 0 20 1;
#X connect 36 0 46 0;
#X connect 37 0 36 0;
#X connect 38 0 37 0;
#X connect 39 0 43 0;
#X connect 40 0 45 0;
#X connect 41 0 44 0;
#X connect 43 0 9 0;
#X connect 44 0 39 0;
#X connect 45 0 44 0;
#X connect 46 0 30 0;
