#N canvas 584 134 1534 805 10;
#N canvas 0 22 585 577 filter-vcf 0;
#X obj 186 106 inlet~;
#X obj 252 473 outlet~;
#X obj 34 159 *~;
#X obj 430 19 inlet;
#X obj 430 120 pack 0 50;
#X obj 430 142 line~;
#X obj 252 449 clip~ -1 1;
#X obj 252 323 *~ 2;
#X obj 337 362 *~ 2;
#X obj 252 421 *~ 0.5;
#X obj 74 438 *~ -1;
#X obj 270 299 vcf~ 1;
#X obj 304 333 vcf~ 1;
#X obj 524 236 pack 0 50;
#X obj 524 258 line;
#X obj 524 192 * 5;
#X obj 524 280 t f f;
#X obj 430 63 t f f f;
#X obj 186 269 vcf~ 1;
#X obj 391 225 pack 0 50;
#X obj 391 247 line;
#X obj 391 269 t f f;
#X obj 219 298 vcf~ 1;
#X obj 391 181 * 3;
#X obj 285 110 inlet~;
#X obj 290 243 +~ 10;
#X obj 74 469 delwrite~ \$0-feedfeed2 1;
#X obj 34 92 delread~ \$0-feedfeed2 1;
#X obj 33 128 lop~ 10000, f 12;
#X obj 430 96 * 0.99;
#X obj 391 203 + 1.5;
#X obj 524 214 + 1.5;
#X obj 186 78 block~ 64;
#X connect 0 0 11 0;
#X connect 0 0 18 0;
#X connect 2 0 18 0;
#X connect 3 0 17 0;
#X connect 4 0 5 0;
#X connect 5 0 2 1;
#X connect 6 0 1 0;
#X connect 7 0 9 0;
#X connect 7 0 10 0;
#X connect 8 0 9 0;
#X connect 8 0 26 0;
#X connect 9 0 6 0;
#X connect 10 0 26 0;
#X connect 11 1 12 0;
#X connect 12 1 8 0;
#X connect 13 0 14 0;
#X connect 14 0 16 0;
#X connect 15 0 31 0;
#X connect 16 0 11 2;
#X connect 16 1 12 2;
#X connect 17 0 29 0;
#X connect 17 1 15 0;
#X connect 17 2 23 0;
#X connect 18 1 22 0;
#X connect 19 0 20 0;
#X connect 20 0 21 0;
#X connect 21 0 18 2;
#X connect 22 1 7 0;
#X connect 23 0 30 0;
#X connect 24 0 18 1;
#X connect 24 0 22 1;
#X connect 24 0 25 0;
#X connect 25 0 11 1;
#X connect 25 0 12 1;
#X connect 27 0 28 0;
#X connect 28 0 2 0;
#X connect 29 0 4 0;
#X connect 30 0 19 0;
#X connect 31 0 13 0;
#X restore 310 399 pd filter-vcf;
#X obj 35 -48 inlet~;
#X obj 310 534 outlet~;
#X obj 423 73 r \$0-lp-filter2-cutoff-s;
#X obj 423 237 pack 0 50;
#X obj 423 259 line~;
#X obj 106 132 hsl 128 15 0 127 0 0 \$0-lp-filter2-cutoff-s \$0-lp-filter2-cutoff-r CUTOFF 133 7 0 10 #fcfcfc #000000 #000000 0 1;
#X obj 385 342 r \$0-lp-filter2-q-s;
#X obj 385 364 / 127;
#X obj 104 123 cnv 5 5 5 empty empty LP-FILTER 0 0 0 12 #fcfcfc #404040 0;
#X obj 176 123 cnv 5 5 5 empty \$0-instance-num 0 0 0 0 12 #fcfcfc #404040 0;
#X obj 309 53 *~ 0.5;
#X obj 106 147 hsl 128 15 0 127 0 0 \$0-lp-filter2-q-s \$0-lp-filter2-q-r Q 133 7 0 10 #fcfcfc #000000 #000000 0 1;
#X obj 310 497 clip~ -1 1;
#X obj 310 466 *~ 2;
#X obj 139 -49 inlet;
#X obj 191 -47 inlet;
#X obj 485 -46 inlet;
#X obj 485 -7 switch~;
#X obj 354 -47 inlet~;
#X obj 341 285 *~;
#X obj 425 -48 inlet~;
#X obj 368 243 *~;
#X text 350 -67 mod;
#X text 425 -68 env;
#X text 477 152 from 50Hz to 5000Hz;
#X obj 423 102 / 127;
#X obj 423 126 0_to_1_log 50;
#X obj 421 189 + 50;
#X obj 423 157 * 4950;
#X connect 0 0 14 0;
#X connect 1 0 11 0;
#X connect 3 0 26 0;
#X connect 4 0 5 0;
#X connect 5 0 22 0;
#X connect 7 0 8 0;
#X connect 8 0 0 2;
#X connect 11 0 0 0;
#X connect 13 0 2 0;
#X connect 14 0 13 0;
#X connect 15 0 6 0;
#X connect 16 0 12 0;
#X connect 17 0 18 0;
#X connect 19 0 20 1;
#X connect 20 0 0 1;
#X connect 21 0 22 1;
#X connect 22 0 20 0;
#X connect 26 0 27 0;
#X connect 27 0 29 0;
#X connect 28 0 4 0;
#X connect 29 0 28 0;
#X coords 0 -1 1 1 175 100 2 100 100;
