#N canvas 143 254 1390 977 12;
#X msg 998 308 0;
#X msg 1077 322 1;
#X obj 1012 395 i;
#X obj 925 500 textfile;
#X msg 939 386 clear;
#X obj 868 390 i;
#X obj 1149 318 table last_saved_preset_\$0 2;
#X obj 984 210 t b b b;
#X obj 1012 426 + 1;
#X obj 1052 426 s new_preset_n_\$0;
#X obj 104 133 bng 20 250 50 0 empty empty save 1 10 1 8 #000000 #7c7c7c #ffffff;
#X obj 398 112 r new_preset_n_\$0;
#X obj 102 105 bng 20 250 50 0 empty empty load 2 10 1 8 #000000 #7c7c7c #ffffff;
#X obj 498 76 i;
#X obj 476 76 i;
#X obj 523 76 - 1;
#X obj 551 74 + 1;
#X obj 180 107 bng 16 250 50 0 empty empty + 5 8 0 10 #000000 #7c7c7c #ffffff;
#X obj 161 107 bng 16 250 50 0 empty empty - 5 8 0 10 #000000 #7c7c7c #ffffff;
#X obj 389 76 min 60;
#X obj 128 108 nbx 2 16 1 1e+37 0 0 empty empty empty 0 -9 0 10 #000000 #ffffff #9f9f9f 0 256;
#X obj 146 136 nbx 2 16 -1e+37 1e+37 0 0 empty empty as -16 8 1 10 #000000 #ffffff #9f9f9f 0 256;
#X obj 571 615 list prepend;
#X obj 596 526 t f b;
#X obj 774 532 t f b;
#X obj 1054 396 s last_saved_preset_\$0;
#X obj 419 33 r last_saved_preset_\$0;
#X obj 982 161 bng 20 250 50 0 empty empty empty 0 -10 0 12 #fcfcfc #000000 #000000;
#X obj 1013 364 array get last_saved_preset_\$0;
#X obj 1150 224 f \$0;
#X obj 645 476 i;
#X obj 652 658 list trim;
#X obj 777 629 bng 20 250 50 0 empty empty empty 0 -10 0 12 #fcfcfc #000000 #000000;
#X obj 783 656 delay 1000;
#X msg 906 431 add \$1;
#X obj 867 331 t b b b;
#X obj 62 -97 loadbang;
#X obj 1112 187 bng 20 250 50 0 empty empty empty 0 -10 0 12 #fcfcfc #000000 #000000;
#X obj 435 76 max 1;
#X obj 354 445 bng 20 250 50 0 empty empty init 0 -10 1 12 #fcfcfc #000000 #000000;
#X obj 116 -60 r ctrl_preset-_\$0;
#X obj 139 -34 r ctrl_preset+_\$0;
#X obj 399 -50 r ctrl_save_preset_go_\$0;
#X obj 391 -79 r ctrl_load_preset_go_\$0;
#X obj 98 382 s feedbk_load_preset_n_\$0;
#X obj 114 411 s feedbk_save_preset_n_\$0;
#X obj 902 82 r reload_savings_\$0;
#X obj -88 152 r feedbk_current_song_\$0;
#X obj 108 197 nbx 2 16 -1e+37 1e+37 0 0 empty empty current -2 -7 1 10 #000000 #ffffff #9f9f9f 0 256;
#X obj 103 157 bng 20 250 50 0 empty empty save\ current 24 10 1 8 #000000 #7c7c7c #7c7c7c;
#X obj 396 -1 r ctrl_save_current_go_\$0;
#X obj 698 477 i;
#X text 891 592 send out loadsave number;
#X text 726 477 current_preset;
#X text 862 -23 109: messages to interface \; 110: current song \; 111: save current song \;;
#X obj 1178 666 list prepend;
#X obj 1180 648 list trim;
#X obj 1178 687 list trim;
#X obj 1178 714 print;
#X msg 1319 622 write;
#X msg 62 -72 1;
#X obj 690 -307 s control_out_\$0;
#X obj 209 -359 s ctrl_load_preset_go_\$0;
#X obj 237 -331 s ctrl_save_preset_go_\$0;
#X obj 271 -302 s ctrl_preset-_\$0;
#X obj 301 -274 s ctrl_preset+_\$0;
#X obj 667 -463 r feedbk_load_preset_n_\$0;
#X obj 715 -429 r feedbk_save_preset_n_\$0;
#X msg 645 -427 \$1 104;
#X msg 711 -388 \$1 105;
#X obj 392 -221 s ctrl_connection_\$0;
#X obj 776 -390 r feedbk_current_song_\$0;
#X msg 779 -357 \$1 110;
#X obj 424 -192 s ctrl_current_go_\$0;
#X obj 210 -396 route 100 101 102 103 106 107 108 111;
#X text 669 -162 This object loads and saves presets. It also keeps track of the last preset saved (to avoid overwritings);
#X obj 403 522 s feedbk_current_song_\$0;
#X obj -82 -575 inlet;
#X obj 91 -465 s save_\$0;
#X obj 15 -464 s load_\$0;
#X obj -45 -465 s ID_\$0;
#X obj 183 -435 route name;
#X obj 220 -462 r osc_name_\$0;
#X obj 131 -498 s osc_name_\$0;
#X obj 509 789 r control_out_\$0;
#X obj 508 891 oscformat;
#X obj 509 813 list split 1;
#X obj 541 859 list trim;
#X obj 635 812 r osc_name_\$0;
#X obj 541 837 list prepend;
#X obj 635 857 list trim;
#X obj 635 835 list prepend set;
#X text 511 940 osc_out;
#X obj 314 907 outlet;
#X obj 508 917 outlet;
#X text 308 935 osc_out;
#X obj 1390 419 soundfiler;
#X obj 1389 324 list append;
#X obj 1388 195 t a a;
#X obj 1390 368 list prepend;
#X obj 1389 347 list trim;
#X obj 1405 393 list trim;
#X obj 1490 342 loadbang;
#X msg 1485 368 read -ascii -resize;
#X msg 1468 189 set \$1;
#X obj 1469 165 makefilename %s%%s;
#X obj 1389 280 makefilename;
#X msg 1498 283 last_saved_preset_\$1;
#X msg 1388 226 symbol /presets/last_saved_preset.txt;
#X obj 1183 621 list append;
#X msg 1264 522 set \$1;
#X obj 1265 498 makefilename %s%%s;
#X obj 1184 591 makefilename;
#X msg 1184 559 symbol /presets/last_saved_preset.txt;
#X msg 1293 594 cr;
#X obj 1184 528 t b b;
#X msg 769 593 save;
#X msg 618 574 load;
#X obj 1308 68 delay 10;
#X obj 1326 31 bng 20 250 50 0 empty empty empty 0 -10 0 12 #fcfcfc #000000 #000000;
#X obj 1520 443 print;
#X msg 676 438 0;
#X obj 644 402 t b b;
#X obj 633 345 r init;
#X obj 335 481 delay 3000;
#X obj -81 -549 route bang_bpm rst instance_id load save osc_name osc current_path, f 69;
#X obj 344 -482 s current_path_\$0;
#X obj 1277 465 r current_path_\$0;
#X obj 1416 5 r current_path_\$0;
#X msg 306 526 load_init 0;
#X connect 0 0 28 0;
#X connect 1 0 28 1;
#X connect 2 0 8 0;
#X connect 2 0 25 0;
#X connect 4 0 3 0;
#X connect 5 0 34 0;
#X connect 5 0 24 0;
#X connect 7 0 0 0;
#X connect 7 1 1 0;
#X connect 7 2 37 0;
#X connect 8 0 5 1;
#X connect 8 0 9 0;
#X connect 10 0 35 0;
#X connect 11 0 21 0;
#X connect 12 0 30 0;
#X connect 13 0 16 0;
#X connect 14 0 15 0;
#X connect 15 0 38 0;
#X connect 16 0 19 0;
#X connect 17 0 13 0;
#X connect 18 0 14 0;
#X connect 19 0 20 0;
#X connect 20 0 14 1;
#X connect 20 0 13 1;
#X connect 20 0 30 1;
#X connect 20 0 44 0;
#X connect 21 0 45 0;
#X connect 22 0 31 0;
#X connect 23 0 22 0;
#X connect 23 1 117 0;
#X connect 24 0 116 0;
#X connect 24 0 22 0;
#X connect 26 0 19 1;
#X connect 27 0 7 0;
#X connect 28 0 2 0;
#X connect 29 0 98 0;
#X connect 30 0 23 0;
#X connect 30 0 51 1;
#X connect 30 0 76 0;
#X connect 31 0 32 0;
#X connect 31 0 93 0;
#X connect 32 0 33 0;
#X connect 33 0 27 0;
#X connect 34 0 3 0;
#X connect 35 0 115 0;
#X connect 35 1 5 0;
#X connect 35 2 4 0;
#X connect 36 0 60 0;
#X connect 37 0 29 0;
#X connect 38 0 20 0;
#X connect 39 0 124 0;
#X connect 40 0 18 0;
#X connect 41 0 17 0;
#X connect 42 0 10 0;
#X connect 43 0 12 0;
#X connect 46 0 27 0;
#X connect 47 0 48 0;
#X connect 49 0 51 0;
#X connect 50 0 49 0;
#X connect 51 0 24 0;
#X connect 55 0 57 0;
#X connect 56 0 55 0;
#X connect 57 0 58 0;
#X connect 57 0 3 0;
#X connect 59 0 55 1;
#X connect 60 0 20 0;
#X connect 66 0 68 0;
#X connect 67 0 69 0;
#X connect 68 0 61 0;
#X connect 69 0 61 0;
#X connect 71 0 72 0;
#X connect 72 0 61 0;
#X connect 74 0 62 0;
#X connect 74 1 63 0;
#X connect 74 2 64 0;
#X connect 74 3 65 0;
#X connect 74 6 70 0;
#X connect 74 7 73 0;
#X connect 77 0 125 0;
#X connect 81 0 74 0;
#X connect 82 0 81 1;
#X connect 84 0 86 0;
#X connect 85 0 94 0;
#X connect 86 0 85 0;
#X connect 86 1 89 0;
#X connect 87 0 85 0;
#X connect 88 0 91 0;
#X connect 89 0 87 0;
#X connect 90 0 89 1;
#X connect 91 0 90 0;
#X connect 97 0 100 0;
#X connect 98 0 108 0;
#X connect 98 1 107 0;
#X connect 99 0 101 0;
#X connect 100 0 99 0;
#X connect 101 0 96 0;
#X connect 101 0 120 0;
#X connect 102 0 103 0;
#X connect 103 0 99 1;
#X connect 104 0 106 0;
#X connect 105 0 104 0;
#X connect 106 0 97 0;
#X connect 107 0 97 1;
#X connect 108 0 106 0;
#X connect 109 0 56 0;
#X connect 110 0 112 0;
#X connect 111 0 110 0;
#X connect 112 0 109 0;
#X connect 113 0 112 0;
#X connect 114 0 109 1;
#X connect 114 0 59 0;
#X connect 115 0 113 0;
#X connect 115 1 114 0;
#X connect 116 0 22 1;
#X connect 117 0 22 1;
#X connect 118 0 27 0;
#X connect 119 0 118 0;
#X connect 121 0 30 1;
#X connect 122 0 30 0;
#X connect 122 1 121 0;
#X connect 123 0 39 0;
#X connect 123 0 122 0;
#X connect 124 0 129 0;
#X connect 125 2 80 0;
#X connect 125 3 79 0;
#X connect 125 4 78 0;
#X connect 125 5 83 0;
#X connect 125 6 81 0;
#X connect 125 7 126 0;
#X connect 127 0 111 0;
#X connect 128 0 105 0;
#X connect 128 0 119 0;
#X connect 129 0 93 0;
#X coords 0 -1 1 1 100 120 2 100 100;
