#N canvas 173 40 1390 715 12;
#X obj 657 543 outlet;
#X obj 577 237 f \$1;
#X obj 635 127 loadbang;
#X obj 596 159 bng 20 250 50 0 empty empty empty 0 -10 0 12 #fcfcfc #000000 #000000;
#X obj 694 234 symbol \$2;
#X msg 577 263 instance_id \$1;
#X obj 694 288 list trim;
#X obj 694 263 list prepend osc_name symbol;
#X obj 226 391 r osc_in;
#X obj 221 448 list trim;
#X obj 221 423 list prepend osc;
#X obj 233 333 r to_all;
#X obj 1089 146 inlet;
#X text 1089 108 note in;
#X obj 1087 239 list trim;
#X obj 1087 214 list prepend notes;
#X obj 565 121 r init;
#X obj 247 190 symbol;
#X obj 246 251 list trim;
#X obj 283 151 r current_path;
#X obj 247 221 list prepend current_path symbol;
#X obj 221 151 r init;
#X connect 1 0 5 0;
#X connect 2 0 3 0;
#X connect 3 0 1 0;
#X connect 3 0 4 0;
#X connect 4 0 7 0;
#X connect 5 0 0 0;
#X connect 6 0 0 0;
#X connect 7 0 6 0;
#X connect 8 0 10 0;
#X connect 9 0 0 0;
#X connect 10 0 9 0;
#X connect 11 0 0 0;
#X connect 12 0 15 0;
#X connect 14 0 0 0;
#X connect 15 0 14 0;
#X connect 16 0 3 0;
#X connect 17 0 20 0;
#X connect 18 0 0 0;
#X connect 19 0 17 0;
#X connect 20 0 18 0;
#X connect 21 0 17 0;
#X coords 0 715 1 714 135 25 0;
