#N canvas 66 32 1854 977 10;
#X obj 42 318 metro 100;
#X obj 107 123 tgl 18 0 empty empty empty 0 -9 0 10 #ffffff #000000 #000000 0 1;
#X obj 134 230 expr 60000 / $f1;
#X obj 333 107 loadbang;
#X msg 333 130 120;
#X obj 42 355 i;
#X obj 70 355 + 1;
#X msg 105 318 0;
#X obj 34 458 f;
#X obj 34 433 bng 18 250 50 0 empty empty empty 0 -9 0 10 #fcfcfc #000000 #000000;
#X obj 218 502 outlet;
#X obj 34 501 outlet;
#X text 224 529 Reset;
#X obj 50 43 inlet;
#X obj 174 41 inlet;
#X obj 64 240 t f b;
#X text 33 533 bang with 16th note duration;
#X obj 69 165 delay 1;
#X obj 106 193 i;
#X obj 157 125 nbx 3 16 20 208 0 0 empty empty bpm -26 8 1 10 #000000 #ffffff #7c7c7c 0 256;
#X obj 560 504 outlet;
#X obj 123 270 / 24;
#X text 161 270 24 ppqn;
#X obj 136 318 s duration_24_\$0;
#X obj 58 434 r duration_24_\$0;
#X text 109 103 metronome;
#X msg 213 424 0;
#X text 166 477 This outputs a reset 0 when metro starts or stops;
#X connect 0 0 5 0;
#X connect 1 0 18 1;
#X connect 1 0 17 0;
#X connect 2 0 21 0;
#X connect 3 0 4 0;
#X connect 4 0 19 0;
#X connect 5 0 6 0;
#X connect 5 0 9 0;
#X connect 6 0 5 1;
#X connect 7 0 5 1;
#X connect 8 0 11 0;
#X connect 9 0 8 0;
#X connect 13 0 1 0;
#X connect 14 0 19 0;
#X connect 15 0 0 0;
#X connect 15 1 7 0;
#X connect 17 0 18 0;
#X connect 18 0 15 0;
#X connect 18 0 26 0;
#X connect 19 0 20 0;
#X connect 19 0 2 0;
#X connect 21 0 0 1;
#X connect 21 0 23 0;
#X connect 24 0 8 1;
#X connect 26 0 10 0;
#X coords 0 -1 1 1 105 50 2 100 100;
