#N canvas 52 20 1854 977 12;
#X obj 60 100 inlet;
#X obj 46 801 outlet;
#X obj 140 301 moses;
#X text 210 257 at;
#X text 187 290 gives;
#X obj 300 367 moses;
#X text 347 258 at;
#X text 324 291 gives;
#X obj 308 405 -;
#X obj 310 494 +;
#X obj 366 401 -;
#X obj 309 438 /;
#X obj 379 439 -;
#X obj 434 370 moses;
#X text 481 261 at;
#X text 458 294 gives;
#X obj 442 408 -;
#X obj 493 401 -;
#X obj 443 441 /;
#X obj 506 439 -;
#X obj 366 470 /;
#X obj 493 470 /;
#X obj 444 497 +;
#X obj 556 371 moses;
#X text 603 262 at;
#X text 580 295 gives;
#X obj 564 409 -;
#X obj 566 498 +;
#X obj 622 405 -;
#X obj 565 442 /;
#X obj 635 443 -;
#X obj 690 374 moses;
#X text 737 265 at;
#X text 714 298 gives;
#X obj 698 412 -;
#X obj 749 405 -;
#X obj 699 445 /;
#X obj 762 443 -;
#X obj 622 474 /;
#X obj 749 474 /;
#X obj 700 501 +;
#X floatatom 304 581 5 0 0 0 - - - 0;
#X obj 811 372 moses;
#X text 858 263 at;
#X text 835 296 gives;
#X obj 819 410 -;
#X obj 821 499 +;
#X obj 877 406 -;
#X obj 820 443 /;
#X obj 890 444 -;
#X obj 945 375 moses;
#X text 992 266 at;
#X text 969 299 gives;
#X obj 953 413 -;
#X obj 1004 406 -;
#X obj 954 446 /;
#X obj 1017 444 -;
#X obj 877 475 /;
#X obj 1004 475 /;
#X obj 955 502 +;
#X obj 1067 376 moses;
#X text 1114 267 at;
#X text 1091 300 gives;
#X obj 1075 414 -;
#X obj 1077 503 +;
#X obj 1133 410 -;
#X obj 1076 447 /;
#X obj 1146 448 -;
#X obj 1201 379 moses;
#X text 1248 270 at;
#X text 1225 303 gives;
#X obj 1209 417 -;
#X obj 1260 410 -;
#X obj 1210 450 /;
#X obj 1273 448 -;
#X obj 1133 479 /;
#X obj 1260 479 /;
#X obj 1211 506 +;
#X text 17 143 input 0-1;
#X obj 231 221 f \$1;
#X obj 267 221 f \$2;
#X obj 368 223 f \$3;
#X obj 404 223 f \$4;
#X obj 500 228 f \$5;
#X obj 536 228 f \$6;
#X obj 637 230 f \$7;
#X obj 672 231 f \$8;
#X obj 751 232 f \$9;
#X obj 787 232 f \$10;
#X obj 888 234 f \$11;
#X obj 929 234 f \$12;
#X obj 1020 239 f \$13;
#X obj 1061 239 f \$14;
#X obj 1136 239 f \$15;
#X obj 1180 239 f \$16;
#X obj 236 148 t b b b b b b b b b b b b b b b b, f 139;
#X msg 231 260 \$1;
#X msg 239 297 \$1;
#X msg 368 260 \$1;
#X msg 379 304 \$1;
#X msg 513 307 \$1;
#X msg 502 264 \$1;
#X msg 624 265 \$1;
#X msg 635 308 \$1;
#X msg 769 311 \$1;
#X msg 758 268 \$1;
#X msg 879 265 \$1;
#X msg 890 309 \$1;
#X msg 1013 269 \$1;
#X msg 1024 312 \$1;
#X msg 1135 270 \$1;
#X msg 1146 314 \$1;
#X msg 1269 273 \$1;
#X msg 1280 316 \$1;
#X obj 229 78 t b b b;
#X obj 330 62 loadbang;
#X text 726 -2 this object takes max 16 arguments that represents the linear scaling parameters that will be output given the input. For example \, let's say I have a 0-1 range and I want to scale it in this way: at 0 it gives 12 \, at 0.2 it gives 3 \, at 0.6 it gives 4 \, at 0.8 it gives 1 The arguments will be: 0 12 0.2 3 0.6 4 0.8 1 So \, basically \, the arguments are paris of values (at_input_x gives_output_y);
#X connect 0 0 2 0;
#X connect 2 1 5 0;
#X connect 5 0 8 0;
#X connect 5 1 13 0;
#X connect 8 0 11 0;
#X connect 9 0 41 0;
#X connect 10 0 20 0;
#X connect 11 0 9 0;
#X connect 12 0 20 1;
#X connect 13 0 16 0;
#X connect 13 1 23 0;
#X connect 16 0 18 0;
#X connect 17 0 21 0;
#X connect 18 0 22 0;
#X connect 19 0 21 1;
#X connect 20 0 11 1;
#X connect 21 0 18 1;
#X connect 22 0 41 0;
#X connect 23 0 26 0;
#X connect 23 1 31 0;
#X connect 26 0 29 0;
#X connect 27 0 41 0;
#X connect 28 0 38 0;
#X connect 29 0 27 0;
#X connect 30 0 38 1;
#X connect 31 0 34 0;
#X connect 31 1 42 0;
#X connect 34 0 36 0;
#X connect 35 0 39 0;
#X connect 36 0 40 0;
#X connect 37 0 39 1;
#X connect 38 0 29 1;
#X connect 39 0 36 1;
#X connect 40 0 41 0;
#X connect 41 0 1 0;
#X connect 42 0 45 0;
#X connect 42 1 50 0;
#X connect 45 0 48 0;
#X connect 46 0 41 0;
#X connect 47 0 57 0;
#X connect 48 0 46 0;
#X connect 49 0 57 1;
#X connect 50 0 53 0;
#X connect 50 1 60 0;
#X connect 53 0 55 0;
#X connect 54 0 58 0;
#X connect 55 0 59 0;
#X connect 56 0 58 1;
#X connect 57 0 48 1;
#X connect 58 0 55 1;
#X connect 59 0 41 0;
#X connect 60 0 63 0;
#X connect 60 1 68 0;
#X connect 63 0 66 0;
#X connect 65 0 75 0;
#X connect 66 0 64 0;
#X connect 67 0 75 1;
#X connect 68 0 71 0;
#X connect 71 0 73 0;
#X connect 72 0 76 0;
#X connect 73 0 77 0;
#X connect 74 0 76 1;
#X connect 75 0 66 1;
#X connect 76 0 73 1;
#X connect 79 0 96 0;
#X connect 80 0 97 0;
#X connect 81 0 98 0;
#X connect 82 0 99 0;
#X connect 83 0 101 0;
#X connect 84 0 100 0;
#X connect 85 0 102 0;
#X connect 86 0 103 0;
#X connect 87 0 105 0;
#X connect 88 0 104 0;
#X connect 89 0 106 0;
#X connect 90 0 107 0;
#X connect 91 0 108 0;
#X connect 92 0 109 0;
#X connect 93 0 110 0;
#X connect 94 0 111 0;
#X connect 95 0 79 0;
#X connect 95 1 80 0;
#X connect 95 2 81 0;
#X connect 95 3 82 0;
#X connect 95 4 83 0;
#X connect 95 5 84 0;
#X connect 95 6 85 0;
#X connect 95 7 86 0;
#X connect 95 8 87 0;
#X connect 95 9 88 0;
#X connect 95 10 89 0;
#X connect 95 11 90 0;
#X connect 95 12 91 0;
#X connect 95 13 92 0;
#X connect 95 14 93 0;
#X connect 95 15 94 0;
#X connect 96 0 2 1;
#X connect 96 0 8 1;
#X connect 96 0 10 1;
#X connect 97 0 9 1;
#X connect 97 0 12 1;
#X connect 98 0 5 1;
#X connect 98 0 10 0;
#X connect 98 0 17 1;
#X connect 98 0 16 1;
#X connect 99 0 12 0;
#X connect 99 0 19 1;
#X connect 99 0 22 1;
#X connect 100 0 19 0;
#X connect 100 0 27 1;
#X connect 100 0 30 1;
#X connect 101 0 13 1;
#X connect 101 0 17 0;
#X connect 101 0 26 1;
#X connect 101 0 28 1;
#X connect 102 0 23 1;
#X connect 102 0 28 0;
#X connect 102 0 35 1;
#X connect 102 0 34 1;
#X connect 103 0 30 0;
#X connect 103 0 37 1;
#X connect 103 0 40 1;
#X connect 104 0 37 0;
#X connect 104 0 46 1;
#X connect 104 0 49 1;
#X connect 105 0 31 1;
#X connect 105 0 35 0;
#X connect 105 0 47 1;
#X connect 105 0 45 1;
#X connect 106 0 42 1;
#X connect 106 0 47 0;
#X connect 106 0 54 1;
#X connect 106 0 53 1;
#X connect 107 0 49 0;
#X connect 107 0 56 1;
#X connect 107 0 59 1;
#X connect 108 0 50 1;
#X connect 108 0 54 0;
#X connect 108 0 63 1;
#X connect 108 0 65 1;
#X connect 109 0 56 0;
#X connect 109 0 64 1;
#X connect 109 0 67 1;
#X connect 110 0 60 1;
#X connect 110 0 65 0;
#X connect 110 0 72 1;
#X connect 110 0 71 1;
#X connect 111 0 67 0;
#X connect 111 0 74 1;
#X connect 111 0 77 1;
#X connect 112 0 68 1;
#X connect 112 0 72 0;
#X connect 113 0 74 0;
#X connect 114 0 95 0;
#X connect 114 1 95 0;
#X connect 114 2 95 0;
#X connect 115 0 114 0;
