#N canvas 52 20 1854 1097 12;
#X obj 60 100 inlet;
#X obj 46 801 outlet;
#X floatatom 144 220 5 0 0 0 - - - 0;
#X obj 189 366 moses;
#X text 210 257 at;
#X text 187 290 gives;
#X obj 300 367 moses;
#X text 347 258 at;
#X text 324 291 gives;
#X obj 308 405 -;
#X obj 310 494 +;
#X obj 366 401 -;
#X obj 309 438 /;
#X obj 379 439 -;
#X obj 434 370 moses;
#X text 481 261 at;
#X text 458 294 gives;
#X obj 442 408 -;
#X obj 493 401 -;
#X obj 443 441 /;
#X obj 506 439 -;
#X obj 366 470 /;
#X obj 493 470 /;
#X obj 444 497 +;
#X obj 556 371 moses;
#X text 603 262 at;
#X text 580 295 gives;
#X obj 564 409 -;
#X obj 566 498 +;
#X obj 622 405 -;
#X obj 565 442 /;
#X obj 635 443 -;
#X obj 690 374 moses;
#X text 737 265 at;
#X text 714 298 gives;
#X obj 698 412 -;
#X obj 749 405 -;
#X obj 699 445 /;
#X obj 762 443 -;
#X obj 622 474 /;
#X obj 749 474 /;
#X obj 700 501 +;
#X obj 136 26 hsl 300 20 0 1 0 0 empty empty empty -2 -10 0 12 #fcfcfc #000000 #000000 0 1;
#X floatatom 304 581 5 0 0 0 - - - 0;
#X obj 811 372 moses;
#X text 858 263 at;
#X text 835 296 gives;
#X obj 819 410 -;
#X obj 821 499 +;
#X obj 877 406 -;
#X obj 820 443 /;
#X obj 890 444 -;
#X obj 945 375 moses;
#X text 992 266 at;
#X text 969 299 gives;
#X obj 953 413 -;
#X obj 1004 406 -;
#X obj 954 446 /;
#X obj 1017 444 -;
#X obj 877 475 /;
#X obj 1004 475 /;
#X obj 955 502 +;
#X obj 1067 376 moses;
#X text 1114 267 at;
#X text 1091 300 gives;
#X obj 1075 414 -;
#X obj 1077 503 +;
#X obj 1133 410 -;
#X obj 1076 447 /;
#X obj 1146 448 -;
#X obj 1201 379 moses;
#X text 1248 270 at;
#X text 1225 303 gives;
#X obj 1209 417 -;
#X obj 1260 410 -;
#X obj 1210 450 /;
#X obj 1273 448 -;
#X obj 1133 479 /;
#X obj 1260 479 /;
#X obj 1211 506 +;
#X text 17 143 input 0-1;
#X text 698 14 this object takes max 19 arguments that represents the linear scaling parameters that will be output given the input. For example \, let's say I have a 0-1 range and I want to scale it in this way: from 0 to 0.1 it goes from 1 to 1.3 \, from 1 to 0 it goes from 1.3 to 40 \, from 70 to 127 it goes from 40 to 0.2. The arguments will be: 1 5 1.3 50 40 127 0.2. So \, basically \, the first argument is the value at 0 and after that there will be pairs of input-output values that will be linearly scaled given the previous point.;
#X text 1167 80 eg 0 -> 0.1 -> 0.3 -> 0.5 -> 0.6 -> 0.9 -> 1;
#X text 1167 94 eg 1 -> 1.3 -> 2 -> 0.3 -> 2 -> 1 -> 2;
#X obj 231 221 f \$1;
#X obj 267 221 f \$2;
#X obj 368 223 f \$3;
#X obj 404 223 f \$4;
#X obj 500 228 f \$5;
#X obj 536 228 f \$6;
#X obj 637 230 f \$7;
#X obj 672 231 f \$8;
#X obj 751 232 f \$9;
#X obj 787 232 f \$10;
#X obj 888 234 f \$11;
#X obj 929 234 f \$12;
#X obj 1020 239 f \$13;
#X obj 1061 239 f \$14;
#X obj 1136 239 f \$15;
#X obj 1180 239 f \$16;
#X obj 236 148 t b b b b b b b b b b b b b b b b, f 139;
#X msg 231 260 \$1;
#X msg 239 297 \$1;
#X msg 368 260 \$1;
#X msg 379 304 \$1;
#X msg 513 307 \$1;
#X msg 502 264 \$1;
#X msg 624 265 \$1;
#X msg 635 308 \$1;
#X msg 769 311 \$1;
#X msg 758 268 \$1;
#X msg 879 265 \$1;
#X msg 890 309 \$1;
#X msg 1013 269 \$1;
#X msg 1024 312 \$1;
#X msg 1135 270 \$1;
#X msg 1146 314 \$1;
#X msg 1269 273 \$1;
#X msg 1280 316 \$1;
#X obj 229 78 t b b b;
#X obj 330 62 loadbang;
#X connect 0 0 3 0;
#X connect 2 0 3 0;
#X connect 3 1 6 0;
#X connect 6 0 9 0;
#X connect 6 1 14 0;
#X connect 9 0 12 0;
#X connect 10 0 43 0;
#X connect 11 0 21 0;
#X connect 12 0 10 0;
#X connect 13 0 21 1;
#X connect 14 0 17 0;
#X connect 14 1 24 0;
#X connect 17 0 19 0;
#X connect 18 0 22 0;
#X connect 19 0 23 0;
#X connect 20 0 22 1;
#X connect 21 0 12 1;
#X connect 22 0 19 1;
#X connect 23 0 43 0;
#X connect 24 0 27 0;
#X connect 24 1 32 0;
#X connect 27 0 30 0;
#X connect 28 0 43 0;
#X connect 29 0 39 0;
#X connect 30 0 28 0;
#X connect 31 0 39 1;
#X connect 32 0 35 0;
#X connect 32 1 44 0;
#X connect 35 0 37 0;
#X connect 36 0 40 0;
#X connect 37 0 41 0;
#X connect 38 0 40 1;
#X connect 39 0 30 1;
#X connect 40 0 37 1;
#X connect 41 0 43 0;
#X connect 42 0 2 0;
#X connect 43 0 1 0;
#X connect 44 0 47 0;
#X connect 44 1 52 0;
#X connect 47 0 50 0;
#X connect 48 0 43 0;
#X connect 49 0 59 0;
#X connect 50 0 48 0;
#X connect 51 0 59 1;
#X connect 52 0 55 0;
#X connect 52 1 62 0;
#X connect 55 0 57 0;
#X connect 56 0 60 0;
#X connect 57 0 61 0;
#X connect 58 0 60 1;
#X connect 59 0 50 1;
#X connect 60 0 57 1;
#X connect 61 0 43 0;
#X connect 62 0 65 0;
#X connect 62 1 70 0;
#X connect 65 0 68 0;
#X connect 67 0 77 0;
#X connect 68 0 66 0;
#X connect 69 0 77 1;
#X connect 70 0 73 0;
#X connect 73 0 75 0;
#X connect 74 0 78 0;
#X connect 75 0 79 0;
#X connect 76 0 78 1;
#X connect 77 0 68 1;
#X connect 78 0 75 1;
#X connect 84 0 101 0;
#X connect 85 0 102 0;
#X connect 86 0 103 0;
#X connect 87 0 104 0;
#X connect 88 0 106 0;
#X connect 89 0 105 0;
#X connect 90 0 107 0;
#X connect 91 0 108 0;
#X connect 92 0 110 0;
#X connect 93 0 109 0;
#X connect 94 0 111 0;
#X connect 95 0 112 0;
#X connect 96 0 113 0;
#X connect 97 0 114 0;
#X connect 98 0 115 0;
#X connect 99 0 116 0;
#X connect 100 0 84 0;
#X connect 100 1 85 0;
#X connect 100 2 86 0;
#X connect 100 3 87 0;
#X connect 100 4 88 0;
#X connect 100 5 89 0;
#X connect 100 6 90 0;
#X connect 100 7 91 0;
#X connect 100 8 92 0;
#X connect 100 9 93 0;
#X connect 100 10 94 0;
#X connect 100 11 95 0;
#X connect 100 12 96 0;
#X connect 100 13 97 0;
#X connect 100 14 98 0;
#X connect 100 15 99 0;
#X connect 101 0 3 1;
#X connect 101 0 9 1;
#X connect 101 0 11 1;
#X connect 102 0 10 1;
#X connect 102 0 13 1;
#X connect 103 0 6 1;
#X connect 103 0 11 0;
#X connect 103 0 18 1;
#X connect 103 0 17 1;
#X connect 104 0 13 0;
#X connect 104 0 20 1;
#X connect 104 0 23 1;
#X connect 105 0 20 0;
#X connect 105 0 28 1;
#X connect 105 0 31 1;
#X connect 106 0 14 1;
#X connect 106 0 18 0;
#X connect 106 0 27 1;
#X connect 106 0 29 1;
#X connect 107 0 24 1;
#X connect 107 0 29 0;
#X connect 107 0 36 1;
#X connect 107 0 35 1;
#X connect 108 0 31 0;
#X connect 108 0 38 1;
#X connect 108 0 41 1;
#X connect 109 0 38 0;
#X connect 109 0 48 1;
#X connect 109 0 51 1;
#X connect 110 0 32 1;
#X connect 110 0 36 0;
#X connect 110 0 49 1;
#X connect 110 0 47 1;
#X connect 111 0 44 1;
#X connect 111 0 49 0;
#X connect 111 0 56 1;
#X connect 111 0 55 1;
#X connect 112 0 51 0;
#X connect 112 0 58 1;
#X connect 112 0 61 1;
#X connect 113 0 52 1;
#X connect 113 0 56 0;
#X connect 113 0 65 1;
#X connect 113 0 67 1;
#X connect 114 0 58 0;
#X connect 114 0 66 1;
#X connect 114 0 69 1;
#X connect 115 0 62 1;
#X connect 115 0 67 0;
#X connect 115 0 74 1;
#X connect 115 0 73 1;
#X connect 116 0 69 0;
#X connect 116 0 76 1;
#X connect 116 0 79 1;
#X connect 117 0 70 1;
#X connect 117 0 74 0;
#X connect 118 0 76 0;
#X connect 119 0 100 0;
#X connect 119 1 100 0;
#X connect 119 2 100 0;
#X connect 120 0 119 0;
