#N canvas 685 345 1079 567 12;
#X obj 254 206 spigot;
#X obj 557 140 tgl 18 0 empty empty empty 0 -9 0 10 #fcfcfc #000000 #000000 0 1;
#X text 550 107 arm;
#X obj 258 119 bng 18 250 50 0 empty empty empty 0 -9 0 10 #fcfcfc #000000 #000000;
#X obj 226 40 inlet;
#X obj 559 43 inlet;
#X obj 604 121 loadbang;
#X msg 604 146 0;
#X obj 165 568 outlet;
#X obj 353 570 outlet;
#X obj 245 404 i;
#X obj 279 403 + 1;
#X msg 271 367 0;
#X obj 290 462 sel;
#X obj 407 210 - 1;
#X obj 342 524 bng 20 250 50 0 empty empty empty 0 -10 0 12 #fcfcfc #000000 #000000;
#X msg 341 463 0;
#X obj 410 42 inlet;
#X obj 440 99 loadbang;
#X obj 167 539 bng 20 250 50 0 empty empty empty 0 -10 0 12 #fcfcfc #000000 #000000;
#X obj 243 460 sel 0;
#X text 598 307 when armed it outputs to the left outlet a bang when it receives the first bang and wait until the n-th bang that will be output on the right outlet;
#X msg 430 138 2;
#X connect 0 0 10 0;
#X connect 1 0 0 1;
#X connect 1 0 12 0;
#X connect 3 0 0 0;
#X connect 4 0 3 0;
#X connect 5 0 1 0;
#X connect 6 0 7 0;
#X connect 7 0 1 0;
#X connect 10 0 11 0;
#X connect 10 0 20 0;
#X connect 10 0 13 0;
#X connect 11 0 10 1;
#X connect 12 0 10 1;
#X connect 13 0 15 0;
#X connect 13 0 16 0;
#X connect 14 0 13 1;
#X connect 15 0 9 0;
#X connect 16 0 1 0;
#X connect 17 0 14 0;
#X connect 18 0 22 0;
#X connect 19 0 8 0;
#X connect 20 0 19 0;
#X connect 22 0 14 0;
