#N canvas 669 80 1390 977 12;
#X obj 1015 -132 until;
#X obj 1017 -33 list store;
#X obj 1123 -168 t b b l;
#X obj 1036 -95 f;
#X obj 1138 -93 + 1;
#X msg 1157 -118 0, f 2;
#X msg 1017 -58 get \$1 1;
#X obj 471 917 tabread x_automation_\$0;
#X obj 492 941 tabread y_automation_\$0;
#X obj 471 737 i;
#X obj 515 737 + 1;
#X obj 149 1392 line;
#X obj 242 1388 line;
#X obj 1578 303 s x_t_\$0;
#X obj 1579 328 s y_t_\$0;
#X obj 1575 206 s x_t_\$0;
#X obj 1575 231 s y_t_\$0;
#X obj 148 1458 outlet;
#X obj 231 1458 outlet;
#X obj 1635 177 bng 20 250 50 0 empty empty empty 0 -10 0 12 #fcfcfc #000000 #000000;
#X obj 1642 281 bng 20 250 50 0 empty empty empty 0 -10 0 12 #fcfcfc #000000 #000000;
#X obj 348 1197 pack 0 100;
#X obj 431 1198 pack 0 100;
#X obj 185 703 f;
#X obj 299 816 *;
#X obj 294 783 t b f;
#X obj 797 -99 table x_automation_\$0 16;
#X obj 797 -74 table y_automation_\$0 16;
#X msg 2126 -60 1 0.92388 0.707114 0.382692 0 -0.382692 -0.707114 -0.92388 -1 -0.92388 -0.707114 -0.382692 0 0.382692 0.707114 0.92388;
#X msg 2125 -101 0 0.382692 0.707114 0.92388 1 0.92388 0.707114 0.382692 0 -0.382692 -0.707114 -0.92388 -1 -0.92388 -0.707114 -0.382692, f 61;
#X obj 471 885 % 16;
#X obj 2054 -84 s x_t_\$0;
#X obj 2054 -59 s y_t_\$0;
#X msg 1612 -93 1 0.92388 0.707114 0.382692 0 -0.382692 -0.707114 -0.92388 -1 -0.92388 -0.707114 -0.382692 0 0.382692 0.707114 0.92388;
#X msg 1613 -53 0 0.382692 0.707114 0.92388 1 0.92388 0.707114 0.382692 0 -0.382692 -0.707114 -0.92388 -1 -0.92388 -0.707114 -0.382692, f 61;
#X obj 1546 -81 s x_t_\$0;
#X obj 1546 -56 s y_t_\$0;
#X obj 1574 117 s x_t_\$0;
#X obj 1574 142 s y_t_\$0;
#X obj 1634 88 bng 20 250 50 0 empty empty empty 0 -10 0 12 #fcfcfc #000000 #000000;
#X obj 1581 -129 bng 20 250 50 0 empty empty empty 0 -10 0 12 #fcfcfc #000000 #000000;
#X obj 2086 -145 bng 20 250 50 0 empty empty empty 0 -10 0 12 #fcfcfc #000000 #000000;
#X obj 209 978 bng 20 250 50 0 empty empty empty 0 -10 0 12 #fcfcfc #000000 #000000;
#X obj 492 1006 *;
#X obj 453 1006 *;
#X obj 218 906 -;
#X obj 228 873 t b f;
#X obj 348 1076 f;
#X obj 430 1078 f;
#X obj 209 1007 delay 500;
#X obj 185 666 * 1;
#X msg 1627 610 0 0 0 0 0 0 0 0 0 0 0 0 0 0 0 0;
#X text 21 597 select 4x speed for circle;
#X obj 1554 610 s x_t_\$0;
#X obj 1555 635 s y_t_\$0;
#X msg 2018 649 0 0 0 0 0 0 0 0 0 0 0 0 0 0 0 0;
#X msg 2018 620 -1 1 -1 1 -1 1 -1 1 -1 1 -1 1 -1 1 -1 1;
#X obj 1935 621 s x_t_\$0;
#X obj 1936 646 s y_t_\$0;
#X obj 1994 586 bng 20 250 50 0 empty empty empty 0 -10 0 12 #fcfcfc #000000 #000000;
#X obj 1613 586 bng 20 250 50 0 empty empty empty 0 -10 0 12 #fcfcfc #000000 #000000;
#X obj 287 855 s transition_\$0;
#X obj 498 1151 r transition_\$0;
#X obj 996 2 f;
#X obj 1054 3 t b f;
#X obj 1228 -133 until;
#X obj 1230 -34 list store;
#X obj 1336 -169 t b b l;
#X obj 1249 -96 f;
#X obj 1351 -94 + 1;
#X msg 1370 -119 0, f 2;
#X msg 1230 -59 get \$1 1;
#X obj 1183 36 tabwrite y_automation_\$0, f 26;
#X obj 1336 -194 r y_t_\$0;
#X obj 1209 1 f;
#X obj 1267 2 t b f;
#X obj 1123 -193 r x_t_\$0;
#X obj 970 37 tabwrite x_automation_\$0, f 26;
#X msg 1655 118 -1 -1 1 1 -1 -1 1 1 -1 -1 1 1 -1 -1 1 1;
#X msg 1654 147 1 -1 1 -1 1 -1 1 -1 1 -1 1 -1 1 -1 1 -1;
#X obj 432 1134 + 0.5;
#X obj 348 1131 + 0.5;
#X obj 431 1106 * 0.5;
#X obj 348 1105 * 0.5;
#X obj 364 576 r bang_\$0;
#X obj 514 972 r spread_\$0;
#X obj 120 625 r rate_\$0;
#X obj 258 747 r transition_amount_\$0;
#X obj 1972 216 s x_t_\$0;
#X obj 1972 241 s y_t_\$0;
#X obj 2032 187 bng 20 250 50 0 empty empty empty 0 -10 0 12 #fcfcfc #000000 #000000;
#X obj 1948 121 s x_t_\$0;
#X obj 1948 146 s y_t_\$0;
#X obj 2008 92 bng 20 250 50 0 empty empty empty 0 -10 0 12 #fcfcfc #000000 #000000;
#X msg 2028 151 1 -1 1 -1 1 -1 1 -1 1 -1 1 -1 1 -1 1 -1;
#X msg 2029 122 -1 1 1 -1 -1 1 1 -1 -1 1 1 -1 -1 1 1 -1;
#X obj 1939 315 s x_t_\$0;
#X obj 1940 340 s y_t_\$0;
#X obj 2003 293 bng 20 250 50 0 empty empty empty 0 -10 0 12 #fcfcfc #000000 #000000;
#X obj -80 320 s rate_\$0;
#X obj -102 344 s bang_\$0;
#X obj 846 90 r selection_\$0;
#X msg 1659 210 -1 1 -1 1 -1 1 -1 1 -1 1 -1 1 -1 1 -1 1;
#X msg 1660 243 1 1 -1 -1 1 1 -1 -1 1 1 -1 -1 1 1 -1 -1;
#X obj 555 111 / 127;
#X obj 433 222 / 127;
#X obj 506 158 loadbang;
#X msg 506 183 127;
#X obj 237 113 vradio 16 1 0 4 empty empty empty 0 -10 0 12 #bbbbbb #000000 #bbbbbb 0;
#X obj 232 -68 loadbang;
#X obj 472 222 s spread_\$0;
#X obj 594 111 s transition_amount_\$0;
#X obj 636 -67 loadbang;
#X obj 219 -109 inlet;
#X obj 319 -109 inlet;
#X obj 367 -109 inlet;
#X obj 267 -109 inlet;
#X obj 117 -109 inlet;
#X obj 268 111 bng 20 250 50 0 empty empty - 7 10 1 12 #000000 #7c7c7c #ffffff;
#X obj 290 111 bng 20 250 50 0 empty empty + 8 11 1 12 #000000 #7c7c7c #ffffff;
#X obj 461 56 s selection_\$0;
#X obj 274 135 hsl 120 20 0 127 0 0 empty empty transition\ time 6 12 1 12 #000000 #ffffff #dfdfdf 0 1;
#X obj 273 157 hsl 120 20 0 127 0 0 empty empty spatial\ spread 6 12 1 12 #000000 #ffffff #dfdfdf 0 1;
#X obj 71 -109 inlet;
#X text 73 -131 sync;
#X text 122 -131 div;
#X text 219 -131 phase;
#X text 268 -131 shape;
#X text 321 -131 trans;
#X text 364 -131 spread;
#X msg 1627 635 1 -1 1 -1 1 -1 1 -1 1 -1 1 -1 1 -1 1;
#X obj 1517 824 s x_t_\$0;
#X obj 1518 849 s y_t_\$0;
#X msg 2047 722 -1 1 -1 1 -1 1 -1 1 -1 1 -1 1 -1 1 -1 1;
#X obj 1964 723 s x_t_\$0;
#X obj 1965 748 s y_t_\$0;
#X obj 2023 688 bng 20 250 50 0 empty empty empty 0 -10 0 12 #fcfcfc #000000 #000000;
#X obj 1576 800 bng 20 250 50 0 empty empty empty 0 -10 0 12 #fcfcfc #000000 #000000;
#X msg 1590 849 1 -1 1 -1 1 -1 1 -1 1 -1 1 -1 1 -1 1;
#X msg 1617 720 -1 1 -1 1 -1 1 -1 1 -1 1 -1 1 -1 1 -1 1;
#X obj 1534 721 s x_t_\$0;
#X obj 1535 746 s y_t_\$0;
#X obj 1593 686 bng 20 250 50 0 empty empty empty 0 -10 0 12 #fcfcfc #000000 #000000;
#X msg 2047 751 1 1 1 1 1 1 1 1 1 1 1 1 1 1 1 1 1 1 1 1;
#X msg 1617 749 -1 -1 -1 -1 -1 -1 -1 -1 -1 -1 -1 -1 -1 -1 -1 -1;
#X obj 1962 819 s x_t_\$0;
#X obj 1963 844 s y_t_\$0;
#X obj 2021 795 bng 20 250 50 0 empty empty empty 0 -10 0 12 #fcfcfc #000000 #000000;
#X msg 2035 844 1 -1 1 -1 1 -1 1 -1 1 -1 1 -1 1 -1 1;
#X msg 1590 824 -1 -1 -1 -1 -1 -1 -1 -1 -1 -1 -1 -1 -1 -1 -1 -1;
#X msg 2035 819 1 1 1 1 1 1 1 1 1 1 1 1 1 1 1 1;
#X obj 1522 933 s x_t_\$0;
#X obj 1523 958 s y_t_\$0;
#X obj 1581 909 bng 20 250 50 0 empty empty empty 0 -10 0 12 #fcfcfc #000000 #000000;
#X msg 1595 958 1 -1 1 -1 1 -1 1 -1 1 -1 1 -1 1 -1 1 -1;
#X msg 1595 933 1 -1 1 -1 1 -1 1 -1 1 -1 1 -1 1 -1 1 -1;
#X obj 1915 930 s x_t_\$0;
#X obj 1916 955 s y_t_\$0;
#X obj 1974 906 bng 20 250 50 0 empty empty empty 0 -10 0 12 #fcfcfc #000000 #000000;
#X obj 471 857 +;
#X text 475 -268 simple_automation creates an automation for the spatialization based on some predetermined shapes. It receives a signal and some controls and puts out th x y coordinates to indicate where the signal must be positioned. It can be synced or use an internal metronome.;
#X text 469 -151 OUTLETS: x y;
#X obj 1267 1014 s shape_name_\$0;
#X obj 601 176 r shape_name_\$0;
#X obj 106 107 internal_sync;
#X obj -104 318 bng 20 250 50 0 empty empty empty 0 -10 0 12 #fcfcfc #000000 #000000;
#X obj 167 -109 inlet;
#X obj 22 -109 inlet;
#X text 25 -131 rst;
#X text 169 -131 bpm;
#X text 473 -187 INLETS: sync rst bpm division ext_metro ext_rst phase shape transition spread;
#X obj -92 -109 inlet;
#X obj -27 -109 inlet;
#X text -37 -131 ext_rst;
#X text -110 -131 ext_metro;
#X obj 35 266 s reset_\$0;
#X obj 547 669 r reset_\$0;
#X obj 615 797 r set_phase_\$0;
#X obj 240 394 s set_phase_\$0;
#X msg 65 236 0;
#X obj 255 109 cnv 10 10 20 empty text_canvas 1 2 12 1 12 #ffffff #404040 0;
#X obj 255 142 cnv 10 10 20 empty text_canvas 3 2 12 1 12 #ffffff #404040 0;
#X obj 255 126 cnv 10 10 20 empty text_canvas 2 2 12 1 12 #ffffff #404040 0;
#X obj 255 159 cnv 10 10 20 empty text_canvas 4 2 12 1 12 #ffffff #404040 0;
#X msg 236 -47 0;
#X obj 562 1457 outlet;
#X obj 618 1458 outlet;
#X obj 677 1458 outlet;
#X obj 222 364 s out_phase_\$0;
#X obj 526 87 s out_transition_\$0;
#X obj 432 243 s out_spread_\$0;
#X obj 843 198 s out_shape_\$0;
#X obj 496 1382 r out_shape_\$0;
#X obj 550 1410 r out_transition_\$0;
#X obj 701 1401 r out_spread_\$0;
#X obj 471 1357 r out_phase_\$0;
#X obj 505 1458 outlet;
#X obj 112 360 s out_sync_\$0;
#X obj 138 328 s out_div_\$0;
#X obj 156 297 s out_bpm_\$0;
#X obj 323 1458 outlet;
#X obj 380 1458 outlet;
#X obj 446 1458 outlet;
#X obj 321 1367 r out_sync_\$0;
#X obj 386 1422 r out_bpm_\$0;
#X obj 336 1395 r out_div_\$0;
#X obj -202 940 r stop_\$0;
#X obj 88 415 s stop_\$0;
#X obj 90 388 sel 0;
#X floatatom 245 682 5 0 0 0 - - - 0;
#X obj 1522 1039 s x_t_\$0;
#X obj 1523 1064 s y_t_\$0;
#X obj 1581 1015 bng 20 250 50 0 empty empty empty 0 -10 0 12 #fcfcfc #000000 #000000;
#X obj 1979 1034 s x_t_\$0;
#X obj 1980 1059 s y_t_\$0;
#X obj 2038 1010 bng 20 250 50 0 empty empty empty 0 -10 0 12 #fcfcfc #000000 #000000;
#X obj 1505 1144 s x_t_\$0;
#X obj 1506 1169 s y_t_\$0;
#X obj 1564 1120 bng 20 250 50 0 empty empty empty 0 -10 0 12 #fcfcfc #000000 #000000;
#X obj 1953 1140 s x_t_\$0;
#X obj 1954 1165 s y_t_\$0;
#X obj 2012 1116 bng 20 250 50 0 empty empty empty 0 -10 0 12 #fcfcfc #000000 #000000;
#X obj 1959 1246 s x_t_\$0;
#X obj 1960 1271 s y_t_\$0;
#X obj 2018 1222 bng 20 250 50 0 empty empty empty 0 -10 0 12 #fcfcfc #000000 #000000;
#X obj 1532 1241 s x_t_\$0;
#X obj 1533 1266 s y_t_\$0;
#X obj 1591 1217 bng 20 250 50 0 empty empty empty 0 -10 0 12 #fcfcfc #000000 #000000;
#X obj 1427 1356 s x_t_\$0;
#X obj 1428 1381 s y_t_\$0;
#X obj 1486 1332 bng 20 250 50 0 empty empty empty 0 -10 0 12 #fcfcfc #000000 #000000;
#X obj 1870 1350 s x_t_\$0;
#X obj 1871 1375 s y_t_\$0;
#X obj 1929 1326 bng 20 250 50 0 empty empty empty 0 -10 0 12 #fcfcfc #000000 #000000;
#X msg 2052 1034 1 1 1 1 1 1 1 1 1 1 1 1 1 1 1 1;
#X msg 1578 1169 1 1 1 1 1 1 1 1 1 1 1 1 1 1 1 1;
#X msg 2026 1165 1 1 1 1 1 1 1 1 1 1 1 1 1 1 1 1;
#X msg 2026 1140 1 1 1 1 1 1 1 1 1 1 1 1 1 1 1 1;
#X msg 1578 1144 -1 -1 -1 -1 -1 -1 -1 -1 -1 -1 -1 -1 -1 -1 -1 -1;
#X msg 2052 1059 -1 -1 -1 -1 -1 -1 -1 -1 -1 -1 -1 -1 -1 -1 -1 -1;
#X msg 1595 1039 -1 -1 -1 -1 -1 -1 -1 -1 -1 -1 -1 -1 -1 -1 -1 -1;
#X msg 1595 1064 -1 -1 -1 -1 -1 -1 -1 -1 -1 -1 -1 -1 -1 -1 -1 -1;
#X msg 1943 1375 0 0 0 0 0 0 0 0 0 0 0 0 0 0 0 0;
#X msg 1500 1381 0 0 0 0 0 0 0 0 0 0 0 0 0 0 0 0;
#X msg 1605 1241 0 0 0 0 0 0 0 0 0 0 0 0 0 0 0 0;
#X obj 1437 1476 s x_t_\$0;
#X obj 1438 1501 s y_t_\$0;
#X obj 1496 1452 bng 20 250 50 0 empty empty empty 0 -10 0 12 #fcfcfc #000000 #000000;
#X msg 1510 1501 0 0 0 0 0 0 0 0 0 0 0 0 0 0 0 0;
#X msg 1510 1476 0 0 0 0 0 0 0 0 0 0 0 0 0 0 0 0;
#X msg 2053 220 -1 1 -1 1 -1 1 -1 1 -1 1 -1 1 -1 1 -1 1;
#X msg 2057 254 1 -1 -1 1 1 -1 -1 1 1 -1 -1 1 1 -1 -1 1;
#X text 157 1486 x, f 2;
#X text 246 1486 y, f 2;
#X text 319 1486 sync;
#X text 386 1486 div;
#X text 443 1486 bpm;
#X text 559 1486 shape;
#X text 615 1486 trans;
#X text 674 1486 spread;
#X text 509 1486 phase;
#X obj 653 -36 delay 100;
#X obj 1565 37 s x_t_\$0;
#X obj 1564 60 s y_t_\$0;
#X obj 1628 1 bng 20 250 50 0 empty empty empty 0 -10 0 12 #fcfcfc #000000 #000000;
#X obj 1901 37 s x_t_\$0;
#X obj 1900 60 s y_t_\$0;
#X obj 1964 1 bng 20 250 50 0 empty empty empty 0 -10 0 12 #fcfcfc #000000 #000000;
#X msg 1633 36 -1 0 1 0 -1 0 1 0 -1 0 1 0 -1 0 1 0;
#X msg 1634 59 0 -1 0 1 0 -1 0 1 0 -1 0 1 0 -1 0 1;
#X msg 1978 62 0 1 0 -1 0 1 0 -1 0 1 0 -1 0 1 0 -1;
#X msg 1981 37 -1 0 1 0 -1 0 1 0 -1 0 1 0 -1 0 1 0;
#X obj 202 -6 r selection_\$0;
#X obj 198 20 bng 20 250 50 0 empty empty empty 0 -10 0 12 #fcfcfc #000000 #000000;
#X obj 197 43 delay 1;
#X msg 1408 658 fr_rl;
#X msg 1406 685 fl_rr;
#X msg 1988 930 -1 1 -1 1 -1 1 -1 1 -1 1 -1 1 -1 1 -1 1;
#X msg 1988 955 1 -1 1 -1 1 -1 1 -1 1 -1 1 -1 1 -1 1 -1;
#X msg 1403 580 front_l/r;
#X obj 739 1459 outlet;
#X text 736 1487 shape_name;
#X obj 818 1401 r shape_name_\$0;
#X obj 467 -108 inlet;
#X obj 418 -110 inlet;
#X text 415 -129 shape-;
#X text 464 -128 shape+;
#X obj 452 -80 bng 20 250 50 0 empty empty empty 0 -10 0 12 #fcfcfc #000000 #000000;
#X obj 401 -80 bng 20 250 50 0 empty empty empty 0 -10 0 12 #fcfcfc #000000 #000000;
#X obj 211 157 bng 20 250 50 0 empty empty go 3 10 1 12 #fcfcfc #000000 #000000;
#X obj 586 -107 inlet;
#X text 582 -130 trig_go;
#X obj 211 128 tgl 20 0 empty empty trig 0 -10 1 12 #fcfcfc #000000 #000000 0 1;
#X obj 208 229 s trig_on_off_\$0;
#X obj 223 201 s trig_go_\$0;
#X obj 528 -109 inlet;
#X text 509 -131 trig_onoff;
#X obj 936 1404 r trig_on_off_\$0;
#X obj 827 1461 outlet;
#X text 824 1489 trig_onoff;
#X obj 471 661 spigot;
#X obj 510 604 r trig_on_off_\$0;
#X obj 405 661 spigot;
#X obj 432 634 == 0;
#X obj 496 319 r trig_go_\$0;
#X obj 556 502 delay;
#X obj 588 456 r rate_\$0;
#X obj 511 541 spigot;
#X msg 547 456 1;
#X obj 613 564 sel 3;
#X obj 591 529 i;
#X obj 620 529 + 1;
#X obj 511 419 t b b b;
#X msg 609 502 0;
#X obj 660 563 bng 20 250 50 0 empty empty empty 0 -10 0 12 #fcfcfc #000000 #000000;
#X msg 577 564 0;
#X obj 511 381 spigot;
#X obj 617 345 r trig_on_off_\$0;
#X obj 585 381 f;
#X msg 550 350 0;
#X obj 668 456 bng 20 250 50 0 empty empty empty 0 -10 0 12 #fcfcfc #000000 #000000;
#X obj 188 267 s out_divname_\$0;
#X obj 1058 1403 r out_divname_\$0;
#X obj 919 1464 outlet;
#X text 911 1489 divname;
#X obj -348 1079 tabread x_automation_\$0;
#X obj -166 1077 tabread y_automation_\$0;
#X obj -175 1039 f;
#X obj -105 933 r set_phase_\$0;
#X msg -319 1230 \$1 100;
#X msg -81 1232 \$1 100;
#X obj -82 1150 *;
#X obj -320 1151 *;
#X obj -230 1150 r spread_\$0;
#X obj -94 1116 t b f;
#X obj -306 1122 t b f;
#X obj -81 1205 + 0.5;
#X obj -82 1177 * 0.5;
#X obj -319 1205 + 0.5;
#X obj -320 1177 * 0.5;
#X text 633 397 trigger;
#X text 355 547 no trigger;
#X floatatom 512 789 5 0 0 0 - - - 0;
#X floatatom 320 903 5 0 0 0 - - - 0;
#X floatatom 307 955 5 0 0 0 - - - 0;
#X obj 510 111 max 1;
#X msg 1404 967 *center;
#X obj 814 121 sel 0 1 2 3 4 5 6 7 8 9 10 11 12 13 14 15 16 17 18 19 20 21 22 23 24 25 26 27 28, f 85;
#X obj 466 6 counter_up_dn 0 0 28;
#X floatatom 489 31 5 0 0 0 - - - 0;
#X msg 1401 244 diamond;
#X msg 1401 220 diamond_(r);
#X msg 1402 297 infinite;
#X msg 1403 347 eight;
#X msg 1403 322 eight_(r);
#X msg 1402 270 infinite_(r);
#X msg 1401 456 cross;
#X msg 1400 430 cross_(r);
#X msg 1399 399 inv_cross;
#X msg 1402 374 inv_cross_(r);
#X msg 1405 941 *left;
#X msg 1405 905 *right;
#X msg 1409 873 *front;
#X msg 1407 848 *rear;
#X msg 1408 812 *front_left;
#X msg 1404 780 *front_right;
#X msg 1404 746 *rear_left;
#X msg 1404 718 *rear_right;
#X msg 1402 539 rear_l/r;
#X msg 1404 607 right_f/r;
#X msg 1405 632 left_f/r;
#X msg 1399 508 front_rear;
#X msg 1400 484 left_right;
#X msg 1403 167 circle_(r);
#X msg 1400 194 circle;
#X symbolatom 316 110 10 0 0 0 - - - 0;
#X obj 601 200 list prepend symbol;
#X obj 600 226 list trim;
#X obj 579 828 + 1;
#X floatatom 604 865 5 0 0 0 - - - 0;
#X msg 1943 1350 -1 -1 -1 -1 -1 -1 -1 -1 -1 -1 -1 -1 -1 -1 -1 -1;
#X msg 1500 1356 1 1 1 1 1 1 1 1 1 1 1 1 1 1 1 1;
#X msg 1605 1266 -1 -1 -1 -1 -1 -1 -1 -1 -1 -1 -1 -1 -1 -1 -1 -1;
#X msg 2032 1271 1 1 1 1 1 1 1 1 1 1 1 1 1 1 1 1;
#X msg 2032 1246 0 0 0 0 0 0 0 0 0 0 0 0 0 0 0 0;
#X obj 1576 435 s x_t_\$0;
#X obj 1577 460 s y_t_\$0;
#X obj 1957 446 s x_t_\$0;
#X obj 1958 471 s y_t_\$0;
#X obj 2016 411 bng 20 250 50 0 empty empty empty 0 -10 0 12 #fcfcfc #000000 #000000;
#X obj 1635 411 bng 20 250 50 0 empty empty empty 0 -10 0 12 #fcfcfc #000000 #000000;
#X msg 1649 435 0 0 1 -1 0 0 1 -1 0 0 1 -1 0 0 1 -1;
#X msg 1649 460 1 -1 0 0 1 -1 0 0 1 -1 0 0 1 -1 0 0;
#X msg 1651 339 1 -1 0 0 1 -1 0 0 1 -1 0 0 1 -1 0 0;
#X msg 1651 314 0 0 -1 1 0 0 -1 1 0 0 -1 1 0 0 -1 1;
#X obj 2065 9 s n_of_steps_\$0;
#X msg 2143 -140 16;
#X obj 2185 -141 s n_of_steps_\$0;
#X msg 2023 10 4;
#X obj 2090 92 s n_of_steps_\$0;
#X msg 2048 93 4;
#X obj 2112 193 s n_of_steps_\$0;
#X msg 2070 194 4;
#X obj 2090 293 s n_of_steps_\$0;
#X msg 2048 294 4;
#X obj 2113 402 s n_of_steps_\$0;
#X msg 2071 403 4;
#X obj 2114 577 s n_of_steps_\$0;
#X msg 2072 578 4;
#X obj 2142 682 s n_of_steps_\$0;
#X msg 2100 683 4;
#X obj 2111 781 s n_of_steps_\$0;
#X msg 2069 782 4;
#X obj 2115 894 s n_of_steps_\$0;
#X msg 2073 895 4;
#X obj 2120 999 s n_of_steps_\$0;
#X msg 2078 1000 4;
#X obj 2102 1103 s n_of_steps_\$0;
#X msg 2060 1104 4;
#X obj 2106 1213 s n_of_steps_\$0;
#X msg 2064 1214 4;
#X obj 2123 1314 s n_of_steps_\$0;
#X msg 2081 1315 4;
#X obj 1676 786 s n_of_steps_\$0;
#X msg 1634 787 4;
#X obj 1680 899 s n_of_steps_\$0;
#X msg 1638 900 4;
#X obj 1685 1004 s n_of_steps_\$0;
#X msg 1643 1005 4;
#X obj 1660 1109 s n_of_steps_\$0;
#X msg 1618 1110 4;
#X obj 1664 1219 s n_of_steps_\$0;
#X msg 1622 1220 4;
#X obj 1580 1327 s n_of_steps_\$0;
#X msg 1538 1328 4;
#X obj 1577 1446 s n_of_steps_\$0;
#X msg 1535 1447 4;
#X obj 1722 283 s n_of_steps_\$0;
#X msg 1680 284 4;
#X obj 1745 392 s n_of_steps_\$0;
#X msg 1703 393 4;
#X obj 1746 567 s n_of_steps_\$0;
#X msg 1704 568 4;
#X obj 1677 683 s n_of_steps_\$0;
#X msg 1635 684 4;
#X obj 1725 83 s n_of_steps_\$0;
#X msg 1683 84 4;
#X obj 1747 184 s n_of_steps_\$0;
#X msg 1705 185 4;
#X obj 1716 -1 s n_of_steps_\$0;
#X msg 1674 0 4;
#X msg 1636 -128 16;
#X obj 1678 -129 s n_of_steps_\$0;
#X obj 713 519 r n_of_steps_\$0;
#X obj 712 550 - 1;
#X obj -107 991 bng 20 250 50 0 empty empty empty 0 -10 0 12 #fcfcfc #000000 #000000;
#X msg 2012 326 1 -1 0 0 1 -1 0 0 1 -1 0 0 1 -1 0 0;
#X msg 2009 351 0 0 -1 1 0 0 -1 1 0 0 -1 1 0 0 -1 1;
#X msg 2040 474 0 0 -1 1 0 0 -1 1 0 0 -1 1 0 0 -1;
#X msg 2040 445 0 -1 1 0 0 -1 1 0 0 -1 1 0 0 -1 1 0;
#X connect 0 0 3 0;
#X connect 1 0 63 1;
#X connect 1 1 0 1;
#X connect 2 0 0 0;
#X connect 2 1 5 0;
#X connect 2 2 1 1;
#X connect 3 0 4 0;
#X connect 3 0 6 0;
#X connect 3 0 64 0;
#X connect 4 0 3 1;
#X connect 5 0 3 1;
#X connect 6 0 1 0;
#X connect 7 0 44 0;
#X connect 8 0 43 0;
#X connect 9 0 10 0;
#X connect 9 0 42 0;
#X connect 9 0 159 0;
#X connect 9 0 342 0;
#X connect 10 0 9 1;
#X connect 11 0 17 0;
#X connect 12 0 18 0;
#X connect 19 0 103 0;
#X connect 19 0 102 0;
#X connect 19 0 448 0;
#X connect 20 0 393 0;
#X connect 20 0 438 0;
#X connect 20 0 394 0;
#X connect 21 0 11 0;
#X connect 22 0 12 0;
#X connect 23 0 24 0;
#X connect 23 0 45 0;
#X connect 24 0 46 0;
#X connect 24 0 61 0;
#X connect 24 0 343 0;
#X connect 25 0 24 0;
#X connect 25 1 24 1;
#X connect 28 0 32 0;
#X connect 29 0 31 0;
#X connect 30 0 7 0;
#X connect 30 0 8 0;
#X connect 33 0 35 0;
#X connect 34 0 36 0;
#X connect 39 0 79 0;
#X connect 39 0 78 0;
#X connect 39 0 446 0;
#X connect 40 0 34 0;
#X connect 40 0 33 0;
#X connect 40 0 451 0;
#X connect 41 0 29 0;
#X connect 41 0 28 0;
#X connect 41 0 396 0;
#X connect 42 0 49 0;
#X connect 43 0 48 1;
#X connect 44 0 47 1;
#X connect 45 0 49 1;
#X connect 45 0 344 0;
#X connect 46 0 45 0;
#X connect 46 1 45 1;
#X connect 47 0 83 0;
#X connect 48 0 82 0;
#X connect 49 0 47 0;
#X connect 49 0 48 0;
#X connect 50 0 23 0;
#X connect 50 0 209 0;
#X connect 51 0 53 0;
#X connect 51 0 130 0;
#X connect 55 0 58 0;
#X connect 56 0 57 0;
#X connect 59 0 55 0;
#X connect 59 0 56 0;
#X connect 59 0 408 0;
#X connect 60 0 51 0;
#X connect 60 0 130 0;
#X connect 60 0 442 0;
#X connect 62 0 22 1;
#X connect 62 0 21 1;
#X connect 63 0 77 0;
#X connect 64 0 63 0;
#X connect 64 1 77 1;
#X connect 65 0 68 0;
#X connect 66 0 74 1;
#X connect 66 1 65 1;
#X connect 67 0 65 0;
#X connect 67 1 70 0;
#X connect 67 2 66 1;
#X connect 68 0 69 0;
#X connect 68 0 71 0;
#X connect 68 0 75 0;
#X connect 69 0 68 1;
#X connect 70 0 68 1;
#X connect 71 0 66 0;
#X connect 73 0 67 0;
#X connect 74 0 72 0;
#X connect 75 0 74 0;
#X connect 75 1 72 1;
#X connect 76 0 2 0;
#X connect 78 0 37 0;
#X connect 79 0 38 0;
#X connect 80 0 22 0;
#X connect 81 0 21 0;
#X connect 82 0 80 0;
#X connect 83 0 81 0;
#X connect 84 0 302 0;
#X connect 85 0 43 1;
#X connect 85 0 44 1;
#X connect 86 0 50 0;
#X connect 87 0 25 0;
#X connect 90 0 251 0;
#X connect 90 0 250 0;
#X connect 90 0 402 0;
#X connect 93 0 94 0;
#X connect 93 0 95 0;
#X connect 93 0 400 0;
#X connect 94 0 92 0;
#X connect 95 0 91 0;
#X connect 98 0 457 0;
#X connect 98 0 456 0;
#X connect 98 0 404 0;
#X connect 101 0 191 0;
#X connect 101 0 347 0;
#X connect 102 0 15 0;
#X connect 103 0 16 0;
#X connect 104 0 111 0;
#X connect 105 0 110 0;
#X connect 106 0 107 0;
#X connect 107 0 121 0;
#X connect 107 0 122 0;
#X connect 108 0 188 0;
#X connect 108 0 178 0;
#X connect 109 0 184 0;
#X connect 112 0 261 0;
#X connect 113 0 108 0;
#X connect 114 0 121 0;
#X connect 115 0 122 0;
#X connect 116 0 348 2;
#X connect 117 0 164 4;
#X connect 118 0 348 0;
#X connect 119 0 348 1;
#X connect 121 0 189 0;
#X connect 121 0 345 0;
#X connect 122 0 105 0;
#X connect 122 0 190 0;
#X connect 123 0 164 3;
#X connect 130 0 54 0;
#X connect 133 0 134 0;
#X connect 136 0 143 0;
#X connect 136 0 133 0;
#X connect 136 0 410 0;
#X connect 137 0 149 0;
#X connect 137 0 138 0;
#X connect 137 0 424 0;
#X connect 138 0 132 0;
#X connect 139 0 140 0;
#X connect 142 0 144 0;
#X connect 142 0 139 0;
#X connect 142 0 444 0;
#X connect 143 0 135 0;
#X connect 144 0 141 0;
#X connect 147 0 150 0;
#X connect 147 0 148 0;
#X connect 147 0 412 0;
#X connect 148 0 146 0;
#X connect 149 0 131 0;
#X connect 149 0 138 0;
#X connect 150 0 145 0;
#X connect 150 0 148 0;
#X connect 153 0 155 0;
#X connect 153 0 154 0;
#X connect 153 0 426 0;
#X connect 154 0 152 0;
#X connect 155 0 151 0;
#X connect 155 0 154 0;
#X connect 158 0 278 0;
#X connect 158 0 277 0;
#X connect 158 0 414 0;
#X connect 159 0 30 0;
#X connect 163 0 376 0;
#X connect 164 0 165 0;
#X connect 164 0 99 0;
#X connect 164 1 179 0;
#X connect 164 3 208 0;
#X connect 164 3 197 0;
#X connect 164 4 198 0;
#X connect 164 5 199 0;
#X connect 164 7 321 0;
#X connect 165 0 100 0;
#X connect 166 0 164 5;
#X connect 167 0 164 2;
#X connect 171 0 164 0;
#X connect 172 0 164 1;
#X connect 176 0 9 1;
#X connect 177 0 378 0;
#X connect 179 0 175 0;
#X connect 184 0 108 0;
#X connect 184 0 292 0;
#X connect 192 0 185 0;
#X connect 193 0 186 0;
#X connect 194 0 187 0;
#X connect 195 0 196 0;
#X connect 203 0 200 0;
#X connect 204 0 202 0;
#X connect 205 0 201 0;
#X connect 206 0 327 0;
#X connect 208 0 207 0;
#X connect 212 0 240 0;
#X connect 212 0 241 0;
#X connect 212 0 428 0;
#X connect 215 0 234 0;
#X connect 215 0 239 0;
#X connect 215 0 416 0;
#X connect 218 0 235 0;
#X connect 218 0 238 0;
#X connect 218 0 430 0;
#X connect 221 0 236 0;
#X connect 221 0 237 0;
#X connect 221 0 418 0;
#X connect 224 0 384 0;
#X connect 224 0 383 0;
#X connect 224 0 420 0;
#X connect 227 0 244 0;
#X connect 227 0 382 0;
#X connect 227 0 432 0;
#X connect 230 0 381 0;
#X connect 230 0 243 0;
#X connect 230 0 434 0;
#X connect 233 0 380 0;
#X connect 233 0 242 0;
#X connect 233 0 422 0;
#X connect 234 0 213 0;
#X connect 234 0 239 0;
#X connect 235 0 217 0;
#X connect 236 0 220 0;
#X connect 237 0 219 0;
#X connect 237 0 236 0;
#X connect 238 0 216 0;
#X connect 238 0 235 0;
#X connect 239 0 214 0;
#X connect 240 0 210 0;
#X connect 240 0 241 0;
#X connect 241 0 211 0;
#X connect 242 0 232 0;
#X connect 243 0 229 0;
#X connect 244 0 225 0;
#X connect 244 0 382 0;
#X connect 247 0 249 0;
#X connect 247 0 248 0;
#X connect 247 0 436 0;
#X connect 248 0 246 0;
#X connect 249 0 245 0;
#X connect 249 0 248 0;
#X connect 250 0 88 0;
#X connect 251 0 89 0;
#X connect 261 0 348 2;
#X connect 264 0 269 0;
#X connect 264 0 268 0;
#X connect 264 0 450 0;
#X connect 267 0 271 0;
#X connect 267 0 270 0;
#X connect 267 0 398 0;
#X connect 268 0 262 0;
#X connect 269 0 263 0;
#X connect 270 0 266 0;
#X connect 271 0 265 0;
#X connect 272 0 273 0;
#X connect 273 0 274 0;
#X connect 274 0 108 0;
#X connect 275 0 153 0;
#X connect 275 0 162 0;
#X connect 276 0 158 0;
#X connect 276 0 162 0;
#X connect 277 0 156 0;
#X connect 277 0 278 0;
#X connect 278 0 157 0;
#X connect 279 0 162 0;
#X connect 279 0 136 0;
#X connect 282 0 280 0;
#X connect 283 0 287 0;
#X connect 284 0 288 0;
#X connect 287 0 119 0;
#X connect 288 0 118 0;
#X connect 289 0 294 0;
#X connect 290 0 289 0;
#X connect 292 0 293 0;
#X connect 295 0 292 0;
#X connect 297 0 298 0;
#X connect 300 0 9 0;
#X connect 301 0 300 1;
#X connect 301 0 303 0;
#X connect 301 0 455 0;
#X connect 302 0 9 0;
#X connect 303 0 302 1;
#X connect 304 0 316 0;
#X connect 305 0 307 0;
#X connect 306 0 305 1;
#X connect 307 0 310 0;
#X connect 307 0 300 0;
#X connect 308 0 307 1;
#X connect 309 0 315 0;
#X connect 309 0 320 0;
#X connect 309 1 314 0;
#X connect 310 0 311 0;
#X connect 310 0 309 0;
#X connect 311 0 310 1;
#X connect 312 0 305 0;
#X connect 312 0 307 0;
#X connect 312 1 308 0;
#X connect 312 2 313 0;
#X connect 313 0 310 1;
#X connect 314 0 305 0;
#X connect 315 0 307 1;
#X connect 316 0 312 0;
#X connect 316 0 319 0;
#X connect 317 0 318 1;
#X connect 317 0 316 1;
#X connect 318 0 316 1;
#X connect 319 0 316 1;
#X connect 320 0 318 0;
#X connect 322 0 323 0;
#X connect 325 0 332 0;
#X connect 326 0 331 0;
#X connect 327 0 325 0;
#X connect 327 0 326 0;
#X connect 328 0 327 0;
#X connect 329 0 11 0;
#X connect 330 0 12 0;
#X connect 331 0 337 0;
#X connect 332 0 339 0;
#X connect 333 0 334 0;
#X connect 333 0 335 0;
#X connect 334 0 331 0;
#X connect 334 1 331 1;
#X connect 335 0 332 0;
#X connect 335 1 332 1;
#X connect 336 0 330 0;
#X connect 337 0 336 0;
#X connect 338 0 329 0;
#X connect 339 0 338 0;
#X connect 345 0 104 0;
#X connect 346 0 247 0;
#X connect 346 0 162 0;
#X connect 347 0 346 0;
#X connect 347 1 360 0;
#X connect 347 2 361 0;
#X connect 347 3 362 0;
#X connect 347 4 363 0;
#X connect 347 5 364 0;
#X connect 347 6 365 0;
#X connect 347 7 366 0;
#X connect 347 8 367 0;
#X connect 347 9 276 0;
#X connect 347 10 275 0;
#X connect 347 11 370 0;
#X connect 347 12 369 0;
#X connect 347 13 279 0;
#X connect 347 14 368 0;
#X connect 347 15 371 0;
#X connect 347 16 372 0;
#X connect 347 17 356 0;
#X connect 347 18 357 0;
#X connect 347 19 358 0;
#X connect 347 20 359 0;
#X connect 347 21 353 0;
#X connect 347 22 354 0;
#X connect 347 23 352 0;
#X connect 347 24 355 0;
#X connect 347 25 350 0;
#X connect 347 26 351 0;
#X connect 347 27 374 0;
#X connect 347 28 373 0;
#X connect 348 0 120 0;
#X connect 348 0 349 0;
#X connect 350 0 162 0;
#X connect 350 0 267 0;
#X connect 351 0 162 0;
#X connect 351 0 264 0;
#X connect 352 0 93 0;
#X connect 352 0 162 0;
#X connect 353 0 162 0;
#X connect 353 0 90 0;
#X connect 354 0 162 0;
#X connect 354 0 19 0;
#X connect 355 0 39 0;
#X connect 355 0 162 0;
#X connect 356 0 162 0;
#X connect 356 0 390 0;
#X connect 357 0 162 0;
#X connect 357 0 389 0;
#X connect 358 0 162 0;
#X connect 358 0 20 0;
#X connect 359 0 162 0;
#X connect 359 0 98 0;
#X connect 360 0 162 0;
#X connect 360 0 233 0;
#X connect 361 0 162 0;
#X connect 361 0 230 0;
#X connect 362 0 162 0;
#X connect 362 0 224 0;
#X connect 363 0 162 0;
#X connect 363 0 227 0;
#X connect 364 0 162 0;
#X connect 364 0 218 0;
#X connect 365 0 162 0;
#X connect 365 0 221 0;
#X connect 366 0 162 0;
#X connect 366 0 212 0;
#X connect 367 0 162 0;
#X connect 367 0 215 0;
#X connect 368 0 162 0;
#X connect 368 0 142 0;
#X connect 369 0 162 0;
#X connect 369 0 147 0;
#X connect 370 0 162 0;
#X connect 370 0 137 0;
#X connect 371 0 162 0;
#X connect 371 0 60 0;
#X connect 372 0 162 0;
#X connect 372 0 59 0;
#X connect 373 0 40 0;
#X connect 373 0 162 0;
#X connect 374 0 41 0;
#X connect 374 0 162 0;
#X connect 376 0 377 0;
#X connect 377 0 375 0;
#X connect 378 0 159 1;
#X connect 378 0 379 0;
#X connect 380 0 231 0;
#X connect 380 0 242 0;
#X connect 381 0 228 0;
#X connect 381 0 243 0;
#X connect 382 0 226 0;
#X connect 383 0 223 0;
#X connect 384 0 222 0;
#X connect 384 0 383 0;
#X connect 389 0 458 0;
#X connect 389 0 459 0;
#X connect 389 0 406 0;
#X connect 390 0 391 0;
#X connect 390 0 392 0;
#X connect 390 0 440 0;
#X connect 391 0 385 0;
#X connect 391 0 392 0;
#X connect 392 0 386 0;
#X connect 393 0 14 0;
#X connect 394 0 13 0;
#X connect 396 0 397 0;
#X connect 398 0 395 0;
#X connect 400 0 399 0;
#X connect 402 0 401 0;
#X connect 404 0 403 0;
#X connect 406 0 405 0;
#X connect 408 0 407 0;
#X connect 410 0 409 0;
#X connect 412 0 411 0;
#X connect 414 0 413 0;
#X connect 416 0 415 0;
#X connect 418 0 417 0;
#X connect 420 0 419 0;
#X connect 422 0 421 0;
#X connect 424 0 423 0;
#X connect 426 0 425 0;
#X connect 428 0 427 0;
#X connect 430 0 429 0;
#X connect 432 0 431 0;
#X connect 434 0 433 0;
#X connect 436 0 435 0;
#X connect 438 0 437 0;
#X connect 440 0 439 0;
#X connect 442 0 441 0;
#X connect 444 0 443 0;
#X connect 446 0 445 0;
#X connect 448 0 447 0;
#X connect 450 0 449 0;
#X connect 451 0 452 0;
#X connect 453 0 454 0;
#X connect 454 0 309 1;
#X connect 455 0 327 0;
#X connect 456 0 97 0;
#X connect 457 0 96 0;
#X connect 458 0 388 0;
#X connect 459 0 387 0;
#X coords 0 -1 1 1 300 90 2 100 100;
