#N canvas 178 550 1390 805 10;
#X obj 126 -6 osc~;
#X obj 60 -242 inlet~;
#X obj 86 120 outlet~;
#X obj 85 22 *~, f 4;
#X obj 119 -242 inlet;
#X obj 206 -191 cnv 1 1 68 empty empty empty 20 12 0 14 #dcdcdc #404040 0;
#X obj 267 -240 inlet;
#X obj 267 -217 switch~;
#X obj 205 -242 inlet;
#X obj 97 -156 * 5000;
#X obj 97 -132 pack 0 20;
#X obj 97 -108 line~;
#X obj 189 -128 osc~;
#X obj 106 -54 *~;
#X obj 151 -81 +~ 1;
#X obj 193 -181 pack 0 20;
#X obj 193 -157 line~;
#X obj 193 -205 * 500;
#X obj 60 67 *~ 0.5;
#X connect 0 0 3 1;
#X connect 1 0 18 0;
#X connect 1 0 3 0;
#X connect 3 0 18 0;
#X connect 4 0 9 0;
#X connect 6 0 7 0;
#X connect 8 0 17 0;
#X connect 9 0 10 0;
#X connect 10 0 11 0;
#X connect 11 0 13 0;
#X connect 12 0 14 0;
#X connect 13 0 0 0;
#X connect 14 0 13 1;
#X connect 15 0 16 0;
#X connect 16 0 12 0;
#X connect 17 0 15 0;
#X connect 18 0 2 0;
#X coords 0 805 1 804 200 70 0;
