#N canvas 358 58 1390 805 10;
#X obj -746 657 rngs~;
#X msg -300 660 pitch \$1;
#X msg 152 667 structure \$1;
#X msg 256 667 brightness \$1;
#X msg 359 667 damping \$1;
#X msg -16 662 position \$1;
#X msg 54 860 bypass \$1;
#X msg -85 860 easter_egg \$1;
#X msg 515 515 poly \$1;
#X msg 628 515 model \$1;
#X msg -112 660 transpose \$1;
#X msg 454 856 gen_note \$1;
#X msg 313 859 gen_exciter \$1;
#X msg 168 860 gen_strum \$1;
#X msg 569 854 chord \$1;
#X msg 722 855 fm \$1;
#X msg -233 660 trig \$1;
#X text -744 695 odd;
#X text -716 697 even;
#X obj -769 558 r rngs_params;
#X obj -297 767 s rngs_params;
#X obj 313 988 s rngs_params;
#X obj -111 424 vsl 15 128 -48 48 0 1 empty empty empty 0 -9 0 10 #fcfcfc #000000 #000000 3400 1;
#X floatatom -96 578 5 0 0 0 - - - 0;
#X floatatom -307 600 5 0 0 0 - - - 0;
#X obj -190 580 bng 15 250 50 0 empty empty empty 17 7 0 10 #fcfcfc #000000 #000000;
#X obj 166 427 vsl 15 128 0 1 0 1 empty empty empty 0 -9 0 10 #fcfcfc #000000 #000000 12059 1;
#X floatatom 178 564 5 0 0 0 - - - 0;
#X obj 243 416 vsl 15 128 0 1 0 1 empty empty empty 0 -9 0 10 #fcfcfc #000000 #000000 9725 1;
#X floatatom 267 550 5 0 0 0 - - - 0;
#X obj 400 409 vsl 15 128 0 1 0 1 empty empty empty 0 -9 0 10 #fcfcfc #000000 #000000 8800 1;
#X floatatom 398 552 5 0 0 0 - - - 0;
#X msg -196 602 1;
#X obj -51 789 tgl 15 0 empty empty empty 17 7 0 10 #fcfcfc #000000 #000000 0 1;
#X obj 73 805 tgl 15 0 empty empty empty 17 7 0 10 #fcfcfc #000000 #000000 0 1;
#X obj 194 806 tgl 15 0 empty empty empty 17 7 0 10 #fcfcfc #000000 #000000 0 1;
#X obj -153 604 tgl 15 0 empty empty empty 17 7 0 10 #fcfcfc #000000 #000000 0 1;
#X obj 351 808 tgl 15 0 empty empty empty 17 7 0 10 #fcfcfc #000000 #000000 0 1;
#X obj 457 809 tgl 15 0 empty empty empty 17 7 0 10 #fcfcfc #000000 #000000 0 1;
#X floatatom 572 793 5 0 10 0 - - - 0;
#X obj -15 425 vsl 15 128 0 1 0 1 empty empty empty 0 -9 0 10 #fcfcfc #000000 #000000 3900 1;
#X floatatom -14 579 5 0 0 0 - - - 0;
#X obj 796 689 vsl 15 128 -48 48 0 1 empty empty empty 0 -9 0 10 #fcfcfc #000000 #000000 12700 1;
#X floatatom 796 825 5 0 0 0 - - - 0;
#X obj 495 473 hradio 15 1 1 3 empty empty empty 0 -8 0 10 #fcfcfc #000000 #000000 2;
#X obj 645 482 hradio 15 1 1 5 empty empty empty 0 -8 0 10 #fcfcfc #000000 #000000 1;
#X obj 515 572 s rngs_params;
#X obj 107 -27 inlet;
#X obj 161 119 vsl 18 80 -48 48 0 0 empty empty trsp 0 -9 1 10 #000000 #ffffff #7c7c7c 0 1;
#X obj 183 119 vsl 18 80 0 1 0 0 empty empty pos 0 -9 1 10 #000000 #ffffff #7c7c7c 0 1;
#X obj 206 119 vsl 18 80 0 1 0 0 empty empty str 0 -9 1 10 #000000 #ffffff #7c7c7c 0 1;
#X obj 230 119 vsl 18 80 0 1 0 0 empty empty bri 0 -9 1 10 #000000 #ffffff #7c7c7c 0 1;
#X obj 253 120 vsl 18 80 0 1 0 0 empty empty dmp 0 -9 1 10 #000000 #ffffff #7c7c7c 0 1;
#X obj 280 126 vradio 15 1 0 5 empty empty modl 0 -9 0 10 #fcfcfc #000000 #000000 0;
#X obj 308 120 vsl 18 80 0 1 0 0 empty empty d/w 0 -9 1 10 #000000 #ffffff #7c7c7c 0 1;
#X obj 241 -29 inlet;
#X obj 281 -30 inlet;
#X obj 320 -30 inlet;
#X obj 358 -30 inlet;
#X obj 398 -31 inlet;
#X obj 440 -30 inlet;
#X obj 480 -31 inlet;
#X obj 438 1165 outlet;
#X obj 490 1166 outlet;
#X obj 534 1166 outlet;
#X obj 263 1165 outlet;
#X obj 307 1165 outlet;
#X obj 350 1165 outlet;
#X obj 394 1165 outlet;
#X text 316 -48 struct;
#X text 356 -48 bright;
#X text 402 -49 damp;
#X text 442 -46 model;
#X text 239 -47 transp;
#X text 279 -48 posit;
#X text 350 1185 struct;
#X text 397 1182 bright;
#X text 448 1182 damp;
#X text 493 1184 model;
#X text 262 1186 transp;
#X text 309 1185 posit;
#X text 543 1184 d/w;
#X text 485 -48 d/w;
#X msg 843 740 48;
#X obj 843 706 loadbang;
#X obj 234 581 pack 0 100;
#X obj 243 606 line;
#X obj 157 585 pack 0 100;
#X obj 166 610 line;
#X obj -23 606 pack 0 100;
#X obj -14 631 line;
#X obj -122 605 pack 0 100;
#X obj -75 629 line;
#X obj 371 580 pack 0 100;
#X obj 380 605 line;
#X obj -783 982 two_to_one;
#X obj 357 223 s dw_rngs_\$0;
#X obj -707 897 r dw_rngs_\$0;
#X obj -44 1170 outlet~;
#X obj -64 -31 inlet~;
#X obj 106 185 tgl 18 0 empty empty trg 0 -9 1 10 #fcfcfc #000000 #000000 0 1;
#X obj 117 247 s poly_\$0;
#X obj 146 -27 inlet;
#X obj 496 445 r poly_\$0;
#X obj 627 448 r model_\$0;
#X obj 488 1127 r model_\$0;
#X obj 536 1100 r dw_rngs_\$0;
#X obj 287 224 s model_\$0;
#X obj 289 255 s damp_\$0;
#X obj 223 275 s bright_\$0;
#X obj 193 248 s structure_\$0;
#X obj 161 227 s position_\$0;
#X obj 125 272 s transpose_\$0;
#X obj -128 396 r transpose_\$0;
#X obj -35 395 r position_\$0;
#X obj 130 402 r structure_\$0;
#X obj 233 393 r bright_\$0;
#X obj 384 382 r damp_\$0;
#X obj 131 1113 r poly_\$0;
#X obj 266 1111 r transpose_\$0;
#X obj 312 1134 r position_\$0;
#X obj 362 1104 r structure_\$0;
#X obj 396 1072 r bright_\$0;
#X obj 456 1107 r damp_\$0;
#X text 153 -46 poly;
#X obj 168 1166 outlet;
#X text 185 1187 poly;
#X obj 120 1167 outlet;
#X text 126 1188 exciter;
#X obj 21 268 s gen_exc_\$0;
#X text 100 -46 exciter;
#X obj 52 -25 inlet;
#X text 50 -43 trigger;
#X obj 197 -27 inlet;
#X obj 89 227 s pitch_\$0;
#X obj -300 461 r pitch_\$0;
#X text 198 -48 pitch;
#X obj 219 1164 outlet;
#X obj 197 1112 r pitch_\$0;
#X text 224 1187 pitch;
#X obj 356 774 r gen_exc_\$0;
#X obj 49 1113 r gen_exc_\$0;
#X obj 463 102 loadbang;
#X msg 463 125 0;
#X obj 68 19 loadbang;
#X msg 75 48 1;
#X obj -764 776 *~ 0.5;
#X msg 141 46 0;
#X obj -154 234 - 60;
#X obj -148 194 f;
#X obj 140 116 vradio 15 1 0 6 empty empty pch 0 -9 1 10 #fcfcfc #000000 #000000 0;
#X obj 105 116 vradio 18 1 0 3 empty empty poly 0 -9 1 10 #fcfcfc #000000 #000000 0;
#X text 129 114 -;
#X text 130 159 0;
#X text 124 144 +1;
#X text 124 129 +2;
#X text 124 174 -1;
#X text 124 189 -2;
#X obj -340 494 sel 0 1 2 3 4 5;
#X msg -295 550 0;
#X obj -41 112 r pitch_\$0;
#X obj -41 135 sel 0;
#X obj -24 190 spigot;
#X msg -44 163 0;
#X msg -10 162 1;
#X msg -332 520 24;
#X msg -312 535 12;
#X msg -276 543 -12;
#X msg -265 524 -24;
#X connect 0 0 146 0;
#X connect 0 1 146 0;
#X connect 1 0 20 0;
#X connect 2 0 20 0;
#X connect 3 0 20 0;
#X connect 4 0 20 0;
#X connect 5 0 20 0;
#X connect 6 0 21 0;
#X connect 7 0 21 0;
#X connect 8 0 46 0;
#X connect 9 0 46 0;
#X connect 10 0 20 0;
#X connect 11 0 21 0;
#X connect 12 0 21 0;
#X connect 13 0 21 0;
#X connect 14 0 21 0;
#X connect 15 0 21 0;
#X connect 16 0 20 0;
#X connect 19 0 0 0;
#X connect 22 0 23 0;
#X connect 22 0 91 0;
#X connect 24 0 1 0;
#X connect 25 0 32 0;
#X connect 26 0 27 0;
#X connect 26 0 87 0;
#X connect 28 0 29 0;
#X connect 28 0 85 0;
#X connect 30 0 31 0;
#X connect 30 0 93 0;
#X connect 32 0 16 0;
#X connect 33 0 7 0;
#X connect 34 0 6 0;
#X connect 35 0 13 0;
#X connect 36 0 16 0;
#X connect 37 0 12 0;
#X connect 38 0 11 0;
#X connect 39 0 14 0;
#X connect 40 0 41 0;
#X connect 40 0 89 0;
#X connect 42 0 43 0;
#X connect 42 0 15 0;
#X connect 44 0 8 0;
#X connect 45 0 9 0;
#X connect 47 0 100 0;
#X connect 48 0 112 0;
#X connect 49 0 111 0;
#X connect 50 0 110 0;
#X connect 51 0 109 0;
#X connect 52 0 108 0;
#X connect 53 0 107 0;
#X connect 54 0 96 0;
#X connect 55 0 48 0;
#X connect 56 0 49 0;
#X connect 57 0 50 0;
#X connect 58 0 51 0;
#X connect 59 0 52 0;
#X connect 60 0 53 0;
#X connect 61 0 54 0;
#X connect 83 0 15 0;
#X connect 84 0 83 0;
#X connect 85 0 86 0;
#X connect 86 0 3 0;
#X connect 87 0 88 0;
#X connect 88 0 2 0;
#X connect 89 0 90 0;
#X connect 90 0 5 0;
#X connect 91 0 92 0;
#X connect 93 0 94 0;
#X connect 94 0 4 0;
#X connect 95 0 98 0;
#X connect 97 0 95 2;
#X connect 99 0 0 0;
#X connect 99 0 95 0;
#X connect 100 0 129 0;
#X connect 102 0 151 0;
#X connect 103 0 44 0;
#X connect 104 0 45 0;
#X connect 105 0 63 0;
#X connect 106 0 64 0;
#X connect 113 0 91 0;
#X connect 113 0 10 0;
#X connect 114 0 89 0;
#X connect 115 0 87 0;
#X connect 116 0 85 0;
#X connect 117 0 93 0;
#X connect 118 0 125 0;
#X connect 119 0 65 0;
#X connect 120 0 66 0;
#X connect 121 0 67 0;
#X connect 122 0 68 0;
#X connect 123 0 62 0;
#X connect 131 0 149 0;
#X connect 133 0 150 0;
#X connect 135 0 158 0;
#X connect 138 0 137 0;
#X connect 140 0 37 0;
#X connect 141 0 127 0;
#X connect 142 0 143 0;
#X connect 143 0 54 0;
#X connect 144 0 145 0;
#X connect 144 0 147 0;
#X connect 145 0 100 0;
#X connect 146 0 95 1;
#X connect 147 0 48 0;
#X connect 147 0 150 0;
#X connect 148 0 162 0;
#X connect 148 0 25 0;
#X connect 149 0 148 0;
#X connect 150 0 134 0;
#X connect 151 0 101 0;
#X connect 158 1 165 0;
#X connect 158 2 166 0;
#X connect 158 3 159 0;
#X connect 158 4 167 0;
#X connect 158 5 168 0;
#X connect 159 0 24 0;
#X connect 160 0 161 0;
#X connect 161 0 163 0;
#X connect 161 1 164 0;
#X connect 162 0 48 0;
#X connect 163 0 162 1;
#X connect 164 0 162 1;
#X connect 165 0 24 0;
#X connect 166 0 24 0;
#X connect 167 0 24 0;
#X connect 168 0 24 0;
#X coords 0 -1 1 1 235 110 1 100 100;
