#N canvas 52 20 1854 1097 10;
#X obj 201 262 samphold~;
#X obj 180 52 inlet~;
#X obj 258 97 vsl 12 35 0 1 0 0 empty empty samp_rate -15 -9 1 10 #fcfcfc #000000 #000000 0 1;
#X obj 185 334 outlet~;
#X obj 255 50 inlet;
#X text 209 140 sample;
#X text 210 153 and hold;
#X obj 343 241 phasor~ 5000;
#X obj 447 68 inlet;
#X obj 447 91 switch~;
#X obj 347 52 inlet;
#X obj 353 128 osc~;
#X obj 282 132 * 5000;
#X obj 282 154 pack 0 10;
#X obj 282 176 line~;
#X obj 335 209 +~;
#X obj 353 151 *~ 3;
#X obj 351 97 * 30;
#X connect 0 0 3 0;
#X connect 1 0 0 0;
#X connect 2 0 12 0;
#X connect 4 0 2 0;
#X connect 7 0 0 1;
#X connect 8 0 9 0;
#X connect 10 0 17 0;
#X connect 11 0 16 0;
#X connect 12 0 13 0;
#X connect 13 0 14 0;
#X connect 14 0 15 0;
#X connect 15 0 7 0;
#X connect 16 0 15 1;
#X connect 17 0 11 0;
#X coords 0 548.5 1 547.5 200 70 0;
