#N canvas 52 20 1854 1097 10;
#X obj 201 262 samphold~;
#X obj 180 52 inlet~;
#X obj 267 118 vsl 12 35 0 1 0 0 empty empty samp_rate -15 -9 1 10 #fcfcfc #000000 #000000 0 1;
#X obj 185 334 outlet~;
#X obj 255 50 inlet;
#X text 209 140 sample;
#X text 210 153 and hold;
#X obj 343 241 phasor~ 5000;
#X obj 342 180 * 10000;
#X obj 346 50 inlet;
#X obj 346 73 switch~;
#X obj 333 218 + 50;
#X connect 0 0 3 0;
#X connect 1 0 0 0;
#X connect 2 0 8 0;
#X connect 4 0 2 0;
#X connect 7 0 0 1;
#X connect 8 0 11 0;
#X connect 9 0 10 0;
#X connect 11 0 7 0;
#X coords 0 1097 1 1096 200 70 0;
