#N canvas 101 69 928 597 12;
#N canvas 0 22 450 278 (subpatch) 0;
#X array scope 4410 float 0;
#X coords 0 1 4409 -1 200 100 1 0 0;
#X restore 120 140 graph;
#X text 98 230 -1;
#X text 104 184 0;
#X text 105 133 1;
#X obj 607 83 loadbang;
#X obj 507 338 tabwrite~ scope;
#X obj 440 80 inlet~;
#X obj 547 159 tgl 20 0 empty empty empty 0 -10 0 12 #fcfcfc #000000 #000000 0 1;
#X obj 526 304 metro 100;
#X obj 411 360 spigot;
#X floatatom 282 110 5 0 0 0 - - - 0;
#X msg 136 65 100;
#X obj 141 29 loadbang;
#X obj 323 489 print;
#X obj 317 403 snapshot~;
#X obj 256 110 tgl 20 0 empty empty empty 0 -10 0 12 #fcfcfc #000000 #000000 0 1;
#X msg 173 63 0;
#X text 212 111 print;
#X msg 593 109 1;
#X connect 4 0 18 0;
#X connect 6 0 5 0;
#X connect 6 0 14 0;
#X connect 7 0 8 0;
#X connect 8 0 5 0;
#X connect 8 0 9 0;
#X connect 9 0 14 0;
#X connect 10 0 8 1;
#X connect 10 0 18 0;
#X connect 11 0 10 0;
#X connect 12 0 11 0;
#X connect 12 0 16 0;
#X connect 14 0 13 0;
#X connect 15 0 9 1;
#X connect 16 0 15 0;
#X connect 18 0 7 0;
#X coords 0 -1 1 1 225 150 1 100 100;
