#N canvas 761 116 839 692 12;
#X obj 291 312 line~;
#X obj 302 129 inlet;
#X obj 46 378 *~;
#X obj 128 377 *~;
#X obj 45 122 inlet~;
#X obj 447 165 loadbang;
#X msg 447 190 10;
#X text 288 98 split (0-1);
#X obj 133 122 inlet~;
#X text 135 99 signal2;
#X text 47 98 signal1;
#X obj 214 252 expr 1 - $f1;
#X obj 211 314 line~;
#X text 368 327 merge ratio: \; if 0 only the first signal goes to output \; id 1 only the second goes to output \;;
#X msg 340 206 0.5;
#X obj 47 517 outlet~;
#X obj 212 288 pack 0 10;
#X obj 292 286 pack 0 10;
#X connect 0 0 3 1;
#X connect 1 0 11 0;
#X connect 1 0 17 0;
#X connect 2 0 15 0;
#X connect 3 0 15 0;
#X connect 4 0 2 0;
#X connect 5 0 6 0;
#X connect 5 0 14 0;
#X connect 6 0 16 1;
#X connect 6 0 17 1;
#X connect 8 0 3 0;
#X connect 11 0 16 0;
#X connect 12 0 2 1;
#X connect 14 0 11 0;
#X connect 14 0 17 0;
#X connect 16 0 12 0;
#X connect 17 0 0 0;
