#N canvas 525 113 1381 977 10;
#X obj -87 38 inlet~;
#X obj 41 14 inlet;
#X obj 107 121 vsl 18 80 0 1 0 0 empty empty amt 0 -9 1 10 #000000 #7c7c7c #7c7c7c 0 1;
#X obj 131 118 vradio 17 1 0 4 empty empty mode -1 -9 1 10 #fcfcfc #000000 #7c7c7c 0;
#X obj 92 14 inlet;
#N canvas 219 612 1534 805 fold_guts 0;
#X obj 277 628 outlet~;
#X obj 75 36 inlet~;
#X obj 436 46 inlet;
#X obj 489 116 switch~;
#X obj 166 46 inlet;
#X obj 343 448 wrap~;
#X obj 343 401 +~ 1;
#X obj 343 422 /~ 4;
#X obj 343 526 *~ 4;
#X obj 343 547 -~ 1;
#X text 383 411 <- Scale;
#X text 383 536 <- Normalize;
#X obj 343 469 -~ 0.5;
#X obj 343 490 abs~;
#X obj 244 317 *~;
#X text 393 448 | \; | \; | <- Triangle Waveshaper \; | \; | \;;
#X obj 239 200 pack 0 10;
#X obj 239 223 line~;
#X obj 311 358 +~;
#X obj 284 50 inlet;
#X obj 371 239 pack 0 10;
#X obj 371 262 line~;
#X obj 345 187 - 1;
#X obj 317 132 * 2;
#X obj 213 110 * 9;
#X obj 213 133 + 1;
#X connect 1 0 14 0;
#X connect 2 0 3 0;
#X connect 4 0 24 0;
#X connect 5 0 12 0;
#X connect 6 0 7 0;
#X connect 7 0 5 0;
#X connect 8 0 9 0;
#X connect 9 0 0 0;
#X connect 12 0 13 0;
#X connect 13 0 8 0;
#X connect 14 0 18 0;
#X connect 16 0 17 0;
#X connect 17 0 14 1;
#X connect 18 0 6 0;
#X connect 19 0 23 0;
#X connect 20 0 21 0;
#X connect 21 0 18 1;
#X connect 22 0 20 0;
#X connect 23 0 22 0;
#X connect 24 0 25 0;
#X connect 25 0 16 0;
#X restore 61 590 pd fold_guts;
#X obj 353 991 outlet;
#X obj 454 988 outlet;
#X obj 154 119 vsl 18 80 0 1 0 0 empty empty mix 0 -9 1 10 #000000 #7c7c7c #7c7c7c 0 1;
#X obj 236 600 ring_mod;
#X obj 404 608 sample_hold;
#X obj 101 249 s amt_\$0;
#X obj 53 415 r amt_\$0;
#X obj 312 94 loadbang;
#X text 132 135 wf;
#X text 131 151 rm;
#X text 132 167 sh;
#X obj 145 14 inlet;
#X msg 248 89 0;
#X obj 207 990 outlet;
#X obj 195 941 r amt_\$0;
#X obj 125 224 s sel_\$0;
#X obj 341 942 r sel_\$0;
#X obj 27 895 *~;
#X obj -91 900 *~;
#X obj -26 864 == 0;
#X obj -1 992 outlet~;
#X obj 164 253 s 2_par_\$0;
#X obj 83 443 r 2_par_\$0;
#X obj 212 436 r amt_\$0;
#X obj 263 474 r 2_par_\$0;
#X obj 348 427 r amt_\$0;
#X obj 492 536 r sel_\$0;
#X obj 281 536 r sel_\$0;
#X obj 130 534 r sel_\$0;
#X obj 130 557 == 1;
#X obj 281 559 == 2;
#X obj 492 559 == 3;
#X obj 444 946 r 2_par_\$0;
#X obj 456 507 r 2_par_\$0;
#X obj -36 806 r sel_\$0;
#X obj 178 119 vsl 18 80 0 1 0 0 empty empty mix 0 -9 1 10 #000000 #7c7c7c #7c7c7c 0 1;
#X obj 187 225 s mix_\$0;
#X obj 193 15 inlet;
#X obj 559 987 outlet;
#X obj 559 944 r mix_\$0;
#X obj -20 954 two_to_one;
#X obj 40 924 r mix_\$0;
#X connect 0 0 5 0;
#X connect 0 0 9 0;
#X connect 0 0 10 0;
#X connect 0 0 24 0;
#X connect 1 0 2 0;
#X connect 2 0 11 0;
#X connect 3 0 21 0;
#X connect 4 0 3 0;
#X connect 5 0 23 0;
#X connect 8 0 27 0;
#X connect 9 0 23 0;
#X connect 10 0 23 0;
#X connect 12 0 5 1;
#X connect 13 0 18 0;
#X connect 17 0 8 0;
#X connect 18 0 3 0;
#X connect 20 0 19 0;
#X connect 22 0 6 0;
#X connect 23 0 46 1;
#X connect 24 0 46 0;
#X connect 25 0 24 1;
#X connect 28 0 5 2;
#X connect 29 0 9 1;
#X connect 30 0 9 2;
#X connect 31 0 10 1;
#X connect 32 0 37 0;
#X connect 33 0 36 0;
#X connect 34 0 35 0;
#X connect 35 0 5 3;
#X connect 36 0 9 3;
#X connect 37 0 10 3;
#X connect 38 0 7 0;
#X connect 39 0 10 2;
#X connect 40 0 25 0;
#X connect 40 0 23 1;
#X connect 41 0 42 0;
#X connect 43 0 41 0;
#X connect 45 0 44 0;
#X connect 46 0 26 0;
#X connect 47 0 46 2;
#X coords 0 -1 1 1 100 110 2 100 100;
