#N canvas 352 69 1380 1004 10;
#X obj -87 38 inlet~;
#X obj 163 13 inlet;
#X obj 107 121 vsl 18 80 0 1 0 0 empty empty amt 0 -9 1 10 #000000 #7c7c7c #7c7c7c 0 1;
#X obj 131 118 vradio 17 1 0 4 empty empty stgs -1 -9 1 10 #fcfcfc #000000 #7c7c7c 0;
#X obj 244 16 inlet;
#N canvas 214 176 1534 805 fold_guts 0;
#X obj 311 262 *~;
#X obj 311 284 cos~;
#X obj 57 388 line~;
#X obj 57 366 pack 0 50;
#X obj 438 925 outlet~;
#X obj 75 36 inlet~;
#X obj 273 28 inlet;
#X obj 326 98 switch~;
#X obj 134 27 inlet;
#X obj 367 777 *~;
#X obj 562 539 pack 0 10;
#X obj 592 576 line~;
#X obj 110 283 + 0.1;
#X obj 107 310 * 13;
#X obj 210 464 * 2;
#X obj 176 500 expr 3 - $f1;
#X obj 448 889 clip~ -1 1;
#X obj 145 160 * 2;
#X obj 517 494 * 0.1;
#X connect 0 0 1 0;
#X connect 1 0 9 0;
#X connect 2 0 0 1;
#X connect 3 0 2 0;
#X connect 5 0 0 0;
#X connect 6 0 7 0;
#X connect 8 0 17 0;
#X connect 9 0 16 0;
#X connect 10 0 11 0;
#X connect 11 0 9 1;
#X connect 12 0 13 0;
#X connect 13 0 3 0;
#X connect 14 0 15 0;
#X connect 15 0 18 0;
#X connect 16 0 4 0;
#X connect 17 0 12 0;
#X connect 17 0 14 0;
#X connect 18 0 10 0;
#X restore 74 635 pd fold_guts;
#X obj 353 991 outlet;
#X obj 454 988 outlet;
#X obj 157 119 vsl 18 80 0 1 0 0 empty empty mix 0 -9 1 10 #000000 #7c7c7c #7c7c7c 0 1;
#X obj 244 636 ring_mod;
#X obj 381 636 sample_hold;
#X obj 290 398 sel 0 1 2 3;
#X obj 121 328 s amt_\$0;
#X obj 94 560 r amt_\$0;
#X obj 242 552 r amt_\$0;
#X obj 399 562 r amt_\$0;
#X obj 312 94 loadbang;
#X obj 303 357 t f b;
#X msg 394 386 0;
#X msg 143 595 1;
#X msg 281 596 1;
#X msg 427 597 1;
#X text 132 135 wf;
#X text 131 151 rm;
#X text 132 167 sh;
#X obj 308 14 inlet;
#X msg 248 89 0;
#X obj 213 240 s mix_\$0;
#X obj 444 946 r mix_\$0;
#X obj 207 990 outlet;
#X obj 195 941 r amt_\$0;
#X obj 147 231 s sel_\$0;
#X obj 295 325 r sel_\$0;
#X obj 341 942 r sel_\$0;
#X obj 56 834 two_to_one;
#X obj 150 800 r mix_\$0;
#X obj 27 895 *~;
#X obj -91 900 *~;
#X obj 451 461 s on_off_\$0;
#X obj 444 424 > 0;
#X obj -36 806 r on_off_\$0;
#X obj -26 864 == 0;
#X obj -1 992 outlet~;
#X connect 0 0 5 0;
#X connect 0 0 9 0;
#X connect 0 0 10 0;
#X connect 0 0 34 0;
#X connect 0 0 37 0;
#X connect 1 0 2 0;
#X connect 2 0 12 0;
#X connect 3 0 31 0;
#X connect 4 0 3 0;
#X connect 5 0 34 1;
#X connect 8 0 27 0;
#X connect 9 0 34 1;
#X connect 10 0 34 1;
#X connect 11 1 19 0;
#X connect 11 2 20 0;
#X connect 11 3 21 0;
#X connect 13 0 5 1;
#X connect 14 0 9 1;
#X connect 15 0 10 1;
#X connect 16 0 26 0;
#X connect 17 0 11 0;
#X connect 17 0 39 0;
#X connect 17 1 18 0;
#X connect 18 0 10 2;
#X connect 18 0 9 2;
#X connect 18 0 5 2;
#X connect 19 0 5 2;
#X connect 20 0 9 2;
#X connect 21 0 10 2;
#X connect 25 0 8 0;
#X connect 26 0 3 0;
#X connect 28 0 7 0;
#X connect 30 0 29 0;
#X connect 32 0 17 0;
#X connect 33 0 6 0;
#X connect 34 0 36 0;
#X connect 35 0 34 2;
#X connect 36 0 42 0;
#X connect 37 0 42 0;
#X connect 39 0 38 0;
#X connect 40 0 41 0;
#X connect 40 0 36 1;
#X connect 41 0 37 1;
#X coords 0 -1 1 1 80 110 2 100 100;
