#N canvas 523 108 1397 869 12;
#X obj 8 681 dac~ 1 2 3 4;
#X obj 47 314 brds_synth;
#X obj 1211 73 loadbang;
#X msg 1210 95 \; pd dsp 1;
#X obj 1261 663 stdout;
#X obj 45 10 r sub1;
#X connect 1 0 0 0;
#X connect 1 1 0 1;
#X connect 1 2 0 2;
#X connect 1 3 0 3;
#X connect 1 4 4 0;
#X connect 2 0 3 0;
#X connect 5 0 1 0;
#X coords 0 869 1 868 1015 155 0;
