#N canvas 523 120 1397 869 12;
#X obj 8 681 dac~ 1 2 3 4;
#X obj 47 314 brds_synth;
#X obj 1211 73 loadbang;
#X msg 1210 95 \; pd dsp 1;
#X obj 1261 663 stdout;
#X obj 45 10 r sub1;
#X obj 225 140 metro 2000;
#X msg 133 165 60 100;
#X msg 225 215 60 0;
#X obj 232 76 tgl 20 0 empty empty empty 0 -10 0 12 #fcfcfc #000000 #000000 0 1;
#X obj 147 249 list prepend notes;
#X obj 147 274 list trim;
#X obj 225 190 delay 1000;
#X obj 217 165 bng 20 250 50 0 empty empty empty 0 -10 0 12 #fcfcfc #000000 #000000;
#X connect 1 0 0 0;
#X connect 1 1 0 1;
#X connect 1 2 0 2;
#X connect 1 3 0 3;
#X connect 1 4 4 0;
#X connect 2 0 3 0;
#X connect 5 0 1 0;
#X connect 6 0 7 0;
#X connect 7 0 10 0;
#X connect 7 0 13 0;
#X connect 8 0 10 0;
#X connect 9 0 6 0;
#X connect 10 0 11 0;
#X connect 11 0 1 0;
#X connect 12 0 8 0;
#X connect 13 0 12 0;
#X coords 0 869 1 868 1015 155 0;
