#N canvas 52 20 1854 977 12;
#X declare -path ./brds_synth_abs;
#X floatatom 2143 192 5 0 127 0 - - - 0;
#X obj 2057 106 i;
#X obj 2138 106 i;
#X obj 2169 135 max 0;
#X obj 2056 29 r algo+_\$0;
#X obj 2134 19 r algo-_\$0;
#X obj 2059 157 min 127;
#X obj 2096 105 + 3;
#X obj 2166 106 - 3;
#X obj 2073 192 loadbang;
#X msg 2073 215 0;
#X obj 106 152 vsl 20 100 0 127 0 0 empty empty tim 0 -9 1 12 #000000 #ffffff #7c7c7c 0 1;
#X obj 129 152 vsl 20 100 0 127 0 0 empty empty col 0 -9 1 12 #000000 #ffffff #7c7c7c 0 1;
#X obj 158 152 vsl 20 100 0 127 0 0 empty empty att 0 -9 1 12 #000000 #ffffff #7c7c7c 0 1;
#X obj 181 152 vsl 20 100 0 127 0 0 empty empty dec 0 -9 1 12 #000000 #ffffff #7c7c7c 0 1;
#X obj 204 152 vsl 20 100 0 127 0 0 empty empty sus 0 -9 1 12 #000000 #ffffff #7c7c7c 0 1;
#X obj 227 152 vsl 20 100 0 127 0 0 empty empty rel 0 -9 1 12 #000000 #ffffff #7c7c7c 0 1;
#X obj 250 152 vsl 20 100 0 127 0 0 empty empty cur 0 -9 1 12 #000000 #ffffff #7c7c7c 0 1;
#X obj 521 156 vsl 20 100 0 127 0 0 empty empty frq 0 -9 1 12 #000000 #ffffff #7c7c7c 0 1;
#X obj 544 156 vsl 20 100 0 127 0 0 empty empty q 0 -9 1 12 #000000 #ffffff #7c7c7c 0 1;
#X obj 90 449 s timbre_\$0;
#X obj 115 374 s colour_\$0;
#X obj 153 544 s attack_\$0;
#X obj 180 616 s decay_\$0;
#X obj 200 684 s sustain_\$0;
#X obj 224 762 s release_\$0;
#X obj 248 836 s curve_\$0;
#X obj 2142 244 s algo_select_\$0;
#X obj 212 -138 s algo+_\$0;
#X obj 257 -104 s algo-_\$0;
#X obj 316 113 bng 20 250 50 0 empty empty + 7 10 1 12 #000000 #7c7c7c #ffffff;
#X obj 339 113 bng 20 250 50 0 empty empty - 8 10 1 12 #000000 #7c7c7c #ffffff;
#X obj -540 740 s to_synth_2_\$0;
#X obj -526 747 s to_synth_3_\$0;
#X obj -516 757 s to_synth_4_\$0;
#X obj -544 649 pack f f f;
#X obj -332 1880 r~ from_synth_1_\$0;
#X obj 284 -67 r wav_name_\$0;
#X listbox 362 113 6 0 0 0 - - - 0;
#X obj -117 2171 *~;
#X obj 119 468 loadbang;
#X obj 88 489 r preset_timbre_\$0;
#X obj 145 396 loadbang;
#X obj 114 417 r preset_colour_\$0;
#X obj 182 567 loadbang;
#X msg 155 566 0;
#X obj 209 637 loadbang;
#X obj 230 703 loadbang;
#X obj 254 785 loadbang;
#X msg 225 784 0;
#X obj 276 858 loadbang;
#X obj 157 588 r preset_attack_\$0;
#X obj 182 657 r preset_decay_\$0;
#X obj 201 722 r preset_sustain_\$0;
#X obj 224 803 r preset_release_\$0;
#X obj 218 878 r preset_curve_\$0;
#X obj 548 449 loadbang;
#X obj 574 526 loadbang;
#X obj 493 371 loadbang;
#X msg 247 857 64;
#X msg 90 467 64;
#X msg 201 702 64;
#X msg 116 395 64;
#X obj 1183 130 vsl 20 120 0 1 0 0 empty empty vol 0 -9 1 12 #000000 #ffffff #7c7c7c 0 1;
#X obj 1265 563 loadbang;
#X obj 1238 542 s vol_\$0;
#X obj 1236 582 r preset_vol_\$0;
#X obj 248 -680 s ID_\$0;
#X obj 246 -733 loadbang;
#X obj 2199 164 r preset_algo_select_\$0;
#X obj 1149 128 vradio 10 1 0 4 empty empty ass 0 -10 1 12 #fcfcfc #000000 #000000 0;
#X obj 1358 -133 loadbang;
#X msg 1333 -134 0;
#X obj 1335 -153 s lfo2_ass_\$0;
#X obj 1334 -112 r preset_lfo2_ass_\$0;
#X obj 277 153 vsl 20 100 0 1 0 0 empty empty fold 0 -9 1 12 #000000 #ffffff #7c7c7c 0 1;
#X obj 301 174 vradio 20 1 0 4 empty empty mode 0 -10 1 12 #fcfcfc #000000 #000000 0;
#X obj 301 -401 loadbang;
#X msg 272 -402 0;
#X obj 325 -335 loadbang;
#X msg 296 -336 0;
#X obj 274 -425 s fold_\$0;
#X obj 273 -384 r preset_fold_\$0;
#X obj 297 -355 s stgs_\$0;
#X obj 297 -314 r preset_stgs_\$0;
#X obj 463 348 s flt_sel_\$0;
#X obj 463 392 r preset_flt_sel_\$0;
#X obj 519 429 s flt_frq_\$0;
#X obj 519 467 r preset_flt_frq_\$0;
#X obj 546 504 s flt_q_\$0;
#X obj 544 544 r preset_flt_q_\$0;
#X obj 469 152 vradio 15 1 0 7 empty empty empty 0 -9 0 10 #fcfcfc #000000 #000000 0;
#X text 490 149 lp;
#X text 490 165 hp;
#X text 490 180 bp;
#X text 490 194 bob;
#X text 489 239 off;
#X text 490 209 an;
#X text 489 225 lad;
#X msg 545 525 30;
#X obj 375 154 vsl 20 100 0 127 0 0 empty empty att 0 -9 1 12 #000000 #ffffff #7c7c7c 0 1;
#X obj 398 154 vsl 20 100 0 127 0 0 empty empty dec 0 -9 1 12 #000000 #ffffff #7c7c7c 0 1;
#X obj 421 154 vsl 20 100 0 127 0 0 empty empty sus 0 -9 1 12 #000000 #ffffff #7c7c7c 0 1;
#X obj 444 154 vsl 20 100 0 127 0 0 empty empty rel 0 -9 1 12 #000000 #ffffff #7c7c7c 0 1;
#X obj 402 527 loadbang;
#X obj 429 597 loadbang;
#X obj 444 681 loadbang;
#X obj 468 763 loadbang;
#X obj 373 504 s fil_attack_\$0;
#X obj 377 548 r preset_fil_attack_\$0;
#X obj 402 617 r preset_fil_decay_\$0;
#X obj 400 576 s fil_decay_\$0;
#X obj 414 662 s fil_sustain_\$0;
#X obj 415 700 r preset_fil_sustain_\$0;
#X obj 438 740 s fil_release_\$0;
#X obj 438 781 r preset_fil_release_\$0;
#X obj 413 112 cnv 20 10 10 empty empty filter\ envelope 20 12 1 12 #ffffff #404040 0;
#X obj 547 115 cnv 20 10 10 empty empty filter 20 12 1 12 #ffffff #404040 0;
#X obj -537 619 poly 8 1;
#X obj -544 682 route 1 2 3 4 5 6 7 8;
#X obj -503 767 s to_synth_5_\$0;
#X obj -493 777 s to_synth_6_\$0;
#X obj -483 787 s to_synth_7_\$0;
#X obj -473 797 s to_synth_8_\$0;
#X obj 392 2178 *~;
#X obj -97 624 pack f f f;
#X obj -547 731 s to_synth_1_\$0;
#X obj -105 689 s to_synth_1_\$0;
#X obj -535 501 spigot;
#X obj -96 502 spigot;
#X obj -86 555 r to_poly_\$0;
#X obj -572 557 r to_poly_\$0;
#X obj -361 452 == 0;
#X msg 464 370 0;
#X msg 519 448 50;
#X msg 375 526 40;
#X msg 400 596 90;
#X msg 415 680 70;
#X msg 439 762 80;
#X msg 180 636 70;
#X obj -539 350 s s7_onoff_\$0;
#X obj -539 314 s s6_onoff_\$0;
#X obj -541 279 s s5_onoff_\$0;
#X obj -542 246 s s4_onoff_\$0;
#X obj -542 215 s s3_onoff_\$0;
#X obj -542 182 s s2_onoff_\$0;
#X obj -544 150 s s1_onoff_\$0;
#X msg 43 -215 1;
#X obj 79 -211 loadbang;
#X obj -537 387 s s8_onoff_\$0;
#X msg -651 227 1;
#X obj -75 713 s to_synth_2_\$0;
#X obj 50 2170 *~;
#X obj 202 2174 *~;
#X obj -196 1880 r~ from_synth_2_\$0;
#X obj -52 1879 r~ from_synth_3_\$0;
#X obj 83 1881 r~ from_synth_4_\$0;
#X obj 220 1882 r~ from_synth_5_\$0;
#X obj 355 1884 r~ from_synth_6_\$0;
#X obj 492 1885 r~ from_synth_7_\$0;
#X obj 627 1887 r~ from_synth_8_\$0;
#X obj 976 1841 r vol_\$0;
#X obj 1036 1933 t b f;
#X obj 1011 2004 pack 0 100;
#X obj 1012 2029 line~;
#X msg 790 1962 0.5;
#X obj 48 -192 r preset_mono_\$0;
#X obj 50 -233 s mono_\$0;
#X obj -220 389 r mono_\$0;
#X obj -645 96 r mono_\$0;
#X obj 833 1890 r mono_\$0;
#X obj 1122 358 s set_preset_sync_\$0;
#X obj 1154 383 s set_preset_div_\$0;
#X obj 1188 407 s set_preset_bpm_\$0;
#X obj 1221 430 s set_preset_shape_\$0;
#X obj 1253 455 s set_preset_trans_\$0;
#X obj 1291 479 s set_preset_spread_\$0;
#X obj 1407 181 r preset_spread_\$0;
#X obj 1385 162 r preset_trans_\$0;
#X obj 1366 143 r preset_shape_\$0;
#X obj 1324 104 r preset_div_\$0;
#X obj 1346 123 r preset_bpm_\$0;
#X obj 1295 82 r preset_sync_\$0;
#X obj 1293 56 r bang_\$0;
#X obj 1292 30 r rst_\$0;
#X obj -595 -500 s bang_\$0;
#X obj -524 -500 s rst_\$0;
#X obj -160 2286 quad_pan;
#X obj 21 2285 quad_pan;
#X obj 199 2286 quad_pan;
#X obj 376 2285 quad_pan;
#X obj -123 2233 r x_1_\$0;
#X obj -61 2233 r y_1_\$0;
#X obj 44 2232 r x_2_\$0;
#X obj 111 2232 r y_2_\$0;
#X obj 209 2235 r x_3_\$0;
#X obj 273 2237 r y_3_\$0;
#X obj 469 2234 r y_4_\$0;
#X obj 408 2235 r x_4_\$0;
#X obj 880 348 s x_1_\$0;
#X obj 892 327 s y_1_\$0;
#X obj 908 306 s x_2_\$0;
#X obj 923 285 s y_2_\$0;
#X obj 967 348 s x_3_\$0;
#X obj 978 328 s y_3_\$0;
#X obj 991 308 s x_4_\$0;
#X obj 1003 287 s y_4_\$0;
#X obj -18 -525 s note_in_\$0;
#X obj -256 151 r note_in_\$0;
#X obj 249 -654 loadbang;
#X msg 249 -628 \; pd dsp 1;
#X obj -822 595 bng 20 250 50 0 empty empty empty 0 -10 0 12 #fcfcfc #000000 #000000;
#X msg -822 620 stop;
#X obj -869 593 bng 20 250 50 0 empty empty empty 0 -10 0 12 #fcfcfc #000000 #000000;
#X msg -869 618 clear;
#X obj -869 669 s to_poly_\$0;
#X obj -872 472 r all_notes_off_\$0;
#X obj 878 101 lfo;
#X obj 851 400 s~ lfo1_signal_\$0;
#X obj -853 559 t b b b;
#X obj 989 -615 loadbang;
#X obj 1010 -546 loadbang;
#X msg 981 -547 0;
#X obj 1028 -477 loadbang;
#X obj 983 -570 s lfo1_dep_\$0;
#X obj 981 -529 r preset_lfo1_dep_\$0;
#X obj 1001 -497 s lfo1_wav_\$0;
#X obj 1000 -456 r preset_lfo1_wav_\$0;
#X obj 961 -638 s lfo1_frq_\$0;
#X obj 961 -598 r preset_lfo1_frq_\$0;
#X msg 962 -618 64;
#X obj 1045 -401 loadbang;
#X obj 1016 -424 s lfo1_mul_\$0;
#X obj 1015 -384 r preset_lfo1_mul_\$0;
#X msg 1016 -402 2;
#X msg 1001 -478 0;
#X obj 1007 102 lfo;
#X obj 1224 -607 loadbang;
#X obj 1245 -538 loadbang;
#X msg 1216 -539 0;
#X obj 1261 -468 loadbang;
#X msg 1197 -610 64;
#X obj 1286 -393 loadbang;
#X msg 1257 -394 2;
#X msg 1234 -469 0;
#X obj 1012 401 s~ lfo2_signal_\$0;
#X obj 1256 -376 r preset_lfo2_mul_\$0;
#X obj 1257 -416 s lfo2_mul_\$0;
#X obj 1234 -488 s lfo2_wav_\$0;
#X obj 1233 -447 r preset_lfo2_wav_\$0;
#X obj 1216 -521 r preset_lfo2_dep_\$0;
#X obj 1218 -562 s lfo2_dep_\$0;
#X obj 1196 -590 r preset_lfo2_frq_\$0;
#X obj 1196 -630 s lfo2_frq_\$0;
#X msg 247 -706 0;
#X obj 2060 65 bng 20 250 50 0 empty empty empty 0 -10 0 12 #fcfcfc #000000 #000000;
#X obj 2143 69 bng 20 250 50 0 empty empty empty 0 -10 0 12 #fcfcfc #000000 #000000;
#X obj 1455 88 r control_shape+_\$0;
#X obj 1451 60 r control_shape-_\$0;
#X obj 321 -26 s feedback_algo_name_\$0;
#X obj 1246 332 s feedback_space_name_\$0;
#X obj 1315 502 s mono_phase_\$0;
#X obj 1425 202 r preset_mono_phase_\$0;
#X obj 698 127 vsl 20 100 -48 48 0 0 empty empty trn 0 -9 1 12 #000000 #ffffff #7c7c7c 0 1;
#X obj 723 150 vsl 20 100 0 1 0 0 empty empty pos 0 -9 1 12 #000000 #ffffff #7c7c7c 0 1;
#X obj 748 150 vsl 20 100 0 1 0 0 empty empty str 0 -9 1 12 #000000 #ffffff #7c7c7c 0 1;
#X obj 773 151 vsl 20 100 0 1 0 0 empty empty brt 0 -9 1 12 #000000 #ffffff #7c7c7c 0 1;
#X obj 797 150 vsl 20 100 0 1 0 0 empty empty dmp 0 -9 1 12 #000000 #ffffff #7c7c7c 0 1;
#X obj 851 150 vsl 20 100 0 1 0 0 empty empty dw 0 -9 1 12 #000000 #ffffff #7c7c7c 0 1;
#X obj 825 153 vradio 20 1 0 5 empty empty mod 0 -10 0 12 #fcfcfc #000000 #000000 0;
#X obj 634 214 tgl 20 0 empty empty trg 0 -10 1 12 #fcfcfc #000000 #000000 0 1;
#X obj 631 -263 s exciter_rngs_\$0;
#X obj 629 -370 s poly_rngs_\$0;
#X obj 671 -318 s pitch_rngs_\$0;
#X obj 694 -35 s transp_rngs_\$0;
#X obj 719 -93 s posit_rngs_\$0;
#X obj 741 -154 s struct_rngs_\$0;
#X obj 767 -199 s bright_rngs_\$0;
#X obj 789 -240 s damp_rngs_\$0;
#X obj 819 -286 s model_rngs_\$0;
#X obj 838 -360 s rngs_dw_\$0;
#X obj 695 -55 r preset_transp_rngs_\$0;
#X obj 718 -113 r preset_posit_rngs_\$0;
#X obj 740 -176 r preset_struct_rngs_\$0;
#X obj 767 -219 r preset_bright_rngs_\$0;
#X obj 787 -262 r preset_damp_rngs_\$0;
#X obj 818 -308 r preset_model_rngs_\$0;
#X obj 839 -337 r preset_rngs_dw_\$0;
#X obj 672 -339 r preset_pitch_rngs_\$0;
#X obj 629 -285 r preset_exciter_rngs_\$0;
#X obj 630 -393 r preset_poly_rngs_\$0;
#X obj -41 324 s trigger_rngs_\$0;
#X obj 134 1254 brds_full_module~, f 82;
#X obj -37 1065 r colour_\$0;
#X obj -76 1043 r timbre_\$0;
#X obj 46 1104 r attack_\$0;
#X obj 92 1125 r decay_\$0;
#X obj 48 1053 r sustain_\$0;
#X obj 43 1027 r release_\$0;
#X obj 57 1005 r curve_\$0;
#X obj 4 1087 r algo_select_\$0;
#X obj 286 1290 s wav_name_\$0;
#X obj 162 1097 r fold_\$0;
#X obj 152 1064 r stgs_\$0;
#X obj 276 1048 r flt_sel_\$0;
#X obj 290 1027 r flt_frq_\$0;
#X obj 303 1005 r flt_q_\$0;
#X obj 572 1019 r trem_spd_\$0;
#X obj 579 991 r trem_dep_\$0;
#X obj -120 1020 r panic_\$0;
#X obj 152 1038 r fil_attack_\$0;
#X obj 166 1017 r fil_decay_\$0;
#X obj 180 996 r fil_sustain_\$0;
#X obj 192 976 r fil_release_\$0;
#X obj 651 1093 r lfo2_ass_\$0;
#X obj 278 1073 r~ lfo1_signal_\$0;
#X obj 626 1069 r~ lfo2_signal_\$0;
#X obj 434 1108 r poly_rngs_\$0;
#X obj 447 1086 r pitch_rngs_\$0;
#X obj 437 1054 r transp_rngs_\$0;
#X obj 445 1007 r posit_rngs_\$0;
#X obj 456 984 r struct_rngs_\$0;
#X obj 470 949 r bright_rngs_\$0;
#X obj 490 929 r damp_rngs_\$0;
#X obj 502 906 r model_rngs_\$0;
#X obj 562 1046 r rngs_dw_\$0;
#X obj 420 1129 r exciter_rngs_\$0;
#X obj 422 1158 r trigger_rngs_\$0;
#X obj 253 113 bng 20 250 50 0 empty empty 440 23 9 0 12 #fcfcfc #000000 #000000;
#X obj -170 -79 bng 20 250 50 0 empty empty empty 0 -10 0 12 #fcfcfc #000000 #000000;
#X msg 697 367 0;
#X obj 634 235 bng 20 250 50 0 empty empty empty 0 -10 0 12 #fcfcfc #000000 #000000;
#X obj 698 236 bng 20 250 50 0 empty empty empty 0 -10 0 12 #fcfcfc #000000 #000000;
#X obj 18 296 r control_trig_go_\$0;
#X obj 634 131 vradio 20 1 0 3 empty empty poly 0 -10 1 12 #fcfcfc #000000 #000000 0;
#X obj 674 132 vradio 20 1 0 6 empty empty pch 0 -10 1 12 #fcfcfc #000000 #000000 0;
#X text 663 132 -;
#X text 663 191 0;
#X text 656 172 +1;
#X text 656 153 +2;
#X text 656 211 -1;
#X text 656 230 -2;
#X obj 324 154 vsl 20 100 0 1 0 0 empty empty frq 0 -9 1 12 #000000 #ffffff #7c7c7c 0 1;
#X obj 347 -266 loadbang;
#X msg 318 -267 0;
#X obj 238 1138 r fold_mix_\$0;
#X obj 1063 1273 brds_full_module~, f 82;
#X obj 878 1081 r colour_\$0;
#X obj 839 1059 r timbre_\$0;
#X obj 961 1120 r attack_\$0;
#X obj 1007 1141 r decay_\$0;
#X obj 963 1069 r sustain_\$0;
#X obj 958 1043 r release_\$0;
#X obj 972 1021 r curve_\$0;
#X obj 919 1103 r algo_select_\$0;
#X obj 1077 1113 r fold_\$0;
#X obj 1067 1080 r stgs_\$0;
#X obj 1191 1064 r flt_sel_\$0;
#X obj 1205 1043 r flt_frq_\$0;
#X obj 1218 1021 r flt_q_\$0;
#X obj 1487 1035 r trem_spd_\$0;
#X obj 1494 1007 r trem_dep_\$0;
#X obj 795 1036 r panic_\$0;
#X obj 1067 1054 r fil_attack_\$0;
#X obj 1081 1033 r fil_decay_\$0;
#X obj 1095 1012 r fil_sustain_\$0;
#X obj 1107 992 r fil_release_\$0;
#X obj 1566 1109 r lfo2_ass_\$0;
#X obj 1193 1089 r~ lfo1_signal_\$0;
#X obj 1541 1085 r~ lfo2_signal_\$0;
#X obj 1349 1124 r poly_rngs_\$0;
#X obj 1362 1102 r pitch_rngs_\$0;
#X obj 1352 1070 r transp_rngs_\$0;
#X obj 1360 1023 r posit_rngs_\$0;
#X obj 1371 1000 r struct_rngs_\$0;
#X obj 1385 965 r bright_rngs_\$0;
#X obj 1405 945 r damp_rngs_\$0;
#X obj 1417 922 r model_rngs_\$0;
#X obj 1477 1062 r rngs_dw_\$0;
#X obj 1335 1145 r exciter_rngs_\$0;
#X obj 1330 1169 r trigger_rngs_\$0;
#X obj 1153 1154 r fold_mix_\$0;
#X obj -164 997 r to_synth_1_\$0;
#X obj 139 1289 s~ from_synth_1_\$0;
#X obj 673 1117 r s1_onoff_\$0;
#X obj 751 1013 r to_synth_2_\$0;
#X obj 1054 1305 s~ from_synth_2_\$0;
#X obj 1588 1133 r s2_onoff_\$0;
#X obj 2009 1289 brds_full_module~, f 82;
#X obj 1824 1097 r colour_\$0;
#X obj 1785 1075 r timbre_\$0;
#X obj 1907 1136 r attack_\$0;
#X obj 1953 1157 r decay_\$0;
#X obj 1909 1085 r sustain_\$0;
#X obj 1904 1059 r release_\$0;
#X obj 1918 1037 r curve_\$0;
#X obj 1865 1119 r algo_select_\$0;
#X obj 2023 1129 r fold_\$0;
#X obj 2013 1096 r stgs_\$0;
#X obj 2137 1080 r flt_sel_\$0;
#X obj 2151 1059 r flt_frq_\$0;
#X obj 2164 1037 r flt_q_\$0;
#X obj 2433 1051 r trem_spd_\$0;
#X obj 2440 1023 r trem_dep_\$0;
#X obj 1741 1052 r panic_\$0;
#X obj 2013 1070 r fil_attack_\$0;
#X obj 2027 1049 r fil_decay_\$0;
#X obj 2041 1028 r fil_sustain_\$0;
#X obj 2053 1008 r fil_release_\$0;
#X obj 2512 1125 r lfo2_ass_\$0;
#X obj 2139 1105 r~ lfo1_signal_\$0;
#X obj 2487 1101 r~ lfo2_signal_\$0;
#X obj 2295 1140 r poly_rngs_\$0;
#X obj 2308 1118 r pitch_rngs_\$0;
#X obj 2298 1086 r transp_rngs_\$0;
#X obj 2306 1039 r posit_rngs_\$0;
#X obj 2317 1016 r struct_rngs_\$0;
#X obj 2331 981 r bright_rngs_\$0;
#X obj 2351 961 r damp_rngs_\$0;
#X obj 2363 938 r model_rngs_\$0;
#X obj 2423 1078 r rngs_dw_\$0;
#X obj 2281 1161 r exciter_rngs_\$0;
#X obj 2276 1185 r trigger_rngs_\$0;
#X obj 2099 1170 r fold_mix_\$0;
#X obj 1697 1029 r to_synth_3_\$0;
#X obj 2000 1321 s~ from_synth_3_\$0;
#X obj 2534 1149 r s3_onoff_\$0;
#X obj 2980 1304 brds_full_module~, f 82;
#X obj 2795 1112 r colour_\$0;
#X obj 2756 1090 r timbre_\$0;
#X obj 2878 1151 r attack_\$0;
#X obj 2924 1172 r decay_\$0;
#X obj 2880 1100 r sustain_\$0;
#X obj 2875 1074 r release_\$0;
#X obj 2889 1052 r curve_\$0;
#X obj 2836 1134 r algo_select_\$0;
#X obj 2994 1144 r fold_\$0;
#X obj 2984 1111 r stgs_\$0;
#X obj 3108 1095 r flt_sel_\$0;
#X obj 3122 1074 r flt_frq_\$0;
#X obj 3135 1052 r flt_q_\$0;
#X obj 3404 1066 r trem_spd_\$0;
#X obj 3411 1038 r trem_dep_\$0;
#X obj 2712 1067 r panic_\$0;
#X obj 2984 1085 r fil_attack_\$0;
#X obj 2998 1064 r fil_decay_\$0;
#X obj 3012 1043 r fil_sustain_\$0;
#X obj 3024 1023 r fil_release_\$0;
#X obj 3483 1140 r lfo2_ass_\$0;
#X obj 3110 1120 r~ lfo1_signal_\$0;
#X obj 3458 1116 r~ lfo2_signal_\$0;
#X obj 3266 1155 r poly_rngs_\$0;
#X obj 3279 1133 r pitch_rngs_\$0;
#X obj 3269 1101 r transp_rngs_\$0;
#X obj 3277 1054 r posit_rngs_\$0;
#X obj 3288 1031 r struct_rngs_\$0;
#X obj 3302 996 r bright_rngs_\$0;
#X obj 3322 976 r damp_rngs_\$0;
#X obj 3334 953 r model_rngs_\$0;
#X obj 3394 1093 r rngs_dw_\$0;
#X obj 3252 1176 r exciter_rngs_\$0;
#X obj 3247 1200 r trigger_rngs_\$0;
#X obj 3070 1185 r fold_mix_\$0;
#X obj 2668 1044 r to_synth_4_\$0;
#X obj 2971 1336 s~ from_synth_4_\$0;
#X obj 3505 1164 r s4_onoff_\$0;
#X obj 3029 1743 brds_full_module~, f 82;
#X obj 2844 1551 r colour_\$0;
#X obj 2805 1529 r timbre_\$0;
#X obj 2927 1590 r attack_\$0;
#X obj 2973 1611 r decay_\$0;
#X obj 2929 1539 r sustain_\$0;
#X obj 2924 1513 r release_\$0;
#X obj 2938 1491 r curve_\$0;
#X obj 2885 1573 r algo_select_\$0;
#X obj 3043 1583 r fold_\$0;
#X obj 3033 1550 r stgs_\$0;
#X obj 3157 1534 r flt_sel_\$0;
#X obj 3171 1513 r flt_frq_\$0;
#X obj 3184 1491 r flt_q_\$0;
#X obj 3453 1505 r trem_spd_\$0;
#X obj 3460 1477 r trem_dep_\$0;
#X obj 2761 1506 r panic_\$0;
#X obj 3033 1524 r fil_attack_\$0;
#X obj 3047 1503 r fil_decay_\$0;
#X obj 3061 1482 r fil_sustain_\$0;
#X obj 3073 1462 r fil_release_\$0;
#X obj 3532 1579 r lfo2_ass_\$0;
#X obj 3159 1559 r~ lfo1_signal_\$0;
#X obj 3507 1555 r~ lfo2_signal_\$0;
#X obj 3315 1594 r poly_rngs_\$0;
#X obj 3328 1572 r pitch_rngs_\$0;
#X obj 3318 1540 r transp_rngs_\$0;
#X obj 3326 1493 r posit_rngs_\$0;
#X obj 3337 1470 r struct_rngs_\$0;
#X obj 3351 1435 r bright_rngs_\$0;
#X obj 3371 1415 r damp_rngs_\$0;
#X obj 3383 1392 r model_rngs_\$0;
#X obj 3443 1532 r rngs_dw_\$0;
#X obj 3301 1615 r exciter_rngs_\$0;
#X obj 3296 1639 r trigger_rngs_\$0;
#X obj 3119 1624 r fold_mix_\$0;
#X obj 2717 1483 r to_synth_8_\$0;
#X obj 3020 1775 s~ from_synth_8_\$0;
#X obj 3554 1603 r s8_onoff_\$0;
#X obj 2068 1764 brds_full_module~, f 82;
#X obj 1883 1572 r colour_\$0;
#X obj 1844 1550 r timbre_\$0;
#X obj 1966 1611 r attack_\$0;
#X obj 2012 1632 r decay_\$0;
#X obj 1968 1560 r sustain_\$0;
#X obj 1963 1534 r release_\$0;
#X obj 1977 1512 r curve_\$0;
#X obj 1924 1594 r algo_select_\$0;
#X obj 2082 1604 r fold_\$0;
#X obj 2072 1571 r stgs_\$0;
#X obj 2196 1555 r flt_sel_\$0;
#X obj 2210 1534 r flt_frq_\$0;
#X obj 2223 1512 r flt_q_\$0;
#X obj 2492 1526 r trem_spd_\$0;
#X obj 2499 1498 r trem_dep_\$0;
#X obj 1800 1527 r panic_\$0;
#X obj 2072 1545 r fil_attack_\$0;
#X obj 2086 1524 r fil_decay_\$0;
#X obj 2100 1503 r fil_sustain_\$0;
#X obj 2112 1483 r fil_release_\$0;
#X obj 2571 1600 r lfo2_ass_\$0;
#X obj 2198 1580 r~ lfo1_signal_\$0;
#X obj 2546 1576 r~ lfo2_signal_\$0;
#X obj 2354 1615 r poly_rngs_\$0;
#X obj 2367 1593 r pitch_rngs_\$0;
#X obj 2357 1561 r transp_rngs_\$0;
#X obj 2365 1514 r posit_rngs_\$0;
#X obj 2376 1491 r struct_rngs_\$0;
#X obj 2390 1456 r bright_rngs_\$0;
#X obj 2410 1436 r damp_rngs_\$0;
#X obj 2422 1413 r model_rngs_\$0;
#X obj 2482 1553 r rngs_dw_\$0;
#X obj 2340 1636 r exciter_rngs_\$0;
#X obj 2335 1660 r trigger_rngs_\$0;
#X obj 2158 1645 r fold_mix_\$0;
#X obj 1756 1504 r to_synth_7_\$0;
#X obj 2059 1796 s~ from_synth_7_\$0;
#X obj 2593 1624 r s7_onoff_\$0;
#X obj 1111 1767 brds_full_module~, f 82;
#X obj 926 1575 r colour_\$0;
#X obj 887 1553 r timbre_\$0;
#X obj 1009 1614 r attack_\$0;
#X obj 1055 1635 r decay_\$0;
#X obj 1011 1563 r sustain_\$0;
#X obj 1006 1537 r release_\$0;
#X obj 1020 1515 r curve_\$0;
#X obj 967 1597 r algo_select_\$0;
#X obj 1125 1607 r fold_\$0;
#X obj 1115 1574 r stgs_\$0;
#X obj 1239 1558 r flt_sel_\$0;
#X obj 1253 1537 r flt_frq_\$0;
#X obj 1266 1515 r flt_q_\$0;
#X obj 1535 1529 r trem_spd_\$0;
#X obj 1542 1501 r trem_dep_\$0;
#X obj 843 1530 r panic_\$0;
#X obj 1115 1548 r fil_attack_\$0;
#X obj 1129 1527 r fil_decay_\$0;
#X obj 1143 1506 r fil_sustain_\$0;
#X obj 1155 1486 r fil_release_\$0;
#X obj 1614 1603 r lfo2_ass_\$0;
#X obj 1241 1583 r~ lfo1_signal_\$0;
#X obj 1589 1579 r~ lfo2_signal_\$0;
#X obj 1397 1618 r poly_rngs_\$0;
#X obj 1410 1596 r pitch_rngs_\$0;
#X obj 1400 1564 r transp_rngs_\$0;
#X obj 1408 1517 r posit_rngs_\$0;
#X obj 1419 1494 r struct_rngs_\$0;
#X obj 1433 1459 r bright_rngs_\$0;
#X obj 1453 1439 r damp_rngs_\$0;
#X obj 1465 1416 r model_rngs_\$0;
#X obj 1525 1556 r rngs_dw_\$0;
#X obj 1383 1639 r exciter_rngs_\$0;
#X obj 1378 1663 r trigger_rngs_\$0;
#X obj 1201 1648 r fold_mix_\$0;
#X obj 799 1507 r to_synth_6_\$0;
#X obj 1102 1799 s~ from_synth_6_\$0;
#X obj 1636 1627 r s6_onoff_\$0;
#X obj 154 1722 brds_full_module~, f 82;
#X obj -31 1530 r colour_\$0;
#X obj -70 1508 r timbre_\$0;
#X obj 52 1569 r attack_\$0;
#X obj 98 1590 r decay_\$0;
#X obj 54 1518 r sustain_\$0;
#X obj 49 1492 r release_\$0;
#X obj 63 1470 r curve_\$0;
#X obj 10 1552 r algo_select_\$0;
#X obj 168 1562 r fold_\$0;
#X obj 158 1529 r stgs_\$0;
#X obj 282 1513 r flt_sel_\$0;
#X obj 296 1492 r flt_frq_\$0;
#X obj 309 1470 r flt_q_\$0;
#X obj 578 1484 r trem_spd_\$0;
#X obj 585 1456 r trem_dep_\$0;
#X obj -114 1485 r panic_\$0;
#X obj 158 1503 r fil_attack_\$0;
#X obj 172 1482 r fil_decay_\$0;
#X obj 186 1461 r fil_sustain_\$0;
#X obj 198 1441 r fil_release_\$0;
#X obj 657 1558 r lfo2_ass_\$0;
#X obj 284 1538 r~ lfo1_signal_\$0;
#X obj 632 1534 r~ lfo2_signal_\$0;
#X obj 440 1573 r poly_rngs_\$0;
#X obj 453 1551 r pitch_rngs_\$0;
#X obj 443 1519 r transp_rngs_\$0;
#X obj 451 1472 r posit_rngs_\$0;
#X obj 462 1449 r struct_rngs_\$0;
#X obj 476 1414 r bright_rngs_\$0;
#X obj 496 1394 r damp_rngs_\$0;
#X obj 508 1371 r model_rngs_\$0;
#X obj 568 1511 r rngs_dw_\$0;
#X obj 426 1594 r exciter_rngs_\$0;
#X obj 421 1618 r trigger_rngs_\$0;
#X obj 244 1603 r fold_mix_\$0;
#X obj 679 1582 r s6_onoff_\$0;
#X obj -158 1462 r to_synth_5_\$0;
#X obj 145 1754 s~ from_synth_5_\$0;
#X obj 1345 524 s set_preset_trigonoff_\$0;
#X obj 1445 225 r preset_trigonoff_\$0;
#X obj -53 180 unpack 0 0;
#X obj -63 234 sel 0;
#X obj -35 262 f;
#X obj -63 262 bng 20 250 50 0 empty empty empty 0 -10 0 12 #fcfcfc #000000 #000000;
#X msg -18 296 60;
#X obj -33 207 swap;
#X obj 1463 248 r control_space_trig_go_\$0;
#X obj -58 352 s control_space_trig_go_\$0;
#X obj -256 179 route all_notes_off;
#X obj -284 213 s all_notes_off_\$0;
#X obj -778 608 s to_synth_2_\$0;
#X obj -764 615 s to_synth_3_\$0;
#X obj -754 625 s to_synth_4_\$0;
#X obj -741 635 s to_synth_5_\$0;
#X obj -731 645 s to_synth_6_\$0;
#X obj -721 655 s to_synth_7_\$0;
#X obj -711 665 s to_synth_8_\$0;
#X obj -787 596 s to_synth_1_\$0;
#X msg -773 532 60 0;
#X obj -545 -587 inlet;
#X obj -319 -498 s save_\$0;
#X obj -395 -497 s load_\$0;
#X obj -455 -498 s ID_\$0;
#X text -548 -612 internal_in;
#X obj -236 -392 s control_\$0;
#X obj -236 -424 route name;
#X obj -254 -521 s osc_name_\$0;
#X obj 663 2349 r control_out_\$0;
#X obj 636 2562 outlet;
#X obj 636 2536 oscformat;
#X obj 639 2458 list split 1;
#X obj 669 2504 list trim;
#X obj 763 2457 r osc_name_\$0;
#X obj 669 2482 list prepend;
#X obj 763 2502 list trim;
#X obj 763 2480 list prepend set;
#X text 639 2585 osc_out;
#X obj -174 -463 r osc_name_\$0;
#X obj -145 -498 s current_path_\$0;
#N canvas 66 32 1854 977 handle_presets 1;
#X obj 240 1913 tabwrite presets_\$0;
#X msg 435 560 \$1 1;
#X msg 435 537 \$1 0;
#X msg 435 583 \$1 2;
#X msg 435 606 \$1 3;
#X msg 435 629 \$1 4;
#X msg 435 652 \$1 5;
#X msg 435 675 \$1 6;
#X msg 435 698 \$1 7;
#X msg 435 721 \$1 8;
#X msg 435 744 \$1 9;
#X msg 435 767 \$1 10;
#X msg 435 790 \$1 11;
#X msg 435 813 \$1 12;
#X msg 435 836 \$1 13;
#X msg 435 859 \$1 14;
#X msg 435 882 \$1 15;
#X msg 435 905 \$1 16;
#X msg 435 928 \$1 17;
#X msg 435 951 \$1 18;
#X msg 435 974 \$1 19;
#X msg 435 997 \$1 20;
#X msg 435 1020 \$1 21;
#X msg 435 1043 \$1 22;
#X msg 435 1066 \$1 23;
#X msg 435 1089 \$1 24;
#X msg 435 1112 \$1 25;
#X msg 435 1135 \$1 26;
#X msg 435 1158 \$1 27;
#X msg 435 1181 \$1 28;
#X msg 435 1204 \$1 29;
#X msg 435 1227 \$1 30;
#X msg 435 1250 \$1 31;
#X msg 435 1273 \$1 32;
#X msg 435 1296 \$1 33;
#X msg 435 1319 \$1 34;
#X msg 435 1342 \$1 35;
#X msg 435 1365 \$1 36;
#X obj 319 1816 list;
#X obj 266 1867 unpack 0 0;
#X obj 474 563 r colour_\$0;
#X obj 474 540 r timbre_\$0;
#X obj 474 607 r attack_\$0;
#X obj 474 629 r decay_\$0;
#X obj 474 652 r sustain_\$0;
#X obj 474 675 r release_\$0;
#X obj 474 698 r curve_\$0;
#X obj 474 585 r algo_select_\$0;
#X obj 826 828 s preset_timbre_\$0;
#X obj 841 851 s preset_colour_\$0;
#X obj 856 875 s preset_algo_select_\$0;
#X obj 872 896 s preset_attack_\$0;
#X obj 887 919 s preset_decay_\$0;
#X obj 900 939 s preset_sustain_\$0;
#X obj 915 959 s preset_release_\$0;
#X obj 930 982 s preset_curve_\$0;
#X obj 474 721 r fold_\$0;
#X obj 474 744 r stgs_\$0;
#X obj 474 767 r lfo1_frq_\$0;
#X obj 474 790 r lfo1_dep_\$0;
#X obj 474 813 r lfo1_wav_\$0;
#X obj 474 836 r flt_sel_\$0;
#X obj 474 859 r flt_frq_\$0;
#X obj 474 882 r flt_q_\$0;
#X obj 474 1089 r lfo2_frq_\$0;
#X obj 474 1112 r lfo2_dep_\$0;
#X obj 474 1135 r lfo2_wav_\$0;
#X obj 474 1158 r lfo2_ass_\$0;
#X obj 944 1006 s preset_fold_\$0;
#X obj 959 1028 s preset_stgs_\$0;
#X obj 979 1050 s preset_lfo1_frq_\$0;
#X obj 998 1073 s preset_lfo1_dep_\$0;
#X obj 1016 1096 s preset_lfo1_wav_\$0;
#X obj 1033 1118 s preset_flt_sel_\$0;
#X obj 1050 1141 s preset_flt_frq_\$0;
#X obj 1203 832 s preset_flt_q_\$0;
#X obj 1354 1046 s preset_lfo2_frq_\$0;
#X obj 1373 1069 s preset_lfo2_dep_\$0;
#X obj 1392 1091 s preset_lfo2_wav_\$0;
#X obj 1403 1115 s preset_lfo2_ass_\$0;
#X obj 478 1457 r vol_\$0;
#X obj 1744 921 s preset_vol_\$0;
#X obj 474 1204 r fil_attack_\$0;
#X obj 474 1226 r fil_decay_\$0;
#X obj 474 1250 r fil_sustain_\$0;
#X obj 474 1273 r fil_release_\$0;
#X obj 1489 860 s preset_fil_attack_\$0;
#X obj 1504 883 s preset_fil_decay_\$0;
#X obj 1517 903 s preset_fil_sustain_\$0;
#X obj 1532 923 s preset_fil_release_\$0;
#X obj 474 1296 r lfo1_mul_\$0;
#X obj 474 1319 r lfo2_mul_\$0;
#X obj 1560 950 s preset_lfo1_mul_\$0;
#X obj 1577 972 s preset_lfo2_mul_\$0;
#X obj 474 1342 r mono_\$0;
#X obj 1599 994 s preset_mono_\$0;
#X obj 1673 862 s preset_sync_\$0;
#X obj 1700 884 s preset_div_\$0;
#X obj 1748 901 s preset_bpm_\$0;
#X obj 1417 1141 s preset_shape_\$0;
#X obj 1761 942 s preset_trans_\$0;
#X obj 1785 963 s preset_spread_\$0;
#X obj 476 1389 r set_preset_sync_\$0;
#X obj 475 1412 r set_preset_div_\$0;
#X obj 506 1434 r set_preset_bpm_\$0;
#X obj 476 1180 r set_preset_shape_\$0;
#X obj 474 1479 r set_preset_trans_\$0;
#X obj 473 1502 r set_preset_spread_\$0;
#X msg 435 1388 \$1 37;
#X msg 435 1411 \$1 38;
#X msg 435 1434 \$1 39;
#X msg 434 1457 \$1 40;
#X msg 435 1480 \$1 41;
#X msg 435 1503 \$1 42;
#X obj 943 740 r control_\$0;
#X obj 922 1358 s algo+_\$0;
#X obj 919 1387 s algo-_\$0;
#X obj 919 1440 s control_shape+_\$0;
#X obj 920 1413 s control_shape-_\$0;
#X obj 108 1082 r feedback_space_name_\$0;
#X obj -143 934 r x_1_\$0;
#X obj -55 933 r y_1_\$0;
#X obj -143 988 r x_2_\$0;
#X obj -49 986 r y_2_\$0;
#X obj -50 1042 r y_3_\$0;
#X obj -133 1044 r x_3_\$0;
#X obj -140 1097 r x_4_\$0;
#X obj -48 1093 r y_4_\$0;
#X obj 106 1030 r feedback_algo_name_\$0;
#X obj -138 1550 s control_out_\$0;
#X obj 479 1433 i;
#X obj 1723 905 i;
#X obj 1810 987 s preset_mono_phase_\$0;
#X msg 436 1525 \$1 43;
#X obj 481 1525 r mono_phase_\$0;
#X obj 473 904 r poly_rngs_\$0;
#X obj 476 929 r exciter_rngs_\$0;
#X obj 477 953 r pitch_rngs_\$0;
#X obj 473 977 r struct_rngs_\$0;
#X obj 476 999 r posit_rngs_\$0;
#X obj 476 1023 r transp_rngs_\$0;
#X msg 435 1548 \$1 44;
#X msg 436 1571 \$1 45;
#X msg 436 1594 \$1 46;
#X msg 437 1617 \$1 47;
#X obj 474 1549 r rngs_dw_\$0;
#X obj 475 1570 r model_rngs_\$0;
#X obj 475 1594 r damp_rngs_\$0;
#X obj 476 1617 r bright_rngs_\$0;
#X obj 1215 854 s preset_poly_rngs_\$0;
#X obj 1234 878 s preset_exciter_rngs_\$0;
#X obj 1248 902 s preset_pitch_rngs_\$0;
#X obj 1272 927 s preset_struct_rngs_\$0;
#X obj 1291 953 s preset_posit_rngs_\$0;
#X obj 1308 975 s preset_transp_rngs_\$0;
#X obj 1832 1018 s preset_rngs_dw_\$0;
#X obj 1855 1040 s preset_model_rngs_\$0;
#X obj 1880 864 s preset_damp_rngs_\$0;
#X obj 1897 884 s preset_bright_rngs_\$0;
#X obj 917 1467 s control_trig_go_\$0;
#X obj 474 1365 r fold_mix_\$0;
#X obj 1618 1019 s preset_fold_mix_\$0;
#X msg 437 1640 \$1 48;
#X obj 1920 910 s preset_trigonoff_\$0;
#X obj 476 1640 r set_preset_trigonoff_\$0;
#X obj 916 1494 s control_space_trig_go_\$0;
#X obj 820 415 f;
#X obj 240 362 r save_\$0;
#X obj 813 364 r load_\$0;
#X obj 843 446 r ID_\$0;
#X obj 275 406 r ID_\$0;
#X obj 900 445 r current_path_\$0;
#X obj 332 405 r current_path_\$0;
#X obj 796 479 load_preset presets_\$0;
#X obj 480 1688 r lfo1_phase_\$0;
#X obj 480 1665 r lfo1_sync_\$0;
#X obj 481 1710 r lfo2_sync_\$0;
#X msg 436 1665 \$1 49;
#X msg 436 1688 \$1 50;
#X msg 438 1710 \$1 51;
#X msg 437 1733 \$1 52;
#X obj 481 1733 r lfo2_phase_\$0;
#X obj 1967 964 s preset_lfo1_phase_\$0;
#X obj 1944 938 s preset_lfo1_sync_\$0;
#X obj 1991 993 s preset_lfo2_sync_\$0;
#X obj 2014 1019 s preset_lfo2_phase_\$0;
#X obj 112 1139 r fdbk_lfo1_freq_\$0;
#X obj 113 1197 r fdbk_lfo2_freq_\$0;
#X obj 113 1255 r feedback_sync_name_\$0;
#X msg -144 963 \$1 210;
#X msg -54 957 \$1 211;
#X msg -143 1010 \$1 212;
#X msg -49 1011 \$1 213;
#X msg -133 1067 \$1 214;
#X msg -47 1066 \$1 215;
#X msg -139 1122 \$1 216;
#X msg -45 1123 \$1 217;
#X obj 918 1523 s control_440_go_\$0;
#X msg 359 327 0;
#X obj 1155 418 f;
#X obj 1151 369 r load_init_\$0;
#X obj 1132 482 load_init presets_\$0 brds_synth_abs;
#X msg 1129 316 0;
#X msg 514 224 0;
#X text 547 223 click this to save this configuration as init;
#X obj 933 1303 route 100 101 102 103 104 105 106 107;
#X obj 917 1552 s ctrl_rngs_transp_rst_\$0;
#X obj 480 1043 r detune_main_\$0;
#X obj 1319 999 s preset_detune_main_\$0;
#X obj 482 1067 r fold_frq_\$0;
#X obj 1338 1023 s preset_fold_frq_\$0;
#X msg 435 1756 \$1 53;
#X msg 437 1778 \$1 54;
#X msg 436 1801 \$1 55;
#X obj 481 1756 r comp_thr_\$0;
#X obj 481 1779 r comp_ratio_\$0;
#X obj 482 1802 r comp_gain_\$0;
#X obj 827 794 route 0 1 2 3 4 5 6 7 8 9 10 11 12 13 14 15 16 17 18 19 20 21 22 23 24 25 26 27 28 29 30 31 32 33 34 35 36 37 38 39 40 41 42 43 44 45 46 47 48 49 50 51 52 53 54 55, f 175;
#X obj 2046 861 s preset_comp_thr_\$0;
#X obj 2085 883 s preset_comp_ratio_\$0;
#X obj 2125 907 s preset_comp_gain_\$0;
#X obj 233 447 save_preset presets_\$0 56;
#X obj 503 444 save_init presets_\$0 brds_synth_abs 56;
#X obj 599 383 table presets_\$0 60;
#X obj 113 1278 list append 204;
#X obj 113 1223 list append 203;
#X obj 112 1163 list append 202;
#X obj -7 1449 list trim;
#X obj 108 1107 list append 201;
#X obj 106 1055 list append 200;
#X obj 112 1369 r fbk_compressor_on_\$0;
#X obj 113 1399 list append 218;
#X obj 58 671 r fbk_lfo1_cycle_\$0;
#X obj 40 710 t b b;
#X msg 40 735 1;
#X obj 82 754 del 50;
#X msg 82 779 0;
#X obj 47 818 list append 220;
#X obj 192 863 t b b;
#X msg 192 888 1;
#X obj 234 907 del 50;
#X msg 234 932 0;
#X obj 210 824 r fbk_lfo2_cycle_\$0;
#X obj 199 971 list append 224;
#X obj 40 1028 spigot;
#X obj 84 962 r vumeter_\$0;
#X connect 1 0 38 0;
#X connect 2 0 38 0;
#X connect 3 0 38 0;
#X connect 4 0 38 0;
#X connect 5 0 38 0;
#X connect 6 0 38 0;
#X connect 7 0 38 0;
#X connect 8 0 38 0;
#X connect 9 0 38 0;
#X connect 10 0 38 0;
#X connect 11 0 38 0;
#X connect 12 0 38 0;
#X connect 13 0 38 0;
#X connect 14 0 38 0;
#X connect 15 0 38 0;
#X connect 16 0 38 0;
#X connect 17 0 38 0;
#X connect 18 0 38 0;
#X connect 19 0 38 0;
#X connect 20 0 38 0;
#X connect 21 0 38 0;
#X connect 22 0 38 0;
#X connect 23 0 38 0;
#X connect 24 0 38 0;
#X connect 25 0 38 0;
#X connect 26 0 38 0;
#X connect 27 0 38 0;
#X connect 28 0 38 0;
#X connect 29 0 38 0;
#X connect 30 0 38 0;
#X connect 31 0 38 0;
#X connect 32 0 38 0;
#X connect 33 0 38 0;
#X connect 34 0 38 0;
#X connect 35 0 38 0;
#X connect 36 0 38 0;
#X connect 37 0 38 0;
#X connect 38 0 39 0;
#X connect 38 0 129 0;
#X connect 39 0 0 0;
#X connect 39 1 0 1;
#X connect 40 0 1 0;
#X connect 41 0 2 0;
#X connect 42 0 4 0;
#X connect 43 0 5 0;
#X connect 44 0 6 0;
#X connect 45 0 7 0;
#X connect 46 0 8 0;
#X connect 47 0 3 0;
#X connect 56 0 9 0;
#X connect 57 0 10 0;
#X connect 58 0 11 0;
#X connect 59 0 12 0;
#X connect 60 0 13 0;
#X connect 61 0 14 0;
#X connect 62 0 15 0;
#X connect 63 0 16 0;
#X connect 64 0 25 0;
#X connect 65 0 26 0;
#X connect 66 0 27 0;
#X connect 67 0 28 0;
#X connect 80 0 111 0;
#X connect 82 0 30 0;
#X connect 83 0 31 0;
#X connect 84 0 32 0;
#X connect 85 0 33 0;
#X connect 90 0 34 0;
#X connect 91 0 35 0;
#X connect 94 0 36 0;
#X connect 102 0 108 0;
#X connect 103 0 109 0;
#X connect 104 0 130 0;
#X connect 105 0 29 0;
#X connect 106 0 112 0;
#X connect 107 0 113 0;
#X connect 108 0 38 0;
#X connect 109 0 38 0;
#X connect 110 0 38 0;
#X connect 111 0 38 0;
#X connect 112 0 38 0;
#X connect 113 0 38 0;
#X connect 114 0 217 0;
#X connect 119 0 228 0;
#X connect 120 0 189 0;
#X connect 121 0 190 0;
#X connect 122 0 191 0;
#X connect 123 0 192 0;
#X connect 124 0 194 0;
#X connect 125 0 193 0;
#X connect 126 0 195 0;
#X connect 127 0 196 0;
#X connect 128 0 229 0;
#X connect 130 0 110 0;
#X connect 131 0 98 0;
#X connect 133 0 38 0;
#X connect 134 0 133 0;
#X connect 135 0 17 0;
#X connect 136 0 18 0;
#X connect 137 0 19 0;
#X connect 138 0 20 0;
#X connect 139 0 21 0;
#X connect 140 0 22 0;
#X connect 141 0 38 0;
#X connect 142 0 38 0;
#X connect 143 0 38 0;
#X connect 144 0 38 0;
#X connect 145 0 141 0;
#X connect 146 0 142 0;
#X connect 147 0 143 0;
#X connect 148 0 144 0;
#X connect 160 0 37 0;
#X connect 162 0 38 0;
#X connect 164 0 162 0;
#X connect 166 0 173 0;
#X connect 167 0 221 0;
#X connect 168 0 166 0;
#X connect 169 0 173 1;
#X connect 170 0 221 1;
#X connect 171 0 173 2;
#X connect 172 0 221 2;
#X connect 173 0 217 0;
#X connect 174 0 178 0;
#X connect 175 0 177 0;
#X connect 176 0 179 0;
#X connect 177 0 38 0;
#X connect 178 0 38 0;
#X connect 179 0 38 0;
#X connect 180 0 38 0;
#X connect 181 0 180 0;
#X connect 186 0 226 0;
#X connect 187 0 225 0;
#X connect 188 0 224 0;
#X connect 189 0 129 0;
#X connect 190 0 129 0;
#X connect 191 0 129 0;
#X connect 192 0 129 0;
#X connect 193 0 129 0;
#X connect 194 0 129 0;
#X connect 195 0 129 0;
#X connect 196 0 129 0;
#X connect 198 0 221 0;
#X connect 199 0 201 0;
#X connect 200 0 199 0;
#X connect 201 0 217 0;
#X connect 202 0 199 0;
#X connect 203 0 222 0;
#X connect 205 0 115 0;
#X connect 205 1 116 0;
#X connect 205 2 118 0;
#X connect 205 3 117 0;
#X connect 205 4 159 0;
#X connect 205 5 165 0;
#X connect 205 6 197 0;
#X connect 205 7 206 0;
#X connect 207 0 23 0;
#X connect 209 0 24 0;
#X connect 211 0 38 0;
#X connect 212 0 38 0;
#X connect 213 0 38 0;
#X connect 214 0 211 0;
#X connect 215 0 212 0;
#X connect 216 0 213 0;
#X connect 217 0 48 0;
#X connect 217 1 49 0;
#X connect 217 2 50 0;
#X connect 217 3 51 0;
#X connect 217 4 52 0;
#X connect 217 5 53 0;
#X connect 217 6 54 0;
#X connect 217 7 55 0;
#X connect 217 8 68 0;
#X connect 217 9 69 0;
#X connect 217 10 70 0;
#X connect 217 11 71 0;
#X connect 217 12 72 0;
#X connect 217 13 73 0;
#X connect 217 14 74 0;
#X connect 217 15 75 0;
#X connect 217 16 149 0;
#X connect 217 17 150 0;
#X connect 217 18 151 0;
#X connect 217 19 152 0;
#X connect 217 20 153 0;
#X connect 217 21 154 0;
#X connect 217 22 208 0;
#X connect 217 23 210 0;
#X connect 217 24 76 0;
#X connect 217 25 77 0;
#X connect 217 26 78 0;
#X connect 217 27 79 0;
#X connect 217 28 99 0;
#X connect 217 29 86 0;
#X connect 217 30 87 0;
#X connect 217 31 88 0;
#X connect 217 32 89 0;
#X connect 217 33 92 0;
#X connect 217 34 93 0;
#X connect 217 35 95 0;
#X connect 217 36 161 0;
#X connect 217 37 96 0;
#X connect 217 38 97 0;
#X connect 217 39 131 0;
#X connect 217 40 81 0;
#X connect 217 41 100 0;
#X connect 217 42 101 0;
#X connect 217 43 132 0;
#X connect 217 44 155 0;
#X connect 217 45 156 0;
#X connect 217 46 157 0;
#X connect 217 47 158 0;
#X connect 217 48 163 0;
#X connect 217 49 183 0;
#X connect 217 50 182 0;
#X connect 217 51 184 0;
#X connect 217 52 185 0;
#X connect 217 53 218 0;
#X connect 217 54 219 0;
#X connect 217 55 220 0;
#X connect 217 56 205 0;
#X connect 224 0 227 0;
#X connect 225 0 227 0;
#X connect 226 0 227 0;
#X connect 227 0 129 0;
#X connect 228 0 227 0;
#X connect 229 0 227 0;
#X connect 230 0 231 0;
#X connect 231 0 227 0;
#X connect 232 0 233 0;
#X connect 233 0 234 0;
#X connect 233 1 235 0;
#X connect 234 0 237 0;
#X connect 235 0 236 0;
#X connect 236 0 237 0;
#X connect 237 0 244 0;
#X connect 238 0 239 0;
#X connect 238 1 240 0;
#X connect 239 0 243 0;
#X connect 240 0 241 0;
#X connect 241 0 243 0;
#X connect 242 0 238 0;
#X connect 243 0 244 0;
#X connect 244 0 227 0;
#X connect 245 0 244 1;
#X restore 244 -584 pd handle_presets;
#X obj 879 177 four_quad_pan_automations;
#X obj -831 510 t b b;
#X obj 1301 -328 loadbang;
#X obj 1272 -351 s lfo2_sync_\$0;
#X obj 1271 -311 r preset_lfo2_sync_\$0;
#X msg 1272 -329 0;
#X obj 1318 -261 loadbang;
#X msg 1289 -263 0;
#X obj 1288 -244 r preset_lfo2_phase_\$0;
#X obj 1289 -284 s lfo2_phase_\$0;
#X obj 1305 -216 r bang_\$0;
#X obj 1320 -185 r rst_\$0;
#X obj 1068 -333 loadbang;
#X msg 1039 -334 0;
#X obj 1085 -266 loadbang;
#X msg 1053 -270 0;
#X obj 1062 -220 r bang_\$0;
#X obj 1077 -189 r rst_\$0;
#X obj 1086 -160 s fdbk_lfo1_freq_\$0;
#X obj 1349 -79 s fdbk_lfo2_freq_\$0;
#X obj 1055 -249 r preset_lfo1_phase_\$0;
#X obj 1038 -316 r preset_lfo1_sync_\$0;
#X obj 1056 -289 s lfo1_phase_\$0;
#X obj 1040 -356 s lfo1_sync_\$0;
#X obj 1257 305 s feedback_sync_name_\$0;
#X obj -176 -124 r control_440_go_\$0;
#X obj 632 321 s trigger_rngs_\$0;
#X msg 637 288 60;
#X obj 44 -257 s all_notes_off_\$0;
#X obj 44 -283 bng 20 250 50 0 empty empty empty 0 -10 0 12 #fcfcfc #000000 #000000;
#X obj 50 -494 s load_init_\$0;
#X obj -169 -30 makenote 100 1000;
#X msg -170 -53 69;
#X obj -169 -6 pack 0 0;
#X obj -167 19 s note_in_\$0;
#X obj 696 298 r ctrl_rngs_transp_rst_\$0;
#X obj 421 113 hsl 170 20 0 1 0 0 empty empty empty -2 -10 0 12 #fcfcfc #000000 #000000 0 1;
#X obj -105 590 poly 1 1;
#X obj -75 761 s to_synth_4_\$0;
#X obj -103 735 s to_synth_3_\$0;
#X obj 688 1142 r detune_1_\$0;
#X obj 1612 1165 r detune_2_\$0;
#X obj 2556 1175 r detune_3_\$0;
#X obj 3542 1192 r detune_4_\$0;
#X msg -632 262 1;
#X msg -632 287 0;
#X text -701 225 all on;
#X text -711 275 first 4 on;
#X obj 419 71 s detune_main_\$0;
#X obj 419 45 r preset_detune_main_\$0;
#X obj -874 275 * -1;
#X obj -888 231 * 40;
#X obj -822 277 s detune_1_\$0;
#X obj -862 304 s detune_2_\$0;
#X obj -839 372 s detune_3_\$0;
#X obj -878 403 s detune_4_\$0;
#X obj -896 371 * -1;
#X obj -888 332 * 0.5;
#X obj -986 -10 r detune_main_\$0;
#X obj -862 -10 r mono_\$0;
#X text -659 19 0 - poly (1 osc \, 8 voices) \; 1 - poly detune (2 osc \, 4 voices) \; 2 - mono detune (2 osc \, 1 voice) \;;
#X obj -645 128 sel 0 1 2;
#X obj -1054 343 * -1;
#X obj -1047 190 * 40;
#X obj -1018 225 s detune_1_\$0;
#X obj -309 779 s to_synth_2_\$0;
#X obj -309 819 s to_synth_3_\$0;
#X obj -302 864 s to_synth_4_\$0;
#X obj -317 653 pack f f f;
#X obj -305 758 s to_synth_5_\$0;
#X obj -308 800 s to_synth_6_\$0;
#X obj -304 840 s to_synth_7_\$0;
#X obj -301 883 s to_synth_8_\$0;
#X obj -304 736 s to_synth_1_\$0;
#X obj -308 505 spigot;
#X obj -345 561 r to_poly_\$0;
#X obj -267 454 == 1;
#X obj -147 444 == 2;
#X obj -310 623 poly 4 1;
#X obj -317 686 route 1 2 3 4;
#X obj -987 26 f;
#X obj -986 137 spigot;
#X obj -887 160 spigot;
#X obj -905 18 t b f;
#X obj 162 110 hradio 20 1 0 3 empty empty empty 0 -10 0 12 #fcfcfc #000000 #000000 0;
#X obj 694 1604 r detune_5_\$0;
#X obj 1659 1664 r detune_6_\$0;
#X obj 2622 1659 r detune_7_\$0;
#X obj 3587 1632 r detune_8_\$0;
#X msg -1056 156 0;
#X obj -953 88 == 1;
#X obj -1058 122 spigot;
#X obj -854 111 == 2;
#X obj -1022 93 == 0;
#X obj -1018 400 s detune_5_\$0;
#X obj -1018 425 s detune_6_\$0;
#X obj -1018 451 s detune_7_\$0;
#X obj -1018 476 s detune_8_\$0;
#X obj -1019 248 s detune_2_\$0;
#X obj -1018 275 s detune_3_\$0;
#X obj -1018 298 s detune_4_\$0;
#X obj 833 1918 sel 0 1 2;
#X msg 881 1960 1;
#X msg 835 1962 0.5;
#X obj -94 653 route 1;
#X obj 1011 1980 *;
#X obj 986 1906 pow 2;
#X obj 350 154 vsl 10 100 0 1 0 0 empty empty dw 0 -9 1 12 #000000 #ffffff #7c7c7c 0 1;
#X obj 372 -198 loadbang;
#X msg 343 -199 0;
#X obj 344 -218 s fold_mix_\$0;
#X obj 344 -177 r preset_fold_mix_\$0;
#X obj 319 -286 s fold_frq_\$0;
#X obj 320 -246 r preset_fold_frq_\$0;
#X obj 58 2574 outlet~;
#X obj 126 2575 outlet~;
#X obj 198 2574 outlet~;
#X obj 266 2575 outlet~;
#X obj 95 2491 vumeter, f 25;
#X obj 580 157 vsl 10 100 0 1 0 0 empty empty th 0 -9 1 12 #000000 #ffffff #7c7c7c 0 1;
#X obj 594 157 vsl 10 100 0 1 0 0 empty empty rt 0 -9 1 12 #000000 #ffffff #7c7c7c 0 1;
#X obj 609 157 vsl 10 100 0 1 0 0 empty empty gn 0 -9 1 12 #000000 #ffffff #7c7c7c 0 1;
#X obj 584 -602 loadbang;
#X obj 556 -622 s comp_thr_\$0;
#X obj 557 -580 r preset_comp_thr_\$0;
#X obj 608 -533 loadbang;
#X msg 579 -534 0;
#X obj 580 -553 s comp_ratio_\$0;
#X obj 581 -511 r preset_comp_ratio_\$0;
#X obj 637 -462 loadbang;
#X msg 608 -463 0;
#X msg 555 -603 1;
#X obj 609 -482 s comp_gain_\$0;
#X obj 610 -440 r preset_comp_gain_\$0;
#X msg 1236 562 1;
#X obj 368 2084 compressor;
#X obj 401 2023 r comp_ratio_\$0;
#X obj 394 1999 r comp_thr_\$0;
#X obj 414 2045 r comp_gain_\$0;
#X obj 198 2086 compressor;
#X obj 231 2025 r comp_ratio_\$0;
#X obj 224 2001 r comp_thr_\$0;
#X obj 244 2047 r comp_gain_\$0;
#X obj 47 2087 compressor;
#X obj 80 2026 r comp_ratio_\$0;
#X obj 73 2002 r comp_thr_\$0;
#X obj 93 2048 r comp_gain_\$0;
#X obj -108 2082 compressor;
#X obj -75 2021 r comp_ratio_\$0;
#X obj -82 1997 r comp_thr_\$0;
#X obj -62 2043 r comp_gain_\$0;
#X obj 246 -549 declare -path ./brds_synth_abs;
#X obj 689 2242 s fbk_compressor_on_\$0;
#X msg 686 2191 1;
#X obj 686 2216 change;
#X msg 729 2192 0;
#X obj 683 2163 sel 1;
#X obj 729 2167 delay 40;
#X obj 612 60 r fbk_compressor_on_\$0;
#X obj 609 111 tgl 20 0 empty empty empty 0 -10 0 12 #fcfcfc #000000 #000000 0 1;
#X obj 384 2444 r vumeter_\$0;
#X obj -544 -561 route bang_bpm rst instance_id load save osc_name osc current_path notes init vumeter, f 99;
#X obj 144 -519 s vumeter_\$0;
#X obj 97 -638 loadbang;
#X msg 97 -614 1;
#X obj 932 554 s fbk_lfo1_cycle_\$0;
#X obj 987 617 s fbk_lfo2_cycle_\$0;
#X obj 953 137 bng 20 250 50 0 empty empty empty 0 -10 0 12 #fcfcfc #000000 #000000;
#X obj 1080 136 bng 20 250 50 0 empty empty empty 0 -10 0 12 #fcfcfc #000000 #000000;
#X connect 0 0 2 1;
#X connect 0 0 1 1;
#X connect 0 0 27 0;
#X connect 1 0 7 0;
#X connect 2 0 8 0;
#X connect 3 0 0 0;
#X connect 4 0 255 0;
#X connect 5 0 256 0;
#X connect 6 0 0 0;
#X connect 7 0 6 0;
#X connect 8 0 3 0;
#X connect 9 0 10 0;
#X connect 10 0 0 0;
#X connect 11 0 20 0;
#X connect 12 0 21 0;
#X connect 13 0 22 0;
#X connect 14 0 23 0;
#X connect 15 0 24 0;
#X connect 16 0 25 0;
#X connect 17 0 26 0;
#X connect 18 0 87 0;
#X connect 19 0 89 0;
#X connect 30 0 28 0;
#X connect 31 0 29 0;
#X connect 35 0 119 0;
#X connect 36 0 811 0;
#X connect 37 0 38 0;
#X connect 38 0 259 0;
#X connect 39 0 187 0;
#X connect 40 0 60 0;
#X connect 41 0 11 0;
#X connect 42 0 62 0;
#X connect 43 0 12 0;
#X connect 44 0 45 0;
#X connect 45 0 13 0;
#X connect 46 0 139 0;
#X connect 47 0 61 0;
#X connect 48 0 49 0;
#X connect 49 0 16 0;
#X connect 50 0 59 0;
#X connect 51 0 13 0;
#X connect 52 0 14 0;
#X connect 53 0 15 0;
#X connect 54 0 16 0;
#X connect 55 0 17 0;
#X connect 56 0 134 0;
#X connect 57 0 99 0;
#X connect 58 0 133 0;
#X connect 59 0 17 0;
#X connect 60 0 11 0;
#X connect 61 0 15 0;
#X connect 62 0 12 0;
#X connect 63 0 65 0;
#X connect 64 0 798 0;
#X connect 66 0 63 0;
#X connect 68 0 254 0;
#X connect 69 0 0 0;
#X connect 70 0 73 0;
#X connect 71 0 72 0;
#X connect 72 0 70 0;
#X connect 74 0 70 0;
#X connect 75 0 81 0;
#X connect 76 0 83 0;
#X connect 77 0 78 0;
#X connect 78 0 75 0;
#X connect 79 0 80 0;
#X connect 80 0 76 0;
#X connect 82 0 75 0;
#X connect 84 0 76 0;
#X connect 86 0 91 0;
#X connect 88 0 18 0;
#X connect 90 0 19 0;
#X connect 91 0 85 0;
#X connect 99 0 19 0;
#X connect 100 0 108 0;
#X connect 101 0 111 0;
#X connect 102 0 112 0;
#X connect 103 0 114 0;
#X connect 104 0 135 0;
#X connect 105 0 136 0;
#X connect 106 0 137 0;
#X connect 107 0 138 0;
#X connect 109 0 100 0;
#X connect 110 0 101 0;
#X connect 113 0 102 0;
#X connect 115 0 103 0;
#X connect 118 0 35 0;
#X connect 118 1 35 1;
#X connect 118 2 35 2;
#X connect 119 0 126 0;
#X connect 119 1 32 0;
#X connect 119 2 33 0;
#X connect 119 3 34 0;
#X connect 119 4 120 0;
#X connect 119 5 121 0;
#X connect 119 6 122 0;
#X connect 119 7 123 0;
#X connect 124 0 190 0;
#X connect 125 0 768 0;
#X connect 128 0 118 0;
#X connect 129 0 701 0;
#X connect 130 0 701 0;
#X connect 131 0 118 0;
#X connect 132 0 128 1;
#X connect 133 0 91 0;
#X connect 134 0 18 0;
#X connect 135 0 100 0;
#X connect 136 0 101 0;
#X connect 137 0 102 0;
#X connect 138 0 103 0;
#X connect 139 0 14 0;
#X connect 147 0 748 0;
#X connect 148 0 147 0;
#X connect 150 0 146 0;
#X connect 150 0 145 0;
#X connect 150 0 144 0;
#X connect 150 0 143 0;
#X connect 150 0 142 0;
#X connect 150 0 141 0;
#X connect 150 0 140 0;
#X connect 150 0 149 0;
#X connect 152 0 188 0;
#X connect 153 0 189 0;
#X connect 154 0 807 0;
#X connect 155 0 803 0;
#X connect 156 0 799 0;
#X connect 157 0 811 0;
#X connect 158 0 807 0;
#X connect 159 0 803 0;
#X connect 160 0 799 0;
#X connect 161 0 770 0;
#X connect 162 0 769 0;
#X connect 162 1 769 1;
#X connect 163 0 164 0;
#X connect 164 0 39 1;
#X connect 164 0 152 1;
#X connect 164 0 153 1;
#X connect 164 0 124 1;
#X connect 165 0 162 0;
#X connect 166 0 748 0;
#X connect 168 0 132 0;
#X connect 168 0 740 0;
#X connect 168 0 741 0;
#X connect 169 0 725 0;
#X connect 170 0 765 0;
#X connect 177 0 664 8;
#X connect 178 0 664 7;
#X connect 179 0 664 6;
#X connect 180 0 664 4;
#X connect 181 0 664 5;
#X connect 182 0 664 3;
#X connect 183 0 664 0;
#X connect 184 0 664 1;
#X connect 187 0 782 0;
#X connect 187 1 782 1;
#X connect 187 2 782 2;
#X connect 187 3 782 3;
#X connect 188 0 782 0;
#X connect 188 1 782 1;
#X connect 188 2 782 2;
#X connect 188 3 782 3;
#X connect 189 0 782 0;
#X connect 189 1 782 1;
#X connect 189 2 782 2;
#X connect 189 3 782 3;
#X connect 190 0 782 0;
#X connect 190 1 782 1;
#X connect 190 2 782 2;
#X connect 190 3 782 3;
#X connect 191 0 187 1;
#X connect 192 0 187 2;
#X connect 193 0 188 1;
#X connect 194 0 188 2;
#X connect 195 0 189 1;
#X connect 196 0 189 2;
#X connect 197 0 190 2;
#X connect 198 0 190 1;
#X connect 208 0 632 0;
#X connect 209 0 210 0;
#X connect 211 0 212 0;
#X connect 212 0 215 0;
#X connect 213 0 214 0;
#X connect 214 0 215 0;
#X connect 216 0 665 0;
#X connect 217 1 218 0;
#X connect 217 3 228 0;
#X connect 217 4 224 0;
#X connect 217 5 226 0;
#X connect 217 6 232 0;
#X connect 217 7 687 0;
#X connect 217 8 686 0;
#X connect 217 9 682 0;
#X connect 217 10 829 0;
#X connect 217 10 831 0;
#X connect 219 0 213 0;
#X connect 219 1 211 0;
#X connect 220 0 230 0;
#X connect 221 0 222 0;
#X connect 222 0 217 1;
#X connect 223 0 235 0;
#X connect 225 0 217 1;
#X connect 227 0 217 2;
#X connect 229 0 217 0;
#X connect 230 0 217 0;
#X connect 231 0 234 0;
#X connect 233 0 217 3;
#X connect 234 0 217 3;
#X connect 235 0 217 2;
#X connect 236 1 245 0;
#X connect 236 3 253 0;
#X connect 236 4 251 0;
#X connect 236 5 248 0;
#X connect 236 6 247 0;
#X connect 236 7 667 0;
#X connect 236 8 673 0;
#X connect 236 9 683 0;
#X connect 236 10 830 0;
#X connect 236 10 832 0;
#X connect 237 0 241 0;
#X connect 238 0 239 0;
#X connect 239 0 236 1;
#X connect 240 0 244 0;
#X connect 241 0 236 0;
#X connect 242 0 243 0;
#X connect 243 0 236 3;
#X connect 244 0 236 2;
#X connect 246 0 236 3;
#X connect 249 0 236 2;
#X connect 250 0 236 1;
#X connect 252 0 236 0;
#X connect 254 0 67 0;
#X connect 255 0 1 0;
#X connect 256 0 2 0;
#X connect 257 0 664 10;
#X connect 258 0 664 9;
#X connect 262 0 664 11;
#X connect 263 0 274 0;
#X connect 264 0 275 0;
#X connect 265 0 276 0;
#X connect 266 0 277 0;
#X connect 267 0 278 0;
#X connect 268 0 280 0;
#X connect 269 0 279 0;
#X connect 270 0 271 0;
#X connect 281 0 263 0;
#X connect 282 0 264 0;
#X connect 283 0 265 0;
#X connect 284 0 266 0;
#X connect 285 0 267 0;
#X connect 286 0 269 0;
#X connect 287 0 268 0;
#X connect 288 0 335 0;
#X connect 289 0 270 0;
#X connect 290 0 334 0;
#X connect 292 0 383 0;
#X connect 292 1 301 0;
#X connect 293 0 292 3;
#X connect 294 0 292 2;
#X connect 295 0 292 5;
#X connect 296 0 292 6;
#X connect 297 0 292 7;
#X connect 298 0 292 8;
#X connect 299 0 292 9;
#X connect 300 0 292 4;
#X connect 302 0 292 10;
#X connect 303 0 292 11;
#X connect 304 0 292 18;
#X connect 305 0 292 19;
#X connect 306 0 292 20;
#X connect 307 0 292 32;
#X connect 308 0 292 33;
#X connect 309 0 292 1;
#X connect 310 0 292 13;
#X connect 311 0 292 14;
#X connect 312 0 292 15;
#X connect 313 0 292 16;
#X connect 314 0 292 35;
#X connect 315 0 292 17;
#X connect 316 0 292 34;
#X connect 317 0 292 23;
#X connect 318 0 292 24;
#X connect 319 0 292 25;
#X connect 320 0 292 26;
#X connect 321 0 292 27;
#X connect 322 0 292 28;
#X connect 323 0 292 29;
#X connect 324 0 292 30;
#X connect 325 0 292 31;
#X connect 326 0 292 22;
#X connect 327 0 292 21;
#X connect 328 0 329 0;
#X connect 329 0 696 0;
#X connect 330 0 263 0;
#X connect 331 0 691 0;
#X connect 332 0 330 0;
#X connect 333 0 628 0;
#X connect 334 0 272 0;
#X connect 335 0 273 0;
#X connect 342 0 776 0;
#X connect 343 0 344 0;
#X connect 344 0 342 0;
#X connect 345 0 292 12;
#X connect 346 0 386 0;
#X connect 347 0 346 3;
#X connect 348 0 346 2;
#X connect 349 0 346 5;
#X connect 350 0 346 6;
#X connect 351 0 346 7;
#X connect 352 0 346 8;
#X connect 353 0 346 9;
#X connect 354 0 346 4;
#X connect 355 0 346 10;
#X connect 356 0 346 11;
#X connect 357 0 346 18;
#X connect 358 0 346 19;
#X connect 359 0 346 20;
#X connect 360 0 346 32;
#X connect 361 0 346 33;
#X connect 362 0 346 1;
#X connect 363 0 346 13;
#X connect 364 0 346 14;
#X connect 365 0 346 15;
#X connect 366 0 346 16;
#X connect 367 0 346 35;
#X connect 368 0 346 17;
#X connect 369 0 346 34;
#X connect 370 0 346 23;
#X connect 371 0 346 24;
#X connect 372 0 346 25;
#X connect 373 0 346 26;
#X connect 374 0 346 27;
#X connect 375 0 346 28;
#X connect 376 0 346 29;
#X connect 377 0 346 30;
#X connect 378 0 346 31;
#X connect 379 0 346 22;
#X connect 380 0 346 21;
#X connect 381 0 346 12;
#X connect 382 0 292 0;
#X connect 384 0 292 36;
#X connect 385 0 346 0;
#X connect 387 0 346 36;
#X connect 388 0 425 0;
#X connect 389 0 388 3;
#X connect 390 0 388 2;
#X connect 391 0 388 5;
#X connect 392 0 388 6;
#X connect 393 0 388 7;
#X connect 394 0 388 8;
#X connect 395 0 388 9;
#X connect 396 0 388 4;
#X connect 397 0 388 10;
#X connect 398 0 388 11;
#X connect 399 0 388 18;
#X connect 400 0 388 19;
#X connect 401 0 388 20;
#X connect 402 0 388 32;
#X connect 403 0 388 33;
#X connect 404 0 388 1;
#X connect 405 0 388 13;
#X connect 406 0 388 14;
#X connect 407 0 388 15;
#X connect 408 0 388 16;
#X connect 409 0 388 35;
#X connect 410 0 388 17;
#X connect 411 0 388 34;
#X connect 412 0 388 23;
#X connect 413 0 388 24;
#X connect 414 0 388 25;
#X connect 415 0 388 26;
#X connect 416 0 388 27;
#X connect 417 0 388 28;
#X connect 418 0 388 29;
#X connect 419 0 388 30;
#X connect 420 0 388 31;
#X connect 421 0 388 22;
#X connect 422 0 388 21;
#X connect 423 0 388 12;
#X connect 424 0 388 0;
#X connect 426 0 388 36;
#X connect 427 0 464 0;
#X connect 428 0 427 3;
#X connect 429 0 427 2;
#X connect 430 0 427 5;
#X connect 431 0 427 6;
#X connect 432 0 427 7;
#X connect 433 0 427 8;
#X connect 434 0 427 9;
#X connect 435 0 427 4;
#X connect 436 0 427 10;
#X connect 437 0 427 11;
#X connect 438 0 427 18;
#X connect 439 0 427 19;
#X connect 440 0 427 20;
#X connect 441 0 427 32;
#X connect 442 0 427 33;
#X connect 443 0 427 1;
#X connect 444 0 427 13;
#X connect 445 0 427 14;
#X connect 446 0 427 15;
#X connect 447 0 427 16;
#X connect 448 0 427 35;
#X connect 449 0 427 17;
#X connect 450 0 427 34;
#X connect 451 0 427 23;
#X connect 452 0 427 24;
#X connect 453 0 427 25;
#X connect 454 0 427 26;
#X connect 455 0 427 27;
#X connect 456 0 427 28;
#X connect 457 0 427 29;
#X connect 458 0 427 30;
#X connect 459 0 427 31;
#X connect 460 0 427 22;
#X connect 461 0 427 21;
#X connect 462 0 427 12;
#X connect 463 0 427 0;
#X connect 465 0 427 36;
#X connect 466 0 503 0;
#X connect 467 0 466 3;
#X connect 468 0 466 2;
#X connect 469 0 466 5;
#X connect 470 0 466 6;
#X connect 471 0 466 7;
#X connect 472 0 466 8;
#X connect 473 0 466 9;
#X connect 474 0 466 4;
#X connect 475 0 466 10;
#X connect 476 0 466 11;
#X connect 477 0 466 18;
#X connect 478 0 466 19;
#X connect 479 0 466 20;
#X connect 480 0 466 32;
#X connect 481 0 466 33;
#X connect 482 0 466 1;
#X connect 483 0 466 13;
#X connect 484 0 466 14;
#X connect 485 0 466 15;
#X connect 486 0 466 16;
#X connect 487 0 466 35;
#X connect 488 0 466 17;
#X connect 489 0 466 34;
#X connect 490 0 466 23;
#X connect 491 0 466 24;
#X connect 492 0 466 25;
#X connect 493 0 466 26;
#X connect 494 0 466 27;
#X connect 495 0 466 28;
#X connect 496 0 466 29;
#X connect 497 0 466 30;
#X connect 498 0 466 31;
#X connect 499 0 466 22;
#X connect 500 0 466 21;
#X connect 501 0 466 12;
#X connect 502 0 466 0;
#X connect 504 0 466 36;
#X connect 505 0 542 0;
#X connect 506 0 505 3;
#X connect 507 0 505 2;
#X connect 508 0 505 5;
#X connect 509 0 505 6;
#X connect 510 0 505 7;
#X connect 511 0 505 8;
#X connect 512 0 505 9;
#X connect 513 0 505 4;
#X connect 514 0 505 10;
#X connect 515 0 505 11;
#X connect 516 0 505 18;
#X connect 517 0 505 19;
#X connect 518 0 505 20;
#X connect 519 0 505 32;
#X connect 520 0 505 33;
#X connect 521 0 505 1;
#X connect 522 0 505 13;
#X connect 523 0 505 14;
#X connect 524 0 505 15;
#X connect 525 0 505 16;
#X connect 526 0 505 35;
#X connect 527 0 505 17;
#X connect 528 0 505 34;
#X connect 529 0 505 23;
#X connect 530 0 505 24;
#X connect 531 0 505 25;
#X connect 532 0 505 26;
#X connect 533 0 505 27;
#X connect 534 0 505 28;
#X connect 535 0 505 29;
#X connect 536 0 505 30;
#X connect 537 0 505 31;
#X connect 538 0 505 22;
#X connect 539 0 505 21;
#X connect 540 0 505 12;
#X connect 541 0 505 0;
#X connect 543 0 505 36;
#X connect 544 0 581 0;
#X connect 545 0 544 3;
#X connect 546 0 544 2;
#X connect 547 0 544 5;
#X connect 548 0 544 6;
#X connect 549 0 544 7;
#X connect 550 0 544 8;
#X connect 551 0 544 9;
#X connect 552 0 544 4;
#X connect 553 0 544 10;
#X connect 554 0 544 11;
#X connect 555 0 544 18;
#X connect 556 0 544 19;
#X connect 557 0 544 20;
#X connect 558 0 544 32;
#X connect 559 0 544 33;
#X connect 560 0 544 1;
#X connect 561 0 544 13;
#X connect 562 0 544 14;
#X connect 563 0 544 15;
#X connect 564 0 544 16;
#X connect 565 0 544 35;
#X connect 566 0 544 17;
#X connect 567 0 544 34;
#X connect 568 0 544 23;
#X connect 569 0 544 24;
#X connect 570 0 544 25;
#X connect 571 0 544 26;
#X connect 572 0 544 27;
#X connect 573 0 544 28;
#X connect 574 0 544 29;
#X connect 575 0 544 30;
#X connect 576 0 544 31;
#X connect 577 0 544 22;
#X connect 578 0 544 21;
#X connect 579 0 544 12;
#X connect 580 0 544 0;
#X connect 582 0 544 36;
#X connect 583 0 621 0;
#X connect 584 0 583 3;
#X connect 585 0 583 2;
#X connect 586 0 583 5;
#X connect 587 0 583 6;
#X connect 588 0 583 7;
#X connect 589 0 583 8;
#X connect 590 0 583 9;
#X connect 591 0 583 4;
#X connect 592 0 583 10;
#X connect 593 0 583 11;
#X connect 594 0 583 18;
#X connect 595 0 583 19;
#X connect 596 0 583 20;
#X connect 597 0 583 32;
#X connect 598 0 583 33;
#X connect 599 0 583 1;
#X connect 600 0 583 13;
#X connect 601 0 583 14;
#X connect 602 0 583 15;
#X connect 603 0 583 16;
#X connect 604 0 583 35;
#X connect 605 0 583 17;
#X connect 606 0 583 34;
#X connect 607 0 583 23;
#X connect 608 0 583 24;
#X connect 609 0 583 25;
#X connect 610 0 583 26;
#X connect 611 0 583 27;
#X connect 612 0 583 28;
#X connect 613 0 583 29;
#X connect 614 0 583 30;
#X connect 615 0 583 31;
#X connect 616 0 583 22;
#X connect 617 0 583 21;
#X connect 618 0 583 12;
#X connect 619 0 583 36;
#X connect 620 0 583 0;
#X connect 623 0 664 12;
#X connect 624 0 629 0;
#X connect 624 1 629 1;
#X connect 625 1 627 0;
#X connect 626 0 291 0;
#X connect 626 0 631 0;
#X connect 627 0 626 0;
#X connect 628 0 291 0;
#X connect 629 0 625 0;
#X connect 629 1 626 1;
#X connect 630 0 664 13;
#X connect 632 0 633 0;
#X connect 632 1 624 0;
#X connect 632 1 129 0;
#X connect 632 1 128 0;
#X connect 632 1 738 0;
#X connect 642 0 641 0;
#X connect 642 0 634 0;
#X connect 642 0 635 0;
#X connect 642 0 636 0;
#X connect 642 0 637 0;
#X connect 642 0 638 0;
#X connect 642 0 639 0;
#X connect 642 0 640 0;
#X connect 643 0 825 0;
#X connect 649 0 648 0;
#X connect 651 0 654 0;
#X connect 653 0 652 0;
#X connect 654 0 653 0;
#X connect 654 1 657 0;
#X connect 655 0 653 0;
#X connect 656 0 659 0;
#X connect 657 0 655 0;
#X connect 658 0 657 1;
#X connect 659 0 658 0;
#X connect 661 0 649 1;
#X connect 664 0 199 0;
#X connect 664 1 200 0;
#X connect 664 2 201 0;
#X connect 664 3 202 0;
#X connect 664 4 203 0;
#X connect 664 5 204 0;
#X connect 664 6 205 0;
#X connect 664 7 206 0;
#X connect 664 8 171 0;
#X connect 664 9 172 0;
#X connect 664 10 173 0;
#X connect 664 11 174 0;
#X connect 664 12 175 0;
#X connect 664 13 176 0;
#X connect 664 14 261 0;
#X connect 664 15 260 0;
#X connect 664 16 622 0;
#X connect 664 17 688 0;
#X connect 665 0 219 0;
#X connect 665 1 642 0;
#X connect 666 0 669 0;
#X connect 668 0 236 4;
#X connect 669 0 236 4;
#X connect 670 0 671 0;
#X connect 671 0 236 5;
#X connect 672 0 236 5;
#X connect 674 0 236 6;
#X connect 675 0 236 7;
#X connect 676 0 677 0;
#X connect 677 0 217 4;
#X connect 678 0 679 0;
#X connect 679 0 217 5;
#X connect 680 0 217 6;
#X connect 681 0 217 7;
#X connect 684 0 217 5;
#X connect 685 0 217 4;
#X connect 689 0 329 0;
#X connect 691 0 690 0;
#X connect 693 0 692 0;
#X connect 695 0 697 0;
#X connect 695 1 697 1;
#X connect 696 0 695 0;
#X connect 697 0 698 0;
#X connect 699 0 330 0;
#X connect 700 0 712 0;
#X connect 701 0 125 0;
#X connect 701 1 125 1;
#X connect 701 2 125 2;
#X connect 704 0 292 37;
#X connect 705 0 346 37;
#X connect 706 0 388 37;
#X connect 707 0 427 37;
#X connect 708 0 709 0;
#X connect 708 0 146 0;
#X connect 708 0 145 0;
#X connect 708 0 144 0;
#X connect 708 0 143 0;
#X connect 709 0 142 0;
#X connect 709 0 141 0;
#X connect 709 0 140 0;
#X connect 709 0 149 0;
#X connect 713 0 700 0;
#X connect 714 0 717 0;
#X connect 715 0 714 0;
#X connect 715 0 716 0;
#X connect 715 0 721 0;
#X connect 720 0 719 0;
#X connect 721 0 720 0;
#X connect 721 0 718 0;
#X connect 722 0 744 0;
#X connect 723 0 747 0;
#X connect 725 0 150 0;
#X connect 725 1 150 0;
#X connect 725 2 708 0;
#X connect 726 0 758 0;
#X connect 726 0 759 0;
#X connect 726 0 760 0;
#X connect 726 0 761 0;
#X connect 727 0 726 0;
#X connect 727 0 728 0;
#X connect 727 0 762 0;
#X connect 727 0 763 0;
#X connect 727 0 764 0;
#X connect 732 0 743 0;
#X connect 738 0 742 0;
#X connect 739 0 742 0;
#X connect 740 0 738 1;
#X connect 741 0 129 1;
#X connect 742 0 732 0;
#X connect 742 1 732 1;
#X connect 742 2 732 2;
#X connect 743 0 737 0;
#X connect 743 0 733 0;
#X connect 743 1 729 0;
#X connect 743 1 734 0;
#X connect 743 2 730 0;
#X connect 743 2 735 0;
#X connect 743 3 731 0;
#X connect 743 3 736 0;
#X connect 744 0 745 0;
#X connect 744 0 746 0;
#X connect 744 0 755 0;
#X connect 745 0 727 0;
#X connect 746 0 715 0;
#X connect 747 0 744 0;
#X connect 747 1 754 0;
#X connect 747 1 756 0;
#X connect 747 1 757 0;
#X connect 748 0 167 0;
#X connect 748 0 693 0;
#X connect 749 0 583 37;
#X connect 750 0 544 37;
#X connect 751 0 505 37;
#X connect 752 0 466 37;
#X connect 753 0 727 0;
#X connect 754 0 745 1;
#X connect 755 0 753 0;
#X connect 756 0 746 1;
#X connect 757 0 755 1;
#X connect 765 0 165 0;
#X connect 765 1 767 0;
#X connect 765 2 766 0;
#X connect 766 0 162 0;
#X connect 767 0 162 0;
#X connect 768 0 127 0;
#X connect 768 0 151 0;
#X connect 768 0 703 0;
#X connect 768 0 702 0;
#X connect 769 0 163 0;
#X connect 770 0 769 0;
#X connect 771 0 774 0;
#X connect 772 0 773 0;
#X connect 773 0 771 0;
#X connect 775 0 771 0;
#X connect 777 0 342 0;
#X connect 782 0 778 0;
#X connect 782 1 779 0;
#X connect 782 2 780 0;
#X connect 782 3 781 0;
#X connect 782 4 654 0;
#X connect 783 0 787 0;
#X connect 784 0 791 0;
#X connect 785 0 796 0;
#X connect 786 0 795 0;
#X connect 788 0 783 0;
#X connect 789 0 790 0;
#X connect 790 0 784 0;
#X connect 792 0 784 0;
#X connect 793 0 794 0;
#X connect 794 0 785 0;
#X connect 795 0 783 0;
#X connect 797 0 785 0;
#X connect 798 0 63 0;
#X connect 799 0 124 0;
#X connect 799 4 820 0;
#X connect 800 0 799 2;
#X connect 801 0 799 1;
#X connect 802 0 799 3;
#X connect 803 0 153 0;
#X connect 803 4 820 0;
#X connect 804 0 803 2;
#X connect 805 0 803 1;
#X connect 806 0 803 3;
#X connect 807 0 152 0;
#X connect 807 4 820 0;
#X connect 808 0 807 2;
#X connect 809 0 807 1;
#X connect 810 0 807 3;
#X connect 811 0 39 0;
#X connect 811 4 820 0;
#X connect 812 0 811 2;
#X connect 813 0 811 1;
#X connect 814 0 811 3;
#X connect 817 0 818 0;
#X connect 818 0 816 0;
#X connect 819 0 818 0;
#X connect 820 0 817 0;
#X connect 820 0 821 0;
#X connect 821 0 819 0;
#X connect 822 0 823 0;
#X connect 824 0 782 4;
#X connect 825 0 185 0;
#X connect 825 1 186 0;
#X connect 825 2 646 0;
#X connect 825 3 645 0;
#X connect 825 4 644 0;
#X connect 825 5 650 0;
#X connect 825 6 649 0;
#X connect 825 7 662 0;
#X connect 825 8 207 0;
#X connect 825 9 694 0;
#X connect 825 10 826 0;
#X connect 827 0 828 0;
#X connect 828 0 826 0;
#X coords 0 -1 1 1 1120 170 2 100 100;
