#N canvas 66 241 1390 788 12;
#X text 302 117 ext_bang;
#X text 420 118 ext_rst;
#X text 548 122 load_save;
#X obj 533 147 r load_save;
#X obj 440 146 r rst;
#X obj 667 147 r control;
#X text 673 119 control;
#X obj 339 525 s note_out;
#X obj 486 527 s all_notes_off;
#X obj 136 265 chord_seq;
#X obj 293 146 r bang_bpm;
#X connect 3 0 9 2;
#X connect 4 0 9 1;
#X connect 5 0 9 3;
#X connect 9 0 7 0;
#X connect 9 1 8 0;
#X connect 10 0 9 0;
#X coords 0 788 1 787 1010 150 0;
