#N canvas 486 121 1390 805 10;
#X declare -path ./chord_seq_abs;
#X declare -path ./commons;
#X obj 104 2 generaa;
#X obj 796 3 restringea;
#X obj 598 5 tagliaa;
#X obj 205 4 vocia;
#X obj 327 3 trasponea;
#X msg 578 590 1;
#X obj 302 491 i;
#X obj 360 491 + 1;
#X msg 339 466 0;
#X obj 311 519 % 16;
#X obj -166 1575 outlet;
#X obj 3 2 internal_sync;
#X obj -214 258 s bang_\$0;
#X obj -149 244 s rst_\$0;
#X obj 327 442 r rst_\$0;
#X obj 300 420 r bang_\$0;
#X obj 300 442 bng 18 250 50 0 empty empty empty 0 -9 0 10 #fcfcfc #000000 #000000;
#X obj 435 459 * 8;
#X obj -188 796 moses 1;
#X obj -207 998 s note_out_\$0;
#X obj -166 1553 r note_out_\$0;
#X obj -153 305 s all_notes_off_\$0;
#X obj -117 1455 r all_notes_off_\$0;
#X floatatom 240 569 5 0 0 0 - - - 0;
#X obj 413 435 r ChordBarLength;
#X obj 342 195 s scale_\$0;
#X obj 381 155 s octave_\$0;
#X obj 359 173 s tonality_\$0;
#X obj 310 -373 r preset_scale_\$0;
#X obj 323 -350 r preset_tonality_\$0;
#X obj 338 -329 r preset_octave_\$0;
#X obj 222 -85 r preset_chord_type_\$0;
#X obj 435 481 s full_table_length_\$0;
#X obj 357 534 r full_table_length_\$0;
#X obj 197 -116 r build_loaded_seq_\$0;
#X obj 1004 116 s num_of_notes_for_chord_\$0;
#X msg 1001 84 4;
#X obj 1022 61 loadbang;
#N canvas 238 361 1390 805 ottava 0;
#X obj 547 88 until;
#X obj 546 127 f;
#X obj 585 124 + 1;
#X obj 547 37 t b b;
#X msg 586 88 0;
#X obj 528 9 t b b b;
#X obj 105 105 bng 18 250 50 0 empty empty empty 0 -9 0 10 #fcfcfc #000000 #000000;
#X msg 540 287 symbol accpnsvt\$1;
#X obj 982 10 r num_of_notes_for_chord_\$0;
#X obj 706 515 array define accpnsvto0;
#X obj 717 533 array define accpnsvto1;
#X obj 728 549 array define accpnsvto2;
#X obj 739 565 array define accpnsvto3;
#X obj 751 581 array define accpnsvto4;
#X obj 763 597 array define accpnsvto5;
#X obj 774 614 array define accpnsvto6;
#X obj 498 412 until;
#X obj 498 435 i;
#X obj 538 435 + 1;
#X msg 546 411 0;
#X obj 422 536 sel 0;
#X obj 479 472 t f f;
#X msg 567 462 1;
#X obj 534 585 r octave_modify_\$0;
#X obj 723 481 s octave_modify_\$0;
#X obj 464 817 array set;
#X obj 498 358 array size;
#X obj 468 508 array get;
#X msg 568 517 symbol accpnsvto\$1;
#X obj 546 168 t b f f f f;
#X obj 492 384 t f b b f;
#X msg 623 412 resize \$1;
#X obj 510 332 bng 18 250 50 0 empty empty empty 0 -9 0 10 #fcfcfc #000000 #000000;
#X msg 776 293 0;
#X msg 773 332 0;
#X obj 449 745 +;
#X obj 1033 47 - 1;
#X obj 76 -82 inlet;
#X obj 9 885 delay 100;
#X obj -4 1119 outlet;
#X msg 966 249 set 0;
#X obj -26 67 loadbang;
#X msg -1 99 0;
#X msg 1027 251 set -12;
#X msg 1027 361 set 0;
#X obj 1029 284 bng 18 250 50 0 empty empty empty 0 -9 0 10 #fcfcfc #000000 #000000;
#X obj 1030 336 bng 18 250 50 0 empty empty empty 0 -9 0 10 #fcfcfc #000000 #000000;
#X text 916 68 each line enters here and the note number can be octaved (per line);
#X msg 773 377 0;
#X msg 773 411 0;
#X obj 1028 401 bng 18 250 50 0 empty empty empty 0 -9 0 10 #fcfcfc #000000 #000000;
#X msg 1029 310 set 0;
#X msg 1028 431 set 12;
#X obj 1106 285 bng 18 250 50 0 empty empty empty 0 -9 0 10 #fcfcfc #000000 #000000;
#X obj 1107 337 bng 18 250 50 0 empty empty empty 0 -9 0 10 #fcfcfc #000000 #000000;
#X obj 1105 402 bng 18 250 50 0 empty empty empty 0 -9 0 10 #fcfcfc #000000 #000000;
#X obj 1185 283 bng 18 250 50 0 empty empty empty 0 -9 0 10 #fcfcfc #000000 #000000;
#X obj 1186 335 bng 18 250 50 0 empty empty empty 0 -9 0 10 #fcfcfc #000000 #000000;
#X obj 1184 400 bng 18 250 50 0 empty empty empty 0 -9 0 10 #fcfcfc #000000 #000000;
#X msg 1104 252 set -24;
#X msg 1106 311 set -12;
#X msg 1181 425 set -12;
#X msg 1185 309 set -12;
#X obj 1269 286 bng 18 250 50 0 empty empty empty 0 -9 0 10 #fcfcfc #000000 #000000;
#X obj 1270 338 bng 18 250 50 0 empty empty empty 0 -9 0 10 #fcfcfc #000000 #000000;
#X obj 1268 403 bng 18 250 50 0 empty empty empty 0 -9 0 10 #fcfcfc #000000 #000000;
#X obj 1346 287 bng 18 250 50 0 empty empty empty 0 -9 0 10 #fcfcfc #000000 #000000;
#X obj 1347 339 bng 18 250 50 0 empty empty empty 0 -9 0 10 #fcfcfc #000000 #000000;
#X obj 1345 404 bng 18 250 50 0 empty empty empty 0 -9 0 10 #fcfcfc #000000 #000000;
#X obj 1425 285 bng 18 250 50 0 empty empty empty 0 -9 0 10 #fcfcfc #000000 #000000;
#X obj 1426 337 bng 18 250 50 0 empty empty empty 0 -9 0 10 #fcfcfc #000000 #000000;
#X obj 1424 402 bng 18 250 50 0 empty empty empty 0 -9 0 10 #fcfcfc #000000 #000000;
#X msg 1421 427 set -12;
#X msg 1423 252 set +12;
#X msg 1426 311 set -12;
#X obj 1144 168 sel 0 1 2 3 4 5 6 7;
#X obj 541 624 sel 1 2 3 4;
#X text 1050 99 1 \, 2 \, 3 \, 4 means random;
#X msg 1104 362 set 0;
#X msg 1102 427 set 12;
#X msg 1267 253 set 1;
#X msg 1269 312 set 1;
#X msg 1267 363 set 1;
#X msg 1265 428 set 1;
#X obj 577 731 random 100;
#X msg 588 835 -12;
#X msg 1183 360 set 12;
#X msg 1183 250 set 12;
#X msg 1423 362 set 12;
#X obj 578 755 % 3;
#X obj 587 795 sel 0 1 2;
#X obj 690 731 random 100;
#X msg 771 834 0;
#X obj 691 755 % 5;
#X obj 700 795 sel 0 1 2 3 4;
#X msg 701 835 -24;
#X msg 737 833 -12;
#X msg 806 832 12;
#X msg 840 833 24;
#X msg 624 833 0;
#X msg 658 834 12;
#X msg 1344 254 set 2;
#X msg 1346 313 set 2;
#X msg 1344 364 set 2;
#X msg 1342 429 set 2;
#X obj 152 107 nbx 2 16 -1e+37 1e+37 0 0 empty empty empty 0 -9 0 10 #000000 #ffffff #7c7c7c 0 256;
#X obj 129 105 tgl 18 0 empty empty empty 0 -9 0 10 #fcfcfc #000000 #000000 0 1;
#N canvas 101 69 952 743 retrig_every 0;
#X obj 573 257 i;
#X obj 601 257 + 1;
#X obj 618 208 r bang_\$0;
#X obj 573 231 bng 18 250 50 0 empty empty empty 0 -9 0 10 #fcfcfc #000000 #000000;
#X msg 600 232 0;
#X obj 630 232 r rst_\$0;
#X obj 573 280 %;
#X obj 573 305 sel 0;
#X obj 618 282 - 1;
#X obj 573 208 spigot;
#X obj 631 186 * 4;
#X obj 691 164 r ChordBarLength;
#X obj 691 188 * 8;
#X obj 573 353 outlet;
#X obj 611 121 inlet;
#X obj 656 122 inlet;
#X connect 0 0 1 0;
#X connect 0 0 6 0;
#X connect 1 0 0 1;
#X connect 2 0 9 0;
#X connect 3 0 0 0;
#X connect 4 0 0 1;
#X connect 5 0 4 0;
#X connect 6 0 7 0;
#X connect 7 0 13 0;
#X connect 8 0 7 1;
#X connect 9 0 3 0;
#X connect 10 0 8 0;
#X connect 10 0 6 1;
#X connect 11 0 12 0;
#X connect 12 0 10 1;
#X connect 14 0 9 1;
#X connect 15 0 10 0;
#X restore 129 24 pd retrig_every;
#X obj 104 134 vradio 15 1 0 6 empty empty empty 0 -9 0 10 #fcfcfc #000000 #000000 0;
#X obj 1066 564 until;
#X obj 1069 589 f;
#X obj 1097 584 + 1;
#X obj 1117 741 array size;
#X obj 1117 766 array size;
#X obj 1115 658 t b f f;
#X obj 977 661 t b f f;
#X obj 977 773 array set;
#X obj 977 748 array get;
#X obj 1066 613 t f f f;
#X obj 1094 511 t b b b;
#X msg 1167 550 4;
#X msg 1066 542 3;
#X obj 1088 462 bng 18 250 50 0 empty empty empty 0 -9 0 10 #fcfcfc #000000 #000000;
#X msg 1014 717 symbol accpnsvto\$1;
#X msg 944 691 symbol accpnsvt\$1;
#X msg 1126 688 symbol accpnsvt\$1;
#X msg 1209 715 symbol accpnsvto\$1;
#X msg 415 707 0;
#X obj -32 304 s select_spread_mode_oct;
#X obj 1123 134 r select_spread_mode_oct;
#X obj 38 0 r preset_select_spread_mode_oct;
#X obj 126 -81 inlet;
#X obj 172 -82 inlet;
#X obj 219 -82 inlet;
#X obj 128 1128 outlet;
#X obj 197 1130 outlet;
#X obj 279 1137 outlet;
#X text 887 397 higher note;
#X text 885 358 central notes;
#X text 881 310 central notes;
#X text 877 248 lower note;
#X text 721 -45 0 - no effect \; 1 - +1 extremes \; 2 -;
#X obj 84 1023 stampa;
#X obj 83 960 t b b;
#X msg 85 982 symbol Octaves;
#X msg 85 1003 symbol accpnsvto;
#X text 127 127 -;
#X text 121 141 -1__|__|_+1;
#X text 121 156 -2_-1__|_+1;
#X text 121 173 +1_-1_+1_-1;
#X text 121 187 r1_r1_r1_r1;
#X obj 450 1139 outlet;
#X obj 918 542 pack 0 0 0 0;
#X obj 938 513 t b f;
#X obj 954 490 t b f;
#X obj 967 467 t b f;
#X obj 895 565 s dump_octaves_internal_\$0;
#X obj 463 1066 r dump_octaves_internal_\$0;
#X text 120 201 r2_r2_r2_r2;
#X msg 544 62 5;
#X obj 776 218 sel 0 1 2 3 4;
#X obj 747 82 sel 0 1 2 3 4 5 6;
#X msg 835 110 0;
#X msg 891 112 -24;
#X msg 920 113 -36;
#X obj 833 249 f;
#X text 815 137 drone note;
#X obj 195 122 vradio 15 1 0 7 empty empty empty 0 -9 0 10 #fcfcfc #000000 #000000 0;
#X text 193 101 drone;
#X text 213 166 0;
#X text 213 119 +3;
#X text 213 134 +2;
#X text 213 150 +1;
#X text 213 182 -1;
#X text 213 196 -2;
#X text 213 212 -3;
#X obj 266 -82 inlet;
#X obj 367 1099 r drone_octave_\$0;
#X obj 231 275 s drone_octave_\$0;
#X obj 747 33 r drone_octave_\$0;
#X obj 357 1139 outlet;
#X msg 862 113 -12;
#X msg 806 111 12;
#X msg 776 110 24;
#X msg 747 111 36;
#X obj -1 245 delay 100;
#X obj 1 190 t b b;
#X msg 13 216 stop;
#X connect 0 0 1 0;
#X connect 1 0 2 0;
#X connect 1 0 29 0;
#X connect 2 0 1 1;
#X connect 3 0 159 0;
#X connect 3 1 4 0;
#X connect 4 0 1 1;
#X connect 5 0 38 0;
#X connect 5 1 3 0;
#X connect 5 2 122 0;
#X connect 6 0 5 0;
#X connect 7 0 26 1;
#X connect 7 0 27 2;
#X connect 8 0 36 0;
#X connect 16 0 17 0;
#X connect 17 0 18 0;
#X connect 17 0 21 0;
#X connect 18 0 17 1;
#X connect 19 0 17 1;
#X connect 20 0 127 0;
#X connect 20 1 35 0;
#X connect 21 0 27 0;
#X connect 21 1 25 1;
#X connect 22 0 27 1;
#X connect 23 0 76 0;
#X connect 26 0 30 0;
#X connect 27 0 20 0;
#X connect 28 0 25 2;
#X connect 29 1 32 0;
#X connect 29 2 28 0;
#X connect 29 3 7 0;
#X connect 29 4 160 0;
#X connect 30 0 16 0;
#X connect 30 1 19 0;
#X connect 30 2 22 0;
#X connect 30 3 31 0;
#X connect 31 0 9 0;
#X connect 31 0 10 0;
#X connect 31 0 11 0;
#X connect 31 0 12 0;
#X connect 31 0 13 0;
#X connect 31 0 14 0;
#X connect 31 0 15 0;
#X connect 32 0 26 0;
#X connect 33 0 24 0;
#X connect 33 0 152 0;
#X connect 34 0 24 0;
#X connect 34 0 153 0;
#X connect 35 0 25 0;
#X connect 37 0 6 0;
#X connect 38 0 39 0;
#X connect 40 0 34 0;
#X connect 40 0 33 0;
#X connect 40 0 48 0;
#X connect 40 0 49 0;
#X connect 41 0 42 0;
#X connect 42 0 108 0;
#X connect 43 0 33 0;
#X connect 43 0 45 0;
#X connect 44 0 50 0;
#X connect 44 0 48 0;
#X connect 45 0 51 0;
#X connect 46 0 44 0;
#X connect 48 0 24 0;
#X connect 48 0 154 0;
#X connect 49 0 24 0;
#X connect 49 0 155 0;
#X connect 50 0 52 0;
#X connect 51 0 34 0;
#X connect 51 0 46 0;
#X connect 52 0 49 0;
#X connect 53 0 60 0;
#X connect 54 0 78 0;
#X connect 55 0 79 0;
#X connect 56 0 62 0;
#X connect 57 0 86 0;
#X connect 58 0 61 0;
#X connect 59 0 53 0;
#X connect 59 0 33 0;
#X connect 60 0 54 0;
#X connect 60 0 34 0;
#X connect 61 0 49 0;
#X connect 62 0 57 0;
#X connect 62 0 34 0;
#X connect 63 0 81 0;
#X connect 64 0 82 0;
#X connect 65 0 83 0;
#X connect 66 0 102 0;
#X connect 67 0 103 0;
#X connect 68 0 104 0;
#X connect 69 0 74 0;
#X connect 70 0 88 0;
#X connect 71 0 72 0;
#X connect 72 0 49 0;
#X connect 73 0 69 0;
#X connect 73 0 33 0;
#X connect 74 0 70 0;
#X connect 74 0 34 0;
#X connect 75 0 40 0;
#X connect 75 1 43 0;
#X connect 75 2 59 0;
#X connect 75 3 87 0;
#X connect 75 4 80 0;
#X connect 75 5 101 0;
#X connect 75 6 73 0;
#X connect 76 0 84 0;
#X connect 76 1 91 0;
#X connect 76 4 35 1;
#X connect 78 0 55 0;
#X connect 78 0 48 0;
#X connect 79 0 49 0;
#X connect 80 0 63 0;
#X connect 80 0 33 0;
#X connect 81 0 64 0;
#X connect 81 0 34 0;
#X connect 82 0 65 0;
#X connect 82 0 48 0;
#X connect 83 0 49 0;
#X connect 84 0 89 0;
#X connect 85 0 35 1;
#X connect 86 0 58 0;
#X connect 86 0 48 0;
#X connect 87 0 56 0;
#X connect 87 0 33 0;
#X connect 88 0 71 0;
#X connect 88 0 48 0;
#X connect 89 0 90 0;
#X connect 90 0 85 0;
#X connect 90 1 99 0;
#X connect 90 2 100 0;
#X connect 91 0 93 0;
#X connect 92 0 35 1;
#X connect 93 0 94 0;
#X connect 94 0 95 0;
#X connect 94 1 96 0;
#X connect 94 2 92 0;
#X connect 94 3 97 0;
#X connect 94 4 98 0;
#X connect 95 0 35 1;
#X connect 96 0 35 1;
#X connect 97 0 35 1;
#X connect 98 0 35 1;
#X connect 99 0 35 1;
#X connect 100 0 35 1;
#X connect 101 0 66 0;
#X connect 101 0 33 0;
#X connect 102 0 67 0;
#X connect 102 0 34 0;
#X connect 103 0 68 0;
#X connect 103 0 48 0;
#X connect 104 0 49 0;
#X connect 105 0 107 1;
#X connect 105 0 136 0;
#X connect 106 0 107 0;
#X connect 106 0 135 0;
#X connect 107 0 6 0;
#X connect 108 0 128 0;
#X connect 108 0 134 0;
#X connect 108 0 5 0;
#X connect 108 0 186 0;
#X connect 109 0 110 0;
#X connect 110 0 111 0;
#X connect 110 0 118 0;
#X connect 111 0 110 1;
#X connect 112 0 113 0;
#X connect 114 0 112 0;
#X connect 114 1 125 0;
#X connect 114 2 126 0;
#X connect 115 0 117 0;
#X connect 115 1 124 0;
#X connect 115 2 123 0;
#X connect 117 0 116 0;
#X connect 118 0 115 0;
#X connect 118 2 114 0;
#X connect 119 0 121 0;
#X connect 119 1 120 0;
#X connect 120 0 110 1;
#X connect 121 0 109 0;
#X connect 122 0 119 0;
#X connect 123 0 116 2;
#X connect 124 0 117 2;
#X connect 125 0 112 1;
#X connect 126 0 113 1;
#X connect 127 0 25 0;
#X connect 129 0 75 0;
#X connect 130 0 108 0;
#X connect 131 0 108 0;
#X connect 132 0 106 0;
#X connect 133 0 105 0;
#X connect 143 0 145 0;
#X connect 143 1 144 0;
#X connect 144 0 142 1;
#X connect 145 0 142 0;
#X connect 152 0 156 0;
#X connect 153 0 152 0;
#X connect 153 1 152 1;
#X connect 154 0 152 0;
#X connect 154 1 152 2;
#X connect 155 0 152 0;
#X connect 155 1 152 3;
#X connect 157 0 151 0;
#X connect 159 0 0 0;
#X connect 160 0 33 0;
#X connect 160 1 34 0;
#X connect 160 2 48 0;
#X connect 160 3 49 0;
#X connect 160 4 165 0;
#X connect 161 0 184 0;
#X connect 161 1 183 0;
#X connect 161 2 182 0;
#X connect 161 3 162 0;
#X connect 161 4 181 0;
#X connect 161 5 163 0;
#X connect 161 6 164 0;
#X connect 162 0 165 1;
#X connect 163 0 165 1;
#X connect 164 0 165 1;
#X connect 165 0 24 0;
#X connect 167 0 178 0;
#X connect 167 0 186 0;
#X connect 176 0 167 0;
#X connect 177 0 180 0;
#X connect 179 0 161 0;
#X connect 181 0 165 1;
#X connect 182 0 165 1;
#X connect 183 0 165 1;
#X connect 184 0 165 1;
#X connect 185 0 6 0;
#X connect 186 0 185 0;
#X connect 186 1 187 0;
#X connect 187 0 185 0;
#X coords 0 -1 1 1 135 135 2 100 100;
#X restore 450 5 pd ottava;
#X text 1192 -104 accpns = sequenza finale somma di battute \; accpnsv = 7 linee con le voci degli accordi \; accpnsvt = 7 linee con le note in tonalità \; avvpnsvto = linee con le note spaziate in ottava \; accpnsvtos = linee shufflolate \; accpnsvtosr = linee ridotte \;;
#X obj 204 675 array get accpnsvtosr0;
#X obj 257 706 array get accpnsvtosr1;
#X obj 309 737 array get accpnsvtosr2;
#X obj 352 763 array get accpnsvtosr3;
#X obj 414 798 array get accpnsvtosr4;
#X obj 470 827 array get accpnsvtosr5;
#X obj -163 932 spigot;
#X msg -154 910 1;
#X obj -160 854 i;
#X msg -207 855 \$1 127;
#X msg -160 875 \$1 0;
#X obj -189 824 t f b;
#X obj -117 908 loadbang;
#X msg -111 932 0;
#X obj -148 824 r all_notes_off_\$0;
#X obj -131 852 bng 18 250 50 0 empty empty empty 0 -9 0 10 #fcfcfc #000000 #000000;
#X obj -31 869 moses 1;
#X obj -50 1071 s note_out_\$0;
#X obj -6 1005 spigot;
#X msg 3 983 1;
#X obj -3 927 i;
#X msg -50 928 \$1 127;
#X msg -3 948 \$1 0;
#X obj -32 897 t f b;
#X obj 40 981 loadbang;
#X msg 46 1005 0;
#X obj 9 897 r all_notes_off_\$0;
#X obj 26 925 bng 18 250 50 0 empty empty empty 0 -9 0 10 #fcfcfc #000000 #000000;
#X obj 121 925 moses 1;
#X obj 102 1127 s note_out_\$0;
#X obj 146 1061 spigot;
#X msg 155 1039 1;
#X obj 149 983 i;
#X msg 102 984 \$1 127;
#X msg 149 1004 \$1 0;
#X obj 120 953 t f b;
#X obj 192 1037 loadbang;
#X msg 198 1061 0;
#X obj 161 953 r all_notes_off_\$0;
#X obj 178 981 bng 18 250 50 0 empty empty empty 0 -9 0 10 #fcfcfc #000000 #000000;
#X obj 275 978 moses 1;
#X obj 256 1180 s note_out_\$0;
#X obj 300 1114 spigot;
#X msg 309 1092 1;
#X obj 303 1036 i;
#X msg 256 1037 \$1 127;
#X msg 303 1057 \$1 0;
#X obj 274 1006 t f b;
#X obj 346 1090 loadbang;
#X msg 352 1114 0;
#X obj 315 1006 r all_notes_off_\$0;
#X obj 332 1034 bng 18 250 50 0 empty empty empty 0 -9 0 10 #fcfcfc #000000 #000000;
#X obj 36 119 nbx 5 16 -1e+37 1e+37 0 0 empty empty current\ bar 0 -9 1 10 #fcfcfc #000000 #000000 0 256;
#X obj 575 567 loadbang;
#X obj 332 564 t f f f f f f f;
#X obj 200 509 sel 0;
#X obj 200 532 i;
#X obj 227 532 + 1;
#X obj 255 484 % 8;
#X obj 189 563 %;
#X obj 170 490 + 1;
#X obj 114 494 sel 0;
#X obj 10 113 bng 18 250 50 0 empty empty empty 0 -9 0 10 #fcfcfc #000000 #000000;
#X obj 447 997 moses 1;
#X obj 472 1133 spigot;
#X msg 481 1111 1;
#X obj 475 1055 i;
#X msg 428 1056 \$1 127;
#X msg 475 1076 \$1 0;
#X obj 446 1025 t f b;
#X obj 518 1109 loadbang;
#X msg 524 1133 0;
#X obj 487 1025 r all_notes_off_\$0;
#X obj 504 1053 bng 18 250 50 0 empty empty empty 0 -9 0 10 #fcfcfc #000000 #000000;
#X obj -73 1576 outlet;
#X obj -73 1553 r note_2_out_\$0;
#X obj 618 1030 moses 1;
#X obj 643 1166 spigot;
#X msg 652 1144 1;
#X obj 646 1088 i;
#X msg 599 1089 \$1 127;
#X msg 646 1109 \$1 0;
#X obj 617 1058 t f b;
#X obj 689 1142 loadbang;
#X msg 695 1166 0;
#X obj 658 1058 r all_notes_off_\$0;
#X obj 675 1086 bng 18 250 50 0 empty empty empty 0 -9 0 10 #fcfcfc #000000 #000000;
#X obj 428 1199 s;
#X obj 599 1232 s;
#X obj 376 1251 r alternate_output_\$0;
#X obj 376 1274 sel 0 1, f 9;
#X obj -130 -62 loadbang;
#X obj 10 84 tgl 18 0 empty empty alternate\ out 25 9 1 10 #fcfcfc #000000 #000000 0 1;
#X obj -156 124 s alternate_output_\$0;
#X obj 423 1304 f \$0;
#X obj 372 1318 f \$0;
#X msg 419 1352 symbol note_out_\$1;
#X msg 417 1328 symbol note_2_out_\$1;
#X obj -218 67 r preset_alternate_output_\$0;
#X obj 358 265 s scale_name_\$0;
#X obj 385 247 s tonality_name_\$0;
#X obj 407 228 s octave_name_\$0;
#X obj 395 -254 r ctrl_tonality+_\$0;
#X obj 382 -272 r ctrl_tonality-_\$0;
#X obj 370 -291 r ctrl_scale+_\$0;
#X obj 357 -309 r ctrl_scale-_\$0;
#X obj 405 -233 r ctrl_octave-_\$0;
#X obj 423 -214 r ctrl_octave+_\$0;
#X obj 459 -138 r preset_spread_\$0;
#X obj 474 -116 r preset_retrig_spread_\$0;
#X obj 489 -95 r preset_retrig_amt_spread_\$0;
#X obj 454 311 s set_preset_spread_\$0;
#X obj 454 335 s set_preset_retrig_spread_\$0;
#X obj 453 356 s set_preset_retrig_amt_spread_\$0;
#X obj 37 -302 r preset_chperbar_\$0;
#X obj 58 -281 r preset_norep_\$0;
#X obj 85 -263 r preset_n_bars_\$0;
#X obj 99 -246 r preset_genrnd_\$0;
#X obj 119 -222 r ctrl_rotate-_\$0;
#X obj 140 -203 r ctrl_rotate+_\$0;
#X obj 583 -481 r preset_patttype_\$0;
#X obj 604 -460 r preset_pattsingle_\$0;
#X obj 653 -420 r preset_pattdens_\$0;
#X obj 632 -441 r preset_pattbasstreb_\$0;
#X obj 680 -398 r ctrl_rndsame_\$0;
#X obj 700 -374 r ctrl_rnddiff_\$0;
#X obj 778 -316 r preset_pat1_\$0;
#X obj 843 -256 r preset_pat2_\$0;
#X obj 928 -176 r preset_drone_\$0;
#X obj 515 -549 r ctrl_retr_patt_\$0;
#X obj 448 -166 r ctrl_go_spread_\$0;
#X obj 729 -355 r ctrl_pat1-_\$0;
#X obj 750 -334 r ctrl_pat1+_\$0;
#X obj 799 -295 r ctrl_pat2-_\$0;
#X obj 819 -276 r ctrl_pat2+_\$0;
#X obj 884 -216 r ctrl_drone-_\$0;
#X obj 904 -196 r ctrl_drone+_\$0;
#X obj 949 -155 r ctrl_interact_\$0;
#X obj 593 229 s set_preset_patttype_\$0;
#X obj 614 250 s set_preset_pattsingle_\$0;
#X obj 642 269 s set_preset_pattbasstreb_\$0;
#X obj 663 290 s set_preset_pattdens_\$0;
#X obj 685 311 s set_preset_pat1_\$0;
#X obj 706 332 s set_preset_pat2_\$0;
#X obj 734 352 s set_preset_drone_\$0;
#X obj 864 -235 r ctrl_rnddrone_\$0;
#X obj 545 186 s set_preset_patt_retr_sel_\$0;
#X obj 566 207 s set_preset_patt_retr_amt_\$0;
#X obj 535 -524 r preset_patt_retr_sel_\$0;
#X obj 556 -503 r preset_patt_retr_amt_\$0;
#X obj 749 172 s set_preset_redu_retr_sel_\$0;
#X obj 770 193 s set_preset_redu_retr_amt_\$0;
#X obj 805 216 s set_preset_redu_min_\$0;
#X obj 826 237 s set_preset_redu_max_\$0;
#X obj 860 265 s set_preset_redu_prob_\$0;
#X obj 954 -118 r preset_redu_retr_sel_\$0;
#X obj 975 -97 r preset_redu_retr_amt_\$0;
#X obj 1010 -74 r preset_redu_min_\$0;
#X obj 1031 -53 r preset_redu_max_\$0;
#X obj 1053 -32 r preset_redu_prob_\$0;
#X obj 967 -139 r ctrl_redu_go_\$0;
#X obj 206 217 s set_preset_chord_type_\$0;
#X obj 212 240 s feedbk_chord_name_\$0;
#X obj 16 -85 r preset_sync_\$0;
#X obj 37 -64 r preset_div_\$0;
#X obj 64 -46 r preset_bpm_\$0;
#X obj 30 180 s set_preset_sync_\$0;
#X obj 51 201 s set_preset_div_\$0;
#X obj 78 219 s set_preset_bpm_\$0;
#X obj 43 252 s feedbk_current_bar_\$0;
#X obj 43 277 s set_preset_chperbar_\$0;
#X obj 53 298 s set_preset_norep_\$0;
#X obj 71 322 s set_preset_n_bars_\$0;
#X obj 90 344 s set_preset_genrnd_\$0;
#X obj 821 403 s dump_pattern_\$0;
#X obj 215 262 s feedbk_voice0_\$0;
#X obj 228 280 s feedbk_voice1_\$0;
#X obj 234 299 s feedbk_voice2_\$0;
#X obj 248 317 s feedbk_voice3_\$0;
#X obj 260 339 s set_preset_drone_value_\$0;
#X obj 215 -158 r preset_drone_value_\$0;
#X obj 17 -327 r ctrl_gen_go_\$0;
#X obj 240 -59 r ctrl_drone_val-_\$0;
#X obj 266 -37 r ctrl_drone_val+_\$0;
#X obj 1026 -285 r ctrl_interact-_\$0;
#X obj 1037 -263 r ctrl_interact+_\$0;
#X obj 1061 -238 r preset_interact_value_\$0;
#X obj 767 379 s set_preset_interact_value_\$0;
#X obj 277 361 s set_preset_drone_on_\$0;
#X obj 306 -23 r preset_drone_on_\$0;
#X obj 456 404 s dump_octaves_\$0;
#X obj 454 377 s set_preset_drone_octave_\$0;
#X obj 522 -70 r preset_drone_octave_\$0;
#X msg -142 282 all_notes_off;
#X msg -118 1487 all_notes_off;
#X obj 60 1427 r control_out_\$0;
#X obj 59 1555 outlet;
#X obj 59 1529 oscformat;
#X obj 60 1451 list split 1;
#X obj 92 1497 list trim;
#X obj 186 1450 r osc_name_\$0;
#X obj 92 1475 list prepend;
#X obj 186 1495 list trim;
#X obj 186 1473 list prepend set;
#X text 62 1578 osc_out;
#X obj -231 -678 inlet;
#X obj -18 -591 s save_\$0;
#X obj -89 -589 s load_\$0;
#X obj -153 -592 s ID_\$0;
#X text -234 -703 internal_in;
#X obj 169 -552 s control_\$0;
#X obj 169 -573 route name;
#X obj 206 -600 r osc_name_\$0;
#X obj 23 -619 s osc_name_\$0;
#X obj 363 -682 declare -path ./chord_seq_abs;
#N canvas 258 173 1390 805 handle_presets 0;
#X obj 100 1125 tabwrite presets_\$0;
#X msg 435 557 \$1 1;
#X msg 435 537 \$1 0;
#X msg 434 578 \$1 2;
#X obj 1134 607 r ID_\$0;
#X obj 1144 -64 f;
#X msg 434 599 \$1 3;
#X msg 435 616 \$1 4;
#X msg 436 634 \$1 5;
#X msg 435 653 \$1 6;
#X msg 434 673 \$1 7;
#X msg 434 692 \$1 8;
#X msg 434 712 \$1 9;
#X msg 431 736 \$1 10;
#X msg 431 761 \$1 11;
#X msg 431 781 \$1 12;
#X msg 431 802 \$1 13;
#X msg 430 822 \$1 14;
#X msg 430 843 \$1 15;
#X msg 432 867 \$1 16;
#X msg 433 891 \$1 17;
#X msg 430 913 \$1 18;
#X msg 426 936 \$1 19;
#X msg 426 959 \$1 20;
#X msg 428 979 \$1 21;
#X msg 428 1003 \$1 22;
#X msg 428 1025 \$1 23;
#X msg 429 1047 \$1 24;
#X msg 428 1069 \$1 25;
#X msg 428 1094 \$1 26;
#X msg 428 1115 \$1 27;
#X msg 431 1139 \$1 28;
#X msg 432 1161 \$1 29;
#X msg 431 1184 \$1 30;
#X msg 427 1207 \$1 31;
#X msg 427 1230 \$1 32;
#X msg 429 1250 \$1 33;
#X msg 426 1271 \$1 34;
#X msg 426 1293 \$1 35;
#X obj 831 802 route 0 1 2 3 4 5 6 7 8 9 10 11 12 13 14 15 16 17 18 19 20 21 22 23 24 25 26 27 28 29 30 31 32 33 34 35 36, f 132;
#X msg 426 1314 \$1 36;
#X obj 1088 -116 delay 400;
#X text -61 251 n of presets (index + 1);
#X obj 206 975 list;
#X obj 177 1051 unpack 0 0;
#X obj 1211 36 s full_table_length_\$0;
#X obj 326 10 r full_table_length_\$0;
#X obj 975 41 s build_loaded_seq_\$0;
#X obj 477 535 r ChordBarLength;
#X obj 157 -111 r save_\$0;
#X obj 1208 -177 r load_\$0;
#X obj 950 757 r control_\$0;
#X obj 827 841 s ChordBarLength;
#X obj 895 961 s preset_chperbar_\$0;
#X obj 894 979 s preset_norep_\$0;
#X obj 904 1013 s preset_n_bars_\$0;
#X obj 905 1032 s preset_genrnd_\$0;
#X obj 480 559 r alternate_output_\$0;
#X obj 482 578 r set_preset_sync_\$0;
#X obj 482 597 r set_preset_div_\$0;
#X obj 549 619 r set_preset_bpm_\$0;
#X obj 485 714 r set_preset_chord_type_\$0;
#X obj 484 737 r scale_\$0;
#X obj 479 759 r tonality_\$0;
#X obj 482 781 r octave_\$0;
#X obj 481 803 r set_preset_spread_\$0;
#X obj 481 827 r set_preset_retrig_spread_\$0;
#X obj 514 848 r set_preset_retrig_amt_spread_\$0;
#X obj 479 870 r set_preset_patt_retr_sel_\$0;
#X obj 519 891 r set_preset_patt_retr_amt_\$0;
#X obj 488 912 r set_preset_patttype_\$0;
#X obj 478 934 r set_preset_pattsingle_\$0;
#X obj 486 957 r set_preset_pattbasstreb_\$0;
#X obj 479 977 r set_preset_pattdens_\$0;
#X obj 485 1000 r set_preset_pat1_\$0;
#X obj 488 1026 r set_preset_pat2_\$0;
#X obj 486 1049 r set_preset_drone_\$0;
#X obj 481 1073 r set_preset_redu_retr_sel_\$0;
#X obj 540 1096 r set_preset_redu_retr_amt_\$0;
#X obj 541 1114 r set_preset_redu_min_\$0;
#X obj 540 1135 r set_preset_redu_max_\$0;
#X obj 483 1161 r set_preset_redu_prob_\$0;
#X obj 817 872 s preset_alternate_output_\$0;
#X obj 851 896 s preset_sync_\$0;
#X obj 854 918 s preset_div_\$0;
#X obj 895 938 s preset_bpm_\$0;
#X obj 1014 866 s preset_chord_type_\$0;
#X obj 1042 955 s preset_spread_\$0;
#X obj 1040 979 s preset_retrig_spread_\$0;
#X obj 1066 1002 s preset_retrig_amt_spread_\$0;
#X obj 1038 1022 s preset_patt_retr_sel_\$0;
#X obj 1070 1045 s preset_patt_retr_amt_\$0;
#X obj 1246 857 s preset_patttype_\$0;
#X obj 1245 875 s preset_pattsingle_\$0;
#X obj 1244 902 s preset_pattbasstreb_\$0;
#X obj 1241 925 s preset_pattdens_\$0;
#X obj 1243 945 s preset_pat1_\$0;
#X obj 1246 971 s preset_pat2_\$0;
#X obj 1244 994 s preset_drone_\$0;
#X obj 1237 1023 s preset_redu_retr_sel_\$0;
#X obj 1265 1048 s preset_redu_retr_amt_\$0;
#X obj 1265 1066 s preset_redu_min_\$0;
#X obj 1265 1086 s preset_redu_max_\$0;
#X obj 1235 1112 s preset_redu_prob_\$0;
#X obj 1045 889 s preset_scale_\$0;
#X obj 1040 911 s preset_tonality_\$0;
#X obj 1043 933 s preset_octave_\$0;
#X obj 1666 784 s ctrl_rotate-_\$0;
#X obj 1683 804 s ctrl_rotate+_\$0;
#X obj 1705 824 s ctrl_scale-_\$0;
#X obj 1718 842 s ctrl_scale+_\$0;
#X obj 1730 861 s ctrl_tonality-_\$0;
#X obj 1746 884 s ctrl_tonality+_\$0;
#X obj 2171 1268 s ctrl_go_spread_\$0;
#X obj 1798 948 s ctrl_retr_patt_\$0;
#X obj 1828 969 s ctrl_rndsame_\$0;
#X obj 1851 989 s ctrl_rnddiff_\$0;
#X obj 1877 1008 s ctrl_pat1-_\$0;
#X obj 1898 1029 s ctrl_pat1+_\$0;
#X obj 1912 1051 s ctrl_pat2-_\$0;
#X obj 1932 1070 s ctrl_pat2+_\$0;
#X obj 1951 1092 s ctrl_rnddrone_\$0;
#X obj 1971 1111 s ctrl_drone-_\$0;
#X obj 1991 1131 s ctrl_drone+_\$0;
#X obj 2023 1152 s ctrl_interact_\$0;
#X obj 2046 1172 s ctrl_redu_go_\$0;
#X text 1641 784 101;
#X text 1703 863 105;
#X text 1801 972 110;
#X text 1826 992 113;
#X text 1849 1011 114;
#X text 1772 948 109;
#X obj 547 637 r set_preset_chperbar_\$0;
#X obj 543 653 r set_preset_norep_\$0;
#X obj 544 673 r set_preset_n_bars_\$0;
#X obj 549 692 r set_preset_genrnd_\$0;
#X obj -313 923 r dump_pattern_\$0;
#X obj -79 1033 r feedbk_chord_name_\$0;
#X obj -227 1039 r feedbk_current_bar_\$0;
#X obj 35 1204 r scale_name_\$0;
#X obj 133 1206 r tonality_name_\$0;
#X obj 256 1213 r octave_name_\$0;
#X obj -207 1090 t a b;
#X obj -209 1148 list trim;
#X obj -207 1123 list append;
#X obj -70 1074 t a b;
#X obj -72 1132 list trim;
#X obj -70 1107 list append;
#X obj 31 1238 t a b;
#X obj 29 1296 list trim;
#X obj 31 1271 list append;
#X obj 130 1242 t a b;
#X obj 128 1300 list trim;
#X obj 130 1275 list append;
#X obj 229 1245 t a b;
#X obj 227 1303 list trim;
#X obj 229 1278 list append;
#X obj -316 977 unpack 0 0;
#X obj -160 1338 s control_out_\$0;
#X obj -326 1037 pack 0 100 0;
#X obj 1235 1134 s preset_drone_value_\$0;
#X obj 484 1183 r set_preset_drone_value_\$0;
#X text 2500 592 comment;
#X obj 2140 1239 s ctrl_gen_go_\$0;
#X obj 1756 905 s ctrl_octave-_\$0;
#X obj 1770 926 s ctrl_octave+_\$0;
#X obj 2092 1196 s ctrl_drone_val-_\$0;
#X obj 2115 1216 s ctrl_drone_val+_\$0;
#X obj 484 619 i;
#X obj 486 675 i;
#X obj 486 695 i;
#X obj 490 892 i;
#X obj 499 1118 i;
#X obj 498 1140 i;
#X obj 499 1097 i;
#X obj 862 939 i;
#X obj 879 1033 i;
#X obj 1038 1045 i;
#X obj 1037 1001 i;
#X obj 1239 1047 i;
#X obj 1237 1068 i;
#X obj 1239 1090 i;
#X obj 484 848 i;
#X text 1872 1029 115;
#X text 1967 1130 120;
#X text 2113 1241 125;
#X obj 1697 736 route 100 101 102 103 104 105 106 107 108 109 110 111 112 113 114 115 116 117 118 119 120 121 122 123 124 125 126 127 128, f 131;
#X obj 2394 889 s ctrl_interact-_\$0;
#X obj 2429 862 s ctrl_interact+_\$0;
#X obj 1241 1159 s preset_interact_value_\$0;
#X obj 480 1207 r set_preset_interact_value_\$0;
#X msg -156 1088 129;
#X msg -26 1073 130;
#X msg 94 1242 131;
#X msg 193 1246 132;
#X msg 292 1249 133;
#X obj 484 1235 r set_preset_drone_on_\$0;
#X obj 1246 1194 s preset_drone_on_\$0;
#X obj -492 995 r dump_octaves_\$0;
#X obj -492 1025 unpack 0 0 0 0;
#X obj -860 1221 list trim;
#X msg -807 1145 134;
#X obj -860 1199 list append;
#X obj -862 1117 sel 0 1 2;
#X msg -895 1143 -, f 1;
#X obj -860 1091 t f b;
#X obj -739 1196 list trim;
#X obj -739 1174 list append;
#X obj -742 1118 sel 0 1 2;
#X msg -775 1144 -, f 1;
#X obj -740 1092 t f b;
#X obj -596 1190 list trim;
#X obj -596 1168 list append;
#X obj -599 1112 sel 0 1 2;
#X msg -632 1138 -, f 1;
#X obj -597 1086 t f b;
#X obj -476 1191 list trim;
#X obj -476 1169 list append;
#X obj -479 1113 sel 0 1 2;
#X msg -512 1139 -, f 1;
#X obj -477 1087 t f b;
#X msg -687 1146 135;
#X msg -544 1140 136;
#X msg -424 1141 137;
#X msg -879 1141 rand_12, f 8;
#X msg -862 1171 rand_24, f 8;
#X msg -749 1152 rand_24, f 8;
#X msg -759 1142 rand_12, f 8;
#X msg -616 1136 rand_12, f 8;
#X msg -606 1146 rand_24, f 8;
#X msg -486 1147 rand_24, f 8;
#X msg -496 1137 rand_12, f 8;
#X obj 487 636 i;
#X obj 489 655 i;
#X obj 864 961 i;
#X obj 865 980 i;
#X obj 875 1007 i;
#X obj -809 781 list trim;
#X obj -809 759 list append;
#X obj -821 654 r feedbk_voice0_\$0;
#X obj -683 650 r feedbk_voice1_\$0;
#X obj -555 648 r feedbk_voice2_\$0;
#X obj -428 645 r feedbk_voice3_\$0;
#X msg -792 736 \$1th;
#X obj -830 710 sel 1;
#X msg -830 736 root;
#X obj -830 683 t f b;
#X obj -671 774 list trim;
#X obj -671 752 list append;
#X msg -654 729 \$1th;
#X obj -692 703 sel 1;
#X msg -692 729 root;
#X obj -692 676 t f b;
#X obj -533 781 list trim;
#X obj -533 759 list append;
#X msg -516 736 \$1th;
#X obj -554 710 sel 1;
#X msg -554 736 root;
#X obj -554 683 t f b;
#X obj -395 774 list trim;
#X obj -395 752 list append;
#X msg -378 729 \$1th;
#X obj -416 703 sel 1;
#X msg -416 729 root;
#X obj -416 676 t f b;
#X msg -755 737 138;
#X msg -617 730 139;
#X msg -479 737 140;
#X msg -341 730 141;
#X obj -252 782 list trim;
#X obj -252 760 list append;
#X msg -235 737 \$1th;
#X obj -273 711 sel 1;
#X msg -273 737 root;
#X obj -273 684 t f b;
#X msg -198 738 142;
#X obj -285 653 r set_preset_drone_value_\$0;
#X obj 483 1256 r set_preset_drone_octave_\$0;
#X obj 1243 1222 s preset_drone_octave_\$0;
#X obj 705 -103 table presets_\$0 38;
#X obj 1066 649 load_preset presets_\$0;
#X obj 1167 -33 r ID_\$0;
#X obj 1224 -34 r current_path;
#X obj 1182 -142 t b f f;
#X obj 90 250 save_preset presets_\$0 33;
#X obj 157 -50 t f f;
#X obj 216 72 r ID_\$0;
#X obj 132 210 r ID_\$0;
#X obj 162 120 save_preset accpns 32 _seq;
#X obj 1120 0 load_preset accpns _seq;
#X obj 273 71 r current_path_\$0;
#X obj 1191 606 r current_path_\$0;
#X obj 189 209 r current_path_\$0;
#X obj 1382 268 load_init presets_\$0 chord_seq;
#X obj 1353 159 r load_init_\$0;
#X obj 1353 182 f;
#X obj -337 153 save_init presets_\$0 chord_seq_abs 33;
#X msg -336 81 0;
#X obj 977 18 delay 400;
#X obj -105 97 r f;
#X obj -23 821 r fbk_div_name_\$0;
#X obj -121 969 list trim;
#X obj -119 944 list append 201;
#X connect 1 0 43 0;
#X connect 2 0 43 0;
#X connect 3 0 43 0;
#X connect 4 0 280 1;
#X connect 5 0 289 0;
#X connect 6 0 43 0;
#X connect 7 0 43 0;
#X connect 8 0 43 0;
#X connect 9 0 43 0;
#X connect 10 0 43 0;
#X connect 11 0 43 0;
#X connect 12 0 43 0;
#X connect 13 0 43 0;
#X connect 14 0 43 0;
#X connect 15 0 43 0;
#X connect 16 0 43 0;
#X connect 17 0 43 0;
#X connect 18 0 43 0;
#X connect 19 0 43 0;
#X connect 20 0 43 0;
#X connect 21 0 43 0;
#X connect 22 0 43 0;
#X connect 23 0 43 0;
#X connect 24 0 43 0;
#X connect 25 0 43 0;
#X connect 26 0 43 0;
#X connect 27 0 43 0;
#X connect 28 0 43 0;
#X connect 29 0 43 0;
#X connect 30 0 43 0;
#X connect 31 0 43 0;
#X connect 32 0 43 0;
#X connect 33 0 43 0;
#X connect 34 0 43 0;
#X connect 35 0 43 0;
#X connect 36 0 43 0;
#X connect 37 0 43 0;
#X connect 38 0 43 0;
#X connect 39 0 52 0;
#X connect 39 1 82 0;
#X connect 39 2 83 0;
#X connect 39 3 84 0;
#X connect 39 4 175 0;
#X connect 39 5 234 0;
#X connect 39 6 235 0;
#X connect 39 7 236 0;
#X connect 39 8 176 0;
#X connect 39 9 86 0;
#X connect 39 10 104 0;
#X connect 39 11 105 0;
#X connect 39 12 106 0;
#X connect 39 13 87 0;
#X connect 39 14 88 0;
#X connect 39 15 178 0;
#X connect 39 16 90 0;
#X connect 39 17 177 0;
#X connect 39 18 92 0;
#X connect 39 19 93 0;
#X connect 39 20 94 0;
#X connect 39 21 95 0;
#X connect 39 22 96 0;
#X connect 39 23 97 0;
#X connect 39 24 98 0;
#X connect 39 25 99 0;
#X connect 39 26 179 0;
#X connect 39 27 180 0;
#X connect 39 28 181 0;
#X connect 39 29 103 0;
#X connect 39 30 160 0;
#X connect 39 31 189 0;
#X connect 39 32 197 0;
#X connect 39 33 278 0;
#X connect 39 37 186 0;
#X connect 40 0 43 0;
#X connect 41 0 5 0;
#X connect 41 0 298 0;
#X connect 43 0 44 0;
#X connect 43 0 158 0;
#X connect 44 0 0 0;
#X connect 44 1 0 1;
#X connect 46 0 288 3;
#X connect 48 0 2 0;
#X connect 49 0 285 0;
#X connect 50 0 283 0;
#X connect 51 0 39 0;
#X connect 57 0 1 0;
#X connect 58 0 3 0;
#X connect 59 0 6 0;
#X connect 60 0 168 0;
#X connect 61 0 12 0;
#X connect 62 0 13 0;
#X connect 63 0 14 0;
#X connect 64 0 15 0;
#X connect 65 0 16 0;
#X connect 66 0 17 0;
#X connect 67 0 182 0;
#X connect 68 0 19 0;
#X connect 69 0 171 0;
#X connect 70 0 21 0;
#X connect 71 0 22 0;
#X connect 72 0 23 0;
#X connect 73 0 24 0;
#X connect 74 0 25 0;
#X connect 75 0 26 0;
#X connect 76 0 27 0;
#X connect 77 0 28 0;
#X connect 78 0 174 0;
#X connect 79 0 172 0;
#X connect 80 0 173 0;
#X connect 81 0 32 0;
#X connect 132 0 232 0;
#X connect 133 0 233 0;
#X connect 134 0 169 0;
#X connect 135 0 170 0;
#X connect 136 0 157 0;
#X connect 137 0 145 0;
#X connect 138 0 142 0;
#X connect 139 0 148 0;
#X connect 140 0 151 0;
#X connect 141 0 154 0;
#X connect 142 0 144 0;
#X connect 142 1 191 0;
#X connect 143 0 158 0;
#X connect 144 0 143 0;
#X connect 145 0 147 0;
#X connect 145 1 192 0;
#X connect 146 0 158 0;
#X connect 147 0 146 0;
#X connect 148 0 150 0;
#X connect 148 1 193 0;
#X connect 149 0 158 0;
#X connect 150 0 149 0;
#X connect 151 0 153 0;
#X connect 151 1 194 0;
#X connect 152 0 158 0;
#X connect 153 0 152 0;
#X connect 154 0 156 0;
#X connect 154 1 195 0;
#X connect 155 0 158 0;
#X connect 156 0 155 0;
#X connect 157 0 159 0;
#X connect 157 1 159 2;
#X connect 159 0 158 0;
#X connect 161 0 33 0;
#X connect 168 0 7 0;
#X connect 169 0 10 0;
#X connect 170 0 11 0;
#X connect 171 0 20 0;
#X connect 172 0 30 0;
#X connect 173 0 31 0;
#X connect 174 0 29 0;
#X connect 175 0 85 0;
#X connect 176 0 56 0;
#X connect 177 0 91 0;
#X connect 178 0 89 0;
#X connect 179 0 100 0;
#X connect 180 0 101 0;
#X connect 181 0 102 0;
#X connect 182 0 18 0;
#X connect 186 1 107 0;
#X connect 186 2 108 0;
#X connect 186 3 109 0;
#X connect 186 4 110 0;
#X connect 186 5 111 0;
#X connect 186 6 112 0;
#X connect 186 7 164 0;
#X connect 186 8 165 0;
#X connect 186 9 114 0;
#X connect 186 10 115 0;
#X connect 186 13 116 0;
#X connect 186 14 117 0;
#X connect 186 15 118 0;
#X connect 186 16 119 0;
#X connect 186 17 120 0;
#X connect 186 18 121 0;
#X connect 186 19 122 0;
#X connect 186 20 123 0;
#X connect 186 21 124 0;
#X connect 186 22 125 0;
#X connect 186 23 166 0;
#X connect 186 24 167 0;
#X connect 186 25 163 0;
#X connect 186 26 113 0;
#X connect 186 27 187 0;
#X connect 186 28 188 0;
#X connect 190 0 34 0;
#X connect 191 0 144 1;
#X connect 192 0 147 1;
#X connect 193 0 150 1;
#X connect 194 0 153 1;
#X connect 195 0 156 1;
#X connect 196 0 35 0;
#X connect 198 0 199 0;
#X connect 199 0 205 0;
#X connect 199 1 210 0;
#X connect 199 2 220 0;
#X connect 199 3 215 0;
#X connect 200 0 158 0;
#X connect 201 0 202 1;
#X connect 202 0 200 0;
#X connect 203 0 204 0;
#X connect 203 1 224 0;
#X connect 203 2 225 0;
#X connect 203 3 202 0;
#X connect 204 0 202 0;
#X connect 205 0 203 0;
#X connect 205 1 201 0;
#X connect 206 0 158 0;
#X connect 207 0 206 0;
#X connect 208 0 209 0;
#X connect 208 1 227 0;
#X connect 208 2 226 0;
#X connect 208 3 207 0;
#X connect 209 0 207 0;
#X connect 210 0 208 0;
#X connect 210 1 221 0;
#X connect 211 0 158 0;
#X connect 212 0 211 0;
#X connect 213 0 214 0;
#X connect 213 1 228 0;
#X connect 213 2 229 0;
#X connect 213 3 212 0;
#X connect 214 0 212 0;
#X connect 215 0 213 0;
#X connect 215 1 222 0;
#X connect 216 0 158 0;
#X connect 217 0 216 0;
#X connect 218 0 219 0;
#X connect 218 1 231 0;
#X connect 218 2 230 0;
#X connect 218 3 217 0;
#X connect 219 0 217 0;
#X connect 220 0 218 0;
#X connect 220 1 223 0;
#X connect 221 0 207 1;
#X connect 222 0 212 1;
#X connect 223 0 217 1;
#X connect 224 0 202 0;
#X connect 225 0 202 0;
#X connect 226 0 207 0;
#X connect 227 0 207 0;
#X connect 228 0 212 0;
#X connect 229 0 212 0;
#X connect 230 0 217 0;
#X connect 231 0 217 0;
#X connect 232 0 8 0;
#X connect 233 0 9 0;
#X connect 234 0 53 0;
#X connect 235 0 54 0;
#X connect 236 0 55 0;
#X connect 237 0 158 0;
#X connect 238 0 237 0;
#X connect 239 0 246 0;
#X connect 240 0 252 0;
#X connect 241 0 258 0;
#X connect 242 0 264 0;
#X connect 243 0 238 0;
#X connect 244 0 245 0;
#X connect 244 1 243 0;
#X connect 245 0 238 0;
#X connect 246 0 244 0;
#X connect 246 1 265 0;
#X connect 247 0 158 0;
#X connect 248 0 247 0;
#X connect 249 0 248 0;
#X connect 250 0 251 0;
#X connect 250 1 249 0;
#X connect 251 0 248 0;
#X connect 252 0 250 0;
#X connect 252 1 266 0;
#X connect 253 0 158 0;
#X connect 254 0 253 0;
#X connect 255 0 254 0;
#X connect 256 0 257 0;
#X connect 256 1 255 0;
#X connect 257 0 254 0;
#X connect 258 0 256 0;
#X connect 258 1 267 0;
#X connect 259 0 158 0;
#X connect 260 0 259 0;
#X connect 261 0 260 0;
#X connect 262 0 263 0;
#X connect 262 1 261 0;
#X connect 263 0 260 0;
#X connect 264 0 262 0;
#X connect 264 1 268 0;
#X connect 265 0 238 1;
#X connect 266 0 248 1;
#X connect 267 0 254 1;
#X connect 268 0 260 1;
#X connect 269 0 158 0;
#X connect 270 0 269 0;
#X connect 271 0 270 0;
#X connect 272 0 273 0;
#X connect 272 1 271 0;
#X connect 273 0 270 0;
#X connect 274 0 272 0;
#X connect 274 1 275 0;
#X connect 275 0 270 1;
#X connect 276 0 274 0;
#X connect 277 0 36 0;
#X connect 280 0 39 0;
#X connect 281 0 289 1;
#X connect 282 0 289 2;
#X connect 283 0 41 0;
#X connect 283 1 5 1;
#X connect 283 2 280 0;
#X connect 285 0 284 0;
#X connect 285 1 288 0;
#X connect 286 0 288 1;
#X connect 287 0 284 1;
#X connect 289 1 45 0;
#X connect 290 0 288 2;
#X connect 291 0 280 2;
#X connect 292 0 284 2;
#X connect 293 0 39 0;
#X connect 294 0 295 0;
#X connect 295 0 293 0;
#X connect 297 0 296 0;
#X connect 298 0 47 0;
#X connect 300 0 302 0;
#X connect 301 0 158 0;
#X connect 302 0 301 0;
#X restore 363 -658 pd handle_presets;
#X obj 363 -706 declare -path ./commons;
#X obj -244 -590 s ext_bang_\$0;
#X obj -213 -563 s ext_rst_\$0;
#X obj -54 -120 r ext_rst_\$0;
#X obj -85 -147 r ext_bang_\$0;
#X obj 79 -596 s current_path_\$0;
#X obj -230 -652 route bang_bpm rst instance_id load save osc_name current_path osc init, f 78;
#X obj 226 -622 s load_init_\$0;
#X obj 95 155 s fbk_div_name_\$0;
#X msg -130 -38 1;
#X connect 0 0 3 0;
#X connect 0 1 210 0;
#X connect 0 2 211 0;
#X connect 0 3 212 0;
#X connect 0 4 213 0;
#X connect 1 0 190 0;
#X connect 1 1 191 0;
#X connect 1 2 192 0;
#X connect 1 3 193 0;
#X connect 1 4 194 0;
#X connect 2 0 1 0;
#X connect 2 1 186 0;
#X connect 2 2 187 0;
#X connect 2 3 178 0;
#X connect 2 4 179 0;
#X connect 2 5 180 0;
#X connect 2 6 181 0;
#X connect 2 7 182 0;
#X connect 2 8 183 0;
#X connect 2 9 184 0;
#X connect 2 10 227 0;
#X connect 2 11 214 0;
#X connect 3 0 4 0;
#X connect 3 1 201 0;
#X connect 3 2 202 0;
#X connect 3 3 215 0;
#X connect 3 4 216 0;
#X connect 3 5 217 0;
#X connect 3 6 218 0;
#X connect 3 7 219 0;
#X connect 3 8 228 0;
#X connect 4 0 38 0;
#X connect 4 1 25 0;
#X connect 4 2 27 0;
#X connect 4 3 26 0;
#X connect 4 4 139 0;
#X connect 4 5 140 0;
#X connect 4 6 141 0;
#X connect 5 0 40 1;
#X connect 5 0 41 1;
#X connect 5 0 42 1;
#X connect 5 0 43 1;
#X connect 5 0 44 1;
#X connect 5 0 45 1;
#X connect 6 0 7 0;
#X connect 6 0 9 0;
#X connect 6 0 98 0;
#X connect 7 0 6 1;
#X connect 8 0 6 1;
#X connect 8 0 96 1;
#X connect 9 0 94 0;
#X connect 11 0 12 0;
#X connect 11 1 13 0;
#X connect 11 1 233 0;
#X connect 11 3 206 0;
#X connect 11 3 233 0;
#X connect 11 4 207 0;
#X connect 11 5 208 0;
#X connect 11 7 264 0;
#X connect 14 0 8 0;
#X connect 15 0 16 0;
#X connect 16 0 6 0;
#X connect 17 0 32 0;
#X connect 18 1 51 0;
#X connect 20 0 10 0;
#X connect 22 0 234 0;
#X connect 24 0 17 0;
#X connect 24 0 99 1;
#X connect 28 0 4 1;
#X connect 29 0 4 2;
#X connect 30 0 4 3;
#X connect 31 0 3 1;
#X connect 33 0 9 1;
#X connect 33 0 23 0;
#X connect 34 0 3 0;
#X connect 36 0 35 0;
#X connect 37 0 36 0;
#X connect 38 0 2 0;
#X connect 38 1 151 0;
#X connect 38 2 152 0;
#X connect 38 3 153 0;
#X connect 38 4 231 0;
#X connect 38 5 230 0;
#X connect 40 0 18 0;
#X connect 41 0 56 0;
#X connect 42 0 68 0;
#X connect 43 0 80 0;
#X connect 44 0 103 0;
#X connect 45 0 116 0;
#X connect 46 0 19 0;
#X connect 46 0 53 0;
#X connect 47 0 46 1;
#X connect 48 0 50 0;
#X connect 49 0 19 0;
#X connect 49 0 47 0;
#X connect 50 0 46 0;
#X connect 51 0 48 1;
#X connect 51 0 49 0;
#X connect 51 1 48 0;
#X connect 52 0 53 0;
#X connect 53 0 46 1;
#X connect 54 0 55 0;
#X connect 55 0 48 0;
#X connect 56 1 63 0;
#X connect 58 0 57 0;
#X connect 58 0 65 0;
#X connect 59 0 58 1;
#X connect 60 0 62 0;
#X connect 61 0 57 0;
#X connect 61 0 59 0;
#X connect 62 0 58 0;
#X connect 63 0 60 1;
#X connect 63 0 61 0;
#X connect 63 1 60 0;
#X connect 64 0 65 0;
#X connect 65 0 58 1;
#X connect 66 0 67 0;
#X connect 67 0 60 0;
#X connect 68 1 75 0;
#X connect 70 0 69 0;
#X connect 70 0 77 0;
#X connect 71 0 70 1;
#X connect 72 0 74 0;
#X connect 73 0 69 0;
#X connect 73 0 71 0;
#X connect 74 0 70 0;
#X connect 75 0 72 1;
#X connect 75 0 73 0;
#X connect 75 1 72 0;
#X connect 76 0 77 0;
#X connect 77 0 70 1;
#X connect 78 0 79 0;
#X connect 79 0 72 0;
#X connect 80 1 87 0;
#X connect 82 0 89 0;
#X connect 82 0 81 0;
#X connect 83 0 82 1;
#X connect 84 0 86 0;
#X connect 85 0 83 0;
#X connect 85 0 81 0;
#X connect 86 0 82 0;
#X connect 87 0 84 1;
#X connect 87 0 85 0;
#X connect 87 1 84 0;
#X connect 88 0 89 0;
#X connect 89 0 82 1;
#X connect 90 0 91 0;
#X connect 91 0 84 0;
#X connect 92 0 209 0;
#X connect 93 0 5 0;
#X connect 94 0 40 0;
#X connect 94 1 41 0;
#X connect 94 2 42 0;
#X connect 94 3 43 0;
#X connect 94 4 44 0;
#X connect 94 5 45 0;
#X connect 95 0 96 0;
#X connect 96 0 97 0;
#X connect 96 0 99 0;
#X connect 97 0 96 1;
#X connect 98 0 95 0;
#X connect 99 0 100 0;
#X connect 99 0 101 0;
#X connect 100 0 92 0;
#X connect 101 0 102 0;
#X connect 103 1 109 0;
#X connect 104 0 111 0;
#X connect 104 0 127 0;
#X connect 105 0 104 1;
#X connect 106 0 108 0;
#X connect 107 0 105 0;
#X connect 107 0 127 0;
#X connect 108 0 104 0;
#X connect 109 0 106 1;
#X connect 109 0 107 0;
#X connect 109 1 106 0;
#X connect 110 0 111 0;
#X connect 111 0 104 1;
#X connect 112 0 113 0;
#X connect 113 0 106 0;
#X connect 115 0 114 0;
#X connect 116 1 122 0;
#X connect 117 0 124 0;
#X connect 117 0 128 0;
#X connect 118 0 117 1;
#X connect 119 0 121 0;
#X connect 120 0 118 0;
#X connect 120 0 128 0;
#X connect 121 0 117 0;
#X connect 122 0 119 1;
#X connect 122 0 120 0;
#X connect 122 1 119 0;
#X connect 123 0 124 0;
#X connect 124 0 117 1;
#X connect 125 0 126 0;
#X connect 126 0 119 0;
#X connect 129 0 130 0;
#X connect 130 0 135 0;
#X connect 130 1 134 0;
#X connect 131 0 265 0;
#X connect 132 0 133 0;
#X connect 134 0 137 0;
#X connect 135 0 136 0;
#X connect 136 0 128 1;
#X connect 136 0 127 1;
#X connect 137 0 128 1;
#X connect 137 0 127 1;
#X connect 138 0 132 0;
#X connect 142 0 4 7;
#X connect 143 0 4 6;
#X connect 144 0 4 5;
#X connect 145 0 4 4;
#X connect 146 0 4 8;
#X connect 147 0 4 9;
#X connect 148 0 38 1;
#X connect 149 0 38 2;
#X connect 150 0 38 3;
#X connect 154 0 0 1;
#X connect 155 0 0 2;
#X connect 156 0 0 3;
#X connect 157 0 0 4;
#X connect 158 0 0 5;
#X connect 159 0 0 6;
#X connect 160 0 2 3;
#X connect 161 0 2 4;
#X connect 162 0 2 6;
#X connect 163 0 2 5;
#X connect 164 0 2 7;
#X connect 165 0 2 8;
#X connect 166 0 2 11;
#X connect 167 0 2 14;
#X connect 168 0 2 18;
#X connect 169 0 2 0;
#X connect 170 0 38 0;
#X connect 171 0 2 9;
#X connect 172 0 2 10;
#X connect 173 0 2 12;
#X connect 174 0 2 13;
#X connect 175 0 2 16;
#X connect 176 0 2 17;
#X connect 177 0 2 19;
#X connect 185 0 2 15;
#X connect 188 0 2 1;
#X connect 189 0 2 2;
#X connect 195 0 1 1;
#X connect 196 0 1 2;
#X connect 197 0 1 3;
#X connect 198 0 1 4;
#X connect 199 0 1 5;
#X connect 200 0 1 0;
#X connect 203 0 11 3;
#X connect 204 0 11 4;
#X connect 205 0 11 5;
#X connect 220 0 3 4;
#X connect 221 0 0 0;
#X connect 222 0 3 2;
#X connect 223 0 3 3;
#X connect 224 0 2 20;
#X connect 225 0 2 21;
#X connect 226 0 2 22;
#X connect 229 0 3 5;
#X connect 232 0 38 4;
#X connect 233 0 21 0;
#X connect 234 0 114 0;
#X connect 234 0 10 0;
#X connect 235 0 238 0;
#X connect 237 0 236 0;
#X connect 238 0 237 0;
#X connect 238 1 241 0;
#X connect 239 0 237 0;
#X connect 240 0 243 0;
#X connect 241 0 239 0;
#X connect 242 0 241 1;
#X connect 243 0 242 0;
#X connect 245 0 262 0;
#X connect 251 0 250 0;
#X connect 252 0 251 1;
#X connect 259 0 11 1;
#X connect 260 0 11 0;
#X connect 262 0 257 0;
#X connect 262 1 258 0;
#X connect 262 2 248 0;
#X connect 262 3 247 0;
#X connect 262 4 246 0;
#X connect 262 5 253 0;
#X connect 262 6 261 0;
#X connect 262 7 251 0;
#X connect 262 8 263 0;
#X connect 265 0 132 0;
#X coords 0 -1 1 1 890 145 2 0 0;
