#N canvas 52 20 1854 1097 12;
#X declare -path ../quad_effects;
#X obj 152 109 drum_machine;
#X obj 1252 551 declare -path ../quad_effects;
#X obj 384 806 quad_effects_with_sends;
#X obj 230 1073 dac~ 1 2 3 4;
#X obj 214 -31 r sub1;
#X obj 1623 782 r sub2;
#X obj 1524 1039 stdout;
#X connect 0 0 2 0;
#X connect 0 1 2 1;
#X connect 0 2 2 2;
#X connect 0 3 2 3;
#X connect 0 4 2 4;
#X connect 0 5 2 5;
#X connect 0 6 2 6;
#X connect 0 7 2 7;
#X connect 0 8 6 0;
#X connect 2 0 3 0;
#X connect 2 1 3 1;
#X connect 2 2 3 2;
#X connect 2 3 3 3;
#X connect 2 4 6 0;
#X connect 4 0 0 0;
#X connect 5 0 2 8;
#X coords 0 1097 1 1096 1190 720 0;
