#N canvas 764 139 1390 805 12;
#X obj 3 -293 drum_machine;
#X obj -169 -281 r sub1;
#X obj 1228 497 stdout;
#X obj 238 556 dac~ 1 2 3 4;
#X obj -133 -150 main_osc_handler;
#X obj -117 -38 list prepend osc;
#X obj -117 -12 list trim;
#X msg -114 -243 osc_name symbol dm;
#X connect 0 0 3 0;
#X connect 0 1 3 1;
#X connect 0 2 3 2;
#X connect 0 3 3 3;
#X connect 0 8 2 0;
#X connect 0 8 4 0;
#X connect 1 0 0 0;
#X connect 4 0 5 0;
#X connect 5 0 6 0;
#X connect 6 0 0 0;
#X connect 7 0 0 0;
#X coords 0 805 1 804 1190 670 0;
