#N canvas 697 494 1390 805 12;
#X obj 3 -293 drum_machine;
#X obj -169 -281 r sub1;
#X obj 1244 418 stdout;
#X obj 238 556 dac~ 1 2 3 4;
#X connect 0 0 3 0;
#X connect 0 1 3 1;
#X connect 0 2 3 2;
#X connect 0 3 3 3;
#X connect 0 8 2 0;
#X connect 1 0 0 0;
#X coords 0 805 1 804 1190 670 0;
