#N canvas 382 113 1390 803 10;
#X declare -path ./drum_machine_abs;
#X obj 12 90 step_seq_module 1;
#X obj 9 253 step_seq_module 2;
#X obj 9 417 step_seq_module 3;
#X obj 11 580 step_seq_module 4;
#X obj 433 1134 *~;
#X obj 467 1134 *~;
#X obj 500 1134 *~;
#X obj 534 1134 *~;
#X obj 385 1374 outlet~;
#X obj 435 1374 outlet~;
#X obj 485 1374 outlet~;
#X obj 536 1374 outlet~;
#X obj 114 13 vsl 18 53 0 1 0 0 empty empty vol 0 -9 0 10 #000000 #ffffff #7c7c7c 0 1;
#X obj 115 -223 s glob_vol_\$0;
#X obj 720 1079 r glob_vol_\$0;
#X obj 672 1168 line~;
#X obj 711 1134 pack 0 10;
#X obj 1471 29 s~ id1_signal1_send_\$0;
#X obj 1470 47 s~ id1_signal2_send_\$0;
#X obj 1470 65 s~ id1_signal3_send_\$0;
#X obj 1470 83 s~ id1_signal4_send_\$0;
#X obj 1477 327 s~ id2_signal1_send_\$0;
#X obj 1476 345 s~ id2_signal2_send_\$0;
#X obj 1477 363 s~ id2_signal3_send_\$0;
#X obj 1478 381 s~ id2_signal4_send_\$0;
#X obj 1481 496 s~ id3_signal1_send_\$0;
#X obj 1481 514 s~ id3_signal2_send_\$0;
#X obj 1481 532 s~ id3_signal3_send_\$0;
#X obj 1481 550 s~ id3_signal4_send_\$0;
#X obj 1479 671 s~ id4_signal1_send_\$0;
#X obj 1478 689 s~ id4_signal2_send_\$0;
#X obj 1477 706 s~ id4_signal3_send_\$0;
#X obj 1477 724 s~ id4_signal4_send_\$0;
#X obj -426 24 r control_id1_\$0;
#X obj -427 50 r control_id2_\$0;
#X obj -426 75 r control_id3_\$0;
#X obj -427 101 r control_id4_\$0;
#X obj 939 1133 *~;
#X obj 973 1133 *~;
#X obj 1006 1133 *~;
#X obj 1040 1133 *~;
#X obj 905 1213 outlet~;
#X obj 955 1213 outlet~;
#X obj 1005 1213 outlet~;
#X obj 1056 1213 outlet~;
#X obj 1226 1078 r glob_vol_\$0;
#X obj 1178 1167 line~;
#X obj 1217 1133 pack 0 10;
#X obj 804 925 r~ id1_signal1_send_\$0;
#X obj 805 943 r~ id1_signal2_send_\$0;
#X obj 805 963 r~ id1_signal3_send_\$0;
#X obj 804 979 r~ id1_signal4_send_\$0;
#X obj 951 982 r~ id2_signal4_send_\$0;
#X obj 951 964 r~ id2_signal3_send_\$0;
#X obj 950 946 r~ id2_signal2_send_\$0;
#X obj 951 928 r~ id2_signal1_send_\$0;
#X obj 1102 927 r~ id3_signal1_send_\$0;
#X obj 1102 945 r~ id3_signal2_send_\$0;
#X obj 1102 963 r~ id3_signal3_send_\$0;
#X obj 1102 981 r~ id3_signal4_send_\$0;
#X obj 1250 980 r~ id4_signal4_send_\$0;
#X obj 1250 962 r~ id4_signal3_send_\$0;
#X obj 1250 945 r~ id4_signal2_send_\$0;
#X obj 1250 927 r~ id4_signal1_send_\$0;
#X obj 138 -242 loadbang;
#X obj -451 -477 s control_id1_\$0;
#X obj -452 -451 s control_id2_\$0;
#X obj -451 -426 s control_id3_\$0;
#X obj -452 -400 s control_id4_\$0;
#X obj -288 -518 loadbang;
#X obj 1470 104 s control_out_id1_\$0;
#X obj 1483 572 s control_out_id3_\$0;
#X obj 1587 771 s control_out_id4_\$0;
#X obj 1523 1028 r control_out_id4_\$0;
#X obj 1418 947 r control_out_id1_\$0;
#X obj 1447 976 r control_out_id2_\$0;
#X obj 1492 1004 r control_out_id3_\$0;
#X obj 1480 401 s control_out_id2_\$0;
#X msg -317 -478 module_id 1;
#X msg -317 -452 module_id 2;
#X msg -315 -426 module_id 3;
#X msg -315 -400 module_id 4;
#X obj 46 -88 r preset_glob_sync_\$0;
#X obj 95 -169 r preset_glob_bpm_\$0;
#X obj 114 -262 r preset_glob_vol_\$0;
#X obj 96 -132 s glob_bpm_\$0;
#X obj 47 -51 s glob_sync_\$0;
#X obj 71 -67 loadbang;
#X obj 119 -149 loadbang;
#X msg 48 -70 0;
#X msg 94 -151 120;
#X obj -453 -371 s control_\$0;
#X obj 1543 1058 r control_out_glob_\$0;
#X obj 1894 613 s control_id1_\$0;
#X obj 2016 611 s control_id2_\$0;
#X obj 2196 611 s control_id3_\$0;
#X obj 2340 619 s control_id4_\$0;
#X obj 1972 72 *;
#X obj 1970 34 t b f;
#X obj 2106 68 *;
#X obj 2107 39 t b f;
#X obj 2272 69 *;
#X obj 2272 40 t b f;
#X obj 2399 68 *;
#X obj 2397 39 t b f;
#X obj 1029 -497 r preset_select_fx_3_\$0;
#X obj 977 -520 r preset_select_fx_2_\$0;
#X obj 929 -542 r preset_select_fx_1_\$0;
#X obj 1083 -474 r preset_select_fx_4_\$0;
#X obj 345 -151 r preset_select_glob_fx_\$0;
#X obj 2572 184 r ctrl_glob_fx_x_\$0;
#X obj 2566 49 r ctrl_glob_fx_act_\$0;
#X msg 2449 176 109 \$1;
#X msg 2104 106 45 \$1;
#X msg 2274 112 45 \$1;
#X msg 2397 107 45 \$1;
#X obj 323 -37 s select_glob_fx_\$0;
#X obj 332 -174 r ctrl_glob_fx+_\$0;
#X obj 316 -198 r ctrl_glob_fx-_\$0;
#X obj 361 -58 s feedbk_fx_name_\$0;
#X obj -1022 -761 inlet;
#X obj -818 -634 s save_\$0;
#X obj -852 -598 s load_\$0;
#X obj -915 -632 s ID_\$0;
#X text -1007 -785 internal_in;
#X obj -711 -571 route name;
#X obj -778 -665 s osc_name_\$0;
#X obj -665 -598 r osc_name_\$0;
#X obj 1446 1210 outlet;
#X obj 1446 1184 oscformat;
#X obj 1447 1106 list split 1;
#X obj 1479 1152 list trim;
#X obj 1573 1105 r osc_name_\$0;
#X obj 1479 1130 list prepend;
#X obj 1573 1150 list trim;
#X obj 1573 1128 list prepend set;
#X text 1449 1233 osc_out;
#X obj -355 -723 declare -path ./drum_machine_abs;
#N canvas 170 452 1854 739 handle_presets 1;
#X obj 145 925 tabwrite presets_\$0;
#X msg 453 311 \$1 1;
#X msg 453 288 \$1 0;
#X msg 453 334 \$1 2;
#X msg 453 357 \$1 3;
#X msg 453 380 \$1 4;
#X msg 453 403 \$1 5;
#X msg 453 426 \$1 6;
#X msg 453 449 \$1 7;
#X msg 453 472 \$1 8;
#X msg 453 495 \$1 9;
#X msg 453 518 \$1 10;
#X msg 453 541 \$1 11;
#X msg 453 564 \$1 12;
#X msg 453 587 \$1 13;
#X msg 453 610 \$1 14;
#X msg 453 633 \$1 15;
#X msg 453 656 \$1 16;
#X msg 453 679 \$1 17;
#X msg 453 702 \$1 18;
#X msg 453 725 \$1 19;
#X msg 453 748 \$1 20;
#X msg 453 771 \$1 21;
#X msg 453 794 \$1 22;
#X msg 453 817 \$1 23;
#X msg 453 840 \$1 24;
#X msg 453 863 \$1 25;
#X msg 453 886 \$1 26;
#X msg 453 909 \$1 27;
#X msg 453 932 \$1 28;
#X msg 453 954 \$1 29;
#X msg 453 976 \$1 30;
#X msg 453 998 \$1 31;
#X msg 453 1020 \$1 32;
#X msg 453 1042 \$1 33;
#X msg 453 1064 \$1 34;
#X msg 453 1086 \$1 35;
#X msg 453 1108 \$1 36;
#X obj 224 726 list;
#X obj 222 851 unpack 0 0;
#X msg 453 1130 \$1 37;
#X msg 453 1152 \$1 38;
#X msg 453 1174 \$1 39;
#X msg 453 1196 \$1 40;
#X msg 453 1218 \$1 41;
#X msg 453 1240 \$1 42;
#X msg 453 1262 \$1 43;
#X msg 453 1284 \$1 44;
#X obj 294 61 r save_\$0;
#X msg 452 1307 \$1 45;
#X msg 457 1332 \$1 46;
#X obj 976 505 r control_\$0;
#X msg 457 1357 \$1 47;
#X msg 458 1387 \$1 48;
#X msg 461 1421 \$1 49;
#X msg 462 1451 \$1 50;
#X msg 465 1478 \$1 51;
#X msg 466 1508 \$1 52;
#X obj 813 633 s preset_glob_sync_\$0;
#X obj 844 683 s preset_glob_bpm_\$0;
#X obj 816 684 i;
#X obj 511 361 i;
#X obj 542 362 r glob_bpm_\$0;
#X obj 517 315 r glob_sync_\$0;
#X obj 1442 472 s ctrl_solo_\$0;
#X obj 63 1184 s control_out_glob_\$0;
#X obj 1459 496 s ctrl_rst_glob_\$0;
#X obj 1039 757 s preset_select_fx_1_\$0;
#X obj 1059 785 s preset_select_fx_2_\$0;
#X obj 1079 811 s preset_select_fx_3_\$0;
#X obj 1102 840 s preset_select_fx_4_\$0;
#X obj 1016 730 s preset_select_glob_fx_\$0;
#X obj 511 383 r select_glob_fx_\$0;
#X obj 509 404 r select_fx_1_\$0;
#X obj 508 425 r select_fx_2_\$0;
#X obj 509 447 r select_fx_3_\$0;
#X obj 513 471 r select_fx_4_\$0;
#X obj 1491 523 s ctrl_glob_fx_x_\$0;
#X obj 1525 548 s ctrl_glob_fx_y_\$0;
#X obj 1546 574 s ctrl_glob_fx_act_\$0;
#X obj 1572 608 s ctrl_glob_fx-_\$0;
#X obj 1595 632 s ctrl_glob_fx+_\$0;
#X obj 34 1031 r feedbk_fx_name_\$0;
#X obj 397 60 r ID_\$0;
#X obj 457 60 r current_path_\$0;
#X obj 1021 173 r ID_\$0;
#X obj 1081 173 r current_path_\$0;
#X obj 984 231 load_preset presets_\$0;
#X obj 918 174 r load_\$0;
#X obj 1433 428 route 100 101 102 103 104 105 106 107 108 109;
#X obj 1726 488 s ctrl_int_metro_onoff_\$0;
#X obj 1361 245 load_init presets_\$0 drum_machine_abs;
#X obj 1295 188 r load_init_\$0;
#X obj 201 206 r save_init_\$0;
#X msg 144 1123 \$1 0 \$2;
#X msg 201 171 0;
#X obj 180 997 r fbk_metro_ison_\$0;
#X msg 215 1136 \$1 0 109;
#X obj 36 1053 list append 0 209;
#X obj 37 1144 list trim;
#X msg 1332 126 0;
#X obj 507 1196 r glob_vol_\$0;
#X obj 1188 609 s preset_glob_vol_\$0;
#X obj 849 545 route 0 1 2 3 4 5 6 7 8 40, f 55;
#X obj 709 68 table presets_\$0 41;
#X obj 360 118 save_preset presets_\$0 41;
#X obj 201 247 save_init presets_\$0 drum_machine_abs 41;
#X connect 1 0 38 0;
#X connect 2 0 38 0;
#X connect 3 0 38 0;
#X connect 4 0 38 0;
#X connect 5 0 38 0;
#X connect 6 0 38 0;
#X connect 7 0 38 0;
#X connect 8 0 38 0;
#X connect 9 0 38 0;
#X connect 10 0 38 0;
#X connect 11 0 38 0;
#X connect 12 0 38 0;
#X connect 13 0 38 0;
#X connect 14 0 38 0;
#X connect 15 0 38 0;
#X connect 16 0 38 0;
#X connect 17 0 38 0;
#X connect 18 0 38 0;
#X connect 19 0 38 0;
#X connect 20 0 38 0;
#X connect 21 0 38 0;
#X connect 22 0 38 0;
#X connect 23 0 38 0;
#X connect 24 0 38 0;
#X connect 25 0 38 0;
#X connect 26 0 38 0;
#X connect 27 0 38 0;
#X connect 28 0 38 0;
#X connect 29 0 38 0;
#X connect 30 0 38 0;
#X connect 31 0 38 0;
#X connect 32 0 38 0;
#X connect 33 0 38 0;
#X connect 34 0 38 0;
#X connect 35 0 38 0;
#X connect 36 0 38 0;
#X connect 37 0 38 0;
#X connect 38 0 39 0;
#X connect 38 0 94 0;
#X connect 39 0 0 0;
#X connect 39 1 0 1;
#X connect 40 0 38 0;
#X connect 41 0 38 0;
#X connect 42 0 38 0;
#X connect 43 0 38 0;
#X connect 44 0 38 0;
#X connect 45 0 38 0;
#X connect 46 0 38 0;
#X connect 47 0 38 0;
#X connect 48 0 105 0;
#X connect 49 0 38 0;
#X connect 50 0 38 0;
#X connect 51 0 103 0;
#X connect 52 0 38 0;
#X connect 53 0 38 0;
#X connect 54 0 38 0;
#X connect 55 0 38 0;
#X connect 56 0 38 0;
#X connect 57 0 38 0;
#X connect 60 0 59 0;
#X connect 61 0 4 0;
#X connect 62 0 61 0;
#X connect 63 0 1 0;
#X connect 72 0 5 0;
#X connect 73 0 6 0;
#X connect 74 0 7 0;
#X connect 75 0 8 0;
#X connect 76 0 9 0;
#X connect 82 0 98 0;
#X connect 83 0 105 1;
#X connect 84 0 105 2;
#X connect 85 0 87 1;
#X connect 86 0 87 2;
#X connect 87 0 103 0;
#X connect 88 0 87 0;
#X connect 89 2 64 0;
#X connect 89 3 66 0;
#X connect 89 4 77 0;
#X connect 89 5 78 0;
#X connect 89 6 79 0;
#X connect 89 7 80 0;
#X connect 89 8 81 0;
#X connect 89 9 90 0;
#X connect 91 0 103 0;
#X connect 92 0 91 0;
#X connect 93 0 106 0;
#X connect 94 0 65 0;
#X connect 95 0 106 0;
#X connect 96 0 97 0;
#X connect 97 0 65 0;
#X connect 98 0 99 0;
#X connect 99 0 65 0;
#X connect 100 0 91 0;
#X connect 101 0 43 0;
#X connect 103 1 58 0;
#X connect 103 3 60 0;
#X connect 103 4 71 0;
#X connect 103 5 67 0;
#X connect 103 6 68 0;
#X connect 103 7 69 0;
#X connect 103 8 70 0;
#X connect 103 9 102 0;
#X connect 103 10 89 0;
#X restore -354 -676 pd handle_presets;
#X obj -686 -635 s current_path_\$0;
#X obj -848 -718 s to_all_submodules_\$0;
#X obj -727 -370 r to_all_submodules_\$0;
#X obj -502 -792 loadbang;
#X msg -502 -768 \; pd dsp 1;
#X obj 2268 -35 r select_glob_fx_\$0;
#X msg -195 -68 bang_bpm \$1;
#X msg -114 -68 rst \$1;
#X obj 6 7 internal_sync_simple;
#X obj 6 -151 r ext_bang_\$0;
#X obj 35 -117 r ext_rst_\$0;
#X obj -1051 -634 s ext_bang_\$0;
#X obj -970 -591 s ext_rst_\$0;
#X obj -153 -22 s to_all_submodules_\$0;
#X obj 94 -326 r ctrl_int_metro_onoff_\$0;
#X msg 1969 112 45 \$1;
#X obj 145 14 fx_chain -1;
#X obj 563 -122 s ctrl_glob_fx_act_\$0;
#X obj 568 -148 s ctrl_glob_fx_y_\$0;
#X obj 569 -174 s ctrl_glob_fx_x_\$0;
#X obj 332 60 hsl 153 18 0 127 0 0 empty empty empty -2 -9 0 10 #fcfcfc #000000 #000000 0 1;
#X obj 332 34 hsl 153 18 0 127 0 0 empty empty empty -2 -9 0 10 #fcfcfc #000000 #000000 0 1;
#X obj 303 48 tgl 18 0 empty empty empty 0 -9 0 10 #fcfcfc #000000 #000000 0 1;
#X obj 2027 148 *;
#X obj 2036 109 t b f;
#X obj 2162 147 *;
#X obj 2162 115 t b f;
#X obj 2327 145 *;
#X obj 2327 116 t b f;
#X obj 2454 144 *;
#X obj 2452 115 t b f;
#X msg 2330 180 109 \$1;
#X msg 2162 183 109 \$1;
#X msg 2028 182 109 \$1;
#X obj 391 7 tgl 18 0 empty empty empty 0 -9 0 10 #fcfcfc #000000 #000000 0 1;
#X obj 416 8 tgl 18 0 empty empty empty 0 -9 0 10 #fcfcfc #000000 #000000 0 1;
#X obj 439 6 tgl 18 0 empty empty empty 0 -9 0 10 #fcfcfc #000000 #000000 0 1;
#X obj 464 5 tgl 18 0 empty empty empty 0 -9 0 10 #fcfcfc #000000 #000000 0 1;
#X obj 2074 255 *;
#X obj 2082 226 t b f;
#X obj 2208 251 *;
#X obj 2209 222 t b f;
#X obj 2374 252 *;
#X obj 2374 223 t b f;
#X obj 2502 253 *;
#X obj 2499 222 t b f;
#X msg 2506 282 107 \$1;
#X msg 2372 284 107 \$1;
#X msg 2210 282 107 \$1;
#X msg 2072 285 107 \$1;
#X obj 2118 368 *;
#X obj 2126 339 t b f;
#X obj 2252 364 *;
#X obj 2253 335 t b f;
#X obj 2418 365 *;
#X obj 2418 336 t b f;
#X obj 2546 366 *;
#X obj 2543 335 t b f;
#X obj 2589 296 r ctrl_glob_fx_y_\$0;
#X msg 2550 395 108 \$1;
#X msg 2416 397 108 \$1;
#X msg 2254 395 108 \$1;
#X msg 2116 399 108 \$1;
#X obj -609 -657 s load_init_\$0;
#X obj -514 -574 s save_init_\$0;
#X msg -531 -550 save_init \$1;
#X msg -531 -608 0;
#X obj -725 -523 route 1 2 3 4 0;
#X obj 195 -63 s fbk_metro_ison_\$0;
#X msg 114 -243 1;
#X obj 713 1108 pow 2;
#X obj 1222 1110 pow 2;
#X obj 373 1312 vumeter, f 37;
#X obj 596 1246 r vumeter_\$0;
#X obj -1035 -693 route bang_bpm rst instance_id load save osc_name osc current_path init vumeter, f 90;
#X obj -486 -656 s vumeter_\$0;
#X obj 1065 1293 list split 1;
#X obj 1097 1339 list trim;
#X obj 1203 1216 r osc_name_\$0;
#X obj 1097 1317 list prepend;
#X obj 1206 1261 list trim;
#X obj 1203 1239 list prepend set;
#X obj 1207 1283 list append 0;
#X obj 1207 1306 list trim;
#X obj 1072 1374 oscformat;
#X obj 1471 -46 throw~ out_fl_\$0;
#X obj 1476 255 throw~ out_fl_\$0;
#X obj 1480 424 throw~ out_fl_\$0;
#X obj 1477 599 throw~ out_fl_\$0;
#X obj 1470 -28 throw~ out_fr_\$0;
#X obj 1477 274 throw~ out_fr_\$0;
#X obj 1480 442 throw~ out_fr_\$0;
#X obj 1477 617 throw~ out_fr_\$0;
#X obj 1470 -10 throw~ out_rl_\$0;
#X obj 1470 8 throw~ out_rr_\$0;
#X obj 1476 291 throw~ out_rl_\$0;
#X obj 1480 460 throw~ out_rl_\$0;
#X obj 1476 634 throw~ out_rl_\$0;
#X obj 1477 309 throw~ out_rr_\$0;
#X obj 1480 478 throw~ out_rr_\$0;
#X obj 1476 652 throw~ out_rr_\$0;
#X obj 151 1011 catch~ out_fl_\$0;
#X obj 262 1010 catch~ out_fr_\$0;
#X obj 393 1011 catch~ out_rl_\$0;
#X obj 504 1010 catch~ out_rr_\$0;
#X msg -622 -757 0;
#X obj -349 -581 bng 18 250 50 0 empty empty empty 0 -9 0 10 #fcfcfc #000000 #000000;
#X obj -255 -13 bng 18 250 50 0 empty empty empty 0 -9 0 10 #fcfcfc #000000 #000000;
#X obj -847 -468 bng 18 250 50 0 empty empty empty 0 -9 0 10 #fcfcfc #000000 #000000;
#X obj -976 -716 route bang_bpm rst;
#X obj -477 -716 loadbang;
#X msg -477 -692 1;
#X obj 915 -118 s select_fx_1_\$0;
#X obj 914 -97 s select_fx_2_\$0;
#X obj 915 -75 s select_fx_3_\$0;
#X obj 919 -51 s select_fx_4_\$0;
#X connect 0 0 224 0;
#X connect 0 1 228 0;
#X connect 0 2 232 0;
#X connect 0 3 233 0;
#X connect 0 4 17 0;
#X connect 0 5 18 0;
#X connect 0 6 19 0;
#X connect 0 7 20 0;
#X connect 0 8 70 0;
#X connect 1 0 225 0;
#X connect 1 1 229 0;
#X connect 1 2 234 0;
#X connect 1 3 237 0;
#X connect 1 4 21 0;
#X connect 1 5 22 0;
#X connect 1 6 23 0;
#X connect 1 7 24 0;
#X connect 1 8 77 0;
#X connect 2 0 226 0;
#X connect 2 1 230 0;
#X connect 2 2 235 0;
#X connect 2 3 238 0;
#X connect 2 4 25 0;
#X connect 2 5 26 0;
#X connect 2 6 27 0;
#X connect 2 7 28 0;
#X connect 2 8 71 0;
#X connect 3 0 227 0;
#X connect 3 1 231 0;
#X connect 3 2 236 0;
#X connect 3 3 239 0;
#X connect 3 4 29 0;
#X connect 3 5 30 0;
#X connect 3 6 31 0;
#X connect 3 7 32 0;
#X connect 3 8 72 0;
#X connect 4 0 211 0;
#X connect 5 0 211 1;
#X connect 6 0 211 2;
#X connect 7 0 211 3;
#X connect 12 0 13 0;
#X connect 14 0 209 0;
#X connect 15 0 4 1;
#X connect 15 0 5 1;
#X connect 15 0 6 1;
#X connect 15 0 7 1;
#X connect 16 0 15 0;
#X connect 33 0 0 0;
#X connect 34 0 1 0;
#X connect 35 0 2 0;
#X connect 36 0 3 0;
#X connect 37 0 41 0;
#X connect 38 0 42 0;
#X connect 39 0 43 0;
#X connect 40 0 44 0;
#X connect 45 0 210 0;
#X connect 46 0 37 1;
#X connect 46 0 38 1;
#X connect 46 0 39 1;
#X connect 46 0 40 1;
#X connect 47 0 46 0;
#X connect 48 0 37 0;
#X connect 49 0 38 0;
#X connect 50 0 39 0;
#X connect 51 0 40 0;
#X connect 52 0 40 0;
#X connect 53 0 39 0;
#X connect 54 0 38 0;
#X connect 55 0 37 0;
#X connect 56 0 37 0;
#X connect 57 0 38 0;
#X connect 58 0 39 0;
#X connect 59 0 40 0;
#X connect 60 0 40 0;
#X connect 61 0 39 0;
#X connect 62 0 38 0;
#X connect 63 0 37 0;
#X connect 64 0 208 0;
#X connect 69 0 78 0;
#X connect 73 0 130 0;
#X connect 74 0 130 0;
#X connect 75 0 130 0;
#X connect 76 0 130 0;
#X connect 78 0 65 0;
#X connect 78 0 79 0;
#X connect 79 0 66 0;
#X connect 79 0 80 0;
#X connect 80 0 67 0;
#X connect 80 0 81 0;
#X connect 81 0 68 0;
#X connect 82 0 147 2;
#X connect 83 0 147 3;
#X connect 84 0 12 0;
#X connect 87 0 89 0;
#X connect 88 0 90 0;
#X connect 89 0 147 2;
#X connect 90 0 147 3;
#X connect 92 0 130 0;
#X connect 97 0 154 0;
#X connect 98 0 97 0;
#X connect 98 1 97 1;
#X connect 99 0 113 0;
#X connect 100 0 99 0;
#X connect 100 1 99 1;
#X connect 101 0 114 0;
#X connect 102 0 101 0;
#X connect 102 1 101 1;
#X connect 103 0 115 0;
#X connect 104 0 103 0;
#X connect 104 1 103 1;
#X connect 105 0 175 0;
#X connect 106 0 174 0;
#X connect 107 0 173 0;
#X connect 108 0 176 0;
#X connect 109 0 155 6;
#X connect 110 0 184 0;
#X connect 110 0 182 0;
#X connect 110 0 180 0;
#X connect 110 0 178 0;
#X connect 111 0 169 0;
#X connect 111 0 167 0;
#X connect 111 0 165 0;
#X connect 111 0 163 0;
#X connect 112 0 96 0;
#X connect 113 0 94 0;
#X connect 114 0 95 0;
#X connect 115 0 96 0;
#X connect 117 0 155 5;
#X connect 118 0 155 4;
#X connect 120 0 213 0;
#X connect 120 0 248 0;
#X connect 125 0 206 0;
#X connect 127 0 125 1;
#X connect 129 0 128 0;
#X connect 130 0 129 0;
#X connect 130 1 133 0;
#X connect 131 0 129 0;
#X connect 132 0 135 0;
#X connect 133 0 131 0;
#X connect 134 0 133 1;
#X connect 135 0 134 0;
#X connect 141 0 65 0;
#X connect 141 0 66 0;
#X connect 141 0 67 0;
#X connect 141 0 68 0;
#X connect 142 0 143 0;
#X connect 144 0 98 0;
#X connect 144 0 100 0;
#X connect 144 0 102 0;
#X connect 144 0 104 0;
#X connect 145 0 152 0;
#X connect 145 0 246 0;
#X connect 146 0 152 0;
#X connect 147 0 145 0;
#X connect 147 1 146 0;
#X connect 147 2 86 0;
#X connect 147 3 85 0;
#X connect 147 4 207 0;
#X connect 148 0 147 0;
#X connect 149 0 147 1;
#X connect 153 0 147 4;
#X connect 154 0 93 0;
#X connect 155 1 116 0;
#X connect 155 2 119 0;
#X connect 159 0 157 0;
#X connect 160 0 158 0;
#X connect 161 0 156 0;
#X connect 162 0 172 0;
#X connect 163 0 162 0;
#X connect 163 1 162 1;
#X connect 164 0 171 0;
#X connect 165 0 164 0;
#X connect 165 1 164 1;
#X connect 166 0 170 0;
#X connect 167 0 166 0;
#X connect 167 1 166 1;
#X connect 168 0 112 0;
#X connect 169 0 168 0;
#X connect 169 1 168 1;
#X connect 170 0 95 0;
#X connect 171 0 94 0;
#X connect 172 0 93 0;
#X connect 173 0 162 0;
#X connect 173 0 97 0;
#X connect 173 0 177 0;
#X connect 173 0 189 0;
#X connect 173 0 251 0;
#X connect 174 0 164 0;
#X connect 174 0 99 0;
#X connect 174 0 179 0;
#X connect 174 0 191 0;
#X connect 174 0 252 0;
#X connect 175 0 166 0;
#X connect 175 0 101 0;
#X connect 175 0 181 0;
#X connect 175 0 193 0;
#X connect 175 0 253 0;
#X connect 176 0 168 0;
#X connect 176 0 103 0;
#X connect 176 0 183 0;
#X connect 176 0 195 0;
#X connect 176 0 254 0;
#X connect 177 0 188 0;
#X connect 178 0 177 0;
#X connect 178 1 177 1;
#X connect 179 0 187 0;
#X connect 180 0 179 0;
#X connect 180 1 179 1;
#X connect 181 0 186 0;
#X connect 182 0 181 0;
#X connect 182 1 181 1;
#X connect 183 0 185 0;
#X connect 184 0 183 0;
#X connect 184 1 183 1;
#X connect 185 0 96 0;
#X connect 186 0 95 0;
#X connect 187 0 94 0;
#X connect 188 0 93 0;
#X connect 189 0 201 0;
#X connect 190 0 189 0;
#X connect 190 1 189 1;
#X connect 191 0 200 0;
#X connect 192 0 191 0;
#X connect 192 1 191 1;
#X connect 193 0 199 0;
#X connect 194 0 193 0;
#X connect 194 1 193 1;
#X connect 195 0 198 0;
#X connect 196 0 195 0;
#X connect 196 1 195 1;
#X connect 197 0 196 0;
#X connect 197 0 194 0;
#X connect 197 0 192 0;
#X connect 197 0 190 0;
#X connect 198 0 96 0;
#X connect 199 0 95 0;
#X connect 200 0 94 0;
#X connect 201 0 93 0;
#X connect 204 0 65 0;
#X connect 204 0 66 0;
#X connect 204 0 67 0;
#X connect 204 0 68 0;
#X connect 205 0 203 0;
#X connect 205 0 204 0;
#X connect 206 0 65 0;
#X connect 206 1 66 0;
#X connect 206 2 67 0;
#X connect 206 3 68 0;
#X connect 206 4 91 0;
#X connect 208 0 12 0;
#X connect 209 0 16 0;
#X connect 210 0 47 0;
#X connect 211 0 8 0;
#X connect 211 1 9 0;
#X connect 211 2 10 0;
#X connect 211 3 11 0;
#X connect 211 4 215 0;
#X connect 212 0 211 4;
#X connect 213 0 150 0;
#X connect 213 1 151 0;
#X connect 213 2 123 0;
#X connect 213 3 122 0;
#X connect 213 4 121 0;
#X connect 213 5 126 0;
#X connect 213 6 125 0;
#X connect 213 7 139 0;
#X connect 213 8 202 0;
#X connect 213 8 245 0;
#X connect 213 9 214 0;
#X connect 215 0 223 0;
#X connect 215 1 218 0;
#X connect 216 0 223 0;
#X connect 217 0 220 0;
#X connect 218 0 216 0;
#X connect 219 0 221 0;
#X connect 220 0 219 0;
#X connect 221 0 222 0;
#X connect 222 0 218 1;
#X connect 223 0 128 0;
#X connect 240 0 4 0;
#X connect 241 0 5 0;
#X connect 242 0 6 0;
#X connect 243 0 7 0;
#X connect 244 0 202 0;
#X connect 245 0 78 0;
#X connect 248 2 140 0;
#X connect 249 0 250 0;
#X connect 250 0 214 0;
#X coords 0 -1 1 1 1420 745 1 0 0;
