#N canvas 356 51 1390 708 10;
#X declare -path ./fm_synth_abs;
#X obj 80 24 dx7_interface 1;
#X obj 181 23 dx7_interface 2;
#X obj 279 24 dx7_interface 3;
#X obj 378 24 dx7_interface 4;
#X obj 477 24 dx7_interface 5;
#X obj 576 24 dx7_interface 6;
#X msg 717 -214 all algorithm \$1;
#N canvas 240 201 1423 860 randomise 0;
#X obj 53 10 inlet;
#X obj 57 51 bng 15 250 50 0 empty empty empty 17 7 0 10 #fcfcfc #000000 #000000;
#X obj 27 141 random 32;
#X obj 27 162 + 1;
#X obj 314 48 t b b b b b b, f 45;
#N canvas 0 23 1534 572 random_params 0;
#X obj 55 25 inlet;
#X msg 1080 141 0, f 2;
#X obj 1079 80 random 10;
#X obj 1079 101 sel 0 1 2 3 4 5 6 7 8 9;
#X msg 1175 144 1, f 2;
#X obj 155 459 outlet;
#X obj 1220 146 random 1000;
#X obj 819 108 random 9;
#X obj 936 128 random 10;
#X obj 936 149 - 5;
#X obj 936 170 * 0.01;
#X obj 822 196 + 0.01;
#X obj 827 74 bng 15 250 50 0 empty empty empty 17 7 0 10 #fcfcfc #000000 #000000;
#X obj 94 220 random 100;
#X obj 44 156 random 4;
#X obj 44 177 sel 0 1 2 3;
#X obj 94 241 * 0.01;
#X msg 45 217 1, f 2;
#X obj 1366 151 inlet;
#X obj 1222 283 pack f f;
#X floatatom 1368 230 5 0 0 0 - - - 0;
#X obj 47 308 pack f f;
#X obj 824 298 pack f f;
#X obj 1083 294 pack f f;
#X msg 45 336 all \$2 level \$1;
#X msg 822 326 all \$2 ratio \$1;
#X msg 1080 321 all \$2 mode \$1;
#X msg 1216 309 all \$2 fixed \$1;
#X obj 892 424 random 127;
#X obj 893 462 pack f f;
#X msg 896 504 all \$2 mod \$1;
#X obj 1023 507 pack f f;
#X msg 1026 549 all \$2 det \$1;
#X obj 1027 431 random 14;
#X obj 1022 481 - 7;
#X text 1038 412 maybe put a gaussian?;
#X obj 439 23 inlet;
#X obj 194 76 t b b b, f 67;
#X obj 231 177 i;
#X obj 328 166 loadbang;
#X msg 328 189 0;
#N canvas 66 32 1854 977 randomize_envelope 0;
#X msg -367 399 5, f 2;
#X obj -125 346 random 100;
#X obj -125 367 * 0.01;
#X obj -217 342 random 100;
#X obj -217 363 * 0.01;
#X obj -28 343 random 100;
#X obj -28 364 * 0.01;
#X obj -28 386 *;
#X obj -217 391 *;
#X obj -408 253 t b b b b;
#X obj 205 19 inlet;
#X obj 391 346 random 100;
#X obj 391 367 * 0.01;
#X obj 299 342 random 100;
#X obj 299 363 * 0.01;
#X obj 488 343 random 100;
#X obj 488 364 * 0.01;
#X obj 488 386 *;
#X obj 299 387 *;
#X obj 164 240 t b b b b;
#X obj -298 410 random 2000;
#X obj -368 359 sel 0 1 2 3 4 5 6 7;
#X obj -367 338 random 8;
#X obj 153 119 sel 0 1 2;
#X text -387 229 original;
#X obj 853 344 random 100;
#X obj 758 344 random 100;
#X obj 940 343 random 100;
#X obj 567 255 t b b b b;
#X text 642 240 pads;
#X text 240 224 keys;
#X floatatom 303 254 5 0 0 0 - - - 0;
#X obj 303 276 bng 18 250 50 0 empty empty empty 0 -9 0 10 #fcfcfc #000000 #000000;
#X obj 530 16 inlet;
#X msg -389 527 a \$1;
#X msg -356 528 d \$1;
#X msg -319 527 s \$1;
#X msg -286 528 r \$1;
#X obj 396 721 list prepend;
#X obj 407 746 list trim;
#X obj 497 772 outlet;
#X msg 264 506 a \$1;
#X msg 297 507 d \$1;
#X msg 334 506 s \$1;
#X msg 367 507 r \$1;
#X msg 561 608 a \$1;
#X msg 594 609 d \$1;
#X msg 631 608 s \$1;
#X msg 664 609 r \$1;
#X obj -25 429 * 127;
#X obj -216 428 * 127;
#X obj 300 416 * 127;
#X obj 489 408 * 127;
#X obj 392 416 * 127;
#X obj -123 399 *;
#X obj -122 433 * 127;
#X obj 240 373 * 0.01;
#X obj 240 397 *;
#X obj 202 344 random 100;
#X obj 238 420 * 20;
#X obj 393 391 *;
#X obj 675 354 random 100;
#X obj 680 383 * 0.01;
#X obj 680 405 *;
#X obj 681 427 * 127;
#X obj 751 385 * 0.01;
#X obj 751 407 *;
#X obj 752 429 * 127;
#X obj 850 381 * 0.01;
#X obj 850 403 *;
#X obj 851 425 * 127;
#X obj 936 380 * 0.01;
#X obj 938 405 *;
#X obj 937 424 * 127;
#X connect 0 0 34 0;
#X connect 1 0 2 0;
#X connect 2 0 54 0;
#X connect 2 0 54 1;
#X connect 3 0 4 0;
#X connect 4 0 8 1;
#X connect 4 0 8 0;
#X connect 5 0 6 0;
#X connect 6 0 7 1;
#X connect 6 0 7 0;
#X connect 7 0 49 0;
#X connect 8 0 50 0;
#X connect 9 0 22 0;
#X connect 9 1 3 0;
#X connect 9 2 1 0;
#X connect 9 3 5 0;
#X connect 10 0 23 0;
#X connect 11 0 12 0;
#X connect 12 0 60 1;
#X connect 12 0 60 0;
#X connect 13 0 14 0;
#X connect 14 0 18 1;
#X connect 14 0 18 0;
#X connect 15 0 16 0;
#X connect 16 0 17 1;
#X connect 16 0 17 0;
#X connect 17 0 52 0;
#X connect 18 0 51 0;
#X connect 19 0 58 0;
#X connect 19 1 13 0;
#X connect 19 2 11 0;
#X connect 19 3 15 0;
#X connect 20 0 34 0;
#X connect 21 0 0 0;
#X connect 21 1 0 0;
#X connect 21 2 0 0;
#X connect 21 3 0 0;
#X connect 21 4 0 0;
#X connect 21 5 0 0;
#X connect 21 6 0 0;
#X connect 21 7 20 0;
#X connect 22 0 21 0;
#X connect 23 0 9 0;
#X connect 23 1 19 0;
#X connect 23 2 28 0;
#X connect 25 0 68 0;
#X connect 26 0 65 0;
#X connect 27 0 71 0;
#X connect 28 0 61 0;
#X connect 28 1 26 0;
#X connect 28 2 25 0;
#X connect 28 3 27 0;
#X connect 31 0 32 0;
#X connect 32 0 13 0;
#X connect 33 0 38 1;
#X connect 34 0 38 0;
#X connect 35 0 38 0;
#X connect 36 0 38 0;
#X connect 37 0 38 0;
#X connect 38 0 39 0;
#X connect 39 0 40 0;
#X connect 41 0 38 0;
#X connect 42 0 38 0;
#X connect 43 0 38 0;
#X connect 44 0 38 0;
#X connect 45 0 38 0;
#X connect 46 0 38 0;
#X connect 47 0 38 0;
#X connect 48 0 38 0;
#X connect 49 0 37 0;
#X connect 50 0 35 0;
#X connect 51 0 42 0;
#X connect 52 0 44 0;
#X connect 53 0 43 0;
#X connect 54 0 55 0;
#X connect 55 0 36 0;
#X connect 56 0 57 1;
#X connect 56 0 57 0;
#X connect 57 0 59 0;
#X connect 58 0 56 0;
#X connect 59 0 41 0;
#X connect 60 0 53 0;
#X connect 61 0 62 0;
#X connect 62 0 63 1;
#X connect 62 0 63 0;
#X connect 63 0 64 0;
#X connect 64 0 45 0;
#X connect 65 0 66 1;
#X connect 65 0 66 0;
#X connect 66 0 67 0;
#X connect 67 0 46 0;
#X connect 68 0 69 1;
#X connect 68 0 69 0;
#X connect 69 0 70 0;
#X connect 70 0 47 0;
#X connect 71 0 72 1;
#X connect 71 0 72 0;
#X connect 72 0 73 0;
#X connect 73 0 48 0;
#X restore 273 329 pd randomize_envelope;
#X obj 239 378 list prepend;
#X obj 239 401 list trim;
#X obj 356 370 loadbang;
#X msg 356 393 all;
#X connect 0 0 2 0;
#X connect 0 0 12 0;
#X connect 0 0 14 0;
#X connect 0 0 37 0;
#X connect 1 0 23 0;
#X connect 2 0 3 0;
#X connect 3 0 1 0;
#X connect 3 1 1 0;
#X connect 3 2 1 0;
#X connect 3 3 1 0;
#X connect 3 4 1 0;
#X connect 3 5 1 0;
#X connect 3 6 1 0;
#X connect 3 7 1 0;
#X connect 3 8 1 0;
#X connect 3 9 4 0;
#X connect 3 9 6 0;
#X connect 4 0 23 0;
#X connect 6 0 19 0;
#X connect 7 0 11 0;
#X connect 8 0 9 0;
#X connect 9 0 10 0;
#X connect 10 0 11 1;
#X connect 11 0 22 0;
#X connect 12 0 7 0;
#X connect 12 0 8 0;
#X connect 13 0 16 0;
#X connect 14 0 15 0;
#X connect 15 0 17 0;
#X connect 15 1 17 0;
#X connect 15 2 17 0;
#X connect 15 3 13 0;
#X connect 16 0 21 0;
#X connect 17 0 21 0;
#X connect 18 0 20 0;
#X connect 19 0 27 0;
#X connect 20 0 21 1;
#X connect 20 0 22 1;
#X connect 20 0 19 1;
#X connect 20 0 23 1;
#X connect 20 0 29 1;
#X connect 20 0 31 1;
#X connect 20 0 41 1;
#X connect 21 0 24 0;
#X connect 22 0 25 0;
#X connect 23 0 26 0;
#X connect 24 0 5 0;
#X connect 25 0 5 0;
#X connect 26 0 5 0;
#X connect 27 0 5 0;
#X connect 28 0 29 0;
#X connect 29 0 30 0;
#X connect 30 0 5 0;
#X connect 31 0 32 0;
#X connect 32 0 5 0;
#X connect 33 0 34 0;
#X connect 34 0 31 0;
#X connect 36 0 38 1;
#X connect 37 0 38 0;
#X connect 37 1 28 0;
#X connect 37 2 33 0;
#X connect 38 0 41 0;
#X connect 39 0 40 0;
#X connect 40 0 38 1;
#X connect 41 0 42 0;
#X connect 42 0 43 0;
#X connect 43 0 5 0;
#X connect 44 0 45 0;
#X connect 45 0 42 1;
#X restore 329 295 pd random_params;
#X obj 534 85 t b b;
#X msg 554 111 1;
#X obj 484 84 t b b;
#X obj 438 87 t b b;
#X obj 393 91 t b b;
#X obj 351 93 t b b;
#X obj 310 96 t b b;
#X msg 504 110 2;
#X msg 458 113 3;
#X msg 413 117 4;
#X msg 371 119 5;
#X msg 330 122 6;
#X obj 141 155 random 4;
#X obj 143 175 sel 0 1 2 3;
#X msg 138 212 0;
#X obj 201 217 random 100;
#X obj 190 238 * 0.01;
#X obj 29 373 outlet;
#X msg 143 295 all feedback \$1;
#X msg 27 218 all algorithm \$1;
#X obj 277 8 inlet;
#X connect 0 0 1 0;
#X connect 1 0 2 0;
#X connect 1 0 4 0;
#X connect 1 0 18 0;
#X connect 2 0 3 0;
#X connect 3 0 25 0;
#X connect 4 0 12 0;
#X connect 4 1 11 0;
#X connect 4 2 10 0;
#X connect 4 3 9 0;
#X connect 4 4 8 0;
#X connect 4 5 6 0;
#X connect 5 0 23 0;
#X connect 6 0 5 0;
#X connect 6 1 7 0;
#X connect 7 0 5 2;
#X connect 8 0 5 0;
#X connect 8 1 13 0;
#X connect 9 0 5 0;
#X connect 9 1 14 0;
#X connect 10 0 5 0;
#X connect 10 1 15 0;
#X connect 11 0 5 0;
#X connect 11 1 16 0;
#X connect 12 0 5 0;
#X connect 12 1 17 0;
#X connect 13 0 5 2;
#X connect 14 0 5 2;
#X connect 15 0 5 2;
#X connect 16 0 5 2;
#X connect 17 0 5 2;
#X connect 18 0 19 0;
#X connect 19 0 20 0;
#X connect 19 1 20 0;
#X connect 19 2 20 0;
#X connect 19 3 21 0;
#X connect 20 0 24 0;
#X connect 21 0 22 0;
#X connect 22 0 24 0;
#X connect 24 0 23 0;
#X connect 25 0 23 0;
#X connect 26 0 5 1;
#X restore 213 803 pd randomise;
#X obj 25 88 bng 15 250 50 0 empty empty rand 17 7 0 10 #fcfcfc #000000 #000000;
#X obj 212 858 route feedback algorithm;
#X obj 214 824 route all;
#X floatatom 712 -81 5 0 0 0 - - - 0;
#X msg 712 -61 all feedback \$1;
#X obj 712 -40 s \$0-to_dx7;
#X obj 717 -193 s \$0-to_dx7;
#X obj 81 229 s \$0-to_dx7;
#X obj 171 227 s \$0-to_dx7;
#X obj 258 227 s \$0-to_dx7;
#X obj 349 225 s \$0-to_dx7;
#X obj 445 231 s \$0-to_dx7;
#X obj 531 224 s \$0-to_dx7;
#X obj 607 823 r \$0-to_dx7;
#X obj 692 52 hsl 40 15 0 1 0 0 empty empty fbk 5 9 1 10 #000000 #ffffff #7c7c7c 0 1;
#X obj 79 -21 r \$0-to_interfaces;
#X obj 171 -55 r \$0-to_interfaces;
#X obj 348 -56 r \$0-to_interfaces;
#X obj 252 -21 r \$0-to_interfaces;
#X obj 443 -21 r \$0-to_interfaces;
#X obj 540 -49 r \$0-to_interfaces;
#X obj 719 30 nbx 2 16 1 32 0 0 empty empty alg -17 9 1 10 #000000 #ffffff #7c7c7c 0 256;
#X text 234 783 comment;
#X obj 384 906 s \$0-to_interfaces;
#X obj 872 1080 dx7Poly;
#X obj 967 1079 dx7Poly;
#X obj 630 858 list split 1;
#X obj 670 911 list trim;
#X obj 1066 1081 dx7Poly;
#X obj 1163 1080 dx7Poly;
#X obj 861 1298 dx7Poly;
#X obj 956 1298 dx7Poly;
#X obj 1055 1300 dx7Poly;
#X obj 1154 1302 dx7Poly;
#X obj 836 1053 r to_synth_1_\$0;
#X obj 965 1053 r to_synth_2_\$0;
#X obj 1063 1054 r to_synth_3_\$0;
#X obj 1162 1055 r to_synth_4_\$0;
#X obj 860 1276 r to_synth_5_\$0;
#X obj 957 1276 r to_synth_6_\$0;
#X obj 1055 1277 r to_synth_7_\$0;
#X obj 1153 1278 r to_synth_8_\$0;
#X obj 910 1031 r s1_onoff_\$0;
#X obj 1014 1031 r s2_onoff_\$0;
#X obj 1111 1034 r s3_onoff_\$0;
#X obj 1217 1031 r s4_onoff_\$0;
#X obj 1210 1256 r s8_onoff_\$0;
#X obj 1107 1257 r s7_onoff_\$0;
#X obj 1005 1255 r s6_onoff_\$0;
#X obj 903 1254 r s5_onoff_\$0;
#X obj 1152 1366 s~ from_synth_8_\$0;
#X obj 861 1387 s~ from_synth_5_\$0;
#X obj 956 1366 s~ from_synth_6_\$0;
#X obj 1054 1387 s~ from_synth_7_\$0;
#X obj 877 1171 s~ from_synth_1_\$0;
#X obj 972 1150 s~ from_synth_2_\$0;
#X obj 1070 1171 s~ from_synth_3_\$0;
#X obj 1168 1150 s~ from_synth_4_\$0;
#X obj 59 -119 loadbang;
#X obj 986 39 vsl 25 153 0 1 0 0 empty empty vol 0 -9 1 10 #000000 #ffffff #7c7c7c 0 1;
#X obj 986 -59 s vol_\$0;
#X obj -21 -345 s ID_\$0;
#X obj -22 -390 loadbang;
#X msg -22 -366 0;
#X obj 987 -39 r preset_vol_\$0;
#X obj 1011 -21 loadbang;
#X obj 858 27 lfo;
#X obj 945 -537 loadbang;
#X obj 916 -520 r preset_lfo_frq_\$0;
#X obj 952 -478 loadbang;
#X obj 919 -462 r preset_lfo_dep_\$0;
#X obj 944 -423 loadbang;
#X msg 916 -423 0;
#X obj 918 -408 r preset_lfo_wav_\$0;
#X obj 944 -371 loadbang;
#X obj 920 -352 r preset_lfo_mul_\$0;
#X obj 916 -387 s lfo_mul_\$0;
#X obj 918 -440 s lfo_wav_\$0;
#X obj 915 -499 s lfo_dep_\$0;
#X obj 916 -557 s lfo_frq_\$0;
#X obj -327 1308 r~ from_synth_1_\$0;
#X obj 173 1707 *~;
#X obj 422 1708 *~;
#X obj 273 1708 *~;
#X obj 345 1706 *~;
#X obj -192 1310 r~ from_synth_2_\$0;
#X obj -39 1309 r~ from_synth_3_\$0;
#X obj 96 1311 r~ from_synth_4_\$0;
#X obj 248 1311 r~ from_synth_5_\$0;
#X obj 383 1313 r~ from_synth_6_\$0;
#X obj 536 1312 r~ from_synth_7_\$0;
#X obj 671 1314 r~ from_synth_8_\$0;
#X obj -350 1500 r vol_\$0;
#X obj -319 1631 * 0.125;
#X obj -460 1528 sel 0 1;
#X obj -294 1584 t b f;
#X msg -416 1564 1;
#X obj -254 1606 pack 0 100;
#X obj -153 1643 line~;
#X msg -461 1564 0.5;
#X obj -458 1500 r mono_\$0;
#X obj 30 -141 s mono_\$0;
#X obj 32 -99 r preset_mono_\$0;
#X obj 1016 439 s set_preset_sync_\$0;
#X obj 1040 416 s set_preset_div_\$0;
#X obj 1065 395 s set_preset_bpm_\$0;
#X obj 1085 374 s set_preset_shape_\$0;
#X obj 1102 351 s set_preset_trans_\$0;
#X obj 1119 329 s set_preset_spread_\$0;
#X obj 1302 -93 r preset_spread_\$0;
#X obj 1280 -112 r preset_trans_\$0;
#X obj 1261 -131 r preset_shape_\$0;
#X obj 1219 -170 r preset_div_\$0;
#X obj 1241 -151 r preset_bpm_\$0;
#X obj 1192 -192 r preset_sync_\$0;
#X obj 1162 -247 r bang_\$0;
#X obj 1176 -218 r rst_\$0;
#X obj 677 110 four_quad_pan_automations;
#X msg 31 -119 0;
#X obj -49 1831 quad_pan;
#X obj 132 1830 quad_pan;
#X obj 310 1831 quad_pan;
#X obj 487 1830 quad_pan;
#X obj -12 1778 r x_1_\$0;
#X obj 50 1778 r y_1_\$0;
#X obj 165 1777 r x_2_\$0;
#X obj 222 1777 r y_2_\$0;
#X obj 337 1777 r x_3_\$0;
#X obj 397 1779 r y_3_\$0;
#X obj 587 1777 r y_4_\$0;
#X obj 519 1780 r x_4_\$0;
#X obj 680 262 s x_1_\$0;
#X obj 685 281 s y_1_\$0;
#X obj 694 301 s x_2_\$0;
#X obj 703 321 s y_2_\$0;
#X obj 710 341 s x_3_\$0;
#X obj 719 361 s y_3_\$0;
#X obj 728 381 s x_4_\$0;
#X obj 736 401 s y_4_\$0;
#X obj 302 757 r rand_type_\$0;
#X obj 26 111 hradio 15 1 0 3 empty empty empty 0 -9 0 10 #fcfcfc #000000 #000000 0;
#X obj 163 294 s rand_type_\$0;
#X obj 146 267 + 1;
#X obj 73 1640 lop~;
#X obj 172 1644 lop~;
#X obj 275 1646 lop~;
#X obj 381 1643 lop~;
#X obj 690 72 hsl 90 15 0 127 0 0 empty empty low\ pass 5 8 1 10 #000000 #ffffff #7c7c7c 0 1;
#X obj 688 -370 s filter_\$0;
#X msg 922 -479 127;
#X msg 917 -537 75;
#X obj 688 -352 r preset_filter_\$0;
#X msg 687 -334 127;
#X obj 714 -334 loadbang;
#X obj 637 1534 / 127;
#X obj 637 1504 r filter_\$0;
#X obj 25 186 bng 18 250 50 0 empty empty no\ fbk 22 10 1 10 #fcfcfc #000000 #000000;
#X obj 25 164 bng 18 250 50 0 empty empty no\ det 22 10 1 10 #fcfcfc #000000 #000000;
#X msg 7 235 0;
#X obj 6 255 s reset_det_\$0;
#X obj 414 836 r reset_det_\$0;
#X msg 415 867 allOscs det 0;
#X obj 563 1579 line~;
#X obj 636 1611 pack 0 50;
#X msg 916 -371 0;
#X obj 49 -387 loadbang;
#X msg 49 -364 \; pd dsp 1;
#X obj 719 -240 r preset_algo_\$0;
#X obj 710 -22 r preset_fbk_\$0;
#X obj 1325 -71 r ctrl_shape-_\$0;
#X obj 1342 -49 r ctrl_shape+_\$0;
#X obj 1168 280 s feedbk_shape_name_out_\$0;
#X obj -145 107 r ctrl_rnd_go_\$0;
#X obj -149 131 r ctrl_rnd_sel_\$0;
#X obj -130 159 r ctrl_no_det_\$0;
#X obj -129 183 r ctrl_no_fbk_\$0;
#X obj 1145 304 s set_preset_mono_phase_\$0;
#X obj 1360 -23 r preset_mono_phase_\$0;
#X obj 25 64 bng 18 250 50 0 empty empty 440 20 10 1 10 #fcfcfc #000000 #000000;
#X obj 1379 -1 r preset_trig_onoff_\$0;
#X obj 1191 256 s set_preset_trig_onoff_\$0;
#X obj 1401 24 r ctrl_trig_go_\$0;
#X obj -150 360 unpack 0 0;
#X obj -150 384 sel 0;
#X obj -112 412 s ctrl_trig_go_\$0;
#X obj -107 386 bng 18 250 50 0 empty empty empty 0 -9 0 10 #fcfcfc #000000 #000000;
#X obj -632 -362 s bang_\$0;
#X obj -561 -362 s rst_\$0;
#X obj -582 -449 inlet;
#X obj -356 -360 s save_\$0;
#X obj -432 -359 s load_\$0;
#X obj -492 -360 s ID_\$0;
#X text -585 -474 internal_in;
#X obj -260 -253 s control_\$0;
#X obj -273 -286 route name;
#X obj -316 -388 s osc_name_\$0;
#X obj -242 -326 r osc_name_\$0;
#X obj -189 -358 s notes_in_\$0;
#X obj -301 87 s notes_in_\$0;
#X obj 716 1811 r control_out_\$0;
#X obj 694 1988 outlet;
#X obj 694 1962 oscformat;
#X obj 697 1884 list split 1;
#X obj 727 1930 list trim;
#X obj 821 1883 r osc_name_\$0;
#X obj 727 1908 list prepend;
#X obj 821 1928 list trim;
#X obj 821 1906 list prepend set;
#X text 697 2011 osc_out;
#N canvas 66 32 1854 977 handle_presets 0;
#X obj -146 2325 tabwrite presets_\$0;
#X msg 265 975 \$1 1;
#X msg 265 952 \$1 0;
#X msg 265 998 \$1 2;
#X msg 265 1021 \$1 3;
#X msg 265 1044 \$1 4;
#X msg 265 1068 \$1 5;
#X msg 265 1090 \$1 6;
#X msg 265 1113 \$1 7;
#X msg 265 1136 \$1 8;
#X msg 265 1159 \$1 9;
#X msg 265 1182 \$1 10;
#X msg 265 1205 \$1 11;
#X msg 265 1228 \$1 12;
#X msg 265 1251 \$1 13;
#X msg 265 1274 \$1 14;
#X msg 265 1297 \$1 15;
#X msg 265 1320 \$1 16;
#X msg 265 1343 \$1 17;
#X msg 265 1366 \$1 18;
#X msg 265 1389 \$1 19;
#X msg 265 1412 \$1 20;
#X msg 265 1435 \$1 21;
#X msg 265 1458 \$1 22;
#X msg 265 1481 \$1 23;
#X msg 265 1504 \$1 24;
#X msg 265 1527 \$1 25;
#X msg 265 1550 \$1 26;
#X msg 265 1573 \$1 27;
#X msg 265 1596 \$1 28;
#X msg 265 1619 \$1 29;
#X msg 265 1642 \$1 30;
#X msg 265 1665 \$1 31;
#X msg 265 1688 \$1 32;
#X msg 265 1711 \$1 33;
#X msg 265 1734 \$1 34;
#X msg 265 1757 \$1 35;
#X msg 265 1780 \$1 36;
#X obj 87 2178 list;
#X obj -69 2251 unpack 0 0;
#X obj 632 1270 list split 2;
#X obj 666 1327 route 1 2 3 4 5 6;
#X obj 619 1225 r \$0-to_dx7;
#X obj 618 1695 route all;
#X obj 618 1718 route feedback algorithm;
#X msg 766 850 1 ratio \$1;
#X msg 775 872 1 level \$1;
#X obj 766 1061 s \$0-to_interfaces;
#X msg 265 1803 \$1 37;
#X msg 265 1826 \$1 38;
#X msg 265 1849 \$1 39;
#X msg 265 1870 \$1 40;
#X obj 299 1849 r arp_on_\$0;
#X obj 299 1870 r vol_\$0;
#X obj 1589 935 s preset_arp_on_\$0;
#X obj 1604 959 s preset_vol_\$0;
#X msg 265 1894 \$1 41;
#X msg 265 1917 \$1 42;
#X msg 265 1940 \$1 43;
#X msg 265 1963 \$1 44;
#X msg 265 1986 \$1 45;
#X msg 265 2007 \$1 46;
#X obj 449 1914 route mod;
#X obj 531 1812 list split 2;
#X obj 565 1869 route 1 2 3 4 5 6;
#X obj 518 1767 r \$0-to_dx7;
#X obj 459 1924 route mod;
#X obj 469 1934 route mod;
#X obj 479 1944 route mod;
#X obj 489 1954 route mod;
#X obj 499 1964 route mod;
#X obj 1649 1087 s \$0-to_interfaces;
#X msg 1699 883 6 mod \$1;
#X msg 1649 833 1 mod \$1;
#X msg 1659 843 2 mod \$1;
#X msg 1669 853 3 mod \$1;
#X msg 1679 863 4 mod \$1;
#X msg 1689 873 5 mod \$1;
#X msg 266 2028 \$1 47;
#X msg 266 2051 \$1 48;
#X msg 266 2074 \$1 49;
#X msg 266 2095 \$1 50;
#X obj 305 2028 r lfo_frq_\$0;
#X obj 305 2051 r lfo_dep_\$0;
#X obj 305 2074 r lfo_wav_\$0;
#X obj 305 2095 r lfo_mul_\$0;
#X obj 1748 853 s preset_lfo_frq_\$0;
#X obj 1765 880 s preset_lfo_dep_\$0;
#X obj 1774 901 s preset_lfo_wav_\$0;
#X obj 1790 922 s preset_lfo_mul_\$0;
#X obj 299 1826 r mono_\$0;
#X obj 1588 911 s preset_mono_\$0;
#X obj 304 2115 r set_preset_sync_\$0;
#X obj 303 2138 r set_preset_div_\$0;
#X obj 347 2160 r set_preset_bpm_\$0;
#X obj 302 2179 r set_preset_shape_\$0;
#X obj 302 2202 r set_preset_trans_\$0;
#X obj 301 2225 r set_preset_spread_\$0;
#X obj 1896 834 s preset_sync_\$0;
#X obj 1923 856 s preset_div_\$0;
#X obj 1955 879 s preset_bpm_\$0;
#X obj 1965 895 s preset_shape_\$0;
#X obj 1984 914 s preset_trans_\$0;
#X obj 2008 935 s preset_spread_\$0;
#X msg 266 2115 \$1 51;
#X msg 264 2136 \$1 52;
#X msg 264 2157 \$1 53;
#X msg 264 2180 \$1 54;
#X msg 264 2203 \$1 55;
#X msg 263 2224 \$1 56;
#X obj 554 2168 list split 2;
#X obj 437 2229 route 1 2 3 4 5 6;
#X obj 541 2123 r \$0-to_dx7;
#X obj 321 2274 route det;
#X obj 331 2284 route det;
#X obj 351 2304 route det;
#X obj 341 2294 route det;
#X obj 361 2314 route det;
#X obj 371 2324 route det;
#X msg 263 2245 \$1 57;
#X msg 261 2266 \$1 58;
#X msg 261 2287 \$1 59;
#X msg 261 2310 \$1 60;
#X msg 261 2333 \$1 61;
#X msg 260 2354 \$1 62;
#X obj 1956 1114 s \$0-to_interfaces;
#X msg 1926 965 1 det \$1;
#X msg 1940 977 2 det \$1;
#X msg 1950 987 3 det \$1;
#X msg 1960 997 4 det \$1;
#X msg 1976 1006 5 det \$1;
#X msg 1986 1020 6 det \$1;
#X msg 260 2374 \$1 63;
#X obj 300 2374 r filter_\$0;
#X obj 2016 955 s preset_filter_\$0;
#X obj 867 691 r control_\$0;
#X obj -192 2207 s control_out_\$0;
#X msg 1790 548 1 rst 0;
#X obj 1854 621 s \$0-to_interfaces;
#X msg 1814 566 2 rst 0;
#X msg 1839 583 3 rst 0;
#X msg 1861 548 4 rst 0;
#X msg 1885 566 5 rst 0;
#X msg 1910 583 6 rst 0;
#X obj 920 1063 s \$0-to_interfaces;
#X obj 1203 1071 s \$0-to_interfaces;
#X obj 1326 1072 s \$0-to_interfaces;
#X obj 1447 1074 s \$0-to_interfaces;
#X obj 1086 1071 s \$0-to_interfaces;
#X msg 920 852 2 ratio \$1;
#X msg 943 880 2 level \$1;
#X msg 1109 888 3 level \$1;
#X msg 1086 860 3 ratio \$1;
#X msg 1203 860 4 ratio \$1;
#X msg 1226 888 4 level \$1;
#X msg 1349 889 5 level \$1;
#X msg 1326 861 5 ratio \$1;
#X msg 1447 863 6 ratio \$1;
#X msg 1470 891 6 level \$1;
#X obj 1569 868 s preset_algo_\$0;
#X obj 1533 840 s preset_fbk_\$0;
#X obj 1546 821 i;
#X obj 1913 529 s ctrl_shape-_\$0;
#X obj 1948 551 s ctrl_shape+_\$0;
#X obj -116 2118 list trim;
#X obj -132 1847 r feedbk_shape_name_out_\$0;
#X obj 315 2159 i;
#X obj 1927 878 i;
#X obj -362 1535 r x_1_\$0;
#X obj -300 1534 r y_1_\$0;
#X obj -290 1611 r y_2_\$0;
#X obj -296 1676 r y_3_\$0;
#X obj -301 1754 r y_4_\$0;
#X obj -363 1755 r x_4_\$0;
#X obj -359 1676 r x_3_\$0;
#X obj -356 1611 r x_2_\$0;
#X obj 1968 475 s ctrl_rnd_go_\$0;
#X obj 2003 497 s ctrl_rnd_sel_\$0;
#X msg 788 895 1 a \$1;
#X msg 797 917 1 d \$1;
#X msg 809 939 1 s \$1;
#X msg 820 962 1 r \$1;
#X msg 1488 920 6 a \$1;
#X msg 1497 942 6 d \$1;
#X msg 1509 964 6 s \$1;
#X msg 1520 987 6 r \$1;
#X msg 1360 917 5 a \$1;
#X msg 1369 939 5 d \$1;
#X msg 1381 961 5 s \$1;
#X msg 1392 984 5 r \$1;
#X msg 1276 985 4 r \$1;
#X msg 1265 962 4 s \$1;
#X msg 1253 940 4 d \$1;
#X msg 1244 918 4 a \$1;
#X msg 1124 918 3 a \$1;
#X msg 1133 940 3 d \$1;
#X msg 1145 962 3 s \$1;
#X msg 1156 985 3 r \$1;
#X msg 956 906 2 a \$1;
#X msg 972 931 2 d \$1;
#X msg 984 953 2 s \$1;
#X msg 995 976 2 r \$1;
#X obj 2045 454 s ctrl_no_det_\$0;
#X obj 2080 476 s ctrl_no_fbk_\$0;
#X floatatom 821 1006 5 0 0 0 - - - 0;
#X obj 392 910 route ratio level a d s r;
#X obj 399 1028 route ratio level a d s r;
#X obj 408 1172 route ratio level a d s r;
#X obj 410 1299 route ratio level a d s r;
#X obj 411 1442 route ratio level a d s r;
#X obj 412 1587 route ratio level a d s r;
#X msg 261 2396 \$1 64;
#X obj 301 2396 r set_preset_mono_phase_\$0;
#X obj 2029 976 s preset_mono_phase_\$0;
#X msg 260 2419 \$1 65;
#X obj 305 2418 r set_preset_trig_onoff_\$0;
#X obj 2042 995 s preset_trig_onoff_\$0;
#X obj -100 1921 r feedbk_sync_name_out_\$0;
#X obj 952 485 f;
#X obj 680 443 r save_\$0;
#X obj 945 434 r load_\$0;
#X obj 975 516 r ID_\$0;
#X obj 715 487 r ID_\$0;
#X obj 1032 515 r current_path_\$0;
#X obj 772 486 r current_path_\$0;
#X obj 928 549 load_preset presets_\$0;
#X obj 1287 488 f;
#X obj 1283 439 r load_init_\$0;
#X obj 1264 551 load_init presets_\$0 fm_synth_abs;
#X msg 260 2440 \$1 66;
#X msg 259 2463 \$1 67;
#X obj 304 2462 r lfo_phs_\$0;
#X obj 300 2440 r lfo_sync_\$0;
#X obj 2052 1018 s preset_lfo_sync_\$0;
#X obj 2062 1040 s preset_lfp_phs_\$0;
#X obj -171 1776 r fbk_lfo_showtime_\$0;
#X obj -172 1807 list append 201;
#X obj 2067 366 s ctrl_rnd_algo_\$0;
#X obj 2163 514 s ctrl_440_go_\$0;
#X msg 404 300 0;
#X text 437 299 click this to save this configuration as init;
#X obj -133 1878 list append 202;
#X msg -360 1562 \$1 203;
#X msg -297 1562 \$1 204;
#X msg -355 1638 \$1 205;
#X msg -292 1638 \$1 206;
#X msg -360 1699 \$1 207;
#X msg -297 1699 \$1 208;
#X msg -360 1784 \$1 209;
#X msg -297 1784 \$1 210;
#X obj 2155 391 s ctrl_trig_go_\$0;
#X obj 1765 414 route 100 101 102 103 104 105 106 107 108 109 110 111 112 113 114, f 71;
#X obj 300 2489 r detune_\$0;
#X msg 258 2485 \$1 68;
#X obj 2072 1062 s preset_detune_\$0;
#X obj 303 2510 r comp_thr_\$0;
#X obj 300 2531 r comp_ratio_\$0;
#X obj 299 2554 r comp_gain_\$0;
#X msg 258 2508 \$1 69;
#X msg 257 2531 \$1 70;
#X msg 256 2553 \$1 71;
#X obj 814 777 route 0 1 2 3 4 5 6 7 8 9 10 11 12 13 14 15 16 17 18 19 20 21 22 23 24 25 26 27 28 29 30 31 32 33 34 35 36 37 38 39 40 41 42 43 44 45 46 47 48 49 50 51 52 53 54 55 56 57 58 59 60 61 62 63 64 65 66 67 68 69 70 71, f 220;
#X obj 2083 1084 s preset_comp_thr_\$0;
#X obj 2089 1106 s preset_comp_ratio_\$0;
#X obj 2096 1128 s preset_comp_gain_\$0;
#X obj 634 640 table presets_\$0 80;
#X obj 393 520 save_init presets_\$0 fm_synth_abs 72;
#X obj 675 526 save_preset presets_\$0 72;
#X obj -101 1944 list append 211;
#X obj -78 1996 list append 212;
#X obj -78 1973 r fbk_compressor_on_\$0;
#X connect 1 0 38 0;
#X connect 2 0 38 0;
#X connect 3 0 38 0;
#X connect 4 0 38 0;
#X connect 5 0 38 0;
#X connect 6 0 38 0;
#X connect 7 0 38 0;
#X connect 8 0 38 0;
#X connect 9 0 38 0;
#X connect 10 0 38 0;
#X connect 11 0 38 0;
#X connect 12 0 38 0;
#X connect 13 0 38 0;
#X connect 14 0 38 0;
#X connect 15 0 38 0;
#X connect 16 0 38 0;
#X connect 17 0 38 0;
#X connect 18 0 38 0;
#X connect 19 0 38 0;
#X connect 20 0 38 0;
#X connect 21 0 38 0;
#X connect 22 0 38 0;
#X connect 23 0 38 0;
#X connect 24 0 38 0;
#X connect 25 0 38 0;
#X connect 26 0 38 0;
#X connect 27 0 38 0;
#X connect 28 0 38 0;
#X connect 29 0 38 0;
#X connect 30 0 38 0;
#X connect 31 0 38 0;
#X connect 32 0 38 0;
#X connect 33 0 38 0;
#X connect 34 0 38 0;
#X connect 35 0 38 0;
#X connect 36 0 38 0;
#X connect 37 0 38 0;
#X connect 38 0 39 0;
#X connect 38 0 136 0;
#X connect 39 0 0 0;
#X connect 39 1 0 1;
#X connect 40 1 41 0;
#X connect 41 0 205 0;
#X connect 41 1 206 0;
#X connect 41 2 207 0;
#X connect 41 3 208 0;
#X connect 41 4 209 0;
#X connect 41 5 210 0;
#X connect 42 0 40 0;
#X connect 42 0 43 0;
#X connect 43 0 44 0;
#X connect 44 0 37 0;
#X connect 44 1 48 0;
#X connect 45 0 47 0;
#X connect 46 0 47 0;
#X connect 48 0 38 0;
#X connect 49 0 38 0;
#X connect 50 0 38 0;
#X connect 51 0 38 0;
#X connect 52 0 50 0;
#X connect 53 0 51 0;
#X connect 56 0 38 0;
#X connect 57 0 38 0;
#X connect 58 0 38 0;
#X connect 59 0 38 0;
#X connect 60 0 38 0;
#X connect 61 0 38 0;
#X connect 62 0 56 0;
#X connect 63 1 64 0;
#X connect 64 0 62 0;
#X connect 64 1 66 0;
#X connect 64 2 67 0;
#X connect 64 3 68 0;
#X connect 64 4 69 0;
#X connect 64 5 70 0;
#X connect 65 0 63 0;
#X connect 66 0 57 0;
#X connect 67 0 58 0;
#X connect 68 0 59 0;
#X connect 69 0 60 0;
#X connect 70 0 61 0;
#X connect 72 0 71 0;
#X connect 73 0 71 0;
#X connect 74 0 71 0;
#X connect 75 0 71 0;
#X connect 76 0 71 0;
#X connect 77 0 71 0;
#X connect 78 0 38 0;
#X connect 79 0 38 0;
#X connect 80 0 38 0;
#X connect 81 0 38 0;
#X connect 82 0 78 0;
#X connect 83 0 79 0;
#X connect 84 0 80 0;
#X connect 85 0 81 0;
#X connect 90 0 49 0;
#X connect 92 0 104 0;
#X connect 93 0 105 0;
#X connect 94 0 166 0;
#X connect 95 0 107 0;
#X connect 96 0 108 0;
#X connect 97 0 109 0;
#X connect 104 0 38 0;
#X connect 105 0 38 0;
#X connect 106 0 38 0;
#X connect 107 0 38 0;
#X connect 108 0 38 0;
#X connect 109 0 38 0;
#X connect 110 1 111 0;
#X connect 111 0 113 0;
#X connect 111 1 114 0;
#X connect 111 2 116 0;
#X connect 111 3 115 0;
#X connect 111 4 117 0;
#X connect 111 5 118 0;
#X connect 112 0 110 0;
#X connect 113 0 119 0;
#X connect 114 0 120 0;
#X connect 115 0 122 0;
#X connect 116 0 121 0;
#X connect 117 0 123 0;
#X connect 118 0 124 0;
#X connect 119 0 38 0;
#X connect 120 0 38 0;
#X connect 121 0 38 0;
#X connect 122 0 38 0;
#X connect 123 0 38 0;
#X connect 124 0 38 0;
#X connect 126 0 125 0;
#X connect 127 0 125 0;
#X connect 128 0 125 0;
#X connect 129 0 125 0;
#X connect 130 0 125 0;
#X connect 131 0 125 0;
#X connect 132 0 38 0;
#X connect 133 0 132 0;
#X connect 135 0 261 0;
#X connect 137 0 138 0;
#X connect 139 0 138 0;
#X connect 140 0 138 0;
#X connect 141 0 138 0;
#X connect 142 0 138 0;
#X connect 143 0 138 0;
#X connect 149 0 144 0;
#X connect 150 0 144 0;
#X connect 151 0 148 0;
#X connect 152 0 148 0;
#X connect 153 0 145 0;
#X connect 154 0 145 0;
#X connect 155 0 146 0;
#X connect 156 0 146 0;
#X connect 157 0 147 0;
#X connect 158 0 147 0;
#X connect 161 0 159 0;
#X connect 164 0 136 0;
#X connect 165 0 241 0;
#X connect 166 0 106 0;
#X connect 167 0 100 0;
#X connect 168 0 242 0;
#X connect 169 0 243 0;
#X connect 170 0 245 0;
#X connect 171 0 247 0;
#X connect 172 0 249 0;
#X connect 173 0 248 0;
#X connect 174 0 246 0;
#X connect 175 0 244 0;
#X connect 178 0 47 0;
#X connect 179 0 47 0;
#X connect 180 0 47 0;
#X connect 181 0 47 0;
#X connect 182 0 147 0;
#X connect 183 0 147 0;
#X connect 184 0 147 0;
#X connect 185 0 147 0;
#X connect 186 0 146 0;
#X connect 187 0 146 0;
#X connect 188 0 146 0;
#X connect 189 0 146 0;
#X connect 190 0 145 0;
#X connect 191 0 145 0;
#X connect 192 0 145 0;
#X connect 193 0 145 0;
#X connect 194 0 148 0;
#X connect 195 0 148 0;
#X connect 196 0 148 0;
#X connect 197 0 148 0;
#X connect 198 0 144 0;
#X connect 199 0 144 0;
#X connect 200 0 144 0;
#X connect 201 0 144 0;
#X connect 205 0 2 0;
#X connect 205 1 1 0;
#X connect 205 2 3 0;
#X connect 205 3 4 0;
#X connect 205 4 5 0;
#X connect 205 5 6 0;
#X connect 206 0 7 0;
#X connect 206 1 8 0;
#X connect 206 2 9 0;
#X connect 206 3 10 0;
#X connect 206 4 11 0;
#X connect 206 5 12 0;
#X connect 207 0 13 0;
#X connect 207 1 14 0;
#X connect 207 2 15 0;
#X connect 207 3 16 0;
#X connect 207 4 17 0;
#X connect 207 5 18 0;
#X connect 208 0 19 0;
#X connect 208 1 20 0;
#X connect 208 2 21 0;
#X connect 208 3 22 0;
#X connect 208 4 23 0;
#X connect 208 5 24 0;
#X connect 209 0 25 0;
#X connect 209 1 26 0;
#X connect 209 2 27 0;
#X connect 209 3 28 0;
#X connect 209 4 29 0;
#X connect 209 5 30 0;
#X connect 210 0 31 0;
#X connect 210 1 32 0;
#X connect 210 2 33 0;
#X connect 210 3 34 0;
#X connect 210 4 35 0;
#X connect 210 5 36 0;
#X connect 211 0 38 0;
#X connect 212 0 211 0;
#X connect 214 0 38 0;
#X connect 215 0 214 0;
#X connect 217 0 268 0;
#X connect 218 0 225 0;
#X connect 219 0 267 0;
#X connect 220 0 218 0;
#X connect 221 0 225 1;
#X connect 222 0 267 1;
#X connect 223 0 225 2;
#X connect 224 0 267 2;
#X connect 226 0 228 0;
#X connect 227 0 226 0;
#X connect 228 0 261 0;
#X connect 229 0 38 0;
#X connect 230 0 38 0;
#X connect 231 0 230 0;
#X connect 232 0 229 0;
#X connect 235 0 236 0;
#X connect 236 0 164 0;
#X connect 239 0 266 0;
#X connect 241 0 164 0;
#X connect 242 0 136 0;
#X connect 243 0 136 0;
#X connect 244 0 136 0;
#X connect 245 0 136 0;
#X connect 246 0 136 0;
#X connect 247 0 136 0;
#X connect 248 0 136 0;
#X connect 249 0 136 0;
#X connect 251 0 137 0;
#X connect 251 1 139 0;
#X connect 251 2 140 0;
#X connect 251 3 141 0;
#X connect 251 4 142 0;
#X connect 251 5 143 0;
#X connect 251 6 162 0;
#X connect 251 7 163 0;
#X connect 251 8 176 0;
#X connect 251 9 177 0;
#X connect 251 10 202 0;
#X connect 251 11 203 0;
#X connect 251 12 237 0;
#X connect 251 13 238 0;
#X connect 251 14 250 0;
#X connect 252 0 253 0;
#X connect 253 0 38 0;
#X connect 255 0 258 0;
#X connect 256 0 259 0;
#X connect 257 0 260 0;
#X connect 258 0 38 0;
#X connect 259 0 38 0;
#X connect 260 0 38 0;
#X connect 261 0 45 0;
#X connect 261 1 46 0;
#X connect 261 2 178 0;
#X connect 261 3 179 0;
#X connect 261 4 180 0;
#X connect 261 4 204 0;
#X connect 261 5 181 0;
#X connect 261 6 149 0;
#X connect 261 7 150 0;
#X connect 261 8 198 0;
#X connect 261 9 199 0;
#X connect 261 10 200 0;
#X connect 261 11 201 0;
#X connect 261 12 152 0;
#X connect 261 13 151 0;
#X connect 261 14 194 0;
#X connect 261 15 195 0;
#X connect 261 16 196 0;
#X connect 261 17 197 0;
#X connect 261 18 153 0;
#X connect 261 19 154 0;
#X connect 261 20 193 0;
#X connect 261 21 192 0;
#X connect 261 22 191 0;
#X connect 261 23 190 0;
#X connect 261 24 156 0;
#X connect 261 25 155 0;
#X connect 261 26 186 0;
#X connect 261 27 187 0;
#X connect 261 28 188 0;
#X connect 261 29 189 0;
#X connect 261 30 157 0;
#X connect 261 31 158 0;
#X connect 261 32 182 0;
#X connect 261 33 183 0;
#X connect 261 34 184 0;
#X connect 261 35 185 0;
#X connect 261 36 160 0;
#X connect 261 37 161 0;
#X connect 261 38 91 0;
#X connect 261 39 54 0;
#X connect 261 40 55 0;
#X connect 261 41 73 0;
#X connect 261 42 74 0;
#X connect 261 43 75 0;
#X connect 261 44 76 0;
#X connect 261 45 77 0;
#X connect 261 46 72 0;
#X connect 261 47 86 0;
#X connect 261 48 87 0;
#X connect 261 49 88 0;
#X connect 261 50 89 0;
#X connect 261 51 98 0;
#X connect 261 52 99 0;
#X connect 261 53 167 0;
#X connect 261 54 101 0;
#X connect 261 55 102 0;
#X connect 261 56 103 0;
#X connect 261 57 126 0;
#X connect 261 58 127 0;
#X connect 261 59 128 0;
#X connect 261 60 129 0;
#X connect 261 61 130 0;
#X connect 261 62 131 0;
#X connect 261 63 134 0;
#X connect 261 64 213 0;
#X connect 261 65 216 0;
#X connect 261 66 233 0;
#X connect 261 67 234 0;
#X connect 261 68 254 0;
#X connect 261 69 262 0;
#X connect 261 70 263 0;
#X connect 261 71 264 0;
#X connect 261 72 251 0;
#X connect 268 0 164 0;
#X connect 269 0 164 0;
#X connect 270 0 269 0;
#X restore -23 -467 pd handle_presets;
#X obj 1208 232 s feedbk_sync_name_out_\$0;
#X obj -159 -393 s load_init_\$0;
#X obj 948 -317 loadbang;
#X msg 920 -317 0;
#X obj 948 -261 loadbang;
#X msg 920 -261 0;
#X obj 920 -333 s lfo_sync_\$0;
#X obj 921 -298 r preset_lfo_sync_\$0;
#X obj 920 -277 s lfo_phs_\$0;
#X obj 921 -242 r preset_lfo_phs_\$0;
#X obj 925 -221 r bang_\$0;
#X obj 926 -198 r rst_\$0;
#X obj 929 -177 s fbk_lfo_showtime_\$0;
#X obj -96 -313 s current_path_\$0;
#X obj 34 -158 s all_notes_off_\$0;
#X obj 880 1233 r~ \$0_lfo1;
#X obj 976 1233 r~ \$0_lfo1;
#X obj 1079 1234 r~ \$0_lfo1;
#X obj 1179 1234 r~ \$0_lfo1;
#X obj 1200 1009 r~ \$0_lfo1;
#X obj 1100 1009 r~ \$0_lfo1;
#X obj 997 1007 r~ \$0_lfo1;
#X obj 901 1008 r~ \$0_lfo1;
#X obj 812 329 s~ \$0_lfo1;
#X obj 720 -172 random 32;
#X obj 720 -151 + 1;
#X obj 750 27 bng 18 250 50 0 empty empty empty 0 -9 0 10 #fcfcfc #000000 #000000;
#X obj 750 -119 r ctrl_rnd_algo_\$0;
#X obj -303 38 makenote 100 1000;
#X msg -304 15 69;
#X obj -303 62 pack 0 0;
#X obj -304 -12 r ctrl_440_go_\$0;
#X obj 638 1588 + 100;
#X obj 161 1952 vumeter, f 32;
#X obj 125 1996 outlet~;
#X obj 180 1995 outlet~;
#X obj 240 1995 outlet~;
#X obj 295 1994 outlet~;
#X obj -886 313 * -1;
#X obj -906 437 * -1;
#X obj -898 398 * 0.5;
#X obj -862 -10 r mono_\$0;
#X obj -1090 365 * -1;
#X obj -987 26 f;
#X obj -1022 159 spigot;
#X obj -893 196 spigot;
#X obj -905 18 t b f;
#X msg -1092 178 0;
#X obj -989 110 == 1;
#X obj -1094 144 spigot;
#X obj -854 111 == 2;
#X obj -1049 115 == 0;
#X text -994 -32 0-1;
#X obj -539 350 s s7_onoff_\$0;
#X obj -539 314 s s6_onoff_\$0;
#X obj -541 279 s s5_onoff_\$0;
#X obj -542 246 s s4_onoff_\$0;
#X obj -542 215 s s3_onoff_\$0;
#X obj -542 182 s s2_onoff_\$0;
#X obj -544 150 s s1_onoff_\$0;
#X obj -537 387 s s8_onoff_\$0;
#X msg -651 227 1;
#X obj -645 96 r mono_\$0;
#X msg -632 262 1;
#X msg -632 287 0;
#X text -701 225 all on;
#X text -711 275 first 4 on;
#X text -659 19 0 - poly (1 osc \, 8 voices) \; 1 - poly detune (2 osc \, 4 voices) \; 2 - mono detune (2 osc \, 1 voice) \;;
#X obj -645 128 sel 0 1 2;
#X obj -839 736 bng 20 250 50 0 empty empty empty 0 -10 0 12 #fcfcfc #000000 #000000;
#X msg -839 761 stop;
#X obj -886 734 bng 20 250 50 0 empty empty empty 0 -10 0 12 #fcfcfc #000000 #000000;
#X msg -886 759 clear;
#X obj -886 810 s to_poly_\$0;
#X obj -889 613 r all_notes_off_\$0;
#X obj -870 700 t b b b;
#X obj -796 755 s to_synth_2_\$0;
#X obj -782 762 s to_synth_3_\$0;
#X obj -772 772 s to_synth_4_\$0;
#X obj -759 782 s to_synth_5_\$0;
#X obj -749 792 s to_synth_6_\$0;
#X obj -739 802 s to_synth_7_\$0;
#X obj -729 812 s to_synth_8_\$0;
#X obj -804 737 s to_synth_1_\$0;
#X msg -790 673 60 0;
#X obj -848 651 t b b;
#X obj -591 812 s to_synth_2_\$0;
#X obj -577 819 s to_synth_3_\$0;
#X obj -567 829 s to_synth_4_\$0;
#X obj -595 721 pack f f f;
#X obj -588 691 poly 8 1;
#X obj -595 754 route 1 2 3 4 5 6 7 8;
#X obj -554 839 s to_synth_5_\$0;
#X obj -544 849 s to_synth_6_\$0;
#X obj -534 859 s to_synth_7_\$0;
#X obj -524 869 s to_synth_8_\$0;
#X obj -148 696 pack f f f;
#X obj -598 803 s to_synth_1_\$0;
#X obj -156 761 s to_synth_1_\$0;
#X obj -586 573 spigot;
#X obj -147 574 spigot;
#X obj -137 627 r to_poly_\$0;
#X obj -623 629 r to_poly_\$0;
#X obj -412 524 == 0;
#X obj -126 785 s to_synth_2_\$0;
#X obj -271 461 r mono_\$0;
#X obj -307 251 route all_notes_off;
#X obj -335 285 s all_notes_off_\$0;
#X obj -156 662 poly 1 1;
#X obj -126 833 s to_synth_4_\$0;
#X obj -154 807 s to_synth_3_\$0;
#X obj -360 851 s to_synth_2_\$0;
#X obj -360 891 s to_synth_3_\$0;
#X obj -353 936 s to_synth_4_\$0;
#X obj -368 725 pack f f f;
#X obj -356 830 s to_synth_5_\$0;
#X obj -359 872 s to_synth_6_\$0;
#X obj -355 912 s to_synth_7_\$0;
#X obj -352 955 s to_synth_8_\$0;
#X obj -355 808 s to_synth_1_\$0;
#X obj -359 577 spigot;
#X obj -396 633 r to_poly_\$0;
#X obj -318 526 == 1;
#X obj -198 516 == 2;
#X obj -361 695 poly 4 1;
#X obj -368 758 route 1 2 3 4;
#X obj -145 725 route 1;
#X obj -307 223 r notes_in_\$0;
#X obj 689 91 hsl 90 15 0 1 0 0 empty empty detune 5 8 1 10 #000000 #ffffff #7c7c7c 0 1;
#X obj 725 -409 loadbang;
#X obj 699 -427 r preset_detune_\$0;
#X obj 699 -445 s detune_\$0;
#X msg 698 -409 0;
#X obj -992 1 r detune_\$0;
#X obj 24 37 hradio 18 1 0 3 empty empty mono 0 -9 0 10 #fcfcfc #000000 #000000 0;
#X obj -826 345 s to_synth_1_\$0;
#X obj -837 402 s to_synth_2_\$0;
#X obj -848 468 s to_synth_3_\$0;
#X obj -890 538 s to_synth_4_\$0;
#X obj -1046 275 s to_synth_1_\$0;
#X obj -1047 298 s to_synth_2_\$0;
#X obj -1047 325 s to_synth_3_\$0;
#X obj -1046 348 s to_synth_4_\$0;
#X obj -1055 422 s to_synth_5_\$0;
#X obj -1053 447 s to_synth_6_\$0;
#X obj -1054 473 s to_synth_7_\$0;
#X obj -1054 498 s to_synth_8_\$0;
#X msg -1076 246 toOscs allOscs detune \$1;
#X msg -1090 392 toOscs allOscs detune \$1;
#X msg -890 513 toOscs allOscs detune \$1;
#X msg -849 445 toOscs allOscs detune \$1;
#X msg -837 380 toOscs allOscs detune \$1;
#X msg -827 323 toOscs allOscs detune \$1;
#X obj -900 269 * 0.3;
#X obj -1083 212 * 0.3;
#X text -830 305 from 0 to 0.3;
#X text -845 430 from 0 to 0.15;
#X text -892 497 from 0 to -0.15;
#X text -838 364 from 0 to -0.3;
#X obj -350 1525 pow 2;
#X obj 637 1561 * 15000;
#X obj 68 1559 compressor;
#X obj 171 1558 compressor;
#X obj 279 1559 compressor;
#X obj 382 1559 compressor;
#X obj 632 1419 r comp_thr_\$0;
#X obj 630 1441 r comp_ratio_\$0;
#X obj 629 1465 r comp_gain_\$0;
#X obj 789 70 hsl 60 15 0 1 0 0 empty empty ratio 5 9 1 10 #000000 #ffffff #7c7c7c 0 1;
#X obj 788 50 hsl 60 15 0 1 0 0 empty empty threshold 5 9 1 10 #000000 #ffffff #7c7c7c 0 1;
#X obj 789 90 hsl 60 15 0 1 0 0 empty empty gain 5 9 1 10 #000000 #ffffff #7c7c7c 0 1;
#X obj 811 -586 loadbang;
#X msg 784 -586 0;
#X obj 785 -622 s comp_thr_\$0;
#X obj 785 -604 r preset_comp_thr_\$0;
#X obj 811 -524 loadbang;
#X msg 784 -524 0;
#X obj 785 -560 s comp_ratio_\$0;
#X obj 785 -542 r preset_comp_ratio_\$0;
#X obj 811 -461 loadbang;
#X msg 784 -461 0;
#X obj 785 -497 s comp_gain_\$0;
#X obj 785 -479 r preset_comp_gain_\$0;
#X msg 987 -21 1;
#X obj -24 -441 declare -path ./fm_synth_abs;
#X obj -585 -427 route bang_bpm rst instance_id load save osc_name osc notes init current_path, f 86;
#X obj 663 1754 s fbk_compressor_on_\$0;
#X obj 840 -62 r fbk_compressor_on_\$0;
#X obj 828 26 tgl 18 0 empty empty empty 0 -9 0 10 #fcfcfc #000000 #000000 0 1;
#X obj 480 1672 tgl 18 0 empty empty empty 0 -9 0 10 #fcfcfc #000000 #000000 0 1;
#X obj 457 1672 tgl 18 0 empty empty empty 0 -9 0 10 #fcfcfc #000000 #000000 0 1;
#X obj 432 1669 tgl 18 0 empty empty empty 0 -9 0 10 #fcfcfc #000000 #000000 0 1;
#X obj 408 1668 tgl 18 0 empty empty empty 0 -9 0 10 #fcfcfc #000000 #000000 0 1;
#X obj 644 1647 sel 1;
#X msg 711 1698 0;
#X msg 648 1676 1;
#X obj 671 1726 change;
#X obj 679 1677 delay 40;
#X connect 0 0 15 0;
#X connect 1 0 16 0;
#X connect 2 0 17 0;
#X connect 3 0 18 0;
#X connect 4 0 19 0;
#X connect 5 0 20 0;
#X connect 6 0 14 0;
#X connect 7 0 10 0;
#X connect 8 0 7 0;
#X connect 8 0 148 0;
#X connect 9 0 22 0;
#X connect 9 1 29 0;
#X connect 9 2 31 0;
#X connect 10 0 9 0;
#X connect 11 0 12 0;
#X connect 12 0 13 0;
#X connect 21 0 34 0;
#X connect 22 0 11 0;
#X connect 23 0 0 0;
#X connect 24 0 1 0;
#X connect 25 0 3 0;
#X connect 26 0 2 0;
#X connect 27 0 4 0;
#X connect 28 0 5 0;
#X connect 29 0 6 0;
#X connect 32 0 62 0;
#X connect 33 0 63 0;
#X connect 34 1 35 0;
#X connect 35 0 32 0;
#X connect 35 0 33 0;
#X connect 35 0 38 0;
#X connect 35 0 39 0;
#X connect 35 0 36 0;
#X connect 35 0 37 0;
#X connect 35 0 40 0;
#X connect 35 0 41 0;
#X connect 36 0 64 0;
#X connect 37 0 65 0;
#X connect 38 0 59 0;
#X connect 39 0 60 0;
#X connect 40 0 61 0;
#X connect 41 0 58 0;
#X connect 42 0 32 0;
#X connect 43 0 33 0;
#X connect 44 0 36 0;
#X connect 45 0 37 0;
#X connect 46 0 38 0;
#X connect 47 0 39 0;
#X connect 48 0 40 0;
#X connect 49 0 41 0;
#X connect 50 0 32 2;
#X connect 51 0 33 2;
#X connect 52 0 36 2;
#X connect 53 0 37 2;
#X connect 54 0 41 2;
#X connect 55 0 40 2;
#X connect 56 0 39 2;
#X connect 57 0 38 2;
#X connect 66 0 126 0;
#X connect 67 0 68 0;
#X connect 70 0 71 0;
#X connect 71 0 69 0;
#X connect 72 0 67 0;
#X connect 73 0 401 0;
#X connect 74 0 241 0;
#X connect 75 0 158 0;
#X connect 76 0 74 0;
#X connect 77 0 157 0;
#X connect 78 0 74 1;
#X connect 79 0 80 0;
#X connect 80 0 74 2;
#X connect 81 0 74 2;
#X connect 82 0 172 0;
#X connect 88 0 379 0;
#X connect 89 0 127 0;
#X connect 90 0 130 0;
#X connect 91 0 128 0;
#X connect 92 0 129 0;
#X connect 93 0 380 0;
#X connect 94 0 381 0;
#X connect 95 0 382 0;
#X connect 96 0 379 0;
#X connect 97 0 380 0;
#X connect 98 0 381 0;
#X connect 99 0 382 0;
#X connect 100 0 377 0;
#X connect 101 0 105 0;
#X connect 102 0 107 0;
#X connect 102 1 104 0;
#X connect 103 0 101 0;
#X connect 103 1 101 1;
#X connect 104 0 103 0;
#X connect 105 0 106 0;
#X connect 106 0 89 1;
#X connect 106 0 91 1;
#X connect 106 0 92 1;
#X connect 106 0 90 1;
#X connect 107 0 103 0;
#X connect 108 0 102 0;
#X connect 110 0 352 0;
#X connect 117 0 125 8;
#X connect 118 0 125 7;
#X connect 119 0 125 6;
#X connect 120 0 125 4;
#X connect 121 0 125 5;
#X connect 122 0 125 3;
#X connect 123 0 125 0;
#X connect 124 0 125 1;
#X connect 125 0 139 0;
#X connect 125 1 140 0;
#X connect 125 2 141 0;
#X connect 125 3 142 0;
#X connect 125 4 143 0;
#X connect 125 5 144 0;
#X connect 125 6 145 0;
#X connect 125 7 146 0;
#X connect 125 8 111 0;
#X connect 125 9 112 0;
#X connect 125 10 113 0;
#X connect 125 11 114 0;
#X connect 125 12 115 0;
#X connect 125 13 116 0;
#X connect 125 14 184 0;
#X connect 125 15 179 0;
#X connect 125 16 188 0;
#X connect 125 17 218 0;
#X connect 126 0 352 0;
#X connect 127 0 251 0;
#X connect 127 1 251 1;
#X connect 127 2 251 2;
#X connect 127 3 251 3;
#X connect 128 0 251 0;
#X connect 128 1 251 1;
#X connect 128 2 251 2;
#X connect 128 3 251 3;
#X connect 129 0 251 0;
#X connect 129 1 251 1;
#X connect 129 2 251 2;
#X connect 129 3 251 3;
#X connect 130 0 251 0;
#X connect 130 1 251 1;
#X connect 130 2 251 2;
#X connect 130 3 251 3;
#X connect 131 0 127 1;
#X connect 132 0 127 2;
#X connect 133 0 128 1;
#X connect 134 0 128 2;
#X connect 135 0 129 1;
#X connect 136 0 129 2;
#X connect 137 0 130 2;
#X connect 138 0 130 1;
#X connect 147 0 7 1;
#X connect 148 0 150 0;
#X connect 150 0 149 0;
#X connect 151 0 89 0;
#X connect 152 0 91 0;
#X connect 153 0 92 0;
#X connect 154 0 90 0;
#X connect 155 0 156 0;
#X connect 157 0 74 1;
#X connect 158 0 74 0;
#X connect 159 0 155 0;
#X connect 160 0 155 0;
#X connect 161 0 160 0;
#X connect 162 0 378 0;
#X connect 163 0 162 0;
#X connect 164 0 166 0;
#X connect 165 0 167 0;
#X connect 166 0 22 0;
#X connect 168 0 169 0;
#X connect 169 0 31 0;
#X connect 170 0 154 1;
#X connect 170 0 153 1;
#X connect 170 0 152 1;
#X connect 170 0 151 1;
#X connect 171 0 170 0;
#X connect 173 0 174 0;
#X connect 175 0 29 0;
#X connect 176 0 22 0;
#X connect 177 0 125 9;
#X connect 178 0 125 10;
#X connect 180 0 8 0;
#X connect 181 0 148 0;
#X connect 182 0 165 0;
#X connect 183 0 164 0;
#X connect 185 0 125 11;
#X connect 186 0 247 0;
#X connect 187 0 125 12;
#X connect 189 0 125 13;
#X connect 190 1 191 0;
#X connect 191 1 193 0;
#X connect 193 0 192 0;
#X connect 196 0 403 0;
#X connect 202 0 201 0;
#X connect 204 0 202 1;
#X connect 207 0 210 0;
#X connect 209 0 208 0;
#X connect 210 0 209 0;
#X connect 210 1 213 0;
#X connect 211 0 209 0;
#X connect 212 0 215 0;
#X connect 213 0 211 0;
#X connect 214 0 213 1;
#X connect 215 0 214 0;
#X connect 220 0 221 0;
#X connect 222 0 223 0;
#X connect 233 0 38 1;
#X connect 234 0 39 1;
#X connect 235 0 40 1;
#X connect 236 0 41 1;
#X connect 237 0 37 1;
#X connect 238 0 36 1;
#X connect 239 0 33 1;
#X connect 240 0 32 1;
#X connect 242 0 243 0;
#X connect 243 0 29 0;
#X connect 244 0 242 0;
#X connect 245 0 244 0;
#X connect 246 0 248 0;
#X connect 246 1 248 1;
#X connect 247 0 246 0;
#X connect 248 0 206 0;
#X connect 249 0 247 0;
#X connect 250 0 171 0;
#X connect 251 0 252 0;
#X connect 251 1 253 0;
#X connect 251 2 254 0;
#X connect 251 3 255 0;
#X connect 251 4 210 0;
#X connect 256 0 369 0;
#X connect 257 0 367 0;
#X connect 258 0 257 0;
#X connect 258 0 368 0;
#X connect 259 0 264 0;
#X connect 260 0 366 0;
#X connect 261 0 262 0;
#X connect 261 0 263 0;
#X connect 261 0 267 0;
#X connect 262 0 372 0;
#X connect 263 0 371 0;
#X connect 264 0 261 0;
#X connect 264 1 266 0;
#X connect 264 1 268 0;
#X connect 264 1 269 0;
#X connect 265 0 372 0;
#X connect 266 0 262 1;
#X connect 267 0 265 0;
#X connect 268 0 263 1;
#X connect 269 0 267 1;
#X connect 279 0 277 0;
#X connect 279 0 276 0;
#X connect 279 0 275 0;
#X connect 279 0 274 0;
#X connect 279 0 273 0;
#X connect 279 0 272 0;
#X connect 279 0 271 0;
#X connect 279 0 278 0;
#X connect 280 0 286 0;
#X connect 281 0 282 0;
#X connect 281 0 277 0;
#X connect 281 0 276 0;
#X connect 281 0 275 0;
#X connect 281 0 274 0;
#X connect 282 0 273 0;
#X connect 282 0 272 0;
#X connect 282 0 271 0;
#X connect 282 0 278 0;
#X connect 286 0 279 0;
#X connect 286 1 279 0;
#X connect 286 2 281 0;
#X connect 287 0 288 0;
#X connect 288 0 291 0;
#X connect 289 0 290 0;
#X connect 290 0 291 0;
#X connect 292 0 303 0;
#X connect 293 0 289 0;
#X connect 293 1 287 0;
#X connect 302 0 301 0;
#X connect 302 0 294 0;
#X connect 302 0 295 0;
#X connect 302 0 296 0;
#X connect 302 0 297 0;
#X connect 302 0 298 0;
#X connect 302 0 299 0;
#X connect 302 0 300 0;
#X connect 303 0 293 0;
#X connect 303 1 302 0;
#X connect 307 0 309 0;
#X connect 308 0 307 0;
#X connect 308 1 307 1;
#X connect 308 2 307 2;
#X connect 309 0 315 0;
#X connect 309 1 304 0;
#X connect 309 2 305 0;
#X connect 309 3 306 0;
#X connect 309 4 310 0;
#X connect 309 5 311 0;
#X connect 309 6 312 0;
#X connect 309 7 313 0;
#X connect 314 0 344 0;
#X connect 317 0 308 0;
#X connect 318 0 326 0;
#X connect 319 0 326 0;
#X connect 320 0 308 0;
#X connect 321 0 317 1;
#X connect 323 0 321 0;
#X connect 323 0 340 0;
#X connect 323 0 341 0;
#X connect 324 0 325 0;
#X connect 324 1 318 0;
#X connect 324 1 317 0;
#X connect 324 1 338 0;
#X connect 324 1 190 0;
#X connect 326 0 314 0;
#X connect 326 1 314 1;
#X connect 326 2 314 2;
#X connect 332 0 343 0;
#X connect 338 0 342 0;
#X connect 339 0 342 0;
#X connect 340 0 338 1;
#X connect 341 0 318 1;
#X connect 342 0 332 0;
#X connect 342 1 332 1;
#X connect 342 2 332 2;
#X connect 343 0 337 0;
#X connect 343 0 333 0;
#X connect 343 1 329 0;
#X connect 343 1 334 0;
#X connect 343 2 330 0;
#X connect 343 2 335 0;
#X connect 343 3 331 0;
#X connect 343 3 336 0;
#X connect 344 0 316 0;
#X connect 344 0 322 0;
#X connect 344 0 328 0;
#X connect 344 0 327 0;
#X connect 345 0 324 0;
#X connect 346 0 349 0;
#X connect 347 0 350 0;
#X connect 348 0 346 0;
#X connect 350 0 346 0;
#X connect 351 0 261 0;
#X connect 352 0 109 0;
#X connect 352 0 232 0;
#X connect 365 0 357 0;
#X connect 365 0 358 0;
#X connect 365 0 359 0;
#X connect 365 0 360 0;
#X connect 366 0 361 0;
#X connect 366 0 362 0;
#X connect 366 0 363 0;
#X connect 366 0 364 0;
#X connect 367 0 356 0;
#X connect 368 0 355 0;
#X connect 369 0 354 0;
#X connect 370 0 353 0;
#X connect 371 0 256 0;
#X connect 371 0 258 0;
#X connect 371 0 370 0;
#X connect 372 0 260 0;
#X connect 372 0 365 0;
#X connect 377 0 101 0;
#X connect 378 0 250 0;
#X connect 379 0 151 0;
#X connect 379 4 410 0;
#X connect 379 4 411 0;
#X connect 380 0 152 0;
#X connect 380 4 409 0;
#X connect 380 4 411 0;
#X connect 381 0 153 0;
#X connect 381 4 408 0;
#X connect 381 4 411 0;
#X connect 382 0 154 0;
#X connect 382 4 407 0;
#X connect 382 4 411 0;
#X connect 383 0 382 1;
#X connect 383 0 381 1;
#X connect 383 0 380 1;
#X connect 383 0 379 1;
#X connect 384 0 382 2;
#X connect 384 0 381 2;
#X connect 384 0 380 2;
#X connect 384 0 379 2;
#X connect 385 0 382 3;
#X connect 385 0 381 3;
#X connect 385 0 380 3;
#X connect 385 0 379 3;
#X connect 386 0 395 0;
#X connect 387 0 391 0;
#X connect 388 0 399 0;
#X connect 389 0 390 0;
#X connect 390 0 387 0;
#X connect 392 0 387 0;
#X connect 393 0 394 0;
#X connect 394 0 386 0;
#X connect 396 0 386 0;
#X connect 397 0 398 0;
#X connect 398 0 388 0;
#X connect 400 0 388 0;
#X connect 401 0 67 0;
#X connect 403 0 194 0;
#X connect 403 1 195 0;
#X connect 403 2 199 0;
#X connect 403 3 198 0;
#X connect 403 4 197 0;
#X connect 403 5 203 0;
#X connect 403 6 202 0;
#X connect 403 7 205 0;
#X connect 403 8 219 0;
#X connect 403 9 231 0;
#X connect 405 0 406 0;
#X connect 411 0 413 0;
#X connect 411 0 415 0;
#X connect 412 0 414 0;
#X connect 413 0 414 0;
#X connect 414 0 404 0;
#X connect 415 0 412 0;
#X coords 0 -1 1 1 1000 190 2 20 20;
