#N canvas 66 241 1390 788 12;
#X obj 35 444 dac~ 1 2 3 4;
#X obj 57 168 fm_synth;
#X obj 1343 50 loadbang;
#X msg 1343 73 \; pd dsp 1;
#X obj 15 13 r sub1;
#X connect 1 0 0 0;
#X connect 1 1 0 1;
#X connect 1 2 0 2;
#X connect 1 3 0 3;
#X connect 2 0 3 0;
#X connect 4 0 1 0;
#X coords 0 788 1 787 1150 200 0;
