#N canvas 52 20 1854 977 10;
#X declare -path ./fm_synth_abs;
#X declare -path ./commons;
#X msg 759 859 all preset \$1;
#X obj 80 24 dx7_interface 1;
#X obj 180 24 dx7_interface 2;
#X obj 279 24 dx7_interface 3;
#X obj 378 24 dx7_interface 4;
#X obj 477 24 dx7_interface 5;
#X obj 576 24 dx7_interface 6;
#X msg 719 -167 all algorithm \$1;
#N canvas 240 201 1423 860 randomise 0;
#X obj 53 10 inlet;
#X obj 57 51 bng 15 250 50 0 empty empty empty 17 7 0 10 #fcfcfc #000000 #000000;
#X obj 27 141 random 32;
#X obj 27 162 + 1;
#X obj 314 48 t b b b b b b, f 45;
#N canvas 0 23 1534 572 random_params 0;
#X obj 55 25 inlet;
#X msg 1080 141 0, f 2;
#X obj 1079 80 random 10;
#X obj 1079 101 sel 0 1 2 3 4 5 6 7 8 9;
#X msg 1175 144 1, f 2;
#X obj 155 459 outlet;
#X obj 1220 146 random 1000;
#X obj 819 108 random 9;
#X obj 936 128 random 10;
#X obj 936 149 - 5;
#X obj 936 170 * 0.01;
#X obj 822 196 + 0.01;
#X obj 827 74 bng 15 250 50 0 empty empty empty 17 7 0 10 #fcfcfc #000000 #000000;
#X obj 94 220 random 100;
#X obj 44 156 random 4;
#X obj 44 177 sel 0 1 2 3;
#X obj 94 241 * 0.01;
#X msg 45 217 1, f 2;
#X obj 1366 151 inlet;
#X obj 1222 283 pack f f;
#X floatatom 1368 230 5 0 0 0 - - - 0;
#X obj 47 308 pack f f;
#X obj 824 298 pack f f;
#X obj 1083 294 pack f f;
#X msg 45 336 all \$2 level \$1;
#X msg 822 326 all \$2 ratio \$1;
#X msg 1080 321 all \$2 mode \$1;
#X msg 1216 309 all \$2 fixed \$1;
#X obj 892 424 random 127;
#X obj 893 462 pack f f;
#X msg 896 504 all \$2 mod \$1;
#X obj 1023 507 pack f f;
#X msg 1026 549 all \$2 det \$1;
#X obj 1027 431 random 14;
#X obj 1022 481 - 7;
#X text 1038 412 maybe put a gaussian?;
#X obj 439 23 inlet;
#X obj 194 76 t b b b, f 67;
#X obj 231 177 i;
#X obj 328 166 loadbang;
#X msg 328 189 0;
#N canvas 66 32 1854 1097 randomize_envelope 0;
#X msg -367 399 5, f 2;
#X obj -125 346 random 100;
#X obj -125 367 * 0.01;
#X obj -217 342 random 100;
#X obj -217 363 * 0.01;
#X obj -28 343 random 100;
#X obj -28 364 * 0.01;
#X obj -28 386 *;
#X obj -217 387 *;
#X obj -218 452 * 3000;
#X obj -27 408 * 3000;
#X obj -216 414 *;
#X obj -408 253 t b b b b;
#X obj 205 19 inlet;
#X obj 391 346 random 100;
#X obj 391 367 * 0.01;
#X obj 299 342 random 100;
#X obj 299 363 * 0.01;
#X obj 488 343 random 100;
#X obj 488 364 * 0.01;
#X obj 488 386 *;
#X obj 299 387 *;
#X obj 298 452 * 3000;
#X obj 489 408 * 3000;
#X obj 300 414 *;
#X obj 108 253 t b b b b;
#X obj 148 338 random 20;
#X obj -298 410 random 2000;
#X obj -368 359 sel 0 1 2 3 4 5 6 7;
#X obj -367 338 random 8;
#X obj 153 119 sel 0 1 2;
#X text -387 229 original;
#X obj 850 348 random 100;
#X obj 850 369 * 0.01;
#X obj 758 344 random 100;
#X obj 758 365 * 0.01;
#X obj 947 345 random 100;
#X obj 947 366 * 0.01;
#X obj 947 388 *;
#X obj 758 389 *;
#X obj 757 454 * 3000;
#X obj 948 410 * 3000;
#X obj 759 416 *;
#X obj 567 255 t b b b b;
#X obj 620 405 * 100;
#X text 642 240 pads;
#X text 184 237 keys;
#X obj 618 448 + 500;
#X obj 607 340 random 15;
#X obj 161 403 * 10;
#X floatatom 303 254 5 0 0 0 - - - 0;
#X obj 303 276 bng 18 250 50 0 empty empty empty 0 -9 0 10 #fcfcfc #000000 #000000;
#X obj 530 16 inlet;
#X msg -389 527 a \$1;
#X msg -356 528 d \$1;
#X msg -319 527 s \$1;
#X msg -286 528 r \$1;
#X obj 396 721 list prepend;
#X obj 407 746 list trim;
#X obj 497 772 outlet;
#X msg 264 506 a \$1;
#X msg 297 507 d \$1;
#X msg 334 506 s \$1;
#X msg 367 507 r \$1;
#X msg 561 608 a \$1;
#X msg 594 609 d \$1;
#X msg 631 608 s \$1;
#X msg 664 609 r \$1;
#X connect 0 0 53 0;
#X connect 1 0 2 0;
#X connect 2 0 55 0;
#X connect 3 0 4 0;
#X connect 4 0 8 1;
#X connect 4 0 8 0;
#X connect 4 0 11 1;
#X connect 5 0 6 0;
#X connect 6 0 7 1;
#X connect 6 0 7 0;
#X connect 7 0 10 0;
#X connect 8 0 11 0;
#X connect 9 0 54 0;
#X connect 10 0 56 0;
#X connect 11 0 9 0;
#X connect 12 0 29 0;
#X connect 12 1 3 0;
#X connect 12 2 1 0;
#X connect 12 3 5 0;
#X connect 13 0 30 0;
#X connect 14 0 15 0;
#X connect 15 0 62 0;
#X connect 16 0 17 0;
#X connect 17 0 21 1;
#X connect 17 0 21 0;
#X connect 17 0 24 1;
#X connect 18 0 19 0;
#X connect 19 0 20 1;
#X connect 19 0 20 0;
#X connect 20 0 23 0;
#X connect 21 0 24 0;
#X connect 22 0 61 0;
#X connect 23 0 63 0;
#X connect 24 0 22 0;
#X connect 25 0 26 0;
#X connect 25 1 16 0;
#X connect 25 2 14 0;
#X connect 25 3 18 0;
#X connect 26 0 49 0;
#X connect 27 0 53 0;
#X connect 28 0 0 0;
#X connect 28 1 0 0;
#X connect 28 2 0 0;
#X connect 28 3 0 0;
#X connect 28 4 0 0;
#X connect 28 5 0 0;
#X connect 28 6 0 0;
#X connect 28 7 27 0;
#X connect 29 0 28 0;
#X connect 30 0 12 0;
#X connect 30 1 25 0;
#X connect 30 2 43 0;
#X connect 32 0 33 0;
#X connect 33 0 66 0;
#X connect 34 0 35 0;
#X connect 35 0 39 1;
#X connect 35 0 39 0;
#X connect 35 0 42 1;
#X connect 36 0 37 0;
#X connect 37 0 38 1;
#X connect 37 0 38 0;
#X connect 38 0 41 0;
#X connect 39 0 42 0;
#X connect 40 0 65 0;
#X connect 41 0 67 0;
#X connect 42 0 40 0;
#X connect 43 0 48 0;
#X connect 43 1 34 0;
#X connect 43 2 32 0;
#X connect 43 3 36 0;
#X connect 44 0 47 0;
#X connect 47 0 64 0;
#X connect 48 0 44 0;
#X connect 49 0 60 0;
#X connect 50 0 51 0;
#X connect 51 0 16 0;
#X connect 52 0 57 1;
#X connect 53 0 57 0;
#X connect 54 0 57 0;
#X connect 55 0 57 0;
#X connect 56 0 57 0;
#X connect 57 0 58 0;
#X connect 58 0 59 0;
#X connect 60 0 57 0;
#X connect 61 0 57 0;
#X connect 62 0 57 0;
#X connect 63 0 57 0;
#X connect 64 0 57 0;
#X connect 65 0 57 0;
#X connect 66 0 57 0;
#X connect 67 0 57 0;
#X restore 273 329 pd randomize_envelope;
#X obj 239 378 list prepend;
#X obj 239 401 list trim;
#X obj 356 370 loadbang;
#X msg 356 393 all;
#X connect 0 0 2 0;
#X connect 0 0 12 0;
#X connect 0 0 14 0;
#X connect 0 0 37 0;
#X connect 1 0 23 0;
#X connect 2 0 3 0;
#X connect 3 0 1 0;
#X connect 3 1 1 0;
#X connect 3 2 1 0;
#X connect 3 3 1 0;
#X connect 3 4 1 0;
#X connect 3 5 1 0;
#X connect 3 6 1 0;
#X connect 3 7 1 0;
#X connect 3 8 1 0;
#X connect 3 9 4 0;
#X connect 3 9 6 0;
#X connect 4 0 23 0;
#X connect 6 0 19 0;
#X connect 7 0 11 0;
#X connect 8 0 9 0;
#X connect 9 0 10 0;
#X connect 10 0 11 1;
#X connect 11 0 22 0;
#X connect 12 0 7 0;
#X connect 12 0 8 0;
#X connect 13 0 16 0;
#X connect 14 0 15 0;
#X connect 15 0 17 0;
#X connect 15 1 17 0;
#X connect 15 2 17 0;
#X connect 15 3 13 0;
#X connect 16 0 21 0;
#X connect 17 0 21 0;
#X connect 18 0 20 0;
#X connect 19 0 27 0;
#X connect 20 0 21 1;
#X connect 20 0 22 1;
#X connect 20 0 19 1;
#X connect 20 0 23 1;
#X connect 20 0 29 1;
#X connect 20 0 31 1;
#X connect 20 0 41 1;
#X connect 21 0 24 0;
#X connect 22 0 25 0;
#X connect 23 0 26 0;
#X connect 24 0 5 0;
#X connect 25 0 5 0;
#X connect 26 0 5 0;
#X connect 27 0 5 0;
#X connect 28 0 29 0;
#X connect 29 0 30 0;
#X connect 30 0 5 0;
#X connect 31 0 32 0;
#X connect 32 0 5 0;
#X connect 33 0 34 0;
#X connect 34 0 31 0;
#X connect 36 0 38 1;
#X connect 37 0 38 0;
#X connect 37 1 28 0;
#X connect 37 2 33 0;
#X connect 38 0 41 0;
#X connect 39 0 40 0;
#X connect 40 0 38 1;
#X connect 41 0 42 0;
#X connect 42 0 43 0;
#X connect 43 0 5 0;
#X connect 44 0 45 0;
#X connect 45 0 42 1;
#X restore 329 295 pd random_params;
#X obj 534 85 t b b;
#X msg 554 111 1;
#X obj 484 84 t b b;
#X obj 438 87 t b b;
#X obj 393 91 t b b;
#X obj 351 93 t b b;
#X obj 310 96 t b b;
#X msg 504 110 2;
#X msg 458 113 3;
#X msg 413 117 4;
#X msg 371 119 5;
#X msg 330 122 6;
#X obj 141 155 random 4;
#X obj 143 175 sel 0 1 2 3;
#X msg 138 212 0;
#X obj 201 217 random 100;
#X obj 190 238 * 0.01;
#X obj 29 373 outlet;
#X msg 143 295 all feedback \$1;
#X msg 27 218 all algorithm \$1;
#X obj 277 8 inlet;
#X connect 0 0 1 0;
#X connect 1 0 2 0;
#X connect 1 0 4 0;
#X connect 1 0 18 0;
#X connect 2 0 3 0;
#X connect 3 0 25 0;
#X connect 4 0 12 0;
#X connect 4 1 11 0;
#X connect 4 2 10 0;
#X connect 4 3 9 0;
#X connect 4 4 8 0;
#X connect 4 5 6 0;
#X connect 5 0 23 0;
#X connect 6 0 5 0;
#X connect 6 1 7 0;
#X connect 7 0 5 2;
#X connect 8 0 5 0;
#X connect 8 1 13 0;
#X connect 9 0 5 0;
#X connect 9 1 14 0;
#X connect 10 0 5 0;
#X connect 10 1 15 0;
#X connect 11 0 5 0;
#X connect 11 1 16 0;
#X connect 12 0 5 0;
#X connect 12 1 17 0;
#X connect 13 0 5 2;
#X connect 14 0 5 2;
#X connect 15 0 5 2;
#X connect 16 0 5 2;
#X connect 17 0 5 2;
#X connect 18 0 19 0;
#X connect 19 0 20 0;
#X connect 19 1 20 0;
#X connect 19 2 20 0;
#X connect 19 3 21 0;
#X connect 20 0 24 0;
#X connect 21 0 22 0;
#X connect 22 0 24 0;
#X connect 24 0 23 0;
#X connect 25 0 23 0;
#X connect 26 0 5 1;
#X restore 466 914 pd randomise;
#X obj 27 76 bng 15 250 50 0 empty empty rand 17 7 0 10 #fcfcfc #000000 #000000;
#X obj 465 969 route feedback algorithm;
#X obj 467 935 route all;
#X floatatom 712 -81 5 0 0 0 - - - 0;
#X msg 712 -61 all feedback \$1;
#X obj 513 788 route preset randomise to_interface feedback algorithm;
#X obj 712 -40 s \$0-to_dx7;
#X obj 719 -146 s \$0-to_dx7;
#X obj 81 229 s \$0-to_dx7;
#X obj 171 227 s \$0-to_dx7;
#X obj 258 227 s \$0-to_dx7;
#X obj 349 225 s \$0-to_dx7;
#X obj 445 231 s \$0-to_dx7;
#X obj 531 224 s \$0-to_dx7;
#X obj 748 887 r \$0-to_dx7;
#X obj 713 58 hsl 40 15 0 1 0 0 empty empty fbk 5 9 1 10 #000000 #ffffff #7c7c7c 0 1;
#X obj 79 -21 r \$0-to_interfaces;
#X obj 171 -55 r \$0-to_interfaces;
#X obj 348 -56 r \$0-to_interfaces;
#X obj 252 -21 r \$0-to_interfaces;
#X obj 443 -21 r \$0-to_interfaces;
#X obj 540 -49 r \$0-to_interfaces;
#X obj 719 30 nbx 2 16 1 32 0 0 empty empty alg -17 9 1 10 #000000 #ffffff #7c7c7c 0 256;
#X text 487 894 comment;
#X obj 637 1017 s \$0-to_interfaces;
#X obj 637 523 loadbang;
#X msg 814 592 clear;
#X floatatom 524 536 5 0 0 0 - - - 0;
#X obj 637 606 textfile, f 17;
#X obj 637 636 spigot;
#N canvas 1028 620 694 423 get_preset 0;
#X obj 37 37 inlet;
#X obj 169 218 until;
#X obj 150 164 until;
#X obj 139 120 sel 0;
#X obj 86 131 t b;
#X obj 90 200 until;
#X msg 197 114 rewind;
#X msg 90 221 bang;
#X msg 169 239 bang;
#X msg 307 107 0;
#X msg 278 108 1;
#X text 82 34 preset number;
#X obj 169 260 outlet;
#X text 215 262 to textfile;
#X obj 307 128 outlet;
#X text 356 106 to spigot gate Close until at the correct preset;
#X obj 35 66 t b f b f b, f 47;
#X obj 241 203 outlet;
#X text 289 202 bangs when done;
#X msg 168 198 27;
#X msg 89 180 27;
#X connect 0 0 16 0;
#X connect 1 0 8 0;
#X connect 2 0 19 0;
#X connect 3 1 2 0;
#X connect 4 0 20 0;
#X connect 5 0 7 0;
#X connect 6 0 12 0;
#X connect 7 0 12 0;
#X connect 8 0 12 0;
#X connect 9 0 14 0;
#X connect 10 0 14 0;
#X connect 16 0 17 0;
#X connect 16 1 4 0;
#X connect 16 2 10 0;
#X connect 16 3 3 0;
#X connect 16 4 6 0;
#X connect 16 4 9 0;
#X connect 19 0 1 0;
#X connect 20 0 5 0;
#X restore 530 571 pd get_preset;
#N canvas 1300 348 545 485 split 0;
#X obj 37 13 inlet;
#X obj 77 300 spigot;
#X obj 227 234 loadbang;
#X msg 227 255 1;
#X obj 275 34 inlet;
#X text 315 29 done;
#X obj 78 382 outlet;
#X obj 71 215 route osc;
#X obj 63 245 t b b f, f 11;
#X msg 65 269 0;
#X obj 206 309 spigot;
#X msg 256 257 0;
#X obj 41 86 spigot;
#X obj 97 38 loadbang;
#X msg 97 60 1;
#X obj 121 165 spigot;
#X msg 3 94 0;
#X msg 63 136 1;
#X msg 125 60 0;
#X text 157 82 route out preset name and number;
#X obj 324 137 outlet;
#X obj 214 417 outlet;
#X msg 99 270 1;
#X obj 211 346 list prepend;
#X obj 211 388 route list;
#X obj 41 107 t b b a;
#X connect 0 0 12 0;
#X connect 0 0 15 0;
#X connect 1 0 6 0;
#X connect 2 0 3 0;
#X connect 2 0 11 0;
#X connect 3 0 1 1;
#X connect 4 0 3 0;
#X connect 4 0 18 0;
#X connect 4 0 11 0;
#X connect 4 0 14 0;
#X connect 7 0 8 0;
#X connect 7 1 1 0;
#X connect 7 1 10 0;
#X connect 8 0 9 0;
#X connect 8 1 22 0;
#X connect 8 2 23 1;
#X connect 9 0 1 1;
#X connect 10 0 23 0;
#X connect 11 0 10 1;
#X connect 12 0 25 0;
#X connect 13 0 14 0;
#X connect 13 0 18 0;
#X connect 14 0 12 1;
#X connect 15 0 7 0;
#X connect 16 0 12 1;
#X connect 17 0 15 1;
#X connect 18 0 15 1;
#X connect 22 0 10 1;
#X connect 23 0 24 0;
#X connect 24 0 21 0;
#X connect 25 0 16 0;
#X connect 25 1 17 0;
#X connect 25 2 20 0;
#X restore 637 657 pd split;
#X msg 800 756 7 "new preset", f 19;
#X floatatom 725 708 5 0 0 0 - - - 0;
#X obj 531 503 - 1;
#X floatatom 593 441 5 1 32 1 preset - - 0;
#X msg 723 684 \$1;
#X obj 801 691 list prepend set;
#X obj 801 712 route list;
#N canvas 1285 284 631 607 store_preset 0;
#X obj 28 29 inlet;
#N canvas 0 23 546 447 count_presets 0;
#X obj 252 175 textfile;
#X obj 109 94 t b b b;
#X msg 185 123 rewind;
#X obj 137 165 until;
#X obj 137 189 f 0;
#X obj 137 213 + 1;
#X msg 152 126 0;
#X obj 110 248 f;
#X obj 135 54 bng 15 250 50 0 empty empty empty 17 7 0 10 #fcfcfc #000000 #000000;
#X obj 110 272 - 1;
#X floatatom 110 296 5 0 0 0 - - - 0;
#X obj 299 101 loadbang;
#X msg 299 122 read dx7_presets.txt;
#X floatatom 65 338 5 0 0 0 - - - 0;
#X obj 110 337 outlet;
#X obj 198 17 loadbang;
#X obj 198 38 delay 1000;
#X obj 115 23 inlet;
#X obj 110 316 / 27;
#X connect 0 1 3 1;
#X connect 1 0 7 0;
#X connect 1 1 3 0;
#X connect 1 2 2 0;
#X connect 1 2 6 0;
#X connect 2 0 0 0;
#X connect 3 0 4 0;
#X connect 3 0 0 0;
#X connect 4 0 5 0;
#X connect 5 0 4 1;
#X connect 5 0 7 1;
#X connect 6 0 4 1;
#X connect 7 0 9 0;
#X connect 8 0 1 0;
#X connect 9 0 10 0;
#X connect 10 0 18 0;
#X connect 11 0 12 0;
#X connect 12 0 0 0;
#X connect 15 0 16 0;
#X connect 16 0 8 0;
#X connect 17 0 8 0;
#X connect 18 0 13 0;
#X connect 18 0 14 0;
#X restore 366 115 pd count_presets;
#X floatatom 366 136 5 0 0 0 - - - 0;
#X obj 378 89 bng 15 250 50 0 empty empty empty 17 7 0 10 #fcfcfc #000000 #000000;
#X obj 326 153 f 3;
#X obj 326 174 + 1;
#X obj 33 58 t b b b, f 49;
#X msg 326 201 add \$1 "new preset";
#N canvas 0 23 450 300 alg_and_fb 0;
#X obj 216 23 r \$0-to_dx7;
#X obj 216 44 route all;
#X obj 216 65 route algorithm feedback;
#X obj 48 118 t b b;
#X msg 73 165 add algorithm \$1;
#X msg 47 207 add feedback \$1;
#X obj 47 228 outlet;
#X obj 21 87 inlet;
#X obj 73 144 f 1;
#X obj 47 186 f 0;
#X connect 0 0 1 0;
#X connect 1 0 2 0;
#X connect 2 0 8 1;
#X connect 2 1 9 1;
#X connect 3 0 9 0;
#X connect 3 1 8 0;
#X connect 4 0 6 0;
#X connect 5 0 6 0;
#X connect 7 0 3 0;
#X connect 8 0 4 0;
#X connect 9 0 5 0;
#X restore 180 124 pd alg_and_fb;
#X obj 139 94 bng 15 250 50 0 empty empty empty 17 7 0 10 #fcfcfc #000000 #000000;
#X obj 39 204 until;
#X msg 90 204 0;
#X obj 40 252 + 1;
#X obj 39 225 f 0;
#X obj 261 259 r \$0-to_dx7;
#X msg 168 303 add osc \$1;
#X obj 262 378 route 1 2 3 4 5 6;
#X obj 48 90 bng 15 250 50 0 empty empty empty 17 7 0 10 #fcfcfc #000000 #000000;
#X obj 262 322 route all;
#X obj 263 475 list prepend add;
#X obj 263 496 route list;
#X obj 41 277 t f f f f f f;
#X obj 243 563 outlet;
#X text 293 559 to preset;
#X obj 9 559 s \$0-to_interfaces;
#X msg 145 170 1;
#X obj 33 119 t b b b b b;
#X msg 177 170 0;
#X obj 261 280 spigot;
#X obj 465 229 print presest;
#X msg 463 184 storing preset \$1;
#X obj 366 156 + 1;
#X obj 366 177 outlet;
#X obj 262 343 route toOscs;
#X msg 8 401 \$1 level bang;
#X msg 50 468 \$1 ratio bang;
#X msg 97 515 \$1 get_env bang;
#X msg 33 166 6;
#X connect 0 0 6 0;
#X connect 1 0 2 0;
#X connect 2 0 4 1;
#X connect 2 0 31 0;
#X connect 3 0 1 0;
#X connect 4 0 5 0;
#X connect 5 0 7 0;
#X connect 5 0 4 1;
#X connect 5 0 30 0;
#X connect 6 0 26 0;
#X connect 6 1 8 0;
#X connect 6 2 4 0;
#X connect 7 0 22 0;
#X connect 8 0 22 0;
#X connect 9 0 8 0;
#X connect 10 0 13 0;
#X connect 11 0 13 1;
#X connect 12 0 13 1;
#X connect 12 0 21 0;
#X connect 13 0 12 0;
#X connect 14 0 28 0;
#X connect 15 0 22 0;
#X connect 16 0 19 0;
#X connect 16 1 19 0;
#X connect 16 2 19 0;
#X connect 16 3 19 0;
#X connect 16 4 19 0;
#X connect 16 5 19 0;
#X connect 17 0 26 0;
#X connect 18 0 33 0;
#X connect 19 0 20 0;
#X connect 20 0 22 0;
#X connect 21 0 34 0;
#X connect 21 2 35 0;
#X connect 21 4 36 0;
#X connect 21 5 15 0;
#X connect 25 0 28 1;
#X connect 26 0 27 0;
#X connect 26 1 37 0;
#X connect 26 3 11 0;
#X connect 26 4 25 0;
#X connect 27 0 28 1;
#X connect 28 0 18 0;
#X connect 30 0 29 0;
#X connect 31 0 32 0;
#X connect 33 0 16 0;
#X connect 34 0 24 0;
#X connect 35 0 24 0;
#X connect 36 0 24 0;
#X connect 37 0 10 0;
#X restore 704 500 pd store_preset;
#X obj 465 420 bng 15 250 50 0 empty empty empty 17 7 0 10 #fcfcfc #000000 #000000;
#X obj 465 440 bng 15 250 50 0 empty empty empty 17 7 0 10 #fcfcfc #000000 #000000;
#X text 484 440 overwrite presets;
#X text 483 420 save as preset;
#X msg 575 420 7, f 4;
#X msg 806 524 set \$1;
#X obj 872 1080 dx7Poly;
#X obj 967 1079 dx7Poly;
#X obj 771 922 list split 1;
#X obj 812 971 list trim;
#X obj 1066 1081 dx7Poly;
#X obj 1163 1080 dx7Poly;
#X obj 859 1238 dx7Poly;
#X obj 954 1238 dx7Poly;
#X obj 1053 1240 dx7Poly;
#X obj 1152 1242 dx7Poly;
#X obj 836 1053 r to_synth_1_\$0;
#X obj 965 1053 r to_synth_2_\$0;
#X obj 1063 1054 r to_synth_3_\$0;
#X obj 1162 1055 r to_synth_4_\$0;
#X obj 858 1216 r to_synth_5_\$0;
#X obj 955 1216 r to_synth_6_\$0;
#X obj 1053 1217 r to_synth_7_\$0;
#X obj 1151 1218 r to_synth_8_\$0;
#X obj 910 1031 r s1_onoff_\$0;
#X obj 1014 1031 r s2_onoff_\$0;
#X obj 1111 1034 r s3_onoff_\$0;
#X obj 1217 1031 r s4_onoff_\$0;
#X obj 1208 1196 r s8_onoff_\$0;
#X obj 1105 1197 r s7_onoff_\$0;
#X obj 1003 1195 r s6_onoff_\$0;
#X obj 901 1194 r s5_onoff_\$0;
#X obj 1151 1265 s~ from_synth_8_\$0;
#X obj 860 1286 s~ from_synth_5_\$0;
#X obj 955 1265 s~ from_synth_6_\$0;
#X obj 1053 1286 s~ from_synth_7_\$0;
#X obj 872 1124 s~ from_synth_1_\$0;
#X obj 967 1103 s~ from_synth_2_\$0;
#X obj 1065 1124 s~ from_synth_3_\$0;
#X obj 1163 1103 s~ from_synth_4_\$0;
#X obj 27 28 tgl 18 0 empty empty mono 20 9 1 12 #000000 #ffffff #000000 0 1;
#X obj 59 -119 loadbang;
#X obj -400 796 s to_synth_2_\$0;
#X obj -386 803 s to_synth_3_\$0;
#X obj -376 813 s to_synth_4_\$0;
#X obj -414 711 pack f f f;
#X obj -407 681 poly 8 1;
#X obj -414 744 route 1 2 3 4 5 6 7 8;
#X obj -363 823 s to_synth_5_\$0;
#X obj -353 833 s to_synth_6_\$0;
#X obj -343 843 s to_synth_7_\$0;
#X obj -333 853 s to_synth_8_\$0;
#X obj -235 717 pack f f f;
#X obj -413 786 s to_synth_1_\$0;
#X obj -233 781 s to_synth_1_\$0;
#X obj -364 475 spigot;
#X obj -200 477 spigot;
#X obj -224 648 r to_poly_\$0;
#X obj -374 651 r to_poly_\$0;
#X obj -331 439 == 0;
#X obj -500 407 s s7_onoff_\$0;
#X obj -500 371 s s6_onoff_\$0;
#X obj -502 336 s s5_onoff_\$0;
#X obj -503 303 s s4_onoff_\$0;
#X obj -503 272 s s3_onoff_\$0;
#X obj -503 239 s s2_onoff_\$0;
#X obj -505 207 s s1_onoff_\$0;
#X obj -597 206 sel 0 1;
#X msg -571 244 1;
#X obj -498 444 s s8_onoff_\$0;
#X msg -600 244 1;
#X msg -571 269 0;
#X obj -243 683 poly 2 1;
#X obj -233 754 route 1 2;
#X obj -207 805 s to_synth_2_\$0;
#X obj 986 39 vsl 25 153 0 127 0 0 empty empty vol 0 -9 1 10 #000000 #ffffff #7c7c7c 0 1;
#X obj 986 -59 s vol_\$0;
#X obj -21 -345 s ID_\$0;
#X obj -22 -390 loadbang;
#X msg -22 -366 0;
#X obj 987 -39 r preset_vol_\$0;
#X obj 1011 -21 loadbang;
#X obj 849 33 lfo;
#X obj 901 1008 r~ \$0_lfo;
#X obj 996 1008 r~ \$0_lfo;
#X obj 1100 1009 r~ \$0_lfo;
#X obj 797 -328 s~ \$0_lfo;
#X obj 1200 1009 r~ \$0_lfo;
#X obj 878 1173 r~ \$0_lfo;
#X obj 973 1173 r~ \$0_lfo;
#X obj 1077 1174 r~ \$0_lfo;
#X obj 1177 1174 r~ \$0_lfo;
#X obj 881 -272 loadbang;
#X obj 852 -255 r preset_lfo_frq_\$0;
#X obj 905 -355 loadbang;
#X obj 872 -339 r preset_lfo_dep_\$0;
#X obj 919 -209 loadbang;
#X msg 891 -209 0;
#X obj 893 -194 r preset_lfo_wav_\$0;
#X obj 937 -155 loadbang;
#X obj 910 -136 r preset_lfo_mul_\$0;
#X obj 909 -171 s lfo_mul_\$0;
#X obj 893 -226 s lfo_wav_\$0;
#X obj 868 -376 s lfo_dep_\$0;
#X obj 852 -292 s lfo_frq_\$0;
#X obj -671 561 bng 18 250 50 0 empty empty empty 0 -9 0 10 #fcfcfc #000000 #000000;
#X obj -328 1439 r~ from_synth_1_\$0;
#X obj 199 1707 *~;
#X obj 422 1708 *~;
#X obj 273 1708 *~;
#X obj 345 1706 *~;
#X obj -193 1441 r~ from_synth_2_\$0;
#X obj -40 1440 r~ from_synth_3_\$0;
#X obj 95 1442 r~ from_synth_4_\$0;
#X obj 247 1442 r~ from_synth_5_\$0;
#X obj 382 1444 r~ from_synth_6_\$0;
#X obj 535 1443 r~ from_synth_7_\$0;
#X obj 670 1445 r~ from_synth_8_\$0;
#X obj -350 1525 / 127;
#X obj -350 1500 r vol_\$0;
#X obj -319 1631 * 0.125;
#X obj -460 1528 sel 0 1;
#X obj -294 1584 t b f;
#X msg -416 1564 1;
#X obj -254 1606 pack 0 100;
#X obj -253 1631 line~;
#X msg -461 1564 0.5;
#X obj -458 1500 r mono_\$0;
#X obj -595 174 r mono_\$0;
#X obj -165 394 r mono_\$0;
#X obj 30 -141 s mono_\$0;
#X obj 32 -99 r preset_mono_\$0;
#X obj 1016 439 s set_preset_sync_\$0;
#X obj 1040 416 s set_preset_div_\$0;
#X obj 1065 395 s set_preset_bpm_\$0;
#X obj 1085 374 s set_preset_shape_\$0;
#X obj 1102 351 s set_preset_trans_\$0;
#X obj 1119 329 s set_preset_spread_\$0;
#X obj 1302 -93 r preset_spread_\$0;
#X obj 1280 -112 r preset_trans_\$0;
#X obj 1261 -131 r preset_shape_\$0;
#X obj 1219 -170 r preset_div_\$0;
#X obj 1241 -151 r preset_bpm_\$0;
#X obj 1192 -192 r preset_sync_\$0;
#X obj 1162 -247 r bang_\$0;
#X obj 1176 -218 r rst_\$0;
#X obj 677 110 four_quad_pan_automations;
#X msg 31 -119 0;
#X obj -49 1831 quad_pan;
#X obj 132 1830 quad_pan;
#X obj 310 1831 quad_pan;
#X obj 487 1830 quad_pan;
#X obj 165 1985 outlet~;
#X obj 219 1986 outlet~;
#X obj 274 1985 outlet~;
#X obj 336 1983 outlet~;
#X obj -12 1778 r x_1_\$0;
#X obj 50 1778 r y_1_\$0;
#X obj 165 1777 r x_2_\$0;
#X obj 222 1777 r y_2_\$0;
#X obj 337 1777 r x_3_\$0;
#X obj 397 1779 r y_3_\$0;
#X obj 580 1779 r y_4_\$0;
#X obj 519 1780 r x_4_\$0;
#X obj 680 262 s x_1_\$0;
#X obj 685 281 s y_1_\$0;
#X obj 694 301 s x_2_\$0;
#X obj 703 321 s y_2_\$0;
#X obj 710 341 s x_3_\$0;
#X obj 719 361 s y_3_\$0;
#X obj 728 381 s x_4_\$0;
#X obj 736 401 s y_4_\$0;
#X obj -540 639 bng 20 250 50 0 empty empty empty 0 -10 0 12 #fcfcfc #000000 #000000;
#X msg -540 664 stop;
#X obj -587 637 bng 20 250 50 0 empty empty empty 0 -10 0 12 #fcfcfc #000000 #000000;
#X msg -587 662 clear;
#X obj -571 603 t b b;
#X obj -579 693 s to_poly_\$0;
#X obj -663 521 r all_notes_off_\$0;
#X obj 555 868 r rand_type_\$0;
#X obj 28 99 hradio 15 1 0 3 empty empty empty 0 -9 0 10 #fcfcfc #000000 #000000 0;
#X obj 163 294 s rand_type_\$0;
#X obj 146 267 + 1;
#X obj 119 1645 lop~;
#X obj 190 1647 lop~;
#X obj 268 1645 lop~;
#X obj 352 1642 lop~;
#X obj 688 84 hsl 90 15 0 127 0 0 empty empty low\ pass 5 8 1 10 #000000 #ffffff #7c7c7c 0 1;
#X obj 688 -272 s filter_\$0;
#X msg 637 553 read ./abs/dx7_presets.txt;
#X msg 817 557 write ./abs/dx7_presets.txt;
#X msg 647 390 7;
#X msg 875 -356 127;
#X msg 853 -272 75;
#X obj 688 -254 r preset_filter_\$0;
#X msg 687 -236 127;
#X obj 714 -236 loadbang;
#X obj 636 1591 * 10000;
#X obj 637 1569 / 127;
#X obj 637 1504 r filter_\$0;
#X obj 25 186 bng 18 250 50 0 empty empty no\ fbk 22 10 1 10 #fcfcfc #000000 #000000;
#X obj 25 164 bng 18 250 50 0 empty empty no\ det 22 10 1 10 #fcfcfc #000000 #000000;
#X msg 7 235 0;
#X obj 6 255 s reset_det_\$0;
#X obj 667 947 r reset_det_\$0;
#X msg 668 978 allOscs det 0;
#X obj 563 1579 line~;
#X obj 636 1611 pack 0 50;
#X obj 637 1547 midi_to_log;
#X msg 909 -155 0;
#X obj 49 -387 loadbang;
#X msg 49 -364 \; pd dsp 1;
#X obj -315 275 r notes_in_\$0;
#X obj 721 -193 r preset_algo_\$0;
#X obj 710 -22 r preset_fbk_\$0;
#X obj 1325 -71 r ctrl_shape-_\$0;
#X obj 1342 -49 r ctrl_shape+_\$0;
#X obj 1168 280 s feedbk_shape_name_out_\$0;
#X obj -145 107 r ctrl_rnd_go_\$0;
#X obj -149 131 r ctrl_rnd_sel_\$0;
#X obj -130 159 r ctrl_no_det_\$0;
#X obj -129 183 r ctrl_no_fbk_\$0;
#X obj -243 618 no_duplicates;
#X obj -407 617 no_duplicates;
#X obj -657 607 delay 100;
#X obj -203 567 r all_notes_off_\$0;
#X obj 1145 304 s set_preset_mono_phase_\$0;
#X obj 1360 -23 r preset_mono_phase_\$0;
#X msg 987 -22 127;
#X obj -84 705 print;
#X obj -253 20 delay 1000;
#X obj -250 -12 bng 18 250 50 0 empty empty empty 0 -9 0 10 #fcfcfc #000000 #000000;
#X msg -252 42 69 100;
#X msg -208 64 69 0;
#X obj 27 52 bng 18 250 50 0 empty empty 440 20 10 1 10 #fcfcfc #000000 #000000;
#X obj 1379 -1 r preset_trig_onoff_\$0;
#X obj 1191 256 s set_preset_trig_onoff_\$0;
#X obj 1401 24 r ctrl_trig_go_\$0;
#X obj -230 310 unpack 0 0;
#X obj -230 334 sel 0;
#X obj -192 362 s ctrl_trig_go_\$0;
#X obj -187 336 bng 18 250 50 0 empty empty empty 0 -9 0 10 #fcfcfc #000000 #000000;
#X obj -632 -362 s bang_\$0;
#X obj -561 -362 s rst_\$0;
#X obj -582 -449 inlet;
#X obj -356 -360 s save_\$0;
#X obj -432 -359 s load_\$0;
#X obj -492 -360 s ID_\$0;
#X text -585 -474 internal_in;
#X obj -260 -253 s control_\$0;
#X obj -273 -286 route name;
#X obj -316 -388 s osc_name_\$0;
#X obj -581 -423 route bang_bpm rst instance_id load save osc_name osc notes;
#X obj -242 -326 r osc_name_\$0;
#X obj -189 -358 s notes_in_\$0;
#X obj -301 87 s notes_in_\$0;
#X obj 716 1811 r control_out_\$0;
#X obj 694 1988 outlet;
#X obj 694 1962 oscformat;
#X obj 697 1884 list split 1;
#X obj 727 1930 list trim;
#X obj 821 1883 r osc_name_\$0;
#X obj 727 1908 list prepend;
#X obj 821 1928 list trim;
#X obj 821 1906 list prepend set;
#X text 697 2011 osc_out;
#X obj -24 -441 declare -path ./fm_synth_abs;
#N canvas 52 20 1854 977 handle_presets 1;
#X obj -35 2320 tabwrite presets_\$0;
#X msg 265 975 \$1 1;
#X msg 265 952 \$1 0;
#X msg 265 998 \$1 2;
#X obj 137 465 textfile;
#X obj 137 336 until;
#X obj 137 369 i;
#X obj 172 369 + 1;
#X msg 172 308 0;
#X obj 138 239 bng 20 250 50 0 empty empty empty 0 -10 0 12 #fcfcfc #000000 #000000;
#X msg 137 430 add \$1;
#X obj 138 270 t b b b;
#X msg 211 369 clear;
#X obj 230 338 f;
#X obj 221 271 t b b f;
#X floatatom 289 357 5 0 0 0 - - - 0;
#X obj 225 302 delay 10;
#X obj 229 431 pack 0 0;
#X obj 286 400 r ID_\$0;
#X obj 137 400 tabread presets_\$0;
#X obj 903 429 soundfiler;
#X obj 988 377 f \$0;
#X obj 993 349 loadbang;
#X obj 857 348 t b b f;
#X obj 835 485 until;
#X obj 834 518 i;
#X obj 870 518 + 1;
#X obj 836 388 bng 20 250 50 0 empty empty empty 0 -10 0 12 #fcfcfc #000000 #000000;
#X obj 836 419 t b b b;
#X obj 798 639 pack 0 0;
#X obj 795 612 i;
#X obj 830 611 t b f;
#X msg 870 457 0;
#X obj 834 547 t f f;
#X obj 935 348 r ID_\$0;
#X obj 904 377 pack 0 0 0;
#X obj 214 234 f;
#X obj 834 579 tabread presets_\$0;
#X msg 265 1021 \$1 3;
#X msg 265 1044 \$1 4;
#X msg 265 1068 \$1 5;
#X msg 265 1090 \$1 6;
#X msg 265 1113 \$1 7;
#X msg 265 1136 \$1 8;
#X msg 265 1159 \$1 9;
#X msg 265 1182 \$1 10;
#X msg 265 1205 \$1 11;
#X msg 265 1228 \$1 12;
#X msg 265 1251 \$1 13;
#X msg 265 1274 \$1 14;
#X msg 265 1297 \$1 15;
#X msg 265 1320 \$1 16;
#X msg 265 1343 \$1 17;
#X msg 265 1366 \$1 18;
#X msg 265 1389 \$1 19;
#X msg 265 1412 \$1 20;
#X msg 265 1435 \$1 21;
#X msg 265 1458 \$1 22;
#X msg 265 1481 \$1 23;
#X msg 265 1504 \$1 24;
#X msg 265 1527 \$1 25;
#X msg 265 1550 \$1 26;
#X msg 265 1573 \$1 27;
#X msg 265 1596 \$1 28;
#X msg 265 1619 \$1 29;
#X msg 265 1642 \$1 30;
#X msg 265 1665 \$1 31;
#X msg 265 1688 \$1 32;
#X msg 265 1711 \$1 33;
#X msg 265 1734 \$1 34;
#X msg 265 1757 \$1 35;
#X msg 265 1780 \$1 36;
#X text -40 308 n of presets (index + 1);
#X text 665 461 n of presets (index + 1;
#X obj 95 2195 list;
#X obj 42 2246 unpack 0 0;
#X obj 632 1270 list split 2;
#X obj 666 1327 route 1 2 3 4 5 6;
#X obj 619 1225 r \$0-to_dx7;
#X obj 618 1695 route all;
#X obj 618 1718 route feedback algorithm;
#X msg 766 850 1 ratio \$1;
#X msg 775 872 1 level \$1;
#X obj 766 1061 s \$0-to_interfaces;
#X msg 265 1803 \$1 37;
#X msg 265 1826 \$1 38;
#X msg 265 1849 \$1 39;
#X msg 265 1870 \$1 40;
#X obj 299 1849 r arp_on_\$0;
#X obj 299 1870 r vol_\$0;
#X obj 1589 935 s preset_arp_on_\$0;
#X obj 1604 959 s preset_vol_\$0;
#X msg 265 1894 \$1 41;
#X msg 265 1917 \$1 42;
#X msg 265 1940 \$1 43;
#X msg 265 1963 \$1 44;
#X msg 265 1986 \$1 45;
#X msg 265 2007 \$1 46;
#X obj 449 1914 route mod;
#X obj 531 1812 list split 2;
#X obj 565 1869 route 1 2 3 4 5 6;
#X obj 518 1767 r \$0-to_dx7;
#X obj 459 1924 route mod;
#X obj 469 1934 route mod;
#X obj 479 1944 route mod;
#X obj 489 1954 route mod;
#X obj 499 1964 route mod;
#X obj 1649 1087 s \$0-to_interfaces;
#X msg 1699 883 6 mod \$1;
#X msg 1649 833 1 mod \$1;
#X msg 1659 843 2 mod \$1;
#X msg 1669 853 3 mod \$1;
#X msg 1679 863 4 mod \$1;
#X msg 1689 873 5 mod \$1;
#X msg 266 2028 \$1 47;
#X msg 266 2051 \$1 48;
#X msg 266 2074 \$1 49;
#X msg 266 2095 \$1 50;
#X obj 305 2028 r lfo_frq_\$0;
#X obj 305 2051 r lfo_dep_\$0;
#X obj 305 2074 r lfo_wav_\$0;
#X obj 305 2095 r lfo_mul_\$0;
#X obj 1748 853 s preset_lfo_frq_\$0;
#X obj 1765 880 s preset_lfo_dep_\$0;
#X obj 1774 901 s preset_lfo_wav_\$0;
#X obj 1790 922 s preset_lfo_mul_\$0;
#X obj 299 1826 r mono_\$0;
#X obj 1588 911 s preset_mono_\$0;
#X obj 304 2115 r set_preset_sync_\$0;
#X obj 303 2138 r set_preset_div_\$0;
#X obj 347 2160 r set_preset_bpm_\$0;
#X obj 302 2179 r set_preset_shape_\$0;
#X obj 302 2202 r set_preset_trans_\$0;
#X obj 301 2225 r set_preset_spread_\$0;
#X obj 1896 834 s preset_sync_\$0;
#X obj 1923 856 s preset_div_\$0;
#X obj 1955 879 s preset_bpm_\$0;
#X obj 1965 895 s preset_shape_\$0;
#X obj 1984 914 s preset_trans_\$0;
#X obj 2008 935 s preset_spread_\$0;
#X msg 266 2115 \$1 51;
#X msg 264 2136 \$1 52;
#X msg 264 2157 \$1 53;
#X msg 264 2180 \$1 54;
#X msg 264 2203 \$1 55;
#X msg 263 2224 \$1 56;
#X obj 554 2168 list split 2;
#X obj 437 2229 route 1 2 3 4 5 6;
#X obj 541 2123 r \$0-to_dx7;
#X obj 321 2274 route det;
#X obj 331 2284 route det;
#X obj 351 2304 route det;
#X obj 341 2294 route det;
#X obj 361 2314 route det;
#X obj 371 2324 route det;
#X msg 263 2245 \$1 57;
#X msg 261 2266 \$1 58;
#X msg 261 2287 \$1 59;
#X msg 261 2310 \$1 60;
#X msg 261 2333 \$1 61;
#X msg 260 2354 \$1 62;
#X obj 1956 1114 s \$0-to_interfaces;
#X msg 1926 965 1 det \$1;
#X msg 1940 977 2 det \$1;
#X msg 1950 987 3 det \$1;
#X msg 1960 997 4 det \$1;
#X msg 1976 1006 5 det \$1;
#X msg 1986 1020 6 det \$1;
#X msg 260 2374 \$1 63;
#X obj 300 2374 r filter_\$0;
#X obj 2031 866 s preset_filter_\$0;
#X obj 847 260 r load_\$0;
#X obj 165 140 r save_\$0;
#X obj 867 691 r control_\$0;
#X obj -25 2162 s control_out_\$0;
#X msg 2179 717 1 rst 0;
#X obj 2243 790 s \$0-to_interfaces;
#X msg 2203 735 2 rst 0;
#X msg 2228 752 3 rst 0;
#X msg 2250 717 4 rst 0;
#X msg 2274 735 5 rst 0;
#X msg 2299 752 6 rst 0;
#X obj 920 1063 s \$0-to_interfaces;
#X obj 1203 1071 s \$0-to_interfaces;
#X obj 1326 1072 s \$0-to_interfaces;
#X obj 1447 1074 s \$0-to_interfaces;
#X obj 1086 1071 s \$0-to_interfaces;
#X msg 920 852 2 ratio \$1;
#X msg 943 880 2 level \$1;
#X msg 1109 888 3 level \$1;
#X msg 1086 860 3 ratio \$1;
#X msg 1203 860 4 ratio \$1;
#X msg 1226 888 4 level \$1;
#X msg 1349 889 5 level \$1;
#X msg 1326 861 5 ratio \$1;
#X msg 1447 863 6 ratio \$1;
#X msg 1470 891 6 level \$1;
#X obj 1569 868 s preset_algo_\$0;
#X obj 1533 840 s preset_fbk_\$0;
#X obj 1546 821 i;
#X obj 2302 698 s ctrl_shape-_\$0;
#X obj 2337 720 s ctrl_shape+_\$0;
#X obj -55 1875 t a b;
#X obj -55 1934 list trim;
#X obj -55 1908 list append;
#X obj -85 1818 r feedbk_shape_name_out_\$0;
#X msg -7 1875 108;
#X obj 315 2159 i;
#X obj 1927 878 i;
#X obj -251 1530 r x_1_\$0;
#X obj -189 1529 r y_1_\$0;
#X obj -179 1606 r y_2_\$0;
#X obj -185 1671 r y_3_\$0;
#X obj -190 1749 r y_4_\$0;
#X obj -252 1750 r x_4_\$0;
#X obj -248 1671 r x_3_\$0;
#X obj -245 1606 r x_2_\$0;
#X msg -249 1557 \$1 109;
#X msg -186 1557 \$1 110;
#X msg -244 1633 \$1 111;
#X msg -181 1633 \$1 112;
#X msg -249 1694 \$1 113;
#X msg -186 1694 \$1 114;
#X msg -249 1779 \$1 115;
#X msg -186 1779 \$1 116;
#X obj 2357 644 s ctrl_rnd_go_\$0;
#X obj 2392 666 s ctrl_rnd_sel_\$0;
#X msg 788 895 1 a \$1;
#X msg 797 917 1 d \$1;
#X msg 809 939 1 s \$1;
#X msg 820 962 1 r \$1;
#X obj 92 480 unpack 0 0 0 0;
#X msg 54 514 a \$1;
#X msg 91 516 d \$1;
#X msg 151 518 r \$1;
#X msg 120 517 s \$1;
#X msg 1488 920 6 a \$1;
#X msg 1497 942 6 d \$1;
#X msg 1509 964 6 s \$1;
#X msg 1520 987 6 r \$1;
#X msg 1360 917 5 a \$1;
#X msg 1369 939 5 d \$1;
#X msg 1381 961 5 s \$1;
#X msg 1392 984 5 r \$1;
#X msg 1276 985 4 r \$1;
#X msg 1265 962 4 s \$1;
#X msg 1253 940 4 d \$1;
#X msg 1244 918 4 a \$1;
#X msg 1124 918 3 a \$1;
#X msg 1133 940 3 d \$1;
#X msg 1145 962 3 s \$1;
#X msg 1156 985 3 r \$1;
#X msg 956 906 2 a \$1;
#X msg 972 931 2 d \$1;
#X msg 984 953 2 s \$1;
#X msg 995 976 2 r \$1;
#X obj 2152 585 route 100 101 102 103 104 105 106 107 117 118 119 120;
#X obj 2434 623 s ctrl_no_det_\$0;
#X obj 2469 645 s ctrl_no_fbk_\$0;
#X floatatom 821 1006 5 0 0 0 - - - 0;
#X obj 392 910 route ratio level a d s r;
#X obj 399 1028 route ratio level a d s r;
#X obj 408 1172 route ratio level a d s r;
#X obj 410 1299 route ratio level a d s r;
#X obj 411 1442 route ratio level a d s r;
#X obj 412 1587 route ratio level a d s r;
#X obj 1074 520 file patchpath;
#X obj 1076 546 list append;
#X obj 1077 595 list prepend;
#X obj 1076 571 list trim;
#X obj 1076 620 list trim;
#X obj 1120 433 t a a b;
#X msg 1190 520 presets_\$3;
#X msg 1175 594 read -ascii -resize;
#X obj 294 587 file patchpath;
#X obj 296 613 list append;
#X obj 297 662 list prepend;
#X obj 296 638 list trim;
#X obj 296 687 list trim;
#X obj 340 500 t a a b;
#X msg 395 661 write;
#X msg 410 587 cr;
#X obj 1103 686 print;
#X obj 294 741 print;
#X msg 1073 466 symbol ../presets/fm_synth_presets/\$2/preset_\$1.txt;
#X msg 293 533 symbol ../presets/fm_synth_presets/\$2/preset_\$1.txt;
#X msg 261 2396 \$1 64;
#X obj 301 2396 r set_preset_mono_phase_\$0;
#X obj 2046 848 s preset_mono_phase_\$0;
#X msg 260 2419 \$1 65;
#X obj 305 2418 r set_preset_trig_onoff_\$0;
#X obj 820 782 route 0 1 2 3 4 5 6 7 8 9 10 11 12 13 14 15 16 17 18 19 20 21 22 23 24 25 26 27 28 29 30 31 32 33 34 35 36 37 38 39 40 41 42 43 44 45 46 47 48 49 50 51 52 53 54 55 56 57 58 59 60 61 62 63 64 65, f 209;
#X obj 2067 823 s preset_trig_onoff_\$0;
#X obj 493 290 table presets_\$0 70;
#X msg 836 458 66;
#X msg 137 308 66;
#X obj -305 2057 t a b;
#X obj -305 2116 list trim;
#X obj -305 2090 list append;
#X obj -335 2000 r feedbk_sync_name_out_\$0;
#X msg -257 2057 208;
#X connect 1 0 74 0;
#X connect 2 0 74 0;
#X connect 3 0 74 0;
#X connect 5 0 6 0;
#X connect 6 0 7 0;
#X connect 6 0 19 0;
#X connect 7 0 6 1;
#X connect 8 0 6 1;
#X connect 9 0 11 0;
#X connect 10 0 4 0;
#X connect 11 0 295 0;
#X connect 11 1 8 0;
#X connect 11 2 12 0;
#X connect 12 0 4 0;
#X connect 13 0 15 0;
#X connect 13 0 17 0;
#X connect 14 0 16 0;
#X connect 14 1 9 0;
#X connect 14 2 13 1;
#X connect 16 0 13 0;
#X connect 17 0 279 0;
#X connect 18 0 17 1;
#X connect 19 0 10 0;
#X connect 21 0 35 2;
#X connect 22 0 21 0;
#X connect 23 1 27 0;
#X connect 23 2 35 0;
#X connect 24 0 25 0;
#X connect 25 0 26 0;
#X connect 25 0 33 0;
#X connect 26 0 25 1;
#X connect 27 0 28 0;
#X connect 28 0 294 0;
#X connect 28 1 32 0;
#X connect 29 0 291 0;
#X connect 30 0 29 0;
#X connect 31 0 30 0;
#X connect 31 1 29 1;
#X connect 32 0 25 1;
#X connect 33 0 37 0;
#X connect 33 1 30 1;
#X connect 34 0 35 1;
#X connect 35 0 271 0;
#X connect 36 0 14 0;
#X connect 37 0 31 0;
#X connect 38 0 74 0;
#X connect 39 0 74 0;
#X connect 40 0 74 0;
#X connect 41 0 74 0;
#X connect 42 0 74 0;
#X connect 43 0 74 0;
#X connect 44 0 74 0;
#X connect 45 0 74 0;
#X connect 46 0 74 0;
#X connect 47 0 74 0;
#X connect 48 0 74 0;
#X connect 49 0 74 0;
#X connect 50 0 74 0;
#X connect 51 0 74 0;
#X connect 52 0 74 0;
#X connect 53 0 74 0;
#X connect 54 0 74 0;
#X connect 55 0 74 0;
#X connect 56 0 74 0;
#X connect 57 0 74 0;
#X connect 58 0 74 0;
#X connect 59 0 74 0;
#X connect 60 0 74 0;
#X connect 61 0 74 0;
#X connect 62 0 74 0;
#X connect 63 0 74 0;
#X connect 64 0 74 0;
#X connect 65 0 74 0;
#X connect 66 0 74 0;
#X connect 67 0 74 0;
#X connect 68 0 74 0;
#X connect 69 0 74 0;
#X connect 70 0 74 0;
#X connect 71 0 74 0;
#X connect 74 0 75 0;
#X connect 74 0 174 0;
#X connect 75 0 0 0;
#X connect 75 1 0 1;
#X connect 76 1 77 0;
#X connect 77 0 260 0;
#X connect 77 1 261 0;
#X connect 77 2 262 0;
#X connect 77 3 263 0;
#X connect 77 4 264 0;
#X connect 77 5 265 0;
#X connect 78 0 76 0;
#X connect 78 0 79 0;
#X connect 79 0 80 0;
#X connect 80 0 71 0;
#X connect 80 1 84 0;
#X connect 81 0 83 0;
#X connect 82 0 83 0;
#X connect 84 0 74 0;
#X connect 85 0 74 0;
#X connect 86 0 74 0;
#X connect 87 0 74 0;
#X connect 88 0 86 0;
#X connect 89 0 87 0;
#X connect 92 0 74 0;
#X connect 93 0 74 0;
#X connect 94 0 74 0;
#X connect 95 0 74 0;
#X connect 96 0 74 0;
#X connect 97 0 74 0;
#X connect 98 0 92 0;
#X connect 99 1 100 0;
#X connect 100 0 98 0;
#X connect 100 1 102 0;
#X connect 100 2 103 0;
#X connect 100 3 104 0;
#X connect 100 4 105 0;
#X connect 100 5 106 0;
#X connect 101 0 99 0;
#X connect 102 0 93 0;
#X connect 103 0 94 0;
#X connect 104 0 95 0;
#X connect 105 0 96 0;
#X connect 106 0 97 0;
#X connect 108 0 107 0;
#X connect 109 0 107 0;
#X connect 110 0 107 0;
#X connect 111 0 107 0;
#X connect 112 0 107 0;
#X connect 113 0 107 0;
#X connect 114 0 74 0;
#X connect 115 0 74 0;
#X connect 116 0 74 0;
#X connect 117 0 74 0;
#X connect 118 0 114 0;
#X connect 119 0 115 0;
#X connect 120 0 116 0;
#X connect 121 0 117 0;
#X connect 126 0 85 0;
#X connect 128 0 140 0;
#X connect 129 0 141 0;
#X connect 130 0 207 0;
#X connect 131 0 143 0;
#X connect 132 0 144 0;
#X connect 133 0 145 0;
#X connect 140 0 74 0;
#X connect 141 0 74 0;
#X connect 142 0 74 0;
#X connect 143 0 74 0;
#X connect 144 0 74 0;
#X connect 145 0 74 0;
#X connect 146 1 147 0;
#X connect 147 0 149 0;
#X connect 147 1 150 0;
#X connect 147 2 152 0;
#X connect 147 3 151 0;
#X connect 147 4 153 0;
#X connect 147 5 154 0;
#X connect 148 0 146 0;
#X connect 149 0 155 0;
#X connect 150 0 156 0;
#X connect 151 0 158 0;
#X connect 152 0 157 0;
#X connect 153 0 159 0;
#X connect 154 0 160 0;
#X connect 155 0 74 0;
#X connect 156 0 74 0;
#X connect 157 0 74 0;
#X connect 158 0 74 0;
#X connect 159 0 74 0;
#X connect 160 0 74 0;
#X connect 162 0 161 0;
#X connect 163 0 161 0;
#X connect 164 0 161 0;
#X connect 165 0 161 0;
#X connect 166 0 161 0;
#X connect 167 0 161 0;
#X connect 168 0 74 0;
#X connect 169 0 168 0;
#X connect 171 0 23 0;
#X connect 172 0 36 0;
#X connect 173 0 291 0;
#X connect 175 0 176 0;
#X connect 177 0 176 0;
#X connect 178 0 176 0;
#X connect 179 0 176 0;
#X connect 180 0 176 0;
#X connect 181 0 176 0;
#X connect 187 0 182 0;
#X connect 188 0 182 0;
#X connect 189 0 186 0;
#X connect 190 0 186 0;
#X connect 191 0 183 0;
#X connect 192 0 183 0;
#X connect 193 0 184 0;
#X connect 194 0 184 0;
#X connect 195 0 185 0;
#X connect 196 0 185 0;
#X connect 199 0 197 0;
#X connect 202 0 204 0;
#X connect 202 1 206 0;
#X connect 203 0 174 0;
#X connect 204 0 203 0;
#X connect 205 0 202 0;
#X connect 206 0 204 1;
#X connect 207 0 142 0;
#X connect 208 0 136 0;
#X connect 209 0 217 0;
#X connect 210 0 218 0;
#X connect 211 0 220 0;
#X connect 212 0 222 0;
#X connect 213 0 224 0;
#X connect 214 0 223 0;
#X connect 215 0 221 0;
#X connect 216 0 219 0;
#X connect 217 0 174 0;
#X connect 218 0 174 0;
#X connect 219 0 174 0;
#X connect 220 0 174 0;
#X connect 221 0 174 0;
#X connect 222 0 174 0;
#X connect 223 0 174 0;
#X connect 224 0 174 0;
#X connect 227 0 83 0;
#X connect 228 0 83 0;
#X connect 229 0 83 0;
#X connect 230 0 83 0;
#X connect 231 0 232 0;
#X connect 231 1 233 0;
#X connect 231 2 235 0;
#X connect 231 3 234 0;
#X connect 236 0 185 0;
#X connect 237 0 185 0;
#X connect 238 0 185 0;
#X connect 239 0 185 0;
#X connect 240 0 184 0;
#X connect 241 0 184 0;
#X connect 242 0 184 0;
#X connect 243 0 184 0;
#X connect 244 0 183 0;
#X connect 245 0 183 0;
#X connect 246 0 183 0;
#X connect 247 0 183 0;
#X connect 248 0 186 0;
#X connect 249 0 186 0;
#X connect 250 0 186 0;
#X connect 251 0 186 0;
#X connect 252 0 182 0;
#X connect 253 0 182 0;
#X connect 254 0 182 0;
#X connect 255 0 182 0;
#X connect 256 0 175 0;
#X connect 256 1 177 0;
#X connect 256 2 178 0;
#X connect 256 3 179 0;
#X connect 256 4 180 0;
#X connect 256 5 181 0;
#X connect 256 6 200 0;
#X connect 256 7 201 0;
#X connect 256 8 225 0;
#X connect 256 9 226 0;
#X connect 256 10 257 0;
#X connect 256 11 258 0;
#X connect 260 0 2 0;
#X connect 260 1 1 0;
#X connect 260 2 3 0;
#X connect 260 3 38 0;
#X connect 260 4 39 0;
#X connect 260 5 40 0;
#X connect 261 0 41 0;
#X connect 261 1 42 0;
#X connect 261 2 43 0;
#X connect 261 3 44 0;
#X connect 261 4 45 0;
#X connect 261 5 46 0;
#X connect 262 0 47 0;
#X connect 262 1 48 0;
#X connect 262 2 49 0;
#X connect 262 3 50 0;
#X connect 262 4 51 0;
#X connect 262 5 52 0;
#X connect 263 0 53 0;
#X connect 263 1 54 0;
#X connect 263 2 55 0;
#X connect 263 3 56 0;
#X connect 263 4 57 0;
#X connect 263 5 58 0;
#X connect 264 0 59 0;
#X connect 264 1 60 0;
#X connect 264 2 61 0;
#X connect 264 3 62 0;
#X connect 264 4 63 0;
#X connect 264 5 64 0;
#X connect 265 0 65 0;
#X connect 265 1 66 0;
#X connect 265 2 67 0;
#X connect 265 3 68 0;
#X connect 265 4 69 0;
#X connect 265 5 70 0;
#X connect 266 0 267 0;
#X connect 267 0 269 0;
#X connect 268 0 270 0;
#X connect 269 0 268 0;
#X connect 270 0 20 0;
#X connect 270 0 282 0;
#X connect 271 0 284 0;
#X connect 271 1 272 0;
#X connect 271 2 273 0;
#X connect 272 0 267 1;
#X connect 273 0 268 1;
#X connect 274 0 275 0;
#X connect 275 0 277 0;
#X connect 276 0 278 0;
#X connect 277 0 276 0;
#X connect 278 0 4 0;
#X connect 278 0 283 0;
#X connect 279 0 285 0;
#X connect 279 2 280 0;
#X connect 279 2 281 0;
#X connect 280 0 276 1;
#X connect 281 0 275 1;
#X connect 284 0 266 0;
#X connect 285 0 274 0;
#X connect 286 0 74 0;
#X connect 287 0 286 0;
#X connect 289 0 74 0;
#X connect 290 0 289 0;
#X connect 291 0 81 0;
#X connect 291 1 82 0;
#X connect 291 2 227 0;
#X connect 291 3 228 0;
#X connect 291 4 229 0;
#X connect 291 4 259 0;
#X connect 291 5 230 0;
#X connect 291 6 187 0;
#X connect 291 7 188 0;
#X connect 291 8 252 0;
#X connect 291 9 253 0;
#X connect 291 10 254 0;
#X connect 291 11 255 0;
#X connect 291 12 190 0;
#X connect 291 13 189 0;
#X connect 291 14 248 0;
#X connect 291 15 249 0;
#X connect 291 16 250 0;
#X connect 291 17 251 0;
#X connect 291 18 191 0;
#X connect 291 19 192 0;
#X connect 291 20 247 0;
#X connect 291 21 246 0;
#X connect 291 22 245 0;
#X connect 291 23 244 0;
#X connect 291 24 194 0;
#X connect 291 25 193 0;
#X connect 291 26 240 0;
#X connect 291 27 241 0;
#X connect 291 28 242 0;
#X connect 291 29 243 0;
#X connect 291 30 195 0;
#X connect 291 31 196 0;
#X connect 291 32 236 0;
#X connect 291 33 237 0;
#X connect 291 34 238 0;
#X connect 291 35 239 0;
#X connect 291 36 198 0;
#X connect 291 37 199 0;
#X connect 291 38 127 0;
#X connect 291 39 90 0;
#X connect 291 40 91 0;
#X connect 291 41 109 0;
#X connect 291 42 110 0;
#X connect 291 43 111 0;
#X connect 291 44 112 0;
#X connect 291 45 113 0;
#X connect 291 46 108 0;
#X connect 291 47 122 0;
#X connect 291 48 123 0;
#X connect 291 49 124 0;
#X connect 291 50 125 0;
#X connect 291 51 134 0;
#X connect 291 52 135 0;
#X connect 291 53 208 0;
#X connect 291 54 137 0;
#X connect 291 55 138 0;
#X connect 291 56 139 0;
#X connect 291 57 162 0;
#X connect 291 58 163 0;
#X connect 291 59 164 0;
#X connect 291 60 165 0;
#X connect 291 61 166 0;
#X connect 291 62 167 0;
#X connect 291 63 170 0;
#X connect 291 64 288 0;
#X connect 291 65 292 0;
#X connect 291 66 256 0;
#X connect 294 0 24 0;
#X connect 295 0 5 0;
#X connect 296 0 298 0;
#X connect 296 1 300 0;
#X connect 297 0 174 0;
#X connect 298 0 297 0;
#X connect 299 0 296 0;
#X connect 300 0 298 1;
#X restore -23 -467 pd handle_presets;
#X obj -23 -415 declare -path ./commons;
#X floatatom 870 320 5 0 0 0 - - - 0;
#X obj 1208 232 s feedbk_sync_name_out_\$0;
#X connect 0 0 57 0;
#X connect 1 0 17 0;
#X connect 2 0 18 0;
#X connect 3 0 19 0;
#X connect 4 0 20 0;
#X connect 5 0 21 0;
#X connect 6 0 22 0;
#X connect 7 0 16 0;
#X connect 8 0 11 0;
#X connect 9 0 8 0;
#X connect 9 0 229 0;
#X connect 10 0 24 0;
#X connect 10 1 31 0;
#X connect 10 2 33 0;
#X connect 11 0 10 0;
#X connect 12 0 13 0;
#X connect 13 0 15 0;
#X connect 14 0 44 0;
#X connect 14 1 8 0;
#X connect 14 2 33 0;
#X connect 14 3 24 0;
#X connect 14 4 31 0;
#X connect 23 0 57 0;
#X connect 24 0 12 0;
#X connect 25 0 1 0;
#X connect 26 0 2 0;
#X connect 27 0 4 0;
#X connect 28 0 3 0;
#X connect 29 0 5 0;
#X connect 30 0 6 0;
#X connect 31 0 7 0;
#X connect 34 0 238 0;
#X connect 35 0 37 0;
#X connect 36 0 39 0;
#X connect 37 0 38 0;
#X connect 38 0 40 0;
#X connect 39 0 37 0;
#X connect 39 1 40 1;
#X connect 39 2 38 1;
#X connect 40 0 14 0;
#X connect 40 1 33 0;
#X connect 40 2 45 0;
#X connect 40 2 46 0;
#X connect 43 0 36 0;
#X connect 44 0 43 0;
#X connect 45 0 42 0;
#X connect 46 0 47 0;
#X connect 47 0 41 0;
#X connect 48 0 37 0;
#X connect 48 1 54 0;
#X connect 49 0 48 0;
#X connect 50 0 239 0;
#X connect 54 0 53 0;
#X connect 55 0 85 0;
#X connect 56 0 86 0;
#X connect 57 1 58 0;
#X connect 58 0 55 0;
#X connect 58 0 56 0;
#X connect 58 0 61 0;
#X connect 58 0 62 0;
#X connect 58 0 59 0;
#X connect 58 0 60 0;
#X connect 58 0 63 0;
#X connect 58 0 64 0;
#X connect 59 0 87 0;
#X connect 60 0 88 0;
#X connect 61 0 82 0;
#X connect 62 0 83 0;
#X connect 63 0 84 0;
#X connect 64 0 81 0;
#X connect 65 0 55 0;
#X connect 66 0 56 0;
#X connect 67 0 59 0;
#X connect 68 0 60 0;
#X connect 69 0 61 0;
#X connect 70 0 62 0;
#X connect 71 0 63 0;
#X connect 72 0 64 0;
#X connect 73 0 55 2;
#X connect 74 0 56 2;
#X connect 75 0 59 2;
#X connect 76 0 60 2;
#X connect 77 0 64 2;
#X connect 78 0 63 2;
#X connect 79 0 62 2;
#X connect 80 0 61 2;
#X connect 89 0 179 0;
#X connect 90 0 196 0;
#X connect 94 0 96 0;
#X connect 95 0 94 0;
#X connect 95 1 94 1;
#X connect 95 2 94 2;
#X connect 96 0 102 0;
#X connect 96 1 91 0;
#X connect 96 2 92 0;
#X connect 96 3 93 0;
#X connect 96 4 97 0;
#X connect 96 5 98 0;
#X connect 96 6 99 0;
#X connect 96 7 100 0;
#X connect 101 0 122 0;
#X connect 104 0 272 0;
#X connect 105 0 271 0;
#X connect 106 0 121 0;
#X connect 106 0 278 0;
#X connect 107 0 95 0;
#X connect 107 0 278 0;
#X connect 108 0 104 1;
#X connect 116 0 119 0;
#X connect 116 1 117 0;
#X connect 117 0 115 0;
#X connect 117 0 114 0;
#X connect 117 0 120 0;
#X connect 119 0 115 0;
#X connect 119 0 114 0;
#X connect 119 0 113 0;
#X connect 119 0 112 0;
#X connect 119 0 111 0;
#X connect 119 0 110 0;
#X connect 119 0 109 0;
#X connect 119 0 118 0;
#X connect 120 0 113 0;
#X connect 120 0 112 0;
#X connect 120 0 111 0;
#X connect 120 0 110 0;
#X connect 120 0 109 0;
#X connect 120 0 118 0;
#X connect 121 0 101 0;
#X connect 121 1 101 1;
#X connect 121 2 101 2;
#X connect 122 0 103 0;
#X connect 122 1 123 0;
#X connect 124 0 125 0;
#X connect 127 0 128 0;
#X connect 128 0 126 0;
#X connect 129 0 124 0;
#X connect 130 0 277 0;
#X connect 131 0 135 0;
#X connect 132 0 55 1;
#X connect 133 0 56 1;
#X connect 134 0 59 1;
#X connect 136 0 60 1;
#X connect 137 0 61 1;
#X connect 138 0 62 1;
#X connect 139 0 63 1;
#X connect 140 0 64 1;
#X connect 141 0 242 0;
#X connect 142 0 131 0;
#X connect 143 0 241 0;
#X connect 144 0 131 1;
#X connect 145 0 146 0;
#X connect 146 0 131 2;
#X connect 147 0 131 2;
#X connect 148 0 258 0;
#X connect 154 0 273 0;
#X connect 155 0 232 0;
#X connect 156 0 197 0;
#X connect 157 0 200 0;
#X connect 158 0 198 0;
#X connect 159 0 199 0;
#X connect 160 0 233 0;
#X connect 161 0 234 0;
#X connect 162 0 235 0;
#X connect 163 0 232 0;
#X connect 164 0 233 0;
#X connect 165 0 234 0;
#X connect 166 0 235 0;
#X connect 167 0 169 0;
#X connect 168 0 167 0;
#X connect 169 0 173 0;
#X connect 170 0 175 0;
#X connect 170 1 172 0;
#X connect 171 0 169 0;
#X connect 171 1 169 1;
#X connect 172 0 171 0;
#X connect 173 0 174 0;
#X connect 174 0 156 1;
#X connect 174 0 158 1;
#X connect 174 0 159 1;
#X connect 174 0 157 1;
#X connect 175 0 171 0;
#X connect 176 0 170 0;
#X connect 177 0 116 0;
#X connect 178 0 105 1;
#X connect 178 0 108 0;
#X connect 180 0 89 0;
#X connect 187 0 195 8;
#X connect 188 0 195 7;
#X connect 189 0 195 6;
#X connect 190 0 195 4;
#X connect 191 0 195 5;
#X connect 192 0 195 3;
#X connect 193 0 195 0;
#X connect 194 0 195 1;
#X connect 195 0 213 0;
#X connect 195 1 214 0;
#X connect 195 2 215 0;
#X connect 195 3 216 0;
#X connect 195 4 217 0;
#X connect 195 5 218 0;
#X connect 195 6 219 0;
#X connect 195 7 220 0;
#X connect 195 8 181 0;
#X connect 195 9 182 0;
#X connect 195 10 183 0;
#X connect 195 10 318 0;
#X connect 195 11 184 0;
#X connect 195 12 185 0;
#X connect 195 13 186 0;
#X connect 195 14 275 0;
#X connect 195 15 266 0;
#X connect 195 16 285 0;
#X connect 195 17 319 0;
#X connect 196 0 89 0;
#X connect 197 0 201 0;
#X connect 197 1 202 0;
#X connect 197 2 203 0;
#X connect 197 3 204 0;
#X connect 198 0 201 0;
#X connect 198 1 202 0;
#X connect 198 2 203 0;
#X connect 198 3 204 0;
#X connect 199 0 201 0;
#X connect 199 1 202 0;
#X connect 199 2 203 0;
#X connect 199 3 204 0;
#X connect 200 0 201 0;
#X connect 200 1 202 0;
#X connect 200 2 203 0;
#X connect 200 3 204 0;
#X connect 205 0 197 1;
#X connect 206 0 197 2;
#X connect 207 0 198 1;
#X connect 208 0 198 2;
#X connect 209 0 199 1;
#X connect 210 0 199 2;
#X connect 211 0 200 2;
#X connect 212 0 200 1;
#X connect 221 0 222 0;
#X connect 222 0 226 0;
#X connect 223 0 224 0;
#X connect 224 0 226 0;
#X connect 225 0 223 0;
#X connect 225 1 221 0;
#X connect 227 0 154 0;
#X connect 228 0 8 1;
#X connect 229 0 231 0;
#X connect 231 0 230 0;
#X connect 232 0 156 0;
#X connect 233 0 158 0;
#X connect 234 0 159 0;
#X connect 235 0 157 0;
#X connect 236 0 237 0;
#X connect 238 0 37 0;
#X connect 239 0 37 0;
#X connect 240 0 44 0;
#X connect 241 0 131 1;
#X connect 242 0 131 0;
#X connect 243 0 236 0;
#X connect 244 0 236 0;
#X connect 245 0 244 0;
#X connect 246 0 256 0;
#X connect 247 0 246 0;
#X connect 248 0 257 0;
#X connect 249 0 251 0;
#X connect 250 0 252 0;
#X connect 251 0 24 0;
#X connect 253 0 254 0;
#X connect 254 0 33 0;
#X connect 255 0 235 1;
#X connect 255 0 234 1;
#X connect 255 0 233 1;
#X connect 255 0 232 1;
#X connect 256 0 255 0;
#X connect 257 0 247 0;
#X connect 259 0 260 0;
#X connect 261 0 105 0;
#X connect 261 0 104 0;
#X connect 261 0 287 0;
#X connect 262 0 31 0;
#X connect 263 0 24 0;
#X connect 264 0 195 9;
#X connect 265 0 195 10;
#X connect 267 0 9 0;
#X connect 268 0 229 0;
#X connect 269 0 250 0;
#X connect 270 0 249 0;
#X connect 271 0 121 0;
#X connect 272 0 95 0;
#X connect 273 0 225 0;
#X connect 274 0 271 1;
#X connect 274 0 272 1;
#X connect 276 0 195 11;
#X connect 277 0 124 0;
#X connect 279 0 282 0;
#X connect 280 0 279 0;
#X connect 280 0 281 0;
#X connect 281 0 304 0;
#X connect 282 0 304 0;
#X connect 283 0 280 0;
#X connect 284 0 195 12;
#X connect 286 0 195 13;
#X connect 287 1 288 0;
#X connect 288 1 290 0;
#X connect 290 0 289 0;
#X connect 293 0 301 0;
#X connect 299 0 298 0;
#X connect 301 0 291 0;
#X connect 301 1 292 0;
#X connect 301 2 296 0;
#X connect 301 3 295 0;
#X connect 301 4 294 0;
#X connect 301 5 300 0;
#X connect 301 6 299 0;
#X connect 301 7 303 0;
#X connect 302 0 299 1;
#X connect 305 0 308 0;
#X connect 307 0 306 0;
#X connect 308 0 307 0;
#X connect 308 1 311 0;
#X connect 309 0 307 0;
#X connect 310 0 313 0;
#X connect 311 0 309 0;
#X connect 312 0 311 1;
#X connect 313 0 312 0;
#X coords 0 -1 1 1 1000 190 2 20 20;
