#N canvas 485 114 1390 788 12;
#X obj 57 168 fm_synth;
#X obj 1343 50 loadbang;
#X msg 1343 73 \; pd dsp 1;
#X obj 15 13 r sub1;
#X obj 424 461 dac~;
#X connect 0 0 4 0;
#X connect 0 1 4 1;
#X connect 0 2 4 0;
#X connect 0 3 4 1;
#X connect 1 0 2 0;
#X connect 3 0 0 0;
#X coords 0 788 1 787 1150 200 0;
