#N canvas 530 123 1390 977 12;
#X declare -path ./commons;
#X text 340 22 This instrument is used to route incoming note messages from 4 different sources to 8 different instruments.;
#X obj 130 873 outlet;
#N canvas 363 527 1390 805 handle_presets 0;
#X obj 126 1057 tabwrite presets_\$0;
#X msg 435 560 \$1 1;
#X msg 435 537 \$1 0;
#X msg 435 583 \$1 2;
#X msg 435 606 \$1 3;
#X msg 435 629 \$1 4;
#X msg 435 652 \$1 5;
#X msg 435 675 \$1 6;
#X msg 435 698 \$1 7;
#X msg 435 721 \$1 8;
#X msg 435 744 \$1 9;
#X msg 435 767 \$1 10;
#X msg 435 790 \$1 11;
#X msg 435 813 \$1 12;
#X msg 435 836 \$1 13;
#X msg 435 859 \$1 14;
#X msg 435 882 \$1 15;
#X msg 435 905 \$1 16;
#X msg 435 928 \$1 17;
#X msg 435 951 \$1 18;
#X msg 435 974 \$1 19;
#X msg 435 997 \$1 20;
#X msg 435 1020 \$1 21;
#X msg 435 1043 \$1 22;
#X msg 435 1066 \$1 23;
#X msg 435 1089 \$1 24;
#X msg 435 1112 \$1 25;
#X msg 435 1135 \$1 26;
#X msg 435 1158 \$1 27;
#X msg 435 1181 \$1 28;
#X msg 435 1204 \$1 29;
#X msg 435 1227 \$1 30;
#X msg 435 1250 \$1 31;
#X msg 435 1273 \$1 32;
#X msg 435 1296 \$1 33;
#X msg 435 1319 \$1 34;
#X msg 435 1342 \$1 35;
#X msg 435 1365 \$1 36;
#X obj 264 414 r save_\$0;
#X obj 737 555 r load_\$0;
#X obj 816 556 r ID_\$0;
#X obj 837 641 r control_\$0;
#X obj 112 1375 s control_out_\$0;
#X obj 206 975 list;
#X obj 206 996 unpack 0 0;
#X obj 470 533 r vol_\$0;
#X obj 471 557 r bpm_\$0;
#X obj 472 581 r merge_\$0;
#X obj 817 707 s preset_vol_\$0;
#X obj 817 731 s preset_bpm_\$0;
#X obj 818 755 s preset_merge_\$0;
#X obj 813 674 route 0 1 2, f 28;
#X obj 1024 708 route 100;
#X obj 744 419 table presets_\$0 8;
#X obj 881 556 r current_path;
#X obj 350 412 r ID_\$0;
#X obj 415 412 r current_path;
#X obj 330 451 save_preset presets_\$0 3;
#X obj 813 609 load_preset presets_\$0;
#X obj 1027 742 s ctrl_metro_onoff_\$0;
#X connect 1 0 43 0;
#X connect 2 0 43 0;
#X connect 3 0 43 0;
#X connect 4 0 43 0;
#X connect 5 0 43 0;
#X connect 6 0 43 0;
#X connect 7 0 43 0;
#X connect 8 0 43 0;
#X connect 9 0 43 0;
#X connect 10 0 43 0;
#X connect 11 0 43 0;
#X connect 12 0 43 0;
#X connect 13 0 43 0;
#X connect 14 0 43 0;
#X connect 15 0 43 0;
#X connect 16 0 43 0;
#X connect 17 0 43 0;
#X connect 18 0 43 0;
#X connect 19 0 43 0;
#X connect 20 0 43 0;
#X connect 21 0 43 0;
#X connect 22 0 43 0;
#X connect 23 0 43 0;
#X connect 24 0 43 0;
#X connect 25 0 43 0;
#X connect 26 0 43 0;
#X connect 27 0 43 0;
#X connect 28 0 43 0;
#X connect 29 0 43 0;
#X connect 30 0 43 0;
#X connect 31 0 43 0;
#X connect 32 0 43 0;
#X connect 33 0 43 0;
#X connect 34 0 43 0;
#X connect 35 0 43 0;
#X connect 36 0 43 0;
#X connect 37 0 43 0;
#X connect 38 0 57 0;
#X connect 39 0 58 0;
#X connect 40 0 58 1;
#X connect 41 0 51 0;
#X connect 43 0 44 0;
#X connect 43 0 42 0;
#X connect 44 0 0 0;
#X connect 44 1 0 1;
#X connect 45 0 2 0;
#X connect 46 0 1 0;
#X connect 47 0 3 0;
#X connect 51 0 48 0;
#X connect 51 1 49 0;
#X connect 51 2 50 0;
#X connect 51 3 52 0;
#X connect 52 0 59 0;
#X connect 54 0 58 2;
#X connect 55 0 57 1;
#X connect 56 0 57 2;
#X connect 58 0 51 0;
#X restore 453 -91 pd handle_presets;
#X text 96 900 internal_out;
#X obj -135 -124 inlet;
#X obj 91 -35 s save_\$0;
#X obj 15 -34 s load_\$0;
#X obj -46 -34 s ID_\$0;
#X text -138 -149 internal_in;
#X obj 182 23 s control_\$0;
#X obj 182 -4 route name;
#X obj 219 -31 r osc_name_\$0;
#X obj 131 -63 s osc_name_\$0;
#X obj 249 749 r control_out_\$0;
#X obj 248 877 outlet;
#X obj 248 851 oscformat;
#X obj 249 773 list split 1;
#X obj 281 819 list trim;
#X obj 375 772 r osc_name_\$0;
#X obj 281 797 list prepend;
#X obj 375 817 list trim;
#X obj 375 795 list prepend set;
#X text 251 900 osc_out;
#X obj -134 -98 route bang_bpm rst instance_id load save osc_name osc;
#X msg -32 625 bang_bpm \$1;
#X msg 62 624 rst 0;
#X obj 151 186 tgl 20 0 empty empty stereo -10 -10 0 12 #fcfcfc #000000 #000000 0 1;
#X obj 228 122 vsl 20 100 0 127 0 0 empty empty vol 0 -9 1 12 #000000 #ffffff #000000 0 1;
#X obj 272 245 s vol_\$0;
#X obj 206 245 s bpm_\$0;
#X obj 124 245 s merge_\$0;
#X obj 142 590 r merge_\$0;
#X obj 321 589 r vol_\$0;
#X obj 270 85 r preset_vol_\$0;
#X obj 209 59 r preset_bpm_\$0;
#X obj 270 112 r preset_merge_\$0;
#X obj 42 58 r ctrl_metro_onoff_\$0;
#X obj 593 148 declare -path ./commons;
#X obj 111 106 metronome;
#X msg 320 617 global_volume \$1;
#X msg 144 617 global_stereo_merge \$1;
#X connect 4 0 23 0;
#X connect 10 0 9 0;
#X connect 11 0 10 1;
#X connect 13 0 16 0;
#X connect 15 0 14 0;
#X connect 16 0 15 0;
#X connect 16 1 19 0;
#X connect 17 0 15 0;
#X connect 18 0 21 0;
#X connect 19 0 17 0;
#X connect 20 0 19 1;
#X connect 21 0 20 0;
#X connect 23 2 7 0;
#X connect 23 3 6 0;
#X connect 23 4 5 0;
#X connect 23 5 12 0;
#X connect 23 6 10 0;
#X connect 24 0 1 0;
#X connect 25 0 1 0;
#X connect 26 0 30 0;
#X connect 27 0 28 0;
#X connect 31 0 40 0;
#X connect 32 0 39 0;
#X connect 33 0 27 0;
#X connect 34 0 38 1;
#X connect 35 0 26 0;
#X connect 36 0 38 0;
#X connect 38 0 24 0;
#X connect 38 1 25 0;
#X connect 38 2 29 0;
#X connect 39 0 1 0;
#X connect 40 0 1 0;
#X coords 0 -1 1 1 160 130 2 100 100;
