#N canvas 52 20 1854 977 12;
#X msg 753 389 disconnect;
#X obj 463 531 netsend -u -b;
#X text 795 331 Send;
#X obj 729 342 t b b;
#X obj 553 284 sel 0 1;
#X msg 565 392 disconnect;
#X msg 510 366 connect 192.168.1.33 4000;
#X obj 520 342 t b b;
#X msg 719 366 connect localhost 4000;
#X obj 155 532 oscparse;
#X msg 156 486 listen 3000;
#X obj 157 555 route list;
#X obj 156 509 netreceive -u -b 3000;
#X obj 157 581 fudiformat -u;
#X obj 155 606 fudiparse;
#X obj 158 454 loadbang;
#X obj 121 33 loadbang;
#X obj 463 191 r osc_out;
#X obj 214 835 s osc_in;
#X obj 117 135 tgl 20 0 empty empty localhost 0 -10 1 12 #fcfcfc #000000 #000000 0 1;
#X text 207 863 parsed received osc messages;
#X text 385 165 already formatted osc messages;
#X text 101 101 osc connect;
#X obj 463 559 print;
#X msg 122 57 1;
#X obj 155 836 outlet;
#X obj 305 44 inlet;
#X connect 0 0 1 0;
#X connect 1 0 23 0;
#X connect 3 0 8 0;
#X connect 3 1 0 0;
#X connect 4 0 7 0;
#X connect 4 1 3 0;
#X connect 5 0 1 0;
#X connect 6 0 1 0;
#X connect 7 0 6 0;
#X connect 7 1 5 0;
#X connect 8 0 1 0;
#X connect 9 0 11 0;
#X connect 10 0 12 0;
#X connect 11 0 13 0;
#X connect 12 0 9 0;
#X connect 13 0 14 0;
#X connect 14 0 18 0;
#X connect 14 0 25 0;
#X connect 15 0 10 0;
#X connect 16 0 24 0;
#X connect 17 0 1 0;
#X connect 19 0 4 0;
#X connect 24 0 19 0;
#X connect 26 0 1 0;
#X coords 0 -1 1 1 85 60 2 100 100;
