#N canvas 57 33 1813 715 12;
#X obj 642 693 outlet;
#X obj 363 4 bng 20 250 50 0 empty empty empty 0 -10 0 12 #fcfcfc #000000 #000000;
#X msg 364 93 instance_id \$1;
#X obj 477 118 list trim;
#X obj 477 93 list prepend osc_name symbol;
#X obj 471 246 list trim;
#X obj -128 122 list trim;
#X obj -128 97 list prepend osc;
#X obj 471 221 list prepend sub1;
#X obj -128 66 r osc_in;
#X obj 613 -53 inlet;
#X obj 613 56 list trim;
#X obj 613 31 list prepend notes;
#X text -170 198 main_msgs (bang...);
#X text -131 39 osc msgs;
#X text 598 -83 note in 1st;
#X obj 363 64 f \$2;
#X obj 477 64 symbol \$3;
#X obj 83 477 symbol \$1;
#X obj 81 599 list trim;
#X obj 97 -79 r init;
#X obj -131 226 r to_all;
#X msg 85 683 pd~ stop;
#X obj 85 658 r stop_subproc;
#X obj 122 58 symbol;
#X obj 121 112 list trim;
#X obj 140 5 r current_path;
#X obj 121 87 list prepend current_path symbol;
#X msg 189 514 set \$1;
#X obj 80 544 makefilename;
#X obj 261 400 r current_path;
#X obj 128 250 s commons_\$0;
#X obj 531 186 r commons_\$0;
#X text 100 420 Start subprocess!;
#X text 88 635 Stop subprocess!;
#X obj 235 427 file splitname;
#X obj 236 450 file splitname;
#X obj 235 475 makefilename %s/modules/%%s;
#X obj 83 451 r start_subproc;
#X obj 84 -40 t b b b;
#X msg 47 67 init 0;
#X obj 319 538 sel 0 1;
#X msg 319 563 pd~ start -nogui;
#X msg 343 590 pd~ start;
#X obj 319 513 r with_gui;
#X obj 81 573 list prepend pd~ start -nogui;
#X msg 765 102 instance_id \$1;
#X obj 878 127 list trim;
#X obj 878 102 list prepend osc_name symbol;
#X obj 872 255 list trim;
#X obj 1016 -53 inlet;
#X obj 1014 65 list trim;
#X obj 1014 40 list prepend notes;
#X obj 932 195 r commons_\$0;
#X obj 872 230 list prepend sub2;
#X obj 764 73 f \$4;
#X obj 878 73 symbol \$5;
#X text 1001 -83 note in 2nd;
#X obj 764 17 bng 20 250 50 0 empty empty empty 0 -10 0 12 #fcfcfc #000000 #000000;
#X connect 1 0 16 0;
#X connect 1 0 17 0;
#X connect 2 0 8 0;
#X connect 3 0 8 0;
#X connect 4 0 3 0;
#X connect 5 0 0 0;
#X connect 6 0 31 0;
#X connect 7 0 6 0;
#X connect 8 0 5 0;
#X connect 9 0 7 0;
#X connect 10 0 12 0;
#X connect 11 0 8 0;
#X connect 12 0 11 0;
#X connect 16 0 2 0;
#X connect 17 0 4 0;
#X connect 18 0 29 0;
#X connect 19 0 0 0;
#X connect 20 0 39 0;
#X connect 21 0 31 0;
#X connect 22 0 0 0;
#X connect 23 0 22 0;
#X connect 24 0 27 0;
#X connect 25 0 31 0;
#X connect 26 0 24 1;
#X connect 27 0 25 0;
#X connect 28 0 29 0;
#X connect 29 0 45 0;
#X connect 30 0 35 0;
#X connect 32 0 8 0;
#X connect 35 0 36 0;
#X connect 36 0 37 0;
#X connect 37 0 28 0;
#X connect 38 0 18 0;
#X connect 39 0 40 0;
#X connect 39 1 24 0;
#X connect 39 2 1 0;
#X connect 39 2 58 0;
#X connect 40 0 31 0;
#X connect 41 0 42 0;
#X connect 41 1 43 0;
#X connect 42 0 45 1;
#X connect 43 0 45 1;
#X connect 44 0 41 0;
#X connect 45 0 19 0;
#X connect 46 0 54 0;
#X connect 47 0 54 0;
#X connect 48 0 47 0;
#X connect 49 0 0 0;
#X connect 50 0 52 0;
#X connect 51 0 54 0;
#X connect 52 0 51 0;
#X connect 53 0 54 0;
#X connect 54 0 49 0;
#X connect 55 0 46 0;
#X connect 56 0 48 0;
#X connect 58 0 55 0;
#X connect 58 0 56 0;
#X coords 0 715 1 714 135 25 0;
