#N canvas 660 448 1068 456 12;
#X obj 188 67 inlet~;
#X obj 244 66 inlet~;
#X obj 306 66 inlet~;
#X obj 366 63 inlet~;
#X obj 298 405 dac~ 1 2 3 4;
#X obj 187 313 *~;
#X obj 243 313 *~;
#X obj 306 314 *~;
#X obj 366 313 *~;
#X obj 531 186 / 127;
#X obj 531 211 pack 0 10;
#X obj 531 236 line~;
#X obj 436 182 *~;
#X obj 472 182 *~;
#X obj 532 88 r to_all;
#X obj 532 112 route global_volume global_stereo_merge;
#X connect 0 0 5 0;
#X connect 1 0 6 0;
#X connect 2 0 7 0;
#X connect 2 0 12 0;
#X connect 3 0 8 0;
#X connect 3 0 13 0;
#X connect 5 0 4 0;
#X connect 6 0 4 1;
#X connect 7 0 4 2;
#X connect 8 0 4 3;
#X connect 9 0 10 0;
#X connect 10 0 11 0;
#X connect 11 0 8 1;
#X connect 11 0 7 1;
#X connect 11 0 6 1;
#X connect 11 0 5 1;
#X connect 12 0 5 0;
#X connect 13 0 6 0;
#X connect 14 0 15 0;
#X connect 15 0 9 0;
#X connect 15 1 13 1;
#X connect 15 1 12 1;
