#N canvas 660 448 1068 456 12;
#X obj 244 482 dac~ 1 2 3 4;
#X obj 187 313 *~;
#X obj 243 313 *~;
#X obj 306 314 *~;
#X obj 366 313 *~;
#X obj 531 211 pack 0 10;
#X obj 531 236 line~;
#X obj 265 198 *~;
#X obj 301 198 *~;
#X obj 532 88 r to_all;
#X obj 532 112 route global_volume global_stereo_merge;
#X obj 531 186 pow 2;
#X obj 188 67 inlet~;
#X obj 244 66 inlet~;
#X obj 306 66 inlet~;
#X obj 366 63 inlet~;
#X obj 254 365 vumeter, f 12;
#X obj 533 395 oscformat;
#X obj 534 317 list split 1;
#X obj 566 363 list trim;
#X obj 533 421 s osc_out;
#X obj 348 198 *~;
#X obj 384 198 *~;
#X obj 404 149 == 0;
#X obj 567 340 list prepend set song;
#X connect 1 0 16 0;
#X connect 2 0 16 1;
#X connect 3 0 16 2;
#X connect 4 0 16 3;
#X connect 5 0 6 0;
#X connect 6 0 4 1;
#X connect 6 0 3 1;
#X connect 6 0 2 1;
#X connect 6 0 1 1;
#X connect 7 0 1 0;
#X connect 8 0 2 0;
#X connect 9 0 10 0;
#X connect 10 0 11 0;
#X connect 10 1 8 1;
#X connect 10 1 7 1;
#X connect 10 1 23 0;
#X connect 11 0 5 0;
#X connect 12 0 1 0;
#X connect 13 0 2 0;
#X connect 14 0 7 0;
#X connect 14 0 21 0;
#X connect 15 0 8 0;
#X connect 15 0 22 0;
#X connect 16 0 0 0;
#X connect 16 1 0 1;
#X connect 16 2 0 2;
#X connect 16 3 0 3;
#X connect 16 4 18 0;
#X connect 17 0 20 0;
#X connect 18 0 17 0;
#X connect 18 1 24 0;
#X connect 19 0 17 0;
#X connect 21 0 3 0;
#X connect 22 0 4 0;
#X connect 23 0 22 1;
#X connect 23 0 21 1;
#X connect 24 0 19 0;
