#N canvas 530 189 1390 977 12;
#X msg 1111 312 0;
#X msg 1190 326 1;
#X obj 1125 399 i;
#X obj 1038 504 textfile;
#X msg 1052 390 clear;
#X obj 981 394 i;
#X obj 1262 322 table last_saved_preset_\$0 2;
#X obj 1097 214 t b b b;
#X obj 1125 430 + 1;
#X obj 1165 430 s new_preset_n_\$0;
#X obj 107 134 bng 20 250 50 0 empty empty save 1 10 1 8 #000000 #7c7c7c #ffffff;
#X obj 511 116 r new_preset_n_\$0;
#X obj 105 106 bng 20 250 50 0 empty empty load 2 10 1 8 #000000 #7c7c7c #ffffff;
#X obj 611 80 i;
#X obj 589 80 i;
#X obj 636 80 - 1;
#X obj 664 78 + 1;
#X obj 183 108 bng 16 250 50 0 empty empty + 5 8 0 10 #000000 #7c7c7c #ffffff;
#X obj 164 108 bng 16 250 50 0 empty empty - 5 8 0 10 #000000 #7c7c7c #ffffff;
#X obj 502 80 min 60;
#X obj 131 109 nbx 2 16 1 1e+37 0 0 empty empty empty 0 -9 0 10 #000000 #ffffff #9f9f9f 0 256;
#X obj 149 137 nbx 2 16 -1e+37 1e+37 0 0 empty empty as -16 8 1 10 #000000 #ffffff #9f9f9f 0 256;
#X obj 684 619 list prepend;
#X obj 709 530 t f b;
#X obj 853 562 t f b;
#X obj 1167 400 s last_saved_preset_\$0;
#X obj 532 37 r last_saved_preset_\$0;
#X obj 1095 165 bng 20 250 50 0 empty empty empty 0 -10 0 12 #fcfcfc #000000 #000000;
#X obj 1126 368 array get last_saved_preset_\$0;
#X obj 1263 228 f \$0;
#X obj 752 471 i;
#X obj 765 662 list trim;
#X obj 890 633 bng 20 250 50 0 empty empty empty 0 -10 0 12 #fcfcfc #000000 #000000;
#X obj 896 660 delay 1000;
#X msg 1019 435 add \$1;
#X obj 980 335 t b b b;
#X obj 121 -296 loadbang;
#X obj 1225 191 bng 20 250 50 0 empty empty empty 0 -10 0 12 #fcfcfc #000000 #000000;
#X obj 548 80 max 1;
#X obj 175 -259 r ctrl_preset-_\$0;
#X obj 198 -233 r ctrl_preset+_\$0;
#X obj 512 -46 r ctrl_save_preset_go_\$0;
#X obj 504 -75 r ctrl_load_preset_go_\$0;
#X obj 405 370 s feedbk_load_preset_n_\$0;
#X obj 421 399 s feedbk_save_preset_n_\$0;
#X obj 1015 86 r reload_savings_\$0;
#X obj 341 165 r feedbk_current_song_\$0;
#X obj 111 198 nbx 2 16 -1e+37 1e+37 0 0 empty empty current -2 -7 1 10 #000000 #ffffff #9f9f9f 0 256;
#X obj 106 158 bng 20 250 50 0 empty empty save\ current 24 10 1 8 #000000 #7c7c7c #7c7c7c;
#X obj 509 3 r ctrl_save_current_go_\$0;
#X obj 766 515 i;
#X text 1004 596 send out loadsave number;
#X text 839 481 current_preset;
#X obj 1291 670 list prepend;
#X obj 1293 652 list trim;
#X obj 1291 691 list trim;
#X obj 1291 718 print;
#X msg 1432 626 write;
#X msg 121 -271 1;
#X obj 803 -303 s control_out_\$0;
#X obj 322 -355 s ctrl_load_preset_go_\$0;
#X obj 350 -327 s ctrl_save_preset_go_\$0;
#X obj 384 -298 s ctrl_preset-_\$0;
#X obj 414 -270 s ctrl_preset+_\$0;
#X obj 780 -459 r feedbk_load_preset_n_\$0;
#X obj 828 -425 r feedbk_save_preset_n_\$0;
#X obj 505 -217 s ctrl_connection_\$0;
#X obj 889 -386 r feedbk_current_song_\$0;
#X obj 537 -188 s ctrl_current_go_\$0;
#X text 782 -158 This object loads and saves presets. It also keeps track of the last preset saved (to avoid overwritings);
#X obj 501 528 s feedbk_current_song_\$0;
#X obj 69 -414 s ID_\$0;
#X obj 622 793 r control_out_\$0;
#X obj 622 817 list split 1;
#X obj 654 863 list trim;
#X text 624 944 osc_out;
#X obj 1503 423 soundfiler;
#X obj 1502 328 list append;
#X obj 1501 199 t a a;
#X obj 1503 372 list prepend;
#X obj 1502 351 list trim;
#X obj 1518 397 list trim;
#X obj 1603 346 loadbang;
#X msg 1598 372 read -ascii -resize;
#X msg 1581 193 set \$1;
#X obj 1582 169 makefilename %s%%s;
#X obj 1502 284 makefilename;
#X msg 1611 287 last_saved_preset_\$1;
#X msg 1501 230 symbol /presets/last_saved_preset.txt;
#X obj 1296 625 list append;
#X msg 1377 526 set \$1;
#X obj 1378 502 makefilename %s%%s;
#X obj 1297 595 makefilename;
#X msg 1297 563 symbol /presets/last_saved_preset.txt;
#X msg 1406 598 cr;
#X obj 1297 532 t b b;
#X msg 882 597 save;
#X msg 731 578 load;
#X obj 1421 72 delay 10;
#X obj 1439 35 bng 20 250 50 0 empty empty empty 0 -10 0 12 #fcfcfc #000000 #000000;
#X msg 789 442 0;
#X obj 757 406 t b b;
#X obj 153 -432 s current_path_\$0;
#X obj 1390 469 r current_path_\$0;
#X obj 1529 9 r current_path_\$0;
#X obj 409 -431 s load_init_\$0;
#X msg 892 -353 \$1 202;
#X msg 824 -384 \$1 201;
#X msg 758 -423 \$1 200;
#X obj 1019 -45 r init;
#X obj 1019 -19 t b b;
#X obj 839 919 s to_all;
#X obj 621 921 s osc_out;
#X obj 296 -464 r osc_in;
#X obj 296 -431 route presets;
#X obj 409 -464 r init;
#X obj 69 -465 loadbang;
#X obj 153 -465 r current_path;
#X msg 69 -440 100;
#X obj 654 841 list prepend set presets;
#X obj 621 895 oscformat;
#X obj 562 -282 s init;
#X msg 562 -308 0;
#X obj 613 -281 s auto_start;
#X obj 599 -310 bng 20 250 50 0 empty empty empty 0 -10 0 12 #fcfcfc #000000 #000000;
#X obj 323 -392 route 100 101 102 103 106 107 108 111 112 113;
#X msg 1007 31 -1;
#X connect 0 0 28 0;
#X connect 1 0 28 1;
#X connect 2 0 8 0;
#X connect 2 0 25 0;
#X connect 4 0 3 0;
#X connect 5 0 34 0;
#X connect 5 0 24 0;
#X connect 7 0 0 0;
#X connect 7 1 1 0;
#X connect 7 2 37 0;
#X connect 8 0 5 1;
#X connect 8 0 9 0;
#X connect 10 0 35 0;
#X connect 11 0 21 0;
#X connect 12 0 30 0;
#X connect 13 0 16 0;
#X connect 14 0 15 0;
#X connect 15 0 38 0;
#X connect 16 0 19 0;
#X connect 17 0 13 0;
#X connect 18 0 14 0;
#X connect 19 0 20 0;
#X connect 20 0 14 1;
#X connect 20 0 13 1;
#X connect 20 0 30 1;
#X connect 20 0 43 0;
#X connect 21 0 44 0;
#X connect 22 0 31 0;
#X connect 23 0 22 0;
#X connect 23 1 97 0;
#X connect 24 0 96 0;
#X connect 24 0 22 0;
#X connect 26 0 19 1;
#X connect 27 0 7 0;
#X connect 28 0 2 0;
#X connect 29 0 78 0;
#X connect 30 0 23 0;
#X connect 30 0 50 1;
#X connect 30 0 70 0;
#X connect 31 0 32 0;
#X connect 31 0 111 0;
#X connect 32 0 33 0;
#X connect 33 0 27 0;
#X connect 34 0 3 0;
#X connect 35 0 95 0;
#X connect 35 1 5 0;
#X connect 35 2 4 0;
#X connect 36 0 58 0;
#X connect 37 0 29 0;
#X connect 38 0 20 0;
#X connect 39 0 18 0;
#X connect 40 0 17 0;
#X connect 41 0 10 0;
#X connect 42 0 12 0;
#X connect 45 0 27 0;
#X connect 46 0 47 0;
#X connect 48 0 50 0;
#X connect 49 0 48 0;
#X connect 50 0 24 0;
#X connect 53 0 55 0;
#X connect 54 0 53 0;
#X connect 55 0 56 0;
#X connect 55 0 3 0;
#X connect 57 0 53 1;
#X connect 58 0 20 0;
#X connect 64 0 108 0;
#X connect 65 0 107 0;
#X connect 67 0 106 0;
#X connect 72 0 73 0;
#X connect 73 0 120 0;
#X connect 73 1 119 0;
#X connect 74 0 120 0;
#X connect 77 0 80 0;
#X connect 78 0 88 0;
#X connect 78 1 87 0;
#X connect 79 0 81 0;
#X connect 80 0 79 0;
#X connect 81 0 76 0;
#X connect 82 0 83 0;
#X connect 83 0 79 1;
#X connect 84 0 86 0;
#X connect 85 0 84 0;
#X connect 86 0 77 0;
#X connect 87 0 77 1;
#X connect 88 0 86 0;
#X connect 89 0 54 0;
#X connect 90 0 92 0;
#X connect 91 0 90 0;
#X connect 92 0 89 0;
#X connect 93 0 92 0;
#X connect 94 0 89 1;
#X connect 94 0 57 0;
#X connect 95 0 93 0;
#X connect 95 1 94 0;
#X connect 96 0 22 1;
#X connect 97 0 22 1;
#X connect 98 0 27 0;
#X connect 99 0 98 0;
#X connect 100 0 30 1;
#X connect 101 0 30 0;
#X connect 101 1 100 0;
#X connect 103 0 91 0;
#X connect 104 0 85 0;
#X connect 104 0 99 0;
#X connect 106 0 59 0;
#X connect 107 0 59 0;
#X connect 108 0 59 0;
#X connect 109 0 110 0;
#X connect 110 0 126 0;
#X connect 110 1 27 0;
#X connect 113 0 114 0;
#X connect 114 0 125 0;
#X connect 115 0 105 0;
#X connect 116 0 118 0;
#X connect 117 0 102 0;
#X connect 118 0 71 0;
#X connect 119 0 74 0;
#X connect 120 0 112 0;
#X connect 122 0 121 0;
#X connect 124 0 123 0;
#X connect 125 0 60 0;
#X connect 125 1 61 0;
#X connect 125 2 62 0;
#X connect 125 3 63 0;
#X connect 125 6 66 0;
#X connect 125 7 68 0;
#X connect 125 8 122 0;
#X connect 125 9 124 0;
#X connect 126 0 70 0;
#X coords 0 -1 1 1 110 120 2 100 100;
