#N canvas 530 107 1390 977 12;
#X declare -path ./commons;
#X obj 150 124 vradio 20 1 0 5 empty empty empty 0 -10 0 12 #fcfcfc #000000 #000000 0;
#X obj 176 124 vradio 20 1 0 5 empty empty empty 0 -10 0 12 #fcfcfc #000000 #000000 0;
#X obj 20 -138 s routing_\$0;
#X obj 202 124 vradio 20 1 0 5 empty empty empty 0 -10 0 12 #fcfcfc #000000 #000000 0;
#X obj 228 124 vradio 20 1 0 5 empty empty empty 0 -10 0 12 #fcfcfc #000000 #000000 0;
#X obj -259 433 route 0;
#X obj -130 434 route 0;
#X obj 7 432 route 0;
#X obj 154 434 route 0;
#X obj -265 220 r routing_\$0;
#X obj 294 436 route 0;
#X obj 441 435 route 0;
#X obj 582 441 route 0;
#X obj 716 440 route 0;
#X obj 254 124 vradio 20 1 0 5 empty empty empty 0 -10 0 12 #fcfcfc #000000 #000000 0;
#X obj 280 124 vradio 20 1 0 5 empty empty empty 0 -10 0 12 #fcfcfc #000000 #000000 0;
#X obj 306 124 vradio 20 1 0 5 empty empty empty 0 -10 0 12 #fcfcfc #000000 #000000 0;
#X obj 332 124 vradio 20 1 0 5 empty empty empty 0 -10 0 12 #fcfcfc #000000 #000000 0;
#X text 104 145 src 1;
#X text 154 103 1;
#X text 180 103 2;
#X text 206 103 3;
#X text 232 103 4;
#X text 258 103 5;
#X text 284 103 6;
#X text 310 103 7;
#X text 336 103 8;
#X text 104 164 src 2;
#X text 104 183 src 3;
#X text 104 203 src 4;
#X obj -72 7 loadbang;
#X msg -70 37 0;
#X text 362 -172 This instrument is used to route incoming note messages from 4 different sources to 8 different instruments.;
#X text 3 -189 receives from note_out;
#X obj -261 556 list trim;
#X obj -130 556 list trim;
#X obj 8 556 list trim;
#X obj 153 556 list trim;
#X obj -131 531 list prepend 2;
#X obj 7 531 list prepend 3;
#X obj 152 531 list prepend 4;
#X text 132 125 -;
#X text 101 103 instr->;
#X obj 15 -47 r preset_sel_1_\$0;
#X obj 63 -20 r preset_sel_2_\$0;
#X obj 130 3 r preset_sel_3_\$0;
#X obj 202 24 r preset_sel_4_\$0;
#X obj 257 -32 r preset_sel_5_\$0;
#X obj 302 -10 r preset_sel_6_\$0;
#X obj 352 11 r preset_sel_7_\$0;
#X obj 394 35 r preset_sel_8_\$0;
#X obj 130 873 outlet;
#N canvas 324 138 1390 970 handle_presets 1;
#X obj 126 1057 tabwrite presets_\$0;
#X msg 435 560 \$1 1;
#X msg 435 537 \$1 0;
#X msg 435 583 \$1 2;
#X msg 435 606 \$1 3;
#X msg 435 629 \$1 4;
#X msg 435 652 \$1 5;
#X msg 435 675 \$1 6;
#X msg 435 698 \$1 7;
#X msg 435 721 \$1 8;
#X msg 435 744 \$1 9;
#X msg 435 767 \$1 10;
#X msg 435 790 \$1 11;
#X msg 435 813 \$1 12;
#X msg 435 836 \$1 13;
#X msg 435 859 \$1 14;
#X msg 435 882 \$1 15;
#X msg 435 905 \$1 16;
#X msg 435 928 \$1 17;
#X msg 435 951 \$1 18;
#X msg 435 974 \$1 19;
#X msg 435 997 \$1 20;
#X msg 435 1020 \$1 21;
#X msg 435 1043 \$1 22;
#X msg 435 1066 \$1 23;
#X msg 435 1089 \$1 24;
#X msg 435 1112 \$1 25;
#X msg 435 1135 \$1 26;
#X msg 435 1158 \$1 27;
#X msg 435 1181 \$1 28;
#X msg 435 1204 \$1 29;
#X msg 435 1227 \$1 30;
#X msg 435 1250 \$1 31;
#X msg 435 1273 \$1 32;
#X msg 435 1296 \$1 33;
#X msg 435 1319 \$1 34;
#X msg 435 1342 \$1 35;
#X msg 435 1365 \$1 36;
#X obj 863 572 r control_\$0;
#X obj 112 1375 s control_out_\$0;
#X obj 206 975 list;
#X obj 206 996 unpack 0 0;
#X obj 473 721 r sel_8_\$0;
#X obj 473 698 r sel_7_\$0;
#X obj 472 675 r sel_6_\$0;
#X obj 471 652 r sel_5_\$0;
#X obj 471 628 r sel_4_\$0;
#X obj 471 604 r sel_3_\$0;
#X obj 470 580 r sel_2_\$0;
#X obj 473 558 r sel_1_\$0;
#X obj 809 721 s preset_sel_1_\$0;
#X obj 810 745 s preset_sel_2_\$0;
#X obj 811 769 s preset_sel_3_\$0;
#X obj 811 793 s preset_sel_4_\$0;
#X obj 811 817 s preset_sel_5_\$0;
#X obj 812 840 s preset_sel_6_\$0;
#X obj 813 863 s preset_sel_7_\$0;
#X obj 813 886 s preset_sel_8_\$0;
#X obj 335 392 r save_\$0;
#X obj 741 383 r load_\$0;
#X obj 820 384 r ID_\$0;
#X obj 885 384 r current_path;
#X obj 421 390 r ID_\$0;
#X obj 486 390 r current_path;
#X text 415 455 set n of presets;
#X obj 1099 409 table presets_\$0 10;
#X obj 813 674 route 0 1 2 3 4 5 6 7 8 9, f 28;
#X obj 817 437 load_preset presets_\$0;
#X obj 401 429 save_preset presets_\$0 9;
#X connect 1 0 40 0;
#X connect 2 0 40 0;
#X connect 3 0 40 0;
#X connect 4 0 40 0;
#X connect 5 0 40 0;
#X connect 6 0 40 0;
#X connect 7 0 40 0;
#X connect 8 0 40 0;
#X connect 9 0 40 0;
#X connect 10 0 40 0;
#X connect 11 0 40 0;
#X connect 12 0 40 0;
#X connect 13 0 40 0;
#X connect 14 0 40 0;
#X connect 15 0 40 0;
#X connect 16 0 40 0;
#X connect 17 0 40 0;
#X connect 18 0 40 0;
#X connect 19 0 40 0;
#X connect 20 0 40 0;
#X connect 21 0 40 0;
#X connect 22 0 40 0;
#X connect 23 0 40 0;
#X connect 24 0 40 0;
#X connect 25 0 40 0;
#X connect 26 0 40 0;
#X connect 27 0 40 0;
#X connect 28 0 40 0;
#X connect 29 0 40 0;
#X connect 30 0 40 0;
#X connect 31 0 40 0;
#X connect 32 0 40 0;
#X connect 33 0 40 0;
#X connect 34 0 40 0;
#X connect 35 0 40 0;
#X connect 36 0 40 0;
#X connect 37 0 40 0;
#X connect 38 0 66 0;
#X connect 40 0 41 0;
#X connect 40 0 39 0;
#X connect 41 0 0 0;
#X connect 41 1 0 1;
#X connect 42 0 9 0;
#X connect 43 0 8 0;
#X connect 44 0 7 0;
#X connect 45 0 6 0;
#X connect 46 0 5 0;
#X connect 47 0 4 0;
#X connect 48 0 3 0;
#X connect 49 0 1 0;
#X connect 58 0 68 0;
#X connect 59 0 67 0;
#X connect 60 0 67 1;
#X connect 61 0 67 2;
#X connect 62 0 68 1;
#X connect 63 0 68 2;
#X connect 66 1 50 0;
#X connect 66 2 51 0;
#X connect 66 3 52 0;
#X connect 66 4 53 0;
#X connect 66 5 54 0;
#X connect 66 6 55 0;
#X connect 66 7 56 0;
#X connect 66 8 57 0;
#X connect 67 0 66 0;
#X restore 475 -285 pd handle_presets;
#X obj 293 558 list trim;
#X obj 440 562 list trim;
#X obj 583 567 list trim;
#X obj 716 569 list trim;
#X obj 293 533 list prepend 5;
#X obj 441 538 list prepend 6;
#X obj 582 542 list prepend 7;
#X obj 716 544 list prepend 8;
#X text 96 900 internal_out;
#X obj -105 -314 inlet;
#X obj 121 -225 s save_\$0;
#X obj 45 -224 s load_\$0;
#X obj -15 -225 s ID_\$0;
#X text -108 -339 internal_in;
#X obj 212 -167 s control_\$0;
#X obj 212 -194 route name;
#X obj 249 -221 r osc_name_\$0;
#X obj 161 -253 s osc_name_\$0;
#X obj 249 749 r control_out_\$0;
#X obj 248 877 outlet;
#X obj 248 851 oscformat;
#X obj 249 773 list split 1;
#X obj 281 819 list trim;
#X obj 375 772 r osc_name_\$0;
#X obj 281 797 list prepend;
#X obj 375 817 list trim;
#X obj 375 795 list prepend set;
#X text 251 900 osc_out;
#X obj 219 668 s notes_from_router;
#X obj 20 -164 r notes_to_router;
#X obj -262 531 list prepend 1;
#X msg -262 500 all_notes_off;
#X msg -133 500 all_notes_off;
#X msg 12 500 all_notes_off;
#X msg 152 502 all_notes_off;
#X msg 298 505 all_notes_off;
#X msg 449 507 all_notes_off;
#X msg 580 510 all_notes_off;
#X msg 712 507 all_notes_off;
#X msg 96 -318 0;
#X text 91 -338 save as default;
#X obj -256 412 s sel_1_\$0;
#X obj -129 409 s sel_2_\$0;
#X obj 8 407 s sel_3_\$0;
#X obj 152 408 s sel_4_\$0;
#X obj 298 414 s sel_5_\$0;
#X obj 424 415 s sel_6_\$0;
#X obj 561 413 s sel_7_\$0;
#X obj 705 414 s sel_8_\$0;
#X obj -104 -288 route bang_bpm rst instance_id load save osc_name osc init;
#X obj 308 -255 s load_init_\$0;
#X text 130 848 dummy;
#X obj 607 -220 declare -path ./commons;
#X connect 0 0 5 1;
#X connect 0 0 84 0;
#X connect 0 0 94 0;
#X connect 1 0 6 1;
#X connect 1 0 85 0;
#X connect 1 0 95 0;
#X connect 3 0 7 1;
#X connect 3 0 86 0;
#X connect 3 0 96 0;
#X connect 4 0 8 1;
#X connect 4 0 87 0;
#X connect 4 0 97 0;
#X connect 5 0 83 0;
#X connect 6 0 38 0;
#X connect 7 0 39 0;
#X connect 8 0 40 0;
#X connect 9 0 5 0;
#X connect 9 0 6 0;
#X connect 9 0 7 0;
#X connect 9 0 8 0;
#X connect 9 0 10 0;
#X connect 9 0 11 0;
#X connect 9 0 12 0;
#X connect 9 0 13 0;
#X connect 10 0 57 0;
#X connect 11 0 58 0;
#X connect 12 0 59 0;
#X connect 13 0 60 0;
#X connect 14 0 10 1;
#X connect 14 0 88 0;
#X connect 14 0 98 0;
#X connect 15 0 11 1;
#X connect 15 0 89 0;
#X connect 15 0 99 0;
#X connect 16 0 12 1;
#X connect 16 0 90 0;
#X connect 16 0 100 0;
#X connect 17 0 13 1;
#X connect 17 0 91 0;
#X connect 17 0 101 0;
#X connect 30 0 31 0;
#X connect 31 0 17 0;
#X connect 31 0 16 0;
#X connect 31 0 15 0;
#X connect 31 0 14 0;
#X connect 31 0 4 0;
#X connect 31 0 3 0;
#X connect 31 0 1 0;
#X connect 31 0 0 0;
#X connect 34 0 81 0;
#X connect 35 0 81 0;
#X connect 36 0 81 0;
#X connect 37 0 81 0;
#X connect 38 0 35 0;
#X connect 39 0 36 0;
#X connect 40 0 37 0;
#X connect 43 0 0 0;
#X connect 44 0 1 0;
#X connect 45 0 3 0;
#X connect 46 0 4 0;
#X connect 47 0 14 0;
#X connect 48 0 15 0;
#X connect 49 0 16 0;
#X connect 50 0 17 0;
#X connect 53 0 81 0;
#X connect 54 0 81 0;
#X connect 55 0 81 0;
#X connect 56 0 81 0;
#X connect 57 0 53 0;
#X connect 58 0 54 0;
#X connect 59 0 55 0;
#X connect 60 0 56 0;
#X connect 62 0 102 0;
#X connect 68 0 67 0;
#X connect 69 0 68 1;
#X connect 71 0 74 0;
#X connect 73 0 72 0;
#X connect 74 0 73 0;
#X connect 74 1 77 0;
#X connect 75 0 73 0;
#X connect 76 0 79 0;
#X connect 77 0 75 0;
#X connect 78 0 77 1;
#X connect 79 0 78 0;
#X connect 82 0 2 0;
#X connect 83 0 34 0;
#X connect 84 0 83 0;
#X connect 85 0 38 0;
#X connect 86 0 39 0;
#X connect 87 0 40 0;
#X connect 88 0 57 0;
#X connect 89 0 58 0;
#X connect 90 0 59 0;
#X connect 91 0 60 0;
#X connect 92 0 63 0;
#X connect 102 2 65 0;
#X connect 102 3 64 0;
#X connect 102 4 63 0;
#X connect 102 5 70 0;
#X connect 102 6 68 0;
#X connect 102 7 103 0;
#X coords 0 -1 1 1 260 130 2 100 100;
