#N canvas 513 277 1390 715 12;
#X obj 642 693 outlet;
#X obj 429 -21 loadbang;
#X obj 307 11 bng 20 250 50 0 empty empty empty 0 -10 0 12 #fcfcfc #000000 #000000;
#X msg 364 93 instance_id \$1;
#X obj 477 118 list trim;
#X obj 477 93 list prepend osc_name symbol;
#X obj 471 246 list trim;
#X obj -128 122 list trim;
#X obj -128 97 list prepend osc;
#X obj 471 221 list prepend sub1;
#X obj -128 66 r osc_in;
#X obj 614 -20 inlet;
#X obj 613 56 list trim;
#X obj 613 31 list prepend notes;
#X text -170 198 main_msgs (bang...);
#X text -131 39 osc msgs;
#X text 599 -50 note in 1st;
#X obj 363 64 f \$2;
#X obj 477 64 symbol \$3;
#X obj 83 477 symbol \$1;
#X obj 81 599 list trim;
#X obj 290 -60 r init;
#X obj -131 226 r to_all;
#X msg 85 683 pd~ stop;
#X obj 85 658 r stop_subproc;
#X obj 81 572 list prepend pd~ start;
#X obj 122 58 symbol;
#X obj 121 112 list trim;
#X obj 115 17 r current_path;
#X obj 121 87 list prepend current_path symbol;
#X msg 189 514 set \$1;
#X obj 80 544 makefilename;
#X obj 261 400 r current_path;
#X obj 128 250 s commons_\$0;
#X obj 531 186 r commons_\$0;
#X text 100 420 Start subprocess!;
#X text 88 635 Stop subprocess!;
#X obj 235 427 file splitname;
#X obj 236 450 file splitname;
#X obj 235 475 makefilename %s/modules/%%s;
#X obj 83 451 r start_subproc;
#X connect 1 0 2 0;
#X connect 2 0 17 0;
#X connect 2 0 18 0;
#X connect 2 0 26 0;
#X connect 3 0 9 0;
#X connect 4 0 9 0;
#X connect 5 0 4 0;
#X connect 6 0 0 0;
#X connect 7 0 33 0;
#X connect 8 0 7 0;
#X connect 9 0 6 0;
#X connect 10 0 8 0;
#X connect 11 0 13 0;
#X connect 12 0 9 0;
#X connect 13 0 12 0;
#X connect 17 0 3 0;
#X connect 18 0 5 0;
#X connect 19 0 31 0;
#X connect 20 0 0 0;
#X connect 21 0 2 0;
#X connect 22 0 33 0;
#X connect 23 0 0 0;
#X connect 24 0 23 0;
#X connect 25 0 20 0;
#X connect 26 0 29 0;
#X connect 27 0 33 0;
#X connect 28 0 26 1;
#X connect 29 0 27 0;
#X connect 30 0 31 0;
#X connect 31 0 25 0;
#X connect 32 0 37 0;
#X connect 34 0 9 0;
#X connect 37 0 38 0;
#X connect 38 0 39 0;
#X connect 39 0 30 0;
#X connect 40 0 19 0;
#X coords 0 715 1 714 135 25 0;
