#N canvas 52 20 1854 1097 12;
#X obj 642 1075 outlet;
#X obj 307 393 bng 20 250 50 0 empty empty empty 0 -10 0 12 #fcfcfc #000000 #000000;
#X msg 364 475 instance_id \$1;
#X obj 477 500 list trim;
#X obj 477 475 list prepend osc_name symbol;
#X obj 471 628 list trim;
#X obj -128 504 list trim;
#X obj -128 479 list prepend osc;
#X obj 471 603 list prepend sub1;
#X obj -128 448 r osc_in;
#X obj 668 203 inlet;
#X obj 667 279 list trim;
#X obj 667 254 list prepend notes;
#X obj 893 408 bng 20 250 50 0 empty empty empty 0 -10 0 12 #fcfcfc #000000 #000000;
#X msg 841 495 instance_id \$1;
#X obj 980 498 list trim;
#X obj 980 473 list prepend osc_name symbol;
#X obj 985 655 list trim;
#X obj 1127 206 inlet;
#X obj 1128 270 list trim;
#X obj 1128 245 list prepend notes;
#X obj 985 630 list prepend sub2;
#X text -170 580 main_msgs (bang...);
#X text -131 421 osc msgs;
#X text 653 173 note in 1st;
#X obj 363 446 f \$2;
#X obj 477 446 symbol \$3;
#X obj 841 469 f \$4;
#X obj 980 444 symbol \$5;
#X obj 83 859 symbol \$1;
#X obj 81 981 list trim;
#X obj 83 833 r init;
#X obj 213 292 r init;
#X obj -131 608 r to_all;
#X msg 85 1065 pd~ stop;
#X obj 85 1040 r stop_subproc;
#X obj 81 954 list prepend pd~ start;
#X text 1122 172 note in 2nd;
#X obj 122 440 symbol;
#X obj 121 494 list trim;
#X obj 180 440 r current_path;
#X obj 121 469 list prepend current_path symbol;
#X msg 189 896 set \$1;
#X obj 80 926 makefilename;
#X obj 261 782 r current_path;
#X obj 128 632 s commons_\$0;
#X obj 531 568 r commons_\$0;
#X obj 1031 592 r commons_\$0;
#X text 100 802 Start subprocess!;
#X text 88 1017 Stop subprocess!;
#X obj 235 809 file splitname;
#X obj 236 832 file splitname;
#X obj 235 857 makefilename %s/modules/%%s;
#X obj 220 325 t b b b;
#X msg 24 479 init 0;
#X obj 1317 404 bng 20 250 50 0 empty empty empty 0 -10 0 12 #fcfcfc #000000 #000000;
#X msg 1265 491 instance_id \$1;
#X obj 1404 494 list trim;
#X obj 1404 469 list prepend osc_name symbol;
#X obj 1409 651 list trim;
#X obj 1551 202 inlet;
#X obj 1552 266 list trim;
#X obj 1552 241 list prepend notes;
#X obj 1455 588 r commons_\$0;
#X text 1546 168 note in 3rd;
#X obj 1265 465 f \$6;
#X obj 1404 440 symbol \$7;
#X obj 1409 626 list prepend sub3;
#X obj 1774 398 bng 20 250 50 0 empty empty empty 0 -10 0 12 #fcfcfc #000000 #000000;
#X msg 1722 485 instance_id \$1;
#X obj 1861 488 list trim;
#X obj 1861 463 list prepend osc_name symbol;
#X obj 1866 645 list trim;
#X obj 1983 206 inlet;
#X obj 1984 270 list trim;
#X obj 1984 245 list prepend notes;
#X obj 1912 582 r commons_\$0;
#X obj 1866 620 list prepend sub3;
#X text 1978 172 note in 4th;
#X obj 1722 459 f \$8;
#X obj 1861 434 symbol \$9;
#X connect 1 0 25 0;
#X connect 1 0 26 0;
#X connect 2 0 8 0;
#X connect 3 0 8 0;
#X connect 4 0 3 0;
#X connect 5 0 0 0;
#X connect 6 0 45 0;
#X connect 7 0 6 0;
#X connect 8 0 5 0;
#X connect 9 0 7 0;
#X connect 10 0 12 0;
#X connect 11 0 8 0;
#X connect 12 0 11 0;
#X connect 13 0 27 0;
#X connect 13 0 28 0;
#X connect 14 0 21 0;
#X connect 15 0 21 0;
#X connect 16 0 15 0;
#X connect 17 0 0 0;
#X connect 18 0 20 0;
#X connect 19 0 21 0;
#X connect 20 0 19 0;
#X connect 21 0 17 0;
#X connect 25 0 2 0;
#X connect 26 0 4 0;
#X connect 27 0 14 0;
#X connect 28 0 16 0;
#X connect 29 0 43 0;
#X connect 30 0 0 0;
#X connect 31 0 29 0;
#X connect 32 0 53 0;
#X connect 33 0 45 0;
#X connect 34 0 0 0;
#X connect 35 0 34 0;
#X connect 36 0 30 0;
#X connect 38 0 41 0;
#X connect 39 0 45 0;
#X connect 40 0 38 1;
#X connect 41 0 39 0;
#X connect 42 0 43 0;
#X connect 43 0 36 0;
#X connect 44 0 50 0;
#X connect 46 0 8 0;
#X connect 47 0 21 0;
#X connect 50 0 51 0;
#X connect 51 0 52 0;
#X connect 52 0 42 0;
#X connect 53 0 54 0;
#X connect 53 1 38 0;
#X connect 53 2 13 0;
#X connect 53 2 1 0;
#X connect 53 2 55 0;
#X connect 53 2 68 0;
#X connect 54 0 45 0;
#X connect 55 0 65 0;
#X connect 55 0 66 0;
#X connect 56 0 67 0;
#X connect 57 0 67 0;
#X connect 58 0 57 0;
#X connect 59 0 0 0;
#X connect 60 0 62 0;
#X connect 61 0 67 0;
#X connect 62 0 61 0;
#X connect 63 0 67 0;
#X connect 65 0 56 0;
#X connect 66 0 58 0;
#X connect 67 0 59 0;
#X connect 68 0 79 0;
#X connect 68 0 80 0;
#X connect 69 0 77 0;
#X connect 70 0 77 0;
#X connect 71 0 70 0;
#X connect 72 0 0 0;
#X connect 73 0 75 0;
#X connect 74 0 77 0;
#X connect 75 0 74 0;
#X connect 76 0 77 0;
#X connect 77 0 72 0;
#X connect 79 0 69 0;
#X connect 80 0 71 0;
#X coords 0 1097 1 1096 135 25 0;
