#N canvas 1021 208 1390 977 12;
#X declare -path ./commons;
#N canvas 279 82 1390 805 handle_presets 1;
#X obj 126 1057 tabwrite presets_\$0;
#X msg 435 560 \$1 1;
#X msg 435 537 \$1 0;
#X msg 435 583 \$1 2;
#X msg 435 606 \$1 3;
#X msg 435 629 \$1 4;
#X msg 435 652 \$1 5;
#X msg 435 675 \$1 6;
#X msg 435 698 \$1 7;
#X msg 435 721 \$1 8;
#X msg 435 744 \$1 9;
#X msg 435 767 \$1 10;
#X msg 435 790 \$1 11;
#X msg 435 813 \$1 12;
#X msg 435 836 \$1 13;
#X msg 435 859 \$1 14;
#X msg 435 882 \$1 15;
#X msg 435 905 \$1 16;
#X msg 435 928 \$1 17;
#X msg 435 951 \$1 18;
#X msg 435 974 \$1 19;
#X msg 435 997 \$1 20;
#X msg 435 1020 \$1 21;
#X msg 435 1043 \$1 22;
#X msg 435 1066 \$1 23;
#X msg 435 1089 \$1 24;
#X msg 435 1112 \$1 25;
#X msg 435 1135 \$1 26;
#X msg 435 1158 \$1 27;
#X msg 435 1181 \$1 28;
#X msg 435 1204 \$1 29;
#X msg 435 1227 \$1 30;
#X msg 435 1250 \$1 31;
#X msg 435 1273 \$1 32;
#X msg 435 1296 \$1 33;
#X msg 435 1319 \$1 34;
#X msg 435 1342 \$1 35;
#X msg 435 1365 \$1 36;
#X obj 264 414 r save_\$0;
#X obj 737 555 r load_\$0;
#X obj 816 556 r ID_\$0;
#X obj 861 644 r control_\$0;
#X obj 112 1375 s control_out_\$0;
#X obj 206 975 list;
#X obj 206 996 unpack 0 0;
#X obj 515 556 r bpm_\$0;
#X obj 472 581 r merge_\$0;
#X obj 978 910 s preset_vol_\$0;
#X obj 855 731 s preset_bpm_\$0;
#X obj 818 755 s preset_merge_\$0;
#X obj 1024 708 route 100;
#X obj 881 556 r current_path;
#X obj 350 412 r ID_\$0;
#X obj 415 412 r current_path;
#X obj 813 609 load_preset presets_\$0;
#X obj 1027 742 s ctrl_metro_onoff_\$0;
#X obj 480 557 i;
#X obj 821 733 i;
#X msg 227 296 0;
#X obj 482 1465 r vol_\$0;
#X msg 436 1393 \$1 37;
#X msg 436 1416 \$1 38;
#X msg 436 1439 \$1 39;
#X msg 436 1462 \$1 40;
#X obj 818 675 route 0 1 2 40, f 28;
#X obj 330 451 save_preset presets_\$0 41;
#X obj 744 419 table presets_\$0 41;
#X obj 1040 344 r load_init_\$0;
#X msg 1061 308 0;
#X obj 222 345 save_init presets_\$0 main_presets_handler_abs 41;
#X obj 1046 414 load_init presets_\$0 main_presets_handler_abs;
#X connect 1 0 43 0;
#X connect 2 0 43 0;
#X connect 3 0 43 0;
#X connect 4 0 43 0;
#X connect 5 0 43 0;
#X connect 6 0 43 0;
#X connect 7 0 43 0;
#X connect 8 0 43 0;
#X connect 9 0 43 0;
#X connect 10 0 43 0;
#X connect 11 0 43 0;
#X connect 12 0 43 0;
#X connect 13 0 43 0;
#X connect 14 0 43 0;
#X connect 15 0 43 0;
#X connect 16 0 43 0;
#X connect 17 0 43 0;
#X connect 18 0 43 0;
#X connect 19 0 43 0;
#X connect 20 0 43 0;
#X connect 21 0 43 0;
#X connect 22 0 43 0;
#X connect 23 0 43 0;
#X connect 24 0 43 0;
#X connect 25 0 43 0;
#X connect 26 0 43 0;
#X connect 27 0 43 0;
#X connect 28 0 43 0;
#X connect 29 0 43 0;
#X connect 30 0 43 0;
#X connect 31 0 43 0;
#X connect 32 0 43 0;
#X connect 33 0 43 0;
#X connect 34 0 43 0;
#X connect 35 0 43 0;
#X connect 36 0 43 0;
#X connect 37 0 43 0;
#X connect 38 0 65 0;
#X connect 39 0 54 0;
#X connect 40 0 54 1;
#X connect 41 0 64 0;
#X connect 43 0 44 0;
#X connect 43 0 42 0;
#X connect 44 0 0 0;
#X connect 44 1 0 1;
#X connect 45 0 56 0;
#X connect 46 0 3 0;
#X connect 50 0 55 0;
#X connect 51 0 54 2;
#X connect 52 0 65 1;
#X connect 53 0 65 2;
#X connect 54 0 64 0;
#X connect 56 0 1 0;
#X connect 57 0 48 0;
#X connect 58 0 69 0;
#X connect 59 0 63 0;
#X connect 63 0 43 0;
#X connect 64 1 57 0;
#X connect 64 2 49 0;
#X connect 64 3 47 0;
#X connect 64 4 50 0;
#X connect 67 0 70 0;
#X connect 68 0 70 0;
#X connect 70 0 64 0;
#X restore 453 -91 pd handle_presets;
#X obj 86 -33 s save_\$0;
#X obj 40 15 s load_\$0;
#X obj -65 -41 s ID_\$0;
#X obj 290 -40 s control_\$0;
#X obj 307 534 r control_out_\$0;
#X obj 252 697 oscformat;
#X obj 253 619 list split 1;
#X obj 285 665 list trim;
#X msg -32 625 bang_bpm \$1;
#X msg 62 624 rst 0;
#X obj 151 186 tgl 20 0 empty empty stereo -10 -10 0 12 #fcfcfc #000000 #000000 0 1;
#X obj 228 122 vsl 20 100 0 1 0 0 empty empty vol 0 -9 1 12 #000000 #ffffff #000000 0 1;
#X obj 272 245 s vol_\$0;
#X obj 206 245 s bpm_\$0;
#X obj 124 245 s merge_\$0;
#X obj 838 360 r merge_\$0;
#X obj 940 359 r vol_\$0;
#X obj 270 85 r preset_vol_\$0;
#X obj 209 59 r preset_bpm_\$0;
#X obj 270 112 r preset_merge_\$0;
#X obj 42 58 r ctrl_metro_onoff_\$0;
#X obj 593 148 declare -path ./commons;
#X obj 111 106 metronome;
#X obj 340 153 r init;
#X msg 340 205 0;
#X msg 340 179 0.8;
#X obj 654 721 dac~ 1 2 3 4;
#X obj 597 552 *~;
#X obj 653 552 *~;
#X obj 716 553 *~;
#X obj 776 552 *~;
#X obj 941 450 pack 0 10;
#X obj 941 475 line~;
#X obj 675 437 *~;
#X obj 711 437 *~;
#X obj 941 425 pow 2;
#X obj 664 604 vumeter, f 12;
#X obj 758 437 *~;
#X obj 794 437 *~;
#X obj 814 388 == 0;
#X obj 597 238 catch~ main_out_1;
#X obj 653 266 catch~ main_out_2;
#X obj 699 295 catch~ main_out_3;
#X obj 750 326 catch~ main_out_4;
#X obj 23 722 s to_all;
#X obj 252 723 s osc_out;
#X obj 287 -94 r osc_in;
#X obj -65 -95 loadbang;
#X msg -65 -70 101;
#X obj 12 -94 r to_all;
#X obj 290 -67 route song;
#X obj 285 643 list prepend set song;
#X obj 146 -1 s vumeter_\$0;
#X obj 769 604 r vumeter_\$0;
#X obj 14 -64 route load save vumeter init;
#X obj 191 -33 s init_\$0;
#X connect 5 0 7 0;
#X connect 6 0 46 0;
#X connect 7 0 6 0;
#X connect 7 1 52 0;
#X connect 8 0 6 0;
#X connect 9 0 45 0;
#X connect 10 0 45 0;
#X connect 11 0 15 0;
#X connect 12 0 13 0;
#X connect 16 0 40 0;
#X connect 17 0 36 0;
#X connect 18 0 12 0;
#X connect 19 0 23 1;
#X connect 20 0 11 0;
#X connect 21 0 23 0;
#X connect 23 0 9 0;
#X connect 23 1 10 0;
#X connect 23 2 14 0;
#X connect 24 0 26 0;
#X connect 25 0 11 0;
#X connect 26 0 12 0;
#X connect 26 0 25 0;
#X connect 28 0 37 0;
#X connect 29 0 37 1;
#X connect 30 0 37 2;
#X connect 31 0 37 3;
#X connect 32 0 33 0;
#X connect 33 0 31 1;
#X connect 33 0 30 1;
#X connect 33 0 29 1;
#X connect 33 0 28 1;
#X connect 34 0 28 0;
#X connect 35 0 29 0;
#X connect 36 0 32 0;
#X connect 37 0 27 0;
#X connect 37 1 27 1;
#X connect 37 2 27 2;
#X connect 37 3 27 3;
#X connect 37 4 7 0;
#X connect 38 0 30 0;
#X connect 39 0 31 0;
#X connect 40 0 39 1;
#X connect 40 0 38 1;
#X connect 41 0 28 0;
#X connect 42 0 29 0;
#X connect 43 0 34 0;
#X connect 43 0 38 0;
#X connect 44 0 35 0;
#X connect 44 0 39 0;
#X connect 47 0 51 0;
#X connect 48 0 49 0;
#X connect 49 0 3 0;
#X connect 50 0 55 0;
#X connect 51 0 4 0;
#X connect 52 0 8 0;
#X connect 54 0 37 4;
#X connect 55 0 2 0;
#X connect 55 1 1 0;
#X connect 55 2 53 0;
#X connect 55 3 56 0;
#X coords 0 -1 1 1 160 130 2 100 100;
