#N canvas 475 128 1390 715 12;
#X msg 753 389 disconnect;
#X obj 463 531 netsend -u -b;
#X text 795 331 Send;
#X obj 729 342 t b b;
#X obj 553 284 sel 0 1;
#X msg 565 392 disconnect;
#X obj 520 342 t b b;
#X msg 719 366 connect localhost 4000;
#X obj 155 532 oscparse;
#X msg 156 486 listen 3000;
#X obj 157 555 route list;
#X obj 156 509 netreceive -u -b 3000;
#X obj 157 581 fudiformat -u;
#X obj 151 629 fudiparse;
#X obj 158 454 loadbang;
#X obj 121 33 loadbang;
#X obj 463 191 r osc_out;
#X obj 155 839 s osc_in;
#X obj 117 135 tgl 20 0 empty empty localhost 0 -10 1 12 #fcfcfc #000000 #000000 0 1;
#X text 148 867 parsed received osc messages;
#X text 385 165 already formatted osc messages;
#X text 101 101 osc connect;
#X msg 510 366 connect 192.168.0.33 4000;
#X msg 122 57 1;
#X obj 280 697 == 1234;
#X obj 280 800 print;
#X msg 280 766 osc_connected;
#X obj 280 732 sel 1;
#X obj 517 814 oscformat;
#X obj 518 736 list split 1;
#X obj 550 782 list trim;
#X obj 551 759 list prepend set connection_handler;
#X msg 518 702 connected;
#X obj 517 840 s osc_out;
#X obj 515 667 delay 500;
#X obj 280 667 route connection;
#X obj 375 745 bng 20 250 50 0 empty empty empty 0 -10 0 12 #fcfcfc #000000 #000000;
#X connect 0 0 1 0;
#X connect 3 0 7 0;
#X connect 3 1 0 0;
#X connect 4 0 6 0;
#X connect 4 1 3 0;
#X connect 5 0 1 0;
#X connect 6 0 22 0;
#X connect 6 1 5 0;
#X connect 7 0 1 0;
#X connect 8 0 10 0;
#X connect 9 0 11 0;
#X connect 10 0 12 0;
#X connect 11 0 8 0;
#X connect 12 0 13 0;
#X connect 13 0 17 0;
#X connect 13 0 35 0;
#X connect 14 0 9 0;
#X connect 15 0 23 0;
#X connect 16 0 1 0;
#X connect 18 0 4 0;
#X connect 22 0 1 0;
#X connect 23 0 18 0;
#X connect 24 0 27 0;
#X connect 26 0 25 0;
#X connect 27 0 26 0;
#X connect 27 0 34 0;
#X connect 27 0 36 0;
#X connect 28 0 33 0;
#X connect 29 0 28 0;
#X connect 29 1 31 0;
#X connect 30 0 28 0;
#X connect 31 0 30 0;
#X connect 32 0 29 0;
#X connect 34 0 32 0;
#X connect 35 0 24 0;
#X coords 0 -1 1 1 85 60 2 100 100;
