#N canvas 475 128 1390 715 12;
#X msg 753 389 disconnect;
#X obj 463 531 netsend -u -b;
#X text 795 331 Send;
#X obj 729 342 t b b;
#X obj 553 284 sel 0 1;
#X msg 565 392 disconnect;
#X obj 520 342 t b b;
#X msg 719 366 connect localhost 4000;
#X obj 155 532 oscparse;
#X msg 156 486 listen 3000;
#X obj 157 555 route list;
#X obj 156 509 netreceive -u -b 3000;
#X obj 157 581 fudiformat -u;
#X obj 151 629 fudiparse;
#X obj 158 454 loadbang;
#X obj 121 33 loadbang;
#X obj 463 191 r osc_out;
#X obj 155 839 s osc_in;
#X obj 107 132 tgl 20 0 empty empty empty 0 -10 1 12 #fcfcfc #000000 #000000 0 1;
#X text 148 867 parsed received osc messages;
#X text 385 165 already formatted osc messages;
#X text 101 101 osc connect;
#X obj 312 617 == 1234;
#X obj 312 720 print;
#X msg 312 686 osc_connected;
#X obj 312 652 sel 1;
#X obj 420 802 oscformat;
#X obj 421 724 list split 1;
#X obj 453 770 list trim;
#X obj 454 747 list prepend set connection_handler;
#X msg 421 690 connected;
#X obj 420 828 s osc_out;
#X obj 418 655 delay 500;
#X obj 107 278 s to_all;
#X msg 107 243 vumeter \$1;
#X obj 107 160 tgl 20 0 empty empty empty 0 -10 0 12 #fcfcfc #000000 #000000 0 1;
#X text 129 159 vumeter;
#X text 131 132 localh;
#X obj 312 587 route connection vumeter;
#X obj 395 618 bng 20 250 50 0 empty empty empty 0 -10 0 12 #fcfcfc #000000 #000000;
#X msg 122 57 0;
#X msg 510 366 connect 192.168.1.33 4000;
#X connect 0 0 1 0;
#X connect 3 0 7 0;
#X connect 3 1 0 0;
#X connect 4 0 6 0;
#X connect 4 1 3 0;
#X connect 5 0 1 0;
#X connect 6 0 41 0;
#X connect 6 1 5 0;
#X connect 7 0 1 0;
#X connect 8 0 10 0;
#X connect 9 0 11 0;
#X connect 10 0 12 0;
#X connect 11 0 8 0;
#X connect 12 0 13 0;
#X connect 13 0 17 0;
#X connect 13 0 38 0;
#X connect 14 0 9 0;
#X connect 15 0 40 0;
#X connect 16 0 1 0;
#X connect 18 0 4 0;
#X connect 22 0 25 0;
#X connect 24 0 23 0;
#X connect 25 0 24 0;
#X connect 25 0 32 0;
#X connect 26 0 31 0;
#X connect 27 0 26 0;
#X connect 27 1 29 0;
#X connect 28 0 26 0;
#X connect 29 0 28 0;
#X connect 30 0 27 0;
#X connect 32 0 30 0;
#X connect 34 0 33 0;
#X connect 35 0 34 0;
#X connect 38 0 22 0;
#X connect 38 1 39 0;
#X connect 39 0 35 0;
#X connect 40 0 18 0;
#X connect 41 0 1 0;
#X coords 0 -1 1 1 85 90 2 100 100;
