#N canvas 322 289 1390 805 8;
#X declare -path ./commons;
#X obj -39 370 i;
#X obj -15 370 + 1;
#X obj -39 405 mod 16;
#N canvas 423 158 1390 805 Toglie 0;
#X obj 100 100 cnv 15 75 115 empty empty remove 5 8 1 8 #ffffff #404040 0;
#X obj 155 105 bng 15 250 50 0 empty empty empty 17 7 0 10 #fcfcfc #000000 #000000;
#X obj 74 6 inlet bang;
#X obj 468 148 array get Seq0;
#X msg 535 120 1;
#X obj 463 547 array set Seq1;
#X obj 468 121 t f f;
#X obj 468 174 sel 0;
#X obj 527 299 spigot;
#X obj 505 348 f;
#X obj 527 221 random 100;
#X obj 527 247 t b f;
#X obj 559 276 < 50;
#X msg 468 196 0;
#X obj 504 196 t b b f;
#X msg 520 324 0;
#X text 344 29 TOGLIE Sostituisce non-zero \; con zero ponderato \; da Tab1 a Tab2;
#X obj 469 69 t b b b;
#X obj 837 381 array get Seq0;
#X msg 856 354 1, f 2;
#X obj 837 308 t b b b;
#X obj 918 447 sel 0;
#X obj 918 499 f;
#X obj 949 498 + 1;
#X floatatom 919 524 5 0 0 0 - - - 0;
#X msg 968 448 0;
#X obj 850 499 random;
#X floatatom 850 546 5 0 0 0 - - - 0;
#X obj 850 522 + 1;
#X obj 850 469 t b b;
#X obj 667 422 array get Seq0;
#X msg 734 394 1;
#X obj 669 739 array set Seq1;
#X obj 672 392 t f f;
#X obj 667 448 sel 0;
#X obj 727 665 f;
#X obj 786 513 f;
#X obj 786 535 + 1;
#X msg 801 485 0, f 2;
#X obj 786 560 sel;
#X obj 690 76 t b b;
#X msg 654 511 0;
#X obj 724 479 t b b f;
#X obj 919 546 expr 16 - $f1;
#X msg 784 600 0;
#X obj 686 134 t b b b;
#X text 558 21 TOGLIE1 Sostituisce 1 non-zero \; con 1 zero \; da Tab1 a Tab2;
#X obj 304 265 spigot;
#X obj 342 265 spigot;
#X obj 368 244 == 0;
#X obj 923 364 t b b;
#X obj 469 98 uzicount;
#X obj 686 183 uzicount;
#X obj 838 329 uzicount;
#X obj 908 150 r seq_len_\$0;
#X obj 780 97 r seq_len_\$0;
#X obj 526 63 r seq_len_\$0;
#X obj 298 471 pack 0 0;
#X obj 329 440 r id_\$0;
#X msg 298 491 symbol Seq\$1_\$2;
#X obj 331 206 r Toglie1_\$0;
#X obj 576 247 r ProbToglie_\$0;
#X obj 404 302 r FromToglie_\$0;
#X msg 264 418 1;
#X obj 255 396 loadbang;
#X obj 159 306 s FromToglie_\$0;
#X obj 135 224 loadbang;
#X msg 135 245 1;
#X obj 102 503 delay 10;
#X obj 158 544 s write_play_\$0;
#X obj 292 444 t b f;
#X obj 919 718 pack 0 0;
#X obj 950 687 r id_\$0;
#X msg 919 738 symbol Seq\$1_\$2;
#X msg 885 665 1;
#X obj 876 643 loadbang;
#X obj 913 691 t b f;
#X obj 385 365 pack 0 0;
#X obj 446 323 r id_\$0;
#X msg 385 385 symbol Seq\$1_\$2;
#X obj 405 345 t b f;
#X obj 759 240 r FromToglie_\$0;
#X obj 740 303 pack 0 0;
#X obj 815 267 r id_\$0;
#X msg 740 323 symbol Seq\$1_\$2;
#X obj 778 271 t b f;
#X obj -43 215 r from_load_\$0;
#X obj -47 197 r solo1_load_\$0;
#X obj 107 127 vsl 15 80 0 127 0 0 empty empty prob -2 -9 0 8 #000000 #ffffff #7c7c7c 0 1;
#X obj 100 278 s ProbToglie_\$0;
#X obj 258 313 s Toglie1_\$0;
#X obj -9 76 r prob_load_\$0;
#X obj 156 177 tgl 15 0 empty empty keep -21 8 1 8 #fcfcfc #000000 #000000 0 1;
#X obj 156 195 tgl 15 0 empty empty single -26 8 1 8 #fcfcfc #000000 #000000 0 1;
#X obj 150 5 inlet;
#X text 143 -15 prob;
#X obj 195 2 inlet;
#X obj 244 0 inlet;
#X text 188 -18 keep;
#X text 237 -20 single;
#X obj 76 737 outlet;
#X obj 79 677 r ProbToglie_\$0;
#X obj 138 705 r FromToglie_\$0;
#X obj 237 712 r Toglie1_\$0;
#X obj 134 743 outlet;
#X obj 214 743 outlet;
#X connect 1 0 47 0;
#X connect 1 0 48 0;
#X connect 1 0 68 0;
#X connect 2 0 1 0;
#X connect 3 0 7 0;
#X connect 4 0 3 1;
#X connect 6 0 3 0;
#X connect 6 1 5 1;
#X connect 7 0 13 0;
#X connect 7 1 14 0;
#X connect 8 0 15 0;
#X connect 9 0 5 0;
#X connect 10 0 11 0;
#X connect 11 0 8 0;
#X connect 11 1 12 0;
#X connect 12 0 8 1;
#X connect 13 0 5 0;
#X connect 14 0 9 0;
#X connect 14 1 10 0;
#X connect 14 2 9 1;
#X connect 15 0 9 1;
#X connect 17 0 51 0;
#X connect 17 1 51 0;
#X connect 17 2 4 0;
#X connect 18 0 21 0;
#X connect 19 0 18 1;
#X connect 20 0 53 0;
#X connect 20 1 19 0;
#X connect 20 2 25 0;
#X connect 21 0 22 0;
#X connect 22 0 23 0;
#X connect 22 0 24 0;
#X connect 23 0 22 1;
#X connect 24 0 43 0;
#X connect 25 0 22 0;
#X connect 26 0 28 0;
#X connect 27 0 39 1;
#X connect 28 0 27 0;
#X connect 29 0 26 0;
#X connect 29 1 24 0;
#X connect 30 0 34 0;
#X connect 31 0 30 1;
#X connect 33 0 30 0;
#X connect 33 1 32 1;
#X connect 34 0 41 0;
#X connect 34 1 42 0;
#X connect 35 0 32 0;
#X connect 36 0 37 0;
#X connect 37 0 36 1;
#X connect 37 0 39 0;
#X connect 38 0 36 1;
#X connect 39 0 44 0;
#X connect 40 1 20 0;
#X connect 41 0 32 0;
#X connect 42 0 35 0;
#X connect 42 1 36 0;
#X connect 42 2 35 1;
#X connect 43 0 26 1;
#X connect 44 0 35 1;
#X connect 45 0 52 0;
#X connect 45 1 31 0;
#X connect 45 2 38 0;
#X connect 47 0 40 0;
#X connect 48 0 17 0;
#X connect 49 0 48 1;
#X connect 50 0 45 0;
#X connect 50 1 29 0;
#X connect 51 0 6 0;
#X connect 52 0 33 0;
#X connect 53 0 18 0;
#X connect 53 1 50 0;
#X connect 54 0 53 1;
#X connect 55 0 52 1;
#X connect 56 0 51 1;
#X connect 57 0 59 0;
#X connect 58 0 70 0;
#X connect 59 0 5 2;
#X connect 60 0 49 0;
#X connect 60 0 47 1;
#X connect 61 0 12 1;
#X connect 62 0 77 0;
#X connect 63 0 57 0;
#X connect 64 0 63 0;
#X connect 66 0 67 0;
#X connect 67 0 92 0;
#X connect 68 0 69 0;
#X connect 70 0 57 0;
#X connect 70 1 57 1;
#X connect 71 0 73 0;
#X connect 72 0 76 0;
#X connect 73 0 32 2;
#X connect 74 0 71 0;
#X connect 75 0 74 0;
#X connect 76 0 71 0;
#X connect 76 1 71 1;
#X connect 77 0 79 0;
#X connect 78 0 80 0;
#X connect 79 0 3 2;
#X connect 80 0 77 0;
#X connect 80 1 77 1;
#X connect 81 0 82 0;
#X connect 82 0 84 0;
#X connect 83 0 85 0;
#X connect 84 0 18 2;
#X connect 84 0 30 2;
#X connect 85 0 82 0;
#X connect 85 1 82 1;
#X connect 86 0 92 0;
#X connect 87 0 93 0;
#X connect 88 0 89 0;
#X connect 91 0 88 0;
#X connect 92 0 65 0;
#X connect 93 0 90 0;
#X connect 94 0 88 0;
#X connect 96 0 92 0;
#X connect 97 0 93 0;
#X connect 101 0 100 0;
#X connect 102 0 104 0;
#X connect 103 0 105 0;
#X coords 0 -1 1 1 75 115 1 100 100;
#X restore 472 123 pd Toglie;
#N canvas 66 32 1534 1097 Aggiunge 0;
#X obj 100 100 cnv 15 75 115 empty empty add 5 8 1 8 #ffffff #404040 0;
#X obj 156 104 bng 15 250 50 0 empty empty empty 17 7 0 10 #fcfcfc #000000 #000000;
#X obj 86 -3 inlet bang;
#X floatatom -7 284 5 0 150 0 - - OffsetAggiunge_\$0 0;
#X obj 460 162 array get Seq0;
#X msg 525 134 1;
#X obj 461 445 array set Seq1;
#X obj 460 135 t f f;
#X obj 460 188 sel 0;
#X obj 469 362 spigot;
#X obj 459 391 f;
#X msg 554 241 0;
#X obj 460 215 t b b b;
#X obj 466 239 random 100;
#X obj 471 300 random 16;
#X obj 466 265 t b f;
#X obj 510 280 < 50;
#X obj 471 332 + 1, f 4;
#X text 262 71 AGGIUNGE Sostituisce zero \; con Rnd ponderato \; da Tab1 a Tab2;
#X obj 460 89 t b b;
#X obj 886 314 array get Seq0;
#X msg 926 290 1, f 2;
#X obj 886 241 t b b b;
#X obj 969 353 sel 0;
#X obj 969 405 f;
#X obj 1000 404 + 1;
#X floatatom 969 428 5 0 0 0 - - - 0;
#X msg 998 380 0;
#X obj 901 405 random;
#X floatatom 901 452 5 0 0 0 - - - 0;
#X obj 901 428 + 1;
#X obj 901 375 t b b;
#X obj 718 328 array get Seq0;
#X msg 785 300 1;
#X obj 720 645 array set Seq1;
#X obj 718 298 t f f;
#X obj 718 354 sel 0;
#X obj 778 571 f;
#X obj 828 513 random 16;
#X obj 828 536 + 1, f 4;
#X obj 837 419 f;
#X obj 837 441 + 1;
#X msg 857 384 0, f 2;
#X obj 837 466 sel;
#X obj 722 99 t b b;
#X obj 775 385 t b b b;
#X msg 798 432 0;
#X obj 719 157 t b b b;
#X obj 236 218 spigot;
#X obj 279 217 spigot;
#X obj 306 195 == 0;
#X obj 460 111 uzicount;
#X obj 711 266 uzicount;
#X obj 885 265 uzicount;
#X obj 752 229 r seq_len_\$0;
#X obj 543 78 r seq_len_\$0;
#X obj 1046 283 r seq_len_\$0;
#X obj 848 686 pack 0 0;
#X obj 887 628 r id_\$0;
#X msg 841 716 symbol Seq\$1_\$2;
#X obj 154 249 delay 10;
#X obj 848 609 loadbang;
#X msg 852 636 1;
#X obj 589 265 r ProbAggiunge_\$0;
#X obj 544 317 r RndAggiunge_\$0;
#X obj 543 342 r OffsetAggiunge_\$0;
#X obj 962 119 r FromAggiunge_\$0;
#X obj 897 488 r RndAggiunge_\$0;
#X obj 894 528 r OffsetAggiunge_\$0;
#X obj 306 176 r Solo1Aggiunge_\$0;
#X obj 132 341 s write_play_\$0;
#X obj 871 660 t b f;
#X obj 991 183 pack 0 0;
#X obj 1030 155 r id_\$0;
#X msg 987 204 symbol Seq\$1_\$2;
#X obj 992 156 t b f;
#X obj 265 490 pack 0 0;
#X obj 304 432 r id_\$0;
#X msg 258 520 symbol Seq\$1_\$2;
#X obj 265 413 loadbang;
#X msg 269 440 1;
#X obj 292 462 t b f;
#X obj 596 137 r FromAggiunge_\$0;
#X obj 597 185 pack 0 0;
#X obj 636 157 r id_\$0;
#X msg 593 206 symbol Seq\$1_\$2;
#X obj 608 165 t b f;
#X obj 225 278 s FromAggiunge_\$0;
#X obj 16 241 r rnd_load_\$0;
#X obj 17 261 r offset_load_\$0;
#X obj 13 309 r from_load_\$0;
#X obj 19 335 r solo1_load_\$0;
#X obj 107 127 vsl 15 80 0 127 0 0 empty empty prob -2 -9 0 8 #000000 #ffffff #7c7c7c 0 1;
#X obj 98 393 / 127;
#X obj 98 414 * 100;
#X obj 91 440 s ProbAggiunge_\$0;
#X obj 220 330 s RndAggiunge_\$0;
#X obj 225 299 s Solo1Aggiunge_\$0;
#X obj 19 62 r prob_load_\$0;
#X obj 156 160 tgl 15 0 empty empty keep -21 8 1 8 #fcfcfc #000000 #000000 0 1;
#X obj 148 196 nbx 2 14 0 60 0 0 empty empty rnd -18 8 1 8 #fcfcfc #000000 #000000 0 256;
#X obj 156 178 tgl 15 0 empty empty single -26 8 1 8 #fcfcfc #000000 #000000 0 1;
#X obj 146 -2 inlet;
#X obj 206 -3 inlet;
#X obj 281 -3 inlet;
#X obj 341 1 inlet;
#X obj 6 391 s prob_out_\$0;
#X obj 17 703 r prob_out_\$0;
#X obj 71 678 r FromAggiunge_\$0;
#X obj 117 711 r Solo1Aggiunge_\$0;
#X obj 164 691 r RndAggiunge_\$0;
#X obj 22 729 outlet;
#X obj 70 734 outlet;
#X obj 120 738 outlet;
#X obj 171 739 outlet;
#X connect 1 0 48 0;
#X connect 1 0 49 0;
#X connect 1 0 60 0;
#X connect 2 0 1 0;
#X connect 4 0 8 0;
#X connect 5 0 4 1;
#X connect 7 0 4 0;
#X connect 7 1 6 1;
#X connect 8 0 12 0;
#X connect 8 1 6 0;
#X connect 9 0 10 1;
#X connect 10 0 6 0;
#X connect 11 0 10 1;
#X connect 12 0 10 0;
#X connect 12 1 13 0;
#X connect 12 2 11 0;
#X connect 13 0 15 0;
#X connect 14 0 17 0;
#X connect 15 0 14 0;
#X connect 15 1 16 0;
#X connect 16 0 9 1;
#X connect 17 0 9 0;
#X connect 19 0 51 0;
#X connect 19 1 5 0;
#X connect 20 0 23 0;
#X connect 21 0 20 1;
#X connect 22 0 53 0;
#X connect 22 1 21 0;
#X connect 22 2 27 0;
#X connect 23 0 24 0;
#X connect 24 0 25 0;
#X connect 24 0 26 0;
#X connect 25 0 24 1;
#X connect 26 0 28 1;
#X connect 27 0 24 0;
#X connect 28 0 30 0;
#X connect 29 0 43 1;
#X connect 30 0 29 0;
#X connect 31 0 28 0;
#X connect 31 1 26 0;
#X connect 32 0 36 0;
#X connect 33 0 32 1;
#X connect 35 0 32 0;
#X connect 35 1 34 1;
#X connect 36 0 45 0;
#X connect 36 1 34 0;
#X connect 37 0 34 0;
#X connect 38 0 39 0;
#X connect 39 0 37 1;
#X connect 40 0 41 0;
#X connect 41 0 40 1;
#X connect 41 0 43 0;
#X connect 42 0 40 1;
#X connect 43 0 38 0;
#X connect 44 0 47 0;
#X connect 44 1 22 0;
#X connect 45 0 37 0;
#X connect 45 1 40 0;
#X connect 45 2 46 0;
#X connect 46 0 37 1;
#X connect 47 0 52 0;
#X connect 47 1 33 0;
#X connect 47 2 42 0;
#X connect 48 0 44 0;
#X connect 49 0 19 0;
#X connect 50 0 49 1;
#X connect 51 0 7 0;
#X connect 52 0 35 0;
#X connect 53 0 20 0;
#X connect 53 1 31 0;
#X connect 54 0 52 1;
#X connect 55 0 51 1;
#X connect 56 0 53 1;
#X connect 57 0 59 0;
#X connect 58 0 71 0;
#X connect 59 0 34 2;
#X connect 60 0 70 0;
#X connect 61 0 62 0;
#X connect 62 0 57 0;
#X connect 63 0 16 1;
#X connect 64 0 14 1;
#X connect 65 0 17 1;
#X connect 66 0 72 0;
#X connect 67 0 38 1;
#X connect 68 0 39 1;
#X connect 69 0 50 0;
#X connect 69 0 48 1;
#X connect 71 0 57 0;
#X connect 71 1 57 1;
#X connect 72 0 74 0;
#X connect 73 0 75 0;
#X connect 74 0 20 2;
#X connect 74 0 32 2;
#X connect 75 0 72 0;
#X connect 75 1 72 1;
#X connect 76 0 78 0;
#X connect 77 0 81 0;
#X connect 78 0 6 2;
#X connect 79 0 80 0;
#X connect 80 0 76 0;
#X connect 81 0 76 0;
#X connect 81 1 76 1;
#X connect 82 0 83 0;
#X connect 83 0 85 0;
#X connect 84 0 86 0;
#X connect 85 0 4 2;
#X connect 86 0 83 0;
#X connect 86 1 83 1;
#X connect 88 0 100 0;
#X connect 89 0 3 0;
#X connect 90 0 99 0;
#X connect 91 0 101 0;
#X connect 92 0 93 0;
#X connect 92 0 106 0;
#X connect 93 0 94 0;
#X connect 94 0 95 0;
#X connect 98 0 92 0;
#X connect 99 0 87 0;
#X connect 100 0 96 0;
#X connect 101 0 97 0;
#X connect 102 0 92 0;
#X connect 103 0 99 0;
#X connect 104 0 101 0;
#X connect 105 0 100 0;
#X connect 107 0 111 0;
#X connect 108 0 112 0;
#X connect 109 0 113 0;
#X connect 110 0 114 0;
#X coords 0 -1 1 1 75 115 1 100 100;
#X restore 553 124 pd Aggiunge;
#N canvas 452 142 1150 805 Varia 0;
#X obj 100 100 cnv 15 70 115 empty empty variate 5 8 1 8 #ffffff #404040 0;
#X obj 151 104 bng 15 250 50 0 empty empty empty 17 7 0 10 #fcfcfc #000000 #000000;
#X obj -17 -1 inlet bang;
#X floatatom 356 62 5 0 150 0 - - OffsetVaria_\$0 0;
#X text 319 61 Offset;
#X obj 508 195 array get Seq0;
#X msg 575 167 1;
#X obj 484 538 array set Seq1;
#X obj 508 168 t f f;
#X obj 508 221 sel 0;
#X obj 564 342 spigot;
#X obj 543 436 f;
#X obj 567 268 random 100;
#X obj 567 294 t b f;
#X obj 599 318 < 50;
#X msg 508 243 0;
#X obj 544 243 t b b f;
#X obj 556 404 + 1, f 4;
#X text 414 40 VARIA Sostituisce non-zero \; con rnd ponderato \; da Tab1 a Tab2;
#X obj 509 122 t b b;
#X obj 553 374 random 16;
#X obj 987 318 array get Seq0;
#X msg 1006 288 1, f 2;
#X obj 959 242 t b b b;
#X obj 1042 354 sel 0;
#X obj 1042 406 f;
#X obj 1073 405 + 1;
#X floatatom 1043 431 5 0 0 0 - - - 0;
#X msg 1071 381 0;
#X obj 974 406 random;
#X floatatom 974 453 5 0 0 0 - - - 0;
#X obj 974 429 + 1;
#X obj 974 376 t b b;
#X obj 791 329 array get Seq0;
#X msg 858 301 1;
#X obj 793 646 array set Seq1;
#X obj 795 303 t f f;
#X obj 791 355 sel 0;
#X obj 851 572 f;
#X obj 910 420 f;
#X obj 910 442 + 1;
#X msg 930 385 0, f 2;
#X obj 910 467 sel;
#X obj 791 158 t b b b b;
#X obj 795 100 t b b;
#X msg 778 418 0;
#X obj 848 386 t b b f;
#X obj 1041 459 expr 16 - $f1;
#X obj 909 506 random 16;
#X obj 909 529 + 1, f 4;
#X obj 238 184 spigot;
#X obj 283 185 spigot;
#X obj 308 164 == 0;
#X obj 508 144 uzicount;
#X obj 959 267 uzicount;
#X obj 803 273 uzicount;
#X obj 577 106 r seq_len_\$0;
#X obj 836 241 r seq_len_\$0;
#X obj 1032 247 r seq_len_\$0;
#X obj 397 459 pack 0 0;
#X obj 428 417 r id_\$0;
#X msg 397 478 symbol Seq\$1_\$2;
#X obj 397 399 loadbang;
#X msg 397 418 1;
#X obj 83 215 loadbang;
#X msg 83 235 1;
#X obj 309 143 r Solo1Varia_\$0;
#X obj 693 300 r ProbVaria_\$0;
#X obj 649 372 r RndVaria_\$0;
#X obj 612 409 r OffsetVaria_\$0;
#X obj 1062 516 r RndVaria_\$0;
#X obj 1067 551 r OffsetVaria_\$0;
#X obj 139 256 s FromVaria_\$0;
#X obj 944 101 r FromVaria_\$0;
#X obj 376 95 loadbang;
#X msg 376 115 60;
#X obj 132 341 s write_play_\$0;
#X obj 137 302 delay 10;
#X obj 424 437 t b f;
#X obj 1062 637 pack 0 0;
#X obj 1067 595 r id_\$0;
#X msg 1036 656 symbol Seq\$1_\$2;
#X obj 1036 577 loadbang;
#X msg 1036 596 1;
#X obj 1062 618 t b f;
#X obj 1032 160 pack 0 0;
#X obj 1059 104 r id_\$0;
#X msg 1032 179 symbol Seq\$1_\$2;
#X obj 1032 141 t b f;
#X obj 399 189 r FromVaria_\$0;
#X obj 409 264 pack 0 0;
#X obj 436 208 r id_\$0;
#X msg 409 283 symbol Seq\$1_\$2;
#X obj 435 235 t b f;
#X obj 266 223 r rnd_load_\$0;
#X obj 266 246 r from_load_\$0;
#X obj 265 270 r solo1_load_\$0;
#X obj 20 287 s ProbVaria_\$0;
#X obj 106 124 vsl 15 80 0 127 0 0 empty empty prob -1 -9 1 8 #000000 #ffffff #7c7c7c 0 1;
#X obj 26 233 / 127;
#X obj 26 254 * 100;
#X obj 160 276 s RndVaria_\$0;
#X obj 245 105 s Solo1Varia_\$0;
#X obj 151 161 tgl 15 0 empty empty keep -21 8 1 8 #fcfcfc #000000 #000000 0 1;
#X obj 143 197 nbx 2 14 0 60 0 0 empty empty rnd -18 8 1 8 #fcfcfc #000000 #000000 0 256;
#X obj 151 179 tgl 15 0 empty empty single -26 8 1 8 #fcfcfc #000000 #000000 0 1;
#X obj -9 76 r prob_load_\$0;
#X obj 235 0 inlet;
#X obj 170 -1 inlet;
#X obj 111 -1 inlet;
#X obj 46 -2 inlet;
#X text 43 -18 prob;
#X text 104 -18 keep;
#X text 167 -18 single;
#X text 230 -18 rnd;
#X obj 100 668 r FromVaria_\$0;
#X obj 172 671 r Solo1Varia_\$0;
#X obj 256 668 r RndVaria_\$0;
#X obj 20 717 outlet;
#X obj 100 720 outlet;
#X obj 172 723 outlet;
#X obj 256 723 outlet;
#X obj -18 211 s prob_out_var_\$0;
#X obj 5 665 r prob_out_var_\$0;
#X connect 1 0 50 0;
#X connect 1 0 51 0;
#X connect 1 0 77 0;
#X connect 2 0 1 0;
#X connect 5 0 9 0;
#X connect 6 0 5 1;
#X connect 8 0 5 0;
#X connect 8 1 7 1;
#X connect 9 0 15 0;
#X connect 9 1 16 0;
#X connect 10 0 20 0;
#X connect 11 0 7 0;
#X connect 12 0 13 0;
#X connect 13 0 10 0;
#X connect 13 1 14 0;
#X connect 14 0 10 1;
#X connect 15 0 7 0;
#X connect 16 0 11 0;
#X connect 16 1 12 0;
#X connect 16 2 11 1;
#X connect 17 0 11 1;
#X connect 19 0 53 0;
#X connect 19 1 6 0;
#X connect 20 0 17 0;
#X connect 21 0 24 0;
#X connect 22 0 21 1;
#X connect 23 0 54 0;
#X connect 23 1 22 0;
#X connect 23 2 28 0;
#X connect 24 0 25 0;
#X connect 25 0 26 0;
#X connect 25 0 27 0;
#X connect 26 0 25 1;
#X connect 27 0 47 0;
#X connect 28 0 25 0;
#X connect 29 0 31 0;
#X connect 30 0 42 1;
#X connect 31 0 30 0;
#X connect 32 0 29 0;
#X connect 32 1 27 0;
#X connect 33 0 37 0;
#X connect 34 0 33 1;
#X connect 36 0 33 0;
#X connect 36 1 35 1;
#X connect 37 0 45 0;
#X connect 37 1 46 0;
#X connect 38 0 35 0;
#X connect 39 0 40 0;
#X connect 40 0 39 1;
#X connect 40 0 42 0;
#X connect 41 0 39 1;
#X connect 42 0 48 0;
#X connect 43 0 55 0;
#X connect 43 1 34 0;
#X connect 43 3 41 0;
#X connect 44 0 43 0;
#X connect 44 1 23 0;
#X connect 45 0 35 0;
#X connect 46 0 38 0;
#X connect 46 1 39 0;
#X connect 46 2 38 1;
#X connect 47 0 29 1;
#X connect 48 0 49 0;
#X connect 49 0 38 1;
#X connect 50 0 44 0;
#X connect 51 0 19 0;
#X connect 52 0 51 1;
#X connect 53 0 8 0;
#X connect 54 0 21 0;
#X connect 54 1 32 0;
#X connect 55 0 36 0;
#X connect 56 0 53 1;
#X connect 57 0 55 1;
#X connect 58 0 54 1;
#X connect 59 0 61 0;
#X connect 60 0 78 0;
#X connect 61 0 7 2;
#X connect 62 0 63 0;
#X connect 63 0 59 0;
#X connect 64 0 65 0;
#X connect 65 0 103 0;
#X connect 66 0 52 0;
#X connect 66 0 50 1;
#X connect 67 0 14 1;
#X connect 68 0 20 1;
#X connect 69 0 17 1;
#X connect 70 0 48 1;
#X connect 71 0 49 1;
#X connect 73 0 85 0;
#X connect 74 0 75 0;
#X connect 75 0 3 0;
#X connect 77 0 76 0;
#X connect 78 0 59 0;
#X connect 78 1 59 1;
#X connect 79 0 81 0;
#X connect 80 0 84 0;
#X connect 81 0 35 2;
#X connect 82 0 83 0;
#X connect 83 0 79 0;
#X connect 84 0 79 0;
#X connect 84 1 79 1;
#X connect 85 0 87 0;
#X connect 86 0 88 0;
#X connect 87 0 33 2;
#X connect 87 0 21 2;
#X connect 88 0 85 0;
#X connect 88 1 85 1;
#X connect 89 0 90 0;
#X connect 90 0 92 0;
#X connect 91 0 93 0;
#X connect 92 0 5 2;
#X connect 93 0 90 0;
#X connect 93 1 90 1;
#X connect 94 0 104 0;
#X connect 95 0 103 0;
#X connect 96 0 105 0;
#X connect 98 0 99 0;
#X connect 98 0 122 0;
#X connect 99 0 100 0;
#X connect 100 0 97 0;
#X connect 103 0 72 0;
#X connect 104 0 101 0;
#X connect 105 0 102 0;
#X connect 106 0 98 0;
#X connect 107 0 104 0;
#X connect 108 0 105 0;
#X connect 109 0 103 0;
#X connect 110 0 98 0;
#X connect 115 0 119 0;
#X connect 116 0 120 0;
#X connect 117 0 121 0;
#X connect 123 0 118 0;
#X coords 0 -1 1 1 70 115 1 100 100;
#X restore 400 123 pd Varia;
#N canvas 266 49 1150 792 Generate 0;
#X obj 100 100 cnv 15 75 115 empty empty generate 4 8 1 8 #ffffff #404040 0;
#X obj 553 77 t b b, f 6;
#X obj 553 499 array set Seq0;
#X obj 155 105 bng 15 250 50 0 empty empty empty 17 7 0 10 #fcfcfc #000000 #000000;
#X msg 650 155 1;
#X obj 556 285 random 100;
#X obj 556 314 moses 50;
#X msg 556 363 0;
#X obj 602 361 random 16;
#X obj 601 387 + 1;
#X obj 601 339 bng 15 250 50 0 empty empty empty 17 7 0 10 #fcfcfc #000000 #000000;
#X obj 556 339 bng 15 250 50 0 empty empty empty 17 7 0 10 #fcfcfc #000000 #000000;
#X obj 556 261 t b f;
#X obj 507 240 sel 0;
#X obj 501 335 t b b;
#X msg 524 365 0;
#X obj 530 179 pack f f;
#X obj 530 204 route 0 1;
#X obj 528 133 tgl 15 0 empty empty empty 17 7 0 10 #fcfcfc #000000 #000000 0 1;
#X obj 558 155 t b f;
#X obj 513 156 f;
#X obj 109 16 inlet bang;
#X floatatom 241 394 5 0 0 0 - - OffsetGenerate_\$0 0;
#X text 206 393 Offset;
#X obj 127 195 tgl 15 0 empty empty n 4 8 1 10 #fcfcfc #000000 #000000 0 1;
#X obj 788 670 array set Seq0;
#X obj 781 438 random 16;
#X msg 781 396 \$1;
#X obj 781 378 f;
#X obj 781 416 until;
#X obj 779 544 random 16;
#X obj 787 566 + 1;
#X obj 781 457 t b f;
#X obj 1053 116 f;
#X obj 849 244 t b b b;
#X obj 884 311 spigot;
#X obj 920 406 t b b;
#X msg 942 426 0;
#X obj 341 192 == 0;
#X obj 318 214 spigot;
#X obj 263 215 spigot;
#X obj 782 313 spigot;
#X msg 981 382 \$1;
#X obj 981 364 f;
#X obj 981 402 until;
#X obj 981 461 t b f;
#X obj 820 294 == 0;
#X obj 981 421 random 15;
#X obj 981 441 + 1;
#X obj 993 345 - 1;
#X obj 884 333 t b b;
#X obj 553 103 uzicount;
#X obj 1050 403 - 1;
#X obj 614 64 r seq_len_\$0;
#X obj 1053 379 r seq_len_\$0;
#X obj 831 389 r seq_len_\$0;
#X obj 626 457 pack 0 0;
#X msg 620 479 symbol Seq\$1_\$2;
#X obj 923 649 pack 0 0;
#X msg 917 671 symbol Seq\$1_\$2;
#X obj 1055 142 pack 0 0;
#X msg 1053 172 \; Seq\$1_\$2 const 0;
#X obj 682 431 r id_\$0;
#X obj 983 608 r id_\$0;
#X obj 1094 110 r id_\$0;
#X obj 613 407 r SeqGenerate_\$0;
#X obj 1003 74 r SeqGenerate_\$0;
#X obj 883 596 r SeqGenerate_\$0;
#X obj 439 111 r FirstGenerate_\$0;
#X obj 310 159 r ChoiceGenerate_\$0;
#X obj 627 296 r ProbGenerate_\$0;
#X obj 667 348 r RndGenerate_\$0;
#X obj 639 385 r OffsetGenerate_\$0;
#X obj 789 360 r NumberGenerate_\$0;
#X obj 992 322 r NumberGenerate_\$0;
#X obj 911 273 r FirstGenerate_\$0;
#X obj 847 527 r RndGenerate_\$0;
#X obj 819 564 r OffsetGenerate_\$0;
#X obj 179 363 t b b;
#X obj 190 419 delay 10;
#X obj 557 625 array set Seq0;
#X obj 27 354 loadbang;
#X obj 25 456 s SeqGenerate_\$0;
#X msg 24 432 0;
#X obj 633 578 pack 0 0;
#X msg 627 600 symbol Seq\$1_\$2;
#X obj 691 525 r id_\$0;
#X obj 631 530 + 1;
#X obj 38 114 loadbang;
#X msg 37 133 0;
#X obj 127 470 s write_play_\$0;
#X obj 672 548 t b f;
#X obj 631 436 t b f;
#X obj 943 629 t b f;
#X obj 210 162 r rnd_load_\$0;
#X obj 211 182 r offset_load_\$0;
#X obj 101 415 s ProbGenerate_\$0;
#X obj 106 127 vsl 15 80 0 127 0 0 empty empty dens -2 -9 0 8 #000000 #ffffff #000000 0 1;
#X obj 100 369 / 127;
#X obj 100 390 * 100;
#X obj 162 297 s RndGenerate_\$0;
#X obj 156 242 s FirstGenerate_\$0;
#X obj 117 266 s ChoiceGenerate_\$0;
#X obj 146 196 nbx 2 14 1 32 0 0 empty empty empty 0 -8 0 8 #fcfcfc #000000 #000000 0 256;
#X obj 185 324 s NumberGenerate_\$0;
#X msg 36 154 0;
#X obj 25 58 r prob_load_\$0;
#X obj 147 178 nbx 2 14 0 60 0 0 empty empty rnd -18 8 1 8 #fcfcfc #000000 #000000 0 256;
#X obj 155 159 tgl 15 0 empty empty first -18 8 1 8 #fcfcfc #000000 #000000 0 1;
#X obj 214 16 inlet;
#X obj 254 16 inlet;
#X obj 293 16 inlet;
#X obj 336 16 inlet;
#X obj 375 16 inlet;
#X text 114 1 bang;
#X text 208 1 dens;
#X text 256 0 firs;
#X text 293 -1 rnd;
#X text 327 -2 n_toggle;
#X text 377 -1 n_amt;
#X obj 63 291 s density_out_\$0;
#X obj 54 740 r density_out_\$0;
#X obj 143 742 r FirstGenerate_\$0;
#X obj 237 742 r RndGenerate_\$0;
#X obj 318 741 r ChoiceGenerate_\$0;
#X obj 412 741 r NumberGenerate_\$0;
#X obj 58 772 outlet;
#X obj 142 774 outlet;
#X obj 245 773 outlet;
#X obj 329 775 outlet;
#X obj 414 779 outlet;
#X text 59 795 dens;
#X text 151 795 firs;
#X text 254 795 rnd;
#X text 333 797 n_toggle;
#X text 419 797 n_amt;
#X connect 1 0 51 0;
#X connect 1 1 4 0;
#X connect 3 0 78 0;
#X connect 4 0 2 1;
#X connect 4 0 80 1;
#X connect 5 0 6 0;
#X connect 6 0 10 0;
#X connect 6 1 11 0;
#X connect 7 0 2 0;
#X connect 7 0 80 0;
#X connect 8 0 9 0;
#X connect 9 0 2 0;
#X connect 9 0 80 0;
#X connect 10 0 8 0;
#X connect 11 0 7 0;
#X connect 12 0 5 0;
#X connect 12 1 2 1;
#X connect 12 1 80 1;
#X connect 13 0 14 0;
#X connect 13 1 12 0;
#X connect 14 0 8 0;
#X connect 14 1 15 0;
#X connect 15 0 2 1;
#X connect 15 0 80 1;
#X connect 16 0 17 0;
#X connect 17 0 12 0;
#X connect 17 1 13 0;
#X connect 18 0 20 1;
#X connect 19 0 20 0;
#X connect 19 1 16 1;
#X connect 20 0 16 0;
#X connect 21 0 3 0;
#X connect 24 0 102 0;
#X connect 26 0 32 0;
#X connect 27 0 29 0;
#X connect 28 0 27 0;
#X connect 29 0 26 0;
#X connect 30 0 31 0;
#X connect 31 0 25 0;
#X connect 32 0 30 0;
#X connect 32 1 25 1;
#X connect 33 0 60 0;
#X connect 34 0 41 0;
#X connect 34 1 35 0;
#X connect 34 2 33 0;
#X connect 35 0 50 0;
#X connect 36 0 30 0;
#X connect 36 1 37 0;
#X connect 37 0 25 1;
#X connect 38 0 39 1;
#X connect 39 0 1 0;
#X connect 40 0 34 0;
#X connect 41 0 28 0;
#X connect 42 0 44 0;
#X connect 43 0 42 0;
#X connect 44 0 47 0;
#X connect 45 0 30 0;
#X connect 45 1 25 1;
#X connect 46 0 41 1;
#X connect 47 0 48 0;
#X connect 48 0 45 0;
#X connect 49 0 43 1;
#X connect 50 0 36 0;
#X connect 50 1 43 0;
#X connect 51 0 19 0;
#X connect 52 0 47 1;
#X connect 53 0 51 1;
#X connect 54 0 52 0;
#X connect 55 0 26 1;
#X connect 56 0 57 0;
#X connect 57 0 2 2;
#X connect 58 0 59 0;
#X connect 59 0 25 2;
#X connect 60 0 61 0;
#X connect 62 0 92 0;
#X connect 63 0 93 0;
#X connect 64 0 60 1;
#X connect 65 0 87 0;
#X connect 65 0 56 0;
#X connect 66 0 33 1;
#X connect 67 0 58 0;
#X connect 68 0 18 0;
#X connect 69 0 38 0;
#X connect 69 0 40 1;
#X connect 70 0 6 1;
#X connect 71 0 8 1;
#X connect 72 0 9 1;
#X connect 73 0 28 1;
#X connect 74 0 49 0;
#X connect 75 0 46 0;
#X connect 75 0 35 1;
#X connect 76 0 30 1;
#X connect 77 0 31 1;
#X connect 78 0 79 0;
#X connect 78 1 40 0;
#X connect 78 1 39 0;
#X connect 79 0 90 0;
#X connect 81 0 83 0;
#X connect 83 0 82 0;
#X connect 84 0 85 0;
#X connect 85 0 80 2;
#X connect 86 0 91 0;
#X connect 87 0 84 0;
#X connect 88 0 89 0;
#X connect 89 0 24 0;
#X connect 89 0 105 0;
#X connect 91 0 84 0;
#X connect 91 1 84 1;
#X connect 92 0 56 0;
#X connect 92 1 56 1;
#X connect 93 0 58 0;
#X connect 93 1 58 1;
#X connect 94 0 107 0;
#X connect 95 0 22 0;
#X connect 97 0 98 0;
#X connect 97 0 120 0;
#X connect 98 0 99 0;
#X connect 99 0 96 0;
#X connect 103 0 104 0;
#X connect 105 0 108 0;
#X connect 106 0 97 0;
#X connect 107 0 100 0;
#X connect 108 0 101 0;
#X connect 109 0 97 0;
#X connect 110 0 108 0;
#X connect 111 0 107 0;
#X connect 112 0 24 0;
#X connect 113 0 103 0;
#X connect 121 0 126 0;
#X connect 122 0 127 0;
#X connect 123 0 128 0;
#X connect 124 0 129 0;
#X connect 125 0 130 0;
#X coords 0 -1 1 1 75 115 2 100 100;
#X restore 324 122 pd Generate;
#X obj 1464 243 loadbang;
#X msg 1470 273 12;
#X msg 1472 299 60;
#X obj 327 -644 loadbang;
#X msg 264 -645 16;
#X text 1007 -115 original;
#X text 1005 -62 variation;
#N canvas 101 69 450 250 (subpatch) 0;
#X array Seq2_\$0 16 float 3;
#A 0 69 0 64 62 71 65 71 0 0 62 65 69 64 65 71 71;
#X coords 0 90 16 0 200 100 2 0 0;
#X restore 627 135 graph;
#X obj 1408 -50 f \$0;
#X obj 1417 -117 bng 15 250 50 0 empty empty empty 0 -8 0 8 #fcfcfc #000000 #000000;
#X msg 1407 33 \; Seq0_\$1 const 0;
#X msg 1398 93 \; Seq1_\$1 const 0;
#X msg 1504 93 \; Seq2_\$1 const 0;
#X obj -39 427 tabread Seq2_\$0;
#X obj 1512 276 s rnd_load_\$0;
#X obj 1513 296 s offset_load_\$0;
#X msg 1472 343 1;
#X msg 1475 372 1;
#X obj 1509 344 s from_load_\$0;
#X obj 1515 370 s solo1_load_\$0;
#X obj 103 103 internal_sync;
#X obj -39 349 bng 15 250 50 0 empty empty empty 0 -8 0 8 #fcfcfc #000000 #000000;
#X msg -20 348 0;
#X obj -167 1098 outlet;
#N canvas 198 364 1388 706 rotate 0;
#X obj 266 390 until;
#X obj 281 411 i;
#X obj 305 411 + 1;
#X obj 252 368 f;
#X obj 250 330 t b b;
#X msg 434 381 1;
#X msg 371 375 0;
#X obj 212 444 f;
#X msg 308 364 1;
#X obj 267 512 f;
#X obj 279 467 t b f;
#X obj 214 473 t f b;
#X obj 321 500 - 1;
#X obj 620 383 until;
#X obj 636 402 i;
#X obj 606 361 f;
#X msg 788 374 1;
#X obj 566 437 f;
#X obj 621 505 f;
#X obj 568 466 t f b;
#X obj 592 193 bng 15 250 50 0 empty empty empty 0 -8 0 8 #fcfcfc #000000 #000000;
#X obj 675 493 + 1;
#X obj 659 404 - 1;
#X obj 705 369 f;
#X obj 700 339 - 1;
#X msg 604 481 0;
#X obj 632 439 t b f f;
#X obj 654 359 f;
#X obj 272 541 array set Seq1_\$0;
#X obj 320 464 array get Seq1_\$0;
#X obj 394 406 array get Seq1_\$0;
#X obj 204 616 s write_play_\$0;
#X obj 258 585 delay 10;
#X obj 226 544 bng 15 250 50 0 empty empty empty 0 -8 0 8 #fcfcfc #000000 #000000;
#X obj 246 494 i;
#X msg 359 397 1;
#X obj 709 490 print;
#X obj 303 333 - 1;
#X obj 287 440 t f f;
#X obj 901 389 until;
#X obj 916 410 i;
#X obj 887 367 f;
#X msg 1069 380 1;
#X obj 847 443 f;
#X obj 902 511 f;
#X obj 849 472 t f b;
#X obj 956 499 + 1;
#X obj 940 410 - 1;
#X obj 986 375 f;
#X obj 973 337 - 1;
#X msg 885 487 0;
#X obj 913 445 t b f f;
#X obj 935 365 f;
#X obj 903 540 array set Seq1_\$0;
#X obj 966 467 array get Seq1_\$0;
#X obj 1029 405 array get Seq1_\$0;
#X obj 829 635 s write_play_\$0;
#X obj 883 604 delay 10;
#X obj 851 563 bng 15 250 50 0 empty empty empty 0 -8 0 8 #fcfcfc #000000 #000000;
#X obj 990 496 print;
#X obj -20 387 until;
#X obj -5 408 i;
#X obj 19 408 + 1;
#X obj -34 365 f;
#X obj -36 327 t b b;
#X msg 148 378 1;
#X msg 85 372 0;
#X obj -74 441 f;
#X msg 22 361 1;
#X obj -19 509 f;
#X obj -7 464 t b f;
#X obj -72 470 t f b;
#X obj -48 198 bng 15 250 50 0 empty empty empty 0 -8 0 8 #fcfcfc #000000 #000000;
#X obj 35 497 - 1;
#X obj -40 491 i;
#X msg 73 394 1;
#X obj 16 325 - 1;
#X obj 1 437 t f f;
#X obj 108 403 array get Seq0_\$0;
#X obj 34 461 array get Seq0_\$0;
#X obj -14 538 array set Seq0_\$0;
#X obj 25 246 delay 100;
#X obj 684 238 delay 100;
#X obj 622 534 array set Seq0_\$0;
#X obj 685 461 array get Seq0_\$0;
#X obj 748 399 array get Seq0_\$0;
#X obj 41 62 inlet;
#X obj 531 71 inlet;
#X obj 705 305 array size Seq0_\$0;
#X obj 579 270 t b b b b b;
#X obj 320 297 array size Seq0_\$0;
#X obj 225 278 t b b b b b;
#X obj -61 275 t b b b b b;
#X obj 62 289 array size Seq0_\$0;
#X obj 958 294 array size Seq0_\$0;
#X obj 860 277 t b b b b b, f 13;
#X connect 0 0 1 0;
#X connect 1 0 2 0;
#X connect 1 0 38 0;
#X connect 2 0 1 1;
#X connect 3 0 0 0;
#X connect 4 0 3 0;
#X connect 4 1 8 0;
#X connect 5 0 30 1;
#X connect 6 0 30 0;
#X connect 7 0 11 0;
#X connect 8 0 1 1;
#X connect 9 0 28 0;
#X connect 10 0 9 0;
#X connect 10 1 12 0;
#X connect 11 0 28 0;
#X connect 11 0 33 0;
#X connect 11 1 34 0;
#X connect 12 0 28 1;
#X connect 13 0 14 0;
#X connect 14 0 22 0;
#X connect 14 0 26 0;
#X connect 15 0 13 0;
#X connect 16 0 84 1;
#X connect 16 0 85 1;
#X connect 17 0 19 0;
#X connect 18 0 83 0;
#X connect 19 0 83 0;
#X connect 19 1 25 0;
#X connect 20 0 82 0;
#X connect 20 0 89 0;
#X connect 21 0 83 1;
#X connect 22 0 14 1;
#X connect 23 0 85 0;
#X connect 24 0 23 1;
#X connect 24 0 27 1;
#X connect 25 0 83 1;
#X connect 26 0 18 0;
#X connect 26 1 21 0;
#X connect 26 2 84 0;
#X connect 27 0 14 1;
#X connect 29 0 9 1;
#X connect 30 0 7 1;
#X connect 32 0 31 0;
#X connect 33 0 32 0;
#X connect 34 0 28 1;
#X connect 35 0 29 1;
#X connect 37 0 3 1;
#X connect 37 0 34 1;
#X connect 38 0 10 0;
#X connect 38 1 29 0;
#X connect 39 0 40 0;
#X connect 40 0 47 0;
#X connect 40 0 51 0;
#X connect 41 0 39 0;
#X connect 42 0 54 1;
#X connect 42 0 55 1;
#X connect 43 0 45 0;
#X connect 44 0 53 0;
#X connect 45 0 53 0;
#X connect 45 0 58 0;
#X connect 45 1 50 0;
#X connect 46 0 53 1;
#X connect 47 0 40 1;
#X connect 48 0 55 0;
#X connect 49 0 48 1;
#X connect 49 0 52 1;
#X connect 50 0 53 1;
#X connect 51 0 44 0;
#X connect 51 1 46 0;
#X connect 51 2 54 0;
#X connect 52 0 40 1;
#X connect 54 0 44 1;
#X connect 54 0 59 0;
#X connect 55 0 43 1;
#X connect 57 0 56 0;
#X connect 58 0 57 0;
#X connect 60 0 61 0;
#X connect 61 0 62 0;
#X connect 61 0 77 0;
#X connect 62 0 61 1;
#X connect 63 0 60 0;
#X connect 64 0 63 0;
#X connect 64 1 68 0;
#X connect 65 0 78 1;
#X connect 66 0 78 0;
#X connect 67 0 71 0;
#X connect 68 0 61 1;
#X connect 69 0 80 0;
#X connect 70 0 69 0;
#X connect 70 1 73 0;
#X connect 71 0 80 0;
#X connect 71 1 74 0;
#X connect 72 0 81 0;
#X connect 72 0 92 0;
#X connect 73 0 80 1;
#X connect 74 0 80 1;
#X connect 75 0 79 1;
#X connect 76 0 63 1;
#X connect 76 0 74 1;
#X connect 77 0 70 0;
#X connect 77 1 79 0;
#X connect 78 0 67 1;
#X connect 79 0 69 1;
#X connect 81 0 91 0;
#X connect 82 0 95 0;
#X connect 84 0 18 1;
#X connect 84 0 36 0;
#X connect 85 0 17 1;
#X connect 86 0 72 0;
#X connect 87 0 20 0;
#X connect 88 0 24 0;
#X connect 88 0 15 1;
#X connect 89 0 17 0;
#X connect 89 1 15 0;
#X connect 89 2 23 0;
#X connect 89 2 27 0;
#X connect 89 3 16 0;
#X connect 89 4 88 0;
#X connect 90 0 37 0;
#X connect 91 0 7 0;
#X connect 91 1 4 0;
#X connect 91 2 6 0;
#X connect 91 2 35 0;
#X connect 91 3 5 0;
#X connect 91 4 90 0;
#X connect 92 0 67 0;
#X connect 92 1 64 0;
#X connect 92 2 66 0;
#X connect 92 2 75 0;
#X connect 92 3 65 0;
#X connect 92 4 93 0;
#X connect 93 0 76 0;
#X connect 94 0 41 1;
#X connect 94 0 49 0;
#X connect 95 0 43 0;
#X connect 95 1 41 0;
#X connect 95 2 48 0;
#X connect 95 2 52 0;
#X connect 95 3 42 0;
#X connect 95 4 94 0;
#X restore 1082 187 pd rotate;
#X obj 1030 150 r rotate_left_\$0;
#X obj 1127 145 r rotate_right_\$0;
#X obj 213 107 bng 20 250 50 0 empty empty l 7 10 1 12 #000000 #7c7c7c #ffffff;
#X obj 236 107 bng 20 250 50 0 empty empty r 8 11 1 12 #000000 #7c7c7c #ffffff;
#X obj 211 -539 s rotate_left_\$0;
#X obj 234 -522 s rotate_right_\$0;
#N canvas 324 138 1390 970 handle_presets 1;
#X obj 1205 -11 f \$0;
#X obj 1271 -41 loadbang;
#X obj 1121 -11 pack 0 0 0;
#X obj 1041 191 f;
#X obj 1043 139 delay 400;
#X obj 399 -41 t f b;
#X obj 126 1057 tabwrite presets_\$0;
#X msg 433 562 \$1 1;
#X msg 435 537 \$1 0;
#X msg 432 583 \$1 2;
#X obj 292 132 f;
#X msg 432 604 \$1 3;
#X msg 433 628 \$1 4;
#X msg 438 651 \$1 5;
#X msg 435 673 \$1 6;
#X msg 431 698 \$1 7;
#X msg 431 721 \$1 8;
#X msg 433 741 \$1 9;
#X msg 430 765 \$1 10;
#X msg 430 790 \$1 11;
#X msg 431 815 \$1 12;
#X msg 430 840 \$1 13;
#X msg 430 869 \$1 14;
#X msg 430 890 \$1 15;
#X msg 432 914 \$1 16;
#X msg 436 937 \$1 17;
#X msg 433 959 \$1 18;
#X msg 429 982 \$1 19;
#X msg 429 1005 \$1 20;
#X msg 431 1025 \$1 21;
#X msg 428 1046 \$1 22;
#X msg 428 1068 \$1 23;
#X msg 429 1090 \$1 24;
#X msg 428 1112 \$1 25;
#X msg 428 1137 \$1 26;
#X msg 428 1158 \$1 27;
#X msg 431 1182 \$1 28;
#X msg 432 1204 \$1 29;
#X msg 431 1227 \$1 30;
#X msg 427 1250 \$1 31;
#X msg 427 1273 \$1 32;
#X msg 429 1293 \$1 33;
#X msg 426 1314 \$1 34;
#X msg 426 1336 \$1 35;
#X obj 813 674 route 0 1 2 3 4 5 6 7 8 9 10 11 12 13 14 15 16 17 18 19 20 21 22 23 24 25 26 27 28 29 30 31 32 33 34 35 36, f 132;
#X msg 426 1357 \$1 36;
#X obj 293 63 delay 400;
#X obj 802 266 delay 100;
#X obj 802 313 s write_play_\$0;
#X obj 479 559 r sel_octave_\$0;
#X obj 475 580 r sel_scale_\$0;
#X obj 472 603 r sel_tonality_\$0;
#X obj 817 717 s preset_sel_octave_\$0;
#X obj 822 734 s preset_sel_scale_\$0;
#X obj 829 750 s preset_sel_tonality_\$0;
#X obj 471 536 r seq_len_\$0;
#X obj 806 700 s preset_seq_len_\$0;
#X obj 965 1 f \$0;
#X msg 914 44 \; Seq0_\$1 const 0;
#X obj 1074 -39 t b f f b;
#X msg 915 75 \; Seq0_\$1 const 0;
#X obj 396 -73 r save_\$0;
#X obj 1011 -76 r load_\$0;
#X obj 1152 -40 r ID_\$0;
#X obj 959 612 r control_\$0;
#X obj 472 628 r set_preset_bpm_\$0;
#X obj 473 650 r set_preset_div_\$0;
#X obj 471 673 r set_preset_sync_\$0;
#X obj 474 698 r long_notes_\$0;
#X obj 469 720 r set_preset_var_retr_\$0;
#X obj 473 741 r set_preset_var_retramt_\$0;
#X obj 469 764 r set_preset_var_prob_\$0;
#X obj 472 791 r set_preset_var_keep_\$0;
#X obj 469 817 r set_preset_var_single_\$0;
#X obj 471 842 r set_preset_var_rnd_\$0;
#X obj 469 869 r set_preset_gen_dens_\$0;
#X obj 472 897 r set_preset_gen_first_\$0;
#X obj 471 916 r set_preset_gen_rnd_\$0;
#X obj 475 936 r set_preset_gen_nsel_\$0;
#X obj 476 960 r set_preset_gen_namt_\$0;
#X obj 471 983 r set_preset_gen_retr_\$0;
#X obj 470 1007 r set_preset_gen_retramt_\$0;
#X obj 470 1027 r set_preset_rem_prob_\$0;
#X obj 468 1049 r set_preset_rem_keep_\$0;
#X obj 464 1070 r set_preset_rem_single_\$0;
#X obj 468 1094 r set_preset_rem_retr_\$0;
#X obj 469 1112 r set_preset_rem_retramt_\$0;
#X obj 468 1136 r set_preset_agg_prob_\$0;
#X obj 466 1159 r set_preset_agg_keep_\$0;
#X obj 469 1183 r set_preset_agg_single_\$0;
#X obj 470 1226 r set_preset_agg_retr_\$0;
#X obj 467 1250 r set_preset_agg_retramt_\$0;
#X obj 842 795 s preset_bpm_\$0;
#X obj 843 817 s preset_div_\$0;
#X obj 841 840 s preset_sync_\$0;
#X obj 839 774 s preset_long_notes_\$0;
#X obj 839 887 s preset_var_retr_\$0;
#X obj 863 908 s preset_var_retramt_\$0;
#X obj 839 931 s preset_var_prob_\$0;
#X obj 842 958 s preset_var_keep_\$0;
#X obj 839 984 s preset_var_single_\$0;
#X obj 861 1009 s preset_var_rnd_\$0;
#X obj 839 1036 s preset_gen_dens_\$0;
#X obj 1046 744 s preset_gen_first_\$0;
#X obj 1075 763 s preset_gen_rnd_\$0;
#X obj 1049 783 s preset_gen_nsel_\$0;
#X obj 1080 807 s preset_gen_namt_\$0;
#X obj 1045 830 s preset_gen_retr_\$0;
#X obj 1074 854 s preset_gen_retramt_\$0;
#X obj 1044 874 s preset_rem_prob_\$0;
#X obj 1042 896 s preset_rem_keep_\$0;
#X obj 1038 917 s preset_rem_single_\$0;
#X obj 1042 941 s preset_rem_retr_\$0;
#X obj 1073 959 s preset_rem_retramt_\$0;
#X obj 1042 983 s preset_agg_prob_\$0;
#X obj 1040 1006 s preset_agg_keep_\$0;
#X obj 1043 1030 s preset_agg_single_\$0;
#X obj 1044 1073 s preset_agg_retr_\$0;
#X obj 1071 1097 s preset_agg_retramt_\$0;
#X obj 112 1375 s control_out_\$0;
#X obj 206 975 list;
#X obj 206 996 unpack 0 0;
#X obj -185 1216 t a b;
#X obj -187 1274 list trim;
#X obj -185 1249 list append;
#X obj -159 1112 r feedbk_scale_name_\$0;
#X obj -67 1143 r feedbk_tonality_name_\$0;
#X obj 2 1172 r feedbk_octave_name_\$0;
#X obj -87 1223 t a b;
#X obj -89 1281 list trim;
#X obj -87 1256 list append;
#X obj 11 1228 t a b;
#X obj 9 1286 list trim;
#X obj 11 1261 list append;
#X obj 1525 752 s ctrl_scale+_\$0;
#X obj 1539 770 s ctrl_scale-_\$0;
#X obj 1548 789 s ctrl_tonality+_\$0;
#X obj 1561 807 s ctrl_tonality-_\$0;
#X obj 1580 827 s ctrl_octave+_\$0;
#X obj 1601 847 s ctrl_octave-_\$0;
#X msg -122 1220 108;
#X msg -24 1227 109;
#X msg 74 1232 110;
#X obj 467 1205 r set_preset_agg_rnd_\$0;
#X obj 1071 1052 s preset_agg_rnd_\$0;
#X obj 842 909 i;
#X obj 835 1008 i;
#X obj 1055 807 i;
#X obj 1051 764 i;
#X obj 1048 856 i;
#X obj 1049 960 i;
#X obj 1049 1054 i;
#X obj 1046 1099 i;
#X obj 1709 785 s ctrl_gen_go_\$0;
#X obj 1716 807 s ctrl_var_go_\$0;
#X obj 1723 828 s ctrl_rem_go_\$0;
#X obj 1735 851 s ctrl_add_go_\$0;
#X obj -269 812 array size;
#X obj -269 832 until;
#X obj -269 852 i;
#X obj -245 851 + 1;
#X msg -207 808 0;
#X obj -269 785 t b b b;
#X obj -269 902 array get;
#X msg -206 843 1;
#X obj -269 877 t f f;
#X obj -253 760 bng 15 250 50 0 empty empty empty 0 -8 0 8 #fcfcfc #000000 #000000;
#X obj -216 754 f \$0;
#X msg -212 777 symbol Seq2_\$1;
#X obj -269 928 sel 0, f 6;
#X msg -273 957 0;
#X msg -248 956 1;
#X obj -248 675 r dump_seq_\$0;
#X obj 80 749 r play_index_\$0;
#X msg 123 852 0;
#X obj 134 818 r rst_\$0;
#X obj 126 937 f;
#X obj 1757 873 s ctrl_rotate_left_\$0;
#X obj 1774 890 s ctrl_rotate_right_\$0;
#X obj 1439 709 route 100 101 102 103 104 105 106 107 111 112 113 114 115 116 117 118, f 76;
#X obj -234 1018 pack 0 100 0;
#X obj 66 989 pack 0 112 0;
#X msg 75 943 0;
#X msg 42 945 1;
#X msg 94 970 112;
#X obj 67 885 t b f b f b b;
#X obj -164 939 until;
#X obj -164 965 i;
#X obj -140 965 + 1;
#X obj -163 892 t b b;
#X msg -128 933 0;
#X msg -164 921 32;
#X obj -161 872 bng 15 250 50 0 empty empty empty 0 -8 0 8 #fcfcfc #000000 #000000;
#X obj -242 704 t b b b;
#X obj -275 982 t b f;
#X obj -249 640 bng 15 250 50 0 empty empty empty 0 -8 0 8 #fcfcfc #000000 #000000;
#X obj -303 1018 pack 0 111 0;
#X msg -164 993 1 111 \$1;
#X msg -297 999 0;
#X obj 712 -67 table presets_\$0 40;
#X obj 995 292 r ID_\$0;
#X obj 317 169 r ID_\$0;
#X text 311 234 set n of presets;
#X obj 912 234 t b f;
#X obj 970 345 load_preset presets_\$0;
#X obj 297 208 save_preset presets_\$0 32;
#X obj 1387 49 r ID_\$0;
#X obj 1232 135 r ID_\$0;
#X obj 427 62 r ID_\$0;
#X text 421 127 set n of presets;
#X obj 1362 102 load_preset Seq0_\$0 _seq;
#X obj 1207 188 load_preset Seq1_\$0 _seq;
#X obj 396 -14 t b f f;
#X obj 407 101 save_preset Seq0_\$0 32 _seq;
#X obj 1430 49 r current_path_\$0;
#X obj 382 169 r current_path_\$0;
#X obj 1038 292 r current_path_\$0;
#X obj 492 62 r current_path_\$0;
#X obj 1275 135 r current_path_\$0;
#X obj 1164 385 r load_init_\$0;
#X obj 1154 455 load_init presets_\$0 melodic_seq_abs;
#X connect 0 0 2 2;
#X connect 1 0 0 0;
#X connect 2 0 210 0;
#X connect 2 0 211 0;
#X connect 3 0 203 0;
#X connect 4 0 3 0;
#X connect 5 0 212 0;
#X connect 7 0 120 0;
#X connect 8 0 120 0;
#X connect 9 0 120 0;
#X connect 10 0 205 0;
#X connect 11 0 120 0;
#X connect 12 0 120 0;
#X connect 13 0 120 0;
#X connect 14 0 120 0;
#X connect 15 0 120 0;
#X connect 16 0 120 0;
#X connect 17 0 120 0;
#X connect 18 0 120 0;
#X connect 19 0 120 0;
#X connect 20 0 120 0;
#X connect 21 0 120 0;
#X connect 22 0 120 0;
#X connect 23 0 120 0;
#X connect 24 0 120 0;
#X connect 25 0 120 0;
#X connect 26 0 120 0;
#X connect 27 0 120 0;
#X connect 28 0 120 0;
#X connect 29 0 120 0;
#X connect 30 0 120 0;
#X connect 31 0 120 0;
#X connect 32 0 120 0;
#X connect 33 0 120 0;
#X connect 34 0 120 0;
#X connect 35 0 120 0;
#X connect 36 0 120 0;
#X connect 37 0 120 0;
#X connect 38 0 120 0;
#X connect 39 0 120 0;
#X connect 40 0 120 0;
#X connect 41 0 120 0;
#X connect 42 0 120 0;
#X connect 43 0 120 0;
#X connect 44 0 56 0;
#X connect 44 1 52 0;
#X connect 44 2 53 0;
#X connect 44 3 54 0;
#X connect 44 4 92 0;
#X connect 44 5 93 0;
#X connect 44 6 94 0;
#X connect 44 7 95 0;
#X connect 44 8 96 0;
#X connect 44 9 145 0;
#X connect 44 10 98 0;
#X connect 44 11 99 0;
#X connect 44 12 100 0;
#X connect 44 13 146 0;
#X connect 44 14 102 0;
#X connect 44 15 103 0;
#X connect 44 16 148 0;
#X connect 44 17 105 0;
#X connect 44 18 147 0;
#X connect 44 19 107 0;
#X connect 44 20 149 0;
#X connect 44 21 109 0;
#X connect 44 22 110 0;
#X connect 44 23 111 0;
#X connect 44 24 112 0;
#X connect 44 25 150 0;
#X connect 44 26 114 0;
#X connect 44 27 115 0;
#X connect 44 28 116 0;
#X connect 44 29 151 0;
#X connect 44 30 117 0;
#X connect 44 31 152 0;
#X connect 44 37 179 0;
#X connect 45 0 120 0;
#X connect 46 0 10 0;
#X connect 47 0 48 0;
#X connect 49 0 7 0;
#X connect 50 0 9 0;
#X connect 51 0 11 0;
#X connect 55 0 8 0;
#X connect 57 0 58 0;
#X connect 57 0 60 0;
#X connect 59 0 4 0;
#X connect 59 2 2 0;
#X connect 59 2 3 1;
#X connect 59 3 57 0;
#X connect 61 0 5 0;
#X connect 62 0 59 0;
#X connect 63 0 2 1;
#X connect 64 0 44 0;
#X connect 65 0 12 0;
#X connect 66 0 13 0;
#X connect 67 0 14 0;
#X connect 68 0 15 0;
#X connect 69 0 16 0;
#X connect 70 0 17 0;
#X connect 71 0 18 0;
#X connect 72 0 19 0;
#X connect 73 0 20 0;
#X connect 74 0 21 0;
#X connect 75 0 22 0;
#X connect 76 0 23 0;
#X connect 77 0 24 0;
#X connect 78 0 25 0;
#X connect 79 0 26 0;
#X connect 80 0 27 0;
#X connect 81 0 28 0;
#X connect 82 0 29 0;
#X connect 83 0 30 0;
#X connect 84 0 31 0;
#X connect 85 0 32 0;
#X connect 86 0 33 0;
#X connect 87 0 34 0;
#X connect 88 0 35 0;
#X connect 89 0 36 0;
#X connect 90 0 38 0;
#X connect 91 0 39 0;
#X connect 120 0 121 0;
#X connect 120 0 119 0;
#X connect 121 0 6 0;
#X connect 121 1 6 1;
#X connect 122 0 124 0;
#X connect 122 1 140 0;
#X connect 123 0 119 0;
#X connect 124 0 123 0;
#X connect 125 0 122 0;
#X connect 126 0 128 0;
#X connect 127 0 131 0;
#X connect 128 0 130 0;
#X connect 128 1 141 0;
#X connect 129 0 119 0;
#X connect 130 0 129 0;
#X connect 131 0 133 0;
#X connect 131 1 142 0;
#X connect 132 0 119 0;
#X connect 133 0 132 0;
#X connect 140 0 124 1;
#X connect 141 0 130 1;
#X connect 142 0 133 1;
#X connect 143 0 37 0;
#X connect 145 0 97 0;
#X connect 146 0 101 0;
#X connect 147 0 106 0;
#X connect 148 0 104 0;
#X connect 149 0 108 0;
#X connect 150 0 113 0;
#X connect 151 0 144 0;
#X connect 152 0 118 0;
#X connect 157 0 158 0;
#X connect 158 0 159 0;
#X connect 159 0 160 0;
#X connect 159 0 165 0;
#X connect 160 0 159 1;
#X connect 161 0 159 1;
#X connect 161 0 164 0;
#X connect 162 0 157 0;
#X connect 162 1 161 0;
#X connect 162 2 167 0;
#X connect 163 0 169 0;
#X connect 164 0 163 1;
#X connect 165 0 163 0;
#X connect 165 1 180 2;
#X connect 165 1 196 2;
#X connect 166 0 162 0;
#X connect 167 0 168 0;
#X connect 168 0 157 1;
#X connect 168 0 163 2;
#X connect 169 0 170 0;
#X connect 169 1 171 0;
#X connect 170 0 194 0;
#X connect 171 0 194 0;
#X connect 172 0 193 0;
#X connect 173 0 185 0;
#X connect 174 0 176 1;
#X connect 174 0 185 0;
#X connect 175 0 174 0;
#X connect 176 0 181 2;
#X connect 179 2 134 0;
#X connect 179 3 135 0;
#X connect 179 4 136 0;
#X connect 179 5 137 0;
#X connect 179 6 138 0;
#X connect 179 7 139 0;
#X connect 179 10 153 0;
#X connect 179 11 154 0;
#X connect 179 12 155 0;
#X connect 179 13 156 0;
#X connect 179 14 177 0;
#X connect 179 15 178 0;
#X connect 180 0 119 0;
#X connect 181 0 119 0;
#X connect 182 0 181 0;
#X connect 183 0 181 0;
#X connect 184 0 181 1;
#X connect 185 0 183 0;
#X connect 185 1 181 2;
#X connect 185 3 176 1;
#X connect 185 4 182 0;
#X connect 185 5 176 0;
#X connect 186 0 187 0;
#X connect 187 0 188 0;
#X connect 187 0 197 0;
#X connect 188 0 187 1;
#X connect 189 0 191 0;
#X connect 189 1 190 0;
#X connect 190 0 187 1;
#X connect 191 0 186 0;
#X connect 192 0 189 0;
#X connect 193 0 166 0;
#X connect 193 1 192 0;
#X connect 194 0 198 0;
#X connect 194 1 180 0;
#X connect 195 0 193 0;
#X connect 196 0 119 0;
#X connect 197 0 119 0;
#X connect 198 0 196 0;
#X connect 200 0 204 1;
#X connect 201 0 205 1;
#X connect 203 0 47 0;
#X connect 203 1 204 0;
#X connect 204 0 44 0;
#X connect 206 0 210 1;
#X connect 207 0 211 1;
#X connect 208 0 213 1;
#X connect 212 0 46 0;
#X connect 212 1 10 1;
#X connect 212 2 213 0;
#X connect 214 0 210 2;
#X connect 215 0 205 2;
#X connect 216 0 204 2;
#X connect 217 0 213 2;
#X connect 218 0 211 2;
#X connect 219 0 220 0;
#X connect 220 0 44 0;
#X restore 305 -814 pd handle_presets;
#X obj 624 -286 pack 0 0;
#X msg 686 -229 \; Seq1_\$2 resize \$1;
#X msg 703 -258 \; Seq0_\$2 resize \$1;
#X msg 675 -187 \; Seq2_\$2 resize \$1;
#X obj 647 -348 r id_\$0;
#X msg 1475 399 64;
#X obj 1520 401 s prob_load_\$0;
#X obj 264 110 nbx 2 14 2 32 0 0 empty empty len 28 8 1 8 #fcfcfc #000000 #000000 0 256;
#X obj 264 -630 r preset_seq_len_\$0;
#X obj 5 406 r seq_len_\$0;
#X obj 645 -318 t b f;
#X obj 287 -645 delay 1;
#X obj 187 -131 r write_play_\$0;
#X obj 273 -400 r preset_sel_octave_\$0;
#X obj 229 -474 r preset_sel_scale_\$0;
#X obj 253 -437 r preset_sel_tonality_\$0;
#X obj 291 -335 r id_\$0;
#X msg 291 -319 symbol Seq1_\$1;
#X msg 290 -302 symbol Seq2_\$1;
#X obj 203 131 to_tonality;
#X obj 230 -460 s sel_scale_\$0;
#X obj 253 -421 s sel_tonality_\$0;
#X obj 273 -388 s sel_octave_\$0;
#X obj 38 715 moses 1;
#X obj 627 124 cnv 10 200 10 empty first_beat_\$0 empty 20 12 0 8 #000000 #404040 0;
#X obj 93 500 f \$0;
#X obj 57 532 f \$0;
#X obj 37 469 sel 0;
#X obj 58 492 bng 15 250 50 0 empty empty empty 0 -8 0 8 #fcfcfc #000000 #000000;
#X msg 62 559 \; first_beat_\$1 color 22;
#X msg 96 525 \; first_beat_\$1 color 10;
#X msg 24 803 \$1 127;
#X obj 83 803 i;
#X msg 81 836 \$1 0;
#X text 46 820 previous note off;
#X obj 29 754 t f b;
#X msg 129 785 0;
#X obj 120 740 loadbang;
#X text -164 1127 notes;
#X obj 179 887 bng 15 250 50 0 empty empty empty 0 -8 0 8 #fcfcfc #000000 #000000;
#X obj 180 200 tgl 15 0 empty empty empty 0 -8 0 8 #fcfcfc #000000 #000000 0 1;
#X obj -95 576 spigot;
#X msg -136 842 \$1 127;
#X obj -91 727 i;
#X msg -84 843 \$1 0;
#X msg -63 685 0;
#X obj -74 652 loadbang;
#X obj -175 592 moses 1;
#X obj -137 639 t f b b;
#X obj -212 784 spigot;
#X obj -90 801 spigot;
#X obj -211 728 i;
#X msg -179 842 \$1 0;
#X msg -180 751 0;
#X obj -212 809 t b f;
#X obj -208 683 bng 15 250 50 0 empty empty empty 0 -8 0 8 #fcfcfc #000000 #000000;
#X obj -143 725 t b f;
#X msg -151 751 1;
#X msg -49 751 1;
#X msg -81 752 0;
#X obj -31 725 loadbang;
#X obj -22 576 spigot;
#X obj -67 547 == 0;
#X obj -119 153 loadbang;
#X msg -143 154 1;
#X obj -144 169 s long_notes_\$0;
#X obj -55 486 r long_notes_\$0;
#X obj -56 514 t f b;
#X text 154 199 hold;
#X obj 223 395 bng 15 250 50 0 empty empty empty 0 -8 0 8 #fcfcfc #000000 #000000;
#X obj 216 435 s rebuild_sequence_\$0;
#X obj 175 -145 r rebuild_sequence_\$0;
#X obj 218 418 delay 100;
#X obj 340 -367 loadbang;
#X obj 324 -351 delay 1000;
#X obj 324 -366 bng 15 250 50 0 empty empty empty 0 -8 0 8 #fcfcfc #000000 #000000;
#X text 933 358 Ci sono 3 tabelle: seq0 è l'originale che viene generata ogni volta che si preme "generate". Seq1 è una tabella che viene modificata aggiungendo o togliendo elementi dalla tabella stessa o partendo dalla tabella originale. La tabella 2 è trasposta in tonalità \, è quella che viene mostrata e che viene suonata;
#X obj 972 -45 table Seq1_\$0 32;
#X obj 969 -100 table Seq0_\$0 32;
#N canvas 474 229 952 743 retrig_every 0;
#X obj 75 173 i;
#X obj 103 173 + 1;
#X obj 196 117 r bang_\$0;
#X obj 75 147 bng 18 250 50 0 empty empty empty 0 -9 0 10 #fcfcfc #000000 #000000;
#X msg 102 148 0;
#X obj 132 148 r rst_\$0;
#X obj 75 196 %;
#X obj 75 221 sel 0;
#X obj 120 198 - 1;
#X obj 75 124 spigot;
#X obj 75 269 outlet;
#X obj 113 37 inlet;
#X obj 158 38 inlet;
#X obj 176 63 t b f;
#X obj 217 77 r seq_len_\$0;
#X obj 133 102 *;
#X connect 0 0 1 0;
#X connect 0 0 6 0;
#X connect 1 0 0 1;
#X connect 2 0 9 0;
#X connect 3 0 0 0;
#X connect 4 0 0 1;
#X connect 5 0 4 0;
#X connect 6 0 7 0;
#X connect 7 0 10 0;
#X connect 8 0 7 1;
#X connect 9 0 3 0;
#X connect 11 0 9 1;
#X connect 12 0 15 0;
#X connect 13 0 15 0;
#X connect 13 1 15 1;
#X connect 14 0 13 0;
#X connect 15 0 8 0;
#X connect 15 0 6 1;
#X restore 323 67 pd retrig_every;
#X obj 334 105 tgl 15 0 empty empty empty 0 -8 0 8 #fcfcfc #000000 #000000 0 1;
#X obj 351 106 nbx 2 14 1 1e+37 0 0 empty empty retrig 27 8 1 8 #000000 #ffffff #7c7c7c 0 256;
#X obj -9 227 s bang_\$0;
#X obj -10 248 s rst_\$0;
#N canvas 474 229 952 743 retrig_every 0;
#X obj 75 173 i;
#X obj 103 173 + 1;
#X obj 196 117 r bang_\$0;
#X obj 75 147 bng 18 250 50 0 empty empty empty 0 -9 0 10 #fcfcfc #000000 #000000;
#X msg 102 148 0;
#X obj 132 148 r rst_\$0;
#X obj 75 196 %;
#X obj 75 221 sel 0;
#X obj 120 198 - 1;
#X obj 75 124 spigot;
#X obj 75 269 outlet;
#X obj 113 37 inlet;
#X obj 158 38 inlet;
#X obj 176 63 t b f;
#X obj 217 77 r seq_len_\$0;
#X obj 133 102 *;
#X connect 0 0 1 0;
#X connect 0 0 6 0;
#X connect 1 0 0 1;
#X connect 2 0 9 0;
#X connect 3 0 0 0;
#X connect 4 0 0 1;
#X connect 5 0 4 0;
#X connect 6 0 7 0;
#X connect 7 0 10 0;
#X connect 8 0 7 1;
#X connect 9 0 3 0;
#X connect 11 0 9 1;
#X connect 12 0 15 0;
#X connect 13 0 15 0;
#X connect 13 1 15 1;
#X connect 14 0 13 0;
#X connect 15 0 8 0;
#X connect 15 0 6 1;
#X restore 403 70 pd retrig_every;
#X obj 402 105 tgl 15 0 empty empty empty 0 -8 0 8 #fcfcfc #000000 #000000 0 1;
#X obj 419 106 nbx 2 14 1 1e+37 0 0 empty empty retrig 27 8 1 8 #000000 #ffffff #7c7c7c 0 256;
#N canvas 474 229 952 743 retrig_every 0;
#X obj 75 173 i;
#X obj 103 173 + 1;
#X obj 196 117 r bang_\$0;
#X obj 75 147 bng 18 250 50 0 empty empty empty 0 -9 0 10 #fcfcfc #000000 #000000;
#X msg 102 148 0;
#X obj 132 148 r rst_\$0;
#X obj 75 196 %;
#X obj 75 221 sel 0;
#X obj 120 198 - 1;
#X obj 75 124 spigot;
#X obj 75 269 outlet;
#X obj 113 37 inlet;
#X obj 158 38 inlet;
#X obj 176 63 t b f;
#X obj 217 77 r seq_len_\$0;
#X obj 133 102 *;
#X connect 0 0 1 0;
#X connect 0 0 6 0;
#X connect 1 0 0 1;
#X connect 2 0 9 0;
#X connect 3 0 0 0;
#X connect 4 0 0 1;
#X connect 5 0 4 0;
#X connect 6 0 7 0;
#X connect 7 0 10 0;
#X connect 8 0 7 1;
#X connect 9 0 3 0;
#X connect 11 0 9 1;
#X connect 12 0 15 0;
#X connect 13 0 15 0;
#X connect 13 1 15 1;
#X connect 14 0 13 0;
#X connect 15 0 8 0;
#X connect 15 0 6 1;
#X restore 476 48 pd retrig_every;
#X obj 475 104 tgl 15 0 empty empty empty 0 -8 0 8 #fcfcfc #000000 #000000 0 1;
#X obj 492 105 nbx 2 14 1 1e+37 0 0 empty empty retrig 27 8 1 8 #000000 #ffffff #7c7c7c 0 256;
#N canvas 474 229 952 743 retrig_every 0;
#X obj 75 173 i;
#X obj 103 173 + 1;
#X obj 196 117 r bang_\$0;
#X obj 75 147 bng 18 250 50 0 empty empty empty 0 -9 0 10 #fcfcfc #000000 #000000;
#X msg 102 148 0;
#X obj 132 148 r rst_\$0;
#X obj 75 196 %;
#X obj 75 221 sel 0;
#X obj 120 198 - 1;
#X obj 75 124 spigot;
#X obj 75 269 outlet;
#X obj 113 37 inlet;
#X obj 158 38 inlet;
#X obj 176 63 t b f;
#X obj 217 77 r seq_len_\$0;
#X obj 133 102 *;
#X connect 0 0 1 0;
#X connect 0 0 6 0;
#X connect 1 0 0 1;
#X connect 2 0 9 0;
#X connect 3 0 0 0;
#X connect 4 0 0 1;
#X connect 5 0 4 0;
#X connect 6 0 7 0;
#X connect 7 0 10 0;
#X connect 8 0 7 1;
#X connect 9 0 3 0;
#X connect 11 0 9 1;
#X connect 12 0 15 0;
#X connect 13 0 15 0;
#X connect 13 1 15 1;
#X connect 14 0 13 0;
#X connect 15 0 8 0;
#X connect 15 0 6 1;
#X restore 548 69 pd retrig_every;
#X obj 544 105 tgl 15 0 empty empty empty 0 -8 0 8 #fcfcfc #000000 #000000 0 1;
#X obj 561 106 nbx 2 14 1 1e+37 0 0 empty empty retrig 27 8 1 8 #000000 #ffffff #7c7c7c 0 256;
#X text 1113 -201 id_\$0 e ID_\$0 sono due cose diverse. id in minuscolo è l'identificativo della patch \, ID in maiuscolo è la cartella per salvare i preset!;
#X obj 1133 -31 s id_\$0;
#X obj 1137 -87 loadbang;
#X obj 1131 -53 f \$0;
#X obj 264 -614 s seq_len_\$0;
#X obj 627 -373 r seq_len_\$0;
#X obj 210 -555 r ctrl_rotate_left_\$0;
#X obj 236 -506 r ctrl_rotate_right_\$0;
#X obj 324 255 s set_preset_gen_dens_\$0;
#X obj 341 276 s set_preset_gen_first_\$0;
#X obj 358 294 s set_preset_gen_rnd_\$0;
#X obj 376 314 s set_preset_gen_nsel_\$0;
#X obj 391 332 s set_preset_gen_namt_\$0;
#X obj 331 351 s set_preset_gen_retr_\$0;
#X obj 346 369 s set_preset_gen_retramt_\$0;
#X obj 330 493 r preset_gen_retr_\$0;
#X obj 345 511 r preset_gen_retramt_\$0;
#X obj 336 398 r preset_gen_dens_\$0;
#X obj 353 419 r preset_gen_first_\$0;
#X obj 370 437 r preset_gen_rnd_\$0;
#X obj 388 457 r preset_gen_nsel_\$0;
#X obj 403 475 r preset_gen_namt_\$0;
#X obj 406 -48 s set_preset_var_prob_\$0;
#X obj 423 -27 s set_preset_var_keep_\$0;
#X obj 440 -9 s set_preset_var_single_\$0;
#X obj 458 11 s set_preset_var_rnd_\$0;
#X obj 411 -133 r preset_var_prob_\$0;
#X obj 428 -112 r preset_var_keep_\$0;
#X obj 445 -94 r preset_var_single_\$0;
#X obj 463 -74 r preset_var_rnd_\$0;
#X obj 491 269 s set_preset_rem_prob_\$0;
#X obj 508 290 s set_preset_rem_keep_\$0;
#X obj 525 308 s set_preset_rem_single_\$0;
#X obj 400 -178 r preset_var_retr_\$0;
#X obj 427 -157 r preset_var_retramt_\$0;
#X obj 401 -218 s set_preset_var_retr_\$0;
#X obj 428 -197 s set_preset_var_retramt_\$0;
#X obj 527 337 s set_preset_rem_retr_\$0;
#X obj 554 358 s set_preset_rem_retramt_\$0;
#X obj 526 377 r preset_rem_retr_\$0;
#X obj 553 398 r preset_rem_retramt_\$0;
#X obj 513 417 r preset_rem_prob_\$0;
#X obj 530 438 r preset_rem_keep_\$0;
#X obj 547 456 r preset_rem_single_\$0;
#X obj 668 275 s set_preset_agg_prob_\$0;
#X obj 685 296 s set_preset_agg_keep_\$0;
#X obj 674 1 r preset_agg_prob_\$0;
#X obj 691 22 r preset_agg_keep_\$0;
#X obj 619 -83 s set_preset_agg_retr_\$0;
#X obj 646 -62 s set_preset_agg_retramt_\$0;
#X obj 618 -43 r preset_agg_retr_\$0;
#X obj 645 -22 r preset_agg_retramt_\$0;
#X obj -140 137 r preset_long_notes_\$0;
#X obj 161 21 r preset_bpm_\$0;
#X obj 136 36 r preset_div_\$0;
#X obj 110 55 r preset_sync_\$0;
#X obj 164 297 s set_preset_bpm_\$0;
#X obj 139 312 s set_preset_div_\$0;
#X obj 113 331 s set_preset_sync_\$0;
#X obj 172 961 r control_out_\$0;
#X obj 171 1089 outlet;
#X obj 284 541 s feedbk_scale_name_\$0;
#X obj 295 560 s feedbk_tonality_name_\$0;
#X obj 308 577 s feedbk_octave_name_\$0;
#X obj 233 -82 r ctrl_scale+_\$0;
#X obj 243 -72 r ctrl_scale-_\$0;
#X obj 258 -43 r ctrl_tonality+_\$0;
#X obj 268 -33 r ctrl_tonality-_\$0;
#X obj 286 -6 r ctrl_octave+_\$0;
#X obj 296 4 r ctrl_octave-_\$0;
#X obj 708 40 r preset_agg_single_\$0;
#X obj 724 58 r preset_agg_rnd_\$0;
#X obj 718 332 s set_preset_agg_rnd_\$0;
#X obj 702 314 s set_preset_agg_single_\$0;
#X obj 342 43 r ctrl_gen_go_\$0;
#X obj 463 30 r ctrl_var_go_\$0;
#X obj 554 35 r ctrl_rem_go_\$0;
#X obj 582 51 r ctrl_add_go_\$0;
#X obj 1194 -2 bng 15 250 50 0 empty empty empty 0 -8 0 8 #fcfcfc #000000 #000000;
#X obj -201 420 s play_index_\$0;
#X obj 186 379 s dump_seq_\$0;
#X obj 186 357 bng 15 250 50 0 empty empty empty 0 -8 0 8 #fcfcfc #000000 #000000;
#X obj 86 429 s dump_seq_\$0;
#X obj 77 404 bng 15 250 50 0 empty empty empty 0 -8 0 8 #fcfcfc #000000 #000000;
#X obj -184 -128 s save_\$0;
#X msg -190 -172 0;
#X text -195 -196 click to save as init;
#X msg -18 1070 all_notes_off;
#X text 174 1112 osc;
#X obj -204 -852 inlet;
#X obj -13 -769 s save_\$0;
#X obj -66 -769 s load_\$0;
#X obj -110 -769 s ID_\$0;
#X text -207 -877 internal_in;
#X obj 68 -738 s control_\$0;
#X obj 68 -759 route name;
#X obj 171 1063 oscformat;
#X obj 172 985 list split 1;
#X obj 204 1031 list trim;
#X obj 273 985 r osc_name_\$0;
#X obj 204 1009 list prepend;
#X obj 273 1030 list trim;
#X obj 273 1008 list prepend set;
#X obj 107 -778 r osc_name_\$0;
#X obj 16 -789 s osc_name_\$0;
#X obj 304 -833 declare -path ./commons;
#X obj 122 -799 s current_path_\$0;
#X obj 32 -15 r ext_bang_\$0;
#X obj 66 9 r ext_rst_\$0;
#X obj -204 -762 s ext_bang_\$0;
#X obj -170 -738 s ext_rst_\$0;
#X obj 198 849 r ext_rst_\$0;
#X obj -203 -826 route bang_bpm rst instance_id load save osc_name osc current_path load_init, f 93;
#X obj 228 -793 s load_init_\$0;
#X connect 0 0 1 0;
#X connect 0 0 2 0;
#X connect 1 0 0 1;
#X connect 2 0 20 0;
#X connect 2 0 66 0;
#X connect 2 0 211 0;
#X connect 3 0 162 0;
#X connect 3 1 163 0;
#X connect 3 2 164 0;
#X connect 4 0 176 0;
#X connect 4 1 177 0;
#X connect 4 2 205 0;
#X connect 4 3 204 0;
#X connect 5 0 154 0;
#X connect 5 1 155 0;
#X connect 5 2 156 0;
#X connect 5 3 157 0;
#X connect 6 0 140 0;
#X connect 6 1 141 0;
#X connect 6 2 142 0;
#X connect 6 3 143 0;
#X connect 6 4 144 0;
#X connect 7 0 8 0;
#X connect 8 0 9 0;
#X connect 8 0 21 0;
#X connect 9 0 22 0;
#X connect 9 0 23 0;
#X connect 10 0 50 0;
#X connect 11 0 46 0;
#X connect 15 0 17 0;
#X connect 15 0 18 0;
#X connect 15 0 19 0;
#X connect 16 0 15 0;
#X connect 20 0 80 0;
#X connect 20 0 100 0;
#X connect 23 0 25 0;
#X connect 23 0 24 0;
#X connect 24 0 26 0;
#X connect 24 0 44 0;
#X connect 27 0 28 0;
#X connect 27 0 121 0;
#X connect 27 1 29 0;
#X connect 27 1 122 0;
#X connect 27 3 190 0;
#X connect 27 3 78 0;
#X connect 27 4 189 0;
#X connect 27 5 188 0;
#X connect 28 0 0 0;
#X connect 29 0 0 1;
#X connect 32 0 31 0;
#X connect 33 0 31 1;
#X connect 34 0 36 0;
#X connect 35 0 37 0;
#X connect 39 0 40 0;
#X connect 39 0 42 0;
#X connect 39 0 41 0;
#X connect 43 0 49 0;
#X connect 44 0 45 0;
#X connect 46 0 136 0;
#X connect 47 0 46 0;
#X connect 48 0 2 1;
#X connect 48 0 215 0;
#X connect 49 0 39 0;
#X connect 49 1 39 1;
#X connect 50 0 11 0;
#X connect 51 0 58 0;
#X connect 52 0 58 3;
#X connect 53 0 58 1;
#X connect 54 0 58 2;
#X connect 55 0 56 0;
#X connect 55 0 57 0;
#X connect 56 0 58 4;
#X connect 57 0 58 5;
#X connect 58 0 213 0;
#X connect 58 1 59 0;
#X connect 58 1 108 0;
#X connect 58 2 60 0;
#X connect 58 2 108 0;
#X connect 58 3 61 0;
#X connect 58 3 108 0;
#X connect 58 4 193 0;
#X connect 58 5 194 0;
#X connect 58 6 195 0;
#X connect 62 1 74 0;
#X connect 64 0 69 0;
#X connect 65 0 68 0;
#X connect 66 0 65 0;
#X connect 66 1 67 0;
#X connect 67 0 64 0;
#X connect 70 0 30 0;
#X connect 71 0 72 0;
#X connect 72 0 30 0;
#X connect 74 0 71 1;
#X connect 74 0 70 0;
#X connect 74 1 71 0;
#X connect 75 0 71 1;
#X connect 76 0 75 0;
#X connect 78 0 71 0;
#X connect 78 0 219 0;
#X connect 79 0 104 0;
#X connect 80 0 86 0;
#X connect 81 0 30 0;
#X connect 82 0 89 0;
#X connect 83 0 30 0;
#X connect 84 0 82 1;
#X connect 84 0 90 1;
#X connect 85 0 84 0;
#X connect 86 0 94 0;
#X connect 86 1 87 0;
#X connect 87 0 82 1;
#X connect 87 0 90 1;
#X connect 87 0 95 0;
#X connect 87 2 82 0;
#X connect 88 0 93 0;
#X connect 89 0 83 0;
#X connect 90 0 88 0;
#X connect 91 0 30 0;
#X connect 92 0 88 1;
#X connect 93 0 92 0;
#X connect 93 0 98 0;
#X connect 93 1 91 0;
#X connect 94 0 90 0;
#X connect 95 0 96 0;
#X connect 95 0 97 0;
#X connect 95 1 81 0;
#X connect 96 0 88 1;
#X connect 97 0 89 1;
#X connect 98 0 89 1;
#X connect 99 0 98 0;
#X connect 99 0 92 0;
#X connect 100 0 62 0;
#X connect 101 0 80 1;
#X connect 102 0 103 0;
#X connect 103 0 79 0;
#X connect 105 0 106 0;
#X connect 106 0 101 0;
#X connect 106 0 100 1;
#X connect 106 1 78 0;
#X connect 108 0 111 0;
#X connect 110 0 58 0;
#X connect 111 0 109 0;
#X connect 112 0 114 0;
#X connect 113 0 6 0;
#X connect 114 0 113 0;
#X connect 118 0 6 0;
#X connect 119 0 118 0;
#X connect 119 0 145 0;
#X connect 120 0 118 1;
#X connect 120 0 146 0;
#X connect 123 0 5 0;
#X connect 124 0 123 0;
#X connect 124 0 167 0;
#X connect 125 0 123 1;
#X connect 125 0 168 0;
#X connect 126 0 3 0;
#X connect 127 0 126 0;
#X connect 127 0 169 0;
#X connect 128 0 126 1;
#X connect 128 0 170 0;
#X connect 129 0 4 0;
#X connect 130 0 129 0;
#X connect 130 0 180 0;
#X connect 131 0 129 1;
#X connect 131 0 181 0;
#X connect 134 0 135 0;
#X connect 135 0 133 0;
#X connect 137 0 39 0;
#X connect 138 0 34 0;
#X connect 139 0 35 0;
#X connect 147 0 119 0;
#X connect 148 0 120 0;
#X connect 149 0 6 1;
#X connect 150 0 6 2;
#X connect 151 0 6 3;
#X connect 152 0 6 4;
#X connect 153 0 6 5;
#X connect 158 0 5 1;
#X connect 159 0 5 2;
#X connect 160 0 5 3;
#X connect 161 0 5 4;
#X connect 165 0 124 0;
#X connect 166 0 125 0;
#X connect 171 0 127 0;
#X connect 172 0 128 0;
#X connect 173 0 3 1;
#X connect 174 0 3 2;
#X connect 175 0 3 3;
#X connect 178 0 4 1;
#X connect 179 0 4 2;
#X connect 182 0 130 0;
#X connect 183 0 131 0;
#X connect 184 0 79 0;
#X connect 185 0 27 5;
#X connect 186 0 27 4;
#X connect 187 0 27 3;
#X connect 191 0 229 0;
#X connect 196 0 58 6;
#X connect 197 0 58 7;
#X connect 198 0 58 8;
#X connect 199 0 58 9;
#X connect 200 0 58 10;
#X connect 201 0 58 11;
#X connect 202 0 4 3;
#X connect 203 0 4 4;
#X connect 206 0 6 0;
#X connect 207 0 5 0;
#X connect 208 0 3 0;
#X connect 209 0 4 0;
#X connect 210 0 135 0;
#X connect 213 0 212 0;
#X connect 215 0 214 0;
#X connect 217 0 216 0;
#X connect 219 0 30 0;
#X connect 221 0 244 0;
#X connect 227 0 226 0;
#X connect 228 0 192 0;
#X connect 229 0 228 0;
#X connect 229 1 232 0;
#X connect 230 0 228 0;
#X connect 231 0 234 0;
#X connect 232 0 230 0;
#X connect 233 0 232 1;
#X connect 234 0 233 0;
#X connect 235 0 227 1;
#X connect 239 0 27 0;
#X connect 240 0 27 1;
#X connect 243 0 78 0;
#X connect 244 0 241 0;
#X connect 244 1 242 0;
#X connect 244 2 224 0;
#X connect 244 3 223 0;
#X connect 244 4 222 0;
#X connect 244 5 236 0;
#X connect 244 6 227 0;
#X connect 244 7 238 0;
#X connect 244 8 245 0;
#X coords 0 -1 1 1 730 140 2 100 100;
