#N canvas 66 241 1390 788 12;
#X text 420 118 ext_rst;
#X obj 440 146 r rst;
#X obj 667 144 r control;
#X text 673 119 control;
#X obj 136 265 melodic_seq;
#X obj 123 484 s note_out;
#X obj 270 486 s all_notes_off;
#X text 302 117 ext_bpm;
#X obj 293 146 r bang_bpm;
#X obj 835 690 stdout;
#X obj 928 621 oscformat;
#X obj 918 473 list split 1;
#X obj 977 553 list prepend;
#X obj 966 582 list trim;
#X obj 1035 488 loadbang;
#X msg 1035 523 set seq;
#X connect 1 0 4 1;
#X connect 2 0 4 2;
#X connect 4 0 5 0;
#X connect 4 1 6 0;
#X connect 4 2 11 0;
#X connect 8 0 4 0;
#X connect 10 0 9 0;
#X connect 11 0 10 0;
#X connect 11 1 12 0;
#X connect 12 0 13 0;
#X connect 13 0 10 0;
#X connect 14 0 15 0;
#X connect 15 0 12 1;
#X coords 0 788 1 787 1010 150 0;
