#N canvas 516 106 1390 977 12;
#X declare -path ./multiple_piano_abs;
#X floatatom 2143 192 5 0 127 0 - - - 0;
#X obj 2057 106 i;
#X obj 2138 106 i;
#X obj 2169 135 max 0;
#X obj 2056 29 r algo+_\$0;
#X obj 2134 19 r algo-_\$0;
#X obj 2059 157 min 127;
#X obj 2096 105 + 3;
#X obj 2166 106 - 3;
#X obj 2073 192 loadbang;
#X msg 2073 215 0;
#X obj 521 156 vsl 20 100 0 127 0 0 empty empty frq 0 -9 1 12 #000000 #ffffff #7c7c7c 0 1;
#X obj 544 156 vsl 20 100 0 127 0 0 empty empty q 0 -9 1 12 #000000 #ffffff #7c7c7c 0 1;
#X obj 2142 244 s algo_select_\$0;
#X obj -332 1880 r~ from_synth_1_\$0;
#X obj -117 2171 *~;
#X obj 548 449 loadbang;
#X obj 574 526 loadbang;
#X obj 493 371 loadbang;
#X obj 1183 130 vsl 20 120 0 1 0 0 empty empty vol 0 -9 1 12 #000000 #ffffff #7c7c7c 0 1;
#X obj 1265 563 loadbang;
#X obj 1238 542 s vol_\$0;
#X obj 1236 582 r preset_vol_\$0;
#X obj 248 -680 s ID_\$0;
#X obj 246 -733 loadbang;
#X obj 2199 164 r preset_algo_select_\$0;
#X obj 1149 128 vradio 10 1 0 4 empty empty ass 0 -10 1 12 #fcfcfc #000000 #000000 0;
#X obj 1358 -133 loadbang;
#X msg 1333 -134 0;
#X obj 1335 -153 s lfo2_ass_\$0;
#X obj 1334 -112 r preset_lfo2_ass_\$0;
#X obj 374 156 vsl 20 100 0 1 0 0 empty empty fold 0 -9 1 12 #000000 #ffffff #7c7c7c 0 1;
#X obj 398 177 vradio 20 1 0 4 empty empty mode 0 -10 1 12 #fcfcfc #000000 #000000 0;
#X obj 398 -398 loadbang;
#X msg 369 -399 0;
#X obj 422 -332 loadbang;
#X msg 393 -333 0;
#X obj 371 -422 s fold_\$0;
#X obj 370 -381 r preset_fold_\$0;
#X obj 394 -352 s stgs_\$0;
#X obj 394 -311 r preset_stgs_\$0;
#X obj 463 348 s flt_sel_\$0;
#X obj 463 392 r preset_flt_sel_\$0;
#X obj 519 429 s flt_frq_\$0;
#X obj 519 467 r preset_flt_frq_\$0;
#X obj 546 504 s flt_q_\$0;
#X obj 544 544 r preset_flt_q_\$0;
#X obj 469 152 vradio 15 1 0 7 empty empty empty 0 -9 0 10 #fcfcfc #000000 #000000 0;
#X text 490 149 lp;
#X text 490 165 hp;
#X text 490 180 bp;
#X text 490 194 bob;
#X text 489 239 off;
#X text 490 209 an;
#X text 489 225 lad;
#X msg 545 525 30;
#X obj 547 115 cnv 20 10 10 empty empty filter 20 12 1 12 #ffffff #404040 0;
#X obj 392 2178 *~;
#X msg 519 448 50;
#X obj 50 2170 *~;
#X obj 202 2174 *~;
#X obj -196 1880 r~ from_synth_2_\$0;
#X obj -52 1879 r~ from_synth_3_\$0;
#X obj 83 1881 r~ from_synth_4_\$0;
#X obj 976 1841 r vol_\$0;
#X obj 1011 2004 pack 0 100;
#X obj 1012 2029 line~;
#X obj 1122 358 s set_preset_sync_\$0;
#X obj 1154 383 s set_preset_div_\$0;
#X obj 1188 407 s set_preset_bpm_\$0;
#X obj 1221 430 s set_preset_shape_\$0;
#X obj 1253 455 s set_preset_trans_\$0;
#X obj 1291 479 s set_preset_spread_\$0;
#X obj 1407 181 r preset_spread_\$0;
#X obj 1385 162 r preset_trans_\$0;
#X obj 1366 143 r preset_shape_\$0;
#X obj 1324 104 r preset_div_\$0;
#X obj 1346 123 r preset_bpm_\$0;
#X obj 1295 82 r preset_sync_\$0;
#X obj 1293 56 r bang_\$0;
#X obj 1292 30 r rst_\$0;
#X obj -595 -500 s bang_\$0;
#X obj -524 -500 s rst_\$0;
#X obj -160 2286 quad_pan;
#X obj 21 2285 quad_pan;
#X obj 199 2286 quad_pan;
#X obj 376 2285 quad_pan;
#X obj -123 2233 r x_1_\$0;
#X obj -61 2233 r y_1_\$0;
#X obj 44 2232 r x_2_\$0;
#X obj 111 2232 r y_2_\$0;
#X obj 209 2235 r x_3_\$0;
#X obj 273 2237 r y_3_\$0;
#X obj 469 2234 r y_4_\$0;
#X obj 408 2235 r x_4_\$0;
#X obj 880 348 s x_1_\$0;
#X obj 892 327 s y_1_\$0;
#X obj 908 306 s x_2_\$0;
#X obj 923 285 s y_2_\$0;
#X obj 967 348 s x_3_\$0;
#X obj 978 328 s y_3_\$0;
#X obj 991 308 s x_4_\$0;
#X obj 1003 287 s y_4_\$0;
#X obj -18 -525 s note_in_\$0;
#X obj -256 151 r note_in_\$0;
#X obj 249 -654 loadbang;
#X msg 249 -628 \; pd dsp 1;
#X obj 878 101 lfo;
#X obj 851 400 s~ lfo1_signal_\$0;
#X obj 989 -615 loadbang;
#X obj 1010 -546 loadbang;
#X msg 981 -547 0;
#X obj 1028 -477 loadbang;
#X obj 983 -570 s lfo1_dep_\$0;
#X obj 981 -529 r preset_lfo1_dep_\$0;
#X obj 1001 -497 s lfo1_wav_\$0;
#X obj 1000 -456 r preset_lfo1_wav_\$0;
#X obj 961 -638 s lfo1_frq_\$0;
#X obj 961 -598 r preset_lfo1_frq_\$0;
#X msg 962 -618 64;
#X obj 1045 -401 loadbang;
#X obj 1016 -424 s lfo1_mul_\$0;
#X obj 1015 -384 r preset_lfo1_mul_\$0;
#X msg 1016 -402 2;
#X msg 1001 -478 0;
#X msg 247 -706 0;
#X obj 2060 65 bng 20 250 50 0 empty empty empty 0 -10 0 12 #fcfcfc #000000 #000000;
#X obj 2143 69 bng 20 250 50 0 empty empty empty 0 -10 0 12 #fcfcfc #000000 #000000;
#X obj 1455 88 r control_shape+_\$0;
#X obj 1451 60 r control_shape-_\$0;
#X obj 1246 332 s feedback_space_name_\$0;
#X obj 1315 502 s mono_phase_\$0;
#X obj 1425 202 r preset_mono_phase_\$0;
#X obj 698 127 vsl 20 100 -48 48 0 0 empty empty trn 0 -9 1 12 #000000 #ffffff #7c7c7c 0 1;
#X obj 723 150 vsl 20 100 0 1 0 0 empty empty pos 0 -9 1 12 #000000 #ffffff #7c7c7c 0 1;
#X obj 748 150 vsl 20 100 0 1 0 0 empty empty str 0 -9 1 12 #000000 #ffffff #7c7c7c 0 1;
#X obj 773 151 vsl 20 100 0 1 0 0 empty empty brt 0 -9 1 12 #000000 #ffffff #7c7c7c 0 1;
#X obj 797 150 vsl 20 100 0 1 0 0 empty empty dmp 0 -9 1 12 #000000 #ffffff #7c7c7c 0 1;
#X obj 851 150 vsl 20 100 0 1 0 0 empty empty dw 0 -9 1 12 #000000 #ffffff #7c7c7c 0 1;
#X obj 825 153 vradio 20 1 0 5 empty empty mod 0 -10 0 12 #fcfcfc #000000 #000000 0;
#X obj 634 214 tgl 20 0 empty empty trg 0 -10 1 12 #fcfcfc #000000 #000000 0 1;
#X obj 631 -263 s exciter_rngs_\$0;
#X obj 629 -370 s poly_rngs_\$0;
#X obj 671 -318 s pitch_rngs_\$0;
#X obj 694 -35 s transp_rngs_\$0;
#X obj 719 -93 s posit_rngs_\$0;
#X obj 741 -154 s struct_rngs_\$0;
#X obj 767 -199 s bright_rngs_\$0;
#X obj 789 -240 s damp_rngs_\$0;
#X obj 819 -286 s model_rngs_\$0;
#X obj 838 -360 s rngs_dw_\$0;
#X obj 695 -55 r preset_transp_rngs_\$0;
#X obj 718 -113 r preset_posit_rngs_\$0;
#X obj 740 -176 r preset_struct_rngs_\$0;
#X obj 767 -219 r preset_bright_rngs_\$0;
#X obj 787 -262 r preset_damp_rngs_\$0;
#X obj 818 -308 r preset_model_rngs_\$0;
#X obj 839 -337 r preset_rngs_dw_\$0;
#X obj 672 -339 r preset_pitch_rngs_\$0;
#X obj 629 -285 r preset_exciter_rngs_\$0;
#X obj 630 -393 r preset_poly_rngs_\$0;
#X obj -41 324 s trigger_rngs_\$0;
#X obj 519 728 r fold_\$0;
#X obj 532 750 r stgs_\$0;
#X obj 594 810 r flt_sel_\$0;
#X obj 615 834 r flt_frq_\$0;
#X obj 640 862 r flt_q_\$0;
#X obj 934 883 r~ lfo1_signal_\$0;
#X obj 723 815 r poly_rngs_\$0;
#X obj 743 836 r pitch_rngs_\$0;
#X obj 763 858 r transp_rngs_\$0;
#X obj 826 714 r posit_rngs_\$0;
#X obj 841 735 r struct_rngs_\$0;
#X obj 862 757 r bright_rngs_\$0;
#X obj 883 779 r damp_rngs_\$0;
#X obj 903 801 r model_rngs_\$0;
#X obj 924 823 r rngs_dw_\$0;
#X obj 704 794 r exciter_rngs_\$0;
#X obj 683 773 r trigger_rngs_\$0;
#X obj 104 104 bng 20 250 50 0 empty empty 440 23 9 0 12 #fcfcfc #000000 #000000;
#X obj -170 -79 bng 20 250 50 0 empty empty empty 0 -10 0 12 #fcfcfc #000000 #000000;
#X msg 697 367 0;
#X obj 634 235 bng 20 250 50 0 empty empty empty 0 -10 0 12 #fcfcfc #000000 #000000;
#X obj 698 236 bng 20 250 50 0 empty empty empty 0 -10 0 12 #fcfcfc #000000 #000000;
#X obj 18 296 r control_trig_go_\$0;
#X obj 634 131 vradio 20 1 0 3 empty empty poly 0 -10 1 12 #fcfcfc #000000 #000000 0;
#X obj 674 132 vradio 20 1 0 6 empty empty pch 0 -10 1 12 #fcfcfc #000000 #000000 0;
#X text 663 132 -;
#X text 663 191 0;
#X text 656 172 +1;
#X text 656 153 +2;
#X text 656 211 -1;
#X text 656 230 -2;
#X obj 421 157 vsl 20 100 0 1 0 0 empty empty frq 0 -9 1 12 #000000 #ffffff #7c7c7c 0 1;
#X obj 444 -263 loadbang;
#X msg 415 -264 0;
#X obj 578 792 r fold_mix_\$0;
#X obj 368 1055 s~ from_synth_1_\$0;
#X obj 1345 524 s set_preset_trigonoff_\$0;
#X obj 1445 225 r preset_trigonoff_\$0;
#X obj -53 180 unpack 0 0;
#X obj -63 234 sel 0;
#X obj -35 262 f;
#X obj -63 262 bng 20 250 50 0 empty empty empty 0 -10 0 12 #fcfcfc #000000 #000000;
#X msg -18 296 60;
#X obj -33 207 swap;
#X obj 1463 248 r control_space_trig_go_\$0;
#X obj -58 352 s control_space_trig_go_\$0;
#X obj -256 179 route all_notes_off;
#X obj -284 213 s all_notes_off_\$0;
#X obj -545 -587 inlet;
#X obj -319 -498 s save_\$0;
#X obj -395 -497 s load_\$0;
#X obj -455 -498 s ID_\$0;
#X text -548 -612 internal_in;
#X obj -236 -392 s control_\$0;
#X obj -236 -424 route name;
#X obj -254 -521 s osc_name_\$0;
#X obj 663 2349 r control_out_\$0;
#X obj 636 2562 outlet;
#X obj 636 2536 oscformat;
#X obj 639 2458 list split 1;
#X obj 669 2504 list trim;
#X obj 763 2457 r osc_name_\$0;
#X obj 669 2482 list prepend;
#X obj 763 2502 list trim;
#X obj 763 2480 list prepend set;
#X text 639 2585 osc_out;
#X obj -174 -463 r osc_name_\$0;
#X obj -145 -498 s current_path_\$0;
#N canvas 329 132 1390 715 handle_presets 0;
#X obj 240 1913 tabwrite presets_\$0;
#X msg 435 560 \$1 1;
#X msg 435 537 \$1 0;
#X msg 435 583 \$1 2;
#X msg 435 606 \$1 3;
#X msg 435 629 \$1 4;
#X msg 435 652 \$1 5;
#X msg 435 675 \$1 6;
#X msg 435 698 \$1 7;
#X msg 435 721 \$1 8;
#X msg 435 744 \$1 9;
#X msg 435 767 \$1 10;
#X msg 435 790 \$1 11;
#X msg 435 813 \$1 12;
#X msg 435 836 \$1 13;
#X msg 435 859 \$1 14;
#X msg 435 882 \$1 15;
#X msg 435 905 \$1 16;
#X msg 435 928 \$1 17;
#X msg 435 951 \$1 18;
#X msg 435 974 \$1 19;
#X msg 435 997 \$1 20;
#X msg 435 1020 \$1 21;
#X msg 435 1043 \$1 22;
#X msg 435 1066 \$1 23;
#X msg 435 1089 \$1 24;
#X msg 435 1112 \$1 25;
#X msg 435 1135 \$1 26;
#X msg 435 1158 \$1 27;
#X msg 435 1181 \$1 28;
#X msg 435 1204 \$1 29;
#X msg 435 1227 \$1 30;
#X msg 435 1250 \$1 31;
#X msg 435 1273 \$1 32;
#X msg 435 1296 \$1 33;
#X msg 435 1319 \$1 34;
#X msg 435 1342 \$1 35;
#X msg 435 1365 \$1 36;
#X obj 319 1816 list;
#X obj 266 1867 unpack 0 0;
#X obj 474 721 r fold_\$0;
#X obj 474 744 r stgs_\$0;
#X obj 474 767 r lfo1_frq_\$0;
#X obj 474 790 r lfo1_dep_\$0;
#X obj 474 813 r lfo1_wav_\$0;
#X obj 474 836 r flt_sel_\$0;
#X obj 474 859 r flt_frq_\$0;
#X obj 474 882 r flt_q_\$0;
#X obj 1001 1046 s preset_fold_\$0;
#X obj 1016 1068 s preset_stgs_\$0;
#X obj 1036 1090 s preset_lfo1_frq_\$0;
#X obj 1055 1113 s preset_lfo1_dep_\$0;
#X obj 1073 1136 s preset_lfo1_wav_\$0;
#X obj 1090 1158 s preset_flt_sel_\$0;
#X obj 1107 1181 s preset_flt_frq_\$0;
#X obj 1203 832 s preset_flt_q_\$0;
#X obj 478 1457 r vol_\$0;
#X obj 1744 921 s preset_vol_\$0;
#X obj 474 1296 r lfo1_mul_\$0;
#X obj 1560 950 s preset_lfo1_mul_\$0;
#X obj 1673 862 s preset_sync_\$0;
#X obj 1700 884 s preset_div_\$0;
#X obj 1748 901 s preset_bpm_\$0;
#X obj 1417 1141 s preset_shape_\$0;
#X obj 1761 942 s preset_trans_\$0;
#X obj 1785 963 s preset_spread_\$0;
#X obj 476 1389 r set_preset_sync_\$0;
#X obj 475 1412 r set_preset_div_\$0;
#X obj 506 1434 r set_preset_bpm_\$0;
#X obj 476 1180 r set_preset_shape_\$0;
#X obj 474 1479 r set_preset_trans_\$0;
#X obj 473 1502 r set_preset_spread_\$0;
#X msg 435 1388 \$1 37;
#X msg 435 1411 \$1 38;
#X msg 435 1434 \$1 39;
#X msg 434 1457 \$1 40;
#X msg 435 1480 \$1 41;
#X msg 435 1503 \$1 42;
#X obj 943 740 r control_\$0;
#X obj 922 1358 s algo+_\$0;
#X obj 919 1387 s algo-_\$0;
#X obj 919 1440 s control_shape+_\$0;
#X obj 920 1413 s control_shape-_\$0;
#X obj 108 1082 r feedback_space_name_\$0;
#X obj -143 934 r x_1_\$0;
#X obj -55 933 r y_1_\$0;
#X obj -143 988 r x_2_\$0;
#X obj -49 986 r y_2_\$0;
#X obj -50 1042 r y_3_\$0;
#X obj -133 1044 r x_3_\$0;
#X obj -140 1097 r x_4_\$0;
#X obj -48 1093 r y_4_\$0;
#X obj 106 1030 r feedback_algo_name_\$0;
#X obj -138 1550 s control_out_\$0;
#X obj 479 1433 i;
#X obj 1723 905 i;
#X obj 1810 987 s preset_mono_phase_\$0;
#X msg 436 1525 \$1 43;
#X obj 481 1525 r mono_phase_\$0;
#X obj 473 904 r poly_rngs_\$0;
#X obj 476 929 r exciter_rngs_\$0;
#X obj 477 953 r pitch_rngs_\$0;
#X obj 473 977 r struct_rngs_\$0;
#X obj 476 999 r posit_rngs_\$0;
#X obj 476 1023 r transp_rngs_\$0;
#X msg 435 1548 \$1 44;
#X msg 436 1571 \$1 45;
#X msg 436 1594 \$1 46;
#X msg 437 1617 \$1 47;
#X obj 474 1549 r rngs_dw_\$0;
#X obj 475 1570 r model_rngs_\$0;
#X obj 475 1594 r damp_rngs_\$0;
#X obj 476 1617 r bright_rngs_\$0;
#X obj 1215 854 s preset_poly_rngs_\$0;
#X obj 1234 878 s preset_exciter_rngs_\$0;
#X obj 1248 902 s preset_pitch_rngs_\$0;
#X obj 1272 927 s preset_struct_rngs_\$0;
#X obj 1291 953 s preset_posit_rngs_\$0;
#X obj 1308 975 s preset_transp_rngs_\$0;
#X obj 1832 1018 s preset_rngs_dw_\$0;
#X obj 1855 1040 s preset_model_rngs_\$0;
#X obj 1880 864 s preset_damp_rngs_\$0;
#X obj 1897 884 s preset_bright_rngs_\$0;
#X obj 917 1467 s control_trig_go_\$0;
#X obj 474 1365 r fold_mix_\$0;
#X obj 1618 1019 s preset_fold_mix_\$0;
#X msg 437 1640 \$1 48;
#X obj 1920 910 s preset_trigonoff_\$0;
#X obj 476 1640 r set_preset_trigonoff_\$0;
#X obj 916 1494 s control_space_trig_go_\$0;
#X obj 820 415 f;
#X obj 240 362 r save_\$0;
#X obj 813 364 r load_\$0;
#X obj 843 446 r ID_\$0;
#X obj 275 406 r ID_\$0;
#X obj 900 445 r current_path_\$0;
#X obj 332 405 r current_path_\$0;
#X obj 796 479 load_preset presets_\$0;
#X obj 480 1688 r lfo1_phase_\$0;
#X obj 480 1665 r lfo1_sync_\$0;
#X msg 436 1665 \$1 49;
#X msg 436 1688 \$1 50;
#X msg 438 1710 \$1 51;
#X msg 437 1733 \$1 52;
#X obj 1967 964 s preset_lfo1_phase_\$0;
#X obj 1944 938 s preset_lfo1_sync_\$0;
#X obj 112 1139 r fdbk_lfo1_freq_\$0;
#X obj 113 1197 r fdbk_lfo2_freq_\$0;
#X obj 113 1255 r feedback_sync_name_\$0;
#X msg -144 963 \$1 210;
#X msg -54 957 \$1 211;
#X msg -143 1010 \$1 212;
#X msg -49 1011 \$1 213;
#X msg -133 1067 \$1 214;
#X msg -47 1066 \$1 215;
#X msg -139 1122 \$1 216;
#X msg -45 1123 \$1 217;
#X obj 918 1523 s control_440_go_\$0;
#X msg 359 327 0;
#X obj 1155 418 f;
#X obj 1151 369 r load_init_\$0;
#X msg 1129 316 0;
#X msg 514 224 0;
#X text 547 223 click this to save this configuration as init;
#X obj 933 1303 route 100 101 102 103 104 105 106 107;
#X obj 917 1552 s ctrl_rngs_transp_rst_\$0;
#X obj 480 1043 r detune_main_\$0;
#X obj 1319 999 s preset_detune_main_\$0;
#X obj 482 1067 r fold_frq_\$0;
#X obj 1338 1023 s preset_fold_frq_\$0;
#X msg 435 1756 \$1 53;
#X msg 437 1778 \$1 54;
#X msg 436 1801 \$1 55;
#X obj 481 1756 r comp_thr_\$0;
#X obj 481 1779 r comp_ratio_\$0;
#X obj 482 1802 r comp_gain_\$0;
#X obj 827 794 route 0 1 2 3 4 5 6 7 8 9 10 11 12 13 14 15 16 17 18 19 20 21 22 23 24 25 26 27 28 29 30 31 32 33 34 35 36 37 38 39 40 41 42 43 44 45 46 47 48 49 50 51 52 53 54 55, f 175;
#X obj 2046 861 s preset_comp_thr_\$0;
#X obj 2085 883 s preset_comp_ratio_\$0;
#X obj 2125 907 s preset_comp_gain_\$0;
#X obj 233 447 save_preset presets_\$0 56;
#X obj 599 383 table presets_\$0 60;
#X obj 113 1278 list append 204;
#X obj 113 1223 list append 203;
#X obj 112 1163 list append 202;
#X obj -7 1449 list trim;
#X obj 108 1107 list append 201;
#X obj 106 1055 list append 200;
#X obj 112 1369 r fbk_compressor_on_\$0;
#X obj 113 1399 list append 218;
#X obj 58 671 r fbk_lfo1_cycle_\$0;
#X obj 40 710 t b b;
#X msg 40 735 1;
#X obj 82 754 del 50;
#X msg 82 779 0;
#X obj 47 818 list append 220;
#X obj 192 863 t b b;
#X msg 192 888 1;
#X obj 234 907 del 50;
#X msg 234 932 0;
#X obj 210 824 r fbk_lfo2_cycle_\$0;
#X obj 199 971 list append 224;
#X obj 40 1028 spigot;
#X obj 84 962 r vumeter_\$0;
#X obj 473 538 r piano_amt_\$0;
#X obj 473 561 r rhodes_amt_\$0;
#X obj 473 584 r gamelan_amt_\$0;
#X obj 473 607 r chimes_amt_\$0;
#X obj 473 630 r marimba_amt_\$0;
#X obj 473 653 r harp_amt_\$0;
#X obj 473 676 r mct_amt_\$0;
#X obj 473 699 r string_amt_\$0;
#X obj 797 860 s preset_piano_amt_\$0;
#X obj 822 886 s preset_rhodes_amt_\$0;
#X obj 847 908 s preset_gamelan_amt_\$0;
#X obj 870 931 s preset_chimes_amt_\$0;
#X obj 897 955 s preset_marimba_amt_\$0;
#X obj 924 975 s preset_harp_amt_\$0;
#X obj 946 998 s preset_mct_amt_\$0;
#X obj 973 1019 s preset_string_amt_\$0;
#X obj 480 1342 r mono_\$0;
#X obj 503 444 save_init presets_\$0 multiple_piano_abs 56;
#X obj 1132 482 load_init presets_\$0 multiple_piano_abs;
#X connect 1 0 38 0;
#X connect 2 0 38 0;
#X connect 3 0 38 0;
#X connect 4 0 38 0;
#X connect 5 0 38 0;
#X connect 6 0 38 0;
#X connect 7 0 38 0;
#X connect 8 0 38 0;
#X connect 9 0 38 0;
#X connect 10 0 38 0;
#X connect 11 0 38 0;
#X connect 12 0 38 0;
#X connect 13 0 38 0;
#X connect 14 0 38 0;
#X connect 15 0 38 0;
#X connect 16 0 38 0;
#X connect 17 0 38 0;
#X connect 18 0 38 0;
#X connect 19 0 38 0;
#X connect 20 0 38 0;
#X connect 21 0 38 0;
#X connect 22 0 38 0;
#X connect 23 0 38 0;
#X connect 24 0 38 0;
#X connect 25 0 38 0;
#X connect 26 0 38 0;
#X connect 27 0 38 0;
#X connect 28 0 38 0;
#X connect 29 0 38 0;
#X connect 30 0 38 0;
#X connect 31 0 38 0;
#X connect 32 0 38 0;
#X connect 33 0 38 0;
#X connect 34 0 38 0;
#X connect 35 0 38 0;
#X connect 36 0 38 0;
#X connect 37 0 38 0;
#X connect 38 0 39 0;
#X connect 38 0 93 0;
#X connect 39 0 0 0;
#X connect 39 1 0 1;
#X connect 40 0 9 0;
#X connect 41 0 10 0;
#X connect 42 0 11 0;
#X connect 43 0 12 0;
#X connect 44 0 13 0;
#X connect 45 0 14 0;
#X connect 46 0 15 0;
#X connect 47 0 16 0;
#X connect 56 0 75 0;
#X connect 58 0 34 0;
#X connect 66 0 72 0;
#X connect 67 0 73 0;
#X connect 68 0 94 0;
#X connect 69 0 29 0;
#X connect 70 0 76 0;
#X connect 71 0 77 0;
#X connect 72 0 38 0;
#X connect 73 0 38 0;
#X connect 74 0 38 0;
#X connect 75 0 38 0;
#X connect 76 0 38 0;
#X connect 77 0 38 0;
#X connect 78 0 176 0;
#X connect 83 0 186 0;
#X connect 84 0 149 0;
#X connect 85 0 150 0;
#X connect 86 0 151 0;
#X connect 87 0 152 0;
#X connect 88 0 154 0;
#X connect 89 0 153 0;
#X connect 90 0 155 0;
#X connect 91 0 156 0;
#X connect 92 0 187 0;
#X connect 94 0 74 0;
#X connect 95 0 62 0;
#X connect 97 0 38 0;
#X connect 98 0 97 0;
#X connect 99 0 17 0;
#X connect 100 0 18 0;
#X connect 101 0 19 0;
#X connect 102 0 20 0;
#X connect 103 0 21 0;
#X connect 104 0 22 0;
#X connect 105 0 38 0;
#X connect 106 0 38 0;
#X connect 107 0 38 0;
#X connect 108 0 38 0;
#X connect 109 0 105 0;
#X connect 110 0 106 0;
#X connect 111 0 107 0;
#X connect 112 0 108 0;
#X connect 124 0 37 0;
#X connect 126 0 38 0;
#X connect 128 0 126 0;
#X connect 130 0 137 0;
#X connect 131 0 180 0;
#X connect 132 0 130 0;
#X connect 133 0 137 1;
#X connect 134 0 180 1;
#X connect 135 0 137 2;
#X connect 136 0 180 2;
#X connect 137 0 176 0;
#X connect 138 0 141 0;
#X connect 139 0 140 0;
#X connect 140 0 38 0;
#X connect 141 0 38 0;
#X connect 142 0 38 0;
#X connect 143 0 38 0;
#X connect 146 0 184 0;
#X connect 147 0 183 0;
#X connect 148 0 182 0;
#X connect 149 0 93 0;
#X connect 150 0 93 0;
#X connect 151 0 93 0;
#X connect 152 0 93 0;
#X connect 153 0 93 0;
#X connect 154 0 93 0;
#X connect 155 0 93 0;
#X connect 156 0 93 0;
#X connect 158 0 180 0;
#X connect 159 0 222 0;
#X connect 160 0 159 0;
#X connect 161 0 159 0;
#X connect 162 0 221 0;
#X connect 164 0 79 0;
#X connect 164 1 80 0;
#X connect 164 2 82 0;
#X connect 164 3 81 0;
#X connect 164 4 123 0;
#X connect 164 5 129 0;
#X connect 164 6 157 0;
#X connect 164 7 165 0;
#X connect 166 0 23 0;
#X connect 168 0 24 0;
#X connect 170 0 38 0;
#X connect 171 0 38 0;
#X connect 172 0 38 0;
#X connect 173 0 170 0;
#X connect 174 0 171 0;
#X connect 175 0 172 0;
#X connect 176 0 212 0;
#X connect 176 1 213 0;
#X connect 176 2 214 0;
#X connect 176 3 215 0;
#X connect 176 4 216 0;
#X connect 176 5 217 0;
#X connect 176 6 218 0;
#X connect 176 7 219 0;
#X connect 176 8 48 0;
#X connect 176 9 49 0;
#X connect 176 10 50 0;
#X connect 176 11 51 0;
#X connect 176 12 52 0;
#X connect 176 13 53 0;
#X connect 176 14 54 0;
#X connect 176 15 55 0;
#X connect 176 16 113 0;
#X connect 176 17 114 0;
#X connect 176 18 115 0;
#X connect 176 19 116 0;
#X connect 176 20 117 0;
#X connect 176 21 118 0;
#X connect 176 22 167 0;
#X connect 176 23 169 0;
#X connect 176 28 63 0;
#X connect 176 33 59 0;
#X connect 176 36 125 0;
#X connect 176 37 60 0;
#X connect 176 38 61 0;
#X connect 176 39 95 0;
#X connect 176 40 57 0;
#X connect 176 41 64 0;
#X connect 176 42 65 0;
#X connect 176 43 96 0;
#X connect 176 44 119 0;
#X connect 176 45 120 0;
#X connect 176 46 121 0;
#X connect 176 47 122 0;
#X connect 176 48 127 0;
#X connect 176 49 145 0;
#X connect 176 50 144 0;
#X connect 176 53 177 0;
#X connect 176 54 178 0;
#X connect 176 55 179 0;
#X connect 176 56 164 0;
#X connect 182 0 185 0;
#X connect 183 0 185 0;
#X connect 184 0 185 0;
#X connect 185 0 93 0;
#X connect 186 0 185 0;
#X connect 187 0 185 0;
#X connect 188 0 189 0;
#X connect 189 0 185 0;
#X connect 190 0 191 0;
#X connect 191 0 192 0;
#X connect 191 1 193 0;
#X connect 192 0 195 0;
#X connect 193 0 194 0;
#X connect 194 0 195 0;
#X connect 195 0 202 0;
#X connect 196 0 197 0;
#X connect 196 1 198 0;
#X connect 197 0 201 0;
#X connect 198 0 199 0;
#X connect 199 0 201 0;
#X connect 200 0 196 0;
#X connect 201 0 202 0;
#X connect 202 0 185 0;
#X connect 203 0 202 1;
#X connect 204 0 2 0;
#X connect 205 0 1 0;
#X connect 206 0 3 0;
#X connect 207 0 4 0;
#X connect 208 0 5 0;
#X connect 209 0 6 0;
#X connect 210 0 7 0;
#X connect 211 0 8 0;
#X connect 220 0 36 0;
#X connect 222 0 176 0;
#X restore 244 -584 pd handle_presets;
#X obj 879 177 four_quad_pan_automations;
#X obj 1068 -333 loadbang;
#X msg 1039 -334 0;
#X obj 1085 -266 loadbang;
#X msg 1053 -270 0;
#X obj 1062 -220 r bang_\$0;
#X obj 1077 -189 r rst_\$0;
#X obj 1086 -160 s fdbk_lfo1_freq_\$0;
#X obj 1055 -249 r preset_lfo1_phase_\$0;
#X obj 1038 -316 r preset_lfo1_sync_\$0;
#X obj 1056 -289 s lfo1_phase_\$0;
#X obj 1040 -356 s lfo1_sync_\$0;
#X obj 1257 305 s feedback_sync_name_\$0;
#X obj -176 -124 r control_440_go_\$0;
#X obj 632 321 s trigger_rngs_\$0;
#X msg 637 288 60;
#X obj 50 -494 s load_init_\$0;
#X obj -169 -30 makenote 100 1000;
#X msg -170 -53 69;
#X obj -169 -6 pack 0 0;
#X obj -167 19 s note_in_\$0;
#X obj 696 298 r ctrl_rngs_transp_rst_\$0;
#X obj -177 515 s to_synth_2_\$0;
#X obj -177 555 s to_synth_3_\$0;
#X obj -170 600 s to_synth_4_\$0;
#X obj -185 389 pack f f f;
#X obj -172 472 s to_synth_1_\$0;
#X obj -178 359 poly 4 1;
#X obj 986 1906 pow 2;
#X obj 447 157 vsl 10 100 0 1 0 0 empty empty dw 0 -9 1 12 #000000 #ffffff #7c7c7c 0 1;
#X obj 469 -195 loadbang;
#X msg 440 -196 0;
#X obj 441 -215 s fold_mix_\$0;
#X obj 441 -174 r preset_fold_mix_\$0;
#X obj 416 -283 s fold_frq_\$0;
#X obj 417 -243 r preset_fold_frq_\$0;
#X obj 58 2574 outlet~;
#X obj 126 2575 outlet~;
#X obj 198 2574 outlet~;
#X obj 266 2575 outlet~;
#X obj 95 2491 vumeter, f 25;
#X obj 580 157 vsl 10 100 0 1 0 0 empty empty th 0 -9 1 12 #000000 #ffffff #7c7c7c 0 1;
#X obj 594 157 vsl 10 100 0 1 0 0 empty empty rt 0 -9 1 12 #000000 #ffffff #7c7c7c 0 1;
#X obj 609 157 vsl 10 100 0 1 0 0 empty empty gn 0 -9 1 12 #000000 #ffffff #7c7c7c 0 1;
#X obj 584 -602 loadbang;
#X obj 556 -622 s comp_thr_\$0;
#X obj 557 -580 r preset_comp_thr_\$0;
#X obj 608 -533 loadbang;
#X msg 579 -534 0;
#X obj 580 -553 s comp_ratio_\$0;
#X obj 581 -511 r preset_comp_ratio_\$0;
#X obj 637 -462 loadbang;
#X msg 608 -463 0;
#X msg 555 -603 1;
#X obj 609 -482 s comp_gain_\$0;
#X obj 610 -440 r preset_comp_gain_\$0;
#X msg 1236 562 1;
#X obj 368 2084 compressor;
#X obj 401 2023 r comp_ratio_\$0;
#X obj 394 1999 r comp_thr_\$0;
#X obj 414 2045 r comp_gain_\$0;
#X obj 198 2086 compressor;
#X obj 231 2025 r comp_ratio_\$0;
#X obj 224 2001 r comp_thr_\$0;
#X obj 244 2047 r comp_gain_\$0;
#X obj 47 2087 compressor;
#X obj 80 2026 r comp_ratio_\$0;
#X obj 73 2002 r comp_thr_\$0;
#X obj 93 2048 r comp_gain_\$0;
#X obj -108 2082 compressor;
#X obj -75 2021 r comp_ratio_\$0;
#X obj -82 1997 r comp_thr_\$0;
#X obj -62 2043 r comp_gain_\$0;
#X obj 689 2242 s fbk_compressor_on_\$0;
#X msg 686 2191 1;
#X obj 686 2216 change;
#X msg 729 2192 0;
#X obj 683 2163 sel 1;
#X obj 729 2167 delay 40;
#X obj 612 60 r fbk_compressor_on_\$0;
#X obj 609 111 tgl 20 0 empty empty empty 0 -10 0 12 #fcfcfc #000000 #000000 0 1;
#X obj 384 2444 r vumeter_\$0;
#X obj -544 -561 route bang_bpm rst instance_id load save osc_name osc current_path notes init vumeter, f 99;
#X obj 144 -519 s vumeter_\$0;
#X obj 97 -638 loadbang;
#X msg 97 -614 1;
#X obj 932 554 s fbk_lfo1_cycle_\$0;
#X obj 953 137 bng 20 250 50 0 empty empty empty 0 -10 0 12 #fcfcfc #000000 #000000;
#X obj 247 -551 declare -path ./multiple_piano_abs;
#X obj 397 929 multiple_piano_single;
#X obj 111 161 vsl 20 100 0 1 0 0 empty empty empty 0 -9 0 12 #fcfcfc #000000 #000000 0 1;
#X obj 145 161 vsl 20 100 0 1 0 0 empty empty empty 0 -9 0 12 #fcfcfc #000000 #000000 0 1;
#X obj 178 161 vsl 20 100 0 1 0 0 empty empty empty 0 -9 0 12 #fcfcfc #000000 #000000 0 1;
#X obj 214 162 vsl 20 100 0 1 0 0 empty empty empty 0 -9 0 12 #fcfcfc #000000 #000000 0 1;
#X obj 255 164 vsl 20 100 0 1 0 0 empty empty empty 0 -9 0 12 #fcfcfc #000000 #000000 0 1;
#X obj 290 162 vsl 20 100 0 1 0 0 empty empty empty 0 -9 0 12 #fcfcfc #000000 #000000 0 1;
#X obj 319 162 vsl 20 100 0 1 0 0 empty empty empty 0 -9 0 12 #fcfcfc #000000 #000000 0 1;
#X obj 345 161 vsl 20 100 0 1 0 0 empty empty empty 0 -9 0 12 #fcfcfc #000000 #000000 0 1;
#X obj 556 772 r fold_frq_\$0;
#X obj 936 847 r vol_\$0;
#X text 106 140 piano;
#X text 134 126 rhodes;
#X text 159 139 gamelan;
#X text 203 127 chimes;
#X text 239 141 marimba;
#X text 286 128 harp;
#X text 317 141 mct;
#X text 344 131 str;
#X obj 315 696 r piano_amt_\$0;
#X obj 340 723 r rhodes_amt_\$0;
#X obj 357 747 r gamelan_amt_\$0;
#X obj 380 771 r chimes_amt_\$0;
#X obj 397 794 r marimba_amt_\$0;
#X obj 419 816 r harp_amt_\$0;
#X obj 436 838 r mct_amt_\$0;
#X obj 156 346 s piano_amt_\$0;
#X obj 181 369 s rhodes_amt_\$0;
#X obj 206 394 s gamelan_amt_\$0;
#X obj 229 417 s chimes_amt_\$0;
#X obj 256 441 s marimba_amt_\$0;
#X obj 283 461 s harp_amt_\$0;
#X obj 305 484 s mct_amt_\$0;
#X obj 140 -148 r preset_piano_amt_\$0;
#X obj 165 -122 r preset_rhodes_amt_\$0;
#X obj 190 -100 r preset_gamelan_amt_\$0;
#X obj 213 -77 r preset_chimes_amt_\$0;
#X obj 240 -53 r preset_marimba_amt_\$0;
#X obj 267 -33 r preset_harp_amt_\$0;
#X obj 289 -10 r preset_mct_amt_\$0;
#X obj 316 11 r preset_string_amt_\$0;
#X obj 332 505 s string_amt_\$0;
#X obj 456 859 r string_amt_\$0;
#X obj 13 -49 loadbang;
#X msg 13 -24 1;
#X msg 51 -21 0;
#X obj 278 669 r to_synth_1_\$0;
#X obj 1249 741 r fold_\$0;
#X obj 1262 763 r stgs_\$0;
#X obj 1324 823 r flt_sel_\$0;
#X obj 1345 847 r flt_frq_\$0;
#X obj 1370 875 r flt_q_\$0;
#X obj 1664 896 r~ lfo1_signal_\$0;
#X obj 1453 828 r poly_rngs_\$0;
#X obj 1473 849 r pitch_rngs_\$0;
#X obj 1493 871 r transp_rngs_\$0;
#X obj 1556 727 r posit_rngs_\$0;
#X obj 1571 748 r struct_rngs_\$0;
#X obj 1592 770 r bright_rngs_\$0;
#X obj 1613 792 r damp_rngs_\$0;
#X obj 1633 814 r model_rngs_\$0;
#X obj 1654 836 r rngs_dw_\$0;
#X obj 1434 807 r exciter_rngs_\$0;
#X obj 1413 786 r trigger_rngs_\$0;
#X obj 1308 805 r fold_mix_\$0;
#X obj 1127 942 multiple_piano_single;
#X obj 1286 785 r fold_frq_\$0;
#X obj 1666 860 r vol_\$0;
#X obj 1045 709 r piano_amt_\$0;
#X obj 1070 736 r rhodes_amt_\$0;
#X obj 1087 760 r gamelan_amt_\$0;
#X obj 1110 784 r chimes_amt_\$0;
#X obj 1127 807 r marimba_amt_\$0;
#X obj 1149 829 r harp_amt_\$0;
#X obj 1166 851 r mct_amt_\$0;
#X obj 1186 872 r string_amt_\$0;
#X obj 1098 1068 s~ from_synth_2_\$0;
#X obj 1009 682 r to_synth_2_\$0;
#X obj 2012 733 r fold_\$0;
#X obj 2025 755 r stgs_\$0;
#X obj 2087 815 r flt_sel_\$0;
#X obj 2108 839 r flt_frq_\$0;
#X obj 2133 867 r flt_q_\$0;
#X obj 2427 888 r~ lfo1_signal_\$0;
#X obj 2216 820 r poly_rngs_\$0;
#X obj 2236 841 r pitch_rngs_\$0;
#X obj 2256 863 r transp_rngs_\$0;
#X obj 2319 719 r posit_rngs_\$0;
#X obj 2334 740 r struct_rngs_\$0;
#X obj 2355 762 r bright_rngs_\$0;
#X obj 2376 784 r damp_rngs_\$0;
#X obj 2396 806 r model_rngs_\$0;
#X obj 2417 828 r rngs_dw_\$0;
#X obj 2197 799 r exciter_rngs_\$0;
#X obj 2176 778 r trigger_rngs_\$0;
#X obj 2071 797 r fold_mix_\$0;
#X obj 1890 934 multiple_piano_single;
#X obj 2049 777 r fold_frq_\$0;
#X obj 2429 852 r vol_\$0;
#X obj 1808 701 r piano_amt_\$0;
#X obj 1833 728 r rhodes_amt_\$0;
#X obj 1850 752 r gamelan_amt_\$0;
#X obj 1873 776 r chimes_amt_\$0;
#X obj 1890 799 r marimba_amt_\$0;
#X obj 1912 821 r harp_amt_\$0;
#X obj 1929 843 r mct_amt_\$0;
#X obj 1949 864 r string_amt_\$0;
#X obj 1861 1061 s~ from_synth_3_\$0;
#X obj 1773 674 r to_synth_3_\$0;
#X obj 2830 742 r fold_\$0;
#X obj 2843 764 r stgs_\$0;
#X obj 2905 824 r flt_sel_\$0;
#X obj 2926 848 r flt_frq_\$0;
#X obj 2951 876 r flt_q_\$0;
#X obj 3245 897 r~ lfo1_signal_\$0;
#X obj 3034 829 r poly_rngs_\$0;
#X obj 3054 850 r pitch_rngs_\$0;
#X obj 3074 872 r transp_rngs_\$0;
#X obj 3137 728 r posit_rngs_\$0;
#X obj 3152 749 r struct_rngs_\$0;
#X obj 3173 771 r bright_rngs_\$0;
#X obj 3194 793 r damp_rngs_\$0;
#X obj 3214 815 r model_rngs_\$0;
#X obj 3235 837 r rngs_dw_\$0;
#X obj 3015 808 r exciter_rngs_\$0;
#X obj 2994 787 r trigger_rngs_\$0;
#X obj 2889 806 r fold_mix_\$0;
#X obj 2708 943 multiple_piano_single;
#X obj 2867 786 r fold_frq_\$0;
#X obj 3247 861 r vol_\$0;
#X obj 2626 710 r piano_amt_\$0;
#X obj 2651 737 r rhodes_amt_\$0;
#X obj 2668 761 r gamelan_amt_\$0;
#X obj 2691 785 r chimes_amt_\$0;
#X obj 2708 808 r marimba_amt_\$0;
#X obj 2730 830 r harp_amt_\$0;
#X obj 2747 852 r mct_amt_\$0;
#X obj 2767 873 r string_amt_\$0;
#X obj 2679 1070 s~ from_synth_4_\$0;
#X obj 2591 683 r to_synth_4_\$0;
#X obj 413 114 cnv 20 10 10 empty empty filter\ envelope 20 12 1 12 #ffffff #404040 0;
#X obj 421 115 hsl 170 20 0 1 0 0 empty empty empty -2 -10 0 12 #fcfcfc #000000 #000000 0 1;
#X obj 419 73 s detune_main_\$0;
#X obj 419 47 r preset_detune_main_\$0;
#X obj -185 422 route 1 2 3 4;
#X obj 1011 1980 * 0.5;
#X msg 464 370 6;
#X connect 0 0 2 1;
#X connect 0 0 1 1;
#X connect 0 0 13 0;
#X connect 1 0 7 0;
#X connect 2 0 8 0;
#X connect 3 0 0 0;
#X connect 4 0 126 0;
#X connect 5 0 127 0;
#X connect 6 0 0 0;
#X connect 7 0 6 0;
#X connect 8 0 3 0;
#X connect 9 0 10 0;
#X connect 10 0 0 0;
#X connect 11 0 43 0;
#X connect 12 0 45 0;
#X connect 14 0 300 0;
#X connect 15 0 83 0;
#X connect 16 0 58 0;
#X connect 17 0 55 0;
#X connect 18 0 466 0;
#X connect 19 0 21 0;
#X connect 20 0 287 0;
#X connect 22 0 19 0;
#X connect 24 0 125 0;
#X connect 25 0 0 0;
#X connect 26 0 29 0;
#X connect 27 0 28 0;
#X connect 28 0 26 0;
#X connect 30 0 26 0;
#X connect 31 0 37 0;
#X connect 32 0 39 0;
#X connect 33 0 34 0;
#X connect 34 0 31 0;
#X connect 35 0 36 0;
#X connect 36 0 32 0;
#X connect 38 0 31 0;
#X connect 40 0 32 0;
#X connect 42 0 47 0;
#X connect 44 0 11 0;
#X connect 46 0 12 0;
#X connect 47 0 41 0;
#X connect 55 0 12 0;
#X connect 57 0 86 0;
#X connect 58 0 11 0;
#X connect 59 0 84 0;
#X connect 60 0 85 0;
#X connect 61 0 296 0;
#X connect 62 0 292 0;
#X connect 63 0 288 0;
#X connect 64 0 259 0;
#X connect 65 0 66 0;
#X connect 66 0 15 1;
#X connect 66 0 59 1;
#X connect 66 0 60 1;
#X connect 66 0 57 1;
#X connect 73 0 231 8;
#X connect 74 0 231 7;
#X connect 75 0 231 6;
#X connect 76 0 231 4;
#X connect 77 0 231 5;
#X connect 78 0 231 3;
#X connect 79 0 231 0;
#X connect 80 0 231 1;
#X connect 83 0 271 0;
#X connect 83 1 271 1;
#X connect 83 2 271 2;
#X connect 83 3 271 3;
#X connect 84 0 271 0;
#X connect 84 1 271 1;
#X connect 84 2 271 2;
#X connect 84 3 271 3;
#X connect 85 0 271 0;
#X connect 85 1 271 1;
#X connect 85 2 271 2;
#X connect 85 3 271 3;
#X connect 86 0 271 0;
#X connect 86 1 271 1;
#X connect 86 2 271 2;
#X connect 86 3 271 3;
#X connect 87 0 83 1;
#X connect 88 0 83 2;
#X connect 89 0 84 1;
#X connect 90 0 84 2;
#X connect 91 0 85 1;
#X connect 92 0 85 2;
#X connect 93 0 86 2;
#X connect 94 0 86 1;
#X connect 104 0 208 0;
#X connect 105 0 106 0;
#X connect 107 1 108 0;
#X connect 107 3 117 0;
#X connect 107 4 113 0;
#X connect 107 5 115 0;
#X connect 107 6 121 0;
#X connect 107 7 242 0;
#X connect 107 8 241 0;
#X connect 107 9 238 0;
#X connect 107 10 317 0;
#X connect 107 10 318 0;
#X connect 109 0 119 0;
#X connect 110 0 111 0;
#X connect 111 0 107 1;
#X connect 112 0 124 0;
#X connect 114 0 107 1;
#X connect 116 0 107 2;
#X connect 118 0 107 0;
#X connect 119 0 107 0;
#X connect 120 0 123 0;
#X connect 122 0 107 3;
#X connect 123 0 107 3;
#X connect 124 0 107 2;
#X connect 125 0 23 0;
#X connect 126 0 1 0;
#X connect 127 0 2 0;
#X connect 128 0 231 10;
#X connect 129 0 231 9;
#X connect 132 0 231 11;
#X connect 133 0 144 0;
#X connect 134 0 145 0;
#X connect 135 0 146 0;
#X connect 136 0 147 0;
#X connect 137 0 148 0;
#X connect 138 0 150 0;
#X connect 139 0 149 0;
#X connect 140 0 141 0;
#X connect 151 0 133 0;
#X connect 152 0 134 0;
#X connect 153 0 135 0;
#X connect 154 0 136 0;
#X connect 155 0 137 0;
#X connect 156 0 139 0;
#X connect 157 0 138 0;
#X connect 158 0 186 0;
#X connect 159 0 140 0;
#X connect 160 0 185 0;
#X connect 162 0 320 9;
#X connect 163 0 320 10;
#X connect 164 0 320 13;
#X connect 165 0 320 14;
#X connect 166 0 320 15;
#X connect 168 0 320 18;
#X connect 169 0 320 19;
#X connect 170 0 320 20;
#X connect 171 0 320 21;
#X connect 172 0 320 22;
#X connect 173 0 320 23;
#X connect 174 0 320 24;
#X connect 175 0 320 25;
#X connect 176 0 320 26;
#X connect 177 0 320 17;
#X connect 178 0 320 16;
#X connect 179 0 180 0;
#X connect 180 0 249 0;
#X connect 181 0 133 0;
#X connect 182 0 246 0;
#X connect 183 0 181 0;
#X connect 184 0 204 0;
#X connect 185 0 142 0;
#X connect 186 0 143 0;
#X connect 193 0 265 0;
#X connect 194 0 195 0;
#X connect 195 0 193 0;
#X connect 196 0 320 12;
#X connect 199 0 231 12;
#X connect 200 0 205 0;
#X connect 200 1 205 1;
#X connect 201 1 203 0;
#X connect 202 0 161 0;
#X connect 202 0 207 0;
#X connect 203 0 202 0;
#X connect 204 0 161 0;
#X connect 205 0 201 0;
#X connect 205 1 202 1;
#X connect 206 0 231 13;
#X connect 208 0 209 0;
#X connect 208 1 200 0;
#X connect 208 1 258 0;
#X connect 210 0 313 0;
#X connect 216 0 215 0;
#X connect 218 0 221 0;
#X connect 220 0 219 0;
#X connect 221 0 220 0;
#X connect 221 1 224 0;
#X connect 222 0 220 0;
#X connect 223 0 226 0;
#X connect 224 0 222 0;
#X connect 225 0 224 1;
#X connect 226 0 225 0;
#X connect 228 0 216 1;
#X connect 231 0 95 0;
#X connect 231 1 96 0;
#X connect 231 2 97 0;
#X connect 231 3 98 0;
#X connect 231 4 99 0;
#X connect 231 5 100 0;
#X connect 231 6 101 0;
#X connect 231 7 102 0;
#X connect 231 8 67 0;
#X connect 231 9 68 0;
#X connect 231 10 69 0;
#X connect 231 11 70 0;
#X connect 231 12 71 0;
#X connect 231 13 72 0;
#X connect 231 14 131 0;
#X connect 231 15 130 0;
#X connect 231 16 198 0;
#X connect 231 17 243 0;
#X connect 232 0 233 0;
#X connect 233 0 107 4;
#X connect 234 0 235 0;
#X connect 235 0 107 5;
#X connect 236 0 107 6;
#X connect 237 0 107 7;
#X connect 239 0 107 5;
#X connect 240 0 107 4;
#X connect 244 0 180 0;
#X connect 246 0 245 0;
#X connect 248 0 250 0;
#X connect 248 1 250 1;
#X connect 249 0 248 0;
#X connect 250 0 251 0;
#X connect 252 0 181 0;
#X connect 256 0 464 0;
#X connect 258 0 256 0;
#X connect 258 1 256 1;
#X connect 258 2 256 2;
#X connect 259 0 465 0;
#X connect 260 0 263 0;
#X connect 261 0 262 0;
#X connect 262 0 260 0;
#X connect 264 0 260 0;
#X connect 266 0 193 0;
#X connect 271 0 267 0;
#X connect 271 1 268 0;
#X connect 271 2 269 0;
#X connect 271 3 270 0;
#X connect 271 4 221 0;
#X connect 272 0 276 0;
#X connect 273 0 280 0;
#X connect 274 0 285 0;
#X connect 275 0 284 0;
#X connect 277 0 272 0;
#X connect 278 0 279 0;
#X connect 279 0 273 0;
#X connect 281 0 273 0;
#X connect 282 0 283 0;
#X connect 283 0 274 0;
#X connect 284 0 272 0;
#X connect 286 0 274 0;
#X connect 287 0 19 0;
#X connect 288 0 57 0;
#X connect 288 4 308 0;
#X connect 289 0 288 2;
#X connect 290 0 288 1;
#X connect 291 0 288 3;
#X connect 292 0 60 0;
#X connect 292 4 308 0;
#X connect 293 0 292 2;
#X connect 294 0 292 1;
#X connect 295 0 292 3;
#X connect 296 0 59 0;
#X connect 296 4 308 0;
#X connect 297 0 296 2;
#X connect 298 0 296 1;
#X connect 299 0 296 3;
#X connect 300 0 15 0;
#X connect 300 4 308 0;
#X connect 301 0 300 2;
#X connect 302 0 300 1;
#X connect 303 0 300 3;
#X connect 305 0 306 0;
#X connect 306 0 304 0;
#X connect 307 0 306 0;
#X connect 308 0 305 0;
#X connect 308 0 309 0;
#X connect 309 0 307 0;
#X connect 310 0 311 0;
#X connect 312 0 271 4;
#X connect 313 0 81 0;
#X connect 313 1 82 0;
#X connect 313 2 213 0;
#X connect 313 3 212 0;
#X connect 313 4 211 0;
#X connect 313 5 217 0;
#X connect 313 6 216 0;
#X connect 313 7 229 0;
#X connect 313 8 103 0;
#X connect 313 9 247 0;
#X connect 313 10 314 0;
#X connect 315 0 316 0;
#X connect 316 0 314 0;
#X connect 320 0 197 0;
#X connect 321 0 346 0;
#X connect 322 0 347 0;
#X connect 323 0 348 0;
#X connect 324 0 349 0;
#X connect 325 0 350 0;
#X connect 326 0 351 0;
#X connect 327 0 352 0;
#X connect 328 0 361 0;
#X connect 329 0 320 11;
#X connect 330 0 320 27;
#X connect 339 0 320 1;
#X connect 340 0 320 2;
#X connect 341 0 320 3;
#X connect 342 0 320 4;
#X connect 343 0 320 5;
#X connect 344 0 320 6;
#X connect 345 0 320 7;
#X connect 353 0 321 0;
#X connect 354 0 322 0;
#X connect 355 0 323 0;
#X connect 356 0 324 0;
#X connect 357 0 325 0;
#X connect 358 0 326 0;
#X connect 359 0 327 0;
#X connect 360 0 328 0;
#X connect 362 0 320 8;
#X connect 363 0 364 0;
#X connect 363 0 365 0;
#X connect 364 0 321 0;
#X connect 365 0 328 0;
#X connect 365 0 327 0;
#X connect 365 0 326 0;
#X connect 365 0 325 0;
#X connect 365 0 324 0;
#X connect 365 0 323 0;
#X connect 365 0 322 0;
#X connect 366 0 320 0;
#X connect 367 0 385 9;
#X connect 368 0 385 10;
#X connect 369 0 385 13;
#X connect 370 0 385 14;
#X connect 371 0 385 15;
#X connect 373 0 385 18;
#X connect 374 0 385 19;
#X connect 375 0 385 20;
#X connect 376 0 385 21;
#X connect 377 0 385 22;
#X connect 378 0 385 23;
#X connect 379 0 385 24;
#X connect 380 0 385 25;
#X connect 381 0 385 26;
#X connect 382 0 385 17;
#X connect 383 0 385 16;
#X connect 384 0 385 12;
#X connect 385 0 396 0;
#X connect 386 0 385 11;
#X connect 387 0 385 27;
#X connect 388 0 385 1;
#X connect 389 0 385 2;
#X connect 390 0 385 3;
#X connect 391 0 385 4;
#X connect 392 0 385 5;
#X connect 393 0 385 6;
#X connect 394 0 385 7;
#X connect 395 0 385 8;
#X connect 397 0 385 0;
#X connect 398 0 416 9;
#X connect 399 0 416 10;
#X connect 400 0 416 13;
#X connect 401 0 416 14;
#X connect 402 0 416 15;
#X connect 404 0 416 18;
#X connect 405 0 416 19;
#X connect 406 0 416 20;
#X connect 407 0 416 21;
#X connect 408 0 416 22;
#X connect 409 0 416 23;
#X connect 410 0 416 24;
#X connect 411 0 416 25;
#X connect 412 0 416 26;
#X connect 413 0 416 17;
#X connect 414 0 416 16;
#X connect 415 0 416 12;
#X connect 416 0 427 0;
#X connect 417 0 416 11;
#X connect 418 0 416 27;
#X connect 419 0 416 1;
#X connect 420 0 416 2;
#X connect 421 0 416 3;
#X connect 422 0 416 4;
#X connect 423 0 416 5;
#X connect 424 0 416 6;
#X connect 425 0 416 7;
#X connect 426 0 416 8;
#X connect 428 0 416 0;
#X connect 429 0 447 9;
#X connect 430 0 447 10;
#X connect 431 0 447 13;
#X connect 432 0 447 14;
#X connect 433 0 447 15;
#X connect 435 0 447 18;
#X connect 436 0 447 19;
#X connect 437 0 447 20;
#X connect 438 0 447 21;
#X connect 439 0 447 22;
#X connect 440 0 447 23;
#X connect 441 0 447 24;
#X connect 442 0 447 25;
#X connect 443 0 447 26;
#X connect 444 0 447 17;
#X connect 445 0 447 16;
#X connect 446 0 447 12;
#X connect 447 0 458 0;
#X connect 448 0 447 11;
#X connect 449 0 447 27;
#X connect 450 0 447 1;
#X connect 451 0 447 2;
#X connect 452 0 447 3;
#X connect 453 0 447 4;
#X connect 454 0 447 5;
#X connect 455 0 447 6;
#X connect 456 0 447 7;
#X connect 457 0 447 8;
#X connect 459 0 447 0;
#X connect 461 0 462 0;
#X connect 463 0 461 0;
#X connect 464 0 257 0;
#X connect 464 1 253 0;
#X connect 464 2 254 0;
#X connect 464 3 255 0;
#X connect 465 0 65 0;
#X connect 466 0 47 0;
#X coords 0 -1 1 1 1120 170 2 100 100;
