#N canvas 514 44 1390 805 12;
#X declare -path ../modules/commons;
#X floatatom 2093 192 5 0 127 0 - - - 0;
#X obj 2007 106 i;
#X obj 2088 106 i;
#X obj 2119 135 max 0;
#X obj 2006 29 r algo+_\$0;
#X obj 2084 19 r algo-_\$0;
#X obj 2009 157 min 127;
#X obj 2046 105 + 3;
#X obj 2116 106 - 3;
#X obj 2023 192 loadbang;
#X msg 2023 215 0;
#X obj 2092 244 s algo_select_\$0;
#X obj 520 -271 s ID_\$0;
#X obj 518 -324 loadbang;
#X obj 2149 164 r preset_algo_select_\$0;
#X obj -326 -65 s bang_\$0;
#X obj -255 -65 s rst_\$0;
#X obj 141 -290 s note_in_\$0;
#X obj 521 -245 loadbang;
#X msg 521 -219 \; pd dsp 1;
#X msg 519 -297 0;
#X obj 2010 65 bng 20 250 50 0 empty empty empty 0 -10 0 12 #fcfcfc #000000 #000000;
#X obj 2093 69 bng 20 250 50 0 empty empty empty 0 -10 0 12 #fcfcfc #000000 #000000;
#X obj -366 -374 inlet;
#X obj -101 -260 s save_\$0;
#X obj -177 -259 s load_\$0;
#X obj -186 -63 s ID_\$0;
#X obj 26 -170 s control_\$0;
#X obj 26 -198 route name;
#X obj -77 -288 s osc_name_\$0;
#X obj 704 408 r control_out_\$0;
#X obj 682 585 outlet;
#X obj 682 559 oscformat;
#X obj 685 481 list split 1;
#X obj 715 527 list trim;
#X obj 809 480 r osc_name_\$0;
#X obj 715 505 list prepend;
#X obj 809 525 list trim;
#X obj 809 503 list prepend set;
#X text 685 608 osc_out;
#X obj 48 -229 r osc_name_\$0;
#X obj 48 -255 s current_path_\$0;
#N canvas 472 139 1390 797 handle_presets 0;
#X obj 496 588 tabwrite presets_\$0;
#X msg 789 471 \$1 0;
#X obj 556 497 list;
#X obj 496 561 unpack 0 0;
#X obj 1221 351 r control_\$0;
#X obj 204 489 r x_1_\$0;
#X obj 269 490 r y_1_\$0;
#X obj 337 588 s control_out_\$0;
#X obj 337 512 list trim;
#X msg 204 511 \$1 106;
#X msg 269 512 \$1 107;
#X obj 698 197 r save_\$0;
#X obj 979 205 r load_\$0;
#X obj 1026 234 r ID_\$0;
#X obj 740 229 r ID_\$0;
#X obj 1083 233 r current_path_\$0;
#X obj 797 228 r current_path_\$0;
#X obj 979 267 load_preset presets_\$0;
#X obj 740 471 s p_\$0;
#X obj 740 493 s p_\$0;
#X obj 740 515 s p_\$0;
#X obj 556 474 r p_\$0;
#X obj 828 471 r value0_\$0;
#X obj 828 493 r value1_\$0;
#X obj 828 515 r value2_\$0;
#X msg 789 493 \$1 1;
#X msg 789 515 \$1 2;
#X obj 740 537 s p_\$0;
#X obj 740 559 s p_\$0;
#X obj 740 581 s p_\$0;
#X msg 789 537 \$1 3;
#X msg 789 559 \$1 4;
#X msg 789 581 \$1 5;
#X obj 828 537 r value3_\$0;
#X obj 828 559 r value4_\$0;
#X obj 828 581 r value5_\$0;
#X obj 941 741 s preset_value0_\$0;
#X obj 960 719 s preset_value1_\$0;
#X obj 980 697 s preset_value2_\$0;
#X obj 999 675 s preset_value3_\$0;
#X obj 1018 653 s preset_value4_\$0;
#X obj 1038 631 s preset_value5_\$0;
#X obj 1274 597 s ctrl_value6_\$0;
#X obj 1312 576 s ctrl_value7_\$0;
#X obj 1350 554 s ctrl_value8_\$0;
#X obj 812 50 table presets_\$0 6;
#X obj 1242 209 r load_init_\$0;
#X obj 1243 264 load_init presets_\$0 insert_abs_folder;
#X obj 337 444 r feedback_some_name_\$0;
#X msg 382 208 0;
#X obj 698 269 save_preset presets_\$0 6;
#X obj 382 267 save_init presets_\$0 6 simple_module_abs;
#X text 411 209 click to save as init;
#X obj 1307 429 route 100 101 102 103 104;
#X obj 1392 523 s ctrl_value9_\$0;
#X obj 1430 501 s ctrl_value10_\$0;
#X obj 1045 426 route 0 1 2 3 4 5 6 7 8 9 10 11 12;
#X obj 1080 599 s preset_value6_\$0;
#X obj 1099 577 s preset_value7_\$0;
#X obj 1119 555 s preset_value8_\$0;
#X obj 1138 533 s preset_value9_\$0;
#X obj 1169 511 s preset_value10_\$0;
#X obj 1196 489 s preset_value11_\$0;
#X obj 337 490 list append 204;
#X connect 1 0 18 0;
#X connect 2 0 3 0;
#X connect 2 0 7 0;
#X connect 3 0 0 0;
#X connect 3 1 0 1;
#X connect 4 0 56 0;
#X connect 5 0 9 0;
#X connect 6 0 10 0;
#X connect 8 0 7 0;
#X connect 9 0 7 0;
#X connect 10 0 7 0;
#X connect 11 0 50 0;
#X connect 12 0 17 0;
#X connect 13 0 17 1;
#X connect 14 0 50 1;
#X connect 15 0 17 2;
#X connect 16 0 50 2;
#X connect 17 0 56 0;
#X connect 21 0 2 0;
#X connect 22 0 1 0;
#X connect 23 0 25 0;
#X connect 24 0 26 0;
#X connect 25 0 19 0;
#X connect 26 0 20 0;
#X connect 30 0 27 0;
#X connect 31 0 28 0;
#X connect 32 0 29 0;
#X connect 33 0 30 0;
#X connect 34 0 31 0;
#X connect 35 0 32 0;
#X connect 46 0 47 0;
#X connect 47 0 56 0;
#X connect 48 0 63 0;
#X connect 49 0 51 0;
#X connect 53 0 42 0;
#X connect 53 1 43 0;
#X connect 53 2 44 0;
#X connect 53 3 54 0;
#X connect 53 4 55 0;
#X connect 56 0 36 0;
#X connect 56 1 37 0;
#X connect 56 2 38 0;
#X connect 56 3 39 0;
#X connect 56 4 40 0;
#X connect 56 5 41 0;
#X connect 56 6 57 0;
#X connect 56 7 58 0;
#X connect 56 8 59 0;
#X connect 56 9 60 0;
#X connect 56 10 61 0;
#X connect 56 11 62 0;
#X connect 56 13 53 0;
#X connect 63 0 8 0;
#X restore 516 -175 pd handle_presets;
#X obj 518 -140 declare -path ../modules/commons;
#X text 527 -115 change the path to ./commons;
#X obj 196 -258 s load_init_\$0;
#X obj -326 -323 route bang_bpm rst instance_id load save osc_name osc current_path notes init, f 90;
#X obj 136 221 fx_chain;
#X obj 112 115 vsl 18 153 0 1 0 0 empty empty empty 0 -9 0 10 #fcfcfc #000000 #000000 0 1;
#X obj 137 274 hsl 153 18 0 1 0 0 empty empty empty -2 -9 0 10 #fcfcfc #000000 #000000 0 1;
#X obj 112 274 tgl 18 0 empty empty empty 0 -9 0 10 #fcfcfc #000000 #000000 0 1;
#X obj 141 374 outlet~;
#X obj 136 106 wavefold;
#X obj 710 -389 inlet~;
#X obj 145 -184 r preset_value0_\$0;
#X obj 166 -158 r preset_value1_\$0;
#X obj 189 -135 r preset_value2_\$0;
#X obj 240 -113 r preset_value3_\$0;
#X obj 279 -85 r ctrl_value6_\$0;
#X obj 296 -63 r ctrl_value7_\$0;
#X obj 321 -40 r ctrl_value8_\$0;
#X obj 340 -15 r ctrl_value9_\$0;
#X obj 365 7 r ctrl_value10_\$0;
#X obj 246 108 mono_delay_flanger;
#X obj 591 -68 r preset_value4_\$0;
#X obj 594 -42 r preset_value5_\$0;
#X obj 617 -19 r preset_value6_\$0;
#X obj 668 3 r preset_value7_\$0;
#X obj 694 22 r preset_value8_\$0;
#X obj 697 49 r preset_value9_\$0;
#X obj 720 72 r preset_value10_\$0;
#X obj -57 -129 print;
#X obj 302 338 s feedback_some_name_\$0;
#X obj 266 304 unpack 0 s;
#X obj 266 -32 / 127;
#X obj 276 -22 / 127;
#X obj 286 -12 / 127;
#X obj 144 -116 / 127;
#X obj 180 -74 / 127;
#X obj 213 -58 / 127;
#X connect 0 0 2 1;
#X connect 0 0 1 1;
#X connect 0 0 11 0;
#X connect 1 0 7 0;
#X connect 2 0 8 0;
#X connect 3 0 0 0;
#X connect 4 0 21 0;
#X connect 5 0 22 0;
#X connect 6 0 0 0;
#X connect 7 0 6 0;
#X connect 8 0 3 0;
#X connect 9 0 10 0;
#X connect 10 0 0 0;
#X connect 13 0 20 0;
#X connect 14 0 0 0;
#X connect 18 0 19 0;
#X connect 20 0 12 0;
#X connect 21 0 1 0;
#X connect 22 0 2 0;
#X connect 23 0 46 0;
#X connect 28 0 27 0;
#X connect 28 0 71 0;
#X connect 30 0 33 0;
#X connect 32 0 31 0;
#X connect 33 0 32 0;
#X connect 33 1 36 0;
#X connect 34 0 32 0;
#X connect 35 0 38 0;
#X connect 36 0 34 0;
#X connect 37 0 36 1;
#X connect 38 0 37 0;
#X connect 40 0 28 1;
#X connect 46 0 15 0;
#X connect 46 1 16 0;
#X connect 46 2 26 0;
#X connect 46 3 25 0;
#X connect 46 4 24 0;
#X connect 46 5 29 0;
#X connect 46 6 28 0;
#X connect 46 7 41 0;
#X connect 46 8 17 0;
#X connect 46 9 45 0;
#X connect 47 0 51 0;
#X connect 47 2 73 0;
#X connect 48 0 47 2;
#X connect 49 0 47 1;
#X connect 50 0 47 3;
#X connect 52 0 63 0;
#X connect 53 0 52 0;
#X connect 54 0 77 0;
#X connect 55 0 52 2;
#X connect 56 0 78 0;
#X connect 57 0 79 0;
#X connect 58 0 74 0;
#X connect 59 0 75 0;
#X connect 60 0 76 0;
#X connect 61 0 47 4;
#X connect 62 0 47 5;
#X connect 63 0 47 0;
#X connect 64 0 63 0;
#X connect 65 0 63 1;
#X connect 66 0 63 2;
#X connect 67 0 63 3;
#X connect 68 0 63 4;
#X connect 69 0 63 5;
#X connect 70 0 63 6;
#X connect 73 1 72 0;
#X connect 74 0 47 1;
#X connect 75 0 47 2;
#X connect 76 0 47 3;
#X connect 77 0 52 1;
#X connect 78 0 52 3;
#X connect 79 0 52 4;
#X coords 0 -1 1 1 260 200 2 100 100;
