#N canvas 66 32 1854 1097 12;
#X declare -path ../quad_effects;
#X obj 353 1163 dac~ 1 2 3 4;
#X obj -22 566 phase_looper;
#X obj 4 262 adc~ 1;
#X text -16 238 signal_in;
#X obj 1521 328 loadbang;
#X msg 1521 351 \; pd dsp 1;
#X obj 1523 296 declare -path ../quad_effects;
#X obj 56 732 quad_effects_with_sends;
#X obj 1120 1168 stdout;
#X obj 99 255 r sub1;
#X obj 1364 714 r sub2;
#X connect 1 0 7 0;
#X connect 1 0 7 4;
#X connect 1 1 7 1;
#X connect 1 1 7 5;
#X connect 1 2 7 2;
#X connect 1 2 7 6;
#X connect 1 3 7 3;
#X connect 1 3 7 7;
#X connect 1 4 8 0;
#X connect 4 0 5 0;
#X connect 7 0 0 0;
#X connect 7 1 0 1;
#X connect 7 2 0 2;
#X connect 7 3 0 3;
#X connect 9 0 1 1;
#X connect 10 0 7 8;
#X coords 0 1097 1 1096 1010 150 0;
