#N canvas 392 132 1390 805 12;
#X declare -path ../quad_effects;
#X obj 353 871 dac~ 1 2 3 4;
#X obj 15 84 phase_looper;
#X obj 300 -34 adc~ 1;
#X obj 1521 36 loadbang;
#X msg 1521 59 \; pd dsp 1;
#X obj 1523 4 declare -path ../quad_effects;
#X obj 1233 872 stdout;
#X obj 99 -37 r sub1;
#X obj 8 503 quad_effects;
#X text -16 -54;
#X obj -7 432 r sub2;
#X connect 1 0 8 1;
#X connect 1 0 8 5;
#X connect 1 1 8 2;
#X connect 1 1 8 6;
#X connect 1 2 8 3;
#X connect 1 2 8 7;
#X connect 1 3 8 4;
#X connect 1 3 8 8;
#X connect 1 4 6 0;
#X connect 2 0 1 1;
#X connect 3 0 4 0;
#X connect 7 0 1 0;
#X connect 8 0 0 0;
#X connect 8 1 0 1;
#X connect 8 2 0 2;
#X connect 8 3 0 3;
#X connect 8 4 6 0;
#X connect 10 0 8 0;
#X coords 0 805 1 804 1010 150 0;
