#N canvas 258 183 1390 788 12;
#X obj 382 542 dac~ 1 2 3 4;
#X obj 58 260 phase_looper;
#X obj 277 137 adc~ 1;
#X text 257 113 signal_in;
#X obj 1285 438 loadbang;
#X msg 1285 461 \; pd dsp 1;
#X obj 775 139 r sub1;
#X obj 58 179 readsf~;
#X msg 0 144 start;
#X msg 64 150 0;
#X msg 54 123 open ../satie.wav;
#X obj 1 89 t b b;
#X obj 66 220 bng 20 250 50 0 empty empty empty 0 -10 0 12 #fcfcfc #000000 #000000;
#X connect 1 0 0 0;
#X connect 1 1 0 1;
#X connect 1 2 0 2;
#X connect 1 3 0 3;
#X connect 4 0 5 0;
#X connect 6 0 1 1;
#X connect 7 0 1 0;
#X connect 7 1 11 0;
#X connect 8 0 7 0;
#X connect 9 0 7 0;
#X connect 10 0 7 0;
#X connect 11 0 8 0;
#X connect 11 1 10 0;
#X connect 12 0 11 0;
#X coords 0 788 1 787 1010 150 0;
