#N canvas 258 183 1390 788 12;
#X text 410 109 ext_bang;
#X text 507 111 ext_rst;
#X text 624 114 load_save;
#X obj 382 542 dac~ 1 2 3 4;
#X obj 609 139 r load_save;
#X obj 527 139 r rst;
#X obj 775 139 r control;
#X text 781 111 control;
#X obj 58 260 phase_looper;
#X obj 277 137 adc~ 1;
#X text 257 113 signal_in;
#X obj 401 138 r bang_bpm;
#X obj 1285 438 loadbang;
#X msg 1285 461 \; pd dsp 1;
#X connect 4 0 8 3;
#X connect 5 0 8 2;
#X connect 6 0 8 4;
#X connect 8 0 3 0;
#X connect 8 1 3 1;
#X connect 8 2 3 2;
#X connect 8 3 3 3;
#X connect 11 0 8 1;
#X connect 12 0 13 0;
#X coords 0 788 1 787 1010 150 0;
