#N canvas 516 182 1390 805 10;
#X declare -path ./phase_looper_abs;
#X obj 1369 -719 loadbang;
#X msg -327 334 start;
#X obj 298 116 vsl 20 80 0 127 0 0 empty empty env 0 -9 1 12 #000000 #ffffff #7c7c7c 0 1;
#X obj 249 118 vradio 13 1 0 7 empty empty oct 0 -10 1 12 #000000 #ffffff #7c7c7c 0;
#X obj 323 116 vsl 20 100 0 127 0 0 empty empty spr 0 -9 1 12 #000000 #ffffff #7c7c7c 0 1;
#X obj 294 -86 s env_glob_\$0;
#X obj 448 -594 s frq_glob_\$0;
#X obj 255 7 s oct_glob_\$0;
#X obj 322 -150 s spr_glob_\$0;
#X obj 215 107 vradio 18 1 0 4 empty empty empty 0 -9 0 10 #000000 #ffffff #000000 0;
#X obj -706 1212 r len_glob_\$0;
#X obj -626 1295 r env_glob_\$0;
#X obj -647 1275 r spr_glob_\$0;
#X obj -175 1126 r frq_glob_\$0;
#X obj -686 1013 r oct_glob_\$0;
#X obj -755 1166 loadbang;
#X obj -687 1232 r rev_glob_\$0;
#X obj 236 -245 s rev_glob_\$0;
#X obj 230 206 tgl 18 0 empty empty rev 0 -9 1 10 #fcfcfc #000000 #7c7c7c 0 1;
#X obj -800 1446 reader, f 144;
#X msg -280 334 stop;
#X obj 187 124 cnv 18 20 20 empty empty phas 2 11 1 10 #ffffff #404040 0;
#X obj 188 141 cnv 18 20 20 empty empty over 2 11 1 10 #ffffff #404040 0;
#X obj 929 145 vsl 18 85 0 127 0 0 empty empty spd 0 -9 1 10 #000000 #ffffff #7c7c7c 0 1;
#X obj 954 147 vsl 18 85 0 127 0 0 empty empty fbk 0 -9 1 10 #000000 #ffffff #7c7c7c 0 1;
#X obj 460 121 vsl 18 100 0 127 0 0 empty empty frq 0 -9 1 10 #000000 #ffffff #7c7c7c 0 1;
#X obj -797 1616 s~ reader_1_signal;
#X obj -63 1242 r vol_glob_\$0;
#X obj -37 1682 r~ reader_3_signal;
#X obj -406 1688 r~ reader_1_signal;
#X obj -222 1685 r~ reader_2_signal;
#X obj 146 1682 r~ reader_4_signal;
#X obj 237 -273 r preset_rev_glob_\$0;
#X obj 254 -33 r preset_oct_glob_\$0;
#X obj 291 -122 r preset_env_glob_\$0;
#X obj 323 -187 r preset_spr_glob_\$0;
#X obj 449 -632 r preset_frq_glob_\$0;
#X obj 1145 -190 r preset_vol_glob_\$0;
#X obj 852 536 s set_preset_sync_\$0;
#X obj 876 513 s set_preset_div_\$0;
#X obj 901 492 s set_preset_bpm_\$0;
#X obj 921 471 s set_preset_shape_\$0;
#X obj 938 448 s set_preset_trans_\$0;
#X obj 955 426 s set_preset_spread_\$0;
#X obj 1513 28 r preset_spread_\$0;
#X obj 1491 9 r preset_trans_\$0;
#X obj 1472 -10 r preset_shape_\$0;
#X obj 1430 -49 r preset_div_\$0;
#X obj 1452 -30 r preset_bpm_\$0;
#X obj 1403 -71 r preset_sync_\$0;
#X obj 1007 123 vsl 18 100 0 1 0 0 empty empty vol 0 -9 1 10 #000000 #ffffff #7c7c7c 0 1;
#X obj 1153 -154 s vol_glob_\$0;
#X obj 159 205 nbx 4 16 0 1e+37 0 0 empty empty empty 0 -9 0 10 #fcfcfc #000000 #000000 0 256;
#X obj 135 180 bng 18 250 50 0 empty empty go 3 10 1 10 #fcfcfc #000000 #000000;
#X obj 106 180 cnv 18 20 15 empty empty fixed 2 11 1 10 #ffffff #404040 0;
#X obj 157 181 nbx 4 16 0 1999 0 0 empty empty empty 0 -9 1 10 #fcfcfc #000000 #000000 0 256;
#X obj -278 283 delay;
#X obj 136 205 tgl 18 0 empty empty empty 0 -9 0 10 #fcfcfc #000000 #000000 0 1;
#X obj 110 204 cnv 18 20 15 empty empty rpt 2 11 1 10 #ffffff #404040 0;
#X msg -755 1189 0;
#X obj -1 268 s len_glob_\$0;
#X obj 204 180 cnv 18 20 15 empty empty ms 2 11 1 10 #ffffff #404040 0;
#X obj 631 -819 loadbang;
#X obj 631 -796 f \$0;
#X obj 631 -774 s glob_id_\$0;
#X obj -414 416 tabwrite~ loop_\$0;
#X obj -719 1193 r glob_id_\$0;
#X obj 261 -262 loadbang;
#X msg 236 -263 0;
#X obj 231 -177 loadbang;
#X msg 206 -178 0;
#X obj 280 -11 loadbang;
#X obj 319 -102 loadbang;
#X msg 294 -103 64;
#X obj 346 -169 loadbang;
#X msg 321 -170 0;
#X obj 475 -612 loadbang;
#X msg 450 -613 64;
#X obj 960 -179 loadbang;
#X obj 989 -119 loadbang;
#X msg 965 -120 0;
#X obj 1172 -208 loadbang;
#X text -13 -790 signal;
#X obj 481 121 vsl 18 100 0 127 0 0 empty empty q 0 -9 1 10 #000000 #ffffff #7c7c7c 0 1;
#X obj 498 -479 loadbang;
#X msg 474 -482 0;
#X obj -335 299 bng 18 250 50 0 empty empty empty 0 -9 0 10 #fcfcfc #000000 #000000;
#X obj -278 306 bng 18 250 50 0 empty empty empty 0 -9 0 10 #fcfcfc #000000 #000000;
#X obj -507 -161 samplerate~;
#X floatatom -507 -134 7 0 0 0 - - - 0;
#X obj -504 -86 pack 0 0;
#X msg -481 -47 \; loop_\$2 resize \$1;
#X obj -461 -112 f \$0;
#X obj -505 -218 loadbang;
#X obj -504 -111 * 4;
#X obj -506 -190 t b b;
#X obj -430 -192 bng 18 250 50 0 empty empty empty 0 -9 0 10 #fcfcfc #000000 #000000;
#X obj -637 -48 s full_table_length_\$0;
#X obj -573 1134 r fold_glob_\$0;
#X obj 515 -545 loadbang;
#X obj 489 -565 r preset_flt_sel_glob_\$0;
#X obj 490 -529 s flt_sel_glob_\$0;
#X obj 473 -499 r preset_q_glob_\$0;
#X obj 503 119 vradio 15 1 0 7 empty empty empty 0 -9 0 10 #fcfcfc #000000 #000000 0;
#X text 524 117 lp;
#X text 524 131 hp;
#X text 524 147 bp;
#X text 524 161 bob;
#X text 523 206 off;
#X text 524 176 an;
#X text 523 192 lad;
#X msg 490 -546 6;
#X obj -553 1156 r stgs_glob_\$0;
#X obj -205 1104 r flt_sel_glob_\$0;
#X obj -148 1149 r q_glob_\$0;
#X obj 471 -461 s q_glob_\$0;
#X obj 345 646 loadbang;
#X obj 472 939 loadbang;
#X obj 404 784 loadbang;
#X obj 378 761 s lfo1_frq_glob_\$0;
#X obj 377 802 r preset_lfo1_frq_glob_\$0;
#X obj 446 916 s lfo1_dep_glob_\$0;
#X obj 445 963 r preset_lfo1_dep_glob_\$0;
#X obj 319 623 s lfo1_wave_glob_\$0;
#X obj 318 664 r preset_lfo1_wave_glob_\$0;
#X msg 320 644 0;
#X msg 447 938 0;
#X obj 725 258 four_quad_pan_automations;
#X msg 379 783 70;
#X obj 499 1012 loadbang;
#X obj 473 989 s lfo1_mul_glob_\$0;
#X obj 473 1030 r preset_lfo1_mul_glob_\$0;
#X msg 470 1011 2;
#X obj -46 1264 r lfo2_ass_glob_\$0;
#X obj 264 1442 s~ reader_2_signal;
#X obj 1290 1606 s~ reader_3_signal;
#X obj 2337 1599 s~ reader_4_signal;
#X obj 105 131 tgl 18 0 empty empty empty 0 -9 0 10 #fcfcfc #000000 #000000 0 1;
#X obj -386 1890 quad_pan;
#X obj -205 1889 quad_pan;
#X obj -27 1890 quad_pan;
#X obj 150 1889 quad_pan;
#X obj -349 1837 r x_1_\$0;
#X obj -287 1837 r y_1_\$0;
#X obj -172 1836 r x_2_\$0;
#X obj -115 1836 r y_2_\$0;
#X obj -17 1839 r x_3_\$0;
#X obj 47 1841 r y_3_\$0;
#X obj 243 1838 r y_4_\$0;
#X obj 182 1839 r x_4_\$0;
#X obj 142 55 s phase_sync_\$0;
#X obj -34 1286 r phase_sync_\$0;
#X obj 1191 -54 r ext_bang_\$0;
#X obj 1225 -32 r ext_rst_\$0;
#X obj 299 201 bng 18 250 50 0 empty empty empty 0 -9 0 10 #fcfcfc #000000 #000000;
#X obj 294 -65 r ctrl_env_rst_\$0;
#X obj 1526 51 r ctrl_shape-_\$0;
#X obj 1539 72 r ctrl_shape+_\$0;
#X obj 1002 387 s feedbk_shape_name_\$0;
#X obj 680 494 s x_1_\$0;
#X obj 680 513 s y_1_\$0;
#X obj 684 530 s x_2_\$0;
#X obj 687 544 s y_2_\$0;
#X obj 691 559 s x_3_\$0;
#X obj 694 579 s y_3_\$0;
#X obj 690 598 s x_4_\$0;
#X obj 695 617 s y_4_\$0;
#X obj 196 628 loadbang;
#X obj 159 608 r preset_recdur_\$0;
#X obj 165 648 s recdur_\$0;
#X obj 193 705 loadbang;
#X obj 156 685 r preset_retramt_\$0;
#X obj 157 725 s retramt_\$0;
#X obj 171 764 loadbang;
#X obj 134 744 r preset_retrsel_\$0;
#X obj 135 784 s retrsel_\$0;
#X msg 134 769 0;
#X msg 157 706 3;
#X obj 246 -123 loadbang;
#X obj 211 -100 s phase_sync_\$0;
#X obj 209 -142 r preset_phase_sync_\$0;
#X msg 210 -122 0;
#X obj 133 -40 r ctrl_go_rec_\$0;
#X obj -400 509 tgl 18 0 empty empty empty 0 -9 0 10 #fcfcfc #000000 #000000 0 1;
#X msg -362 480 1;
#X msg -329 487 0;
#X obj -397 537 s feedbk_rec_on_\$0;
#X obj 188 158 cnv 18 20 20 empty empty simp 2 11 1 10 #ffffff #404040 0;
#X msg 165 630 2000;
#X obj -782 1142 r mode_glob_\$0;
#X obj 205 -196 s mode_glob_\$0;
#X obj 634 -730 table loop_\$0 352800;
#X text 625 -751 8 seconds loop at 44100;
#X obj 205 -216 r ctrl_mode_glob_\$0;
#X obj 975 404 s set_preset_mono_phase_\$0;
#X obj 1547 90 r preset_mono_phase_\$0;
#X obj 351 121 vsl 20 100 0 1 0 0 empty empty fold 0 -9 1 12 #000000 #ffffff #7c7c7c 0 1;
#X obj 375 142 vradio 20 1 0 4 empty empty mode 0 -10 1 12 #fcfcfc #000000 #000000 0;
#X obj 368 -491 loadbang;
#X msg 339 -492 0;
#X obj 392 -425 loadbang;
#X msg 363 -426 0;
#X obj 433 123 vsl 20 100 0 1 0 0 empty empty mix 0 -9 1 12 #000000 #ffffff #7c7c7c 0 1;
#X obj 459 -355 loadbang;
#X msg 430 -356 0;
#X obj 431 -375 s fold_mix_\$0;
#X obj 430 -337 r preset_fold_mix_\$0;
#X obj 629 121 vsl 20 80 -48 48 0 0 empty empty trn 0 -9 1 12 #000000 #ffffff #7c7c7c 0 1;
#X obj 654 123 vsl 20 100 0 1 0 0 empty empty pos 0 -9 1 12 #000000 #ffffff #7c7c7c 0 1;
#X obj 679 123 vsl 20 100 0 1 0 0 empty empty str 0 -9 1 12 #000000 #ffffff #7c7c7c 0 1;
#X obj 709 123 vsl 20 100 0 1 0 0 empty empty brt 0 -9 1 12 #000000 #ffffff #7c7c7c 0 1;
#X obj 733 122 vsl 20 100 0 1 0 0 empty empty dmp 0 -9 1 12 #000000 #ffffff #7c7c7c 0 1;
#X obj 787 122 vsl 20 100 0 1 0 0 empty empty dw 0 -9 1 12 #000000 #ffffff #7c7c7c 0 1;
#X obj 761 125 vradio 20 1 0 5 empty empty mod 0 -10 0 12 #fcfcfc #000000 #000000 0;
#X obj 565 187 tgl 20 0 empty empty trg 0 -10 1 12 #fcfcfc #000000 #000000 0 1;
#X obj 566 -190 s exciter_rngs_\$0;
#X obj 564 -297 s poly_rngs_\$0;
#X obj 606 -245 s pitch_rngs_\$0;
#X obj 629 38 s transp_rngs_\$0;
#X obj 654 -20 s posit_rngs_\$0;
#X obj 676 -81 s struct_rngs_\$0;
#X obj 702 -126 s bright_rngs_\$0;
#X obj 724 -167 s damp_rngs_\$0;
#X obj 754 -213 s model_rngs_\$0;
#X obj 773 -287 s rngs_dw_\$0;
#X obj 630 18 r preset_transp_rngs_\$0;
#X obj 653 -40 r preset_posit_rngs_\$0;
#X obj 675 -103 r preset_struct_rngs_\$0;
#X obj 702 -146 r preset_bright_rngs_\$0;
#X obj 722 -189 r preset_damp_rngs_\$0;
#X obj 753 -235 r preset_model_rngs_\$0;
#X obj 774 -264 r preset_rngs_dw_\$0;
#X obj 607 -266 r preset_pitch_rngs_\$0;
#X obj 564 -212 r preset_exciter_rngs_\$0;
#X obj 564 -319 r preset_poly_rngs_\$0;
#X msg 597 401 0;
#X obj 565 208 bng 20 250 50 0 empty empty empty 0 -10 0 12 #fcfcfc #000000 #000000;
#X obj 628 205 bng 20 250 50 0 empty empty empty 0 -10 0 12 #fcfcfc #000000 #000000;
#X obj 536 373 s control_trig_go_\$0;
#X obj 563 121 vradio 15 1 0 3 empty empty poly 0 -10 1 12 #fcfcfc #000000 #000000 0;
#X obj 606 124 vradio 15 1 0 6 empty empty pch 0 -10 1 12 #fcfcfc #000000 #000000 0;
#X text 620 122 -;
#X text 595 168 0;
#X text 590 153 +1;
#X text 590 138 +2;
#X text 590 184 -1;
#X text 590 198 -2;
#X obj -537 1178 r fold_mix_\$0;
#X obj -480 1243 r poly_rngs_\$0;
#X obj -460 1264 r pitch_rngs_\$0;
#X obj -438 1291 r transp_rngs_\$0;
#X obj -369 1152 r posit_rngs_\$0;
#X obj -360 1172 r struct_rngs_\$0;
#X obj -347 1194 r bright_rngs_\$0;
#X obj -329 1214 r damp_rngs_\$0;
#X obj -310 1234 r model_rngs_\$0;
#X obj -498 1222 r exciter_rngs_\$0;
#X obj -520 1201 r trigger_rngs_\$0;
#X obj -290 1254 r rngs_dw_\$0;
#X obj 338 -511 s fold_glob_\$0;
#X obj 340 -474 r preset_fold_glob_\$0;
#X obj 362 -449 s stgs_glob_\$0;
#X obj -637 -594 s rst_\$0;
#X obj -607 -762 inlet;
#X obj -448 -592 s save_\$0;
#X obj -524 -591 s load_\$0;
#X obj -584 -592 s ID_\$0;
#X text -610 -787 internal_in;
#X obj -352 -485 s control_\$0;
#X obj -365 -518 route name;
#X obj -408 -620 s osc_name_\$0;
#X obj 392 2077 r control_out_\$0;
#X obj 370 2254 outlet;
#X obj 370 2228 oscformat;
#X obj 373 2150 list split 1;
#X obj 403 2196 list trim;
#X obj 497 2149 r osc_name_\$0;
#X obj 403 2174 list prepend;
#X obj 497 2194 list trim;
#X obj 497 2172 list prepend set;
#X text 373 2277 osc_out;
#X obj -334 -558 r osc_name_\$0;
#X obj 635 -703 declare -path ./phase_looper_abs;
#N canvas 52 20 1854 977 handle_presets 0;
#X obj 563 1739 tabwrite presets_\$0;
#X msg 683 397 \$1 1;
#X msg 683 373 \$1 0;
#X msg 683 421 \$1 2;
#X msg 683 445 \$1 3;
#X msg 683 469 \$1 4;
#X msg 683 493 \$1 5;
#X msg 683 517 \$1 6;
#X msg 683 541 \$1 7;
#X msg 683 565 \$1 8;
#X msg 683 589 \$1 9;
#X msg 683 613 \$1 10;
#X msg 683 637 \$1 11;
#X msg 683 661 \$1 12;
#X msg 683 685 \$1 13;
#X obj 717 445 r spr_glob_\$0;
#X obj 717 421 r env_glob_\$0;
#X obj 717 397 r oct_glob_\$0;
#X obj 717 373 r rev_glob_\$0;
#X obj 721 1324 r vol_glob_\$0;
#X obj 927 757 s preset_rev_glob_\$0;
#X obj 940 730 s preset_oct_glob_\$0;
#X obj 969 699 s preset_env_glob_\$0;
#X obj 989 672 s preset_spr_glob_\$0;
#X msg 683 709 \$1 14;
#X msg 683 733 \$1 15;
#X msg 683 757 \$1 16;
#X msg 683 781 \$1 17;
#X obj 717 949 r set_preset_sync_\$0;
#X obj 717 973 r set_preset_div_\$0;
#X obj 756 997 r set_preset_bpm_\$0;
#X obj 717 1021 r set_preset_shape_\$0;
#X obj 717 1045 r set_preset_trans_\$0;
#X obj 717 1069 r set_preset_spread_\$0;
#X msg 683 805 \$1 18;
#X msg 683 829 \$1 19;
#X msg 683 853 \$1 20;
#X msg 683 877 \$1 21;
#X msg 683 901 \$1 22;
#X msg 683 925 \$1 23;
#X msg 683 949 \$1 24;
#X msg 683 973 \$1 25;
#X msg 683 997 \$1 26;
#X msg 683 1021 \$1 27;
#X msg 683 1045 \$1 28;
#X msg 683 1069 \$1 29;
#X msg 683 1093 \$1 30;
#X msg 683 1117 \$1 31;
#X obj 717 637 r frq_glob_\$0;
#X obj 1109 506 s preset_frq_glob_\$0;
#X obj 717 469 r fold_glob_\$0;
#X obj 1004 650 s preset_fold_glob_\$0;
#X obj 717 661 r flt_sel_glob_\$0;
#X obj 717 685 r q_glob_\$0;
#X obj 717 781 r lfo1_frq_glob_\$0;
#X obj 717 805 r lfo1_dep_glob_\$0;
#X obj 717 829 r lfo1_wave_glob_\$0;
#X obj 717 853 r lfo2_frq_glob_\$0;
#X obj 717 877 r lfo2_dep_glob_\$0;
#X obj 717 901 r lfo2_wave_glob_\$0;
#X obj 717 925 r lfo2_ass_glob_\$0;
#X obj 1109 750 s preset_flt_sel_glob_\$0;
#X obj 1130 727 s preset_q_glob_\$0;
#X obj 1906 573 s preset_vol_glob_\$0;
#X obj 1217 645 s preset_lfo1_frq_glob_\$0;
#X obj 1243 622 s preset_lfo1_dep_glob_\$0;
#X obj 1265 601 s preset_lfo1_wave_glob_\$0;
#X obj 1287 580 s preset_lfo2_frq_glob_\$0;
#X obj 1309 558 s preset_lfo2_dep_glob_\$0;
#X obj 1326 538 s preset_lfo2_wave_glob_\$0;
#X obj 1343 516 s preset_lfo2_ass_glob_\$0;
#X obj 1060 393 r control_\$0;
#X obj 215 1391 s control_out_\$0;
#X obj 554 1604 list;
#X obj 577 1687 unpack 0 0;
#X obj 1953 232 s ctrl_env_rst_\$0;
#X obj 1968 256 s ctrl_shape-_\$0;
#X obj 1986 278 s ctrl_shape+_\$0;
#X obj 340 675 r feedbk_shape_name_\$0;
#X obj 723 1093 r stgs_glob_\$0;
#X obj 1627 677 s preset_stgs_glob_\$0;
#X obj 1478 649 s preset_div_\$0;
#X obj 1455 671 s preset_sync_\$0;
#X obj 1523 626 s preset_bpm_\$0;
#X obj 1511 603 s preset_shape_\$0;
#X obj 1538 581 s preset_trans_\$0;
#X obj 1557 561 s preset_spread_\$0;
#X obj 1492 625 i;
#X obj 725 997 i;
#X obj 2035 308 s ctrl_go_rec_\$0;
#X obj 723 1139 r recdur_\$0;
#X obj 722 1118 r phase_sync_\$0;
#X obj 724 1165 r retramt_\$0;
#X obj 724 1189 r retrsel_\$0;
#X obj 1649 657 s preset_phase_sync_\$0;
#X obj 1661 637 s preset_recdur_\$0;
#X obj 1677 616 s preset_retramt_\$0;
#X obj 1700 598 s preset_retrsel_\$0;
#X msg 681 1140 \$1 32;
#X msg 681 1164 \$1 33;
#X msg 681 1188 \$1 34;
#X obj 370 861 r feedbk_rec_on_\$0;
#X obj -161 498 r x_1_\$0;
#X obj -102 502 r y_1_\$0;
#X obj -159 561 r x_2_\$0;
#X obj -102 564 r y_2_\$0;
#X obj -106 651 r y_3_\$0;
#X obj -164 647 r x_3_\$0;
#X obj -163 730 r x_4_\$0;
#X obj -105 731 r y_4_\$0;
#X msg 681 1209 \$1 35;
#X obj 724 1210 r set_preset_mono_phase_\$0;
#X obj 1714 576 s preset_mono_phase_\$0;
#X obj 717 493 r poly_rngs_\$0;
#X obj 720 518 r exciter_rngs_\$0;
#X obj 721 542 r pitch_rngs_\$0;
#X obj 717 566 r struct_rngs_\$0;
#X obj 720 588 r posit_rngs_\$0;
#X obj 720 612 r transp_rngs_\$0;
#X obj 724 1231 r rngs_dw_\$0;
#X obj 725 1252 r model_rngs_\$0;
#X obj 725 1275 r damp_rngs_\$0;
#X obj 727 1299 r bright_rngs_\$0;
#X msg 682 1229 \$1 36;
#X msg 680 1252 \$1 37;
#X msg 680 1276 \$1 38;
#X msg 680 1300 \$1 39;
#X msg 680 1321 \$1 40;
#X obj 714 761 r fold_mix_\$0;
#X obj 1025 627 s preset_poly_rngs_\$0;
#X obj 1038 605 s preset_exciter_rngs_\$0;
#X obj 1048 585 s preset_pitch_rngs_\$0;
#X obj 1061 565 s preset_struct_rngs_\$0;
#X obj 1079 546 s preset_posit_rngs_\$0;
#X obj 1091 526 s preset_transp_rngs_\$0;
#X obj 1803 525 s preset_rngs_dw_\$0;
#X obj 1837 635 s preset_model_rngs_\$0;
#X obj 1858 614 s preset_damp_rngs_\$0;
#X obj 1873 594 s preset_bright_rngs_\$0;
#X obj 1195 661 s preset_fold_mix_\$0;
#X obj 1038 173 f;
#X obj 540 142 r save_\$0;
#X obj 1031 122 r load_\$0;
#X obj 1061 204 r ID_\$0;
#X obj 575 186 r ID_\$0;
#X obj 1118 203 r current_path_\$0;
#X obj 632 185 r current_path_\$0;
#X obj 1014 237 load_preset presets_\$0;
#X obj 1373 176 f;
#X obj 1369 127 r load_init_\$0;
#X msg 1347 74 0;
#X msg 200 35 0;
#X text 233 34 click this to save this configuration as init;
#X msg 684 1345 \$1 41;
#X msg 684 1369 \$1 42;
#X msg 684 1390 \$1 43;
#X msg 685 1410 \$1 44;
#X msg 683 1433 \$1 45;
#X msg 682 1455 \$1 46;
#X obj 724 1345 r comp_gain_\$0;
#X obj 729 1368 r comp_ratio_\$0;
#X obj 729 1391 r comp_thresh_\$0;
#X obj 1951 550 s preset_comp_gain_\$0;
#X obj 1964 530 s preset_comp_ratio_\$0;
#X obj 1987 693 s preset_comp_thresh_\$0;
#X msg 686 1504 \$1 48;
#X msg 686 1525 \$1 49;
#X msg 687 1545 \$1 50;
#X msg 687 1566 \$1 51;
#X msg 688 1595 \$1 52;
#X msg 688 1616 \$1 53;
#X msg 689 1636 \$1 54;
#X msg 689 1657 \$1 55;
#X obj 735 1503 r lfo1_phs_\$0;
#X obj 733 1526 r lfo1_timsprd_\$0;
#X obj 732 1547 r lfo1_sync_\$0;
#X obj 733 1569 r lfo1_mul_glob_\$0;
#X obj 732 1660 r lfo2_mul_glob_\$0;
#X obj 731 1638 r lfo2_sync_\$0;
#X obj 732 1617 r lfo2_timsprd_\$0;
#X obj 734 1594 r lfo2_phs_\$0;
#X obj 2189 737 s preset_lfo1_phs_\$0;
#X obj 2211 712 s preset_lfo1_timsprd_\$0;
#X obj 2226 689 s preset_lfo1_sync_\$0;
#X obj 2250 667 s preset_lfo1_mul_glob_\$0;
#X obj 2282 645 s preset_lfo2_phs_\$0;
#X obj 2304 620 s preset_lfo2_timsprd_\$0;
#X obj 2319 597 s preset_lfo2_sync_\$0;
#X obj 2343 575 s preset_lfo2_mul_glob_\$0;
#X msg 686 1478 \$1 47;
#X obj 1858 157 s ctrl_rngs_reset_\$0;
#X obj 735 1479 r set_preset_trig_onoff_\$0;
#X obj 2044 599 s preset_space_trig_onoff_\$0;
#X obj 1889 196 s ctrl_space_trig_go_\$0;
#X obj 218 1334 list trim;
#X obj 344 735 r feedbk_sync_name_\$0;
#X msg 371 891 \$1 209;
#X obj 331 701 list append 208;
#X obj 2059 334 s ctrl_mode_glob_\$0;
#X obj 735 1456 r mix_input_file_\$0;
#X obj 2027 622 s preset_mix_input_file_\$0;
#X obj 731 1434 r dry_\$0;
#X obj 2014 644 s preset_dry_\$0;
#X obj 734 1412 r input_gain_\$0;
#X obj 2001 669 s preset_input_gain_\$0;
#X obj 363 801 r fbk_compressor_on_\$0;
#X obj 386 917 r input_vumeter_\$0;
#X msg 387 947 \$1 305;
#X obj 716 710 r del_time_\$0;
#X obj 1153 703 s preset_del_time_\$0;
#X obj 717 733 r del_fbk_\$0;
#X msg 693 1679 \$1 56;
#X obj 736 1682 r del_mix_\$0;
#X obj 2348 544 s preset_del_mix_\$0;
#X obj 791 100 table presets_\$0 60;
#X obj 1180 680 s preset_del_fbk_\$0;
#X obj 2147 243 s ctrl_file_stop_\$0;
#X obj 2128 219 s ctrl_file_play_\$0;
#X obj 2084 170 s ctrl_file_+_\$0;
#X obj 2103 194 s ctrl_file_-_\$0;
#X obj 403 970 r show_file_\$0;
#X obj 2200 306 s ctrl_rngs_trig_go_\$0;
#X obj 1894 124 route 100 101 102 103 104 105 106 107 108 109 110 111;
#X obj 740 1709 r fold_frq_\$0;
#X obj 2366 522 s preset_fold_frq_\$0;
#X msg 698 1706 \$1 57;
#X obj 533 226 save_preset presets_\$0 58;
#X msg 705 1732 \$1 58;
#X obj 747 1735 r input_select_\$0;
#X obj 911 433 route 0 1 2 3 4 5 6 7 8 9 10 11 12 13 14 15 16 17 18 19 20 21 22 23 24 25 26 27 28 29 30 31 32 33 34 35 36 37 38 39 40 41 42 43 44 45 46 47 48 49 50 51 52 53 54 55 56 57 58, f 236;
#X obj 2376 496 s preset_input_select_\$0;
#X msg -164 524 \$1 210;
#X msg -102 525 \$1 211;
#X msg -163 586 \$1 212;
#X msg -100 587 \$1 213;
#X msg -161 679 \$1 214;
#X msg -99 679 \$1 215;
#X msg -164 770 \$1 216;
#X msg -102 771 \$1 217;
#X msg 402 1001 \$1 202;
#X obj 338 763 list append 203;
#X msg 365 828 \$1 201;
#X obj 1350 240 load_init presets_\$0 phase_looper_abs;
#X obj 208 233 save_init presets_\$0 phase_looper_abs 58;
#X obj 201 281 r fbk_lfo1_cycle_\$0;
#X obj 185 337 route 0 1 2 3;
#X obj 185 360 t b b;
#X msg 184 390 1;
#X obj 215 390 del 50;
#X msg 215 413 0;
#X obj 172 439 list append 220;
#X obj 289 362 t b b;
#X msg 288 392 1;
#X obj 319 392 del 50;
#X msg 319 415 0;
#X obj 388 363 t b b;
#X msg 387 393 1;
#X obj 418 393 del 50;
#X msg 418 416 0;
#X obj 492 365 t b b;
#X msg 491 395 1;
#X obj 522 395 del 50;
#X msg 522 418 0;
#X obj 276 441 list append 221;
#X obj 375 442 list append 222;
#X obj 479 444 list append 223;
#X obj 213 501 route 0 1 2 3;
#X obj 213 524 t b b;
#X msg 212 554 1;
#X obj 243 554 del 50;
#X msg 243 577 0;
#X obj 317 526 t b b;
#X msg 316 556 1;
#X obj 347 556 del 50;
#X msg 347 579 0;
#X obj 416 527 t b b;
#X msg 415 557 1;
#X obj 446 557 del 50;
#X msg 446 580 0;
#X obj 520 529 t b b;
#X msg 519 559 1;
#X obj 550 559 del 50;
#X msg 550 582 0;
#X obj 214 475 r fbk_lfo2_cycle_\$0;
#X obj 177 709 spigot;
#X obj 214 658 r vumeter_\$0;
#X obj 200 603 list append 224;
#X obj 304 605 list append 225;
#X obj 403 606 list append 226;
#X obj 507 607 list append 227;
#X obj -5 -8 r fbk_lfo1_showtime_\$0;
#X obj -8 26 route 0 1 2 3;
#X obj 20 208 route 0 1 2 3;
#X obj 25 173 r fbk_lfo2_showtime_\$0;
#X obj -32 68 list append 230;
#X obj -31 92 list append 231;
#X obj -31 117 list append 232;
#X obj -29 140 list append 233, f 17;
#X obj -4 250 list append 234;
#X obj -3 274 list append 235;
#X obj -3 299 list append 236;
#X obj -1 322 list append 237;
#X connect 1 0 73 0;
#X connect 2 0 73 0;
#X connect 3 0 73 0;
#X connect 4 0 73 0;
#X connect 5 0 73 0;
#X connect 6 0 73 0;
#X connect 7 0 73 0;
#X connect 8 0 73 0;
#X connect 9 0 73 0;
#X connect 10 0 73 0;
#X connect 11 0 73 0;
#X connect 12 0 73 0;
#X connect 13 0 73 0;
#X connect 14 0 73 0;
#X connect 15 0 4 0;
#X connect 16 0 3 0;
#X connect 17 0 1 0;
#X connect 18 0 2 0;
#X connect 19 0 127 0;
#X connect 24 0 73 0;
#X connect 25 0 73 0;
#X connect 26 0 73 0;
#X connect 27 0 73 0;
#X connect 28 0 40 0;
#X connect 29 0 41 0;
#X connect 30 0 88 0;
#X connect 31 0 43 0;
#X connect 32 0 44 0;
#X connect 33 0 45 0;
#X connect 34 0 73 0;
#X connect 35 0 73 0;
#X connect 36 0 73 0;
#X connect 37 0 73 0;
#X connect 38 0 73 0;
#X connect 39 0 73 0;
#X connect 40 0 73 0;
#X connect 41 0 73 0;
#X connect 42 0 73 0;
#X connect 43 0 73 0;
#X connect 44 0 73 0;
#X connect 45 0 73 0;
#X connect 46 0 73 0;
#X connect 47 0 73 0;
#X connect 48 0 12 0;
#X connect 50 0 5 0;
#X connect 52 0 13 0;
#X connect 53 0 14 0;
#X connect 54 0 27 0;
#X connect 55 0 34 0;
#X connect 56 0 35 0;
#X connect 57 0 36 0;
#X connect 58 0 37 0;
#X connect 59 0 38 0;
#X connect 60 0 39 0;
#X connect 71 0 229 0;
#X connect 73 0 74 0;
#X connect 73 0 72 0;
#X connect 74 0 0 0;
#X connect 74 1 0 1;
#X connect 78 0 197 0;
#X connect 79 0 46 0;
#X connect 87 0 83 0;
#X connect 88 0 42 0;
#X connect 90 0 98 0;
#X connect 92 0 99 0;
#X connect 93 0 100 0;
#X connect 98 0 73 0;
#X connect 99 0 73 0;
#X connect 100 0 73 0;
#X connect 101 0 196 0;
#X connect 102 0 231 0;
#X connect 103 0 232 0;
#X connect 104 0 233 0;
#X connect 105 0 234 0;
#X connect 106 0 236 0;
#X connect 107 0 235 0;
#X connect 108 0 237 0;
#X connect 109 0 238 0;
#X connect 110 0 73 0;
#X connect 111 0 110 0;
#X connect 113 0 6 0;
#X connect 114 0 7 0;
#X connect 115 0 8 0;
#X connect 116 0 9 0;
#X connect 117 0 10 0;
#X connect 118 0 11 0;
#X connect 119 0 123 0;
#X connect 120 0 124 0;
#X connect 121 0 125 0;
#X connect 122 0 126 0;
#X connect 123 0 73 0;
#X connect 124 0 73 0;
#X connect 125 0 73 0;
#X connect 126 0 73 0;
#X connect 127 0 73 0;
#X connect 128 0 26 0;
#X connect 140 0 147 0;
#X connect 141 0 226 0;
#X connect 142 0 140 0;
#X connect 143 0 147 1;
#X connect 144 0 226 1;
#X connect 145 0 147 2;
#X connect 146 0 226 2;
#X connect 147 0 229 0;
#X connect 148 0 242 0;
#X connect 149 0 148 0;
#X connect 150 0 148 0;
#X connect 151 0 243 0;
#X connect 153 0 73 0;
#X connect 154 0 73 0;
#X connect 155 0 73 0;
#X connect 156 0 73 0;
#X connect 157 0 73 0;
#X connect 158 0 73 0;
#X connect 159 0 153 0;
#X connect 160 0 154 0;
#X connect 161 0 155 0;
#X connect 165 0 73 0;
#X connect 166 0 73 0;
#X connect 167 0 73 0;
#X connect 168 0 73 0;
#X connect 169 0 73 0;
#X connect 170 0 73 0;
#X connect 171 0 73 0;
#X connect 172 0 73 0;
#X connect 173 0 165 0;
#X connect 174 0 166 0;
#X connect 175 0 167 0;
#X connect 176 0 168 0;
#X connect 177 0 172 0;
#X connect 178 0 171 0;
#X connect 179 0 170 0;
#X connect 180 0 169 0;
#X connect 189 0 73 0;
#X connect 191 0 189 0;
#X connect 194 0 72 0;
#X connect 195 0 240 0;
#X connect 196 0 72 0;
#X connect 197 0 194 0;
#X connect 199 0 158 0;
#X connect 201 0 157 0;
#X connect 203 0 156 0;
#X connect 205 0 241 0;
#X connect 206 0 207 0;
#X connect 207 0 72 0;
#X connect 208 0 24 0;
#X connect 210 0 25 0;
#X connect 211 0 73 0;
#X connect 212 0 211 0;
#X connect 220 0 239 0;
#X connect 222 0 190 0;
#X connect 222 1 193 0;
#X connect 222 2 75 0;
#X connect 222 3 76 0;
#X connect 222 4 77 0;
#X connect 222 5 89 0;
#X connect 222 6 198 0;
#X connect 222 7 218 0;
#X connect 222 8 219 0;
#X connect 222 9 217 0;
#X connect 222 10 216 0;
#X connect 222 11 221 0;
#X connect 223 0 225 0;
#X connect 225 0 73 0;
#X connect 227 0 73 0;
#X connect 228 0 227 0;
#X connect 229 0 20 0;
#X connect 229 1 21 0;
#X connect 229 2 22 0;
#X connect 229 3 23 0;
#X connect 229 4 51 0;
#X connect 229 5 129 0;
#X connect 229 6 130 0;
#X connect 229 7 131 0;
#X connect 229 8 132 0;
#X connect 229 9 133 0;
#X connect 229 10 134 0;
#X connect 229 11 49 0;
#X connect 229 12 61 0;
#X connect 229 13 62 0;
#X connect 229 14 209 0;
#X connect 229 15 215 0;
#X connect 229 16 139 0;
#X connect 229 17 64 0;
#X connect 229 18 65 0;
#X connect 229 19 66 0;
#X connect 229 20 67 0;
#X connect 229 21 68 0;
#X connect 229 22 69 0;
#X connect 229 23 70 0;
#X connect 229 24 82 0;
#X connect 229 25 81 0;
#X connect 229 26 87 0;
#X connect 229 27 84 0;
#X connect 229 28 85 0;
#X connect 229 29 86 0;
#X connect 229 30 80 0;
#X connect 229 31 94 0;
#X connect 229 32 95 0;
#X connect 229 33 96 0;
#X connect 229 34 97 0;
#X connect 229 35 112 0;
#X connect 229 36 135 0;
#X connect 229 37 136 0;
#X connect 229 38 137 0;
#X connect 229 39 138 0;
#X connect 229 40 63 0;
#X connect 229 41 162 0;
#X connect 229 42 163 0;
#X connect 229 43 164 0;
#X connect 229 44 204 0;
#X connect 229 45 202 0;
#X connect 229 46 200 0;
#X connect 229 47 192 0;
#X connect 229 48 181 0;
#X connect 229 49 182 0;
#X connect 229 50 183 0;
#X connect 229 51 184 0;
#X connect 229 52 185 0;
#X connect 229 53 186 0;
#X connect 229 54 187 0;
#X connect 229 55 188 0;
#X connect 229 56 213 0;
#X connect 229 57 224 0;
#X connect 229 58 230 0;
#X connect 229 59 222 0;
#X connect 231 0 72 0;
#X connect 232 0 72 0;
#X connect 233 0 72 0;
#X connect 234 0 72 0;
#X connect 235 0 72 0;
#X connect 236 0 72 0;
#X connect 237 0 72 0;
#X connect 238 0 72 0;
#X connect 239 0 72 0;
#X connect 240 0 194 0;
#X connect 241 0 72 0;
#X connect 242 0 229 0;
#X connect 244 0 245 0;
#X connect 245 0 246 0;
#X connect 245 1 251 0;
#X connect 245 2 255 0;
#X connect 245 3 259 0;
#X connect 246 0 247 0;
#X connect 246 1 248 0;
#X connect 247 0 250 0;
#X connect 248 0 249 0;
#X connect 249 0 250 0;
#X connect 250 0 284 0;
#X connect 251 0 252 0;
#X connect 251 1 253 0;
#X connect 252 0 263 0;
#X connect 253 0 254 0;
#X connect 254 0 263 0;
#X connect 255 0 256 0;
#X connect 255 1 257 0;
#X connect 256 0 264 0;
#X connect 257 0 258 0;
#X connect 258 0 264 0;
#X connect 259 0 260 0;
#X connect 259 1 261 0;
#X connect 260 0 265 0;
#X connect 261 0 262 0;
#X connect 262 0 265 0;
#X connect 263 0 284 0;
#X connect 264 0 284 0;
#X connect 265 0 284 0;
#X connect 266 0 267 0;
#X connect 266 1 271 0;
#X connect 266 2 275 0;
#X connect 266 3 279 0;
#X connect 267 0 268 0;
#X connect 267 1 269 0;
#X connect 268 0 286 0;
#X connect 269 0 270 0;
#X connect 270 0 286 0;
#X connect 271 0 272 0;
#X connect 271 1 273 0;
#X connect 272 0 287 0;
#X connect 273 0 274 0;
#X connect 274 0 287 0;
#X connect 275 0 276 0;
#X connect 275 1 277 0;
#X connect 276 0 288 0;
#X connect 277 0 278 0;
#X connect 278 0 288 0;
#X connect 279 0 280 0;
#X connect 279 1 281 0;
#X connect 280 0 289 0;
#X connect 281 0 282 0;
#X connect 282 0 289 0;
#X connect 283 0 266 0;
#X connect 284 0 194 0;
#X connect 285 0 284 1;
#X connect 286 0 284 0;
#X connect 287 0 284 0;
#X connect 288 0 284 0;
#X connect 289 0 284 0;
#X connect 290 0 291 0;
#X connect 291 0 294 0;
#X connect 291 1 295 0;
#X connect 291 2 296 0;
#X connect 291 3 297 0;
#X connect 292 0 298 0;
#X connect 292 1 299 0;
#X connect 292 2 300 0;
#X connect 292 3 301 0;
#X connect 293 0 292 0;
#X connect 294 0 284 0;
#X connect 295 0 284 0;
#X connect 296 0 284 0;
#X connect 297 0 284 0;
#X connect 298 0 284 0;
#X connect 299 0 284 0;
#X connect 300 0 284 0;
#X connect 301 0 284 0;
#X restore 634 -649 pd handle_presets;
#X obj -323 -590 s current_path_\$0;
#X obj -299 -619 s load_init_\$0;
#X msg 1375 -643 \; pd dsp 1;
#X obj -539 426 *~;
#X obj -529 400 r dry_\$0;
#X obj -538 536 s~ dry_signal_\$0;
#X obj 71 1388 r~ dry_signal_\$0;
#X obj 99 77 r feedbk_rec_on_\$0;
#X obj 106 107 tgl 18 0 empty empty empty 0 -9 0 10 #fcfcfc #000000 #000000 0 1;
#X text 126 107 recording;
#X obj -56 406 s repeat_rec_sec_\$0;
#X obj -46 443 s repeat_rec_onoff_\$0;
#X obj -313 255 t b b f;
#X obj -313 232 f;
#X obj -264 161 r len_glob_\$0;
#X obj 322 233 quad_lfo;
#X obj 40 1347 r~ lfo_1_1_\$0, f 14;
#X obj 276 457 s~ lfo_1_1_\$0;
#X obj 299 435 s~ lfo_1_2_\$0;
#X obj 315 412 s~ lfo_1_3_\$0;
#X obj 339 390 s~ lfo_1_4_\$0;
#X obj 440 498 s~ lfo_2_1_\$0;
#X obj 463 476 s~ lfo_2_2_\$0;
#X obj 479 453 s~ lfo_2_3_\$0;
#X obj 503 431 s~ lfo_2_4_\$0;
#X obj 57 1368 r~ lfo_2_1_\$0;
#X obj 320 572 loadbang;
#X obj 291 594 r preset_lfo1_phs_\$0;
#X obj 294 549 s lfo1_phs_\$0;
#X obj 371 712 loadbang;
#X obj 345 689 s lfo1_timsprd_\$0;
#X obj 343 732 r preset_lfo1_timsprd_\$0;
#X obj 435 860 loadbang;
#X msg 410 859 0;
#X obj 408 884 r preset_lfo1_sync_\$0;
#X obj 409 839 s lfo1_sync_\$0;
#X obj -724 -594 s ext_bang_\$0;
#X obj 495 1059 r ext_bang_\$0;
#X obj 524 1088 r rst_\$0;
#X msg 295 571 0;
#X msg 346 711 0;
#X obj 530 641 loadbang;
#X obj 657 934 loadbang;
#X obj 589 779 loadbang;
#X msg 505 639 0;
#X msg 632 933 0;
#X msg 564 778 70;
#X obj 684 1007 loadbang;
#X msg 655 1006 2;
#X obj 509 234 quad_lfo;
#X obj 505 567 loadbang;
#X obj 556 707 loadbang;
#X obj 620 855 loadbang;
#X msg 595 854 0;
#X obj 680 1054 r ext_bang_\$0;
#X obj 709 1083 r rst_\$0;
#X msg 480 566 0;
#X msg 531 706 0;
#X obj 479 544 s lfo2_phs_\$0;
#X obj 476 589 r preset_lfo2_phs_\$0;
#X obj 505 618 s lfo2_wave_glob_\$0;
#X obj 504 659 r preset_lfo2_wave_glob_\$0;
#X obj 530 684 s lfo2_timsprd_\$0;
#X obj 528 727 r preset_lfo2_timsprd_\$0;
#X obj 563 756 s lfo2_frq_glob_\$0;
#X obj 562 797 r preset_lfo2_frq_glob_\$0;
#X obj 594 832 s lfo2_sync_\$0;
#X obj 593 879 r preset_lfo2_sync_\$0;
#X obj 631 911 s lfo2_dep_glob_\$0;
#X obj 631 958 r preset_lfo2_dep_glob_\$0;
#X obj 658 984 s lfo2_mul_glob_\$0;
#X obj 658 1025 r preset_lfo2_mul_glob_\$0;
#X text 127 130 phase_sync;
#X obj 823 124 vsl 20 100 0 1 0 0 empty empty gain 0 -9 1 12 #000000 #ffffff #7c7c7c 0 1;
#X obj 847 124 vsl 20 100 0 1 0 0 empty empty ratio 0 -9 1 12 #000000 #ffffff #7c7c7c 0 1;
#X obj 878 124 vsl 20 100 0 1 0 0 empty empty thr 0 -9 1 12 #000000 #ffffff #7c7c7c 0 1;
#X obj 815 -368 r preset_comp_gain_\$0;
#X obj 815 -345 s comp_gain_\$0;
#X obj 843 -415 s comp_ratio_\$0;
#X obj 842 -437 r preset_comp_ratio_\$0;
#X obj 868 -481 s comp_thresh_\$0;
#X obj 868 -501 r preset_comp_thresh_\$0;
#X obj 230 1757 r comp_gain_\$0;
#X obj 224 1735 r comp_ratio_\$0;
#X obj 215 1713 r comp_thresh_\$0;
#X obj 363 -405 r preset_stgs_glob_\$0;
#X obj 628 57 r ctrl_rngs_reset_\$0;
#X obj 1583 126 r ctrl_space_trig_go_\$0;
#X obj 1564 107 r preset_space_trig_onoff_\$0;
#X obj 1034 370 s set_preset_trig_onoff_\$0;
#X obj 1055 350 s feedbk_sync_name_\$0;
#X obj 207 205 cnv 18 20 15 empty empty s 2 11 1 10 #ffffff #404040 0;
#X obj -219 299 spigot;
#X obj -122 290 r repeat_rec_sec_\$0;
#X obj -173 245 r repeat_rec_onoff_\$0;
#X obj -217 268 bng 18 250 50 0 empty empty empty 0 -9 0 10 #fcfcfc #000000 #000000;
#X obj -165 269 sel 0;
#X msg -165 292 stop;
#X obj -207 367 delay 100;
#X obj -143 323 * 1000;
#X obj -151 346 + 10;
#X obj 354 1213 r len_glob_\$0;
#X obj 434 1296 r env_glob_\$0;
#X obj 413 1276 r spr_glob_\$0;
#X obj 885 1127 r frq_glob_\$0;
#X obj 305 1167 loadbang;
#X obj 373 1233 r rev_glob_\$0;
#X obj 262 1398 reader, f 144;
#X obj 993 1239 r vol_glob_\$0;
#X obj 341 1194 r glob_id_\$0;
#X obj 487 1135 r fold_glob_\$0;
#X obj 507 1157 r stgs_glob_\$0;
#X obj 855 1105 r flt_sel_glob_\$0;
#X obj 912 1150 r q_glob_\$0;
#X obj 1001 1263 r lfo2_ass_glob_\$0;
#X obj 1013 1285 r phase_sync_\$0;
#X obj 278 1143 r mode_glob_\$0;
#X obj 523 1179 r fold_mix_\$0;
#X obj 580 1244 r poly_rngs_\$0;
#X obj 600 1265 r pitch_rngs_\$0;
#X obj 622 1292 r transp_rngs_\$0;
#X obj 691 1153 r posit_rngs_\$0;
#X obj 700 1173 r struct_rngs_\$0;
#X obj 713 1195 r bright_rngs_\$0;
#X obj 731 1215 r damp_rngs_\$0;
#X obj 750 1235 r model_rngs_\$0;
#X obj 562 1223 r exciter_rngs_\$0;
#X obj 540 1202 r trigger_rngs_\$0;
#X obj 770 1255 r rngs_dw_\$0;
#X obj 1173 1369 r~ dry_signal_\$0;
#X msg 305 1190 1;
#X obj 1142 1328 r~ lfo_1_2_\$0, f 14;
#X obj 1151 1350 r~ lfo_2_2_\$0;
#X obj 1461 1195 r len_glob_\$0;
#X obj 1541 1278 r env_glob_\$0;
#X obj 1520 1258 r spr_glob_\$0;
#X obj 1992 1109 r frq_glob_\$0;
#X obj 1412 1149 loadbang;
#X obj 1480 1215 r rev_glob_\$0;
#X obj 1369 1380 reader, f 144;
#X obj 1448 1176 r glob_id_\$0;
#X obj 1594 1117 r fold_glob_\$0;
#X obj 1614 1139 r stgs_glob_\$0;
#X obj 1962 1087 r flt_sel_glob_\$0;
#X obj 2019 1132 r q_glob_\$0;
#X obj 1385 1125 r mode_glob_\$0;
#X obj 1630 1161 r fold_mix_\$0;
#X obj 1687 1226 r poly_rngs_\$0;
#X obj 1707 1247 r pitch_rngs_\$0;
#X obj 1729 1274 r transp_rngs_\$0;
#X obj 1798 1135 r posit_rngs_\$0;
#X obj 1807 1155 r struct_rngs_\$0;
#X obj 1820 1177 r bright_rngs_\$0;
#X obj 1838 1197 r damp_rngs_\$0;
#X obj 1857 1217 r model_rngs_\$0;
#X obj 1669 1205 r exciter_rngs_\$0;
#X obj 1647 1184 r trigger_rngs_\$0;
#X obj 1877 1237 r rngs_dw_\$0;
#X msg 1412 1172 2;
#X obj 2515 1201 r len_glob_\$0;
#X obj 2595 1284 r env_glob_\$0;
#X obj 2574 1264 r spr_glob_\$0;
#X obj 3046 1115 r frq_glob_\$0;
#X obj 2466 1155 loadbang;
#X obj 2534 1221 r rev_glob_\$0;
#X obj 2423 1386 reader, f 144;
#X obj 2502 1182 r glob_id_\$0;
#X obj 2648 1123 r fold_glob_\$0;
#X obj 2668 1145 r stgs_glob_\$0;
#X obj 3016 1093 r flt_sel_glob_\$0;
#X obj 3073 1138 r q_glob_\$0;
#X obj 2439 1131 r mode_glob_\$0;
#X obj 2684 1167 r fold_mix_\$0;
#X obj 2741 1232 r poly_rngs_\$0;
#X obj 2761 1253 r pitch_rngs_\$0;
#X obj 2783 1280 r transp_rngs_\$0;
#X obj 2852 1141 r posit_rngs_\$0;
#X obj 2861 1161 r struct_rngs_\$0;
#X obj 2874 1183 r bright_rngs_\$0;
#X obj 2892 1203 r damp_rngs_\$0;
#X obj 2911 1223 r model_rngs_\$0;
#X obj 2723 1211 r exciter_rngs_\$0;
#X obj 2701 1190 r trigger_rngs_\$0;
#X obj 2931 1243 r rngs_dw_\$0;
#X msg 2466 1178 3;
#X floatatom -940 -316 5 0 0 0 - - - 0;
#X obj -967 -391 bng 18 250 50 0 empty empty empty 0 -9 0 10 #fcfcfc #000000 #000000;
#X obj -914 -391 bng 18 250 50 0 empty empty empty 0 -9 0 10 #fcfcfc #000000 #000000;
#X msg -1027 -140 start;
#X obj -1016 -108 readsf~;
#X obj -948 -77 spigot;
#X msg -918 -127 1;
#X obj -992 -331 bng 18 250 50 0 empty empty empty 0 -9 0 10 #fcfcfc #000000 #000000;
#X obj -868 -140 bng 18 250 50 0 empty empty empty 0 -9 0 10 #fcfcfc #000000 #000000;
#X obj -804 -312 r current_path_\$0;
#X obj -920 -166 list trim;
#X obj -920 -190 list prepend open;
#X obj -1064 -204 delay 100;
#X obj -920 -218 makefilename;
#X obj -838 -277 makefilename %s/pl_samples/%%s.wav;
#X msg -841 -246 set \$1;
#X obj -962 -340 counter_up_dn 0 0 100;
#X obj -967 -289 f;
#X obj -832 -144 loadbang;
#X obj -990 -262 t b b b f;
#X msg -961 -233 0;
#X msg -868 -111 stop;
#X msg -889 -87 0;
#X obj -818 -367 loadbang;
#X msg -818 -341 set ./phase_looper_abs/factory_samples/%s.wav;
#X obj -597 238 two_to_one;
#X obj -475 176 r mix_input_file_\$0;
#X obj 169 252 vsl 20 100 0 1 0 0 empty empty mix 0 -9 1 12 #000000 #ffffff #7c7c7c 0 1;
#X obj 167 385 s mix_input_file_\$0;
#X floatatom 233 292 5 0 0 0 - - - 0;
#X obj -1023 -423 r ctrl_file_+_\$0;
#X obj -913 -421 r ctrl_file_-_\$0;
#X obj -1059 -364 r ctrl_file_play_\$0;
#X obj -798 -173 r ctrl_file_stop_\$0;
#X obj 29 543 s ctrl_file_stop_\$0;
#X obj -7 586 s ctrl_file_-_\$0;
#X obj 12 565 s ctrl_file_play_\$0;
#X obj -27 608 s ctrl_file_+_\$0;
#X obj 199 294 bng 18 250 50 0 empty empty empty 0 -9 0 10 #fcfcfc #000000 #000000;
#X obj 216 293 bng 18 250 50 0 empty empty empty 0 -9 0 10 #fcfcfc #000000 #000000;
#X obj 200 320 bng 18 250 50 0 empty empty empty 0 -9 0 10 #fcfcfc #000000 #000000;
#X obj 239 320 bng 18 250 50 0 empty empty empty 0 -9 0 10 #fcfcfc #000000 #000000;
#X text 202 337 play;
#X text 238 338 stop;
#X obj -386 1796 compressor;
#X obj -209 1791 compressor;
#X obj -27 1791 compressor;
#X obj 156 1785 compressor;
#X obj 39 1758 r comp_gain_\$0;
#X obj 29 1736 r comp_ratio_\$0;
#X obj 20 1714 r comp_thresh_\$0;
#X obj -136 1763 r comp_gain_\$0;
#X obj -146 1741 r comp_ratio_\$0;
#X obj -155 1719 r comp_thresh_\$0;
#X obj -327 1763 r comp_gain_\$0;
#X obj -337 1741 r comp_ratio_\$0;
#X obj -346 1719 r comp_thresh_\$0;
#X obj 166 404 r preset_mix_input_file_\$0;
#X obj 193 427 loadbang;
#X msg 168 426 0;
#X obj 892 -519 loadbang;
#X obj 865 -457 loadbang;
#X msg 841 -458 0;
#X msg 868 -520 1;
#X obj 838 -388 loadbang;
#X msg 814 -389 0;
#X obj 290 250 vsl 20 100 0 1 0 0 empty empty dry 0 -9 1 12 #000000 #ffffff #7c7c7c 0 1;
#X obj 250 525 loadbang;
#X msg 225 524 0;
#X obj 224 483 s dry_\$0;
#X obj 223 502 r preset_dry_\$0;
#X obj -125 1172 r del_time_\$0;
#X obj -102 1192 r del_fbk_\$0;
#X obj -81 1215 r del_mix_\$0;
#X obj 935 1173 r del_time_\$0;
#X obj 958 1193 r del_fbk_\$0;
#X obj 979 1216 r del_mix_\$0;
#X obj 2204 1206 r vol_glob_\$0;
#X obj 2212 1230 r lfo2_ass_glob_\$0;
#X obj 2224 1252 r phase_sync_\$0;
#X obj 2277 1339 r~ dry_signal_\$0;
#X obj 2246 1298 r~ lfo_1_2_\$0, f 14;
#X obj 2255 1320 r~ lfo_2_2_\$0;
#X obj 2102 1125 r del_time_\$0;
#X obj 2125 1145 r del_fbk_\$0;
#X obj 2146 1168 r del_mix_\$0;
#X obj 3287 1170 r vol_glob_\$0;
#X obj 3295 1194 r lfo2_ass_glob_\$0;
#X obj 3307 1216 r phase_sync_\$0;
#X obj 3378 1325 r~ dry_signal_\$0;
#X obj 3347 1284 r~ lfo_1_2_\$0, f 14;
#X obj 3356 1306 r~ lfo_2_2_\$0;
#X obj 3185 1089 r del_time_\$0;
#X obj 3208 1109 r del_fbk_\$0;
#X obj 3229 1132 r del_mix_\$0;
#X obj 1014 -53 loadbang;
#X msg 990 -54 0;
#X obj 981 146 vsl 18 85 0 127 0 0 empty empty mix 0 -9 1 10 #000000 #ffffff #7c7c7c 0 1;
#X obj 988 -73 r preset_del_mix_\$0;
#X obj 989 -32 s del_mix_\$0;
#X obj 963 -102 s del_fbk_\$0;
#X obj 963 -139 r preset_del_fbk_\$0;
#X obj 934 -161 s del_time_\$0;
#X obj 933 -199 r preset_del_time_\$0;
#X msg 935 -179 0;
#X text 262 155 0;
#X text 262 114 -2;
#X text 262 127 -1;
#X text 262 141 -1 \, 0;
#X text 262 169 +1 \, 0;
#X text 262 182 +1;
#X text 262 196 +2;
#X msg 255 -12 3;
#X obj -687 1040 sel 0 1 2 3 4 5 6;
#X msg -687 1078 0;
#X msg -674 1099 1;
#X msg -644 1099 2;
#X msg -614 1098 3;
#X msg -597 1077 4;
#X obj -641 1149 f;
#X msg -657 1078 2;
#X msg -627 1077 2;
#X obj 350 1018 r oct_glob_\$0;
#X obj 349 1045 sel 0 1 2 3 4 5 6;
#X msg 349 1083 0;
#X msg 362 1104 1;
#X msg 392 1104 2;
#X msg 422 1103 3;
#X msg 439 1082 4;
#X obj 395 1154 f;
#X msg 379 1083 1;
#X msg 409 1082 3;
#X obj 1480 967 r oct_glob_\$0;
#X obj 1479 994 sel 0 1 2 3 4 5 6;
#X msg 1479 1032 0;
#X msg 1492 1053 1;
#X msg 1522 1053 2;
#X msg 1552 1052 3;
#X msg 1569 1031 4;
#X obj 1525 1103 f;
#X msg 1509 1032 2;
#X msg 1539 1031 2;
#X obj 2555 968 r oct_glob_\$0;
#X obj 2554 995 sel 0 1 2 3 4 5 6;
#X msg 2554 1033 0;
#X msg 2567 1054 1;
#X msg 2597 1054 2;
#X msg 2627 1053 3;
#X msg 2644 1032 4;
#X obj 2600 1104 f;
#X msg 2584 1033 1;
#X msg 2614 1032 3;
#X obj 417 1824 s fbk_compressor_on_\$0;
#X obj 398 1717 sel 1;
#X msg 465 1768 0;
#X msg 402 1746 1;
#X obj 425 1796 change;
#X obj 433 1747 delay 40;
#X obj 912 113 tgl 18 0 empty empty empty 0 -9 0 10 #fcfcfc #000000 #000000 0 1;
#X obj 911 68 r fbk_compressor_on_\$0;
#X obj 373 1765 bng 18 250 50 0 empty empty empty 0 -9 0 10 #fcfcfc #000000 #000000;
#X obj -82 2146 vumeter, f 18;
#X obj -98 2284 outlet~;
#X obj -44 2283 outlet~;
#X obj 12 2282 outlet~;
#X obj 66 2281 outlet~;
#X obj 17 -329 s input_vumeter_\$0;
#X obj 15 -482 *~;
#X obj -16 -769 inlet~;
#X obj 72 -473 r input_gain_\$0;
#X obj 117 255 vsl 20 100 0 1 0 0 empty empty in 0 -9 1 12 #000000 #ffffff #7c7c7c 0 1;
#X obj 134 489 loadbang;
#X msg 109 488 0;
#X obj 108 447 s input_gain_\$0;
#X obj 107 466 r preset_input_gain_\$0;
#X obj -932 -293 s show_file_\$0;
#X obj 195 261 r show_file_\$0;
#X obj -672 -655 route bang_bpm rst instance_id load save osc_name osc current_path init vumeter, f 87;
#X obj -204 -618 s vumeter_\$0;
#X obj 94 2108 r vumeter_\$0;
#X obj 407 123 vsl 20 100 0 1 0 0 empty empty frq 0 -9 1 12 #000000 #ffffff #7c7c7c 0 1;
#X obj 436 -287 loadbang;
#X msg 407 -288 0;
#X obj 408 -307 s fold_frq_\$0;
#X obj 407 -269 r preset_fold_frq_\$0;
#X obj 1036 1309 r fold_frq_\$0;
#X obj 2232 1277 r fold_frq_\$0;
#X obj 3328 1248 r fold_frq_\$0;
#X obj -8 1309 r fold_frq_\$0;
#X obj 36 -768 inlet~;
#X obj 88 -555 *~;
#X obj 161 -553 *~;
#X obj 151 -653 r input_select_\$0;
#X obj 162 -601 == 1;
#X obj 210 -599 == 2;
#X obj 106 155 hradio 18 1 0 3 empty empty empty 0 -9 0 10 #fcfcfc #000000 #000000 0;
#X obj -53 169 s input_select_\$0;
#X obj -53 147 r preset_input_select_\$0;
#X msg -51 126 0;
#X obj -15 129 loadbang;
#X msg -187 -702 0;
#N canvas 101 69 450 300 input_vu 0;
#X obj 118 131 env~;
#X obj 118 155 - 100;
#X obj 61 64 inlet~;
#X obj 222 67 inlet;
#X obj 222 90 switch~;
#X obj 66 213 outlet;
#X connect 0 0 1 0;
#X connect 1 0 5 0;
#X connect 2 0 0 0;
#X connect 3 0 4 0;
#X restore 27 -359 pd input_vu;
#X obj 85 -397 r vumeter_\$0;
#X msg 1147 -209 1;
#X obj -154 -728 loadbang;
#X msg -154 -704 1;
#X obj 789 640 s fbk_lfo1_cycle_\$0;
#X obj 844 680 s fbk_lfo2_cycle_\$0;
#X obj 785 729 s fbk_lfo1_showtime_\$0;
#X obj 823 768 s fbk_lfo2_showtime_\$0;
#X connect 0 0 286 0;
#X connect 1 0 65 0;
#X connect 1 0 184 0;
#X connect 2 0 5 0;
#X connect 3 0 7 0;
#X connect 4 0 8 0;
#X connect 9 0 190 0;
#X connect 10 0 19 3;
#X connect 11 0 19 7;
#X connect 12 0 19 6;
#X connect 13 0 19 23;
#X connect 14 0 582 0;
#X connect 15 0 59 0;
#X connect 16 0 19 4;
#X connect 18 0 17 0;
#X connect 19 0 26 0;
#X connect 20 0 65 0;
#X connect 20 0 185 0;
#X connect 20 0 379 0;
#X connect 23 0 571 0;
#X connect 24 0 569 0;
#X connect 25 0 6 0;
#X connect 27 0 19 28;
#X connect 28 0 515 0;
#X connect 29 0 513 0;
#X connect 30 0 514 0;
#X connect 31 0 516 0;
#X connect 32 0 18 0;
#X connect 33 0 3 0;
#X connect 34 0 2 0;
#X connect 35 0 4 0;
#X connect 36 0 25 0;
#X connect 37 0 50 0;
#X connect 44 0 127 8;
#X connect 45 0 127 7;
#X connect 46 0 127 6;
#X connect 47 0 127 4;
#X connect 48 0 127 5;
#X connect 49 0 127 3;
#X connect 50 0 51 0;
#X connect 52 0 172 0;
#X connect 52 0 294 0;
#X connect 53 0 297 0;
#X connect 55 0 169 0;
#X connect 55 0 60 0;
#X connect 56 0 87 0;
#X connect 57 0 175 0;
#X connect 57 0 295 0;
#X connect 59 0 19 1;
#X connect 62 0 63 0;
#X connect 63 0 64 0;
#X connect 66 0 19 2;
#X connect 67 0 68 0;
#X connect 68 0 18 0;
#X connect 69 0 70 0;
#X connect 70 0 9 0;
#X connect 71 0 581 0;
#X connect 72 0 73 0;
#X connect 73 0 2 0;
#X connect 74 0 75 0;
#X connect 75 0 4 0;
#X connect 76 0 77 0;
#X connect 77 0 25 0;
#X connect 78 0 573 0;
#X connect 79 0 80 0;
#X connect 80 0 24 0;
#X connect 81 0 672 0;
#X connect 83 0 115 0;
#X connect 84 0 85 0;
#X connect 85 0 83 0;
#X connect 86 0 1 0;
#X connect 87 0 20 0;
#X connect 88 0 89 0;
#X connect 89 0 94 0;
#X connect 90 0 91 0;
#X connect 92 0 90 1;
#X connect 93 0 95 0;
#X connect 94 0 90 0;
#X connect 94 0 97 0;
#X connect 95 0 88 0;
#X connect 95 1 92 0;
#X connect 96 0 88 0;
#X connect 98 0 19 8;
#X connect 99 0 111 0;
#X connect 100 0 103 0;
#X connect 102 0 83 0;
#X connect 103 0 101 0;
#X connect 111 0 103 0;
#X connect 112 0 19 9;
#X connect 113 0 19 22;
#X connect 114 0 19 24;
#X connect 116 0 125 0;
#X connect 117 0 126 0;
#X connect 118 0 128 0;
#X connect 120 0 299 3;
#X connect 122 0 299 5;
#X connect 124 0 299 1;
#X connect 125 0 299 1;
#X connect 126 0 299 5;
#X connect 127 0 159 0;
#X connect 127 1 160 0;
#X connect 127 2 161 0;
#X connect 127 3 162 0;
#X connect 127 4 163 0;
#X connect 127 5 164 0;
#X connect 127 6 165 0;
#X connect 127 7 166 0;
#X connect 127 8 38 0;
#X connect 127 9 39 0;
#X connect 127 10 40 0;
#X connect 127 11 41 0;
#X connect 127 12 42 0;
#X connect 127 13 43 0;
#X connect 127 14 194 0;
#X connect 127 15 158 0;
#X connect 127 16 373 0;
#X connect 127 17 374 0;
#X connect 128 0 299 3;
#X connect 129 0 132 0;
#X connect 131 0 299 6;
#X connect 132 0 299 6;
#X connect 133 0 19 29;
#X connect 137 0 150 0;
#X connect 137 0 179 0;
#X connect 138 0 630 0;
#X connect 138 1 630 1;
#X connect 138 2 630 2;
#X connect 138 3 630 3;
#X connect 139 0 630 0;
#X connect 139 1 630 1;
#X connect 139 2 630 2;
#X connect 139 3 630 3;
#X connect 140 0 630 0;
#X connect 140 1 630 1;
#X connect 140 2 630 2;
#X connect 140 3 630 3;
#X connect 141 0 630 0;
#X connect 141 1 630 1;
#X connect 141 2 630 2;
#X connect 141 3 630 3;
#X connect 142 0 138 1;
#X connect 143 0 138 2;
#X connect 144 0 139 1;
#X connect 145 0 139 2;
#X connect 146 0 140 1;
#X connect 147 0 140 2;
#X connect 148 0 141 2;
#X connect 149 0 141 1;
#X connect 151 0 19 30;
#X connect 152 0 127 0;
#X connect 153 0 127 1;
#X connect 154 0 73 0;
#X connect 155 0 154 0;
#X connect 156 0 127 9;
#X connect 157 0 127 10;
#X connect 167 0 188 0;
#X connect 168 0 55 0;
#X connect 170 0 177 0;
#X connect 171 0 52 0;
#X connect 173 0 176 0;
#X connect 174 0 57 0;
#X connect 176 0 57 0;
#X connect 177 0 52 0;
#X connect 178 0 181 0;
#X connect 180 0 137 0;
#X connect 181 0 137 0;
#X connect 182 0 53 0;
#X connect 183 0 186 0;
#X connect 184 0 183 0;
#X connect 185 0 183 0;
#X connect 188 0 55 0;
#X connect 189 0 19 0;
#X connect 193 0 9 0;
#X connect 195 0 127 11;
#X connect 196 0 259 0;
#X connect 197 0 261 0;
#X connect 198 0 199 0;
#X connect 199 0 196 0;
#X connect 200 0 201 0;
#X connect 201 0 197 0;
#X connect 202 0 205 0;
#X connect 203 0 204 0;
#X connect 204 0 202 0;
#X connect 206 0 202 0;
#X connect 207 0 218 0;
#X connect 208 0 219 0;
#X connect 209 0 220 0;
#X connect 210 0 221 0;
#X connect 211 0 222 0;
#X connect 212 0 224 0;
#X connect 213 0 223 0;
#X connect 214 0 215 0;
#X connect 225 0 207 0;
#X connect 226 0 208 0;
#X connect 227 0 209 0;
#X connect 228 0 210 0;
#X connect 229 0 211 0;
#X connect 230 0 213 0;
#X connect 231 0 212 0;
#X connect 232 0 240 0;
#X connect 233 0 214 0;
#X connect 234 0 239 0;
#X connect 235 0 207 0;
#X connect 236 0 238 0;
#X connect 237 0 235 0;
#X connect 239 0 216 0;
#X connect 240 0 217 0;
#X connect 247 0 19 10;
#X connect 248 0 19 13;
#X connect 249 0 19 14;
#X connect 250 0 19 15;
#X connect 251 0 19 16;
#X connect 252 0 19 17;
#X connect 253 0 19 18;
#X connect 254 0 19 19;
#X connect 255 0 19 20;
#X connect 256 0 19 12;
#X connect 257 0 19 11;
#X connect 258 0 19 21;
#X connect 260 0 196 0;
#X connect 263 0 646 0;
#X connect 269 0 268 0;
#X connect 271 0 274 0;
#X connect 273 0 272 0;
#X connect 274 0 273 0;
#X connect 274 1 277 0;
#X connect 275 0 273 0;
#X connect 276 0 279 0;
#X connect 277 0 275 0;
#X connect 278 0 277 1;
#X connect 279 0 278 0;
#X connect 281 0 269 1;
#X connect 287 0 289 0;
#X connect 288 0 287 1;
#X connect 290 0 19 34;
#X connect 291 0 292 0;
#X connect 296 0 86 0;
#X connect 296 1 56 0;
#X connect 296 2 56 1;
#X connect 297 0 296 0;
#X connect 298 0 297 1;
#X connect 299 1 301 0;
#X connect 299 4 302 0;
#X connect 299 7 303 0;
#X connect 299 10 304 0;
#X connect 299 12 312 0;
#X connect 299 13 123 0;
#X connect 299 14 314 0;
#X connect 299 15 119 0;
#X connect 299 16 319 0;
#X connect 299 17 121 0;
#X connect 299 18 130 0;
#X connect 299 19 677 0;
#X connect 299 20 675 0;
#X connect 300 0 19 32;
#X connect 309 0 19 33;
#X connect 310 0 323 0;
#X connect 311 0 299 0;
#X connect 313 0 324 0;
#X connect 315 0 299 2;
#X connect 316 0 317 0;
#X connect 317 0 299 4;
#X connect 318 0 299 4;
#X connect 321 0 299 7;
#X connect 322 0 299 8;
#X connect 323 0 299 0;
#X connect 324 0 299 2;
#X connect 325 0 328 0;
#X connect 326 0 329 0;
#X connect 327 0 330 0;
#X connect 328 0 333 1;
#X connect 329 0 333 5;
#X connect 330 0 333 3;
#X connect 331 0 332 0;
#X connect 332 0 333 6;
#X connect 333 1 305 0;
#X connect 333 4 306 0;
#X connect 333 7 307 0;
#X connect 333 10 308 0;
#X connect 333 12 342 0;
#X connect 333 13 344 0;
#X connect 333 14 346 0;
#X connect 333 15 348 0;
#X connect 333 16 350 0;
#X connect 333 17 352 0;
#X connect 333 18 354 0;
#X connect 333 19 678 0;
#X connect 333 20 676 0;
#X connect 334 0 340 0;
#X connect 335 0 341 0;
#X connect 336 0 337 0;
#X connect 337 0 333 4;
#X connect 338 0 333 7;
#X connect 339 0 333 8;
#X connect 340 0 333 0;
#X connect 341 0 333 2;
#X connect 343 0 333 0;
#X connect 345 0 333 1;
#X connect 347 0 333 2;
#X connect 349 0 333 3;
#X connect 351 0 333 4;
#X connect 353 0 333 5;
#X connect 355 0 333 6;
#X connect 357 0 361 0;
#X connect 358 0 362 0;
#X connect 359 0 364 0;
#X connect 360 0 357 0;
#X connect 363 0 358 0;
#X connect 365 0 359 0;
#X connect 366 0 516 3;
#X connect 367 0 516 2;
#X connect 368 0 516 1;
#X connect 369 0 197 0;
#X connect 370 0 237 0;
#X connect 371 0 127 13;
#X connect 372 0 127 12;
#X connect 376 0 382 0;
#X connect 377 0 383 0;
#X connect 378 0 376 1;
#X connect 378 0 380 0;
#X connect 379 0 376 0;
#X connect 380 0 381 0;
#X connect 381 0 382 0;
#X connect 382 0 297 0;
#X connect 383 0 384 0;
#X connect 384 0 382 1;
#X connect 385 0 391 3;
#X connect 386 0 391 7;
#X connect 387 0 391 6;
#X connect 388 0 391 23;
#X connect 389 0 414 0;
#X connect 390 0 391 4;
#X connect 391 0 134 0;
#X connect 392 0 391 28;
#X connect 393 0 391 2;
#X connect 394 0 391 8;
#X connect 395 0 391 9;
#X connect 396 0 391 22;
#X connect 397 0 391 24;
#X connect 398 0 391 29;
#X connect 399 0 391 30;
#X connect 400 0 391 0;
#X connect 401 0 391 10;
#X connect 402 0 391 13;
#X connect 403 0 391 14;
#X connect 404 0 391 15;
#X connect 405 0 391 16;
#X connect 406 0 391 17;
#X connect 407 0 391 18;
#X connect 408 0 391 19;
#X connect 409 0 391 20;
#X connect 410 0 391 12;
#X connect 411 0 391 11;
#X connect 412 0 391 21;
#X connect 413 0 391 34;
#X connect 414 0 391 1;
#X connect 415 0 391 32;
#X connect 416 0 391 33;
#X connect 417 0 423 3;
#X connect 418 0 423 7;
#X connect 419 0 423 6;
#X connect 420 0 423 23;
#X connect 421 0 442 0;
#X connect 422 0 423 4;
#X connect 423 0 135 0;
#X connect 424 0 423 2;
#X connect 425 0 423 8;
#X connect 426 0 423 9;
#X connect 427 0 423 22;
#X connect 428 0 423 24;
#X connect 429 0 423 0;
#X connect 430 0 423 10;
#X connect 431 0 423 13;
#X connect 432 0 423 14;
#X connect 433 0 423 15;
#X connect 434 0 423 16;
#X connect 435 0 423 17;
#X connect 436 0 423 18;
#X connect 437 0 423 19;
#X connect 438 0 423 20;
#X connect 439 0 423 12;
#X connect 440 0 423 11;
#X connect 441 0 423 21;
#X connect 442 0 423 1;
#X connect 443 0 449 3;
#X connect 444 0 449 7;
#X connect 445 0 449 6;
#X connect 446 0 449 23;
#X connect 447 0 468 0;
#X connect 448 0 449 4;
#X connect 449 0 136 0;
#X connect 450 0 449 2;
#X connect 451 0 449 8;
#X connect 452 0 449 9;
#X connect 453 0 449 22;
#X connect 454 0 449 24;
#X connect 455 0 449 0;
#X connect 456 0 449 10;
#X connect 457 0 449 13;
#X connect 458 0 449 14;
#X connect 459 0 449 15;
#X connect 460 0 449 16;
#X connect 461 0 449 17;
#X connect 462 0 449 18;
#X connect 463 0 449 19;
#X connect 464 0 449 20;
#X connect 465 0 449 12;
#X connect 466 0 449 11;
#X connect 467 0 449 21;
#X connect 468 0 449 1;
#X connect 469 0 486 1;
#X connect 469 0 644 0;
#X connect 470 0 485 0;
#X connect 471 0 485 1;
#X connect 472 0 473 0;
#X connect 473 0 494 0;
#X connect 473 1 474 0;
#X connect 474 0 486 0;
#X connect 475 0 474 1;
#X connect 476 0 486 0;
#X connect 477 0 490 0;
#X connect 478 0 483 0;
#X connect 479 0 473 0;
#X connect 480 0 479 0;
#X connect 481 0 475 0;
#X connect 482 0 480 0;
#X connect 483 0 484 0;
#X connect 484 0 482 0;
#X connect 485 0 469 0;
#X connect 486 0 488 0;
#X connect 487 0 490 0;
#X connect 488 0 481 0;
#X connect 488 1 472 0;
#X connect 488 2 489 0;
#X connect 488 3 482 0;
#X connect 489 0 474 1;
#X connect 490 0 473 0;
#X connect 490 0 491 0;
#X connect 491 0 474 1;
#X connect 492 0 493 0;
#X connect 493 0 482 0;
#X connect 494 0 287 0;
#X connect 494 0 65 0;
#X connect 495 0 494 2;
#X connect 496 0 497 0;
#X connect 499 0 470 0;
#X connect 500 0 471 0;
#X connect 501 0 476 0;
#X connect 502 0 477 0;
#X connect 507 0 506 0;
#X connect 508 0 504 0;
#X connect 509 0 505 0;
#X connect 510 0 503 0;
#X connect 513 0 138 0;
#X connect 513 4 622 0;
#X connect 514 0 139 0;
#X connect 514 4 622 0;
#X connect 515 0 140 0;
#X connect 515 4 622 0;
#X connect 516 0 141 0;
#X connect 516 4 622 0;
#X connect 517 0 515 3;
#X connect 518 0 515 2;
#X connect 519 0 515 1;
#X connect 520 0 514 3;
#X connect 521 0 514 2;
#X connect 522 0 514 1;
#X connect 523 0 513 3;
#X connect 524 0 513 2;
#X connect 525 0 513 1;
#X connect 526 0 496 0;
#X connect 527 0 528 0;
#X connect 528 0 496 0;
#X connect 529 0 532 0;
#X connect 530 0 531 0;
#X connect 531 0 358 0;
#X connect 532 0 359 0;
#X connect 533 0 534 0;
#X connect 534 0 357 0;
#X connect 535 0 538 0;
#X connect 536 0 537 0;
#X connect 537 0 535 0;
#X connect 539 0 535 0;
#X connect 540 0 19 25;
#X connect 541 0 19 26;
#X connect 542 0 19 27;
#X connect 543 0 391 25;
#X connect 544 0 391 26;
#X connect 545 0 391 27;
#X connect 546 0 423 28;
#X connect 547 0 423 29;
#X connect 548 0 423 30;
#X connect 549 0 423 34;
#X connect 550 0 423 32;
#X connect 551 0 423 33;
#X connect 552 0 423 25;
#X connect 553 0 423 26;
#X connect 554 0 423 27;
#X connect 555 0 449 28;
#X connect 556 0 449 29;
#X connect 557 0 449 30;
#X connect 558 0 449 34;
#X connect 559 0 449 32;
#X connect 560 0 449 33;
#X connect 561 0 449 25;
#X connect 562 0 449 26;
#X connect 563 0 449 27;
#X connect 564 0 565 0;
#X connect 565 0 566 0;
#X connect 566 0 568 0;
#X connect 567 0 566 0;
#X connect 570 0 24 0;
#X connect 572 0 23 0;
#X connect 573 0 23 0;
#X connect 581 0 3 0;
#X connect 582 0 583 0;
#X connect 582 1 584 0;
#X connect 582 2 589 0;
#X connect 582 3 585 0;
#X connect 582 4 590 0;
#X connect 582 5 586 0;
#X connect 582 6 587 0;
#X connect 583 0 588 0;
#X connect 584 0 588 0;
#X connect 585 0 588 0;
#X connect 586 0 588 0;
#X connect 587 0 588 0;
#X connect 588 0 19 5;
#X connect 589 0 588 0;
#X connect 590 0 588 0;
#X connect 591 0 592 0;
#X connect 592 0 593 0;
#X connect 592 1 594 0;
#X connect 592 2 599 0;
#X connect 592 3 595 0;
#X connect 592 4 600 0;
#X connect 592 5 596 0;
#X connect 592 6 597 0;
#X connect 593 0 598 0;
#X connect 594 0 598 0;
#X connect 595 0 598 0;
#X connect 596 0 598 0;
#X connect 597 0 598 0;
#X connect 598 0 391 5;
#X connect 599 0 598 0;
#X connect 600 0 598 0;
#X connect 601 0 602 0;
#X connect 602 0 603 0;
#X connect 602 1 604 0;
#X connect 602 2 609 0;
#X connect 602 3 605 0;
#X connect 602 4 610 0;
#X connect 602 5 606 0;
#X connect 602 6 607 0;
#X connect 603 0 608 0;
#X connect 604 0 608 0;
#X connect 605 0 608 0;
#X connect 606 0 608 0;
#X connect 607 0 608 0;
#X connect 608 0 423 5;
#X connect 609 0 608 0;
#X connect 610 0 608 0;
#X connect 611 0 612 0;
#X connect 612 0 613 0;
#X connect 612 1 614 0;
#X connect 612 2 619 0;
#X connect 612 3 615 0;
#X connect 612 4 620 0;
#X connect 612 5 616 0;
#X connect 612 6 617 0;
#X connect 613 0 618 0;
#X connect 614 0 618 0;
#X connect 615 0 618 0;
#X connect 616 0 618 0;
#X connect 617 0 618 0;
#X connect 618 0 449 5;
#X connect 619 0 618 0;
#X connect 620 0 618 0;
#X connect 622 0 624 0;
#X connect 622 0 626 0;
#X connect 622 0 629 0;
#X connect 623 0 625 0;
#X connect 624 0 625 0;
#X connect 625 0 621 0;
#X connect 626 0 623 0;
#X connect 628 0 627 0;
#X connect 630 0 631 0;
#X connect 630 1 632 0;
#X connect 630 2 633 0;
#X connect 630 3 634 0;
#X connect 630 4 274 0;
#X connect 636 0 494 1;
#X connect 636 0 670 0;
#X connect 637 0 659 0;
#X connect 638 0 636 1;
#X connect 639 0 642 0;
#X connect 640 0 641 0;
#X connect 641 0 639 0;
#X connect 643 0 639 0;
#X connect 645 0 498 0;
#X connect 646 0 320 0;
#X connect 646 1 262 0;
#X connect 646 2 266 0;
#X connect 646 3 265 0;
#X connect 646 4 264 0;
#X connect 646 5 270 0;
#X connect 646 6 269 0;
#X connect 646 7 284 0;
#X connect 646 8 285 0;
#X connect 646 9 647 0;
#X connect 648 0 630 4;
#X connect 649 0 652 0;
#X connect 650 0 651 0;
#X connect 651 0 649 0;
#X connect 653 0 649 0;
#X connect 654 0 391 31;
#X connect 655 0 423 31;
#X connect 656 0 449 31;
#X connect 657 0 19 31;
#X connect 658 0 660 0;
#X connect 659 0 636 0;
#X connect 660 0 636 0;
#X connect 661 0 662 0;
#X connect 661 0 663 0;
#X connect 662 0 659 1;
#X connect 663 0 660 1;
#X connect 664 0 665 0;
#X connect 666 0 664 0;
#X connect 667 0 664 0;
#X connect 668 0 667 0;
#X connect 669 0 647 0;
#X connect 670 0 635 0;
#X connect 671 0 670 1;
#X connect 672 0 50 0;
#X connect 673 0 674 0;
#X connect 674 0 647 0;
#X coords 0 -1 1 1 940 270 2 100 100;
