#N canvas 392 132 1390 805 12;
#X declare -path ../quad_effects;
#X obj 353 871 dac~ 1 2 3 4;
#X obj 16 109 phase_looper;
#X obj 4 -30 adc~ 1;
#X text -16 -54 signal_in;
#X obj 1521 36 loadbang;
#X msg 1521 59 \; pd dsp 1;
#X obj 1523 4 declare -path ../quad_effects;
#X obj 1233 872 stdout;
#X obj 99 -37 r sub1;
#X obj 1364 422 r sub2;
#X obj 8 503 quad_effects;
#X obj 107 13 readsf~;
#X msg 39 12 start;
#X msg 167 -45 open ../satie.wav;
#X connect 1 0 10 0;
#X connect 1 0 10 4;
#X connect 1 0 0 0;
#X connect 1 1 10 1;
#X connect 1 1 10 5;
#X connect 1 2 10 2;
#X connect 1 2 10 6;
#X connect 1 3 10 3;
#X connect 1 3 10 7;
#X connect 1 4 7 0;
#X connect 4 0 5 0;
#X connect 8 0 1 1;
#X connect 9 0 10 8;
#X connect 10 0 0 0;
#X connect 10 1 0 1;
#X connect 10 2 0 2;
#X connect 10 3 0 3;
#X connect 11 0 1 0;
#X connect 12 0 11 0;
#X connect 13 0 11 0;
#X coords 0 805 1 804 1010 150 0;
