#N canvas 396 113 1390 805 10;
#X declare -path ./phase_looper_abs;
#X declare -path ./commons;
#X obj 778 -689 tgl 15 0 empty empty empty 17 7 0 10 #fcfcfc #000000 #000000 0 1;
#X msg 778 -666 \; pd dsp \$1;
#X obj 778 -713 loadbang;
#X msg -203 232 start;
#X obj 323 115 vsl 20 80 0 127 0 0 empty empty env 0 -9 1 12 #000000 #ffffff #7c7c7c 0 1;
#X obj 280 116 vradio 20 1 0 5 empty empty oct 0 -10 1 12 #000000 #ffffff #7c7c7c 0;
#X obj 348 115 vsl 20 100 0 127 0 0 empty empty spr 0 -9 1 12 #000000 #ffffff #7c7c7c 0 1;
#X obj 319 -87 s env_glob_\$0;
#X obj 453 318 s frq_glob_\$0;
#X obj 280 6 s oct_glob_\$0;
#X obj 347 -151 s spr_glob_\$0;
#X obj 881 -221 s spd_glob_\$0;
#X obj 910 -162 s dep_glob_\$0;
#X obj 230 113 vradio 18 1 0 4 empty empty empty 0 -9 0 10 #000000 #ffffff #000000 0;
#X obj -391 731 r len_glob_\$0;
#X obj -311 814 r env_glob_\$0;
#X obj -332 794 r spr_glob_\$0;
#X obj 75 741 r frq_glob_\$0;
#X obj 128 788 r spd_glob_\$0;
#X obj 143 808 r dep_glob_\$0;
#X obj -354 772 r oct_glob_\$0;
#X obj -440 685 loadbang;
#X obj -372 751 r rev_glob_\$0;
#X obj 236 -245 s rev_glob_\$0;
#X obj 230 193 tgl 18 0 empty empty rev 0 -9 1 10 #fcfcfc #000000 #7c7c7c 0 1;
#X obj -397 961 reader, f 144;
#X obj 103 101 internal_sync;
#X msg -156 232 stop;
#X obj 301 116 cnv 18 20 20 empty empty -2 2 11 1 10 #ffffff #404040 0;
#X obj 301 136 cnv 18 20 20 empty empty -1 2 11 1 10 #ffffff #404040 0;
#X obj 301 156 cnv 18 20 20 empty empty 0 2 11 1 10 #ffffff #404040 0;
#X obj 301 176 cnv 18 20 20 empty empty +1 2 11 1 10 #ffffff #404040 0;
#X obj 301 196 cnv 18 20 20 empty empty +2 2 11 1 10 #ffffff #404040 0;
#X obj 249 129 cnv 18 20 20 empty empty phas 2 11 1 10 #ffffff #404040 0;
#X obj 249 147 cnv 18 20 20 empty empty over 2 11 1 10 #ffffff #404040 0;
#X obj 889 134 vsl 18 85 0 127 0 0 empty empty spd 0 -9 1 10 #000000 #ffffff #7c7c7c 0 1;
#X obj 913 134 vsl 18 85 0 127 0 0 empty empty amt 0 -9 1 10 #000000 #ffffff #7c7c7c 0 1;
#X obj 887 98 cnv 18 40 15 empty empty tremolo 2 11 1 10 #e0e0e0 #404040 0;
#X obj 455 120 vsl 18 100 0 127 0 0 empty empty frq 0 -9 1 10 #000000 #ffffff #7c7c7c 0 1;
#X obj -396 1179 s~ reader_1_signal;
#X obj 161 829 r vol_glob_\$0;
#X obj -169 1587 r~ reader_3_signal;
#X obj -252 1537 r~ reader_1_signal;
#X obj -213 1563 r~ reader_2_signal;
#X obj -112 1608 r~ reader_4_signal;
#X obj 234 -282 r preset_rev_glob_\$0;
#X obj 279 -34 r preset_oct_glob_\$0;
#X obj 316 -123 r preset_env_glob_\$0;
#X obj 348 -188 r preset_spr_glob_\$0;
#X obj 454 280 r preset_frq_glob_\$0;
#X obj 880 -259 r preset_spd_glob_\$0;
#X obj 910 -199 r preset_dep_glob_\$0;
#X obj 940 -100 r preset_vol_glob_\$0;
#X obj 1193 376 s set_preset_sync_\$0;
#X obj 1217 353 s set_preset_div_\$0;
#X obj 1242 332 s set_preset_bpm_\$0;
#X obj 1262 311 s set_preset_shape_\$0;
#X obj 1279 288 s set_preset_trans_\$0;
#X obj 1296 266 s set_preset_spread_\$0;
#X obj 1538 27 r preset_spread_\$0;
#X obj 1516 8 r preset_trans_\$0;
#X obj 1497 -11 r preset_shape_\$0;
#X obj 1455 -50 r preset_div_\$0;
#X obj 1477 -31 r preset_bpm_\$0;
#X obj 1428 -72 r preset_sync_\$0;
#X obj 943 119 vsl 18 100 0 127 0 0 empty empty vol 0 -9 1 10 #000000 #ffffff #7c7c7c 0 1;
#X obj 940 -66 s vol_glob_\$0;
#X obj 200 119 cnv 20 20 20 empty recording_\$0 rec 3 11 1 10 #a0a0a0 #404040 0;
#X obj -457 403 f \$0;
#X obj -379 371 f \$0;
#X obj -379 350 bng 18 250 50 0 empty empty empty 0 -9 0 10 #fcfcfc #000000 #000000;
#X obj -454 358 bng 18 250 50 0 empty empty empty 0 -9 0 10 #fcfcfc #000000 #000000;
#X msg -457 433 \; recording_\$1 color 13;
#X msg -379 401 \; recording_\$1 color 1;
#X obj 159 207 nbx 2 16 -1e+37 1e+37 0 0 empty empty empty 0 -9 0 10 #fcfcfc #000000 #000000 0 256;
#X obj 133 181 bng 18 250 50 0 empty empty go 3 10 1 10 #fcfcfc #000000 #000000;
#X obj 104 181 cnv 18 20 15 empty empty fixed 2 11 1 10 #ffffff #404040 0;
#X obj 155 182 nbx 4 16 0 1999 0 0 empty empty empty 0 -9 1 10 #fcfcfc #000000 #000000 0 256;
#X obj 20 252 delay;
#X obj 22 274 bng 18 250 50 0 empty empty empty 0 -9 0 10 #fcfcfc #000000 #000000;
#X obj 134 206 tgl 18 0 empty empty empty 0 -9 0 10 #fcfcfc #000000 #000000 0 1;
#X obj 108 205 cnv 18 20 15 empty empty rpt 2 11 1 10 #ffffff #404040 0;
#X obj 189 206 cnv 18 20 15 empty empty s 2 11 1 10 #ffffff #404040 0;
#X msg -440 708 0;
#X obj -160 312 timer;
#X obj -2 382 s len_glob_\$0;
#X obj -171 281 bng 18 250 50 0 empty empty empty 0 -9 0 10 #fcfcfc #000000 #000000;
#X obj -139 281 bng 18 250 50 0 empty empty empty 0 -9 0 10 #fcfcfc #000000 #000000;
#X obj 189 182 cnv 18 20 15 empty empty ms 2 11 1 10 #ffffff #404040 0;
#X obj 631 -819 loadbang;
#X obj 631 -796 f \$0;
#X obj 631 -774 s glob_id_\$0;
#X obj -303 344 tabwrite~ loop_\$0;
#X obj -404 712 r glob_id_\$0;
#X obj 261 -262 loadbang;
#X msg 236 -263 0;
#X obj 263 -172 loadbang;
#X msg 238 -173 0;
#X obj 305 -12 loadbang;
#X msg 280 -13 2;
#X obj 344 -103 loadbang;
#X msg 319 -104 64;
#X obj 371 -170 loadbang;
#X msg 346 -171 0;
#X obj 480 300 loadbang;
#X msg 455 299 64;
#X obj 907 -239 loadbang;
#X obj 936 -179 loadbang;
#X msg 912 -180 0;
#X obj 967 -118 loadbang;
#X obj -649 -637 inlet~;
#X obj -381 67 readsf~;
#X msg -433 29 start;
#X text -643 -663 signal;
#X obj 476 120 vsl 18 100 0 127 0 0 empty empty q 0 -9 1 10 #000000 #ffffff #7c7c7c 0 1;
#X obj 503 433 loadbang;
#X msg 479 430 0;
#X obj -156 1719 *~;
#X obj -94 1718 *~;
#X obj -33 1722 *~;
#X obj 22 1721 *~;
#X obj 73 1515 r vol_scaling_\$0;
#X obj 63 1584 line~;
#X obj 70 1554 pack 0 50;
#X obj 2229 432 s vol_scaling_\$0;
#X msg 2170 375 0;
#X obj -263 141 delay 4000;
#X msg -262 112 stop;
#X obj -211 197 bng 18 250 50 0 empty empty empty 0 -9 0 10 #fcfcfc #000000 #000000;
#X obj -152 199 bng 18 250 50 0 empty empty empty 0 -9 0 10 #fcfcfc #000000 #000000;
#X obj -138 -238 samplerate~;
#X floatatom -138 -211 7 0 0 0 - - - 0;
#X obj -135 -163 pack 0 0;
#X msg -112 -124 \; loop_\$2 resize \$1;
#X obj -92 -189 f \$0;
#X obj -136 -295 loadbang;
#X obj -135 -188 * 4;
#X obj -137 -267 t b b;
#X obj -61 -269 bng 18 250 50 0 empty empty empty 0 -9 0 10 #fcfcfc #000000 #000000;
#X obj -268 -125 s full_table_length_\$0;
#X obj -285 834 r fold_glob_\$0;
#X obj 520 367 loadbang;
#X obj 494 347 r preset_flt_sel_glob_\$0;
#X obj 495 383 s flt_sel_glob_\$0;
#X obj 478 413 r preset_q_glob_\$0;
#X obj 498 118 vradio 15 1 0 7 empty empty empty 0 -9 0 10 #fcfcfc #000000 #000000 0;
#X text 519 117 lp;
#X text 519 131 hp;
#X text 519 146 bp;
#X text 519 160 bob;
#X text 518 205 off;
#X text 519 175 an;
#X text 518 191 lad;
#X msg 495 366 6;
#X obj -261 853 r stgs_glob_\$0;
#X obj 63 721 r flt_sel_glob_\$0;
#X obj 92 762 r q_glob_\$0;
#X obj 476 451 s q_glob_\$0;
#X obj 899 498 loadbang;
#X obj 868 418 loadbang;
#X obj 841 344 loadbang;
#X obj 815 321 s lfo1_frq_glob_\$0;
#X obj 814 362 r preset_lfo1_frq_glob_\$0;
#X obj 842 395 s lfo1_dep_glob_\$0;
#X obj 841 436 r preset_lfo1_dep_glob_\$0;
#X obj 873 475 s lfo1_wave_glob_\$0;
#X obj 872 516 r preset_lfo1_wave_glob_\$0;
#X obj 1071 17 loadbang;
#X obj 1046 -6 s lfo2_ass_glob_\$0;
#X obj 1044 35 r preset_lfo2_ass_glob_\$0;
#X obj 1040 122 vradio 10 1 0 3 empty empty empty 0 -9 0 10 #fcfcfc #000000 #000000 0;
#X msg 1046 16 0;
#X msg 874 496 0;
#X msg 843 417 0;
#X obj 1062 121 four_quad_pan_automations;
#X obj 817 119 vsl 20 100 0 127 0 0 empty empty frq 0 -9 1 12 #000000 #ffffff #7c7c7c 0 1;
#X obj 840 119 vsl 20 100 0 127 0 0 empty empty dep 0 -9 1 12 #000000 #ffffff #7c7c7c 0 1;
#X obj 865 192 vradio 10 1 0 3 empty empty wav 0 -10 1 12 #fcfcfc #000000 #000000 0;
#X obj 865 118 vradio 10 1 0 3 empty empty empty 0 -10 0 12 #fcfcfc #000000 #000000 0;
#X msg 816 343 70;
#X obj 898 567 loadbang;
#X obj 872 544 s lfo1_mul_glob_\$0;
#X obj 872 585 r preset_lfo1_mul_glob_\$0;
#X msg 873 565 2;
#X obj 1048 414 loadbang;
#X obj 1024 341 loadbang;
#X obj 997 267 loadbang;
#X msg 1023 412 0;
#X msg 999 340 0;
#X obj 974 119 vsl 20 100 0 127 0 0 empty empty frq 0 -9 1 12 #000000 #ffffff #7c7c7c 0 1;
#X obj 997 119 vsl 20 100 0 127 0 0 empty empty dep 0 -9 1 12 #000000 #ffffff #7c7c7c 0 1;
#X obj 1022 192 vradio 10 1 0 3 empty empty wav 0 -10 1 12 #fcfcfc #000000 #000000 0;
#X obj 1022 118 vradio 10 1 0 3 empty empty empty 0 -10 0 12 #fcfcfc #000000 #000000 0;
#X msg 972 266 70;
#X obj 1047 483 loadbang;
#X msg 1022 481 2;
#X obj 971 244 s lfo2_frq_glob_\$0;
#X obj 970 285 r preset_lfo2_frq_glob_\$0;
#X obj 998 318 s lfo2_dep_glob_\$0;
#X obj 997 359 r preset_lfo2_dep_glob_\$0;
#X obj 1022 391 s lfo2_wave_glob_\$0;
#X obj 1021 432 r preset_lfo2_wave_glob_\$0;
#X obj 1021 460 s lfo2_mul_glob_\$0;
#X obj 1021 501 r preset_lfo2_mul_glob_\$0;
#X obj 221 696 r lfo1_frq_glob_\$0;
#X obj 233 716 r lfo1_dep_glob_\$0;
#X obj 249 736 r lfo1_wave_glob_\$0;
#X obj 267 755 r lfo1_mul_glob_\$0;
#X obj 286 774 r lfo2_frq_glob_\$0;
#X obj 296 794 r lfo2_dep_glob_\$0;
#X obj 314 814 r lfo2_wave_glob_\$0;
#X obj 332 833 r lfo2_mul_glob_\$0;
#X obj 349 853 r lfo2_ass_glob_\$0;
#X obj 545 1188 s~ reader_2_signal;
#X obj 1447 1181 s~ reader_3_signal;
#X obj 2387 1187 s~ reader_4_signal;
#X obj 203 143 tgl 18 0 empty empty empty 0 -9 0 10 #fcfcfc #000000 #000000 0 1;
#X obj -386 1890 quad_pan;
#X obj -205 1889 quad_pan;
#X obj -27 1890 quad_pan;
#X obj 150 1889 quad_pan;
#X obj -172 2044 outlet~;
#X obj -118 2045 outlet~;
#X obj -63 2044 outlet~;
#X obj -2 2044 outlet~;
#X obj -349 1837 r x_1_\$0;
#X obj -287 1837 r y_1_\$0;
#X obj -172 1836 r x_2_\$0;
#X obj -115 1836 r y_2_\$0;
#X obj -17 1839 r x_3_\$0;
#X obj 47 1841 r y_3_\$0;
#X obj 243 1838 r y_4_\$0;
#X obj 182 1839 r x_4_\$0;
#X obj 142 55 s phase_sync_\$0;
#X obj 361 875 r phase_sync_\$0;
#X msg -369 35 0;
#X obj 133 0 r ext_bang_\$0;
#X obj 152 25 r ext_rst_\$0;
#X obj 1216 -55 r ext_bang_\$0;
#X obj 1250 -33 r ext_rst_\$0;
#X obj 324 200 bng 18 250 50 0 empty empty empty 0 -9 0 10 #fcfcfc #000000 #000000;
#X msg 882 -239 60;
#X obj 319 -66 r ctrl_env_rst_\$0;
#X obj 1551 50 r ctrl_shape-_\$0;
#X obj 1561 60 r ctrl_shape+_\$0;
#X obj 1315 245 s feedbk_shape_name_\$0;
#X obj 1082 255 s x_1_\$0;
#X obj 1082 274 s y_1_\$0;
#X obj 1086 291 s x_2_\$0;
#X obj 1089 305 s y_2_\$0;
#X obj 1093 320 s x_3_\$0;
#X obj 1096 340 s y_3_\$0;
#X obj 1092 359 s x_4_\$0;
#X obj 1097 378 s y_4_\$0;
#X obj 195 308 loadbang;
#X obj 158 288 r preset_recdur_\$0;
#X obj 159 328 s recdur_\$0;
#X obj 192 385 loadbang;
#X obj 155 365 r preset_retramt_\$0;
#X obj 156 405 s retramt_\$0;
#X obj 170 444 loadbang;
#X obj 133 424 r preset_retrsel_\$0;
#X obj 134 464 s retrsel_\$0;
#X msg 133 449 0;
#X msg 156 386 3;
#X obj 246 -123 loadbang;
#X obj 211 -100 s phase_sync_\$0;
#X obj 209 -142 r preset_phase_sync_\$0;
#X msg 210 -122 0;
#X obj 133 -40 r ctrl_go_rec_\$0;
#X obj -273 457 tgl 18 0 empty empty empty 0 -9 0 10 #fcfcfc #000000 #000000 0 1;
#X msg -235 428 1;
#X msg -202 435 0;
#X obj -270 485 s feedbk_rec_on_\$0;
#X obj 249 167 cnv 18 20 20 empty empty simp 2 11 1 10 #ffffff #404040 0;
#X msg 159 309 2000;
#X obj -467 661 r mode_glob_\$0;
#X obj 237 -191 s mode_glob_\$0;
#X obj -157 341 min 8000;
#X obj 634 -730 table loop_\$0 352800;
#X text 625 -751 8 seconds loop at 44100;
#X obj -157 375 s simple_loop_length_\$0;
#X obj 237 -211 r ctrl_mode_glob_\$0;
#X obj 2181 239 r mode_glob_\$0;
#X obj 2179 273 sel 0 1 2 3;
#X msg 2202 374 1;
#X obj 1337 227 s set_preset_mono_phase_\$0;
#X obj 1572 83 r preset_mono_phase_\$0;
#X obj 940 -83 midi_to_log;
#X msg 942 -119 127;
#X obj 376 120 vsl 20 100 0 1 0 0 empty empty fold 0 -9 1 12 #000000 #ffffff #7c7c7c 0 1;
#X obj 400 141 vradio 20 1 0 4 empty empty mode 0 -10 1 12 #fcfcfc #000000 #000000 0;
#X obj 403 421 loadbang;
#X msg 374 420 0;
#X obj 427 487 loadbang;
#X msg 398 486 0;
#X obj 399 508 r preset_stgs_\$0;
#X obj 423 121 vsl 20 100 0 1 0 0 empty empty mix 0 -9 1 12 #000000 #ffffff #7c7c7c 0 1;
#X obj 449 556 loadbang;
#X msg 420 555 0;
#X obj 421 536 s fold_mix_\$0;
#X obj 421 577 r preset_fold_mix_\$0;
#X obj 624 120 vsl 20 80 -48 48 0 0 empty empty trn 0 -9 1 12 #000000 #ffffff #7c7c7c 0 1;
#X obj 649 122 vsl 20 100 0 1 0 0 empty empty pos 0 -9 1 12 #000000 #ffffff #7c7c7c 0 1;
#X obj 674 122 vsl 20 100 0 1 0 0 empty empty str 0 -9 1 12 #000000 #ffffff #7c7c7c 0 1;
#X obj 699 123 vsl 20 100 0 1 0 0 empty empty brt 0 -9 1 12 #000000 #ffffff #7c7c7c 0 1;
#X obj 723 122 vsl 20 100 0 1 0 0 empty empty dmp 0 -9 1 12 #000000 #ffffff #7c7c7c 0 1;
#X obj 777 122 vsl 20 100 0 1 0 0 empty empty dw 0 -9 1 12 #000000 #ffffff #7c7c7c 0 1;
#X obj 751 125 vradio 20 1 0 5 empty empty mod 0 -10 0 12 #fcfcfc #000000 #000000 0;
#X obj 560 186 tgl 20 0 empty empty trg 0 -10 1 12 #fcfcfc #000000 #000000 0 1;
#X obj 561 -191 s exciter_rngs_\$0;
#X obj 559 -298 s poly_rngs_\$0;
#X obj 601 -246 s pitch_rngs_\$0;
#X obj 624 37 s transp_rngs_\$0;
#X obj 649 -21 s posit_rngs_\$0;
#X obj 671 -82 s struct_rngs_\$0;
#X obj 697 -127 s bright_rngs_\$0;
#X obj 719 -168 s damp_rngs_\$0;
#X obj 749 -214 s model_rngs_\$0;
#X obj 768 -288 s rngs_dw_\$0;
#X obj 625 17 r preset_transp_rngs_\$0;
#X obj 648 -41 r preset_posit_rngs_\$0;
#X obj 670 -104 r preset_struct_rngs_\$0;
#X obj 697 -147 r preset_bright_rngs_\$0;
#X obj 717 -190 r preset_damp_rngs_\$0;
#X obj 748 -236 r preset_model_rngs_\$0;
#X obj 769 -265 r preset_rngs_dw_\$0;
#X obj 602 -267 r preset_pitch_rngs_\$0;
#X obj 559 -213 r preset_exciter_rngs_\$0;
#X obj 560 -321 r preset_poly_rngs_\$0;
#X msg 622 282 0;
#X obj 560 206 bng 20 250 50 0 empty empty empty 0 -10 0 12 #fcfcfc #000000 #000000;
#X obj 623 204 bng 20 250 50 0 empty empty empty 0 -10 0 12 #fcfcfc #000000 #000000;
#X obj 561 254 s control_trig_go_\$0;
#X obj 558 120 vradio 15 1 0 3 empty empty poly 0 -10 1 12 #fcfcfc #000000 #000000 0;
#X obj 601 123 vradio 15 1 0 6 empty empty pch 0 -10 1 12 #fcfcfc #000000 #000000 0;
#X text 590 122 -;
#X text 590 167 0;
#X text 585 152 +1;
#X text 585 137 +2;
#X text 585 183 -1;
#X text 585 197 -2;
#X obj -242 880 r fold_mix_\$0;
#X obj -135 861 r poly_rngs_\$0;
#X obj -122 839 r pitch_rngs_\$0;
#X obj -105 817 r transp_rngs_\$0;
#X obj -95 789 r posit_rngs_\$0;
#X obj -84 767 r struct_rngs_\$0;
#X obj -65 741 r bright_rngs_\$0;
#X obj -45 721 r damp_rngs_\$0;
#X obj -32 697 r model_rngs_\$0;
#X obj -149 882 r exciter_rngs_\$0;
#X obj -154 906 r trigger_rngs_\$0;
#X obj -11 672 r rngs_dw_\$0;
#X obj 544 731 r len_glob_\$0;
#X obj 624 814 r env_glob_\$0;
#X obj 603 794 r spr_glob_\$0;
#X obj 1010 741 r frq_glob_\$0;
#X obj 1063 788 r spd_glob_\$0;
#X obj 1078 808 r dep_glob_\$0;
#X obj 581 772 r oct_glob_\$0;
#X obj 495 685 loadbang;
#X obj 563 751 r rev_glob_\$0;
#X obj 538 961 reader, f 144;
#X obj 1096 829 r vol_glob_\$0;
#X obj 531 712 r glob_id_\$0;
#X obj 650 834 r fold_glob_\$0;
#X obj 674 853 r stgs_glob_\$0;
#X obj 998 721 r flt_sel_glob_\$0;
#X obj 1027 762 r q_glob_\$0;
#X obj 1156 696 r lfo1_frq_glob_\$0;
#X obj 1168 716 r lfo1_dep_glob_\$0;
#X obj 1184 736 r lfo1_wave_glob_\$0;
#X obj 1202 755 r lfo1_mul_glob_\$0;
#X obj 1221 774 r lfo2_frq_glob_\$0;
#X obj 1231 794 r lfo2_dep_glob_\$0;
#X obj 1249 814 r lfo2_wave_glob_\$0;
#X obj 1267 833 r lfo2_mul_glob_\$0;
#X obj 1284 853 r lfo2_ass_glob_\$0;
#X obj 1296 875 r phase_sync_\$0;
#X obj 468 661 r mode_glob_\$0;
#X obj 693 880 r fold_mix_\$0;
#X obj 800 861 r poly_rngs_\$0;
#X obj 813 839 r pitch_rngs_\$0;
#X obj 830 817 r transp_rngs_\$0;
#X obj 840 789 r posit_rngs_\$0;
#X obj 851 767 r struct_rngs_\$0;
#X obj 870 741 r bright_rngs_\$0;
#X obj 890 721 r damp_rngs_\$0;
#X obj 903 697 r model_rngs_\$0;
#X obj 786 882 r exciter_rngs_\$0;
#X obj 781 906 r trigger_rngs_\$0;
#X obj 924 672 r rngs_dw_\$0;
#X msg 496 708 1;
#X obj 1470 735 r len_glob_\$0;
#X obj 1550 818 r env_glob_\$0;
#X obj 1529 798 r spr_glob_\$0;
#X obj 1936 745 r frq_glob_\$0;
#X obj 1989 792 r spd_glob_\$0;
#X obj 2004 812 r dep_glob_\$0;
#X obj 1507 776 r oct_glob_\$0;
#X obj 1421 689 loadbang;
#X obj 1489 755 r rev_glob_\$0;
#X obj 1464 965 reader, f 144;
#X obj 2022 833 r vol_glob_\$0;
#X obj 1457 716 r glob_id_\$0;
#X obj 1576 838 r fold_glob_\$0;
#X obj 1600 857 r stgs_glob_\$0;
#X obj 1924 725 r flt_sel_glob_\$0;
#X obj 1953 766 r q_glob_\$0;
#X obj 2082 700 r lfo1_frq_glob_\$0;
#X obj 2094 720 r lfo1_dep_glob_\$0;
#X obj 2110 740 r lfo1_wave_glob_\$0;
#X obj 2128 759 r lfo1_mul_glob_\$0;
#X obj 2147 778 r lfo2_frq_glob_\$0;
#X obj 2157 798 r lfo2_dep_glob_\$0;
#X obj 2175 818 r lfo2_wave_glob_\$0;
#X obj 2193 837 r lfo2_mul_glob_\$0;
#X obj 2210 857 r lfo2_ass_glob_\$0;
#X obj 2222 879 r phase_sync_\$0;
#X obj 1394 665 r mode_glob_\$0;
#X obj 1619 884 r fold_mix_\$0;
#X obj 1726 865 r poly_rngs_\$0;
#X obj 1739 843 r pitch_rngs_\$0;
#X obj 1756 821 r transp_rngs_\$0;
#X obj 1766 793 r posit_rngs_\$0;
#X obj 1777 771 r struct_rngs_\$0;
#X obj 1796 745 r bright_rngs_\$0;
#X obj 1816 725 r damp_rngs_\$0;
#X obj 1829 701 r model_rngs_\$0;
#X obj 1712 886 r exciter_rngs_\$0;
#X obj 1707 910 r trigger_rngs_\$0;
#X obj 1850 676 r rngs_dw_\$0;
#X obj 2402 739 r len_glob_\$0;
#X obj 2482 822 r env_glob_\$0;
#X obj 2461 802 r spr_glob_\$0;
#X obj 2868 749 r frq_glob_\$0;
#X obj 2921 796 r spd_glob_\$0;
#X obj 2936 816 r dep_glob_\$0;
#X obj 2439 780 r oct_glob_\$0;
#X obj 2353 693 loadbang;
#X obj 2421 759 r rev_glob_\$0;
#X obj 2396 969 reader, f 144;
#X obj 2954 837 r vol_glob_\$0;
#X obj 2389 720 r glob_id_\$0;
#X obj 2508 842 r fold_glob_\$0;
#X obj 2532 861 r stgs_glob_\$0;
#X obj 2856 729 r flt_sel_glob_\$0;
#X obj 2885 770 r q_glob_\$0;
#X obj 3014 704 r lfo1_frq_glob_\$0;
#X obj 3026 724 r lfo1_dep_glob_\$0;
#X obj 3042 744 r lfo1_wave_glob_\$0;
#X obj 3060 763 r lfo1_mul_glob_\$0;
#X obj 3079 782 r lfo2_frq_glob_\$0;
#X obj 3089 802 r lfo2_dep_glob_\$0;
#X obj 3107 822 r lfo2_wave_glob_\$0;
#X obj 3125 841 r lfo2_mul_glob_\$0;
#X obj 3142 861 r lfo2_ass_glob_\$0;
#X obj 3154 883 r phase_sync_\$0;
#X obj 2326 669 r mode_glob_\$0;
#X obj 2551 888 r fold_mix_\$0;
#X obj 2658 869 r poly_rngs_\$0;
#X obj 2671 847 r pitch_rngs_\$0;
#X obj 2688 825 r transp_rngs_\$0;
#X obj 2698 797 r posit_rngs_\$0;
#X obj 2709 775 r struct_rngs_\$0;
#X obj 2728 749 r bright_rngs_\$0;
#X obj 2748 729 r damp_rngs_\$0;
#X obj 2761 705 r model_rngs_\$0;
#X obj 2644 890 r exciter_rngs_\$0;
#X obj 2639 914 r trigger_rngs_\$0;
#X obj 2782 680 r rngs_dw_\$0;
#X msg 2354 716 3;
#X msg 1422 712 2;
#X obj 376 397 s fold_glob_\$0;
#X obj 375 438 r preset_fold_glob_\$0;
#X obj 399 467 s stgs_glob_\$0;
#X msg -379 8 open ../satie.wav;
#X obj -606 -553 s bang_\$0;
#X obj -535 -553 s rst_\$0;
#X obj -556 -640 inlet;
#X obj -330 -551 s save_\$0;
#X obj -406 -550 s load_\$0;
#X obj -466 -551 s ID_\$0;
#X text -559 -665 internal_in;
#X obj -234 -444 s control_\$0;
#X obj -247 -477 route name;
#X obj -290 -579 s osc_name_\$0;
#X obj 397 1864 r control_out_\$0;
#X obj 375 2041 outlet;
#X obj 375 2015 oscformat;
#X obj 378 1937 list split 1;
#X obj 408 1983 list trim;
#X obj 502 1936 r osc_name_\$0;
#X obj 408 1961 list prepend;
#X obj 502 1981 list trim;
#X obj 502 1959 list prepend set;
#X text 378 2064 osc_out;
#X obj -216 -517 r osc_name_\$0;
#X obj -555 -614 route bang_bpm rst instance_id load save osc_name osc;
#X obj 635 -703 declare -path ./phase_looper_abs;
#X obj 633 -676 declare -path ./commons;
#N canvas 66 32 1854 1097 handle_presets 0;
#X obj 354 1236 tabwrite presets_\$0;
#X msg 683 397 \$1 1;
#X msg 683 373 \$1 0;
#X msg 683 421 \$1 2;
#X obj 288 208 textfile;
#X obj 288 79 until;
#X obj 288 112 i;
#X obj 323 112 + 1;
#X msg 323 51 0;
#X obj 289 -18 bng 20 250 50 0 empty empty empty 0 -10 0 12 #fcfcfc #000000 #000000;
#X msg 288 173 add \$1;
#X obj 289 13 t b b b;
#X msg 362 112 clear;
#X obj 381 81 f;
#X obj 372 14 t b b f;
#X floatatom 440 100 5 0 0 0 - - - 0;
#X obj 376 45 delay 10;
#X obj 380 174 pack 0 0;
#X obj 437 143 r ID_\$0;
#X obj 288 143 tabread presets_\$0;
#X obj 1054 172 soundfiler;
#X obj 1139 120 f \$0;
#X obj 1144 92 loadbang;
#X obj 1008 91 t b b f;
#X obj 986 228 until;
#X obj 985 261 i;
#X obj 1021 261 + 1;
#X obj 987 131 bng 20 250 50 0 empty empty empty 0 -10 0 12 #fcfcfc #000000 #000000;
#X obj 987 162 t b b b;
#X obj 949 382 pack 0 0;
#X obj 946 355 i;
#X obj 981 354 t b f;
#X msg 1021 200 0;
#X obj 985 290 t f f;
#X obj 1086 91 r ID_\$0;
#X obj 1055 120 pack 0 0 0;
#X text 894 202 n of presets;
#X text 197 50 n of presets;
#X obj 985 322 tabread presets_\$0;
#X msg 683 445 \$1 3;
#X msg 683 469 \$1 4;
#X msg 683 493 \$1 5;
#X msg 683 517 \$1 6;
#X msg 683 541 \$1 7;
#X msg 683 565 \$1 8;
#X msg 683 589 \$1 9;
#X msg 683 613 \$1 10;
#X msg 683 637 \$1 11;
#X msg 683 661 \$1 12;
#X msg 683 685 \$1 13;
#X obj 717 733 r dep_glob_\$0;
#X obj 717 709 r spd_glob_\$0;
#X obj 717 445 r spr_glob_\$0;
#X obj 717 421 r env_glob_\$0;
#X obj 717 397 r oct_glob_\$0;
#X obj 717 373 r rev_glob_\$0;
#X obj 717 757 r vol_glob_\$0;
#X obj 927 757 s preset_rev_glob_\$0;
#X obj 940 730 s preset_oct_glob_\$0;
#X obj 969 699 s preset_env_glob_\$0;
#X obj 989 672 s preset_spr_glob_\$0;
#X msg 683 709 \$1 14;
#X msg 683 733 \$1 15;
#X msg 683 757 \$1 16;
#X msg 683 781 \$1 17;
#X obj 717 949 r set_preset_sync_\$0;
#X obj 717 973 r set_preset_div_\$0;
#X obj 756 997 r set_preset_bpm_\$0;
#X obj 717 1021 r set_preset_shape_\$0;
#X obj 717 1045 r set_preset_trans_\$0;
#X obj 717 1069 r set_preset_spread_\$0;
#X msg 683 805 \$1 18;
#X msg 683 829 \$1 19;
#X msg 683 853 \$1 20;
#X msg 683 877 \$1 21;
#X msg 683 901 \$1 22;
#X msg 683 925 \$1 23;
#X msg 683 949 \$1 24;
#X msg 683 973 \$1 25;
#X msg 683 997 \$1 26;
#X msg 683 1021 \$1 27;
#X msg 683 1045 \$1 28;
#X msg 683 1069 \$1 29;
#X msg 683 1093 \$1 30;
#X msg 683 1117 \$1 31;
#X obj 717 637 r frq_glob_\$0;
#X obj 1109 506 s preset_frq_glob_\$0;
#X obj 717 469 r fold_glob_\$0;
#X obj 1004 650 s preset_fold_glob_\$0;
#X obj 717 661 r flt_sel_glob_\$0;
#X obj 717 685 r q_glob_\$0;
#X obj 717 781 r lfo1_frq_glob_\$0;
#X obj 717 805 r lfo1_dep_glob_\$0;
#X obj 717 829 r lfo1_wave_glob_\$0;
#X obj 717 853 r lfo2_frq_glob_\$0;
#X obj 717 877 r lfo2_dep_glob_\$0;
#X obj 717 901 r lfo2_wave_glob_\$0;
#X obj 717 925 r lfo2_ass_glob_\$0;
#X obj 1109 750 s preset_flt_sel_glob_\$0;
#X obj 1130 727 s preset_q_glob_\$0;
#X obj 1153 703 s preset_spd_glob_\$0;
#X obj 1174 685 s preset_dep_glob_\$0;
#X obj 1191 666 s preset_vol_glob_\$0;
#X obj 1217 645 s preset_lfo1_frq_glob_\$0;
#X obj 1243 622 s preset_lfo1_dep_glob_\$0;
#X obj 1265 601 s preset_lfo1_wave_glob_\$0;
#X obj 1287 580 s preset_lfo2_frq_glob_\$0;
#X obj 1309 558 s preset_lfo2_dep_glob_\$0;
#X obj 1326 538 s preset_lfo2_wave_glob_\$0;
#X obj 1343 516 s preset_lfo2_ass_glob_\$0;
#X obj 396 -73 r save_\$0;
#X obj 1040 -57 r load_\$0;
#X obj 1060 393 r control_\$0;
#X obj 1516 272 route load save set_id;
#X obj 1515 319 s load_\$0;
#X obj 1538 351 s save_\$0;
#X obj 1602 371 s ID_\$0;
#X obj 291 936 s control_out_\$0;
#X obj 345 1101 list;
#X obj 368 1184 unpack 0 0;
#X obj 1757 552 s ctrl_env_rst_\$0;
#X obj 1770 571 s ctrl_shape-_\$0;
#X obj 1788 593 s ctrl_shape+_\$0;
#X obj 211 759 r feedbk_shape_name_\$0;
#X obj 235 795 t a b;
#X obj 233 853 list trim;
#X obj 235 828 list append;
#X msg 298 799 105;
#X obj 723 1093 r stgs_glob_\$0;
#X obj 1479 626 s preset_stgs_glob_\$0;
#X obj 1382 736 s preset_div_\$0;
#X obj 1359 758 s preset_sync_\$0;
#X obj 1427 713 s preset_bpm_\$0;
#X obj 1415 690 s preset_shape_\$0;
#X obj 1442 668 s preset_trans_\$0;
#X obj 1461 648 s preset_spread_\$0;
#X obj 1401 712 i;
#X obj 725 997 i;
#X obj 1753 507 route 100 101 102 103 104 106 107;
#X obj 1832 624 s ctrl_go_rec_\$0;
#X obj 1856 649 s ctrl_on_glob_\$0;
#X obj 723 1139 r recdur_\$0;
#X obj 722 1118 r phase_sync_\$0;
#X obj 724 1165 r retramt_\$0;
#X obj 724 1189 r retrsel_\$0;
#X obj 1501 606 s preset_phase_sync_\$0;
#X obj 1513 586 s preset_recdur_\$0;
#X obj 1529 565 s preset_retramt_\$0;
#X obj 1552 547 s preset_retrsel_\$0;
#X msg 681 1140 \$1 32;
#X msg 681 1164 \$1 33;
#X msg 681 1188 \$1 34;
#X obj 351 843 r feedbk_rec_on_\$0;
#X msg 362 888 \$1 108;
#X obj 36 469 r x_1_\$0;
#X obj 95 473 r y_1_\$0;
#X obj 38 532 r x_2_\$0;
#X obj 95 535 r y_2_\$0;
#X obj 91 622 r y_3_\$0;
#X obj 33 618 r x_3_\$0;
#X obj 34 701 r x_4_\$0;
#X obj 92 702 r y_4_\$0;
#X msg 95 496 \$1 110;
#X msg 33 495 \$1 109;
#X msg 34 557 \$1 111;
#X msg 96 558 \$1 112;
#X msg 36 650 \$1 113;
#X msg 98 651 \$1 114;
#X msg 33 741 \$1 115;
#X msg 95 742 \$1 116;
#X obj 1252 68 file patchpath;
#X obj 1254 98 list append;
#X obj 1250 -14 t a a;
#X obj 1255 152 list prepend;
#X obj 1254 123 list trim;
#X msg 1353 151 read -ascii -resize;
#X obj 1256 194 list trim;
#X obj 1358 125 loadbang;
#X msg 1368 68 presets_\$3;
#X obj 1268 247 print;
#X obj 545 27 file patchpath;
#X obj 547 57 list append;
#X obj 543 -55 t a a;
#X obj 548 111 list prepend;
#X obj 547 82 list trim;
#X obj 549 153 list trim;
#X obj 656 68 loadbang;
#X obj 561 206 print;
#X msg 646 110 write;
#X msg 661 27 cr;
#X msg 544 -27 symbol ../presets/phase_looper_presets/\$2/loop_\$1_info.txt;
#X msg 1251 14 symbol ../presets/phase_looper_presets/\$2/loop_\$1_info.txt;
#X msg 681 1209 \$1 35;
#X obj 724 1210 r set_preset_mono_phase_\$0;
#X obj 1566 525 s preset_mono_phase_\$0;
#X obj 717 493 r poly_rngs_\$0;
#X obj 720 518 r exciter_rngs_\$0;
#X obj 721 542 r pitch_rngs_\$0;
#X obj 717 566 r struct_rngs_\$0;
#X obj 720 588 r posit_rngs_\$0;
#X obj 720 612 r transp_rngs_\$0;
#X obj 724 1231 r rngs_dw_\$0;
#X obj 725 1252 r model_rngs_\$0;
#X obj 725 1275 r damp_rngs_\$0;
#X obj 727 1299 r bright_rngs_\$0;
#X msg 682 1229 \$1 36;
#X msg 680 1252 \$1 37;
#X msg 680 1276 \$1 38;
#X msg 680 1300 \$1 39;
#X msg 680 1321 \$1 40;
#X obj 723 1323 r fold_mix_\$0;
#X obj 1025 627 s preset_poly_rngs_\$0;
#X obj 1037 606 s preset_exciter_rngs_\$0;
#X obj 1048 585 s preset_pitch_rngs_\$0;
#X obj 1061 565 s preset_struct_rngs_\$0;
#X obj 1079 546 s preset_posit_rngs_\$0;
#X obj 1091 526 s preset_transp_rngs_\$0;
#X obj 1603 723 s preset_rngs_dw_\$0;
#X obj 1624 701 s preset_model_rngs_\$0;
#X obj 1645 680 s preset_damp_rngs_\$0;
#X obj 1660 660 s preset_bright_rngs_\$0;
#X obj 1676 641 s preset_fold_mix_\$0;
#X obj 920 438 route 0 1 2 3 4 5 6 7 8 9 10 11 12 13 14 15 16 17 18 19 20 21 22 23 24 25 26 27 28 29 30 31 32 33 34 35 36 37 38 39 40, f 137;
#X msg 288 51 41;
#X msg 986 201 41;
#X obj 791 100 table presets_\$0 50;
#X connect 1 0 118 0;
#X connect 2 0 118 0;
#X connect 3 0 118 0;
#X connect 5 0 6 0;
#X connect 6 0 7 0;
#X connect 6 0 19 0;
#X connect 7 0 6 1;
#X connect 8 0 6 1;
#X connect 9 0 11 0;
#X connect 10 0 4 0;
#X connect 11 0 223 0;
#X connect 11 1 8 0;
#X connect 11 2 12 0;
#X connect 12 0 4 0;
#X connect 13 0 15 0;
#X connect 13 0 17 0;
#X connect 14 0 16 0;
#X connect 14 1 9 0;
#X connect 14 2 13 1;
#X connect 16 0 13 0;
#X connect 17 0 182 0;
#X connect 18 0 17 1;
#X connect 19 0 10 0;
#X connect 21 0 35 2;
#X connect 22 0 21 0;
#X connect 23 1 27 0;
#X connect 23 2 35 0;
#X connect 24 0 25 0;
#X connect 25 0 26 0;
#X connect 25 0 33 0;
#X connect 26 0 25 1;
#X connect 27 0 28 0;
#X connect 28 0 224 0;
#X connect 28 1 32 0;
#X connect 29 0 222 0;
#X connect 30 0 29 0;
#X connect 31 0 30 0;
#X connect 31 1 29 1;
#X connect 32 0 25 1;
#X connect 33 0 38 0;
#X connect 33 1 30 1;
#X connect 34 0 35 1;
#X connect 35 0 172 0;
#X connect 38 0 31 0;
#X connect 39 0 118 0;
#X connect 40 0 118 0;
#X connect 41 0 118 0;
#X connect 42 0 118 0;
#X connect 43 0 118 0;
#X connect 44 0 118 0;
#X connect 45 0 118 0;
#X connect 46 0 118 0;
#X connect 47 0 118 0;
#X connect 48 0 118 0;
#X connect 49 0 118 0;
#X connect 50 0 62 0;
#X connect 51 0 61 0;
#X connect 52 0 39 0;
#X connect 53 0 3 0;
#X connect 54 0 1 0;
#X connect 55 0 2 0;
#X connect 56 0 63 0;
#X connect 61 0 118 0;
#X connect 62 0 118 0;
#X connect 63 0 118 0;
#X connect 64 0 118 0;
#X connect 65 0 77 0;
#X connect 66 0 78 0;
#X connect 67 0 137 0;
#X connect 68 0 80 0;
#X connect 69 0 81 0;
#X connect 70 0 82 0;
#X connect 71 0 118 0;
#X connect 72 0 118 0;
#X connect 73 0 118 0;
#X connect 74 0 118 0;
#X connect 75 0 118 0;
#X connect 76 0 118 0;
#X connect 77 0 118 0;
#X connect 78 0 118 0;
#X connect 79 0 118 0;
#X connect 80 0 118 0;
#X connect 81 0 118 0;
#X connect 82 0 118 0;
#X connect 83 0 118 0;
#X connect 84 0 118 0;
#X connect 85 0 47 0;
#X connect 87 0 40 0;
#X connect 89 0 48 0;
#X connect 90 0 49 0;
#X connect 91 0 64 0;
#X connect 92 0 71 0;
#X connect 93 0 72 0;
#X connect 94 0 73 0;
#X connect 95 0 74 0;
#X connect 96 0 75 0;
#X connect 97 0 76 0;
#X connect 110 0 14 0;
#X connect 111 0 23 0;
#X connect 112 0 222 0;
#X connect 113 0 114 0;
#X connect 113 1 115 0;
#X connect 113 2 116 0;
#X connect 118 0 119 0;
#X connect 118 0 117 0;
#X connect 119 0 0 0;
#X connect 119 1 0 1;
#X connect 123 0 124 0;
#X connect 124 0 126 0;
#X connect 124 1 127 0;
#X connect 125 0 117 0;
#X connect 126 0 125 0;
#X connect 127 0 126 1;
#X connect 128 0 83 0;
#X connect 136 0 132 0;
#X connect 137 0 79 0;
#X connect 138 2 120 0;
#X connect 138 3 121 0;
#X connect 138 4 122 0;
#X connect 138 5 139 0;
#X connect 138 6 140 0;
#X connect 138 7 113 0;
#X connect 141 0 149 0;
#X connect 143 0 150 0;
#X connect 144 0 151 0;
#X connect 149 0 118 0;
#X connect 150 0 118 0;
#X connect 151 0 118 0;
#X connect 152 0 153 0;
#X connect 153 0 117 0;
#X connect 154 0 163 0;
#X connect 155 0 162 0;
#X connect 156 0 164 0;
#X connect 157 0 165 0;
#X connect 158 0 167 0;
#X connect 159 0 166 0;
#X connect 160 0 168 0;
#X connect 161 0 169 0;
#X connect 162 0 117 0;
#X connect 163 0 117 0;
#X connect 164 0 117 0;
#X connect 165 0 117 0;
#X connect 166 0 117 0;
#X connect 167 0 117 0;
#X connect 168 0 117 0;
#X connect 169 0 117 0;
#X connect 170 0 171 0;
#X connect 171 0 174 0;
#X connect 172 0 191 0;
#X connect 172 1 178 0;
#X connect 173 0 176 0;
#X connect 174 0 173 0;
#X connect 175 0 173 1;
#X connect 176 0 179 0;
#X connect 176 0 20 0;
#X connect 177 0 175 0;
#X connect 178 0 171 1;
#X connect 180 0 181 0;
#X connect 181 0 184 0;
#X connect 182 0 190 0;
#X connect 182 1 189 0;
#X connect 183 0 185 0;
#X connect 184 0 183 0;
#X connect 185 0 187 0;
#X connect 185 0 4 0;
#X connect 186 0 188 0;
#X connect 188 0 183 1;
#X connect 189 0 181 1;
#X connect 190 0 180 0;
#X connect 191 0 170 0;
#X connect 192 0 118 0;
#X connect 193 0 192 0;
#X connect 195 0 41 0;
#X connect 196 0 42 0;
#X connect 197 0 43 0;
#X connect 198 0 44 0;
#X connect 199 0 45 0;
#X connect 200 0 46 0;
#X connect 201 0 205 0;
#X connect 202 0 206 0;
#X connect 203 0 207 0;
#X connect 204 0 208 0;
#X connect 205 0 118 0;
#X connect 206 0 118 0;
#X connect 207 0 118 0;
#X connect 208 0 118 0;
#X connect 209 0 118 0;
#X connect 210 0 209 0;
#X connect 222 0 57 0;
#X connect 222 1 58 0;
#X connect 222 2 59 0;
#X connect 222 3 60 0;
#X connect 222 4 88 0;
#X connect 222 5 211 0;
#X connect 222 6 212 0;
#X connect 222 7 213 0;
#X connect 222 8 214 0;
#X connect 222 9 215 0;
#X connect 222 10 216 0;
#X connect 222 11 86 0;
#X connect 222 12 98 0;
#X connect 222 13 99 0;
#X connect 222 14 100 0;
#X connect 222 15 101 0;
#X connect 222 16 102 0;
#X connect 222 17 103 0;
#X connect 222 18 104 0;
#X connect 222 19 105 0;
#X connect 222 20 106 0;
#X connect 222 21 107 0;
#X connect 222 22 108 0;
#X connect 222 23 109 0;
#X connect 222 24 131 0;
#X connect 222 25 130 0;
#X connect 222 26 136 0;
#X connect 222 27 133 0;
#X connect 222 28 134 0;
#X connect 222 29 135 0;
#X connect 222 30 129 0;
#X connect 222 31 145 0;
#X connect 222 32 146 0;
#X connect 222 33 147 0;
#X connect 222 34 148 0;
#X connect 222 35 194 0;
#X connect 222 36 217 0;
#X connect 222 37 218 0;
#X connect 222 38 219 0;
#X connect 222 39 220 0;
#X connect 222 40 221 0;
#X connect 222 41 138 0;
#X connect 223 0 5 0;
#X connect 224 0 24 0;
#X restore 634 -649 pd handle_presets;
#X connect 0 0 1 0;
#X connect 2 0 0 0;
#X connect 3 0 71 0;
#X connect 3 0 92 0;
#X connect 3 0 271 0;
#X connect 3 0 86 0;
#X connect 4 0 7 0;
#X connect 5 0 9 0;
#X connect 6 0 10 0;
#X connect 13 0 277 0;
#X connect 14 0 25 3;
#X connect 15 0 25 7;
#X connect 16 0 25 6;
#X connect 17 0 25 23;
#X connect 18 0 25 25;
#X connect 19 0 25 26;
#X connect 20 0 25 5;
#X connect 21 0 83 0;
#X connect 22 0 25 4;
#X connect 24 0 23 0;
#X connect 25 0 39 0;
#X connect 27 0 70 0;
#X connect 27 0 92 0;
#X connect 27 0 272 0;
#X connect 27 0 87 0;
#X connect 35 0 11 0;
#X connect 36 0 12 0;
#X connect 38 0 8 0;
#X connect 40 0 25 27;
#X connect 41 0 119 0;
#X connect 42 0 117 0;
#X connect 43 0 118 0;
#X connect 44 0 120 0;
#X connect 45 0 24 0;
#X connect 46 0 5 0;
#X connect 47 0 4 0;
#X connect 48 0 6 0;
#X connect 49 0 38 0;
#X connect 50 0 35 0;
#X connect 51 0 36 0;
#X connect 52 0 65 0;
#X connect 59 0 174 8;
#X connect 60 0 174 7;
#X connect 61 0 174 6;
#X connect 62 0 174 4;
#X connect 63 0 174 5;
#X connect 64 0 174 3;
#X connect 65 0 288 0;
#X connect 68 0 72 0;
#X connect 69 0 73 0;
#X connect 70 0 69 0;
#X connect 71 0 68 0;
#X connect 74 0 259 0;
#X connect 75 0 78 0;
#X connect 75 0 128 0;
#X connect 77 0 78 1;
#X connect 77 0 256 0;
#X connect 77 0 85 0;
#X connect 78 0 79 0;
#X connect 79 0 129 0;
#X connect 80 0 262 0;
#X connect 83 0 25 1;
#X connect 84 0 278 0;
#X connect 86 0 84 0;
#X connect 87 0 84 1;
#X connect 89 0 90 0;
#X connect 90 0 91 0;
#X connect 93 0 25 2;
#X connect 94 0 95 0;
#X connect 95 0 24 0;
#X connect 96 0 97 0;
#X connect 97 0 13 0;
#X connect 98 0 99 0;
#X connect 99 0 5 0;
#X connect 100 0 101 0;
#X connect 101 0 4 0;
#X connect 102 0 103 0;
#X connect 103 0 6 0;
#X connect 104 0 105 0;
#X connect 105 0 38 0;
#X connect 106 0 241 0;
#X connect 107 0 108 0;
#X connect 108 0 36 0;
#X connect 109 0 289 0;
#X connect 110 0 92 0;
#X connect 111 0 92 0;
#X connect 111 1 477 0;
#X connect 112 0 111 0;
#X connect 114 0 157 0;
#X connect 115 0 116 0;
#X connect 116 0 114 0;
#X connect 117 0 217 0;
#X connect 118 0 218 0;
#X connect 119 0 219 0;
#X connect 120 0 220 0;
#X connect 121 0 123 0;
#X connect 122 0 120 1;
#X connect 122 0 119 1;
#X connect 122 0 118 1;
#X connect 122 0 117 1;
#X connect 123 0 122 0;
#X connect 125 0 124 0;
#X connect 126 0 129 0;
#X connect 127 0 126 0;
#X connect 128 0 3 0;
#X connect 128 0 126 0;
#X connect 129 0 27 0;
#X connect 129 0 127 0;
#X connect 130 0 131 0;
#X connect 131 0 136 0;
#X connect 132 0 133 0;
#X connect 134 0 132 1;
#X connect 135 0 137 0;
#X connect 136 0 132 0;
#X connect 136 0 139 0;
#X connect 137 0 130 0;
#X connect 137 1 134 0;
#X connect 138 0 130 0;
#X connect 140 0 25 8;
#X connect 141 0 153 0;
#X connect 142 0 145 0;
#X connect 144 0 114 0;
#X connect 145 0 143 0;
#X connect 153 0 145 0;
#X connect 154 0 25 9;
#X connect 155 0 25 22;
#X connect 156 0 25 24;
#X connect 158 0 172 0;
#X connect 159 0 173 0;
#X connect 160 0 179 0;
#X connect 162 0 175 0;
#X connect 164 0 176 0;
#X connect 166 0 177 0;
#X connect 167 0 171 0;
#X connect 169 0 170 0;
#X connect 170 0 168 0;
#X connect 171 0 170 0;
#X connect 172 0 177 0;
#X connect 173 0 176 0;
#X connect 174 0 246 0;
#X connect 174 1 247 0;
#X connect 174 2 248 0;
#X connect 174 3 249 0;
#X connect 174 4 250 0;
#X connect 174 5 251 0;
#X connect 174 6 252 0;
#X connect 174 7 253 0;
#X connect 174 8 53 0;
#X connect 174 9 54 0;
#X connect 174 10 55 0;
#X connect 174 11 56 0;
#X connect 174 12 57 0;
#X connect 174 13 58 0;
#X connect 174 14 286 0;
#X connect 174 15 245 0;
#X connect 175 0 161 0;
#X connect 176 0 163 0;
#X connect 177 0 165 0;
#X connect 178 0 181 0;
#X connect 179 0 175 0;
#X connect 180 0 183 0;
#X connect 182 0 178 0;
#X connect 183 0 178 0;
#X connect 184 0 187 0;
#X connect 185 0 188 0;
#X connect 186 0 193 0;
#X connect 187 0 191 0;
#X connect 188 0 190 0;
#X connect 189 0 196 0;
#X connect 190 0 198 0;
#X connect 191 0 200 0;
#X connect 192 0 202 0;
#X connect 193 0 189 0;
#X connect 194 0 195 0;
#X connect 195 0 192 0;
#X connect 197 0 189 0;
#X connect 199 0 190 0;
#X connect 201 0 191 0;
#X connect 203 0 192 0;
#X connect 204 0 25 28;
#X connect 205 0 25 29;
#X connect 206 0 25 30;
#X connect 207 0 25 31;
#X connect 208 0 25 32;
#X connect 209 0 25 33;
#X connect 210 0 25 34;
#X connect 211 0 25 35;
#X connect 212 0 25 36;
#X connect 216 0 233 0;
#X connect 216 0 266 0;
#X connect 217 0 221 0;
#X connect 217 1 222 0;
#X connect 217 2 223 0;
#X connect 217 3 224 0;
#X connect 218 0 221 0;
#X connect 218 1 222 0;
#X connect 218 2 223 0;
#X connect 218 3 224 0;
#X connect 219 0 221 0;
#X connect 219 1 222 0;
#X connect 219 2 223 0;
#X connect 219 3 224 0;
#X connect 220 0 221 0;
#X connect 220 1 222 0;
#X connect 220 2 223 0;
#X connect 220 3 224 0;
#X connect 225 0 217 1;
#X connect 226 0 217 2;
#X connect 227 0 218 1;
#X connect 228 0 218 2;
#X connect 229 0 219 1;
#X connect 230 0 219 2;
#X connect 231 0 220 2;
#X connect 232 0 220 1;
#X connect 234 0 25 37;
#X connect 235 0 111 0;
#X connect 236 0 26 0;
#X connect 237 0 26 1;
#X connect 238 0 174 0;
#X connect 239 0 174 1;
#X connect 240 0 101 0;
#X connect 241 0 35 0;
#X connect 242 0 240 0;
#X connect 243 0 174 9;
#X connect 244 0 174 10;
#X connect 254 0 275 0;
#X connect 255 0 77 0;
#X connect 257 0 264 0;
#X connect 258 0 74 0;
#X connect 260 0 263 0;
#X connect 261 0 80 0;
#X connect 263 0 80 0;
#X connect 264 0 74 0;
#X connect 265 0 268 0;
#X connect 267 0 216 0;
#X connect 268 0 216 0;
#X connect 269 0 75 0;
#X connect 270 0 273 0;
#X connect 271 0 270 0;
#X connect 272 0 270 0;
#X connect 275 0 77 0;
#X connect 276 0 25 0;
#X connect 278 0 281 0;
#X connect 282 0 13 0;
#X connect 283 0 284 0;
#X connect 284 0 125 0;
#X connect 284 1 285 0;
#X connect 284 2 285 0;
#X connect 284 3 125 0;
#X connect 285 0 124 0;
#X connect 287 0 174 11;
#X connect 288 0 66 0;
#X connect 289 0 65 0;
#X connect 290 0 474 0;
#X connect 291 0 476 0;
#X connect 292 0 293 0;
#X connect 293 0 290 0;
#X connect 294 0 295 0;
#X connect 295 0 291 0;
#X connect 296 0 291 0;
#X connect 297 0 300 0;
#X connect 298 0 299 0;
#X connect 299 0 297 0;
#X connect 301 0 297 0;
#X connect 302 0 313 0;
#X connect 303 0 314 0;
#X connect 304 0 315 0;
#X connect 305 0 316 0;
#X connect 306 0 317 0;
#X connect 307 0 319 0;
#X connect 308 0 318 0;
#X connect 309 0 310 0;
#X connect 320 0 302 0;
#X connect 321 0 303 0;
#X connect 322 0 304 0;
#X connect 323 0 305 0;
#X connect 324 0 306 0;
#X connect 325 0 308 0;
#X connect 326 0 307 0;
#X connect 327 0 335 0;
#X connect 328 0 309 0;
#X connect 329 0 334 0;
#X connect 330 0 302 0;
#X connect 331 0 333 0;
#X connect 332 0 330 0;
#X connect 334 0 311 0;
#X connect 335 0 312 0;
#X connect 342 0 25 10;
#X connect 343 0 25 13;
#X connect 344 0 25 14;
#X connect 345 0 25 15;
#X connect 346 0 25 16;
#X connect 347 0 25 17;
#X connect 348 0 25 18;
#X connect 349 0 25 19;
#X connect 350 0 25 20;
#X connect 351 0 25 12;
#X connect 352 0 25 11;
#X connect 353 0 25 21;
#X connect 354 0 363 3;
#X connect 355 0 363 7;
#X connect 356 0 363 6;
#X connect 357 0 363 23;
#X connect 358 0 363 25;
#X connect 359 0 363 26;
#X connect 360 0 363 5;
#X connect 361 0 393 0;
#X connect 362 0 363 4;
#X connect 363 0 213 0;
#X connect 364 0 363 27;
#X connect 365 0 363 2;
#X connect 366 0 363 8;
#X connect 367 0 363 9;
#X connect 368 0 363 22;
#X connect 369 0 363 24;
#X connect 370 0 363 28;
#X connect 371 0 363 29;
#X connect 372 0 363 30;
#X connect 373 0 363 31;
#X connect 374 0 363 32;
#X connect 375 0 363 33;
#X connect 376 0 363 34;
#X connect 377 0 363 35;
#X connect 378 0 363 36;
#X connect 380 0 363 0;
#X connect 381 0 363 10;
#X connect 382 0 363 13;
#X connect 383 0 363 14;
#X connect 384 0 363 15;
#X connect 385 0 363 16;
#X connect 386 0 363 17;
#X connect 387 0 363 18;
#X connect 388 0 363 19;
#X connect 389 0 363 20;
#X connect 390 0 363 12;
#X connect 391 0 363 11;
#X connect 392 0 363 21;
#X connect 393 0 363 1;
#X connect 394 0 403 3;
#X connect 395 0 403 7;
#X connect 396 0 403 6;
#X connect 397 0 403 23;
#X connect 398 0 403 25;
#X connect 399 0 403 26;
#X connect 400 0 403 5;
#X connect 401 0 473 0;
#X connect 402 0 403 4;
#X connect 403 0 214 0;
#X connect 404 0 403 27;
#X connect 405 0 403 2;
#X connect 406 0 403 8;
#X connect 407 0 403 9;
#X connect 408 0 403 22;
#X connect 409 0 403 24;
#X connect 410 0 403 28;
#X connect 411 0 403 29;
#X connect 412 0 403 30;
#X connect 413 0 403 31;
#X connect 414 0 403 32;
#X connect 415 0 403 33;
#X connect 416 0 403 34;
#X connect 417 0 403 35;
#X connect 418 0 403 36;
#X connect 420 0 403 0;
#X connect 421 0 403 10;
#X connect 422 0 403 13;
#X connect 423 0 403 14;
#X connect 424 0 403 15;
#X connect 425 0 403 16;
#X connect 426 0 403 17;
#X connect 427 0 403 18;
#X connect 428 0 403 19;
#X connect 429 0 403 20;
#X connect 430 0 403 12;
#X connect 431 0 403 11;
#X connect 432 0 403 21;
#X connect 433 0 442 3;
#X connect 434 0 442 7;
#X connect 435 0 442 6;
#X connect 436 0 442 23;
#X connect 437 0 442 25;
#X connect 438 0 442 26;
#X connect 439 0 442 5;
#X connect 440 0 472 0;
#X connect 441 0 442 4;
#X connect 442 0 215 0;
#X connect 443 0 442 27;
#X connect 444 0 442 2;
#X connect 445 0 442 8;
#X connect 446 0 442 9;
#X connect 447 0 442 22;
#X connect 448 0 442 24;
#X connect 449 0 442 28;
#X connect 450 0 442 29;
#X connect 451 0 442 30;
#X connect 452 0 442 31;
#X connect 453 0 442 32;
#X connect 454 0 442 33;
#X connect 455 0 442 34;
#X connect 456 0 442 35;
#X connect 457 0 442 36;
#X connect 459 0 442 0;
#X connect 460 0 442 10;
#X connect 461 0 442 13;
#X connect 462 0 442 14;
#X connect 463 0 442 15;
#X connect 464 0 442 16;
#X connect 465 0 442 17;
#X connect 466 0 442 18;
#X connect 467 0 442 19;
#X connect 468 0 442 20;
#X connect 469 0 442 12;
#X connect 470 0 442 11;
#X connect 471 0 442 21;
#X connect 472 0 442 1;
#X connect 473 0 403 1;
#X connect 475 0 290 0;
#X connect 477 0 111 0;
#X connect 480 0 499 0;
#X connect 486 0 485 0;
#X connect 488 0 491 0;
#X connect 490 0 489 0;
#X connect 491 0 490 0;
#X connect 491 1 494 0;
#X connect 492 0 490 0;
#X connect 493 0 496 0;
#X connect 494 0 492 0;
#X connect 495 0 494 1;
#X connect 496 0 495 0;
#X connect 498 0 486 1;
#X connect 499 0 478 0;
#X connect 499 1 479 0;
#X connect 499 2 483 0;
#X connect 499 3 482 0;
#X connect 499 4 481 0;
#X connect 499 5 487 0;
#X connect 499 6 486 0;
#X coords 0 -1 1 1 1270 130 2 100 100;
