#N canvas 361 139 1390 715 12;
#X obj 435 262 dac~ 1 2 3 4;
#X obj 1256 -65 loadbang;
#X msg 1256 -42 \; pd dsp 1;
#X obj 88 -111 quad_effects;
#X obj 500 -231 readsf~;
#X msg 57 -250 1;
#X msg 98 -249 0;
#X obj 713 -248 *~;
#X msg 160 -249 open ../satie.wav;
#X obj 885 -202 noise~;
#X msg 887 -238 0;
#X msg 840 -238 0.5;
#X connect 1 0 2 0;
#X connect 3 0 0 0;
#X connect 3 1 0 1;
#X connect 3 2 0 2;
#X connect 3 3 0 3;
#X connect 4 0 3 4;
#X connect 4 0 3 5;
#X connect 4 0 3 6;
#X connect 4 0 3 7;
#X connect 4 0 3 3;
#X connect 4 0 3 2;
#X connect 4 0 3 1;
#X connect 4 0 3 0;
#X connect 4 1 8 0;
#X connect 5 0 4 0;
#X connect 6 0 4 0;
#X connect 7 0 3 4;
#X connect 7 0 3 5;
#X connect 7 0 3 6;
#X connect 7 0 3 7;
#X connect 8 0 4 0;
#X connect 8 0 5 0;
#X connect 9 0 7 0;
#X connect 10 0 7 1;
#X connect 11 0 7 1;
#X coords 0 715 1 714 1010 150 0;
