#N canvas 69 81 1390 977 12;
#X declare -path ./quad_effects_abs;
#N canvas 374 192 1390 715 handle_presets 0;
#X obj 119 1066 tabwrite presets_\$0;
#X msg 433 556 \$1 1;
#X msg 433 533 \$1 0;
#X msg 433 579 \$1 2;
#X msg 433 602 \$1 3;
#X msg 433 625 \$1 4;
#X msg 433 648 \$1 5;
#X msg 433 671 \$1 6;
#X msg 433 694 \$1 7;
#X msg 433 717 \$1 8;
#X msg 433 740 \$1 9;
#X msg 433 763 \$1 10;
#X msg 433 785 \$1 11;
#X msg 433 807 \$1 12;
#X msg 433 829 \$1 13;
#X msg 433 851 \$1 14;
#X msg 433 873 \$1 15;
#X msg 433 895 \$1 16;
#X msg 433 917 \$1 17;
#X msg 433 939 \$1 18;
#X msg 433 961 \$1 19;
#X msg 433 983 \$1 20;
#X msg 433 1005 \$1 21;
#X msg 433 1027 \$1 22;
#X msg 433 1049 \$1 23;
#X msg 433 1071 \$1 24;
#X msg 433 1093 \$1 25;
#X msg 433 1115 \$1 26;
#X msg 433 1137 \$1 27;
#X msg 433 1159 \$1 28;
#X msg 433 1181 \$1 29;
#X msg 433 1203 \$1 30;
#X msg 433 1225 \$1 31;
#X msg 433 1247 \$1 32;
#X msg 433 1269 \$1 33;
#X msg 433 1291 \$1 34;
#X msg 433 1313 \$1 35;
#X msg 433 1335 \$1 36;
#X obj 474 531 r chorus_rate_\$0;
#X obj 474 577 r chorus_depth_\$0;
#X obj 474 554 r chorus_wide_\$0;
#X obj 472 829 r grains_texture_\$0;
#X obj 472 851 r grains_mode_\$0;
#X obj 472 873 r grains_constant_\$0;
#X obj 472 895 r grains_pos_\$0;
#X obj 472 917 r grains_fbk_\$0;
#X obj 472 1026 r grains_vol_\$0;
#X obj 472 939 r grains_density_\$0;
#X obj 472 962 r grains_size_\$0;
#X obj 472 984 r grains_reverb_\$0;
#X obj 471 1006 r grains_pitch_\$0;
#X obj 472 1115 r rev_vol_\$0;
#X obj 472 1049 r rev_liv_\$0;
#X obj 472 1071 r rev_lop_\$0;
#X obj 472 1093 r rev_frq_\$0;
#X obj 1050 768 s grains_preset_texture_\$0;
#X obj 1052 790 s grains_preset_mode_\$0;
#X obj 1053 810 s grains_preset_constant_\$0;
#X obj 1052 835 s grains_preset_pos_\$0;
#X obj 1053 858 s grains_preset_fbk_\$0;
#X obj 1052 980 s grains_preset_vol_\$0;
#X obj 1049 888 s grains_preset_density_\$0;
#X obj 1051 911 s grains_preset_size_\$0;
#X obj 1051 933 s grains_preset_reverb_\$0;
#X obj 1050 956 s grains_preset_pitch_\$0;
#X obj 1283 851 s rev_preset_vol_\$0;
#X obj 1280 781 s rev_preset_liv_\$0;
#X obj 1283 807 s rev_preset_lop_\$0;
#X obj 1283 827 s rev_preset_frq_\$0;
#X obj 473 649 r del_mono_\$0;
#X obj 473 671 r del_chain_\$0;
#X obj 473 693 r del_sync_\$0;
#X obj 473 715 r del_time_\$0;
#X obj 472 741 r del_feed_\$0;
#X obj 472 763 r del_diff_\$0;
#X obj 472 785 r del_filt_\$0;
#X obj 474 600 r chorus_vol_\$0;
#X obj 472 807 r del_vol_\$0;
#X obj 802 728 s chorus_preset_rate_\$0;
#X obj 805 748 s chorus_preset_wide_\$0;
#X obj 804 770 s chorus_preset_depth_\$0;
#X obj 806 794 s chorus_preset_vol_\$0;
#X obj 821 848 s del_preset_mono_\$0;
#X obj 821 871 s del_preset_chain_\$0;
#X obj 820 892 s del_preset_sync_\$0;
#X obj 821 914 s del_preset_time_\$0;
#X obj 826 938 s del_preset_feed_\$0;
#X obj 826 957 s del_preset_diff_\$0;
#X obj 824 980 s del_preset_filt_\$0;
#X obj 826 1001 s del_preset_vol_\$0;
#X obj 894 182 r load_\$0;
#X obj 279 185 r save_\$0;
#X obj 1043 603 r control_\$0;
#X obj 472 1138 r vol_glob_\$0;
#X obj 1285 872 s preset_vol_glob_\$0;
#X obj 697 1211 s control_rst_filter_\$0;
#X obj 723 1239 s control_rst_pitch_\$0;
#X obj -155 1792 s control_out_\$0;
#X obj 71 939 list;
#X obj 111 1030 unpack 0 0;
#X obj 713 1178 route 100 101 102;
#X obj 757 1267 s control_freeze_\$0;
#X obj 107 1284 r feedbk_delay_value_\$0;
#X obj 472 1247 r dry_vol_glob_\$0;
#X obj 1618 783 s preset_dry_vol_glob_\$0;
#X obj -196 1597 r feedbk_dry_db_\$0;
#X msg 433 1357 \$1 37;
#X msg 433 1379 \$1 38;
#X msg 433 1401 \$1 39;
#X msg 433 1423 \$1 40;
#X obj 1618 806 s ph_preset_phase_\$0;
#X obj 1618 872 s ph_preset_time_\$0;
#X obj 1618 894 s ph_preset_depth_\$0;
#X obj 1618 938 s ph_preset_fbk_\$0;
#X obj 1618 960 s ph_preset_delfbk_\$0;
#X obj 472 1269 r ph_phase_\$0;
#X obj 472 1335 r ph_time_\$0;
#X obj 472 1357 r ph_depth_\$0;
#X obj 472 1401 r ph_fbk_\$0;
#X obj 472 1423 r ph_delfbk_\$0;
#X obj 472 1445 r ph_ph_fl_\$0;
#X msg 433 1445 \$1 41;
#X obj 798 682 route 0 1 2 3 4 5 6 7 8 9 10 11 12 13 14 15 16 17 18 19 20 21 22 23 24 25 26 27 28 29 30 31 32 33 34 35 36 37 38 39 40 41, f 132;
#X obj 1618 983 s ph_preset_ph_fl_\$0;
#X obj 462 270 table presets_\$0 50;
#X obj 294 347 save_preset presets_\$0 42;
#X obj 346 281 r ID_\$0;
#X obj 903 288 r ID_\$0;
#X obj 851 354 load_preset presets_\$0;
#X obj 472 1160 r chain_\$0;
#X obj 1284 894 s preset_chain_\$0;
#X obj 404 320 r current_path_\$0;
#X obj 961 327 r current_path_\$0;
#X obj 472 1291 r ph_wave_\$0;
#X obj 1618 828 s ph_preset_wave_\$0;
#X obj 472 1313 r ph_timsprd_\$0;
#X obj 1618 850 s ph_preset_timsprd_\$0;
#X obj 476 1226 r ph_sync_\$0;
#X obj 472 1379 r ph_dw_\$0;
#X obj 1618 758 s ph_preset_sync_\$0;
#X obj 1618 916 s ph_preset_dw_\$0;
#X obj 473 627 r del_time_sprd_\$0;
#X obj 820 826 s del_preset_time_sprd_\$0;
#X obj -73 1768 list trim;
#X obj 202 1663 r fbk_ph_showtime_\$0;
#X obj 43 1367 list append 204;
#X obj 64 1393 list append 205;
#X obj 83 1417 list append 206;
#X obj 101 1445 list append 207;
#X obj 118 1478 list append 208;
#X text 298 1590 errors;
#X text 161 1362 delay1;
#X text 176 1391 delay2;
#X text 203 1419 delay3;
#X text 220 1439 delay4;
#X obj 101 1314 route 1 2 3 4 5 6 7 8 0;
#X obj 125 1504 list append 209;
#X obj 144 1530 list append 210;
#X obj 161 1563 list append 211;
#X text 229 1479 delay1;
#X text 244 1508 delay2;
#X text 271 1536 delay3;
#X text 288 1556 delay4;
#X obj 181 1590 list append 212;
#X obj -61 424 save_init presets_\$0 quad_effects_abs 42;
#X msg -39 318 0;
#X obj 1120 400 load_init presets_\$0 quad_effects_abs;
#X obj 1126 293 r load_init_\$0;
#X msg 1156 350 0;
#X obj 206 1689 route 0 1 2 3;
#X obj 204 1717 list append 230;
#X obj 203 1744 list append 231;
#X obj 203 1768 list append 232;
#X obj 203 1796 list append 233;
#X obj 538 1607 r fbk_bang_cycle_\$0;
#X obj 380 1677 t b b;
#X msg 380 1702 1;
#X obj 423 1678 del 50;
#X msg 423 1703 0;
#X obj 548 1643 route 0 1 2 3;
#X obj 507 1676 t b b;
#X msg 507 1701 1;
#X obj 550 1677 del 50;
#X msg 550 1702 0;
#X obj 620 1678 t b b;
#X msg 620 1703 1;
#X obj 663 1679 del 50;
#X msg 663 1704 0;
#X obj 734 1677 t b b;
#X msg 734 1702 1;
#X obj 777 1678 del 50;
#X msg 777 1703 0;
#X obj 379 1729 list append 220;
#X obj 505 1730 list append 221;
#X obj 614 1732 list append 222;
#X obj 733 1729 list append 223;
#X obj 432 1792 spigot;
#X obj 534 1781 r vumeter_\$0;
#X obj -169 1471 r fbk_ph_error_\$0;
#X msg -156 1517 \$1 240;
#X msg 646 1774 1;
#X msg -131 1442 \$1 241;
#X obj -181 1439 bng 20 250 50 0 empty empty empty 0 -10 0 12 #fcfcfc #000000 #000000;
#X obj -144 1396 r feedbk_del_err_\$0;
#X connect 1 0 98 0;
#X connect 2 0 98 0;
#X connect 3 0 98 0;
#X connect 4 0 98 0;
#X connect 5 0 98 0;
#X connect 6 0 98 0;
#X connect 7 0 98 0;
#X connect 8 0 98 0;
#X connect 9 0 98 0;
#X connect 10 0 98 0;
#X connect 11 0 98 0;
#X connect 12 0 98 0;
#X connect 13 0 98 0;
#X connect 14 0 98 0;
#X connect 15 0 98 0;
#X connect 16 0 98 0;
#X connect 17 0 98 0;
#X connect 18 0 98 0;
#X connect 19 0 98 0;
#X connect 20 0 98 0;
#X connect 21 0 98 0;
#X connect 22 0 98 0;
#X connect 23 0 98 0;
#X connect 24 0 98 0;
#X connect 25 0 98 0;
#X connect 26 0 98 0;
#X connect 27 0 98 0;
#X connect 28 0 98 0;
#X connect 29 0 98 0;
#X connect 30 0 98 0;
#X connect 31 0 98 0;
#X connect 32 0 98 0;
#X connect 33 0 98 0;
#X connect 34 0 98 0;
#X connect 35 0 98 0;
#X connect 36 0 98 0;
#X connect 37 0 98 0;
#X connect 38 0 2 0;
#X connect 39 0 3 0;
#X connect 40 0 1 0;
#X connect 41 0 14 0;
#X connect 42 0 15 0;
#X connect 43 0 16 0;
#X connect 44 0 17 0;
#X connect 45 0 18 0;
#X connect 46 0 23 0;
#X connect 47 0 19 0;
#X connect 48 0 20 0;
#X connect 49 0 21 0;
#X connect 50 0 22 0;
#X connect 51 0 27 0;
#X connect 52 0 24 0;
#X connect 53 0 25 0;
#X connect 54 0 26 0;
#X connect 69 0 6 0;
#X connect 70 0 7 0;
#X connect 71 0 8 0;
#X connect 72 0 9 0;
#X connect 73 0 10 0;
#X connect 74 0 11 0;
#X connect 75 0 12 0;
#X connect 76 0 4 0;
#X connect 77 0 13 0;
#X connect 90 0 128 0;
#X connect 91 0 125 0;
#X connect 92 0 122 0;
#X connect 93 0 28 0;
#X connect 98 0 99 0;
#X connect 98 0 97 0;
#X connect 99 0 0 0;
#X connect 99 1 0 1;
#X connect 100 0 95 0;
#X connect 100 1 96 0;
#X connect 100 2 101 0;
#X connect 102 0 155 0;
#X connect 103 0 33 0;
#X connect 105 0 97 0;
#X connect 106 0 98 0;
#X connect 107 0 98 0;
#X connect 108 0 98 0;
#X connect 109 0 98 0;
#X connect 115 0 34 0;
#X connect 116 0 37 0;
#X connect 117 0 106 0;
#X connect 118 0 108 0;
#X connect 119 0 109 0;
#X connect 120 0 121 0;
#X connect 121 0 98 0;
#X connect 122 0 78 0;
#X connect 122 1 79 0;
#X connect 122 2 80 0;
#X connect 122 3 81 0;
#X connect 122 4 142 0;
#X connect 122 5 82 0;
#X connect 122 6 83 0;
#X connect 122 7 84 0;
#X connect 122 8 85 0;
#X connect 122 9 86 0;
#X connect 122 10 87 0;
#X connect 122 11 88 0;
#X connect 122 12 89 0;
#X connect 122 13 55 0;
#X connect 122 14 56 0;
#X connect 122 15 57 0;
#X connect 122 16 58 0;
#X connect 122 17 59 0;
#X connect 122 18 61 0;
#X connect 122 19 62 0;
#X connect 122 20 63 0;
#X connect 122 21 64 0;
#X connect 122 22 60 0;
#X connect 122 23 66 0;
#X connect 122 24 67 0;
#X connect 122 25 68 0;
#X connect 122 26 65 0;
#X connect 122 27 94 0;
#X connect 122 28 130 0;
#X connect 122 31 139 0;
#X connect 122 32 104 0;
#X connect 122 33 110 0;
#X connect 122 34 134 0;
#X connect 122 35 136 0;
#X connect 122 36 111 0;
#X connect 122 37 112 0;
#X connect 122 38 140 0;
#X connect 122 39 113 0;
#X connect 122 40 114 0;
#X connect 122 41 123 0;
#X connect 122 42 100 0;
#X connect 126 0 125 1;
#X connect 127 0 128 1;
#X connect 128 0 122 0;
#X connect 129 0 29 0;
#X connect 131 0 125 2;
#X connect 132 0 128 2;
#X connect 133 0 35 0;
#X connect 135 0 36 0;
#X connect 137 0 32 0;
#X connect 138 0 107 0;
#X connect 141 0 5 0;
#X connect 143 0 97 0;
#X connect 144 0 169 0;
#X connect 145 0 143 0;
#X connect 146 0 143 0;
#X connect 147 0 143 0;
#X connect 148 0 143 0;
#X connect 149 0 143 0;
#X connect 155 0 145 0;
#X connect 155 1 146 0;
#X connect 155 2 147 0;
#X connect 155 3 148 0;
#X connect 155 4 149 0;
#X connect 155 5 156 0;
#X connect 155 6 157 0;
#X connect 155 7 158 0;
#X connect 155 8 163 0;
#X connect 156 0 143 0;
#X connect 157 0 143 0;
#X connect 158 0 143 0;
#X connect 163 0 143 0;
#X connect 165 0 164 0;
#X connect 166 0 122 0;
#X connect 167 0 166 0;
#X connect 168 0 166 0;
#X connect 169 0 170 0;
#X connect 169 1 171 0;
#X connect 169 2 172 0;
#X connect 169 3 173 0;
#X connect 170 0 196 0;
#X connect 171 0 196 0;
#X connect 172 0 196 0;
#X connect 173 0 196 0;
#X connect 174 0 179 0;
#X connect 175 0 176 0;
#X connect 175 1 177 0;
#X connect 176 0 192 0;
#X connect 177 0 178 0;
#X connect 178 0 192 0;
#X connect 179 0 175 0;
#X connect 179 1 180 0;
#X connect 179 2 184 0;
#X connect 179 3 188 0;
#X connect 180 0 181 0;
#X connect 180 1 182 0;
#X connect 181 0 193 0;
#X connect 182 0 183 0;
#X connect 183 0 193 0;
#X connect 184 0 185 0;
#X connect 184 1 186 0;
#X connect 185 0 194 0;
#X connect 186 0 187 0;
#X connect 187 0 194 0;
#X connect 188 0 189 0;
#X connect 188 1 190 0;
#X connect 189 0 195 0;
#X connect 190 0 191 0;
#X connect 191 0 195 0;
#X connect 192 0 196 0;
#X connect 193 0 196 0;
#X connect 194 0 196 0;
#X connect 195 0 196 0;
#X connect 196 0 143 0;
#X connect 197 0 196 1;
#X connect 198 0 199 0;
#X connect 199 0 97 0;
#X connect 200 0 196 1;
#X connect 201 0 97 0;
#X connect 203 0 201 0;
#X connect 203 0 202 0;
#X restore -1381 -491 pd handle_presets;
#X obj 662 109 quad_grains;
#X obj 24 -316 r chorus_preset_rate_\$0;
#X obj 50 -298 r chorus_preset_wide_\$0;
#X obj 79 -278 r chorus_preset_depth_\$0;
#X obj 360 -252 r del_preset_mono_\$0;
#X obj 383 -229 r del_preset_chain_\$0;
#X obj 452 -161 r del_preset_sync_\$0;
#X obj 431 -184 r del_preset_time_\$0;
#X obj 471 -139 r del_preset_feed_\$0;
#X obj 497 -119 r del_preset_diff_\$0;
#X obj 521 -97 r del_preset_filt_\$0;
#X obj 107 115 quad_chorus;
#X obj 383 109 quad_delay;
#X obj 932 110 quad_reverb;
#X obj 26 327 s chorus_rate_\$0;
#X obj 36 347 s chorus_wide_\$0;
#X obj 50 367 s chorus_depth_\$0;
#X obj 451 394 s del_mono_\$0;
#X obj 465 417 s del_chain_\$0;
#X obj 517 490 s del_sync_\$0;
#X obj 495 467 s del_time_\$0;
#X obj 540 515 s del_feed_\$0;
#X obj 557 537 s del_diff_\$0;
#X obj 572 560 s del_filt_\$0;
#X obj 894 549 s grains_texture_\$0;
#X obj 771 421 s grains_mode_\$0;
#X obj 873 525 s grains_constant_\$0;
#X obj 789 443 s grains_pos_\$0;
#X obj 937 593 s grains_fbk_\$0;
#X obj 955 614 s grains_vol_\$0;
#X obj 849 504 s grains_density_\$0;
#X obj 808 465 s grains_size_\$0;
#X obj 915 571 s grains_reverb_\$0;
#X obj 827 485 s grains_pitch_\$0;
#X obj 841 -123 r grains_preset_texture_\$0;
#X obj 698 -271 r grains_preset_mode_\$0;
#X obj 822 -146 r grains_preset_constant_\$0;
#X obj 714 -251 r grains_preset_pos_\$0;
#X obj 881 -80 r grains_preset_fbk_\$0;
#X obj 906 -59 r grains_preset_vol_\$0;
#X obj 800 -169 r grains_preset_density_\$0;
#X obj 742 -232 r grains_preset_size_\$0;
#X obj 862 -101 r grains_preset_reverb_\$0;
#X obj 766 -213 r grains_preset_pitch_\$0;
#X obj 1297 -1 r rev_preset_vol_\$0;
#X obj 1227 -74 r rev_preset_liv_\$0;
#X obj 1253 -48 r rev_preset_lop_\$0;
#X obj 1274 -26 r rev_preset_frq_\$0;
#X obj 1191 539 s rev_vol_\$0;
#X obj 1117 464 s rev_liv_\$0;
#X obj 1150 486 s rev_lop_\$0;
#X obj 1170 512 s rev_frq_\$0;
#X obj 98 -255 r chorus_preset_vol_\$0;
#X obj 70 386 s chorus_vol_\$0;
#X obj 565 -51 r del_preset_vol_\$0;
#X obj 595 585 s del_vol_\$0;
#X obj -589 -508 inlet~;
#X obj -412 -506 inlet~;
#X obj -269 -506 inlet~;
#X obj -140 -509 inlet~;
#X obj -1217 1059 outlet~;
#X obj -700 729 *~;
#X obj -1087 1056 outlet~;
#X obj -633 730 *~;
#X obj -946 1055 outlet~;
#X obj -572 730 *~;
#X obj -819 1057 outlet~;
#X obj -505 731 *~;
#X obj 391 302 s~ from_del1_\$0;
#X obj 401 312 s~ from_del2_\$0;
#X obj 411 322 s~ from_del3_\$0;
#X obj 421 332 s~ from_del4_\$0;
#X obj 653 301 s~ from_grains1_\$0;
#X obj 663 311 s~ from_grains2_\$0;
#X obj 673 321 s~ from_grains3_\$0;
#X obj 683 331 s~ from_grains4_\$0;
#X obj 941 297 s~ from_rev1_\$0;
#X obj 951 307 s~ from_rev2_\$0;
#X obj 971 327 s~ from_rev4_\$0;
#X obj 961 317 s~ from_rev3_\$0;
#X obj 396 41 r~ to_del1_\$0;
#X obj 406 51 r~ to_del2_\$0;
#X obj 416 61 r~ to_del3_\$0;
#X obj 426 71 r~ to_del4_\$0;
#X obj 701 23 r~ to_grains1_\$0;
#X obj 711 33 r~ to_grains2_\$0;
#X obj 721 43 r~ to_grains3_\$0;
#X obj 731 53 r~ to_grains4_\$0;
#X obj 1018 3 r~ to_rev1_\$0;
#X obj 1028 13 r~ to_rev2_\$0;
#X obj 1038 23 r~ to_rev3_\$0;
#X obj 1048 33 r~ to_rev4_\$0;
#X obj -433 -92 s~ to_del1_\$0;
#X obj -432 -61 s~ to_del2_\$0;
#X obj -432 -31 s~ to_del3_\$0;
#X obj -431 -2 s~ to_del4_\$0;
#X obj -321 -93 s~ to_grains1_\$0;
#X obj -320 -62 s~ to_grains2_\$0;
#X obj -320 -32 s~ to_grains3_\$0;
#X obj -319 -3 s~ to_grains4_\$0;
#X obj -186 -92 s~ to_rev1_\$0;
#X obj -186 -63 s~ to_rev2_\$0;
#X obj -187 -32 s~ to_rev3_\$0;
#X obj -187 -3 s~ to_rev4_\$0;
#X obj 1373 246 loadbang;
#X msg 1373 271 \; pd dsp 1;
#X obj -430 487 r~ from_rev4_\$0;
#X obj -308 389 r~ from_grains4_\$0;
#X obj -307 370 r~ from_del4_\$0;
#X obj -512 358 r~ from_del3_\$0;
#X obj -513 379 r~ from_grains3_\$0;
#X obj -567 484 r~ from_rev3_\$0;
#X obj -714 484 r~ from_rev2_\$0;
#X obj -680 385 r~ from_grains2_\$0;
#X obj -680 364 r~ from_del2_\$0;
#X obj -848 366 r~ from_del1_\$0;
#X obj -846 392 r~ from_grains1_\$0;
#X obj -859 481 r~ from_rev1_\$0;
#X obj -330 611 pack 0 10;
#X obj -330 636 line~;
#X obj -290 557 r vol_glob_\$0;
#X obj 1069 143 vsl 20 100 0 127 0 0 empty empty fx 0 -9 1 12 #000000 #ffffff #7c7c7c 0 1;
#X obj 1110 291 s vol_glob_\$0;
#X obj 1139 272 loadbang;
#X obj 1106 251 r preset_vol_glob_\$0;
#X obj 545 -73 r control_rst_filter_\$0;
#X obj 786 -192 r control_rst_pitch_\$0;
#X obj 614 609 s feedbk_delay_value_\$0;
#X obj 673 -295 r control_freeze_\$0;
#X obj -1261 198 *~;
#X obj -1218 198 *~;
#X obj -1169 198 *~;
#X obj -1128 197 *~;
#X obj 1042 142 vsl 20 100 0 127 0 0 empty empty dry 0 -9 1 12 #000000 #ffffff #7c7c7c 0 1;
#X obj 1221 93 loadbang;
#X obj 1182 73 r preset_dry_vol_glob_\$0;
#X obj 1183 113 s dry_vol_glob_\$0;
#X obj -1422 -26 r dry_vol_glob_\$0;
#X obj -1394 15 / 127;
#X obj -1394 40 pack 0 10;
#X obj -1394 65 line~;
#X obj -587 842 s feedbk_eff_db_\$0;
#X obj -1233 -503 inlet~;
#X obj -1070 -505 inlet~;
#X obj -927 -505 inlet~;
#X obj -780 -507 inlet~;
#X obj 80 424 s~ from_mod1_\$0;
#X obj 91 447 s~ from_mod2_\$0;
#X obj 116 472 s~ from_mod3_\$0;
#X obj 133 494 s~ from_mod4_\$0;
#X obj -849 342 r~ from_mod1_\$0;
#X obj -679 342 r~ from_mod2_\$0;
#X obj -510 337 r~ from_mod3_\$0;
#X obj -307 349 r~ from_mod4_\$0;
#X obj 150 -232 r ph_preset_phase_\$0;
#X obj 200 -173 r ph_preset_time_\$0;
#X obj 244 -125 r ph_preset_depth_\$0;
#X obj 279 -85 r ph_preset_fbk_\$0;
#X obj 294 -66 r ph_preset_delfbk_\$0;
#X obj 203 401 s ph_phase_\$0;
#X obj 253 460 s ph_time_\$0;
#X obj 290 501 s ph_depth_\$0;
#X obj 325 543 s ph_fbk_\$0;
#X obj 345 564 s ph_delfbk_\$0;
#X obj 313 -43 r ph_preset_ph_fl_\$0;
#X obj 358 587 s ph_ph_fl_\$0;
#X obj -2017 -394 s bang_\$0;
#X obj -1946 -394 s rst_\$0;
#X obj -1967 -481 inlet;
#X obj -1741 -392 s save_\$0;
#X obj -1817 -391 s load_\$0;
#X obj -1877 -392 s ID_\$0;
#X text -1970 -506 internal_in;
#X obj -1643 -322 s control_\$0;
#X obj -1656 -355 route name;
#X obj -1695 -419 s osc_name_\$0;
#X obj 347 -1 r rst_\$0;
#X obj 331 -22 r bang_\$0;
#X obj -1599 -384 r osc_name_\$0;
#X obj -730 620 *~;
#X obj -629 623 *~;
#X obj -532 626 *~;
#X obj -418 628 *~;
#X obj -587 534 r chain_\$0;
#X obj -587 562 == 0;
#X obj 187 109 quad_phaser_flanger;
#X obj -1585 -418 s current_path_\$0;
#X obj 72 -1 r~ to_mod1_\$0;
#X obj 89 22 r~ to_mod2_\$0;
#X obj 106 45 r~ to_mod3_\$0;
#X obj 124 66 r~ to_mod4_\$0;
#X obj -586 -140 s~ to_mod1_\$0;
#X obj -585 -109 s~ to_mod2_\$0;
#X obj -585 -79 s~ to_mod3_\$0;
#X obj -584 -50 s~ to_mod4_\$0;
#X obj 318 60 *~;
#X obj 328 60 *~;
#X obj 340 60 *~;
#X obj 352 60 *~;
#X obj 308 29 r chain_\$0;
#X obj 619 62 *~;
#X obj 629 62 *~;
#X obj 641 62 *~;
#X obj 653 62 *~;
#X obj 626 18 r chain_\$0;
#X obj 905 49 *~;
#X obj 915 49 *~;
#X obj 927 49 *~;
#X obj 939 49 *~;
#X obj 900 22 r chain_\$0;
#X obj 1057 397 s chain_\$0;
#X obj 1057 376 r preset_chain_\$0;
#X obj 1043 105 tgl 20 0 empty empty chain 25 10 1 12 #fcfcfc #000000 #000000 0 1;
#X obj -439 -139 *~;
#X obj -411 -139 *~;
#X obj -386 -139 *~;
#X obj -360 -138 *~;
#X obj -314 -139 *~;
#X obj -288 -139 *~;
#X obj -263 -139 *~;
#X obj -237 -138 *~;
#X obj -186 -139 *~;
#X obj -160 -139 *~;
#X obj -135 -139 *~;
#X obj -109 -139 *~;
#X obj -87 -295 == 0;
#X obj -86 -323 r chain_\$0;
#X obj 593 -28 r bang_\$0;
#X obj 165 -213 r ph_preset_wave_\$0;
#X obj 218 420 s ph_wave_\$0;
#X obj 185 -192 r ph_preset_timsprd_\$0;
#X obj 238 441 s ph_timsprd_\$0;
#X obj 222 -149 r ph_preset_sync_\$0;
#X obj 272 480 s ph_sync_\$0;
#X obj 379 608 s fbk_ph_showtime_\$0;
#X obj 308 521 s ph_dw_\$0;
#X obj 259 -106 r ph_preset_dw_\$0;
#X obj 407 -209 r del_preset_time_sprd_\$0;
#X obj 483 442 s del_time_sprd_\$0;
#X obj -629 896 r control_out_\$0;
#X obj -710 1056 outlet;
#X obj -670 1021 oscformat;
#X obj -667 943 list split 1;
#X obj -637 989 list trim;
#X obj -543 942 r osc_name_\$0;
#X obj -637 967 list prepend;
#X obj -543 987 list trim;
#X obj -543 965 list prepend set;
#X text -1083 196 dry signal;
#X obj -330 586 / 17;
#X obj 1088 419 loadbang;
#X msg 1057 418 1;
#X obj -1380 -468 declare -path ./quad_effects_abs;
#X obj -1492 -384 s load_init_\$0;
#X obj -1966 -455 route bang_bpm rst instance_id load save osc_name osc current_path init vumeter, f 80;
#X obj -1454 -418 s vumeter_\$0;
#X obj -708 804 vumeter, f 17;
#X obj -540 811 r vumeter_\$0;
#X obj 420 657 s fbk_bang_cycle_\$0;
#X msg 1190 91 0;
#X msg 1108 271 127;
#X obj 12 59 o;
#X obj 631 634 s feedbk_del_err_\$0;
#X obj 401 630 s fbk_ph_error_\$0;
#X connect 1 0 73 0;
#X connect 1 0 206 0;
#X connect 1 1 74 0;
#X connect 1 1 207 0;
#X connect 1 2 75 0;
#X connect 1 2 208 0;
#X connect 1 3 76 0;
#X connect 1 3 209 0;
#X connect 1 4 26 0;
#X connect 1 5 28 0;
#X connect 1 6 32 0;
#X connect 1 7 34 0;
#X connect 1 8 31 0;
#X connect 1 9 27 0;
#X connect 1 10 25 0;
#X connect 1 11 33 0;
#X connect 1 12 29 0;
#X connect 1 13 30 0;
#X connect 2 0 12 4;
#X connect 3 0 12 5;
#X connect 4 0 12 6;
#X connect 5 0 13 4;
#X connect 6 0 13 5;
#X connect 7 0 13 8;
#X connect 8 0 13 7;
#X connect 9 0 13 9;
#X connect 10 0 13 10;
#X connect 11 0 13 11;
#X connect 12 0 186 0;
#X connect 12 1 186 1;
#X connect 12 2 186 2;
#X connect 12 3 186 3;
#X connect 12 4 15 0;
#X connect 12 5 16 0;
#X connect 12 6 17 0;
#X connect 12 7 54 0;
#X connect 13 0 69 0;
#X connect 13 0 201 0;
#X connect 13 1 70 0;
#X connect 13 1 202 0;
#X connect 13 2 71 0;
#X connect 13 2 203 0;
#X connect 13 3 72 0;
#X connect 13 3 204 0;
#X connect 13 4 18 0;
#X connect 13 5 19 0;
#X connect 13 6 239 0;
#X connect 13 7 21 0;
#X connect 13 8 20 0;
#X connect 13 9 22 0;
#X connect 13 10 23 0;
#X connect 13 11 24 0;
#X connect 13 12 56 0;
#X connect 13 13 128 0;
#X connect 13 14 263 0;
#X connect 14 0 77 0;
#X connect 14 1 78 0;
#X connect 14 2 80 0;
#X connect 14 3 79 0;
#X connect 14 4 50 0;
#X connect 14 5 51 0;
#X connect 14 6 52 0;
#X connect 14 7 49 0;
#X connect 35 0 1 12;
#X connect 36 0 1 5;
#X connect 37 0 1 11;
#X connect 38 0 1 6;
#X connect 39 0 1 14;
#X connect 40 0 1 15;
#X connect 41 0 1 10;
#X connect 42 0 1 7;
#X connect 43 0 1 13;
#X connect 44 0 1 8;
#X connect 45 0 14 7;
#X connect 46 0 14 4;
#X connect 47 0 14 5;
#X connect 48 0 14 6;
#X connect 53 0 12 7;
#X connect 55 0 13 13;
#X connect 57 0 192 0;
#X connect 57 0 214 0;
#X connect 57 0 218 0;
#X connect 57 0 222 0;
#X connect 58 0 193 0;
#X connect 58 0 215 0;
#X connect 58 0 219 0;
#X connect 58 0 223 0;
#X connect 59 0 194 0;
#X connect 59 0 216 0;
#X connect 59 0 224 0;
#X connect 59 0 220 0;
#X connect 60 0 195 0;
#X connect 60 0 217 0;
#X connect 60 0 221 0;
#X connect 60 0 225 0;
#X connect 62 0 257 0;
#X connect 64 0 257 1;
#X connect 66 0 257 2;
#X connect 68 0 257 3;
#X connect 81 0 13 0;
#X connect 82 0 13 1;
#X connect 83 0 13 2;
#X connect 84 0 13 3;
#X connect 85 0 1 0;
#X connect 86 0 1 1;
#X connect 87 0 1 2;
#X connect 88 0 1 3;
#X connect 89 0 14 0;
#X connect 90 0 14 1;
#X connect 91 0 14 2;
#X connect 92 0 14 3;
#X connect 105 0 106 0;
#X connect 107 0 68 0;
#X connect 108 0 183 0;
#X connect 109 0 183 0;
#X connect 110 0 182 0;
#X connect 111 0 182 0;
#X connect 112 0 66 0;
#X connect 113 0 64 0;
#X connect 114 0 181 0;
#X connect 115 0 181 0;
#X connect 116 0 180 0;
#X connect 117 0 180 0;
#X connect 118 0 62 0;
#X connect 119 0 120 0;
#X connect 120 0 68 1;
#X connect 120 0 66 1;
#X connect 120 0 64 1;
#X connect 120 0 62 1;
#X connect 121 0 250 0;
#X connect 122 0 123 0;
#X connect 124 0 261 0;
#X connect 125 0 122 0;
#X connect 126 0 13 12;
#X connect 127 0 1 9;
#X connect 129 0 1 4;
#X connect 130 0 61 0;
#X connect 131 0 63 0;
#X connect 132 0 65 0;
#X connect 133 0 67 0;
#X connect 134 0 137 0;
#X connect 135 0 260 0;
#X connect 136 0 134 0;
#X connect 138 0 139 0;
#X connect 139 0 140 0;
#X connect 140 0 141 0;
#X connect 141 0 130 1;
#X connect 141 0 131 1;
#X connect 141 0 132 1;
#X connect 141 0 133 1;
#X connect 143 0 130 0;
#X connect 144 0 131 0;
#X connect 145 0 132 0;
#X connect 146 0 133 0;
#X connect 151 0 180 0;
#X connect 152 0 181 0;
#X connect 153 0 182 0;
#X connect 154 0 183 0;
#X connect 155 0 186 4;
#X connect 156 0 186 7;
#X connect 157 0 186 9;
#X connect 158 0 186 11;
#X connect 159 0 186 12;
#X connect 165 0 186 13;
#X connect 169 0 255 0;
#X connect 175 0 174 0;
#X connect 177 0 186 15;
#X connect 178 0 186 14;
#X connect 179 0 175 1;
#X connect 180 0 62 0;
#X connect 181 0 64 0;
#X connect 182 0 66 0;
#X connect 183 0 68 0;
#X connect 184 0 185 0;
#X connect 185 0 180 1;
#X connect 185 0 181 1;
#X connect 185 0 182 1;
#X connect 185 0 183 1;
#X connect 186 0 147 0;
#X connect 186 0 196 0;
#X connect 186 1 148 0;
#X connect 186 1 197 0;
#X connect 186 2 149 0;
#X connect 186 2 198 0;
#X connect 186 3 150 0;
#X connect 186 3 199 0;
#X connect 186 4 160 0;
#X connect 186 5 230 0;
#X connect 186 6 232 0;
#X connect 186 7 161 0;
#X connect 186 8 234 0;
#X connect 186 9 162 0;
#X connect 186 10 236 0;
#X connect 186 11 163 0;
#X connect 186 12 164 0;
#X connect 186 13 166 0;
#X connect 186 14 235 0;
#X connect 186 15 264 0;
#X connect 186 16 259 0;
#X connect 188 0 12 0;
#X connect 189 0 12 1;
#X connect 190 0 12 2;
#X connect 191 0 12 3;
#X connect 196 0 13 0;
#X connect 197 0 13 1;
#X connect 198 0 13 2;
#X connect 199 0 13 3;
#X connect 200 0 196 1;
#X connect 200 0 197 1;
#X connect 200 0 199 1;
#X connect 200 0 198 1;
#X connect 201 0 1 0;
#X connect 202 0 1 1;
#X connect 203 0 1 2;
#X connect 204 0 1 3;
#X connect 205 0 201 1;
#X connect 205 0 202 1;
#X connect 205 0 204 1;
#X connect 205 0 203 1;
#X connect 206 0 14 0;
#X connect 207 0 14 1;
#X connect 208 0 14 2;
#X connect 209 0 14 3;
#X connect 210 0 206 1;
#X connect 210 0 207 1;
#X connect 210 0 209 1;
#X connect 210 0 208 1;
#X connect 212 0 213 0;
#X connect 213 0 211 0;
#X connect 214 0 93 0;
#X connect 215 0 94 0;
#X connect 216 0 95 0;
#X connect 217 0 96 0;
#X connect 218 0 97 0;
#X connect 219 0 98 0;
#X connect 220 0 99 0;
#X connect 221 0 100 0;
#X connect 222 0 101 0;
#X connect 223 0 102 0;
#X connect 224 0 103 0;
#X connect 225 0 104 0;
#X connect 226 0 214 1;
#X connect 226 0 215 1;
#X connect 226 0 217 1;
#X connect 226 0 216 1;
#X connect 226 0 221 1;
#X connect 226 0 220 1;
#X connect 226 0 219 1;
#X connect 226 0 218 1;
#X connect 226 0 222 1;
#X connect 226 0 223 1;
#X connect 226 0 224 1;
#X connect 226 0 225 1;
#X connect 227 0 226 0;
#X connect 228 0 13 14;
#X connect 229 0 186 5;
#X connect 231 0 186 6;
#X connect 233 0 186 8;
#X connect 237 0 186 10;
#X connect 238 0 13 6;
#X connect 240 0 243 0;
#X connect 242 0 241 0;
#X connect 243 0 242 0;
#X connect 243 1 246 0;
#X connect 244 0 242 0;
#X connect 245 0 248 0;
#X connect 246 0 244 0;
#X connect 247 0 246 1;
#X connect 248 0 247 0;
#X connect 250 0 119 0;
#X connect 251 0 252 0;
#X connect 252 0 213 0;
#X connect 255 0 167 0;
#X connect 255 1 168 0;
#X connect 255 2 172 0;
#X connect 255 3 171 0;
#X connect 255 4 170 0;
#X connect 255 5 176 0;
#X connect 255 6 175 0;
#X connect 255 7 187 0;
#X connect 255 8 254 0;
#X connect 255 9 256 0;
#X connect 257 0 61 0;
#X connect 257 1 63 0;
#X connect 257 2 65 0;
#X connect 257 3 67 0;
#X connect 257 4 142 0;
#X connect 258 0 257 4;
#X connect 260 0 134 0;
#X connect 261 0 122 0;
#X connect 262 0 12 0;
#X connect 262 0 12 1;
#X connect 262 0 12 2;
#X connect 262 0 12 3;
#X coords 0 -1 1 1 1000 150 2 100 100;
