#N canvas 361 139 1390 715 12;
#X obj 435 262 dac~ 1 2 3 4;
#X obj 1256 -65 loadbang;
#X msg 1256 -42 \; pd dsp 1;
#X obj 88 -111 quad_effects;
#X obj 1040 184 stdout;
#X obj 196 -351 adc~ 1 2 3 4 5 6 7 8;
#X obj 30 -282 r sub1;
#X connect 1 0 2 0;
#X connect 3 0 0 0;
#X connect 3 1 0 1;
#X connect 3 2 0 2;
#X connect 3 3 0 3;
#X connect 3 4 4 0;
#X connect 5 0 3 1;
#X connect 5 1 3 2;
#X connect 5 2 3 3;
#X connect 5 3 3 4;
#X connect 5 4 3 5;
#X connect 5 5 3 6;
#X connect 5 6 3 7;
#X connect 5 7 3 8;
#X connect 6 0 3 0;
#X coords 0 715 1 714 1010 150 0;
