#N canvas 2011 61 1390 788 12;
#X obj 371 592 dac~ 1 2 3 4;
#X obj 58 260 phase_looper;
#X obj 277 137 adc~ 1;
#X text 257 113 signal_in;
#X obj 1285 438 loadbang;
#X msg 1285 461 \; pd dsp 1;
#X obj 54 127 r sub1;
#X obj 774 586 stdout;
#X connect 1 0 0 0;
#X connect 1 1 0 1;
#X connect 1 2 0 2;
#X connect 1 3 0 3;
#X connect 1 4 7 0;
#X connect 2 0 1 1;
#X connect 4 0 5 0;
#X connect 6 0 1 0;
#X coords 0 788 1 787 1010 150 0;
