#N canvas 52 20 1854 977 12;
#X declare -path ../quad_effects;
#X obj 152 -11 drum_machine;
#X obj 1252 431 declare -path ../quad_effects;
#X obj 499 988 dac~ 1 2 3 4;
#X obj 214 -151 r sub1;
#X obj 1625 728 r sub2;
#X obj 1596 974 stdout;
#X obj 338 792 quad_effects;
#X obj 294 -140 loadbang;
#X msg 294 -114 \; pd dsp 1;
#X connect 0 0 6 0;
#X connect 0 1 6 1;
#X connect 0 2 6 2;
#X connect 0 3 6 3;
#X connect 0 4 6 4;
#X connect 0 5 6 5;
#X connect 0 6 6 6;
#X connect 0 7 6 7;
#X connect 0 8 5 0;
#X connect 3 0 0 0;
#X connect 4 0 6 8;
#X connect 6 0 2 0;
#X connect 6 1 2 1;
#X connect 6 2 2 2;
#X connect 6 3 2 3;
#X connect 6 4 5 0;
#X connect 7 0 8 0;
#X coords 0 977 1 976 1190 720 0;
