#N canvas 278 76 1397 872 12;
#X obj 1 802 dac~ 1 2 3 4;
#X obj 1211 76 loadbang;
#X msg 1210 98 \; pd dsp 1;
#X obj 35 84 fm_synth;
#X obj 1121 770 stdout;
#X obj 43 -7 r sub1;
#X obj 5 327 r sub2;
#X obj 47 470 quad_effects;
#X connect 1 0 2 0;
#X connect 3 0 7 1;
#X connect 3 0 7 5;
#X connect 3 1 7 2;
#X connect 3 1 7 6;
#X connect 3 2 7 3;
#X connect 3 2 7 7;
#X connect 3 3 7 4;
#X connect 3 3 7 8;
#X connect 3 4 4 0;
#X connect 5 0 3 0;
#X connect 6 0 7 0;
#X connect 7 0 0 0;
#X connect 7 1 0 1;
#X connect 7 2 0 2;
#X connect 7 3 0 3;
#X connect 7 4 4 0;
#X coords 0 872 1 871 1015 155 0;
