#N canvas 151 119 1141 718 12;
#X obj 684 188 loadbang;
#X floatatom 601 394 5 0 27 0 - - - 0;
#X obj 702 362 i;
#X obj 561 364 i;
#X obj 672 363 + 1;
#X obj 593 364 - 1;
#X obj 563 319 bng 18 250 50 0 empty empty empty 0 -9 0 10 #fcfcfc #000000 #000000;
#X obj 599 319 bng 18 250 50 0 empty empty empty 0 -9 0 10 #fcfcfc #000000 #000000;
#X obj 700 233 f \$1;
#X obj 509 78 inlet;
#X obj 608 82 inlet;
#X obj 588 578 outlet;
#X floatatom 630 467 5 0 0 0 - - - 0;
#X obj 505 365 max \$2;
#X obj 622 363 min \$3;
#X text 806 85 arguments \; 1- Init value \; 2- min value 3- max value;
#X obj 700 81 inlet;
#X obj 700 106 bng 20 250 50 0 empty empty empty 0 -10 0 12 #fcfcfc #000000 #000000;
#X text 520 43 value+;
#X text 621 48 value-;
#X text 698 50 get_current_value;
#X connect 0 0 8 0;
#X connect 1 0 2 1;
#X connect 1 0 3 1;
#X connect 1 0 11 0;
#X connect 1 0 12 0;
#X connect 2 0 4 0;
#X connect 3 0 5 0;
#X connect 4 0 14 0;
#X connect 5 0 13 0;
#X connect 6 0 3 0;
#X connect 7 0 2 0;
#X connect 8 0 1 0;
#X connect 9 0 6 0;
#X connect 10 0 7 0;
#X connect 13 0 1 0;
#X connect 14 0 1 0;
#X connect 16 0 17 0;
#X connect 17 0 1 0;
