#N canvas -8 -8 1366 725 12;
#X obj 270 306 fx_rev_del~;
#X obj 104 28 inlet~;
#X obj 465 2 inlet~;
#X obj 465 26 clip~ 0 1000;
#X obj 465 50 s~ ms_in_step_\$0;
#X obj 468 253 r~ ms_in_step_\$0;
#X obj 599 463 r~ ms_in_step_\$0;
#X obj 667 279 sig~;
#X obj 250 3 inlet;
#X obj 250 27 clip 0 1;
#X obj 250 51 int;
#X obj 250 75 s on_\$0;
#X obj 667 226 r on_\$0;
#X obj 334 1 inlet~;
#X obj 334 49 s~ delay_step_\$0;
#X obj 336 266 r~ delay_step_\$0;
#X obj 489 419 r~ delay_step_\$0;
#X obj 489 443 *~ 2;
#X obj 382 385 r on_\$0;
#X obj 238 687 outlet~;
#X obj 104 52 s~ audio_input_\$0;
#X obj 162 267 r~ audio_input_\$0;
#X text 126 119 on;
#X text 119 141 0 \, 1;
#X text 346 119 ms_in_step~;
#X text 359 141 0-1000;
#X text 247 140 0 16;
#X obj 334 25 clip~ 0 16;
#X text 199 120 steps_to_scratch~;
#X obj 767 283 bng 15 250 50 0 empty empty empty 17 7 0 10 #fcfcfc #000000 #000000;
#X obj 821 526 del;
#X obj 821 502 snapshot~;
#X obj 382 409 sel 0 1;
#X msg 382 485 0;
#X obj 853 406 r~ delay_step_\$0;
#X obj 979 447 r~ ms_in_step_\$0;
#X obj 853 465 *~;
#X msg 821 550 1;
#X obj 382 509 t f b;
#X msg 418 541 stop;
#X obj 821 469 bng 15 250 50 0 empty empty empty 17 7 0 10 #fcfcfc #000000 #000000;
#X obj 853 430 *~ 2;
#X obj 568 282 sig~ 0;
#X text 445 117 reset_phase~;
#X obj 643 9 inlet;
#X obj 643 33 s reset_phase_\$0;
#X obj 765 256 r reset_phase_\$0;
#X obj 21 -7 loadbang;
#X msg 22 20 0;
#X text 877 527 start loop after scratch cycle;
#X obj 272 602 fx_loop~;
#X connect 0 0 50 0;
#X connect 1 0 20 0;
#X connect 2 0 3 0;
#X connect 3 0 4 0;
#X connect 5 0 0 2;
#X connect 6 0 50 3;
#X connect 7 0 0 4;
#X connect 8 0 9 0;
#X connect 9 0 10 0;
#X connect 10 0 11 0;
#X connect 12 0 7 0;
#X connect 13 0 27 0;
#X connect 15 0 0 1;
#X connect 16 0 17 0;
#X connect 17 0 50 2;
#X connect 18 0 32 0;
#X connect 21 0 0 0;
#X connect 27 0 14 0;
#X connect 29 0 0 5;
#X connect 30 0 37 0;
#X connect 31 0 30 0;
#X connect 32 0 33 0;
#X connect 32 1 40 0;
#X connect 33 0 38 0;
#X connect 34 0 41 0;
#X connect 35 0 36 1;
#X connect 36 0 31 0;
#X connect 37 0 50 1;
#X connect 38 0 50 1;
#X connect 38 1 39 0;
#X connect 39 0 30 0;
#X connect 40 0 31 0;
#X connect 41 0 36 0;
#X connect 42 0 0 3;
#X connect 44 0 45 0;
#X connect 46 0 29 0;
#X connect 47 0 48 0;
#X connect 48 0 9 0;
#X connect 50 0 19 0;
#X coords 0 -1 1 1 448 63 1 100 100;
