#N canvas 162 325 1127 694 10;
#X obj 0 0 cnv 18 110 110 empty empty empty 20 12 0 10 #e0e0e0 #404040 0;
#X obj 136 -98 inlet~;
#X obj 152 548 outlet~;
#N canvas 599 49 1150 805 delay1 1;
#X obj 285 -102 inlet~;
#X obj 377 -99 inlet;
#X obj 376 540 outlet~;
#X obj 440 433 *~;
#X obj 504 -101 inlet;
#X obj 529 38 / 127;
#X obj 529 109 pack 0 50;
#X obj 529 132 line;
#X obj 153 509 delwrite~ \$0-dly1 2000;
#X obj 368 -19 / 127;
#X obj 724 -99 inlet;
#X text 718 -124 width;
#X text 613 -124 speed;
#X obj 1038 187 pack 0 10;
#X obj 1038 210 line~;
#X obj 1058 88 / 127;
#X obj 377 301 line~;
#X obj 1128 -74 vsl 18 153 0 127 0 0 empty empty empty 0 -9 0 10 #fcfcfc #000000 #000000 0 1;
#X obj 469 -16 vsl 18 153 0 127 0 0 empty empty empty 0 -9 0 10 #fcfcfc #000000 #000000 0 1;
#X obj 634 448 *~;
#X obj 381 328 +~;
#X obj 636 365 osc~;
#X obj 633 390 +~ 1;
#X obj 376 365 delread4~ \$0-dly1;
#X obj 648 -72 vsl 18 153 0 127 0 0 empty empty empty 0 -9 0 10 #fcfcfc #000000 #000000 0 1;
#X obj 628 168 / 127, f 9;
#X obj 610 -98 inlet;
#X obj 826 -102 inlet;
#X obj 887 15 hradio 18 1 0 6 empty empty empty 0 -9 0 10 #fcfcfc #000000 #000000 0;
#X text 831 -124 type;
#X text 956 -144 0 simple delay;
#X text 283 -124 signal;
#X text 375 -124 delay;
#X text 487 -124 fbk;
#X obj 977 -44 loadbang;
#X msg 977 -21 0;
#X obj 1121 178 loadbang;
#X msg 1121 201 0;
#X obj 693 -7 loadbang;
#X msg 693 16 0;
#X obj 540 -10 loadbang;
#X msg 540 13 0;
#X obj 384 -66 loadbang;
#X msg 384 -43 0;
#X obj 627 198 * 0;
#X obj 628 229 +;
#X floatatom 768 245 5 0 0 0 - - - 0;
#X obj 768 180 t b b b;
#X obj 813 159 t b b b;
#X obj 843 137 t b b b;
#X obj 874 115 t b b b;
#X obj 905 91 t b b b;
#X msg 805 206 0;
#X msg 820 227 0;
#X msg 848 203 0;
#X obj 528 77 min 0.9;
#X obj 377 277 pack 0 50;
#X obj 374 107 t b f;
#X obj 376 66 r deltim_\$0;
#X obj 765 479 s deltim_\$0;
#X msg 800 451 40;
#X obj 770 578 s mindel_\$0;
#X msg 768 545 100;
#X obj 369 245 +;
#X obj 414 174 r mindel_\$0;
#X obj 360 133 *;
#X floatatom 427 301 5 0 0 0 - - - 0;
#X msg 764 450 1899;
#X msg 798 544 1;
#X obj 391 204 t b f;
#X obj 757 515 del 10;
#X obj 808 515 del 10;
#X obj 833 56 sel 0 1 2 3 4 5;
#X obj 948 69 t b b b;
#X msg 968 92 4000;
#X msg 983 113 444;
#X msg 940 135 44;
#X msg 925 114 400;
#X msg 909 159 4;
#X msg 896 139 40;
#X msg 878 182 0;
#X msg 863 160 4;
#X msg 833 182 0;
#X text 956 -129 1 simple flanger with link;
#X text 955 -113 2 flanger without link;
#X text 949 -99 >2 fm;
#X obj 701 259 t b f;
#X msg 699 288 1;
#X obj 703 315 /;
#X obj 692 339 spigot;
#X obj 632 322 spigot;
#X obj 781 300 r linkon_\$0;
#X obj 657 284 == 0;
#X obj 969 362 s linkon_\$0;
#X obj 963 320 tgl 18 0 empty empty empty 0 -9 0 10 #fcfcfc #000000 #000000 0 1;
#X floatatom 643 256 5 0 0 0 - - - 0;
#X obj 633 414 *~ 0.5;
#X text 1063 252 width: 0-10ms;
#X obj 1037 165 * 20;
#X floatatom 698 380 5 0 0 0 - - - 0;
#X msg 870 446 0;
#X obj 795 391 sel 0 1 2 3 4 5;
#X msg 866 477 1;
#X obj 1010 342 sel 1;
#X obj 1022 66 f;
#X obj 1061 374 bng 18 250 50 0 empty empty empty 0 -9 0 10 #fcfcfc #000000 #000000;
#X obj 614 117 f;
#X connect 0 0 8 0;
#X connect 1 0 9 0;
#X connect 3 0 8 0;
#X connect 4 0 5 0;
#X connect 5 0 55 0;
#X connect 6 0 7 0;
#X connect 7 0 3 1;
#X connect 9 0 65 0;
#X connect 10 0 104 0;
#X connect 13 0 14 0;
#X connect 14 0 19 1;
#X connect 15 0 98 0;
#X connect 16 0 20 0;
#X connect 17 0 104 0;
#X connect 18 0 9 0;
#X connect 19 0 20 1;
#X connect 20 0 23 0;
#X connect 21 0 22 0;
#X connect 22 0 96 0;
#X connect 23 0 2 0;
#X connect 23 0 3 0;
#X connect 24 0 106 0;
#X connect 25 0 44 0;
#X connect 26 0 106 0;
#X connect 27 0 28 0;
#X connect 28 0 72 0;
#X connect 28 0 101 0;
#X connect 34 0 35 0;
#X connect 35 0 28 0;
#X connect 36 0 37 0;
#X connect 37 0 15 0;
#X connect 38 0 39 0;
#X connect 39 0 106 0;
#X connect 40 0 41 0;
#X connect 41 0 5 0;
#X connect 42 0 43 0;
#X connect 43 0 9 0;
#X connect 44 0 45 0;
#X connect 45 0 46 0;
#X connect 45 0 90 0;
#X connect 45 0 95 0;
#X connect 47 0 25 0;
#X connect 47 1 52 0;
#X connect 47 2 53 0;
#X connect 48 0 25 0;
#X connect 48 1 82 0;
#X connect 48 2 54 0;
#X connect 49 0 25 0;
#X connect 49 1 81 0;
#X connect 49 2 80 0;
#X connect 50 0 25 0;
#X connect 50 1 79 0;
#X connect 50 2 78 0;
#X connect 51 0 25 0;
#X connect 51 1 77 0;
#X connect 51 2 76 0;
#X connect 52 0 44 1;
#X connect 53 0 45 1;
#X connect 54 0 45 1;
#X connect 55 0 6 0;
#X connect 56 0 16 0;
#X connect 57 0 65 0;
#X connect 57 1 65 1;
#X connect 58 0 57 0;
#X connect 60 0 59 0;
#X connect 62 0 61 0;
#X connect 63 0 56 0;
#X connect 63 0 66 0;
#X connect 64 0 69 0;
#X connect 65 0 63 0;
#X connect 67 0 59 0;
#X connect 68 0 61 0;
#X connect 69 0 63 0;
#X connect 69 1 63 1;
#X connect 70 0 62 0;
#X connect 71 0 68 0;
#X connect 72 0 47 0;
#X connect 72 1 48 0;
#X connect 72 2 49 0;
#X connect 72 3 50 0;
#X connect 72 4 51 0;
#X connect 72 5 73 0;
#X connect 73 0 25 0;
#X connect 73 1 74 0;
#X connect 73 2 75 0;
#X connect 74 0 44 1;
#X connect 75 0 45 1;
#X connect 76 0 45 1;
#X connect 77 0 44 1;
#X connect 78 0 45 1;
#X connect 79 0 44 1;
#X connect 80 0 45 1;
#X connect 81 0 44 1;
#X connect 82 0 44 1;
#X connect 86 0 87 0;
#X connect 86 1 88 1;
#X connect 87 0 88 0;
#X connect 88 0 89 0;
#X connect 89 0 21 0;
#X connect 89 0 99 0;
#X connect 90 0 21 0;
#X connect 91 0 89 1;
#X connect 91 0 92 0;
#X connect 92 0 90 1;
#X connect 94 0 93 0;
#X connect 94 0 103 0;
#X connect 96 0 19 0;
#X connect 98 0 13 0;
#X connect 98 0 86 0;
#X connect 100 0 94 0;
#X connect 101 0 67 0;
#X connect 101 0 70 0;
#X connect 101 0 100 0;
#X connect 101 1 60 0;
#X connect 101 1 71 0;
#X connect 101 1 102 0;
#X connect 101 2 100 0;
#X connect 101 2 60 0;
#X connect 101 3 100 0;
#X connect 101 3 60 0;
#X connect 101 4 100 0;
#X connect 101 4 60 0;
#X connect 101 5 100 0;
#X connect 101 5 60 0;
#X connect 102 0 94 0;
#X connect 103 0 104 0;
#X connect 103 1 105 0;
#X connect 104 0 15 0;
#X connect 105 0 106 0;
#X connect 106 0 25 0;
#X restore 311 244 pd delay1;
#X f 22;
#X obj 261 -99 inlet;
#X obj 323 -97 inlet;
#X text 433 -137 width;
#X text 384 -136 speed;
#X text 135 -136 signal;
#X text 258 -137 delay;
#X text 324 -135 fbk;
#X obj 381 -98 inlet;
#X obj 439 -99 inlet;
#X obj 207 -98 inlet;
#X obj 504 -102 inlet;
#X text 504 -140 d/w;
#X obj 287 373 loadbang;
#X msg 287 396 0;
#X text 187 -136 type(0-4);
#X obj 5 16 vsl 18 70 0 127 0 0 empty empty del 0 -9 1 10 #000000 #ffffff #7c7c7c 0 1;
#X obj 26 16 vsl 18 70 0 127 0 0 empty empty fbk 0 -9 1 10 #000000 #ffffff #7c7c7c 0 1;
#X obj 47 16 vsl 15 70 0 127 0 0 empty empty spd 0 -9 1 10 #000000 #ffffff #7c7c7c 0 1;
#X obj 65 16 vsl 18 70 0 127 0 0 empty empty dep 0 -9 1 10 #000000 #ffffff #7c7c7c 0 1;
#X obj 86 16 vsl 18 70 0 127 0 0 empty empty d/w 0 -9 1 10 #000000 #ffffff #7c7c7c 0 1;
#X obj 5 93 hradio 13 1 0 6 empty empty empty 0 -9 0 10 #fcfcfc #000000 #000000 0;
#X text 153 576 out;
#X obj 217 549 outlet;
#X obj 282 549 outlet;
#X obj 343 550 outlet;
#X obj 408 548 outlet;
#X obj 463 547 outlet;
#X obj 508 548 outlet;
#X text 457 574 width;
#X text 408 575 speed;
#X text 282 574 delay;
#X text 348 576 fbk;
#X text 528 571 d/w;
#X text 211 575 type(0-4);
#X obj 151 462 two_to_one;
#X obj 167 382 / 127;
#X connect 1 0 3 0;
#X connect 1 0 38 0;
#X connect 3 0 38 1;
#X connect 4 0 19 0;
#X connect 5 0 20 0;
#X connect 11 0 21 0;
#X connect 12 0 22 0;
#X connect 13 0 24 0;
#X connect 14 0 23 0;
#X connect 16 0 17 0;
#X connect 17 0 38 2;
#X connect 19 0 27 0;
#X connect 19 0 3 1;
#X connect 20 0 28 0;
#X connect 20 0 3 2;
#X connect 21 0 29 0;
#X connect 21 0 3 3;
#X connect 22 0 30 0;
#X connect 22 0 3 4;
#X connect 23 0 31 0;
#X connect 23 0 39 0;
#X connect 24 0 26 0;
#X connect 24 0 3 5;
#X connect 38 0 2 0;
#X connect 39 0 38 2;
#X coords 0 -1 1 1 110 110 2 0 0;
