#N canvas 256 143 1534 805 12;
#X declare -path ../../commons;
#X obj 124 -192 inlet;
#X obj 82 -191 inlet;
#X obj 795 217 s attack_length\$0;
#X obj 926 217 s decay_length\$0;
#X obj 1051 217 s sustain_length\$0;
#X obj 1126 516 r attack_length\$0;
#X obj 1188 558 r decay_length\$0;
#X obj 1157 537 r sustain_length\$0;
#X obj 211 461 s wait_length\$0;
#X obj 1086 670 s~ envelope\$0;
#X obj -295 -191 inlet;
#X obj 516 859 r~ envelope\$0;
#X obj 484 890 *~;
#X obj 486 778 *~;
#X obj 485 691 phasor~;
#X obj -234 -191 inlet;
#X obj 1207 579 r wait_length\$0;
#X msg 531 660 0;
#X obj 1138 485 switch~;
#X obj 39 -191 inlet;
#X obj 791 133 r envelope_length_\$0;
#X obj 131 892 s envelope_length_\$0;
#X text -290 -229 OnOff;
#X obj -99 -191 inlet;
#X obj 450 1877 *~;
#X obj 1113 415 delay;
#X msg 1078 445 1;
#X msg 1113 444 0;
#X obj 1145 380 + 5;
#X obj 1105 315 loadbang;
#X obj 395 1750 tremolo;
#X obj 946 -216 inlet;
#X obj 995 -214 inlet;
#X obj 172 -191 inlet;
#X text 925 -250 tremfreq;
#X text 985 -250 tremdepth;
#X obj 701 493 s trem_freq_\$0;
#X obj 709 461 s trem_depth_\$0;
#X obj 436 1619 r trem_freq_\$0;
#X obj 508 1683 r trem_depth_\$0;
#X obj 293 144 vsl 20 170 0 127 0 0 empty empty empty 0 -9 0 12 #fcfcfc #000000 #000000 0 1;
#X obj 697 143 vsl 20 170 0 127 0 0 empty empty empty 0 -9 0 12 #fcfcfc #000000 #000000 0 1;
#X obj 669 143 vsl 20 170 0 127 0 0 empty empty empty 0 -9 0 12 #fcfcfc #000000 #000000 0 1;
#X obj 320 141 vsl 20 170 0 127 0 0 empty empty empty 0 -9 0 12 #fcfcfc #000000 #000000 0 1;
#X obj 228 142 vradio 20 1 0 5 empty empty empty 0 -10 0 12 #fcfcfc #000000 #000000 0;
#X text 106 120 On;
#X text 224 120 Oct;
#X text 289 120 Env;
#X text 257 120 Spr;
#X text 692 119 Dep;
#X text 46 -229 oct;
#X obj 1243 600 r envelope_length_\$0;
#X obj 258 144 vsl 20 170 0 127 0 0 empty empty empty 0 -9 0 12 #fcfcfc #000000 #000000 0 1;
#X obj 784 -213 inlet;
#X text 664 119 Spd;
#X obj 131 142 vradio 20 1 0 4 empty empty empty 0 -10 0 12 #fcfcfc #000000 #000000 0;
#X obj 995 133 r env_shape_\$0;
#X obj 259 378 s env_shape_\$0;
#N canvas 298 154 1529 816 build_envelope 0;
#X floatatom 500 466 5 0 100 0 - - - 0;
#X floatatom 671 400 4 0 1 0 - - - 0;
#X obj 506 562 *;
#X obj 581 561 *;
#X obj 514 500 expr 1 - $f1;
#X obj 635 499 expr 1 - $f1;
#X obj 584 428 t b f;
#X obj 502 369 t f b;
#X obj 531 670 *;
#X obj 585 674 *;
#X obj 500 636 t b f;
#X obj 587 639 t b f;
#X obj 58 429 f;
#X obj 641 670 *;
#X obj 664 639 t b f;
#X obj 531 712 i;
#X obj 585 708 i;
#X obj 641 712 i;
#X obj 547 282 expr 1 - abs($f1 - 0.5) * 2;
#X obj 577 240 / 127;
#X obj 680 313 min 0.95;
#X obj 469 302 min 0.98;
#X obj 472 328 max 0.02;
#X obj 681 344 max 0.02;
#X obj 401 76 inlet;
#X obj 75 80 inlet;
#X text 387 52 Envelope Shape (MIDI);
#X text 69 54 Envelope Length (ms);
#X text 122 4 receives: envelope length in ms and envelope shape in MIDI and puts out attack decay and sustain length;
#X obj 282 954 outlet;
#X text 184 975 attack ms;
#X text 271 972 decay ms;
#X text 386 975 sustain ms;
#X obj 394 952 outlet;
#X obj 202 949 outlet;
#X obj 402 156 sel 64;
#X obj 396 119 t f f;
#X text 456 153 calculate in percentage;
#X obj 158 621 -;
#X obj 308 384 bng 20 250 50 0 empty empty empty 0 -10 0 12 #fcfcfc #000000 #000000;
#X obj 269 504 +;
#X obj 223 415 t b b;
#X text 111 352 calculate with absolute att and decay;
#X obj 187 569 t b f;
#X obj 149 508 spigot;
#X obj 73 510 spigot;
#X obj 239 194 == 64;
#X obj 155 262 == 0;
#X obj 98 306 t b f;
#X obj 197 311 t b f;
#X msg 305 470 0;
#X msg 255 467 0;
#X obj 731 87 inlet;
#X obj 756 155 t b f;
#X msg 773 206 set \$1;
#X text 721 63 fade_loop;
#X connect 0 0 4 0;
#X connect 0 0 2 0;
#X connect 1 0 6 0;
#X connect 1 0 13 0;
#X connect 2 0 8 0;
#X connect 3 0 9 0;
#X connect 4 0 3 0;
#X connect 5 0 3 1;
#X connect 5 0 2 1;
#X connect 6 0 0 0;
#X connect 6 1 5 0;
#X connect 7 0 0 0;
#X connect 7 1 1 0;
#X connect 8 0 15 0;
#X connect 9 0 16 0;
#X connect 10 0 8 0;
#X connect 10 1 8 1;
#X connect 11 0 9 0;
#X connect 11 1 9 1;
#X connect 12 0 45 0;
#X connect 12 0 44 0;
#X connect 13 0 17 0;
#X connect 14 0 13 0;
#X connect 14 1 13 1;
#X connect 15 0 34 0;
#X connect 16 0 29 0;
#X connect 17 0 33 0;
#X connect 18 0 20 0;
#X connect 19 0 21 0;
#X connect 19 0 18 0;
#X connect 20 0 23 0;
#X connect 21 0 22 0;
#X connect 22 0 7 0;
#X connect 23 0 1 0;
#X connect 24 0 36 0;
#X connect 25 0 12 0;
#X connect 35 0 39 0;
#X connect 35 1 19 0;
#X connect 36 0 35 0;
#X connect 36 1 46 0;
#X connect 38 0 33 0;
#X connect 39 0 41 0;
#X connect 40 0 43 0;
#X connect 41 0 51 0;
#X connect 41 1 50 0;
#X connect 43 0 38 0;
#X connect 43 1 38 1;
#X connect 44 0 10 0;
#X connect 44 0 11 0;
#X connect 44 0 14 0;
#X connect 45 0 38 0;
#X connect 46 0 47 0;
#X connect 46 0 49 0;
#X connect 47 0 48 0;
#X connect 48 0 12 0;
#X connect 48 1 44 1;
#X connect 49 0 12 0;
#X connect 49 1 45 1;
#X connect 50 0 40 1;
#X connect 50 0 29 0;
#X connect 51 0 40 0;
#X connect 51 0 34 0;
#X connect 52 0 53 0;
#X connect 53 0 39 0;
#X connect 53 1 54 0;
#X connect 54 0 50 0;
#X connect 54 0 51 0;
#X restore 858 166 pd build_envelope;
#X f 20;
#X obj 1143 693 s reset_phase\$0;
#X obj 531 632 r reset_phase\$0;
#N canvas 396 234 1390 805 retrigger_envelope 0;
#X obj 180 438 pow~ 2;
#X obj 493 190 i;
#X obj 360 190 i;
#X obj 159 119 t b b b b;
#X obj 260 192 i;
#X obj 303 228 +;
#X obj 248 294 pack f f f f;
#X obj 180 396 vline~;
#X msg 211 228 0;
#X msg 235 350 0 0 \, 1 \$2 1 \, 0 \$4 \$3;
#X obj 297 258 max 2;
#X obj 741 645 delay;
#X msg 399 349 \$3;
#X obj 259 45 inlet;
#X obj 388 46 inlet;
#X obj 557 62 inlet;
#X obj 692 61 inlet;
#X obj 760 61 inlet;
#X text 751 29 envelope_length;
#X text 693 31 wait;
#X text 535 23 decay_length;
#X text 390 21 sustain_length;
#X text 261 12 attack_length;
#X obj 95 52 inlet;
#X text 481 157 decay;
#X text 347 163 sustain;
#X text 253 163 attack;
#X obj 157 668 outlet~;
#X obj 99 577 spigot;
#X obj 95 88 sel 0 1;
#X text 35 19 play_envelope (1 or 0);
#X obj 276 666 outlet;
#X text 787 376 when it receives a 1 it collects attack decay and sustain and output an envelope \, retriggering it after wait time. It also sends out a bang for phase retriggering of table reader. It stops retriggering when it receives a 0;
#X text 157 695 envelope;
#X obj 272 489 bng 20 250 50 0 empty empty empty 0 -10 0 12 #fcfcfc #000000 #000000;
#X msg 64 123 0;
#X msg 104 124 1;
#X text 242 701 reset phasor (bang);
#X text 785 340 message to vline 1 23 120 is: go to 1 in 23 ms starting at 120 ms from the beginning;
#X obj 546 684 outlet~;
#X text 553 712 envelope2;
#X obj 658 692 outlet;
#X text 653 714 restphasor2;
#X obj 547 610 vline~;
#X msg 643 549 0 0 \, 1 \$2 1 \, 0 \$4 \$3;
#X obj 751 518 list store;
#X obj 668 489 bng 20 250 50 0 empty empty empty 0 -10 0 12 #fcfcfc #000000 #000000;
#X obj 597 492 delay;
#X obj 596 457 bng 20 250 50 0 empty empty empty 0 -10 0 12 #fcfcfc #000000 #000000;
#X obj 880 64 inlet;
#X obj 825 225 -;
#X obj 829 175 t b f;
#X obj 662 618 bng 20 250 50 0 empty empty empty 0 -10 0 12 #fcfcfc #000000 #000000;
#X text 885 34 loop_fade;
#X obj 548 652 pow~ 2;
#X obj 871 543 + 0;
#X obj 639 213 *;
#X obj 722 140 t b f;
#X obj 556 294 +;
#X obj 399 383 t b f;
#X obj 399 408 delay;
#X obj 456 397 +;
#X obj 574 412 spigot;
#X obj 644 323 sel 1 2;
#X obj 382 502 spigot;
#X obj 479 478 sel 1 2;
#X msg 510 513 0;
#X msg 473 513 1;
#X obj 376 591 spigot;
#X msg 474 541 0;
#X msg 511 544 1;
#X obj 479 453 r mode_\$0;
#X obj 644 298 r mode_\$0;
#X msg 638 358 0;
#X msg 675 358 1;
#X connect 0 0 27 0;
#X connect 1 0 6 3;
#X connect 1 0 58 0;
#X connect 2 0 5 1;
#X connect 3 0 8 0;
#X connect 3 1 4 0;
#X connect 3 2 2 0;
#X connect 3 3 1 0;
#X connect 4 0 5 0;
#X connect 4 0 6 1;
#X connect 5 0 10 0;
#X connect 6 0 9 0;
#X connect 6 0 12 0;
#X connect 6 0 62 0;
#X connect 7 0 0 0;
#X connect 8 0 6 0;
#X connect 9 0 7 0;
#X connect 9 0 34 0;
#X connect 10 0 6 2;
#X connect 11 0 68 0;
#X connect 12 0 59 0;
#X connect 13 0 4 1;
#X connect 14 0 2 1;
#X connect 15 0 1 1;
#X connect 16 0 56 0;
#X connect 17 0 50 0;
#X connect 17 0 57 0;
#X connect 23 0 29 0;
#X connect 28 0 3 0;
#X connect 29 0 35 0;
#X connect 29 1 3 0;
#X connect 29 1 36 0;
#X connect 34 0 31 0;
#X connect 35 0 28 1;
#X connect 36 0 28 1;
#X connect 43 0 54 0;
#X connect 44 0 43 0;
#X connect 44 0 52 0;
#X connect 45 0 44 0;
#X connect 46 0 45 0;
#X connect 47 0 46 0;
#X connect 48 0 47 0;
#X connect 49 0 51 0;
#X connect 50 0 55 0;
#X connect 51 0 50 0;
#X connect 51 1 50 1;
#X connect 52 0 41 0;
#X connect 52 0 11 0;
#X connect 54 0 39 0;
#X connect 55 0 11 1;
#X connect 55 0 47 1;
#X connect 56 0 58 1;
#X connect 57 0 56 0;
#X connect 57 1 56 1;
#X connect 58 0 61 1;
#X connect 59 0 60 0;
#X connect 59 1 61 0;
#X connect 60 0 64 0;
#X connect 61 0 60 1;
#X connect 62 0 48 0;
#X connect 62 0 45 1;
#X connect 63 0 73 0;
#X connect 63 1 74 0;
#X connect 64 0 28 0;
#X connect 65 0 67 0;
#X connect 65 1 66 0;
#X connect 66 0 64 1;
#X connect 66 0 70 0;
#X connect 67 0 64 1;
#X connect 67 0 69 0;
#X connect 68 0 28 0;
#X connect 69 0 68 1;
#X connect 70 0 68 1;
#X connect 71 0 65 0;
#X connect 72 0 63 0;
#X connect 73 0 62 1;
#X connect 74 0 62 1;
#X restore 1086 635 pd retrigger_envelope;
#X f 25;
#X floatatom 161 142 5 0 0 0 - - - 0;
#X text 192 120 Rev;
#X text 158 120 Len;
#X text -121 -229 loop_length;
#X obj -18 -191 inlet;
#X text -18 -229 reverse;
#X obj 203 142 tgl 20 0 empty empty empty 0 -10 0 12 #fcfcfc #000000 #000000 0 1;
#X obj 138 397 s reverse_\$0;
#X obj 100 431 s loop_length_\$0;
#N canvas 455 197 1060 688 main_values 0;
#X msg 143 268 1;
#X msg 189 269 2;
#X msg 230 269 4;
#X msg 96 269 0.5;
#X msg 49 269 0.25;
#X msg 234 425 0.25;
#X msg 193 424 0.5;
#X msg 146 425 1;
#X msg 99 425 2;
#X msg 52 425 4;
#X obj 49 219 sel 0 1 2 3 4;
#X obj 317 339 / 4;
#X obj 58 146 inlet;
#X text 53 120 octave(0-4);
#X text 146 338 table length in seconds;
#X text 35 248 -2oct;
#X text 84 247 -1oct;
#X text 221 247 +2oct;
#X text 178 248 +1oct;
#X obj 548 183 inlet;
#X text 376 403 frequency of phasor;
#X obj 316 400 outlet;
#X text 737 164 envelope_offset;
#X obj 729 196 inlet;
#X floatatom 152 562 5 0 0 0 - - - 0;
#X obj 152 509 * 4000;
#X obj 365 367 *;
#X msg 301 248 1;
#X msg 340 247 -1;
#X obj 359 302 t b f;
#X text 337 271 Reverse;
#X text 372 577 envelope_length;
#X text 685 96 1-4 code for each reader;
#X text 277 127 reverse;
#X text 959 260 3 = 1/4 loop;
#X text 959 240 2 = 2/4 loop;
#X text 959 220 1 = 1/2 loop;
#X text 959 200 0 = 4/4 loop;
#X text 961 284 no sync;
#X text 962 308 0 = 0.9;
#X text 962 328 1 = 0.8;
#X text 962 348 2 = 0.7;
#X text 962 368 3 = 0.6;
#X obj 284 149 inlet;
#X text 75 536 full table length in ms;
#X text 517 157 loop_length;
#X text 462 208 (global loop length in ms);
#X text -149 603 I.e. Index 2 is 0 octave: it means that phasor must read a table of 4 seconds length in 4 seconds (at fs=48Khz). It means that its frequency must be 0.25Hz (1 / 4 = 0.25) to read the table at the correct speed. To read the whole table the envelope must last 4 seconds (4000ms);
#X obj 486 575 outlet;
#X text 44 77 This will calculate the phasor speed and the envelope length;
#X obj 650 514 t b f;
#X obj 561 409 *;
#X text 317 614 This is the full length of the recorded loop for each reader (it may be smaller than the whole table length). Each reader has its own offset to create the phasing effect. That is: the envelope length of each reader is different. The envelope length depends also on the octave (the phasor speed).;
#X obj 462 530 *;
#X obj 410 484 t b f;
#X msg 810 369 1;
#X obj 292 193 sel 0 1;
#X obj 896 194 inlet;
#X text 899 167 phase_sync;
#X obj 731 253 + 0;
#X msg 712 342 1;
#X msg 730 365 0.9;
#X msg 749 389 0.8;
#X msg 767 413 0.7;
#X obj 731 293 sel 0 1 2 3 4 5 6 7;
#X obj 882 231 sel 0 1;
#X msg 826 393 0.75;
#X msg 847 416 0.5;
#X msg 865 440 0.25;
#X msg 850 251 0;
#X msg 906 275 4;
#X obj 774 215 t b f;
#X connect 0 0 7 0;
#X connect 0 0 11 0;
#X connect 1 0 6 0;
#X connect 1 0 11 0;
#X connect 2 0 5 0;
#X connect 2 0 11 0;
#X connect 3 0 8 0;
#X connect 3 0 11 0;
#X connect 4 0 9 0;
#X connect 4 0 11 0;
#X connect 5 0 25 0;
#X connect 5 0 54 0;
#X connect 6 0 25 0;
#X connect 6 0 54 0;
#X connect 7 0 25 0;
#X connect 7 0 54 0;
#X connect 8 0 25 0;
#X connect 8 0 54 0;
#X connect 9 0 25 0;
#X connect 9 0 54 0;
#X connect 10 0 4 0;
#X connect 10 1 3 0;
#X connect 10 2 0 0;
#X connect 10 3 1 0;
#X connect 10 4 2 0;
#X connect 11 0 26 0;
#X connect 12 0 10 0;
#X connect 19 0 51 0;
#X connect 23 0 59 0;
#X connect 25 0 24 0;
#X connect 26 0 21 0;
#X connect 27 0 29 0;
#X connect 28 0 29 0;
#X connect 29 0 26 0;
#X connect 29 1 26 1;
#X connect 43 0 56 0;
#X connect 50 0 51 0;
#X connect 50 1 51 1;
#X connect 51 0 53 0;
#X connect 53 0 48 0;
#X connect 54 0 53 0;
#X connect 54 1 53 1;
#X connect 55 0 50 0;
#X connect 56 0 27 0;
#X connect 56 1 28 0;
#X connect 57 0 65 0;
#X connect 59 0 64 0;
#X connect 60 0 50 0;
#X connect 61 0 50 0;
#X connect 62 0 50 0;
#X connect 63 0 50 0;
#X connect 64 0 60 0;
#X connect 64 1 61 0;
#X connect 64 2 62 0;
#X connect 64 3 63 0;
#X connect 64 4 55 0;
#X connect 64 5 66 0;
#X connect 64 6 67 0;
#X connect 64 7 68 0;
#X connect 65 0 69 0;
#X connect 65 1 70 0;
#X connect 66 0 50 0;
#X connect 67 0 50 0;
#X connect 68 0 50 0;
#X connect 69 0 71 0;
#X connect 70 0 71 0;
#X connect 71 0 59 0;
#X connect 71 1 59 1;
#X restore 76 736 pd main_values;
#X obj 97 615 r reverse_\$0;
#X obj 124 645 r loop_length_\$0;
#X obj 163 364 s octave_\$0;
#X obj 78 584 r octave_\$0;
#X obj 11 782 s phasor_freq_\$0;
#X obj 485 598 r phasor_freq_\$0;
#X text 506 742 full table length in samples;
#X text 130 120 ID;
#X obj 242 424 / 25;
#X text -223 -229 id;
#X obj 736 141 vsl 20 170 0 127 0 0 empty empty empty 0 -9 0 12 #fcfcfc #000000 #000000 0 1;
#X text 731 117 Vol;
#X obj 1058 -217 inlet;
#X text 1049 -250 volume;
#X obj 450 1916 outlet~;
#X obj 967 584 line, f 8;
#X obj 748 381 / 127;
#X obj 838 1921 outlet;
#X obj 838 1891 r loop_length_\$0;
#X obj 65 480 s reader_ID_\$0;
#X obj 160 677 r reader_ID_\$0;
#X obj 683 1890 r reader_ID_\$0;
#X obj 683 1919 outlet;
#X text 107 332 OUTPUT;
#X text 383 332 ID;
#X text 680 329 Loop_length;
#X text 1136 345 master_vol_smooth;
#X msg 1105 343 20;
#X obj 967 542 pack 0 0;
#X obj 935 618 s master_volume\$0;
#X obj 831 482 r master_volume_control_\$0;
#X obj 747 421 s master_volume_control_\$0;
#X obj 516 1847 r master_volume\$0;
#X obj 376 137 vsl 20 170 0 127 0 0 empty empty empty 0 -9 0 12 #fcfcfc #000000 #000000 0 1;
#X obj 409 137 vsl 20 170 0 127 0 0 empty empty empty 0 -9 0 12 #fcfcfc #000000 #000000 0 1;
#X text 371 113 Tim;
#X text 406 113 Fbk;
#X obj 354 443 s del_time_\$0;
#X obj 366 421 s del_fbk_\$0;
#X text 134 -230 env;
#X text 91 -229 spr;
#X obj -175 -191 inlet;
#X text -197 -229 table_id;
#X obj 485 816 tabread4~;
#X obj -120 -6 s table_id_\$0;
#X obj 602 792 r table_id_\$0;
#X msg 596 824 set loop_\$1;
#X obj 433 480 s del_spd_\$0;
#X obj 383 381 s del_type_\$0;
#X obj 483 429 s del_d/w_\$0;
#X obj 445 139 vsl 20 170 0 127 0 0 empty empty empty 0 -9 0 12 #fcfcfc #000000 #000000 0 1;
#X obj 476 139 vsl 20 170 0 127 0 0 empty empty empty 0 -9 0 12 #fcfcfc #000000 #000000 0 1;
#X obj 509 139 vsl 20 170 0 127 0 0 empty empty empty 0 -9 0 12 #fcfcfc #000000 #000000 0 1;
#X text 440 115 spd;
#X text 471 115 wdt;
#X text 506 115 dw;
#X obj 410 329 hradio 20 1 0 5 empty empty empty 0 -10 0 12 #fcfcfc #000000 #000000 0;
#X obj 469 454 s del_dep_\$0;
#X obj 734 728 samplerate~;
#X obj 736 756 * 4;
#X obj 764 681 loadbang;
#X obj 1440 476 declare -path ../../commons;
#X obj 397 1192 filter_selection;
#X obj 401 1002 wavefold;
#X text 175 -231 fold;
#X obj 296 512 s fold_\$0;
#X text 314 117 fold;
#X obj 351 907 r fold_\$0;
#X obj 383 930 r stgs_\$0;
#X obj 213 -190 inlet;
#X text 343 114 stg;
#X obj 356 483 s stgs_\$0;
#X obj 831 -213 inlet;
#X obj 880 -213 inlet;
#X obj 575 147 vsl 20 170 0 127 0 0 empty empty empty 0 -9 0 12 #fcfcfc #000000 #000000 0 1;
#X text 570 123 Frq;
#X obj 605 145 vsl 20 170 0 127 0 0 empty empty empty 0 -9 0 12 #fcfcfc #000000 #000000 0 1;
#X obj 530 363 s flt_sel_\$0;
#X obj 596 415 s flt_q_\$0;
#X obj 543 390 s flt_frq_\$0;
#X text 537 119 sel;
#X text 604 117 q;
#X obj 544 138 vradio 20 1 0 8 empty empty empty 0 -10 0 12 #fcfcfc #000000 #000000 0;
#X text 779 -250 fltsel;
#X text 827 -250 fltfreq;
#X text 886 -250 fltq;
#X obj 506 1072 r flt_sel_\$0;
#X obj 519 1099 r flt_frq_\$0;
#X obj 542 1122 r flt_q_\$0;
#X obj 1484 1510 s~ lfo2_fm_\$0;
#X obj 1159 1555 s~ lfo1_fm_\$0;
#X obj 568 1147 r~ lfo1_fm_\$0;
#X obj 548 1709 r~ lfo2_fm_\$0;
#X obj 1682 -208 inlet;
#X text 1676 -237 lfo2ass;
#X obj 1691 111 s lfo2_ass_\$0;
#X obj 347 195 vradio 20 1 0 3 empty empty empty 0 -10 0 12 #fcfcfc #000000 #000000 0;
#X obj 563 1180 sig~;
#X msg 602 1180 1;
#X obj 636 1179 loadbang;
#X obj 1159 1438 lfo;
#X obj 1121 -213 inlet, f 6;
#X obj 1191 -213 inlet;
#X obj 1257 -214 inlet;
#X text 1120 -237 freq;
#X text 1183 -237 depth;
#X text 1257 -237 wform;
#X obj 1351 -208 inlet;
#X text 1351 -231 width;
#X text 1121 -252 lfo1;
#X text 1184 -250 lfo1;
#X text 1261 -252 lfo1;
#X text 1351 -247 lfo1;
#X obj 1413 -207 inlet, f 6;
#X obj 1483 -207 inlet;
#X obj 1549 -208 inlet;
#X text 1412 -231 freq;
#X text 1475 -231 depth;
#X text 1549 -231 wform;
#X obj 1610 -211 inlet;
#X text 1610 -234 width;
#X text 1413 -246 lfo2;
#X text 1476 -244 lfo2;
#X text 1555 -246 lfo2;
#X text 1610 -250 lfo2;
#X obj 1450 1 s lfo2_frq_\$0;
#X obj 1487 23 s lfo2_dep_\$0;
#X obj 1522 47 s lfo2_wav_\$0;
#X obj 1558 73 s lfo2_wid_\$0;
#X obj 1153 6 s lfo1_frq_\$0;
#X obj 1189 28 s lfo1_dep_\$0;
#X obj 1224 52 s lfo1_wav_\$0;
#X obj 1260 78 s lfo1_wid_\$0;
#X obj 1489 1403 lfo;
#X obj 1153 1342 r lfo1_dep_\$0;
#X obj 1175 1368 r lfo1_wav_\$0;
#X obj 1207 1392 r lfo1_wid_\$0;
#X obj 1467 1276 r lfo2_frq_\$0;
#X obj 1506 1297 r lfo2_dep_\$0;
#X obj 1540 1322 r lfo2_wav_\$0;
#X obj 1576 1348 r lfo2_wid_\$0;
#X obj 1709 1312 r lfo2_ass_\$0;
#X obj 1598 1372 r lfo2_sync_\$0;
#X obj 1744 -206 inlet;
#X text 1738 -237 phase_sync;
#X obj 1753 38 s phase_sync_\$0;
#X obj 265 718 r phase_sync_\$0;
#X obj 872 264 print attack;
#X obj 966 265 print decay;
#X obj 1073 264 print sustain;
#X obj 168 776 / 2;
#X obj 893 836 *~;
#X obj 892 806 phasor~;
#X msg 917 774 0;
#X obj 892 713 r phasor_freq_\$0;
#X obj 897 963 tabread4~;
#X obj 1012 969 r table_id_\$0;
#X msg 1006 1001 set loop_\$1;
#X obj 1047 748 samplerate~;
#X obj 1053 775 * 4;
#X obj 1055 722 loadbang;
#X obj 838 960 *~;
#X obj 898 899 +~;
#X obj 966 816 r envelope_length_\$0;
#X obj 917 746 r reset_phase2\$0;
#X obj 1258 691 s reset_phase2\$0;
#X obj 1199 670 s~ envelope2\$0;
#X obj 781 918 r~ envelope2\$0;
#X obj 1289 637 r fade_loop_\$0;
#X obj 956 785 bng 20 250 50 0 empty empty empty 0 -10 0 12 #fcfcfc #000000 #000000;
#X obj 586 684 bng 20 250 50 0 empty empty empty 0 -10 0 12 #fcfcfc #000000 #000000;
#X obj 1048 846 r fade_loop_\$0;
#X obj 1017 876 t b f;
#X obj 975 899 -;
#X obj 1183 735 bng 20 250 50 0 empty empty empty 0 -10 0 12 #fcfcfc #000000 #000000;
#X obj 959 928 *;
#X obj 1118 887 / 1000;
#X obj 1052 943 print ph2_offset;
#X msg 197 527 2000;
#X msg 303 64 64;
#X obj 307 40 loadbang;
#X obj 228 33 loadbang;
#X msg 224 57 2;
#X msg 177 62 0;
#X obj 1270 128 r octave_\$0;
#X obj 1289 180 sel 0 1 2 3 4;
#X msg 1369 210 200;
#X msg 1404 211 100;
#X msg 1298 210 800;
#X msg 1263 211 1600;
#X obj 95 1132 r reader_ID_\$0;
#X obj 94 1198 + 0;
#X obj 216 1153 sel 0 1;
#X msg 236 1190 4;
#X msg 212 1181 0;
#X obj 217 1129 r phase_sync_\$0;
#X obj 133 1164 t b f;
#X obj 95 1168 f;
#X msg 96 1271 0;
#X obj 97 1240 sel 0 1 2 3 4 5 6 7;
#X msg 163 1352 0;
#X msg 111 1289 0.43;
#X msg 124 1310 0.21;
#X msg 140 1330 0.77;
#X msg 179 1372 0.5;
#X msg 198 1394 0.25;
#X msg 214 1415 0.75;
#X msg -22 1274 1;
#X msg -3 1314 0.85;
#X msg -12 1293 0.93;
#X msg 7 1334 0.77;
#X msg 32 1376 0.5;
#X msg 43 1397 0.25;
#X msg 60 1416 0.75;
#X msg 16 1356 1;
#X obj 159 1459 s phase_offset_\$0;
#X obj 1136 1196 r lfo1_frq_\$0;
#X obj 1168 1263 t b f;
#X obj 1136 1306 *;
#X obj 1227 1225 r freq_phase_mult_\$0;
#X obj 1235 1261 r phase_offset_\$0;
#X obj 426 1674 t b f;
#X obj 425 1709 *;
#X obj 458 1647 r freq_phase_mult_\$0;
#X obj -62 1460 s freq_phase_mult_\$0;
#X obj 310 788 sel 1 2;
#X msg 305 821 1;
#X obj 279 851 t b f;
#X msg 342 831 2;
#X obj 319 762 r mode_\$0;
#X obj 1 439 s mode_\$0;
#X floatatom 177 861 5 0 0 0 - - - 0;
#X floatatom 848 308 5 0 0 0 - - - 0;
#X floatatom 913 308 5 0 0 0 - - - 0;
#X floatatom 974 295 5 0 0 0 - - - 0;
#X msg 1333 210 400;
#X obj 1397 373 *;
#X obj 1411 325 t b f;
#X obj 1376 420 s fade_loop_\$0;
#X obj 1443 229 sel 1 2;
#X obj 1444 192 r mode_\$0;
#X msg 1433 274 0.1;
#X msg 1469 274 1;
#X obj 106 143 vradio 20 1 0 4 empty empty empty 0 -10 0 12 #fcfcfc #000000 #000000 0;
#X obj 993 321 r mode_\$0;
#X obj 996 358 sel 0 1 2 3;
#X text 235 567 mode 1 (normal) \; mode 2 (overlap) \; mode 3 (sync looper): this off;
#X obj 399 1496 rngs;
#X obj 424 1337 r rngs_trig_\$0;
#X obj 449 1361 r rngs_exc_\$0;
#X obj 466 1387 r rngs_poly_\$0;
#X obj 492 1412 r rngs_pitch_\$0;
#X obj 507 1438 r rngs_transp_\$0;
#X obj 525 1463 r rngs_posit_\$0;
#X obj 603 1333 r rngs_struct_\$0;
#X obj 619 1359 r rngs_bright_\$0;
#X obj 638 1386 r rngs_damp_\$0;
#X obj 652 1411 r rngs_model_\$0;
#X obj 672 1438 r rngs_dw_\$0;
#X obj 369 -69 s rngs_trig_\$0;
#X obj 394 -45 s rngs_exc_\$0;
#X obj 411 -19 s rngs_poly_\$0;
#X obj 437 6 s rngs_pitch_\$0;
#X obj 452 32 s rngs_transp_\$0;
#X obj 470 57 s rngs_posit_\$0;
#X obj 588 -56 s rngs_struct_\$0;
#X obj 604 -30 s rngs_bright_\$0;
#X obj 625 -3 s rngs_damp_\$0;
#X obj 635 20 s rngs_model_\$0;
#X obj 657 49 s rngs_dw_\$0;
#X obj 498 -202 inlet;
#X obj 542 -202 inlet;
#X obj 585 -202 inlet;
#X obj 668 -203 inlet;
#X obj 712 -203 inlet;
#X obj 624 -202 inlet;
#X obj 292 -197 inlet;
#X obj 329 -197 inlet;
#X obj 370 -199 inlet;
#X obj 449 -200 inlet;
#X obj 409 -199 inlet;
#X text 552 -233 struct;
#X text 592 -233 bright;
#X text 638 -234 damp;
#X text 678 -231 model;
#X text 475 -232 transp;
#X text 515 -233 posit;
#X text 721 -233 d/w;
#X text 389 -231 poly;
#X text 336 -231 exciter;
#X text 286 -228 trigger;
#X text 434 -233 pitch;
#X obj 255 -193 inlet;
#X text 217 -230 mode;
#X text 259 -233 mix;
#X obj 288 -44 s fold_mix_\$0;
#X obj 478 959 r fold_mix_\$0;
#X obj 1050 530 pipe 2;
#X obj 1808 -201 inlet~;
#X obj 234 951 r~ direct_in_\$0;
#X obj 1808 -175 s~ direct_in_\$0;
#X connect 0 0 40 0;
#X connect 1 0 52 0;
#X connect 5 0 61 1;
#X connect 6 0 61 3;
#X connect 7 0 61 2;
#X connect 10 0 315 0;
#X connect 11 0 12 1;
#X connect 12 0 135 0;
#X connect 13 0 115 0;
#X connect 14 0 13 0;
#X connect 15 0 55 0;
#X connect 16 0 61 4;
#X connect 17 0 14 1;
#X connect 17 0 242 0;
#X connect 19 0 44 0;
#X connect 20 0 58 0;
#X connect 23 0 62 0;
#X connect 24 0 86 0;
#X connect 25 0 27 0;
#X connect 26 0 18 0;
#X connect 26 0 100 0;
#X connect 26 0 369 0;
#X connect 27 0 18 0;
#X connect 27 0 100 0;
#X connect 27 0 61 0;
#X connect 28 0 25 1;
#X connect 29 0 99 0;
#X connect 30 0 24 0;
#X connect 31 0 42 0;
#X connect 32 0 41 0;
#X connect 33 0 43 0;
#X connect 38 0 294 0;
#X connect 39 0 30 2;
#X connect 40 0 57 0;
#X connect 41 0 37 0;
#X connect 42 0 36 0;
#X connect 43 0 137 0;
#X connect 44 0 74 0;
#X connect 51 0 61 5;
#X connect 52 0 80 0;
#X connect 53 0 154 0;
#X connect 55 0 91 0;
#X connect 56 0 58 1;
#X connect 58 0 2 0;
#X connect 58 0 219 0;
#X connect 58 0 304 0;
#X connect 58 1 3 0;
#X connect 58 1 220 0;
#X connect 58 1 305 0;
#X connect 58 2 4 0;
#X connect 58 2 221 0;
#X connect 58 2 306 0;
#X connect 60 0 17 0;
#X connect 60 0 130 0;
#X connect 61 0 9 0;
#X connect 61 1 59 0;
#X connect 61 2 238 0;
#X connect 61 3 237 0;
#X connect 62 0 70 0;
#X connect 66 0 68 0;
#X connect 68 0 69 0;
#X connect 71 0 76 0;
#X connect 71 1 222 0;
#X connect 72 0 71 1;
#X connect 73 0 71 2;
#X connect 75 0 71 0;
#X connect 77 0 14 0;
#X connect 80 0 8 0;
#X connect 82 0 88 0;
#X connect 84 0 82 0;
#X connect 87 0 101 0;
#X connect 88 0 103 0;
#X connect 90 0 89 0;
#X connect 92 0 71 3;
#X connect 93 0 94 0;
#X connect 99 0 28 0;
#X connect 99 0 100 1;
#X connect 100 0 87 0;
#X connect 102 0 100 0;
#X connect 104 0 24 1;
#X connect 105 0 109 0;
#X connect 106 0 110 0;
#X connect 113 0 116 0;
#X connect 115 0 12 0;
#X connect 117 0 118 0;
#X connect 118 0 115 0;
#X connect 122 0 119 0;
#X connect 123 0 129 0;
#X connect 124 0 121 0;
#X connect 128 0 120 0;
#X connect 130 0 131 0;
#X connect 131 0 13 1;
#X connect 132 0 130 0;
#X connect 134 0 319 0;
#X connect 135 0 134 0;
#X connect 139 0 135 1;
#X connect 140 0 135 2;
#X connect 141 0 168 0;
#X connect 144 0 146 0;
#X connect 145 0 148 0;
#X connect 146 0 151 0;
#X connect 148 0 150 0;
#X connect 154 0 149 0;
#X connect 158 0 134 1;
#X connect 159 0 134 2;
#X connect 160 0 134 3;
#X connect 163 0 134 4;
#X connect 164 0 30 3;
#X connect 165 0 167 0;
#X connect 168 0 143 0;
#X connect 169 0 134 5;
#X connect 170 0 169 0;
#X connect 171 0 170 0;
#X connect 172 1 162 0;
#X connect 173 0 201 0;
#X connect 174 0 202 0;
#X connect 175 0 203 0;
#X connect 179 0 204 0;
#X connect 185 0 197 0;
#X connect 186 0 198 0;
#X connect 187 0 199 0;
#X connect 191 0 200 0;
#X connect 205 1 161 0;
#X connect 206 0 172 1;
#X connect 207 0 172 2;
#X connect 208 0 172 3;
#X connect 209 0 205 0;
#X connect 210 0 205 1;
#X connect 211 0 205 2;
#X connect 212 0 205 3;
#X connect 214 0 205 4;
#X connect 215 0 217 0;
#X connect 218 0 71 4;
#X connect 222 0 21 0;
#X connect 222 0 303 0;
#X connect 223 0 234 0;
#X connect 224 0 223 0;
#X connect 225 0 224 1;
#X connect 226 0 224 0;
#X connect 227 0 233 0;
#X connect 228 0 229 0;
#X connect 229 0 227 0;
#X connect 230 0 231 0;
#X connect 230 0 248 0;
#X connect 231 0 223 1;
#X connect 232 0 230 0;
#X connect 233 0 135 0;
#X connect 234 0 227 0;
#X connect 235 0 245 0;
#X connect 236 0 225 0;
#X connect 236 0 230 0;
#X connect 236 0 241 0;
#X connect 239 0 233 1;
#X connect 240 0 61 6;
#X connect 243 0 244 0;
#X connect 244 0 245 0;
#X connect 244 1 245 1;
#X connect 245 0 247 0;
#X connect 246 0 230 0;
#X connect 247 0 234 1;
#X connect 247 0 249 0;
#X connect 248 0 247 1;
#X connect 250 0 70 0;
#X connect 251 0 40 0;
#X connect 252 0 251 0;
#X connect 253 0 254 0;
#X connect 253 0 255 0;
#X connect 254 0 44 0;
#X connect 255 0 68 0;
#X connect 255 0 55 0;
#X connect 256 0 257 0;
#X connect 257 0 261 0;
#X connect 257 1 260 0;
#X connect 257 2 307 0;
#X connect 257 3 258 0;
#X connect 257 4 259 0;
#X connect 258 0 58 2;
#X connect 258 0 308 0;
#X connect 259 0 58 2;
#X connect 259 0 308 0;
#X connect 260 0 58 2;
#X connect 260 0 308 0;
#X connect 261 0 58 2;
#X connect 261 0 308 0;
#X connect 262 0 269 0;
#X connect 263 0 271 0;
#X connect 264 0 266 0;
#X connect 264 1 265 0;
#X connect 265 0 263 1;
#X connect 265 0 268 0;
#X connect 266 0 263 1;
#X connect 266 0 268 0;
#X connect 267 0 264 0;
#X connect 268 0 269 0;
#X connect 268 1 263 1;
#X connect 269 0 263 0;
#X connect 270 0 279 0;
#X connect 270 0 287 0;
#X connect 271 0 270 0;
#X connect 271 1 273 0;
#X connect 271 2 274 0;
#X connect 271 3 275 0;
#X connect 271 4 272 0;
#X connect 271 5 276 0;
#X connect 271 6 277 0;
#X connect 271 7 278 0;
#X connect 272 0 286 0;
#X connect 272 0 287 0;
#X connect 273 0 281 0;
#X connect 273 0 287 0;
#X connect 274 0 280 0;
#X connect 274 0 287 0;
#X connect 275 0 282 0;
#X connect 275 0 287 0;
#X connect 276 0 283 0;
#X connect 276 0 287 0;
#X connect 277 0 284 0;
#X connect 277 0 287 0;
#X connect 278 0 285 0;
#X connect 278 0 287 0;
#X connect 279 0 296 0;
#X connect 280 0 296 0;
#X connect 281 0 296 0;
#X connect 282 0 296 0;
#X connect 283 0 296 0;
#X connect 284 0 296 0;
#X connect 285 0 296 0;
#X connect 286 0 296 0;
#X connect 288 0 290 0;
#X connect 289 0 290 0;
#X connect 289 1 290 1;
#X connect 290 0 172 0;
#X connect 291 0 289 0;
#X connect 292 0 172 4;
#X connect 293 0 294 0;
#X connect 293 1 294 1;
#X connect 294 0 30 1;
#X connect 295 0 293 0;
#X connect 297 0 298 0;
#X connect 297 1 300 0;
#X connect 298 0 299 0;
#X connect 299 0 222 0;
#X connect 299 1 222 1;
#X connect 300 0 299 0;
#X connect 301 0 297 0;
#X connect 307 0 58 2;
#X connect 307 0 308 0;
#X connect 308 0 58 2;
#X connect 308 0 310 0;
#X connect 309 0 308 0;
#X connect 309 1 308 1;
#X connect 311 0 313 0;
#X connect 311 1 314 0;
#X connect 312 0 311 0;
#X connect 313 0 309 0;
#X connect 314 0 309 0;
#X connect 315 0 302 0;
#X connect 316 0 317 0;
#X connect 317 0 25 0;
#X connect 317 1 26 0;
#X connect 317 2 26 0;
#X connect 317 3 25 0;
#X connect 319 0 30 0;
#X connect 320 0 319 1;
#X connect 321 0 319 2;
#X connect 322 0 319 3;
#X connect 323 0 319 4;
#X connect 324 0 319 5;
#X connect 325 0 319 6;
#X connect 326 0 319 7;
#X connect 327 0 319 8;
#X connect 328 0 319 9;
#X connect 329 0 319 10;
#X connect 330 0 319 11;
#X connect 342 0 336 0;
#X connect 343 0 337 0;
#X connect 344 0 338 0;
#X connect 345 0 340 0;
#X connect 346 0 341 0;
#X connect 347 0 339 0;
#X connect 348 0 331 0;
#X connect 349 0 332 0;
#X connect 350 0 333 0;
#X connect 351 0 335 0;
#X connect 352 0 334 0;
#X connect 364 0 367 0;
#X connect 368 0 135 3;
#X connect 369 0 61 0;
#X connect 370 0 372 0;
#X connect 371 0 135 0;
#X coords 0 805 1 804 670 254 0;
