#N canvas 52 20 1854 977 10;
#X obj 84 200 exp;
#X obj 84 152 *;
#X obj 84 175 +;
#X obj 162 132 log;
#X obj 237 127 log;
#X obj 187 168 t b f;
#X obj 187 190 -;
#X msg 184 104 1;
#X obj 84 223 - 1;
#X obj 231 221 - 1;
#X obj 83 377 outlet;
#X obj 83 261 /;
#X obj 84 6 inlet;
#X obj 184 8 inlet;
#X obj 327 17 loadbang;
#X obj 307 90 + 1.0001;
#X obj 322 50 f \$1;
#X text 435 66 This object scales a 0-1 input received in the first inlet into a range of 0-1 but logarithmically spaced. The first construction argument \$1 is the "factor": when 0 is almost linear \, when 127 is almost the "logarithmic" scaling of PD slider... The second inlet allow to change the "factor".;
#X connect 0 0 8 0;
#X connect 1 0 2 0;
#X connect 2 0 0 0;
#X connect 3 0 2 1;
#X connect 3 0 5 0;
#X connect 4 0 6 0;
#X connect 5 0 6 0;
#X connect 5 1 6 1;
#X connect 6 0 1 1;
#X connect 7 0 3 0;
#X connect 8 0 11 0;
#X connect 9 0 11 1;
#X connect 11 0 10 0;
#X connect 12 0 1 0;
#X connect 13 0 15 0;
#X connect 14 0 7 0;
#X connect 14 0 16 0;
#X connect 15 0 4 0;
#X connect 15 0 9 0;
#X connect 16 0 15 0;
