#N canvas 910 89 1353 977 12;
#X obj 720 598 textfile;
#X obj 720 469 until;
#X obj 720 502 i;
#X obj 755 502 + 1;
#X msg 755 441 0;
#X obj 721 372 bng 20 250 50 0 empty empty empty 0 -10 0 12 #fcfcfc #000000 #000000;
#X msg 720 563 add \$1;
#X obj 721 403 t b b b;
#X msg 794 502 clear;
#X obj 184 344 f;
#X obj 221 271 t b b f;
#X obj 185 306 delay 10;
#X obj 99 667 list append;
#X obj 100 705 list prepend;
#X obj 102 687 list trim;
#X obj 100 726 list trim;
#X obj 251 678 loadbang;
#X obj 102 802 print;
#X msg 214 654 cr;
#X msg 208 708 write;
#X obj 212 174 inlet;
#X text 199 150 preset_n;
#X obj 214 234 t f b;
#X obj 720 533 tabread;
#X obj 296 272 symbol \$1;
#X msg 297 307 set \$1;
#X obj 520 173 inlet;
#X text 500 151 n_of_preset_values;
#X obj 347 388 loadbang;
#X msg 339 556 set \$1;
#X obj 110 486 makefilename;
#X obj 365 495 file patchpath;
#X msg 367 468 symbol ../\$1;
#X obj 361 443 symbol \$2;
#X obj 100 539 makefilename;
#X obj 339 531 makefilename %s/factory_presets/%%s;
#X text 387 48 2nd argument: module abstraction folder;
#X text 390 29 1st argument: table of presets;
#X msg 503 690 set \$1;
#X obj 571 493 loadbang;
#X obj 1001 169 inlet;
#X obj 503 658 makefilename %%s%s.txt;
#X text 385 93 4th argument: file_spec;
#X obj 716 439 f \$3;
#X text 387 69 3rd argument: n of preset values;
#X obj 503 624 symbol \$4;
#X text 955 142 file_spec;
#X obj 249 636 print;
#X connect 1 0 2 0;
#X connect 2 0 3 0;
#X connect 2 0 23 0;
#X connect 3 0 2 1;
#X connect 4 0 2 1;
#X connect 5 0 7 0;
#X connect 6 0 0 0;
#X connect 7 0 43 0;
#X connect 7 1 4 0;
#X connect 7 2 8 0;
#X connect 8 0 0 0;
#X connect 9 0 30 0;
#X connect 10 0 11 0;
#X connect 10 1 5 0;
#X connect 10 2 9 1;
#X connect 11 0 9 0;
#X connect 12 0 14 0;
#X connect 13 0 15 0;
#X connect 14 0 13 0;
#X connect 15 0 17 0;
#X connect 15 0 0 0;
#X connect 16 0 19 0;
#X connect 16 0 18 0;
#X connect 18 0 12 1;
#X connect 19 0 13 1;
#X connect 20 0 22 0;
#X connect 22 0 10 0;
#X connect 22 1 24 0;
#X connect 23 0 6 0;
#X connect 24 0 25 0;
#X connect 25 0 23 0;
#X connect 26 0 43 1;
#X connect 28 0 33 0;
#X connect 29 0 30 0;
#X connect 30 0 34 0;
#X connect 31 0 35 0;
#X connect 32 0 31 0;
#X connect 33 0 32 0;
#X connect 34 0 47 0;
#X connect 34 0 12 0;
#X connect 35 0 29 0;
#X connect 38 0 34 0;
#X connect 39 0 45 0;
#X connect 40 0 41 0;
#X connect 41 0 38 0;
#X connect 43 0 1 0;
#X connect 45 0 41 0;
