#N canvas 186 136 1390 710 12;
#X declare -path ../commons;
#X obj -107 214 tabwrite seq_main_\$0;
#X obj 1071 790 == 1;
#X obj 1071 762 tabread seq_main_\$0;
#X obj -147 555 i;
#X obj -69 554 + 1;
#X obj 1070 821 sel 1;
#X obj 1071 732 r play_index_\$0;
#X obj 463 -687 table seq_main_\$0 32;
#X obj 207 467 s n_of_steps_\$0;
#X obj 239 445 loadbang;
#X msg 208 445 32;
#X obj -70 589 r n_of_steps_\$0;
#X obj -116 589 % 32;
#X obj 242 646 loadbang, f 9;
#X obj -107 47 r write_to_seq_\$0;
#X obj -101 69 r play_index_\$0;
#X obj 332 198 bng 20 250 50 0 empty empty + 7 10 1 12 #000000 #7c7c7c #ffffff;
#X obj 356 198 bng 20 250 50 0 empty empty - 8 11 1 12 #000000 #7c7c7c #ffffff;
#X obj 207 488 r preset_\$0_nsteps;
#X obj 1420 129 vsl 20 90 0 127 0 0 empty empty vol 0 -9 1 12 #000000 #ffffff #7c7c7c 0 1;
#X obj 1375 680 s glob_vol_\$0;
#X obj 1375 701 r preset_glob_vol_\$0;
#X obj 1072 1660 *~;
#X obj 1108 1657 line~;
#X obj 1407 724 loadbang;
#X obj 1069 941 delay;
#X obj 1069 886 t b b;
#X obj 1770 1507 gauss_rnd 0.8 0;
#X obj 1809 876 gauss_rnd 40 10;
#X text 1128 877 200 bpm = 75ms center - spread must always be greater than metro ms;
#X obj 216 228 hsl 105 15 0 127 0 0 empty empty microtiming 6 9 1 12 #000000 #ffffff #dfdfdf 0 1;
#X obj 205 858 s microtiming_\$0;
#X obj 205 837 r preset_microtiming_\$0;
#X obj 216 211 hsl 105 15 0 127 0 0 empty empty chance 6 9 1 12 #000000 #ffffff #dfdfdf 0 1;
#X obj 206 764 r preset_chance_\$0;
#X obj 206 743 s chance_\$0;
#X obj 1396 593 r preset_volume_rnd_\$0;
#X obj 1396 615 s volume_rnd_\$0;
#X obj 235 816 loadbang;
#X msg 205 816 0;
#X obj 1985 724 r volume_rnd_\$0;
#X msg 1115 918 0;
#X obj 332 158 bng 20 250 50 0 empty empty + 7 10 1 12 #000000 #7c7c7c #ffffff;
#X obj 356 158 bng 20 250 50 0 empty empty - 8 11 1 12 #000000 #7c7c7c #ffffff;
#X msg -76 518 0;
#X obj 105 152 internal_sync;
#X obj 111 276 s rst_\$0;
#X obj -76 486 r rst_\$0;
#X obj -147 521 bng 20 250 50 0 empty empty empty 0 -10 0 12 #fcfcfc #000000 #000000;
#X obj 1001 -45 r rst_\$0;
#N canvas 52 20 1854 977 handle_generation 0;
#X obj 281 165 euclid, f 17;
#X floatatom 331 117 5 0 0 0 - - - 0;
#X floatatom 372 117 5 0 0 0 - - - 0;
#X obj 447 117 until;
#X obj 437 154 i;
#X obj 501 154 + 1;
#X msg 503 117 0;
#X obj 284 260 pack 0 0;
#X obj 447 87 min 32;
#X obj 479 5 r n_of_steps_\$0;
#X obj 447 59 i;
#X obj 332 88 r n_of_steps_\$0;
#X obj 283 61 loadbang;
#X msg 296 88 0;
#X obj 666 215 until;
#X obj 666 248 i;
#X obj 701 248 + 1;
#X msg 666 187 32;
#X msg 701 187 0;
#X obj 667 149 t b b;
#X msg 698 309 0;
#X obj 633 333 pack 0 0;
#X obj 633 282 i;
#X obj 666 282 t b f;
#X obj 667 122 r clear_seq_\$0;
#X obj 489 33 r euc_generate_\$0;
#X obj 633 359 s write_to_seq_\$0;
#X obj 286 291 s write_to_seq_\$0;
#X obj 418 187 t f f;
#X obj 286 231 f;
#X obj 288 196 t b f;
#X obj 123 348 r n_of_steps_\$0;
#X obj 64 461 s write_to_seq_\$0;
#X obj 87 171 s clear_seq_\$0;
#X obj 63 408 t f b;
#X obj 64 434 pack 0 1;
#X msg 122 409 1;
#X obj 63 374 uziurn;
#X obj 71 143 t b b;
#X obj 72 106 r random_generate_\$0;
#X obj 82 315 *;
#X obj 82 340 i;
#X obj 95 282 t b f;
#X obj 126 237 r n_of_steps_\$0;
#X obj 253 689 s random_generate_\$0;
#X obj 253 600 t b b;
#X msg 286 631 stop;
#X obj 425 600 t b b;
#X msg 458 631 stop;
#X obj 425 689 s euc_generate_\$0;
#X obj 425 567 spigot;
#X obj 253 568 spigot;
#X obj 322 472 sel 0 1 2;
#X msg 485 538 0;
#X msg 448 539 1;
#X msg 329 538 0;
#X msg 292 539 1;
#X obj 538 539 s clear_seq_\$0;
#X obj 285 427 r type_of_fill_\$0;
#X obj 253 506 delay 1;
#X obj 363 3 *;
#X obj 363 30 i;
#X obj 376 -33 t b f;
#X obj 545 93 s clear_seq_\$0;
#X obj 512 62 t b b b;
#X obj 253 660 delay 100;
#X obj 425 660 delay 100;
#X obj 355 58 max 1;
#X obj 587 -96 r density_\$0;
#X obj 495 -104 / 127;
#X obj 88 203 / 127;
#X obj 146 204 r density_\$0;
#X connect 0 0 30 0;
#X connect 1 0 0 2;
#X connect 2 0 0 3;
#X connect 3 0 4 0;
#X connect 4 0 5 0;
#X connect 4 0 28 0;
#X connect 5 0 4 1;
#X connect 6 0 4 1;
#X connect 7 0 27 0;
#X connect 8 0 3 0;
#X connect 9 0 10 1;
#X connect 9 0 60 0;
#X connect 10 0 8 0;
#X connect 11 0 2 0;
#X connect 11 0 50 0;
#X connect 12 0 13 0;
#X connect 13 0 1 0;
#X connect 14 0 15 0;
#X connect 15 0 16 0;
#X connect 15 0 23 0;
#X connect 15 0 22 1;
#X connect 16 0 15 1;
#X connect 17 0 14 0;
#X connect 18 0 15 1;
#X connect 19 0 17 0;
#X connect 19 1 18 0;
#X connect 20 0 21 1;
#X connect 21 0 26 0;
#X connect 22 0 21 0;
#X connect 23 0 22 0;
#X connect 23 1 20 0;
#X connect 24 0 19 0;
#X connect 25 0 64 0;
#X connect 28 0 0 0;
#X connect 28 1 29 1;
#X connect 29 0 7 0;
#X connect 30 0 29 0;
#X connect 30 1 7 1;
#X connect 31 0 37 2;
#X connect 31 0 51 0;
#X connect 34 0 35 0;
#X connect 34 1 36 0;
#X connect 35 0 32 0;
#X connect 36 0 35 1;
#X connect 37 0 34 0;
#X connect 38 0 37 0;
#X connect 38 1 33 0;
#X connect 39 0 38 0;
#X connect 40 0 41 0;
#X connect 41 0 37 1;
#X connect 42 0 40 0;
#X connect 42 1 40 1;
#X connect 43 0 42 0;
#X connect 45 0 65 0;
#X connect 45 1 46 0;
#X connect 46 0 65 0;
#X connect 47 0 66 0;
#X connect 47 1 48 0;
#X connect 48 0 66 0;
#X connect 50 0 47 0;
#X connect 51 0 45 0;
#X connect 52 0 55 0;
#X connect 52 0 53 0;
#X connect 52 0 57 0;
#X connect 52 1 56 0;
#X connect 52 1 53 0;
#X connect 52 2 54 0;
#X connect 52 2 55 0;
#X connect 53 0 50 1;
#X connect 54 0 50 1;
#X connect 55 0 51 1;
#X connect 56 0 51 1;
#X connect 58 0 52 0;
#X connect 58 0 59 0;
#X connect 59 0 51 0;
#X connect 59 0 50 0;
#X connect 60 0 61 0;
#X connect 61 0 67 0;
#X connect 62 0 60 0;
#X connect 62 1 60 1;
#X connect 64 0 10 0;
#X connect 64 1 6 0;
#X connect 64 2 63 0;
#X connect 65 0 44 0;
#X connect 66 0 49 0;
#X connect 67 0 0 1;
#X connect 68 0 69 0;
#X connect 69 0 50 0;
#X connect 69 0 62 0;
#X connect 70 0 40 0;
#X connect 70 0 51 0;
#X connect 71 0 70 0;
#X restore 464 -618 pd handle_generation;
#X obj 274 169 cnv 20 45 20 empty text_canvas clear 5 12 1 12 #ffffff #404040 0;
#N canvas 362 107 1150 805 edit_seq 0;
#X obj 100 100 cnv 20 836 30 empty background_canvas empty 20 12 0 12 #e0e0e0 #404040 0;
#X obj 101 101 cnv 20 834 28 empty active_steps_\$0 empty 20 12 0 12 #7c7c7c #404040 0;
#X obj 311 102 cnv 20 26 26 empty pointer_\$0 empty 20 12 0 12 #fc2828 #404040 0;
#X obj 106 105 tgl 20 0 empty empty empty 0 -10 0 12 #000000 #000000 #000000 0 1;
#X obj 132 105 tgl 20 0 empty empty empty 0 -10 0 12 #fcfcfc #fcfcfc #000000 0 1;
#X obj 158 105 tgl 20 0 empty empty empty 0 -10 0 12 #fcfcfc #fcfcfc #000000 0 1;
#X obj 184 105 tgl 20 0 empty empty empty 0 -10 0 12 #fcfcfc #fcfcfc #000000 0 1;
#X obj 210 105 tgl 20 0 empty empty empty 0 -10 0 12 #fcfcfc #fcfcfc #000000 0 1;
#X obj 236 105 tgl 20 0 empty empty empty 0 -10 0 12 #fcfcfc #fcfcfc #000000 0 1;
#X obj 262 105 tgl 20 0 empty empty empty 0 -10 0 12 #fcfcfc #fcfcfc #000000 0 1;
#X obj 288 105 tgl 20 0 empty empty empty 0 -10 0 12 #fcfcfc #fcfcfc #000000 0 1;
#X msg 108 258 \$1 0;
#X msg 118 258 \$1 1;
#X msg 128 258 \$1 2;
#X msg 138 258 \$1 3;
#X msg 148 258 \$1 4, f 18;
#X msg 158 258 \$1 5;
#X msg 168 258 \$1 6;
#X msg 178 258 \$1 7;
#X obj 105 66 route 0 1 2 3 4 5 6 7 8 9 10 11 12 13 14 15 16 17 18 19 20 21 22 23 24 25 26 27 28 29 30 31, f 119;
#X obj 314 105 tgl 20 0 empty empty empty 0 -10 0 12 #fcfcfc #fcfcfc #000000 0 1;
#X obj 340 105 tgl 20 0 empty empty empty 0 -10 0 12 #fcfcfc #fcfcfc #000000 0 1;
#X obj 366 105 tgl 20 0 empty empty empty 0 -10 0 12 #fcfcfc #fcfcfc #000000 0 1;
#X obj 392 105 tgl 20 0 empty empty empty 0 -10 0 12 #fcfcfc #fcfcfc #000000 0 1;
#X obj 418 105 tgl 20 0 empty empty empty 0 -10 0 12 #fcfcfc #fcfcfc #000000 0 1;
#X obj 444 105 tgl 20 0 empty empty empty 0 -10 0 12 #fcfcfc #fcfcfc #000000 0 1;
#X obj 470 105 tgl 20 0 empty empty empty 0 -10 0 12 #fcfcfc #fcfcfc #000000 0 1;
#X obj 496 105 tgl 20 0 empty empty empty 0 -10 0 12 #fcfcfc #fcfcfc #000000 0 1;
#X obj 522 105 tgl 20 0 empty empty empty 0 -10 0 12 #fcfcfc #fcfcfc #000000 0 1;
#X obj 548 105 tgl 20 0 empty empty empty 0 -10 0 12 #fcfcfc #fcfcfc #000000 0 1;
#X obj 574 105 tgl 20 0 empty empty empty 0 -10 0 12 #fcfcfc #fcfcfc #000000 0 1;
#X obj 600 105 tgl 20 0 empty empty empty 0 -10 0 12 #fcfcfc #fcfcfc #000000 0 1;
#X obj 626 105 tgl 20 0 empty empty empty 0 -10 0 12 #fcfcfc #fcfcfc #000000 0 1;
#X obj 652 105 tgl 20 0 empty empty empty 0 -10 0 12 #fcfcfc #fcfcfc #000000 0 1;
#X obj 678 105 tgl 20 0 empty empty empty 0 -10 0 12 #fcfcfc #fcfcfc #000000 0 1;
#X obj 704 105 tgl 20 0 empty empty empty 0 -10 0 12 #fcfcfc #fcfcfc #000000 0 1;
#X obj 730 105 tgl 20 0 empty empty empty 0 -10 0 12 #fcfcfc #fcfcfc #000000 0 1;
#X obj 756 105 tgl 20 0 empty empty empty 0 -10 0 12 #fcfcfc #fcfcfc #000000 0 1;
#X obj 782 105 tgl 20 0 empty empty empty 0 -10 0 12 #fcfcfc #fcfcfc #000000 0 1;
#X obj 808 105 tgl 20 0 empty empty empty 0 -10 0 12 #fcfcfc #fcfcfc #000000 0 1;
#X obj 834 105 tgl 20 0 empty empty empty 0 -10 0 12 #fcfcfc #fcfcfc #000000 0 1;
#X obj 860 105 tgl 20 0 empty empty empty 0 -10 0 12 #fcfcfc #fcfcfc #000000 0 1;
#X obj 886 105 tgl 20 0 empty empty empty 0 -10 0 12 #fcfcfc #fcfcfc #000000 0 1;
#X obj 912 105 tgl 20 0 empty empty empty 0 -10 0 12 #fcfcfc #fcfcfc #000000 0 1;
#X msg 187 258 \$1 8;
#X msg 197 258 \$1 9;
#X msg 207 258 \$1 10;
#X msg 217 258 \$1 11;
#X msg 227 258 \$1 12;
#X msg 237 258 \$1 13;
#X msg 247 258 \$1 14;
#X msg 257 258 \$1 15;
#X msg 267 258 \$1 16;
#X msg 277 258 \$1 17;
#X msg 287 258 \$1 18;
#X msg 297 258 \$1 19;
#X msg 307 258 \$1 20;
#X msg 317 258 \$1 21;
#X msg 327 258 \$1 22;
#X msg 337 258 \$1 23;
#X msg 347 258 \$1 24;
#X msg 357 258 \$1 25;
#X msg 367 258 \$1 26;
#X msg 377 258 \$1 27;
#X msg 387 258 \$1 28;
#X msg 397 258 \$1 29;
#X msg 407 258 \$1 30;
#X msg 416 258 \$1 31, f 6;
#X obj 108 358 outlet;
#X obj 107 28 inlet;
#X obj -78 198 sel 0 1;
#X obj -78 169 unpack 0 0;
#X msg -32 258 \$1 color 22 22;
#X msg -138 259 \$1 color 0 0;
#X obj -32 231 f;
#X obj -72 230 f;
#X obj 506 480 f \$0;
#X obj 507 592 pack 0 0;
#X obj 438 519 i;
#X obj 467 580 + 2;
#X obj 307 545 f \$0;
#X obj 255 575 pack 0 0;
#X obj 234 490 i;
#X msg 247 617 \; pointer_\$2 pos \$1 102;
#X obj 91 561 f \$0;
#X obj 92 532 bng 20 250 50 0 empty empty empty 0 -10 0 12 #fcfcfc #000000 #000000;
#X obj 236 518 * 26;
#X obj 441 548 * 26;
#X obj 510 447 loadbang;
#X obj 307 513 loadbang;
#X obj 490 32 inlet;
#X obj 874 34 inlet;
#X msg 577 531 -1;
#X obj 599 475 bng 20 250 50 0 empty empty empty 0 -10 0 12 #fcfcfc #000000 #000000;
#X obj 68 502 loadbang;
#X obj 763 490 f \$0;
#X obj 764 461 bng 20 250 50 0 empty empty empty 0 -10 0 12 #fcfcfc #000000 #000000;
#X obj 740 431 loadbang;
#X msg 507 620 \; active_steps_\$2 vis_size \$1 28;
#X msg 92 622 \; pointer_\$1 color 13;
#X obj -103 563 f \$0;
#X obj -102 534 bng 20 250 50 0 empty empty empty 0 -10 0 12 #fcfcfc #000000 #000000;
#X obj -126 504 loadbang;
#X text -104 598 active steps bar color;
#X text 104 597 pointer color;
#X text -30 278 on step color;
#X text -145 279 off step color;
#X msg 695 532 \; active_steps_\$1 pos 101 101;
#X obj 245 547 + 103;
#X msg -103 626 \; active_steps_\$1 color 11;
#X connect 3 0 11 0;
#X connect 4 0 12 0;
#X connect 5 0 13 0;
#X connect 6 0 14 0;
#X connect 7 0 15 0;
#X connect 8 0 16 0;
#X connect 9 0 17 0;
#X connect 10 0 18 0;
#X connect 11 0 68 0;
#X connect 11 0 71 0;
#X connect 12 0 68 0;
#X connect 12 0 71 0;
#X connect 13 0 68 0;
#X connect 13 0 71 0;
#X connect 14 0 68 0;
#X connect 14 0 71 0;
#X connect 15 0 68 0;
#X connect 15 0 71 0;
#X connect 16 0 68 0;
#X connect 16 0 71 0;
#X connect 17 0 68 0;
#X connect 17 0 71 0;
#X connect 18 0 68 0;
#X connect 18 0 71 0;
#X connect 19 0 3 0;
#X connect 19 1 4 0;
#X connect 19 2 5 0;
#X connect 19 3 6 0;
#X connect 19 4 7 0;
#X connect 19 5 8 0;
#X connect 19 6 9 0;
#X connect 19 7 10 0;
#X connect 19 8 20 0;
#X connect 19 9 21 0;
#X connect 19 10 22 0;
#X connect 19 11 23 0;
#X connect 19 12 24 0;
#X connect 19 13 25 0;
#X connect 19 14 26 0;
#X connect 19 15 27 0;
#X connect 19 16 28 0;
#X connect 19 17 29 0;
#X connect 19 18 30 0;
#X connect 19 19 31 0;
#X connect 19 20 32 0;
#X connect 19 21 33 0;
#X connect 19 22 34 0;
#X connect 19 23 35 0;
#X connect 19 24 36 0;
#X connect 19 25 37 0;
#X connect 19 26 38 0;
#X connect 19 27 39 0;
#X connect 19 28 40 0;
#X connect 19 29 41 0;
#X connect 19 30 42 0;
#X connect 19 31 43 0;
#X connect 20 0 44 0;
#X connect 21 0 45 0;
#X connect 22 0 46 0;
#X connect 23 0 47 0;
#X connect 24 0 48 0;
#X connect 25 0 49 0;
#X connect 26 0 50 0;
#X connect 27 0 51 0;
#X connect 28 0 52 0;
#X connect 29 0 53 0;
#X connect 30 0 54 0;
#X connect 31 0 55 0;
#X connect 32 0 56 0;
#X connect 33 0 57 0;
#X connect 34 0 58 0;
#X connect 35 0 59 0;
#X connect 36 0 60 0;
#X connect 37 0 61 0;
#X connect 38 0 62 0;
#X connect 39 0 63 0;
#X connect 40 0 64 0;
#X connect 41 0 65 0;
#X connect 42 0 66 0;
#X connect 43 0 67 0;
#X connect 44 0 68 0;
#X connect 44 0 71 0;
#X connect 45 0 68 0;
#X connect 45 0 71 0;
#X connect 46 0 68 0;
#X connect 46 0 71 0;
#X connect 47 0 68 0;
#X connect 47 0 71 0;
#X connect 48 0 68 0;
#X connect 48 0 71 0;
#X connect 49 0 68 0;
#X connect 49 0 71 0;
#X connect 50 0 68 0;
#X connect 50 0 71 0;
#X connect 51 0 68 0;
#X connect 51 0 71 0;
#X connect 52 0 68 0;
#X connect 52 0 71 0;
#X connect 53 0 68 0;
#X connect 53 0 71 0;
#X connect 54 0 68 0;
#X connect 54 0 71 0;
#X connect 55 0 68 0;
#X connect 55 0 71 0;
#X connect 56 0 68 0;
#X connect 56 0 71 0;
#X connect 57 0 68 0;
#X connect 57 0 71 0;
#X connect 58 0 68 0;
#X connect 58 0 71 0;
#X connect 59 0 68 0;
#X connect 59 0 71 0;
#X connect 60 0 68 0;
#X connect 60 0 71 0;
#X connect 61 0 68 0;
#X connect 61 0 71 0;
#X connect 62 0 68 0;
#X connect 62 0 71 0;
#X connect 63 0 68 0;
#X connect 63 0 71 0;
#X connect 64 0 68 0;
#X connect 64 0 71 0;
#X connect 65 0 68 0;
#X connect 65 0 71 0;
#X connect 66 0 68 0;
#X connect 66 0 71 0;
#X connect 67 0 68 0;
#X connect 67 0 71 0;
#X connect 69 0 19 0;
#X connect 70 0 75 0;
#X connect 70 1 74 0;
#X connect 71 0 70 0;
#X connect 71 1 74 1;
#X connect 71 1 75 1;
#X connect 72 0 19 0;
#X connect 73 0 19 0;
#X connect 74 0 72 0;
#X connect 75 0 73 0;
#X connect 76 0 77 1;
#X connect 77 0 98 0;
#X connect 78 0 87 0;
#X connect 79 0 77 0;
#X connect 80 0 81 1;
#X connect 81 0 83 0;
#X connect 82 0 86 0;
#X connect 84 0 99 0;
#X connect 85 0 84 0;
#X connect 86 0 108 0;
#X connect 87 0 79 0;
#X connect 88 0 76 0;
#X connect 89 0 80 0;
#X connect 90 0 82 0;
#X connect 91 0 78 0;
#X connect 92 0 77 0;
#X connect 93 0 76 0;
#X connect 94 0 84 0;
#X connect 95 0 107 0;
#X connect 96 0 95 0;
#X connect 97 0 95 0;
#X connect 100 0 109 0;
#X connect 101 0 100 0;
#X connect 102 0 100 0;
#X connect 108 0 81 0;
#X coords 0 -1 1 1 836 30 2 100 100;
#X restore 100 100 pd edit_seq;
#X obj -93 90 r n_of_steps_\$0;
#X obj 207 535 s type_of_fill_\$0;
#X obj 216 194 hsl 105 15 0 127 0 0 empty empty density 6 9 1 12 #000000 #ffffff #dfdfdf 0 1;
#X msg 207 647 64;
#X obj 213 146 nbx 2 20 2 32 0 0 empty empty empty 0 -10 1 12 #000000 #ffffff #000000 0 256;
#X obj 246 146 cnv 20 30 20 empty text_canvas steps 2 11 1 12 #ffffff #404040 0;
#X obj 332 221 nbx 3 20 1 999 0 0 empty empty empty 0 -10 1 12 #000000 #ffffff #000000 0 256;
#X obj 330 179 cnv 10 50 10 empty folder_label_\$0 low 2 12 1 12 #ffffff #7c7c7c 0;
#X msg -212 304 \; background_canvas color 10;
#X msg -212 360 \; text_canvas color 10;
#X obj 977 258 s x_\$0;
#X obj 1007 281 s y_\$0;
#X obj 1000 1819 r y_\$0;
#X obj 948 1817 r x_\$0;
#X obj 289 555 loadbang;
#X obj 228 556 delay 10;
#X msg 206 556 0;
#X obj 1071 1310 tabread4~ sample_\$0;
#X obj 1271 1177 r sample_len_\$0;
#X obj 1070 1257 line~;
#X obj 1070 1280 *~;
#X obj 1071 1099 f;
#X msg 1070 1220 0 \, 1 \$1;
#X msg 996 1221 1 \, 0 \$1;
#X obj 996 1179 spigot;
#X obj 1070 1179 spigot;
#X obj 1094 1143 == 0;
#X obj 463 158 vsl 20 58 0 127 0 0 empty empty pch 0 -9 1 12 #000000 #ffffff #7c7c7c 0 1;
#X obj 486 158 vsl 10 80 0 127 0 0 empty empty empty 0 -9 1 12 #000000 #ffffff #7c7c7c 0 1;
#X obj 468 768 s pitch_\$0;
#X obj 1886 1047 r pitch_\$0;
#X obj 490 876 s random_pitch_amt_\$0;
#X obj 1931 1533 r random_pitch_amt_\$0;
#X obj 1111 1065 r pitch_randomized_\$0;
#X obj 1109 1099 r reverse_\$0;
#X obj 414 221 tgl 20 0 empty empty rev 1 11 1 12 #fcfcfc #000000 #7c7c7c 0 1;
#X obj 422 1271 s reverse_\$0;
#X obj 1101 1011 s randomize_now_\$0;
#X obj 1639 750 r randomize_now_\$0;
#X obj 1069 979 t b b;
#X obj 1806 829 r rst_\$0;
#X obj 1784 1478 r rst_\$0;
#X obj 1420 224 tgl 20 0 empty empty m 5 11 1 12 #fcfcfc #000000 #7c7c7c 0 1;
#X obj 1372 481 s mute_\$0;
#X obj 1089 1466 line~;
#X obj 1071 1506 *~;
#X msg 1089 1439 0 \, 1 \$1;
#X obj 1156 1387 delay 10;
#X obj 1089 1414 f;
#X obj 1156 1413 f;
#X obj 1019 1310 bng 20 250 50 0 empty empty empty 0 -10 0 12 #fcfcfc #000000 #000000;
#X obj 1226 1310 r env_attack_\$0;
#X obj 1194 1413 r env_decay_\$0;
#X obj 414 158 vsl 20 58 0 127 0 0 empty empty env 0 -9 1 12 #000000 #ffffff #7c7c7c 0 1;
#X obj 447 1179 loadbang;
#X obj 500 788 loadbang;
#X msg 491 897 0;
#X msg 467 788 64;
#X obj 453 1292 loadbang;
#X msg 422 1293 0;
#X msg 1140 1466 0 \$1;
#N canvas 151 119 1180 766 build_envelope 0;
#X floatatom 300 340 5 0 100 0 - - - 0;
#X floatatom 471 274 4 0 1 0 - - - 0;
#X obj 286 434 *;
#X obj 343 433 *;
#X obj 314 374 expr 1 - $f1;
#X obj 435 373 expr 1 - $f1;
#X obj 384 302 t b f;
#X obj 271 215 t f b;
#X obj 218 564 *;
#X obj 360 564 *;
#X obj 184 517 t b f;
#X obj 384 521 t b f;
#X obj 284 478 f;
#X obj 504 553 *;
#X obj 527 522 t b f;
#X obj 218 606 i;
#X obj 360 598 i;
#X obj 504 595 i;
#X obj 357 185 expr 1 - abs($f1 - 0.5) * 2;
#X obj 342 151 / 127;
#X obj 431 44 inlet;
#X obj 92 96 inlet;
#X text 409 14 Envelope Shape (MIDI);
#X text 69 54 Envelope Length (ms);
#X obj 379 664 outlet;
#X text 232 692 attack ms;
#X text 376 687 decay ms;
#X text 553 695 sustain ms;
#X obj 521 668 outlet;
#X obj 219 664 outlet;
#X obj 368 89 sel 64;
#X msg 418 126 0.5;
#X connect 0 0 4 0;
#X connect 0 0 2 0;
#X connect 1 0 6 0;
#X connect 1 0 13 0;
#X connect 2 0 8 0;
#X connect 3 0 9 0;
#X connect 4 0 3 0;
#X connect 5 0 3 1;
#X connect 5 0 2 1;
#X connect 6 0 0 0;
#X connect 6 1 5 0;
#X connect 7 0 0 0;
#X connect 7 1 1 0;
#X connect 8 0 15 0;
#X connect 9 0 16 0;
#X connect 10 0 8 0;
#X connect 10 1 8 1;
#X connect 11 0 9 0;
#X connect 11 1 9 1;
#X connect 12 0 10 0;
#X connect 12 0 11 0;
#X connect 12 0 14 0;
#X connect 13 0 17 0;
#X connect 14 0 13 0;
#X connect 14 1 13 1;
#X connect 15 0 29 0;
#X connect 16 0 24 0;
#X connect 17 0 28 0;
#X connect 18 0 1 0;
#X connect 19 0 18 0;
#X connect 19 0 7 0;
#X connect 20 0 30 0;
#X connect 21 0 12 0;
#X connect 30 0 31 0;
#X connect 30 1 19 0;
#X connect 31 0 18 0;
#X restore 2109 900 pd build_envelope;
#X obj 2109 977 s env_attack_\$0;
#X obj 2167 952 s env_decay_\$0;
#X msg 422 1179 64;
#X obj 1930 1184 / 127;
#X obj 1860 1114 sel 64;
#X msg 1853 1186 0;
#X obj 422 1157 s env_\$0;
#X obj 2225 843 r env_\$0;
#X obj 1879 721 r glob_vol_\$0;
#X obj 1133 1598 r volume_randomized_\$0;
#X obj 1784 953 s volume_randomized_\$0;
#X msg 1123 1630 \$1 2;
#X obj 1926 829 *;
#X obj 1890 778 t b f;
#X obj 463 221 tgl 20 0 empty empty w 5 11 1 12 #fcfcfc #000000 #7c7c7c 0 1;
#X obj 2051 1205 sel 0 1;
#X obj 2057 1118 tgl 20 0 empty empty empty 0 -10 0 12 #fcfcfc #000000 #000000 0 1;
#X msg 2032 1232 1;
#X obj 2025 1300 r sample_len_ms_\$0;
#X obj 1279 1243 s sample_len_ms_\$0;
#X msg 2081 1257 15;
#X obj 498 691 loadbang;
#X msg 468 691 0;
#X obj 1157 1439 max 2;
#X obj 1858 1089 f;
#X obj 1978 1113 bng 20 250 50 0 empty empty empty 0 -10 0 12 #fcfcfc #000000 #000000;
#X floatatom 1254 1274 5 0 0 0 - - - 0;
#X obj 1930 1218 - 0.5;
#X obj 1898 1260 moses 0;
#X obj 1905 1328 + 1;
#X obj 1963 1299 * 20;
#X obj 1888 1296 * 1.5;
#X msg 2032 1258 2;
#X obj 1907 1387 *;
#X obj 1958 1354 t b f;
#X msg 2081 1231 1.9;
#X obj 1872 1143 expr 127 - $f1;
#X text 2149 1236 TO_DO: 2-Valutare variazione random pitch amt in base al pitch centrale (per ora è semplicemente 0-127);
#X obj 1443 141 vsl 10 100 0 127 0 0 empty empty empty 0 -9 1 12 #000000 #ffffff #7c7c7c 0 1;
#X obj 1424 570 loadbang;
#X msg 1394 570 0;
#X obj 233 721 loadbang;
#X msg 206 721 0;
#X obj 213 170 hradio 20 1 0 3 empty empty empty 0 -10 0 12 #fcfcfc #000000 #000000 0;
#X obj 522 899 loadbang;
#X obj 325 350 r to_samp_n_\$0;
#X obj 327 329 s from_samp_n_\$0;
#N canvas 682 111 1150 805 handle_sample_selection 0;
#X obj 247 105 i;
#X obj 417 105 i;
#X obj 449 111 - 1;
#X obj 282 112 + 1;
#X obj 520 104 s load_sample_\$0;
#X obj 186 194 r preset_\$0_sample;
#X obj 531 154 loadbang;
#X obj 419 336 sel 0 1 2 3 4 5;
#X floatatom 824 446 5 0 127 0 - - - 0;
#X obj 732 365 i;
#X obj 813 365 i;
#X obj 841 365 - 1;
#X obj 771 364 + 1;
#X obj 958 289 loadbang;
#X obj 911 562 s set_kit_\$0;
#X obj 844 394 max 0;
#X obj 931 403 r preset_\$0_kit;
#X msg 956 355 0;
#X obj 734 416 min 5;
#X obj 421 438 f \$0;
#X msg 528 493 crackles;
#X msg 528 473 high;
#X msg 527 451 low;
#X msg 526 430 hihat;
#X msg 525 408 snare;
#X msg 526 387 kick;
#X obj 342 437 pack s 0;
#X msg 342 469 \; folder_label_\$2 label \$1;
#X obj 379 380 loadbang;
#X obj 362 245 s to_samp_n_\$0;
#X obj 481 31 r from_samp_n_\$0;
#X obj 58 583 soundfiler;
#X obj 154 501 f \$0;
#X obj 137 583 table sample_\$0 10;
#X obj 55 428 r load_sample_\$0;
#X obj 221 470 loadbang;
#X obj 58 533 pack 0 0 0;
#X obj 96 456 r set_kit_\$0;
#X obj 248 718 tabplay~ sample_\$0;
#X obj 248 680 bng 20 250 50 0 empty empty empty 0 -10 0 12 #fcfcfc #000000 #000000;
#X obj 59 636 s sample_len_\$0;
#X obj 248 747 *~ 0.4;
#X obj 247 776 s~ sample_preview_\$0;
#X obj 955 318 delay 100;
#X obj 527 181 delay 100;
#X obj 375 29 r sample-_\$0;
#X obj 231 23 r sample+_\$0;
#X obj 660 313 r folder+_\$0;
#X obj 809 314 r folder-_\$0;
#X obj 453 144 max 0;
#X msg 508 208 0;
#X obj 793 486 bng 20 250 50 0 empty empty empty 0 -10 0 12 #fcfcfc #000000 #000000;
#X obj 475 805 list append;
#X obj 475 556 t a a;
#X obj 478 854 list prepend;
#X obj 478 825 list trim;
#X obj 478 875 list trim;
#X obj 582 860 loadbang;
#X obj 478 894 print;
#X msg 590 792 sample_\$3;
#X msg 577 886 read -resize;
#X obj 488 710 makefilename %s/%%s;
#X msg 488 735 set \$1;
#X obj 475 765 makefilename tbd;
#X msg 475 600 symbol dm_samples/\$2/\$1.wav;
#X obj 488 681 r current_path_\$0;
#X obj 713 598 loadbang;
#X msg 713 622 symbol ./factory_samples;
#X connect 0 0 3 0;
#X connect 1 0 2 0;
#X connect 2 0 49 0;
#X connect 3 0 29 0;
#X connect 3 0 7 0;
#X connect 5 0 29 0;
#X connect 6 0 44 0;
#X connect 7 0 25 0;
#X connect 7 1 24 0;
#X connect 7 2 23 0;
#X connect 7 3 22 0;
#X connect 7 4 21 0;
#X connect 7 5 20 0;
#X connect 8 0 10 1;
#X connect 8 0 9 1;
#X connect 8 0 14 0;
#X connect 8 0 51 0;
#X connect 9 0 12 0;
#X connect 10 0 11 0;
#X connect 11 0 15 0;
#X connect 12 0 18 0;
#X connect 13 0 43 0;
#X connect 15 0 8 0;
#X connect 16 0 8 0;
#X connect 17 0 8 0;
#X connect 18 0 8 0;
#X connect 19 0 26 1;
#X connect 20 0 26 0;
#X connect 21 0 26 0;
#X connect 22 0 26 0;
#X connect 23 0 26 0;
#X connect 24 0 26 0;
#X connect 25 0 26 0;
#X connect 26 0 27 0;
#X connect 28 0 19 0;
#X connect 30 0 4 0;
#X connect 30 0 0 1;
#X connect 30 0 1 1;
#X connect 31 0 40 0;
#X connect 31 1 39 0;
#X connect 32 0 36 2;
#X connect 34 0 36 0;
#X connect 35 0 32 0;
#X connect 36 0 53 0;
#X connect 37 0 36 1;
#X connect 38 0 41 0;
#X connect 39 0 38 0;
#X connect 41 0 42 0;
#X connect 43 0 17 0;
#X connect 44 0 50 0;
#X connect 45 0 1 0;
#X connect 46 0 0 0;
#X connect 47 0 9 0;
#X connect 48 0 10 0;
#X connect 49 0 29 0;
#X connect 49 0 7 0;
#X connect 50 0 29 0;
#X connect 51 0 29 0;
#X connect 52 0 55 0;
#X connect 53 0 64 0;
#X connect 53 1 59 0;
#X connect 54 0 56 0;
#X connect 55 0 54 0;
#X connect 56 0 58 0;
#X connect 56 0 31 0;
#X connect 57 0 60 0;
#X connect 59 0 52 1;
#X connect 60 0 54 1;
#X connect 61 0 62 0;
#X connect 62 0 63 0;
#X connect 63 0 52 0;
#X connect 64 0 63 0;
#X connect 65 0 61 0;
#X connect 66 0 67 0;
#X connect 67 0 61 0;
#X restore 464 -596 pd handle_sample_selection;
#X obj 466 671 s micro_wide_pitch_\$0;
#X obj 2091 1094 r micro_wide_pitch_\$0;
#X obj 421 1200 r preset_env_\$0;
#X obj 423 1315 r preset_reverse_\$0;
#X obj 468 810 r preset_pitch_\$0;
#X obj 490 920 r preset_random_pitch_amt_\$0;
#X obj 466 712 r preset_micro_wide_pitch_\$0;
#X obj 1883 750 / 127;
#X obj 1954 782 / 127;
#X obj 1372 501 r preset_mute_\$0;
#X obj 1416 522 loadbang;
#X msg 1374 521 0;
#X obj 1072 1703 *~;
#X obj 1352 1514 r mute_\$0;
#X obj 1378 1645 line~;
#X obj 1369 1546 sel 0 1;
#X msg 1348 1602 1 10;
#X obj 885 1622 r~ sample_preview_\$0;
#X msg 1397 1602 0 10;
#X obj 1317 1342 r env_hold_\$0;
#X obj 2225 929 s env_hold_\$0;
#X obj 2109 842 r env_length_\$0;
#X obj 1998 1502 s env_length_\$0;
#X obj 2043 1332 r hit_length_\$0;
#X obj 1964 1466 max 20;
#X obj 1935 1435 *;
#X obj 1984 1395 t b f;
#X obj 438 158 vsl 20 80 0 127 0 0 empty empty len 3 -9 1 12 #000000 #ffffff #7c7c7c 0 1;
#X obj 447 992 s hit_length_\$0;
#X obj 479 1015 loadbang;
#X msg 446 1014 127;
#X obj 448 1037 r preset_hit_length_\$0;
#X obj 2005 1364 / 127;
#X obj 1225 1360 +;
#X obj 1270 1370 t b f;
#X obj 1028 856 bng 20 250 50 0 empty empty empty 0 -10 0 12 #fcfcfc #000000 #000000;
#X floatatom 1883 1549 5 0 0 0 - - - 0;
#X floatatom 1930 1581 5 0 0 0 - - - 0;
#X floatatom 2074 1379 5 0 0 0 - - - 0;
#X floatatom 2196 1333 5 0 0 0 - - - 0;
#X floatatom 2113 1025 5 0 0 0 - - - 0;
#X floatatom 2171 1019 5 0 0 0 - - - 0;
#X floatatom 2242 1005 5 0 0 0 - - - 0;
#X obj 1763 1584 s pitch_randomized_\$0;
#X obj 447 1058 r reset_\$0;
#X obj 466 732 r reset_\$0;
#X obj 421 1223 r reset_\$0;
#X obj 423 1339 r reset_\$0;
#X obj 468 833 r reset_\$0;
#X obj 488 945 r reset_\$0;
#X obj 397 1088 s reset_\$0;
#X obj 387 138 bng 20 250 50 0 empty empty empty 0 -10 0 12 #fcfcfc #000000 #000000;
#X obj 377 1112 s audition_env_\$0;
#X obj 378 222 bng 20 250 50 0 empty empty empty 0 -10 0 12 #fcfcfc #000000 #000000;
#X obj 934 809 r audition_env_\$0;
#N canvas 151 119 1117 828 chance 0;
#X obj 150 227 bng 20 250 50 0 empty empty empty 0 -10 0 12 #fcfcfc #000000 #000000;
#X obj 204 350 random 100;
#X obj 194 219 / 127;
#X obj 194 244 * 100;
#X obj 153 421 bng 20 250 50 0 empty empty empty 0 -10 0 12 #fcfcfc #000000 #000000;
#X obj 152 312 spigot;
#X obj 204 312 spigot;
#X msg 280 224 0;
#X msg 277 263 1;
#X msg 321 224 1;
#X msg 318 263 0;
#X obj 44 34 inlet;
#X obj 198 44 inlet;
#X text 34 9 bang;
#X text 192 15 chance (MIDI);
#X obj 352 171 loadbang;
#X obj 142 556 outlet;
#X text 140 582 bang;
#X floatatom 290 404 5 0 0 0 - - - 0;
#X obj 218 437 sel 1;
#X obj 280 199 sel 0;
#X obj 212 395 >;
#X connect 0 0 5 0;
#X connect 0 0 6 0;
#X connect 1 0 18 0;
#X connect 1 0 21 0;
#X connect 2 0 3 0;
#X connect 3 0 21 1;
#X connect 4 0 16 0;
#X connect 5 0 4 0;
#X connect 6 0 1 0;
#X connect 7 0 6 1;
#X connect 7 0 8 0;
#X connect 8 0 5 1;
#X connect 9 0 10 0;
#X connect 9 0 6 1;
#X connect 10 0 5 1;
#X connect 11 0 0 0;
#X connect 12 0 2 0;
#X connect 12 0 20 0;
#X connect 15 0 7 0;
#X connect 19 0 4 0;
#X connect 20 0 7 0;
#X connect 20 1 9 0;
#X connect 21 0 19 0;
#X restore 1070 857 pd chance;
#X obj 1133 824 r chance_\$0;
#X obj 114 299 s sync_\$0;
#X obj 112 323 s div_\$0;
#X obj 160 -126 r preset_sync_\$0;
#X obj 179 -97 r preset_div_\$0;
#X obj 124 38 bng 20 250 50 0 empty empty rst 0 -10 0 12 #fcfcfc #000000 #000000;
#X obj 1025 -7 bng 20 250 50 0 empty empty rst 0 -10 0 12 #fcfcfc #000000 #000000;
#X obj 1796 914 max 0;
#X obj 1870 1463 max 20;
#X obj 207 578 r preset_type_of_fill_\$0;
#X obj 206 627 s density_\$0;
#X obj 206 669 r preset_density_\$0;
#X obj 351 419 s sample-_\$0;
#X obj 326 442 s sample+_\$0;
#X obj 352 372 s folder-_\$0;
#X obj 327 393 s folder+_\$0;
#X text 381 -381 MIDI implementation \; every parameter can be saved. it sends out a value that is saved into a table and can be recalled and sent again to the controller via the preset_value name (eg. preset_sync). The midi implementation works in the same way: whenever a controller is moved it sends out a midi value and the controller can be used via midi by routing the value through the preset_value name. There are also controllers that aren't saved (eg reset buttons...). They have only midi control (sometimes only in (eg. sample+) \, sometimes only out (eg. sample_n));
#X obj 587 142 filter_selection;
#X obj 504 141 wavefold;
#X obj 1071 1533 s~ to_fold_\$0;
#X obj 504 63 r~ to_fold_\$0;
#X obj 777 256 s~ from_flanger_\$0;
#X obj 1072 1568 r~ from_flanger_\$0;
#X obj 1406 121 vradio 10 1 0 4 empty empty empty 0 -10 0 12 #fcfcfc #000000 #000000 0;
#X obj 524 419 s set_preset_fold_\$0;
#X obj 545 490 s set_preset_fold_stgs_\$0;
#X obj 525 395 r preset_fold_\$0;
#X obj 545 469 r preset_fold_stgs_\$0;
#X obj 554 440 loadbang;
#X msg 524 440 0;
#X obj 574 511 loadbang;
#X msg 544 511 0;
#X obj 631 299 loadbang;
#X obj 602 260 r preset_filt_typ_\$0;
#X obj 601 279 s set_preset_filt_typ_\$0;
#X obj 645 363 loadbang;
#X msg 615 363 0;
#X obj 615 345 s set_preset_filt_frq_\$0;
#X obj 615 324 r preset_filt_frq_\$0;
#X obj 699 427 loadbang;
#X msg 669 427 0;
#X obj 668 408 s set_preset_filt_q_\$0;
#X obj 666 389 r preset_filt_q_\$0;
#X msg 601 299 6;
#X obj 1282 178 lfo;
#X obj 1405 189 vradio 10 1 0 4 empty empty empty 0 -10 0 12 #fcfcfc #000000 #000000 0;
#X obj 2061 -598 loadbang;
#X msg 2032 -597 0;
#X obj 2086 -527 loadbang;
#X msg 2057 -526 0;
#X obj 2103 -455 loadbang;
#X obj 2031 -639 r preset_lfo2_frq_\$0;
#X obj 2031 -618 s set_preset_lfo2_frq_\$0;
#X obj 1738 -275 loadbang;
#X msg 1709 -274 0;
#X obj 1706 -315 r preset_lfo1_ass_\$0;
#X obj 1708 -295 s set_preset_lfo1_ass_\$0;
#X obj 2126 -152 loadbang;
#X msg 2097 -151 0;
#X obj 2094 -192 r preset_lfo2_ass_\$0;
#X obj 2096 -172 s set_preset_lfo2_ass_\$0;
#X obj 946 160 vradio 17 1 0 5 empty empty racket -3 -10 1 12 #fcfcfc #000000 #7c7c7c 0;
#X obj 944 412 s rack_div_\$0;
#X obj 599 22 sig~;
#X msg 599 -8 1;
#X obj 966 162 vsl 10 80 0 127 0 0 empty empty empty 0 -9 1 12 #000000 #ffffff #7c7c7c 0 1;
#X obj 963 479 s rack_rnd_\$0;
#N canvas 225 102 686 973 handle_racketing 0;
#X obj 20 51 inlet;
#X obj 76 640 outlet;
#X obj 325 154 random 100;
#X obj 355 65 sel 0;
#X obj 325 126 spigot;
#X msg 376 94 1;
#X msg 342 94 0;
#X obj 326 33 r rack_rnd_\$0;
#X obj 97 321 spigot;
#X obj 287 273 tgl 20 0 empty empty empty 0 -10 0 12 #fcfcfc #000000 #000000 0 1;
#X obj 144 465 i;
#X obj 180 464 + 1;
#X msg 176 400 0;
#X obj 87 432 spigot;
#X msg 111 397 1;
#X msg 96 504 0;
#X obj 97 283 bng 20 250 50 0 empty empty empty 0 -10 0 12 #fcfcfc #000000 #000000;
#X obj 170 536 bng 20 250 50 0 empty empty empty 0 -10 0 12 #fcfcfc #000000 #000000;
#X obj 150 366 t b b b b;
#X obj 241 335 i;
#X obj 144 433 delay 100;
#X obj 241 360 / 8;
#X text 60 373 racketing;
#X obj 112 33 r rack_div_\$0;
#X obj 102 202 max 2;
#X obj 135 506 sel 8;
#X obj 287 342 sel 0;
#X msg 286 378 0;
#X obj 339 272 random 4;
#X obj 339 297 + 1;
#X obj 446 110 / 127;
#X obj 446 135 * 100;
#X obj 375 343 s preset_rack_div_\$0;
#X obj 115 136 sel 0 1 2 3 4;
#X msg 114 167 0;
#X msg 130 166 2;
#X msg 147 166 4;
#X msg 168 167 8, f 4;
#X msg 191 166 16, f 4;
#X obj 350 209 sel 1;
#X msg 408 251 0;
#X obj 351 182 < 50;
#X obj 175 241 r bpm_\$0;
#X connect 0 0 16 0;
#X connect 0 0 4 0;
#X connect 2 0 41 0;
#X connect 3 0 6 0;
#X connect 3 1 5 0;
#X connect 3 1 30 0;
#X connect 4 0 2 0;
#X connect 5 0 4 1;
#X connect 6 0 4 1;
#X connect 6 0 32 0;
#X connect 7 0 3 0;
#X connect 8 0 18 0;
#X connect 9 0 8 1;
#X connect 9 0 26 0;
#X connect 10 0 11 0;
#X connect 10 0 25 0;
#X connect 11 0 10 1;
#X connect 12 0 10 1;
#X connect 13 0 20 0;
#X connect 14 0 13 1;
#X connect 15 0 13 1;
#X connect 16 0 8 0;
#X connect 17 0 13 0;
#X connect 17 0 1 0;
#X connect 18 0 20 0;
#X connect 18 1 14 0;
#X connect 18 2 12 0;
#X connect 18 3 19 0;
#X connect 19 0 21 0;
#X connect 20 0 10 0;
#X connect 21 0 20 1;
#X connect 23 0 33 0;
#X connect 23 0 9 0;
#X connect 24 0 21 1;
#X connect 24 0 25 1;
#X connect 25 0 15 0;
#X connect 25 1 17 0;
#X connect 26 0 27 0;
#X connect 27 0 13 1;
#X connect 28 0 29 0;
#X connect 29 0 32 0;
#X connect 30 0 31 0;
#X connect 31 0 41 1;
#X connect 33 0 34 0;
#X connect 33 1 35 0;
#X connect 33 2 36 0;
#X connect 33 3 37 0;
#X connect 33 4 38 0;
#X connect 34 0 24 0;
#X connect 35 0 24 0;
#X connect 36 0 24 0;
#X connect 37 0 24 0;
#X connect 38 0 24 0;
#X connect 39 0 28 0;
#X connect 39 1 40 0;
#X connect 40 0 32 0;
#X connect 41 0 39 0;
#X connect 42 0 19 1;
#X restore 923 1041 pd handle_racketing;
#X obj 944 457 r preset_rack_div_\$0;
#X obj 971 435 loadbang;
#X msg 944 435 0;
#X obj 331 138 cnv 10 20 10 empty empty kit_n 2 12 1 12 #ffffff #7c7c7c 0;
#X obj 990 501 loadbang;
#X msg 963 501 0;
#X obj 962 523 r preset_rack_rnd_\$0;
#X obj 978 161 quad_pan_automation;
#X obj 1099 105 fx_chain;
#X obj 1020 1733 s~ to_fx_chain_\$0;
#X obj 1069 19 r~ to_fx_chain_\$0;
#X obj 1051 60 s~ from_fx_chain_\$0;
#X text 589 -40 fixed env;
#X obj 1209 -396 loadbang;
#X msg 1180 -395 0;
#X obj 1179 -416 s set_fx_preset_\$0;
#X obj 1178 -439 r preset_fx_preset_\$0;
#X obj 899 1857 quad_pan;
#X obj 884 1784 r~ from_fx_chain_\$0;
#X obj 811 2027 outlet~;
#X obj 869 2026 outlet~;
#X obj 925 2028 outlet~;
#X obj 984 2029 outlet~;
#X obj 392 -60 r ctrl_reset_\$0;
#X obj 1202 -312 r ctrl_fx_x_\$0;
#X obj 1203 -291 r ctrl_fx_y_\$0;
#X obj 1202 -272 r ctrl_fx_activate_\$0;
#X obj 374 -89 r ctrl_audition_env_\$0;
#X obj 1062 2029 outlet~;
#X obj 1071 1997 *~;
#X obj 1122 2028 outlet~;
#X obj 1131 1996 *~;
#X obj 1179 2028 outlet~;
#X obj 1188 1996 *~;
#X obj 1239 2027 outlet~;
#X obj 1248 1995 *~;
#X obj 1294 1857 r effect_send_\$0;
#X obj 1294 1882 / 127;
#X obj 1294 1907 pack 0 50;
#X obj 1294 1932 line~;
#X obj 985 126 hsl 100 20 0 127 0 0 empty empty fx_send 4 11 1 12 #000000 #ffffff #7c7c7c 0 1;
#X obj 1014 -128 loadbang;
#X msg 985 -127 0;
#X obj 984 -168 r preset_effect_send_\$0;
#X obj 984 -148 s effect_send_\$0;
#X obj 667 -208 r~ lfo1_signal_\$0;
#X obj 599 -66 loadbang;
#X obj 1204 -361 r ctrl_preset+_\$0;
#X obj 1203 -338 r ctrl_preset-_\$0;
#X obj 1238 -201 s control_out_fx_preset_name_\$0;
#X obj 1215 382 s control_out_space_shape_name_\$0;
#X obj -116 672 s play_index_\$0;
#X obj -213 754 s control_play_index_\$0;
#X obj -156 695 f;
#X msg -203 697 \$1 1;
#X msg -167 724 \$1 0;
#X obj -205 654 t f f b;
#X obj 1382 2026 outlet;
#X obj 1362 1980 r control_out_\$0;
#X obj -145 167 s control_out_write_steps_\$0;
#X obj 2054 -567 r preset_lfo2_q_\$0;
#X obj 2056 -547 s set_preset_lfo2_q_\$0;
#X obj 2071 -495 r preset_lfo2_sel_\$0;
#X obj 2073 -475 s set_preset_lfo2_sel_\$0;
#X msg 2074 -454 0;
#X obj 2124 -388 loadbang;
#X msg 2095 -387 0;
#X obj 2098 -431 r preset_lfo2_mul_\$0;
#X obj 2094 -408 s set_preset_lfo2_mul_\$0;
#X obj 1751 211 s~ lfo2_signal_\$0;
#X obj 1282 103 lfo;
#X obj 1719 -708 loadbang;
#X msg 1690 -707 0;
#X obj 1720 -642 loadbang;
#X msg 1691 -641 0;
#X obj 1724 -578 loadbang;
#X msg 1695 -577 0;
#X obj 1728 -510 loadbang;
#X msg 1699 -509 0;
#X obj 1689 -749 r preset_lfo1_frq_\$0;
#X obj 1689 -728 s set_preset_lfo1_frq_\$0;
#X obj 1688 -684 r preset_lfo1_q_\$0;
#X obj 1690 -662 s set_preset_lfo1_q_\$0;
#X obj 1692 -618 r preset_lfo1_sel_\$0;
#X obj 1694 -598 s set_preset_lfo1_sel_\$0;
#X obj 1702 -553 r preset_lfo1_mul_\$0;
#X obj 1698 -530 s set_preset_lfo1_mul_\$0;
#X obj 1420 256 s~ lfo1_signal_\$0;
#X obj 198 -68 r preset_bpm_\$0;
#X obj 197 -42 i;
#X obj 1541 -46 r preset_automation_sync_\$0;
#X obj 1542 19 r preset_automation_phase_\$0;
#X obj 1543 42 r preset_automation_shape_\$0;
#X obj 1543 63 r preset_automation_transition_\$0;
#X obj 1542 -24 r preset_automation_division_\$0;
#X obj 1569 -3 r preset_automation_bpm_\$0;
#X obj 1543 -3 i;
#X obj 1553 85 r preset_automation_spread_\$0;
#X obj 1654 116 r ctrl_automation_shape+_\$0;
#X obj 1664 126 r ctrl_automation_shape-_\$0;
#X obj 313 43 r ctrl_sample-_\$0;
#X obj 286 21 r ctrl_sample+_\$0;
#X obj 260 0 r ctrl_folder-_\$0;
#X obj 239 -20 r ctrl_folder+_\$0;
#X obj 1199 410 s automation_spread_\$0;
#X obj 1199 432 s automation_trans_\$0;
#X obj 1199 457 s automation_shape_\$0;
#X obj 1200 481 s automation_phase_\$0;
#X obj 1202 503 s automation_bpm_\$0;
#X obj 1203 525 s automation_div_\$0;
#X obj 1203 549 s automation_sync_\$0;
#X msg 1375 724 100;
#X obj 706 140 rngs;
#X obj 743 -419 s exciter_rngs_\$0;
#X obj 720 -479 s poly_rngs_\$0;
#X obj 766 -364 s pitch_rngs_\$0;
#X obj 791 -57 s transp_rngs_\$0;
#X obj 813 -118 s posit_rngs_\$0;
#X obj 833 -179 s struct_rngs_\$0;
#X obj 862 -230 s bright_rngs_\$0;
#X obj 885 -283 s damp_rngs_\$0;
#X obj 906 -331 s model_rngs_\$0;
#X obj 928 -408 s rngs_dw_\$0;
#X obj 790 -86 r preset_transp_rngs_\$0;
#X obj 813 -144 r preset_posit_rngs_\$0;
#X obj 835 -203 r preset_struct_rngs_\$0;
#X obj 863 -254 r preset_bright_rngs_\$0;
#X obj 885 -307 r preset_damp_rngs_\$0;
#X obj 907 -356 r preset_model_rngs_\$0;
#X obj 928 -390 r preset_rngs_dw_\$0;
#X obj 766 -387 r preset_pitch_rngs_\$0;
#X obj 741 -442 r preset_exciter_rngs_\$0;
#X obj 721 -502 r preset_poly_rngs_\$0;
#X obj 1429 1184 samplerate~;
#X obj 1427 1145 bng 20 250 50 0 empty empty empty 0 -10 0 12 #fcfcfc #000000 #000000;
#X obj 1398 1217 / 1000;
#X obj 1429 1100 loadbang;
#X obj 956 942 s trig_rngs_\$0;
#X obj 719 6 r trig_rngs_\$0;
#X obj 689 216 bng 15 250 50 0 empty empty empty 0 -10 0 12 #fcfcfc #000000 #000000;
#X obj 797 288 s trig_rngs_\$0;
#X obj 706 -20 r ctrl_trig_rngs_\$0;
#X obj 704 57 bng 20 250 50 0 empty empty empty 0 -10 0 12 #fcfcfc #000000 #000000;
#X obj 612 617 loadbang;
#X msg 582 617 0;
#X obj 583 573 r preset_fold_mix_\$0;
#X obj 583 596 s set_preset_fold_mix_\$0;
#X obj 1704 154 r preset_trig_onoff_\$0;
#X obj 1233 353 s set_preset_trig_onoff_\$0;
#X msg 961 914 60;
#X obj 464 -571 declare -path ../commons;
#N canvas 341 200 1390 715 handle_presets 1;
#X obj 1074 -40 t b b f;
#X obj 752 127 until;
#X obj 751 160 i;
#X obj 787 160 + 1;
#X obj 753 30 bng 20 250 50 0 empty empty empty 0 -10 0 12 #fcfcfc #000000 #000000;
#X obj 753 61 t b b b;
#X obj 751 221 tabread seq_main_\$0;
#X obj 715 281 pack 0 0;
#X obj 712 254 i;
#X obj 747 253 t b f;
#X obj 715 307 s write_to_seq_\$0;
#X msg 787 99 0;
#X obj 751 189 t f f;
#X obj 474 537 r load_sample_\$0;
#X obj 474 560 r set_kit_\$0;
#X obj 114 1470 tabwrite presets_\$0;
#X msg 435 560 \$1 1;
#X msg 435 537 \$1 0;
#X obj 503 583 r n_of_steps_\$0;
#X msg 435 583 \$1 2;
#X obj -242 219 f;
#X obj 1030 24 f;
#X obj 840 940 s preset_\$0_nsteps;
#X obj 827 964 s preset_\$0_kit;
#X obj 797 988 s preset_\$0_sample;
#X obj 782 896 f;
#X obj 762 848 t b f;
#X obj 762 871 delay 100;
#X obj 474 606 r glob_vol_\$0;
#X msg 435 606 \$1 3;
#X obj 862 914 s preset_glob_vol_\$0;
#X msg 435 629 \$1 4;
#X msg 435 652 \$1 5;
#X msg 435 675 \$1 6;
#X obj 474 629 r volume_rnd_\$0;
#X obj 474 652 r chance_\$0;
#X obj 474 675 r microtiming_\$0;
#X obj 880 890 s preset_volume_rnd_\$0;
#X obj 903 866 s preset_chance_\$0;
#X obj 922 833 s preset_microtiming_\$0;
#X obj 474 698 r automation_sync_\$0;
#X obj 474 721 r automation_division_\$0;
#X obj 474 744 r automation_bpm_\$0;
#X obj 474 767 r automation_shape_\$0;
#X obj 474 790 r automation_transition_\$0;
#X obj 474 813 r automation_spread_\$0;
#X msg 435 698 \$1 7;
#X msg 435 721 \$1 8;
#X msg 435 744 \$1 9;
#X msg 435 767 \$1 10;
#X msg 435 790 \$1 11;
#X msg 435 813 \$1 12;
#X obj 857 1153 s preset_automation_sync_\$0;
#X obj 873 1128 s preset_automation_division_\$0;
#X obj 891 1103 s preset_automation_bpm_\$0;
#X obj 916 1075 s preset_automation_shape_\$0;
#X obj 937 1051 s preset_automation_transition_\$0;
#X obj 950 1025 s preset_automation_spread_\$0;
#X obj 474 836 r automation_phase_\$0;
#X msg 435 836 \$1 13;
#X obj 970 1001 s preset_automation_phase_\$0;
#X msg 435 859 \$1 14;
#X msg 435 882 \$1 15;
#X msg 435 905 \$1 16;
#X msg 435 928 \$1 17;
#X msg 435 951 \$1 18;
#X msg 435 974 \$1 19;
#X msg 435 997 \$1 20;
#X msg 435 1020 \$1 21;
#X msg 435 1043 \$1 22;
#X msg 435 1066 \$1 23;
#X msg 435 1089 \$1 24;
#X msg 435 1112 \$1 25;
#X msg 435 1135 \$1 26;
#X msg 435 1158 \$1 27;
#X msg 435 1181 \$1 28;
#X msg 435 1203 \$1 29;
#X msg 435 1225 \$1 30;
#X msg 435 1247 \$1 31;
#X msg 435 1269 \$1 32;
#X msg 435 1291 \$1 33;
#X msg 435 1313 \$1 34;
#X msg 435 1335 \$1 35;
#X msg 752 99 32;
#X msg 435 1357 \$1 36;
#X obj -261 184 delay 200;
#X obj 474 905 r env_\$0;
#X obj 474 928 r reverse_\$0;
#X obj 474 951 r pitch_\$0;
#X obj 474 974 r random_pitch_amt_\$0;
#X obj 474 997 r micro_wide_pitch_\$0;
#X obj 1166 872 s preset_env_\$0;
#X obj 1183 899 s preset_reverse_\$0;
#X obj 1201 923 s preset_pitch_\$0;
#X obj 1218 949 s preset_random_pitch_amt_\$0;
#X obj 1240 973 s preset_micro_wide_pitch_\$0;
#X obj 474 1020 r mute_\$0;
#X obj 1261 1004 s preset_mute_\$0;
#X obj 474 1066 r hit_length_\$0;
#X obj 1308 1053 s preset_hit_length_\$0;
#X obj 474 1089 r sync_\$0;
#X obj 474 1112 r div_\$0;
#X obj 1335 1084 s preset_sync_\$0;
#X obj 1356 1108 s preset_div_\$0;
#X obj 1291 1028 s preset_bpm_\$0;
#X obj 227 1333 list;
#X obj 191 1396 unpack 0 0;
#X obj 474 1135 r set_preset_fold_\$0;
#X obj 474 1158 r set_preset_fold_stgs_\$0;
#X obj 474 1181 r set_preset_filt_typ_\$0;
#X obj 474 1203 r set_preset_filt_frq_\$0;
#X obj 474 1225 r set_preset_filt_q_\$0;
#X obj 474 1379 r set_preset_lfo1_frq_\$0;
#X obj 474 1401 r set_preset_lfo1_q_\$0;
#X obj 474 1423 r set_preset_lfo1_sel_\$0;
#X obj 474 1467 r set_preset_lfo2_frq_\$0;
#X obj 474 1489 r set_preset_lfo2_q_\$0;
#X obj 474 1511 r set_preset_lfo2_sel_\$0;
#X obj 1494 906 s preset_fold_\$0;
#X obj 1494 929 s preset_fold_stgs_\$0;
#X obj 1494 952 s preset_filt_typ_\$0;
#X obj 1494 974 s preset_filt_frq_\$0;
#X obj 1494 996 s preset_filt_q_\$0;
#X obj 1668 903 s preset_lfo1_frq_\$0;
#X obj 1666 930 s preset_lfo1_q_\$0;
#X obj 1666 952 s preset_lfo1_sel_\$0;
#X obj 1666 996 s preset_lfo2_frq_\$0;
#X obj 1666 1018 s preset_lfo2_q_\$0;
#X obj 1666 1040 s preset_lfo2_sel_\$0;
#X msg 435 1379 \$1 37;
#X msg 435 1401 \$1 38;
#X msg 435 1423 \$1 39;
#X msg 435 1445 \$1 40;
#X msg 435 1467 \$1 41;
#X msg 435 1489 \$1 42;
#X msg 435 1511 \$1 43;
#X msg 435 1533 \$1 44;
#X obj 474 859 r rack_div_\$0;
#X obj 474 882 r rack_rnd_\$0;
#X obj 1016 975 s preset_rack_div_\$0;
#X obj 1048 946 s preset_rack_rnd_\$0;
#X obj -60 -88 r save_\$0;
#X obj 1098 -94 r load_\$0;
#X obj 479 1555 r set_fx_preset_\$0;
#X obj 1668 1086 s preset_fx_preset_\$0;
#X obj 2407 1014 s ctrl_sample+_\$0;
#X obj 2440 1030 s ctrl_sample-_\$0;
#X obj 2461 1048 s ctrl_folder+_\$0;
#X obj 2501 1068 s ctrl_folder-_\$0;
#X obj 2531 1090 s ctrl_reset_\$0;
#X obj 2567 1115 s ctrl_audition_env_\$0;
#X obj 2685 1046 s ctrl_fx_x_\$0;
#X obj 2718 1067 s ctrl_fx_y_\$0;
#X obj 2746 1091 s ctrl_fx_activate_\$0;
#X obj 484 1580 r effect_send_\$0;
#X msg 434 1556 \$1 45;
#X msg 439 1581 \$1 46;
#X obj 1669 1111 s preset_effect_send_\$0;
#X obj 829 672 r control_\$0;
#X obj 2382 995 s write_to_seq_\$0;
#X obj -106 1449 r control_play_index_\$0;
#X obj -233 1352 r control_out_space_shape_name_\$0;
#X obj -331 1271 r control_out_fx_preset_name_\$0;
#X obj 65 1783 s control_out_\$0;
#X obj -342 1327 t a b;
#X obj -233 1394 t a b;
#X obj 181 1627 r control_out_write_steps_\$0;
#X obj 474 1445 r set_preset_lfo1_mul_\$0;
#X obj 474 1533 r set_preset_lfo2_mul_\$0;
#X msg 439 1606 \$1 47;
#X msg 438 1628 \$1 48;
#X obj 478 1628 r set_preset_lfo2_ass_\$0;
#X obj 478 1606 r set_preset_lfo1_ass_\$0;
#X obj 1786 1196 s preset_lfo1_ass_\$0;
#X obj 1806 1173 s preset_lfo2_ass_\$0;
#X obj 1666 974 s preset_lfo1_mul_\$0;
#X obj 1666 1062 s preset_lfo2_mul_\$0;
#X obj 1830 1149 s preset_density_\$0;
#X obj 1846 1124 s preset_type_of_fill_\$0;
#X obj 478 1650 r density_\$0;
#X obj 479 1674 r type_of_fill_\$0;
#X msg 437 1650 \$1 49;
#X msg 441 1675 \$1 50;
#X obj 479 1697 r rack_div_\$0;
#X obj 480 1718 r rack_rnd_\$0;
#X msg 441 1696 \$1 51;
#X msg 441 1717 \$1 52;
#X obj 1871 1099 s preset_rack_div_\$0;
#X obj 1900 1073 s preset_rack_rnd_\$0;
#X obj 2784 1113 s ctrl_automation_shape-_\$0;
#X obj 2810 1137 s ctrl_automation_shape+_\$0;
#X obj -243 1467 list append;
#X obj 88 1538 r module_id_\$0;
#X obj 292 1709 r module_id_\$0;
#X obj 282 1672 unpack 0 0;
#X obj -185 1377 r module_id_\$0;
#X obj -293 1300 r module_id_\$0;
#X obj -91 1542 r module_id_\$0;
#X obj 476 583 i;
#X obj -97 1482 unpack 0 0;
#X obj -97 1507 swap;
#X obj -331 1633 r x_\$0;
#X obj -199 1657 r y_\$0;
#X obj -317 1676 r module_id_\$0;
#X obj -166 1691 r module_id_\$0;
#X obj 68 1568 pack 0 0 0;
#X obj -550 1531 until;
#X obj -550 1556 i;
#X obj -507 1557 + 1;
#X msg -507 1532 0;
#X msg -546 1497 32;
#X obj -508 1246 r n_of_steps_\$0;
#X obj -546 1472 t b b f;
#X obj -554 1590 t f f;
#X obj -468 1623 r module_id_\$0;
#X obj -550 1627 <;
#X obj -546 1694 == 0;
#X obj -512 1438 i;
#X obj -514 1320 t b b f;
#X msg -489 1351 stop;
#X obj -525 1383 delay 200;
#X obj 1006 -12 delay 100;
#X obj 892 19 delay 100;
#X obj 481 1786 r poly_rngs_\$0;
#X obj 481 1763 r pitch_rngs_\$0;
#X obj 477 1358 r transp_rngs_\$0;
#X obj 476 1335 r posit_rngs_\$0;
#X obj 475 1312 r struct_rngs_\$0;
#X obj 477 1289 r bright_rngs_\$0;
#X obj 478 1266 r damp_rngs_\$0;
#X obj 477 1245 r model_rngs_\$0;
#X obj 481 1740 r rngs_dw_\$0;
#X obj 482 1809 r exciter_rngs_\$0;
#X msg 441 1739 \$1 53;
#X msg 442 1763 \$1 54;
#X msg 442 1784 \$1 55;
#X msg 442 1805 \$1 56;
#X obj 1494 1094 s preset_model_rngs_\$0;
#X obj 1503 1118 s preset_damp_rngs_\$0;
#X obj 1513 1142 s preset_bright_rngs_\$0;
#X obj 1527 1164 s preset_struct_rngs_\$0;
#X obj 1537 1187 s preset_posit_rngs_\$0;
#X obj 1549 1212 s preset_transp_rngs_\$0;
#X obj 1922 1049 s preset_rngs_dw_\$0;
#X obj 1976 1297 s preset_pitch_rngs_\$0;
#X obj 2004 1269 s preset_poly_rngs_\$0;
#X obj 2037 1238 s preset_exciter_rngs_\$0;
#X obj 2851 1163 s ctrl_trig_rngs_\$0;
#X msg 442 1829 \$1 57;
#X obj 482 1833 r set_preset_fold_mix_\$0;
#X obj 2070 1210 s preset_fold_mix_\$0;
#X obj 1417 207 r ID_\$0;
#X obj 1491 207 r current_path_\$0;
#X obj 1550 250 r module_id_\$0;
#X obj -268 428 r ID_\$0;
#X obj -204 372 r current_path_\$0;
#X obj -60 373 r module_id_\$0;
#X obj -75 435 makefilename _%i;
#X obj 1521 284 makefilename _%i;
#X obj 1370 325 load_preset presets_\$0;
#X msg -169 444 symbol \$1;
#X text 1515 476 postpone writing sequence to avoid overwriting with new random generation: 1- load preset \; 2- load seq \; 3- write seq;
#X obj 1074 246 r ID_\$0;
#X obj 1148 246 r current_path_\$0;
#X obj 1207 289 r module_id_\$0;
#X obj 1027 364 load_preset seq_main_\$0;
#X obj 1178 323 makefilename _%i_seq;
#X obj 264 339 r ID_\$0;
#X obj 338 339 r current_path_\$0;
#X obj 482 340 r module_id_\$0;
#X msg 373 411 symbol \$1;
#X obj 467 402 makefilename _%i_seq;
#X obj 217 457 save_preset seq_main_\$0 32;
#X obj -269 97 bng 20 250 50 0 empty empty empty 0 -10 0 12 #fcfcfc #000000 #000000;
#X msg 440 1851 \$1 58;
#X msg 441 1874 \$1 59;
#X msg 441 1897 \$1 60;
#X msg 443 1918 \$1 61;
#X obj 481 1901 r set_preset_lfo2_sync_\$0;
#X obj 481 1924 r set_preset_lfo2_phs_\$0;
#X obj 481 1878 r set_preset_lfo1_phs_\$0;
#X obj 480 1855 r set_preset_lfo1_sync_\$0;
#X obj -325 490 save_preset presets_\$0 62;
#X obj 534 210 table presets_\$0 65;
#X obj 2087 1175 s preset_lfo1_sync_\$0;
#X obj 2103 1149 s preset_lfo1_phs_\$0;
#X obj 2123 1126 s preset_lfo2_sync_\$0;
#X obj 2156 1110 s preset_lfo2_phs_\$0;
#X obj -364 1420 list append;
#X obj -371 1147 t a b;
#X obj -381 1223 list append;
#X obj -323 1130 r module_id_\$0;
#X obj -369 1108 r control_out_lfo1_sync_name_\$0;
#X obj -488 1058 t a b;
#X obj -497 1132 list append;
#X obj -440 1041 r module_id_\$0;
#X obj -488 1016 r control_out_lfo2_sync_name_\$0;
#X obj 1819 261 load_init presets_\$0 drum_machine_abs;
#X obj 2092 175 r module_id_\$0;
#X obj 2073 206 makefilename _%i;
#X obj 1797 167 r load_init_\$0;
#X obj 462 468 print currentpath;
#X obj -493 650 save_init presets_\$0 drum_machine_abs 62;
#X obj -197 577 r module_id_\$0;
#X obj -216 608 makefilename _%i;
#X obj -493 613 r save_init_\$0;
#X obj -100 661 r module_id_\$0;
#X obj -396 697 r save_init_\$0;
#X obj -396 734 save_init seq_main_\$0 drum_machine_abs 32;
#X obj -119 692 makefilename _%i_seq;
#X msg -201 1431 1 202;
#X msg -299 1389 1 203;
#X msg -339 1184 1 204;
#X msg -440 1066 set \$1 205;
#X msg -185 1402 set \$1 202;
#X msg -293 1325 set \$1 203;
#X msg -323 1155 set \$1 204;
#X msg -456 1095 1 205;
#X obj -244 1536 list trim;
#X obj -582 975 t a b;
#X obj -591 1049 list append;
#X obj -534 958 r module_id_\$0;
#X obj -582 933 r fdbk_space_time_name_\$0;
#X msg -534 983 set \$1 206;
#X msg -550 1012 1 206;
#X msg 441 1946 \$1 62;
#X obj 487 1949 r set_preset_trig_onoff_\$0;
#X obj 829 794 route 0 1 2 3 4 5 6 7 8 9 10 11 12 13 14 15 16 17 18 19 20 21 22 23 24 25 26 27 28 29 30 31 32 33 34 35 36 37 38 39 40 41 42 43 44 45 46 47 48 49 50 51 52 53 54 55 56 57 58 59 60 61 62, f 184;
#X obj 2172 1088 s preset_trig_onoff_\$0;
#X obj 2484 785 route 100 101 102 103 104 105 106 107 108 109 110 111 116 117, f 90;
#X obj 2881 1189 s ctrl_trig_space_go_\$0;
#X obj -684 882 t a b;
#X obj -693 956 list append;
#X obj -636 865 r module_id_\$0;
#X msg -635 889 set \$1 207;
#X msg -652 919 1 207;
#X obj -684 840 r fdbk_time_name_\$0;
#X obj 474 1043 r set_preset_bpm_\$0;
#X obj -337 1706 pack 0 0 208;
#X obj -186 1721 pack 0 0 209;
#X obj 264 1735 pack 0 0 200 0;
#X obj -119 1568 pack 0 0 210 0;
#X obj -539 1737 pack 0 0 201 0;
#X connect 0 0 221 0;
#X connect 0 2 21 1;
#X connect 0 2 259 0;
#X connect 1 0 2 0;
#X connect 2 0 3 0;
#X connect 2 0 12 0;
#X connect 3 0 2 1;
#X connect 4 0 5 0;
#X connect 5 0 83 0;
#X connect 5 1 11 0;
#X connect 6 0 9 0;
#X connect 7 0 10 0;
#X connect 8 0 7 0;
#X connect 9 0 8 0;
#X connect 9 1 7 1;
#X connect 11 0 2 1;
#X connect 12 0 6 0;
#X connect 12 1 8 1;
#X connect 13 0 17 0;
#X connect 14 0 16 0;
#X connect 16 0 105 0;
#X connect 17 0 105 0;
#X connect 18 0 198 0;
#X connect 19 0 105 0;
#X connect 20 0 282 0;
#X connect 21 0 265 0;
#X connect 25 0 24 0;
#X connect 26 0 27 0;
#X connect 26 1 25 1;
#X connect 27 0 25 0;
#X connect 28 0 29 0;
#X connect 29 0 105 0;
#X connect 31 0 105 0;
#X connect 32 0 105 0;
#X connect 33 0 105 0;
#X connect 34 0 31 0;
#X connect 35 0 32 0;
#X connect 36 0 33 0;
#X connect 40 0 46 0;
#X connect 41 0 47 0;
#X connect 42 0 48 0;
#X connect 43 0 49 0;
#X connect 44 0 50 0;
#X connect 45 0 51 0;
#X connect 46 0 105 0;
#X connect 47 0 105 0;
#X connect 48 0 105 0;
#X connect 49 0 105 0;
#X connect 50 0 105 0;
#X connect 51 0 105 0;
#X connect 58 0 59 0;
#X connect 59 0 105 0;
#X connect 61 0 105 0;
#X connect 62 0 105 0;
#X connect 63 0 105 0;
#X connect 64 0 105 0;
#X connect 65 0 105 0;
#X connect 66 0 105 0;
#X connect 67 0 105 0;
#X connect 68 0 105 0;
#X connect 69 0 105 0;
#X connect 70 0 105 0;
#X connect 71 0 105 0;
#X connect 72 0 105 0;
#X connect 73 0 105 0;
#X connect 74 0 105 0;
#X connect 75 0 105 0;
#X connect 76 0 105 0;
#X connect 77 0 105 0;
#X connect 78 0 105 0;
#X connect 79 0 105 0;
#X connect 80 0 105 0;
#X connect 81 0 105 0;
#X connect 82 0 105 0;
#X connect 83 0 1 0;
#X connect 84 0 105 0;
#X connect 85 0 20 0;
#X connect 86 0 63 0;
#X connect 87 0 64 0;
#X connect 88 0 65 0;
#X connect 89 0 66 0;
#X connect 90 0 67 0;
#X connect 96 0 68 0;
#X connect 98 0 70 0;
#X connect 100 0 71 0;
#X connect 101 0 72 0;
#X connect 105 0 106 0;
#X connect 106 0 15 0;
#X connect 106 0 205 0;
#X connect 106 1 15 1;
#X connect 106 1 205 2;
#X connect 107 0 73 0;
#X connect 108 0 74 0;
#X connect 109 0 75 0;
#X connect 110 0 76 0;
#X connect 111 0 77 0;
#X connect 112 0 129 0;
#X connect 113 0 130 0;
#X connect 114 0 131 0;
#X connect 115 0 133 0;
#X connect 116 0 134 0;
#X connect 117 0 135 0;
#X connect 129 0 105 0;
#X connect 130 0 105 0;
#X connect 131 0 105 0;
#X connect 132 0 105 0;
#X connect 133 0 105 0;
#X connect 134 0 105 0;
#X connect 135 0 105 0;
#X connect 136 0 105 0;
#X connect 137 0 61 0;
#X connect 138 0 62 0;
#X connect 141 0 20 1;
#X connect 141 0 273 0;
#X connect 141 0 272 0;
#X connect 142 0 0 0;
#X connect 143 0 155 0;
#X connect 154 0 156 0;
#X connect 155 0 105 0;
#X connect 156 0 105 0;
#X connect 158 0 327 0;
#X connect 160 0 199 0;
#X connect 161 0 165 0;
#X connect 162 0 164 0;
#X connect 164 0 288 0;
#X connect 164 1 311 0;
#X connect 165 0 191 0;
#X connect 165 1 310 0;
#X connect 166 0 194 0;
#X connect 167 0 132 0;
#X connect 168 0 136 0;
#X connect 169 0 105 0;
#X connect 170 0 105 0;
#X connect 171 0 170 0;
#X connect 172 0 169 0;
#X connect 179 0 181 0;
#X connect 180 0 182 0;
#X connect 181 0 105 0;
#X connect 182 0 105 0;
#X connect 183 0 185 0;
#X connect 184 0 186 0;
#X connect 185 0 105 0;
#X connect 186 0 105 0;
#X connect 191 0 318 0;
#X connect 192 0 205 1;
#X connect 193 0 340 1;
#X connect 194 0 340 0;
#X connect 194 1 340 3;
#X connect 195 0 314 0;
#X connect 196 0 315 0;
#X connect 197 0 341 1;
#X connect 198 0 19 0;
#X connect 199 0 200 0;
#X connect 199 1 200 1;
#X connect 200 0 341 0;
#X connect 200 1 341 3;
#X connect 201 0 338 0;
#X connect 202 0 339 0;
#X connect 203 0 338 1;
#X connect 204 0 339 1;
#X connect 205 0 163 0;
#X connect 206 0 207 0;
#X connect 207 0 208 0;
#X connect 207 0 213 0;
#X connect 208 0 207 1;
#X connect 209 0 207 1;
#X connect 210 0 206 0;
#X connect 211 0 218 0;
#X connect 212 0 210 0;
#X connect 212 1 209 0;
#X connect 212 2 215 1;
#X connect 213 0 215 0;
#X connect 213 1 342 3;
#X connect 214 0 342 1;
#X connect 215 0 216 0;
#X connect 216 0 342 0;
#X connect 217 0 212 0;
#X connect 218 0 220 0;
#X connect 218 1 219 0;
#X connect 218 2 217 1;
#X connect 219 0 220 0;
#X connect 220 0 217 0;
#X connect 221 0 21 0;
#X connect 221 0 222 0;
#X connect 222 0 4 0;
#X connect 223 0 235 0;
#X connect 224 0 234 0;
#X connect 225 0 84 0;
#X connect 226 0 82 0;
#X connect 227 0 81 0;
#X connect 228 0 80 0;
#X connect 229 0 79 0;
#X connect 230 0 78 0;
#X connect 231 0 233 0;
#X connect 232 0 236 0;
#X connect 233 0 105 0;
#X connect 234 0 105 0;
#X connect 235 0 105 0;
#X connect 236 0 105 0;
#X connect 248 0 105 0;
#X connect 249 0 248 0;
#X connect 251 0 259 1;
#X connect 252 0 259 2;
#X connect 253 0 258 0;
#X connect 254 0 282 1;
#X connect 255 0 260 0;
#X connect 256 0 257 0;
#X connect 257 0 282 4;
#X connect 258 0 259 3;
#X connect 259 0 327 0;
#X connect 260 0 282 2;
#X connect 262 0 265 1;
#X connect 263 0 265 2;
#X connect 264 0 266 0;
#X connect 266 0 265 3;
#X connect 267 0 272 1;
#X connect 268 0 270 0;
#X connect 268 0 301 0;
#X connect 269 0 271 0;
#X connect 270 0 272 2;
#X connect 271 0 272 4;
#X connect 273 0 85 0;
#X connect 274 0 105 0;
#X connect 275 0 105 0;
#X connect 276 0 105 0;
#X connect 277 0 105 0;
#X connect 278 0 276 0;
#X connect 279 0 277 0;
#X connect 280 0 275 0;
#X connect 281 0 274 0;
#X connect 288 0 318 0;
#X connect 289 0 290 0;
#X connect 289 1 312 0;
#X connect 290 0 318 0;
#X connect 291 0 316 0;
#X connect 292 0 289 0;
#X connect 293 0 294 0;
#X connect 293 1 317 0;
#X connect 294 0 318 0;
#X connect 295 0 313 0;
#X connect 296 0 293 0;
#X connect 297 0 327 0;
#X connect 298 0 299 0;
#X connect 299 0 297 1;
#X connect 300 0 297 0;
#X connect 303 0 304 0;
#X connect 304 0 302 2;
#X connect 305 0 302 0;
#X connect 306 0 309 0;
#X connect 307 0 308 0;
#X connect 309 0 308 2;
#X connect 310 0 191 1;
#X connect 311 0 288 1;
#X connect 312 0 290 1;
#X connect 313 0 317 0;
#X connect 314 0 310 0;
#X connect 315 0 311 0;
#X connect 316 0 312 0;
#X connect 317 0 294 1;
#X connect 318 0 163 0;
#X connect 319 0 320 0;
#X connect 319 1 324 0;
#X connect 320 0 318 0;
#X connect 321 0 323 0;
#X connect 322 0 319 0;
#X connect 323 0 324 0;
#X connect 324 0 320 1;
#X connect 325 0 105 0;
#X connect 326 0 325 0;
#X connect 327 0 26 0;
#X connect 327 1 23 0;
#X connect 327 2 22 0;
#X connect 327 3 30 0;
#X connect 327 4 37 0;
#X connect 327 5 38 0;
#X connect 327 6 39 0;
#X connect 327 7 52 0;
#X connect 327 8 53 0;
#X connect 327 9 54 0;
#X connect 327 10 55 0;
#X connect 327 11 56 0;
#X connect 327 12 57 0;
#X connect 327 13 60 0;
#X connect 327 14 139 0;
#X connect 327 15 140 0;
#X connect 327 16 91 0;
#X connect 327 17 92 0;
#X connect 327 18 93 0;
#X connect 327 19 94 0;
#X connect 327 20 95 0;
#X connect 327 21 97 0;
#X connect 327 22 104 0;
#X connect 327 23 99 0;
#X connect 327 24 102 0;
#X connect 327 25 103 0;
#X connect 327 26 118 0;
#X connect 327 27 119 0;
#X connect 327 28 120 0;
#X connect 327 29 121 0;
#X connect 327 30 122 0;
#X connect 327 31 237 0;
#X connect 327 32 238 0;
#X connect 327 33 239 0;
#X connect 327 34 240 0;
#X connect 327 35 241 0;
#X connect 327 36 242 0;
#X connect 327 37 123 0;
#X connect 327 38 124 0;
#X connect 327 39 125 0;
#X connect 327 40 175 0;
#X connect 327 41 126 0;
#X connect 327 42 127 0;
#X connect 327 43 128 0;
#X connect 327 44 176 0;
#X connect 327 45 144 0;
#X connect 327 46 157 0;
#X connect 327 47 173 0;
#X connect 327 48 174 0;
#X connect 327 49 177 0;
#X connect 327 50 178 0;
#X connect 327 51 187 0;
#X connect 327 52 188 0;
#X connect 327 53 243 0;
#X connect 327 54 244 0;
#X connect 327 55 245 0;
#X connect 327 56 246 0;
#X connect 327 57 250 0;
#X connect 327 58 284 0;
#X connect 327 59 285 0;
#X connect 327 60 286 0;
#X connect 327 61 287 0;
#X connect 327 62 328 0;
#X connect 327 63 329 0;
#X connect 329 0 159 0;
#X connect 329 1 145 0;
#X connect 329 2 146 0;
#X connect 329 3 147 0;
#X connect 329 4 148 0;
#X connect 329 5 149 0;
#X connect 329 6 150 0;
#X connect 329 7 151 0;
#X connect 329 8 152 0;
#X connect 329 9 153 0;
#X connect 329 10 189 0;
#X connect 329 11 190 0;
#X connect 329 12 247 0;
#X connect 329 13 330 0;
#X connect 331 0 332 0;
#X connect 331 1 335 0;
#X connect 332 0 318 0;
#X connect 333 0 334 0;
#X connect 334 0 335 0;
#X connect 335 0 332 1;
#X connect 336 0 331 0;
#X connect 337 0 69 0;
#X connect 338 0 163 0;
#X connect 339 0 163 0;
#X connect 340 0 163 0;
#X connect 341 0 163 0;
#X connect 342 0 163 0;
#X restore 464 -641 pd handle_presets;
#X obj -377 -386 inlet;
#X obj -175 -286 s save_\$0;
#X obj -250 -313 s load_\$0;
#X obj -379 -320 s ID_\$0;
#X text -380 -411 internal_in;
#X obj -93 -308 s current_path_\$0;
#X obj -310 -286 s module_id_\$0;
#X obj -147 487 r bpm_\$0;
#X obj 978 -79 r bang_bpm_\$0;
#X obj 1233 -231 r bang_bpm_\$0;
#X obj 1729 -442 loadbang;
#X msg 1700 -441 0;
#X obj 1732 -373 loadbang;
#X msg 1703 -372 0;
#X obj 1701 -486 r preset_lfo1_sync_\$0;
#X obj 1699 -462 s set_preset_lfo1_sync_\$0;
#X obj 1706 -416 r preset_lfo1_phs_\$0;
#X obj 1702 -393 s set_preset_lfo1_phs_\$0;
#X obj 1689 -775 r rst_\$0;
#X obj 1687 -796 r bang_bpm_\$0;
#X obj 2116 -313 loadbang;
#X msg 2087 -312 0;
#X obj 2119 -244 loadbang;
#X msg 2090 -243 0;
#X obj 2089 -359 r preset_lfo2_sync_\$0;
#X obj 2086 -333 s set_preset_lfo2_sync_\$0;
#X obj 2093 -287 r preset_lfo2_phs_\$0;
#X obj 2089 -264 s set_preset_lfo2_phs_\$0;
#X obj 2029 -664 r rst_\$0;
#X obj 2027 -685 r bang_bpm_\$0;
#X obj 1696 -339 s control_out_lfo1_sync_name_\$0;
#X obj 2089 -213 s control_out_lfo2_sync_name_\$0;
#X obj 19 257 s bpm_\$0;
#X obj 20 -74 print bpmin;
#X obj -19 -2 r ext_bang_bpm_\$0;
#X obj 68 -37 r ext_rst_\$0;
#X obj -29 -226 s ext_bang_bpm_\$0;
#X obj 57 -262 s ext_rst_\$0;
#X obj 229 -319 s control_\$0;
#X obj 82 -290 s load_init_\$0;
#X obj -377 -357 route instance_id module_id load save current_path bang_bpm rst init save_init, f 87;
#X obj 117 -324 s save_init_\$0;
#X obj 1271 1206 / 48;
#X obj 1478 1926 print;
#X obj 1255 305 s fdbk_space_time_name_\$0;
#X obj 1716 177 r ctrl_trig_space_go_\$0;
#X obj 886 972 s ctrl_trig_space_go_\$0;
#X obj 180 274 s fdbk_time_name_\$0;
#X obj 112 345 s set_preset_bpm_\$0;
#X connect 1 0 5 0;
#X connect 2 0 1 0;
#X connect 3 0 4 0;
#X connect 3 0 12 0;
#X connect 4 0 3 1;
#X connect 5 0 218 0;
#X connect 6 0 2 0;
#X connect 9 0 10 0;
#X connect 10 0 57 0;
#X connect 11 0 12 1;
#X connect 12 0 338 0;
#X connect 12 0 343 0;
#X connect 13 0 56 0;
#X connect 14 0 52 0;
#X connect 15 0 52 1;
#X connect 16 0 232 0;
#X connect 17 0 231 0;
#X connect 18 0 57 0;
#X connect 19 0 20 0;
#X connect 21 0 19 0;
#X connect 22 0 175 0;
#X connect 23 0 22 1;
#X connect 24 0 398 0;
#X connect 25 0 92 0;
#X connect 26 0 25 0;
#X connect 26 0 436 0;
#X connect 26 1 41 0;
#X connect 27 0 206 0;
#X connect 28 0 226 0;
#X connect 30 0 31 0;
#X connect 32 0 30 0;
#X connect 33 0 35 0;
#X connect 34 0 33 0;
#X connect 36 0 153 0;
#X connect 38 0 39 0;
#X connect 39 0 30 0;
#X connect 40 0 171 0;
#X connect 41 0 25 1;
#X connect 42 0 234 0;
#X connect 43 0 233 0;
#X connect 44 0 3 1;
#X connect 44 0 343 0;
#X connect 44 0 340 1;
#X connect 45 0 471 0;
#X connect 45 1 46 0;
#X connect 45 3 220 0;
#X connect 45 4 221 0;
#X connect 45 5 487 0;
#X connect 45 7 486 0;
#X connect 47 0 44 0;
#X connect 48 0 3 0;
#X connect 49 0 294 1;
#X connect 52 0 0 0;
#X connect 52 0 346 0;
#X connect 53 0 52 2;
#X connect 55 0 229 0;
#X connect 56 0 55 0;
#X connect 57 0 8 0;
#X connect 59 0 161 0;
#X connect 65 0 304 2;
#X connect 66 0 304 1;
#X connect 67 0 68 0;
#X connect 68 0 69 0;
#X connect 69 0 158 0;
#X connect 70 0 98 0;
#X connect 71 0 73 1;
#X connect 71 0 481 0;
#X connect 72 0 73 0;
#X connect 73 0 70 0;
#X connect 74 0 78 0;
#X connect 74 0 77 0;
#X connect 75 0 72 0;
#X connect 75 0 103 0;
#X connect 76 0 72 0;
#X connect 76 0 103 0;
#X connect 77 0 76 0;
#X connect 78 0 75 0;
#X connect 79 0 78 1;
#X connect 80 0 82 0;
#X connect 81 0 84 0;
#X connect 83 0 139 0;
#X connect 85 0 200 0;
#X connect 85 0 27 3;
#X connect 86 0 74 1;
#X connect 87 0 79 0;
#X connect 87 0 77 1;
#X connect 88 0 89 0;
#X connect 91 0 28 0;
#X connect 91 0 27 0;
#X connect 92 0 74 0;
#X connect 92 0 286 0;
#X connect 92 1 90 0;
#X connect 93 0 28 1;
#X connect 94 0 27 1;
#X connect 95 0 96 0;
#X connect 97 0 98 1;
#X connect 98 0 238 0;
#X connect 99 0 97 0;
#X connect 100 0 102 0;
#X connect 101 0 99 0;
#X connect 102 0 138 0;
#X connect 103 0 100 0;
#X connect 103 0 101 0;
#X connect 104 0 101 1;
#X connect 104 0 196 0;
#X connect 105 0 102 1;
#X connect 106 0 121 0;
#X connect 107 0 117 0;
#X connect 108 0 110 0;
#X connect 109 0 81 0;
#X connect 110 0 80 0;
#X connect 111 0 112 0;
#X connect 112 0 88 0;
#X connect 113 0 97 0;
#X connect 114 0 115 0;
#X connect 114 0 203 0;
#X connect 114 1 116 0;
#X connect 114 1 204 0;
#X connect 114 2 183 0;
#X connect 114 2 205 0;
#X connect 117 0 106 0;
#X connect 118 0 142 0;
#X connect 119 0 120 0;
#X connect 119 1 151 0;
#X connect 120 0 143 0;
#X connect 122 0 114 1;
#X connect 123 0 170 0;
#X connect 124 0 126 0;
#X connect 126 0 23 0;
#X connect 127 0 28 3;
#X connect 128 0 127 0;
#X connect 128 1 127 1;
#X connect 128 1 28 2;
#X connect 129 0 163 0;
#X connect 130 0 132 0;
#X connect 130 1 150 0;
#X connect 131 0 130 0;
#X connect 131 0 140 0;
#X connect 132 0 147 0;
#X connect 132 0 146 1;
#X connect 133 0 149 0;
#X connect 133 0 202 0;
#X connect 135 0 145 1;
#X connect 136 0 137 0;
#X connect 137 0 129 0;
#X connect 138 0 113 0;
#X connect 139 0 119 0;
#X connect 140 0 139 0;
#X connect 142 0 143 0;
#X connect 143 0 146 0;
#X connect 143 1 145 0;
#X connect 144 0 148 0;
#X connect 145 0 144 0;
#X connect 146 0 144 0;
#X connect 147 0 145 1;
#X connect 148 0 188 0;
#X connect 148 0 227 0;
#X connect 149 0 148 0;
#X connect 149 1 148 1;
#X connect 150 0 135 0;
#X connect 150 0 146 1;
#X connect 151 0 118 0;
#X connect 153 0 37 0;
#X connect 154 0 155 0;
#X connect 155 0 153 0;
#X connect 156 0 157 0;
#X connect 157 0 33 0;
#X connect 158 0 54 0;
#X connect 159 0 109 0;
#X connect 160 0 59 0;
#X connect 164 0 131 0;
#X connect 165 0 106 0;
#X connect 166 0 88 0;
#X connect 167 0 80 0;
#X connect 168 0 81 0;
#X connect 169 0 129 0;
#X connect 170 0 128 0;
#X connect 171 0 127 0;
#X connect 172 0 95 0;
#X connect 173 0 174 0;
#X connect 174 0 95 0;
#X connect 175 0 296 0;
#X connect 176 0 178 0;
#X connect 177 0 175 1;
#X connect 178 0 179 0;
#X connect 178 1 181 0;
#X connect 179 0 177 0;
#X connect 180 0 296 0;
#X connect 181 0 177 0;
#X connect 182 0 197 0;
#X connect 184 0 114 0;
#X connect 186 0 195 0;
#X connect 186 0 201 0;
#X connect 187 0 185 0;
#X connect 187 0 199 0;
#X connect 188 0 187 0;
#X connect 189 0 188 0;
#X connect 189 1 188 1;
#X connect 190 0 191 0;
#X connect 192 0 193 0;
#X connect 193 0 190 0;
#X connect 194 0 190 0;
#X connect 195 0 189 0;
#X connect 196 0 100 1;
#X connect 197 0 196 0;
#X connect 197 1 196 1;
#X connect 198 0 26 0;
#X connect 207 0 193 0;
#X connect 208 0 137 0;
#X connect 209 0 117 0;
#X connect 210 0 112 0;
#X connect 211 0 110 0;
#X connect 212 0 109 0;
#X connect 214 0 213 0;
#X connect 216 0 215 0;
#X connect 217 0 198 0;
#X connect 218 0 26 0;
#X connect 219 0 218 1;
#X connect 222 0 45 3;
#X connect 223 0 45 4;
#X connect 223 0 472 0;
#X connect 224 0 45 2;
#X connect 225 0 294 2;
#X connect 226 0 125 0;
#X connect 227 0 27 2;
#X connect 228 0 158 0;
#X connect 230 0 55 0;
#X connect 236 0 399 0;
#X connect 236 1 253 0;
#X connect 236 2 256 0;
#X connect 236 3 260 0;
#X connect 237 0 236 0;
#X connect 237 1 243 0;
#X connect 237 2 244 0;
#X connect 237 3 433 0;
#X connect 239 0 237 0;
#X connect 241 0 22 0;
#X connect 242 0 275 0;
#X connect 245 0 237 1;
#X connect 246 0 237 2;
#X connect 247 0 248 0;
#X connect 248 0 237 1;
#X connect 249 0 250 0;
#X connect 250 0 237 2;
#X connect 251 0 262 0;
#X connect 252 0 236 1;
#X connect 254 0 255 0;
#X connect 255 0 236 2;
#X connect 257 0 236 2;
#X connect 258 0 259 0;
#X connect 259 0 236 3;
#X connect 261 0 236 3;
#X connect 262 0 236 1;
#X connect 263 1 356 0;
#X connect 263 3 271 0;
#X connect 263 4 348 0;
#X connect 263 5 350 0;
#X connect 263 6 355 0;
#X connect 263 7 464 0;
#X connect 263 8 466 0;
#X connect 263 9 470 0;
#X connect 264 0 279 0;
#X connect 265 0 266 0;
#X connect 266 0 263 0;
#X connect 267 0 268 0;
#X connect 268 0 263 1;
#X connect 269 0 351 0;
#X connect 270 0 263 0;
#X connect 272 0 273 0;
#X connect 273 0 242 0;
#X connect 274 0 242 0;
#X connect 276 0 277 0;
#X connect 277 0 264 0;
#X connect 278 0 264 0;
#X connect 280 0 281 0;
#X connect 282 0 236 5;
#X connect 283 0 282 0;
#X connect 284 0 285 0;
#X connect 286 0 74 0;
#X connect 287 0 280 0;
#X connect 288 0 289 0;
#X connect 289 0 280 0;
#X connect 291 0 292 0;
#X connect 292 0 284 0;
#X connect 293 0 284 0;
#X connect 294 0 63 0;
#X connect 294 1 64 0;
#X connect 294 2 397 0;
#X connect 294 3 396 0;
#X connect 294 4 395 0;
#X connect 294 5 394 0;
#X connect 294 6 393 0;
#X connect 294 7 392 0;
#X connect 294 8 391 0;
#X connect 294 9 337 0;
#X connect 294 10 435 0;
#X connect 294 11 483 0;
#X connect 295 0 298 0;
#X connect 295 1 302 0;
#X connect 295 2 336 0;
#X connect 297 0 295 0;
#X connect 300 0 301 0;
#X connect 301 0 295 6;
#X connect 303 0 295 6;
#X connect 304 0 306 0;
#X connect 304 0 316 0;
#X connect 304 1 307 0;
#X connect 304 1 318 0;
#X connect 304 2 308 0;
#X connect 304 2 320 0;
#X connect 304 3 309 0;
#X connect 304 3 322 0;
#X connect 305 0 304 0;
#X connect 310 0 214 0;
#X connect 311 0 295 1;
#X connect 312 0 295 2;
#X connect 313 0 295 3;
#X connect 314 0 216 0;
#X connect 316 0 315 0;
#X connect 318 0 317 0;
#X connect 320 0 319 0;
#X connect 322 0 321 0;
#X connect 323 0 324 0;
#X connect 324 0 325 0;
#X connect 325 0 326 0;
#X connect 326 0 322 1;
#X connect 326 0 320 1;
#X connect 326 0 318 1;
#X connect 326 0 316 1;
#X connect 327 0 331 0;
#X connect 328 0 329 0;
#X connect 329 0 327 0;
#X connect 330 0 327 0;
#X connect 332 0 236 4;
#X connect 333 0 283 0;
#X connect 334 0 295 4;
#X connect 335 0 295 5;
#X connect 340 0 342 0;
#X connect 341 0 339 0;
#X connect 342 0 339 0;
#X connect 343 0 341 0;
#X connect 343 1 340 1;
#X connect 343 2 340 0;
#X connect 345 0 344 0;
#X connect 345 0 482 0;
#X connect 347 0 263 1;
#X connect 349 0 263 2;
#X connect 351 0 263 2;
#X connect 352 0 353 0;
#X connect 353 0 263 3;
#X connect 354 0 263 3;
#X connect 357 1 374 0;
#X connect 357 3 367 0;
#X connect 357 4 369 0;
#X connect 357 5 371 0;
#X connect 357 6 373 0;
#X connect 357 7 454 0;
#X connect 357 8 456 0;
#X connect 357 9 469 0;
#X connect 358 0 359 0;
#X connect 359 0 357 0;
#X connect 360 0 361 0;
#X connect 361 0 357 1;
#X connect 362 0 363 0;
#X connect 363 0 357 2;
#X connect 364 0 365 0;
#X connect 365 0 357 3;
#X connect 366 0 357 0;
#X connect 368 0 357 1;
#X connect 370 0 357 2;
#X connect 372 0 357 3;
#X connect 375 0 376 0;
#X connect 376 0 45 5;
#X connect 377 0 294 3;
#X connect 378 0 294 6;
#X connect 379 0 294 7;
#X connect 380 0 294 8;
#X connect 381 0 294 4;
#X connect 382 0 383 0;
#X connect 383 0 294 5;
#X connect 384 0 294 9;
#X connect 385 0 294 10;
#X connect 386 0 294 11;
#X connect 387 0 43 0;
#X connect 388 0 42 0;
#X connect 389 0 17 0;
#X connect 390 0 16 0;
#X connect 398 0 19 0;
#X connect 399 0 240 0;
#X connect 399 1 401 0;
#X connect 399 2 400 0;
#X connect 399 3 402 0;
#X connect 399 4 403 0;
#X connect 399 5 404 0;
#X connect 399 6 405 0;
#X connect 399 7 406 0;
#X connect 399 8 407 0;
#X connect 399 9 408 0;
#X connect 399 10 409 0;
#X connect 410 0 399 5;
#X connect 411 0 399 6;
#X connect 412 0 399 7;
#X connect 413 0 399 8;
#X connect 414 0 399 9;
#X connect 415 0 399 10;
#X connect 416 0 399 11;
#X connect 417 0 399 4;
#X connect 418 0 399 3;
#X connect 419 0 399 2;
#X connect 420 0 422 0;
#X connect 421 0 420 0;
#X connect 423 0 421 0;
#X connect 425 0 399 1;
#X connect 426 0 427 0;
#X connect 428 0 399 1;
#X connect 428 0 429 0;
#X connect 430 0 431 0;
#X connect 431 0 237 3;
#X connect 432 0 237 3;
#X connect 434 0 294 12;
#X connect 436 0 424 0;
#X connect 436 0 485 0;
#X connect 439 0 479 0;
#X connect 446 0 48 0;
#X connect 447 0 294 0;
#X connect 448 0 295 7;
#X connect 449 0 450 0;
#X connect 451 0 452 0;
#X connect 453 0 357 4;
#X connect 455 0 357 5;
#X connect 457 0 357 7;
#X connect 458 0 357 6;
#X connect 459 0 460 0;
#X connect 461 0 462 0;
#X connect 463 0 263 4;
#X connect 465 0 263 5;
#X connect 467 0 263 7;
#X connect 468 0 263 6;
#X connect 473 0 45 0;
#X connect 474 0 45 1;
#X connect 479 0 442 0;
#X connect 479 1 445 0;
#X connect 479 2 441 0;
#X connect 479 3 440 0;
#X connect 479 4 444 0;
#X connect 479 5 475 0;
#X connect 479 6 476 0;
#X connect 479 7 478 0;
#X connect 479 8 480 0;
#X connect 479 9 477 0;
#X connect 481 0 134 0;
#X connect 481 0 141 0;
#X connect 484 0 294 13;
#X coords 0 -1 1 1 1360 160 2 100 100;
