#N canvas 287 225 1390 715 12;
#X declare -path ../commons;
#X obj 857 89 table seq_main_\$0 32;
#N canvas 52 20 1854 977 handle_generation 0;
#X obj 281 165 euclid, f 17;
#X floatatom 331 117 5 0 0 0 - - - 0;
#X floatatom 372 117 5 0 0 0 - - - 0;
#X obj 447 117 until;
#X obj 437 154 i;
#X obj 501 154 + 1;
#X msg 503 117 0;
#X obj 284 260 pack 0 0;
#X obj 447 87 min 32;
#X obj 479 5 r n_of_steps_\$0;
#X obj 447 59 i;
#X obj 332 88 r n_of_steps_\$0;
#X obj 283 61 loadbang;
#X msg 296 88 0;
#X obj 666 215 until;
#X obj 666 248 i;
#X obj 701 248 + 1;
#X msg 666 187 32;
#X msg 701 187 0;
#X obj 667 149 t b b;
#X msg 698 309 0;
#X obj 633 333 pack 0 0;
#X obj 633 282 i;
#X obj 666 282 t b f;
#X obj 667 122 r clear_seq_\$0;
#X obj 489 33 r euc_generate_\$0;
#X obj 633 359 s write_to_seq_\$0;
#X obj 286 291 s write_to_seq_\$0;
#X obj 418 187 t f f;
#X obj 286 231 f;
#X obj 288 196 t b f;
#X obj 123 348 r n_of_steps_\$0;
#X obj 64 461 s write_to_seq_\$0;
#X obj 87 171 s clear_seq_\$0;
#X obj 63 408 t f b;
#X obj 64 434 pack 0 1;
#X msg 122 409 1;
#X obj 63 374 uziurn;
#X obj 71 143 t b b;
#X obj 72 106 r random_generate_\$0;
#X obj 82 315 *;
#X obj 82 340 i;
#X obj 95 282 t b f;
#X obj 126 237 r n_of_steps_\$0;
#X obj 253 689 s random_generate_\$0;
#X obj 253 600 t b b;
#X msg 286 631 stop;
#X obj 425 600 t b b;
#X msg 458 631 stop;
#X obj 425 689 s euc_generate_\$0;
#X obj 425 567 spigot;
#X obj 253 568 spigot;
#X obj 322 472 sel 0 1 2;
#X msg 485 538 0;
#X msg 448 539 1;
#X msg 329 538 0;
#X msg 292 539 1;
#X obj 538 539 s clear_seq_\$0;
#X obj 285 427 r type_of_fill_\$0;
#X obj 253 506 delay 1;
#X obj 363 3 *;
#X obj 363 30 i;
#X obj 376 -33 t b f;
#X obj 545 93 s clear_seq_\$0;
#X obj 512 62 t b b b;
#X obj 253 660 delay 100;
#X obj 425 660 delay 100;
#X obj 355 58 max 1;
#X obj 587 -96 r density_\$0;
#X obj 495 -104 / 127;
#X obj 88 203 / 127;
#X obj 146 204 r density_\$0;
#X connect 0 0 30 0;
#X connect 1 0 0 2;
#X connect 2 0 0 3;
#X connect 3 0 4 0;
#X connect 4 0 5 0;
#X connect 4 0 28 0;
#X connect 5 0 4 1;
#X connect 6 0 4 1;
#X connect 7 0 27 0;
#X connect 8 0 3 0;
#X connect 9 0 10 1;
#X connect 9 0 60 0;
#X connect 10 0 8 0;
#X connect 11 0 2 0;
#X connect 11 0 50 0;
#X connect 12 0 13 0;
#X connect 13 0 1 0;
#X connect 14 0 15 0;
#X connect 15 0 16 0;
#X connect 15 0 23 0;
#X connect 15 0 22 1;
#X connect 16 0 15 1;
#X connect 17 0 14 0;
#X connect 18 0 15 1;
#X connect 19 0 17 0;
#X connect 19 1 18 0;
#X connect 20 0 21 1;
#X connect 21 0 26 0;
#X connect 22 0 21 0;
#X connect 23 0 22 0;
#X connect 23 1 20 0;
#X connect 24 0 19 0;
#X connect 25 0 64 0;
#X connect 28 0 0 0;
#X connect 28 1 29 1;
#X connect 29 0 7 0;
#X connect 30 0 29 0;
#X connect 30 1 7 1;
#X connect 31 0 37 2;
#X connect 31 0 51 0;
#X connect 34 0 35 0;
#X connect 34 1 36 0;
#X connect 35 0 32 0;
#X connect 36 0 35 1;
#X connect 37 0 34 0;
#X connect 38 0 37 0;
#X connect 38 1 33 0;
#X connect 39 0 38 0;
#X connect 40 0 41 0;
#X connect 41 0 37 1;
#X connect 42 0 40 0;
#X connect 42 1 40 1;
#X connect 43 0 42 0;
#X connect 45 0 65 0;
#X connect 45 1 46 0;
#X connect 46 0 65 0;
#X connect 47 0 66 0;
#X connect 47 1 48 0;
#X connect 48 0 66 0;
#X connect 50 0 47 0;
#X connect 51 0 45 0;
#X connect 52 0 55 0;
#X connect 52 0 53 0;
#X connect 52 0 57 0;
#X connect 52 1 56 0;
#X connect 52 1 53 0;
#X connect 52 2 54 0;
#X connect 52 2 55 0;
#X connect 53 0 50 1;
#X connect 54 0 50 1;
#X connect 55 0 51 1;
#X connect 56 0 51 1;
#X connect 58 0 52 0;
#X connect 58 0 59 0;
#X connect 59 0 51 0;
#X connect 59 0 50 0;
#X connect 60 0 61 0;
#X connect 61 0 67 0;
#X connect 62 0 60 0;
#X connect 62 1 60 1;
#X connect 64 0 10 0;
#X connect 64 1 6 0;
#X connect 64 2 63 0;
#X connect 65 0 44 0;
#X connect 66 0 49 0;
#X connect 67 0 0 1;
#X connect 68 0 69 0;
#X connect 69 0 50 0;
#X connect 69 0 62 0;
#X connect 70 0 40 0;
#X connect 70 0 51 0;
#X connect 71 0 70 0;
#X restore 858 158 pd handle_generation;
#N canvas 682 111 1150 805 handle_sample_selection 0;
#X obj 247 105 i;
#X obj 417 105 i;
#X obj 449 111 - 1;
#X obj 282 112 + 1;
#X obj 520 104 s load_sample_\$0;
#X obj 186 194 r preset_\$0_sample;
#X obj 531 154 loadbang;
#X obj 419 336 sel 0 1 2 3 4 5;
#X floatatom 824 446 5 0 127 0 - - - 0;
#X obj 732 365 i;
#X obj 813 365 i;
#X obj 841 365 - 1;
#X obj 771 364 + 1;
#X obj 958 289 loadbang;
#X obj 911 562 s set_kit_\$0;
#X obj 844 394 max 0;
#X obj 931 403 r preset_\$0_kit;
#X msg 956 355 0;
#X obj 734 416 min 5;
#X obj 421 438 f \$0;
#X msg 528 493 crackles;
#X msg 528 473 high;
#X msg 527 451 low;
#X msg 526 430 hihat;
#X msg 525 408 snare;
#X msg 526 387 kick;
#X obj 342 437 pack s 0;
#X msg 342 469 \; folder_label_\$2 label \$1;
#X obj 379 380 loadbang;
#X obj 362 245 s to_samp_n_\$0;
#X obj 481 31 r from_samp_n_\$0;
#X obj 58 583 soundfiler;
#X obj 154 501 f \$0;
#X obj 137 583 table sample_\$0 10;
#X obj 55 428 r load_sample_\$0;
#X obj 221 470 loadbang;
#X obj 58 533 pack 0 0 0;
#X obj 96 456 r set_kit_\$0;
#X obj 248 718 tabplay~ sample_\$0;
#X obj 248 680 bng 20 250 50 0 empty empty empty 0 -10 0 12 #fcfcfc #000000 #000000;
#X obj 59 636 s sample_len_\$0;
#X obj 248 747 *~ 0.4;
#X obj 247 776 s~ sample_preview_\$0;
#X obj 955 318 delay 100;
#X obj 527 181 delay 100;
#X obj 375 29 r sample-_\$0;
#X obj 231 23 r sample+_\$0;
#X obj 660 313 r folder+_\$0;
#X obj 809 314 r folder-_\$0;
#X obj 453 144 max 0;
#X msg 508 208 0;
#X obj 793 486 bng 20 250 50 0 empty empty empty 0 -10 0 12 #fcfcfc #000000 #000000;
#X obj 475 805 list append;
#X obj 475 556 t a a;
#X obj 478 854 list prepend;
#X obj 478 825 list trim;
#X obj 478 875 list trim;
#X obj 582 860 loadbang;
#X obj 478 894 print;
#X msg 590 792 sample_\$3;
#X msg 577 886 read -resize;
#X obj 488 710 makefilename %s/%%s;
#X msg 488 735 set \$1;
#X obj 475 765 makefilename tbd;
#X msg 475 600 symbol dm_samples/\$2/\$1.wav;
#X obj 488 681 r current_path_\$0;
#X obj 713 598 loadbang;
#X msg 713 622 symbol ./factory_samples;
#X connect 0 0 3 0;
#X connect 1 0 2 0;
#X connect 2 0 49 0;
#X connect 3 0 29 0;
#X connect 3 0 7 0;
#X connect 5 0 29 0;
#X connect 6 0 44 0;
#X connect 7 0 25 0;
#X connect 7 1 24 0;
#X connect 7 2 23 0;
#X connect 7 3 22 0;
#X connect 7 4 21 0;
#X connect 7 5 20 0;
#X connect 8 0 10 1;
#X connect 8 0 9 1;
#X connect 8 0 14 0;
#X connect 8 0 51 0;
#X connect 9 0 12 0;
#X connect 10 0 11 0;
#X connect 11 0 15 0;
#X connect 12 0 18 0;
#X connect 13 0 43 0;
#X connect 15 0 8 0;
#X connect 16 0 8 0;
#X connect 17 0 8 0;
#X connect 18 0 8 0;
#X connect 19 0 26 1;
#X connect 20 0 26 0;
#X connect 21 0 26 0;
#X connect 22 0 26 0;
#X connect 23 0 26 0;
#X connect 24 0 26 0;
#X connect 25 0 26 0;
#X connect 26 0 27 0;
#X connect 28 0 19 0;
#X connect 30 0 4 0;
#X connect 30 0 0 1;
#X connect 30 0 1 1;
#X connect 31 0 40 0;
#X connect 31 1 39 0;
#X connect 32 0 36 2;
#X connect 34 0 36 0;
#X connect 35 0 32 0;
#X connect 36 0 53 0;
#X connect 37 0 36 1;
#X connect 38 0 41 0;
#X connect 39 0 38 0;
#X connect 41 0 42 0;
#X connect 43 0 17 0;
#X connect 44 0 50 0;
#X connect 45 0 1 0;
#X connect 46 0 0 0;
#X connect 47 0 9 0;
#X connect 48 0 10 0;
#X connect 49 0 29 0;
#X connect 49 0 7 0;
#X connect 50 0 29 0;
#X connect 51 0 29 0;
#X connect 52 0 55 0;
#X connect 53 0 64 0;
#X connect 53 1 59 0;
#X connect 54 0 56 0;
#X connect 55 0 54 0;
#X connect 56 0 58 0;
#X connect 56 0 31 0;
#X connect 57 0 60 0;
#X connect 59 0 52 1;
#X connect 60 0 54 1;
#X connect 61 0 62 0;
#X connect 62 0 63 0;
#X connect 63 0 52 0;
#X connect 64 0 63 0;
#X connect 65 0 61 0;
#X connect 66 0 67 0;
#X connect 67 0 61 0;
#X restore 858 180 pd handle_sample_selection;
#X obj 474 487 outlet~;
#X obj 532 486 outlet~;
#X obj 588 488 outlet~;
#X obj 647 489 outlet~;
#X obj 774 485 outlet;
#X obj 754 439 r control_out_\$0;
#X obj 858 205 declare -path ../commons;
#N canvas 52 20 1854 977 handle_presets 0;
#X obj 1074 -40 t b b f;
#X obj 752 127 until;
#X obj 751 160 i;
#X obj 787 160 + 1;
#X obj 753 30 bng 20 250 50 0 empty empty empty 0 -10 0 12 #fcfcfc #000000 #000000;
#X obj 753 61 t b b b;
#X obj 751 221 tabread seq_main_\$0;
#X obj 715 281 pack 0 0;
#X obj 712 254 i;
#X obj 747 253 t b f;
#X obj 715 307 s write_to_seq_\$0;
#X msg 787 99 0;
#X obj 751 189 t f f;
#X obj 474 537 r load_sample_\$0;
#X obj 474 560 r set_kit_\$0;
#X obj 114 1470 tabwrite presets_\$0;
#X msg 435 560 \$1 1;
#X msg 435 537 \$1 0;
#X obj 503 583 r n_of_steps_\$0;
#X msg 435 583 \$1 2;
#X obj -242 219 f;
#X obj 1030 24 f;
#X obj 840 940 s preset_\$0_nsteps;
#X obj 827 964 s preset_\$0_kit;
#X obj 797 988 s preset_\$0_sample;
#X obj 782 896 f;
#X obj 762 848 t b f;
#X obj 762 871 delay 100;
#X obj 474 606 r glob_vol_\$0;
#X msg 435 606 \$1 3;
#X obj 862 914 s preset_glob_vol_\$0;
#X msg 435 629 \$1 4;
#X msg 435 652 \$1 5;
#X msg 435 675 \$1 6;
#X obj 474 629 r volume_rnd_\$0;
#X obj 474 652 r chance_\$0;
#X obj 474 675 r microtiming_\$0;
#X obj 880 890 s preset_volume_rnd_\$0;
#X obj 903 866 s preset_chance_\$0;
#X obj 922 833 s preset_microtiming_\$0;
#X obj 474 698 r automation_sync_\$0;
#X obj 474 721 r automation_division_\$0;
#X obj 474 744 r automation_bpm_\$0;
#X obj 474 767 r automation_shape_\$0;
#X obj 474 790 r automation_transition_\$0;
#X obj 474 813 r automation_spread_\$0;
#X msg 435 698 \$1 7;
#X msg 435 721 \$1 8;
#X msg 435 744 \$1 9;
#X msg 435 767 \$1 10;
#X msg 435 790 \$1 11;
#X msg 435 813 \$1 12;
#X obj 857 1153 s preset_automation_sync_\$0;
#X obj 873 1128 s preset_automation_division_\$0;
#X obj 891 1103 s preset_automation_bpm_\$0;
#X obj 916 1075 s preset_automation_shape_\$0;
#X obj 937 1051 s preset_automation_transition_\$0;
#X obj 950 1025 s preset_automation_spread_\$0;
#X obj 474 836 r automation_phase_\$0;
#X msg 435 836 \$1 13;
#X obj 970 1001 s preset_automation_phase_\$0;
#X msg 435 859 \$1 14;
#X msg 435 882 \$1 15;
#X msg 435 905 \$1 16;
#X msg 435 928 \$1 17;
#X msg 435 951 \$1 18;
#X msg 435 974 \$1 19;
#X msg 435 997 \$1 20;
#X msg 435 1020 \$1 21;
#X msg 435 1043 \$1 22;
#X msg 435 1066 \$1 23;
#X msg 435 1089 \$1 24;
#X msg 435 1112 \$1 25;
#X msg 435 1135 \$1 26;
#X msg 435 1158 \$1 27;
#X msg 435 1181 \$1 28;
#X msg 435 1203 \$1 29;
#X msg 435 1225 \$1 30;
#X msg 435 1247 \$1 31;
#X msg 435 1269 \$1 32;
#X msg 435 1291 \$1 33;
#X msg 435 1313 \$1 34;
#X msg 435 1335 \$1 35;
#X msg 752 99 32;
#X msg 435 1357 \$1 36;
#X obj -261 184 delay 200;
#X obj 474 905 r env_\$0;
#X obj 474 928 r reverse_\$0;
#X obj 474 951 r pitch_\$0;
#X obj 474 974 r random_pitch_amt_\$0;
#X obj 474 997 r micro_wide_pitch_\$0;
#X obj 1166 872 s preset_env_\$0;
#X obj 1183 899 s preset_reverse_\$0;
#X obj 1201 923 s preset_pitch_\$0;
#X obj 1218 949 s preset_random_pitch_amt_\$0;
#X obj 1240 973 s preset_micro_wide_pitch_\$0;
#X obj 474 1020 r mute_\$0;
#X obj 1261 1004 s preset_mute_\$0;
#X obj 474 1066 r hit_length_\$0;
#X obj 1308 1053 s preset_hit_length_\$0;
#X obj 474 1089 r sync_\$0;
#X obj 474 1112 r div_\$0;
#X obj 474 1043 r bpm_\$0;
#X obj 1335 1084 s preset_sync_\$0;
#X obj 1356 1108 s preset_div_\$0;
#X obj 1291 1028 s preset_bpm_\$0;
#X obj 227 1333 list;
#X obj 191 1396 unpack 0 0;
#X obj 474 1135 r set_preset_fold_\$0;
#X obj 474 1158 r set_preset_fold_stgs_\$0;
#X obj 474 1181 r set_preset_filt_typ_\$0;
#X obj 474 1203 r set_preset_filt_frq_\$0;
#X obj 474 1225 r set_preset_filt_q_\$0;
#X obj 474 1379 r set_preset_lfo1_frq_\$0;
#X obj 474 1401 r set_preset_lfo1_q_\$0;
#X obj 474 1423 r set_preset_lfo1_sel_\$0;
#X obj 474 1467 r set_preset_lfo2_frq_\$0;
#X obj 474 1489 r set_preset_lfo2_q_\$0;
#X obj 474 1511 r set_preset_lfo2_sel_\$0;
#X obj 1494 906 s preset_fold_\$0;
#X obj 1494 929 s preset_fold_stgs_\$0;
#X obj 1494 952 s preset_filt_typ_\$0;
#X obj 1494 974 s preset_filt_frq_\$0;
#X obj 1494 996 s preset_filt_q_\$0;
#X obj 1668 903 s preset_lfo1_frq_\$0;
#X obj 1666 930 s preset_lfo1_q_\$0;
#X obj 1666 952 s preset_lfo1_sel_\$0;
#X obj 1666 996 s preset_lfo2_frq_\$0;
#X obj 1666 1018 s preset_lfo2_q_\$0;
#X obj 1666 1040 s preset_lfo2_sel_\$0;
#X msg 435 1379 \$1 37;
#X msg 435 1401 \$1 38;
#X msg 435 1423 \$1 39;
#X msg 435 1445 \$1 40;
#X msg 435 1467 \$1 41;
#X msg 435 1489 \$1 42;
#X msg 435 1511 \$1 43;
#X msg 435 1533 \$1 44;
#X obj 474 859 r rack_div_\$0;
#X obj 474 882 r rack_rnd_\$0;
#X obj 1016 975 s preset_rack_div_\$0;
#X obj 1048 946 s preset_rack_rnd_\$0;
#X obj -60 -88 r save_\$0;
#X obj 1098 -94 r load_\$0;
#X obj 479 1555 r set_fx_preset_\$0;
#X obj 1668 1086 s preset_fx_preset_\$0;
#X obj 2407 1014 s ctrl_sample+_\$0;
#X obj 2440 1030 s ctrl_sample-_\$0;
#X obj 2461 1048 s ctrl_folder+_\$0;
#X obj 2501 1068 s ctrl_folder-_\$0;
#X obj 2531 1090 s ctrl_reset_\$0;
#X obj 2567 1115 s ctrl_audition_env_\$0;
#X obj 2685 1046 s ctrl_fx_x_\$0;
#X obj 2718 1067 s ctrl_fx_y_\$0;
#X obj 2746 1091 s ctrl_fx_activate_\$0;
#X obj 484 1580 r effect_send_\$0;
#X msg 434 1556 \$1 45;
#X msg 439 1581 \$1 46;
#X obj 1669 1111 s preset_effect_send_\$0;
#X obj 829 672 r control_\$0;
#X obj 2382 995 s write_to_seq_\$0;
#X obj -106 1449 r control_play_index_\$0;
#X obj -233 1352 r control_out_space_shape_name_\$0;
#X obj -331 1271 r control_out_fx_preset_name_\$0;
#X obj 65 1783 s control_out_\$0;
#X obj -342 1327 t a b;
#X obj -233 1394 t a b;
#X msg -299 1389 1 110;
#X msg -201 1431 1 111;
#X obj 181 1627 r control_out_write_steps_\$0;
#X obj 474 1445 r set_preset_lfo1_mul_\$0;
#X obj 474 1533 r set_preset_lfo2_mul_\$0;
#X msg 439 1606 \$1 47;
#X msg 438 1628 \$1 48;
#X obj 478 1628 r set_preset_lfo2_ass_\$0;
#X obj 478 1606 r set_preset_lfo1_ass_\$0;
#X obj 1786 1196 s preset_lfo1_ass_\$0;
#X obj 1806 1173 s preset_lfo2_ass_\$0;
#X obj 1666 974 s preset_lfo1_mul_\$0;
#X obj 1666 1062 s preset_lfo2_mul_\$0;
#X obj 1830 1149 s preset_density_\$0;
#X obj 1846 1124 s preset_type_of_fill_\$0;
#X obj 478 1650 r density_\$0;
#X obj 479 1674 r type_of_fill_\$0;
#X msg 437 1650 \$1 49;
#X msg 441 1675 \$1 50;
#X obj 479 1697 r rack_div_\$0;
#X obj 480 1718 r rack_rnd_\$0;
#X msg 441 1696 \$1 51;
#X msg 441 1717 \$1 52;
#X obj 1871 1099 s preset_rack_div_\$0;
#X obj 1900 1073 s preset_rack_rnd_\$0;
#X obj 2784 1113 s ctrl_automation_shape-_\$0;
#X obj 2810 1137 s ctrl_automation_shape+_\$0;
#X obj -243 1467 list append;
#X obj 88 1538 r module_id_\$0;
#X obj 292 1709 r module_id_\$0;
#X obj 282 1672 unpack 0 0;
#X obj 264 1735 pack 0 0 100 0;
#X obj -185 1377 r module_id_\$0;
#X msg -185 1402 set \$1 111;
#X obj -293 1300 r module_id_\$0;
#X msg -293 1325 set \$1 110;
#X obj -91 1542 r module_id_\$0;
#X obj 476 583 i;
#X obj -97 1482 unpack 0 0;
#X obj -97 1507 swap;
#X obj -119 1568 pack 0 0 112 0;
#X obj -331 1633 r x_\$0;
#X obj -199 1657 r y_\$0;
#X obj -317 1676 r module_id_\$0;
#X obj -166 1691 r module_id_\$0;
#X obj -337 1706 pack 0 0 113;
#X obj -186 1721 pack 0 0 114;
#X obj 68 1568 pack 0 0 0;
#X obj -550 1531 until;
#X obj -550 1556 i;
#X obj -507 1557 + 1;
#X msg -507 1532 0;
#X msg -546 1497 32;
#X obj -508 1246 r n_of_steps_\$0;
#X obj -546 1472 t b b f;
#X obj -554 1590 t f f;
#X obj -468 1623 r module_id_\$0;
#X obj -539 1737 pack 0 0 115 0;
#X obj -550 1627 <;
#X obj -546 1694 == 0;
#X obj -512 1438 i;
#X obj -514 1320 t b b f;
#X msg -489 1351 stop;
#X obj -525 1383 delay 200;
#X obj 1006 -12 delay 100;
#X obj 892 19 delay 100;
#X obj 481 1786 r poly_rngs_\$0;
#X obj 481 1763 r pitch_rngs_\$0;
#X obj 477 1358 r transp_rngs_\$0;
#X obj 476 1335 r posit_rngs_\$0;
#X obj 475 1312 r struct_rngs_\$0;
#X obj 477 1289 r bright_rngs_\$0;
#X obj 478 1266 r damp_rngs_\$0;
#X obj 477 1245 r model_rngs_\$0;
#X obj 481 1740 r rngs_dw_\$0;
#X obj 482 1809 r exciter_rngs_\$0;
#X msg 441 1739 \$1 53;
#X msg 442 1763 \$1 54;
#X msg 442 1784 \$1 55;
#X msg 442 1805 \$1 56;
#X obj 1494 1094 s preset_model_rngs_\$0;
#X obj 1503 1118 s preset_damp_rngs_\$0;
#X obj 1513 1142 s preset_bright_rngs_\$0;
#X obj 1527 1164 s preset_struct_rngs_\$0;
#X obj 1537 1187 s preset_posit_rngs_\$0;
#X obj 1549 1212 s preset_transp_rngs_\$0;
#X obj 1922 1049 s preset_rngs_dw_\$0;
#X obj 1945 1024 s preset_pitch_rngs_\$0;
#X obj 1973 996 s preset_poly_rngs_\$0;
#X obj 2006 965 s preset_exciter_rngs_\$0;
#X obj 2482 786 route 100 101 102 103 104 105 106 107 108 109 110 111 116, f 90;
#X obj 2851 1163 s ctrl_trig_rngs_\$0;
#X msg 442 1829 \$1 57;
#X obj 482 1833 r set_preset_fold_mix_\$0;
#X obj 2039 937 s preset_fold_mix_\$0;
#X obj 1417 207 r ID_\$0;
#X obj 1491 207 r current_path_\$0;
#X obj 1550 250 r module_id_\$0;
#X obj -268 428 r ID_\$0;
#X obj -204 372 r current_path_\$0;
#X obj -60 373 r module_id_\$0;
#X obj -75 435 makefilename _%i;
#X obj 1521 284 makefilename _%i;
#X obj 1370 325 load_preset presets_\$0;
#X msg -169 444 symbol \$1;
#X text 1515 476 postpone writing sequence to avoid overwriting with new random generation: 1- load preset \; 2- load seq \; 3- write seq;
#X obj 1074 246 r ID_\$0;
#X obj 1148 246 r current_path_\$0;
#X obj 1207 289 r module_id_\$0;
#X obj 1027 364 load_preset seq_main_\$0;
#X obj 1178 323 makefilename _%i_seq;
#X obj 264 339 r ID_\$0;
#X obj 338 339 r current_path_\$0;
#X obj 482 340 r module_id_\$0;
#X msg 373 411 symbol \$1;
#X obj 467 402 makefilename _%i_seq;
#X obj 217 457 save_preset seq_main_\$0 32;
#X obj -269 97 bng 20 250 50 0 empty empty empty 0 -10 0 12 #fcfcfc #000000 #000000;
#X msg 440 1851 \$1 58;
#X msg 441 1874 \$1 59;
#X msg 441 1897 \$1 60;
#X msg 441 1920 \$1 61;
#X obj 481 1901 r set_preset_lfo2_sync_\$0;
#X obj 481 1924 r set_preset_lfo2_phs_\$0;
#X obj 481 1878 r set_preset_lfo1_phs_\$0;
#X obj 480 1855 r set_preset_lfo1_sync_\$0;
#X obj -325 490 save_preset presets_\$0 62;
#X obj 534 210 table presets_\$0 65;
#X obj 829 794 route 0 1 2 3 4 5 6 7 8 9 10 11 12 13 14 15 16 17 18 19 20 21 22 23 24 25 26 27 28 29 30 31 32 33 34 35 36 37 38 39 40 41 42 43 44 45 46 47 48 49 50 51 52 53 54 55 56 57 58 59 60 61, f 184;
#X obj 2060 904 s preset_lfo1_sync_\$0;
#X obj 2076 878 s preset_lfo1_phs_\$0;
#X obj 2096 855 s preset_lfo2_sync_\$0;
#X obj 2131 827 s preset_lfo2_phs_\$0;
#X obj -364 1420 list append;
#X obj -371 1147 t a b;
#X msg -339 1184 1 111;
#X obj -381 1220 list append;
#X obj -323 1130 r module_id_\$0;
#X msg -323 1155 set \$1 111;
#X obj -371 1105 r control_out_lfo1_sync_name_\$0;
#X obj -488 1058 t a b;
#X msg -456 1095 1 111;
#X obj -497 1132 list append;
#X obj -440 1041 r module_id_\$0;
#X msg -440 1066 set \$1 111;
#X obj -488 1016 r control_out_lfo2_sync_name_\$0;
#X obj 1819 261 load_init presets_\$0 drum_machine_abs;
#X obj 2092 175 r module_id_\$0;
#X obj 2073 206 makefilename _%i;
#X obj 1797 167 r load_init_\$0;
#X obj 462 468 print currentpath;
#X obj -493 650 save_init presets_\$0 drum_machine_abs 62;
#X obj -197 577 r module_id_\$0;
#X obj -216 608 makefilename _%i;
#X obj -493 613 r save_init_\$0;
#X obj -100 661 r module_id_\$0;
#X obj -396 697 r save_init_\$0;
#X obj -396 734 save_init seq_main_\$0 drum_machine_abs 32;
#X obj -119 692 makefilename _%i_seq;
#X connect 0 0 231 0;
#X connect 0 2 21 1;
#X connect 0 2 270 0;
#X connect 1 0 2 0;
#X connect 2 0 3 0;
#X connect 2 0 12 0;
#X connect 3 0 2 1;
#X connect 4 0 5 0;
#X connect 5 0 83 0;
#X connect 5 1 11 0;
#X connect 6 0 9 0;
#X connect 7 0 10 0;
#X connect 8 0 7 0;
#X connect 9 0 8 0;
#X connect 9 1 7 1;
#X connect 11 0 2 1;
#X connect 12 0 6 0;
#X connect 12 1 8 1;
#X connect 13 0 17 0;
#X connect 14 0 16 0;
#X connect 16 0 106 0;
#X connect 17 0 106 0;
#X connect 18 0 204 0;
#X connect 19 0 106 0;
#X connect 20 0 293 0;
#X connect 21 0 276 0;
#X connect 25 0 24 0;
#X connect 26 0 27 0;
#X connect 26 1 25 1;
#X connect 27 0 25 0;
#X connect 28 0 29 0;
#X connect 29 0 106 0;
#X connect 31 0 106 0;
#X connect 32 0 106 0;
#X connect 33 0 106 0;
#X connect 34 0 31 0;
#X connect 35 0 32 0;
#X connect 36 0 33 0;
#X connect 40 0 46 0;
#X connect 41 0 47 0;
#X connect 42 0 48 0;
#X connect 43 0 49 0;
#X connect 44 0 50 0;
#X connect 45 0 51 0;
#X connect 46 0 106 0;
#X connect 47 0 106 0;
#X connect 48 0 106 0;
#X connect 49 0 106 0;
#X connect 50 0 106 0;
#X connect 51 0 106 0;
#X connect 58 0 59 0;
#X connect 59 0 106 0;
#X connect 61 0 106 0;
#X connect 62 0 106 0;
#X connect 63 0 106 0;
#X connect 64 0 106 0;
#X connect 65 0 106 0;
#X connect 66 0 106 0;
#X connect 67 0 106 0;
#X connect 68 0 106 0;
#X connect 69 0 106 0;
#X connect 70 0 106 0;
#X connect 71 0 106 0;
#X connect 72 0 106 0;
#X connect 73 0 106 0;
#X connect 74 0 106 0;
#X connect 75 0 106 0;
#X connect 76 0 106 0;
#X connect 77 0 106 0;
#X connect 78 0 106 0;
#X connect 79 0 106 0;
#X connect 80 0 106 0;
#X connect 81 0 106 0;
#X connect 82 0 106 0;
#X connect 83 0 1 0;
#X connect 84 0 106 0;
#X connect 85 0 20 0;
#X connect 86 0 63 0;
#X connect 87 0 64 0;
#X connect 88 0 65 0;
#X connect 89 0 66 0;
#X connect 90 0 67 0;
#X connect 96 0 68 0;
#X connect 98 0 70 0;
#X connect 100 0 71 0;
#X connect 101 0 72 0;
#X connect 102 0 69 0;
#X connect 106 0 107 0;
#X connect 107 0 15 0;
#X connect 107 0 214 0;
#X connect 107 1 15 1;
#X connect 107 1 214 2;
#X connect 108 0 73 0;
#X connect 109 0 74 0;
#X connect 110 0 75 0;
#X connect 111 0 76 0;
#X connect 112 0 77 0;
#X connect 113 0 130 0;
#X connect 114 0 131 0;
#X connect 115 0 132 0;
#X connect 116 0 134 0;
#X connect 117 0 135 0;
#X connect 118 0 136 0;
#X connect 130 0 106 0;
#X connect 131 0 106 0;
#X connect 132 0 106 0;
#X connect 133 0 106 0;
#X connect 134 0 106 0;
#X connect 135 0 106 0;
#X connect 136 0 106 0;
#X connect 137 0 106 0;
#X connect 138 0 61 0;
#X connect 139 0 62 0;
#X connect 142 0 20 1;
#X connect 142 0 284 0;
#X connect 142 0 283 0;
#X connect 143 0 0 0;
#X connect 144 0 156 0;
#X connect 155 0 157 0;
#X connect 156 0 106 0;
#X connect 157 0 106 0;
#X connect 159 0 295 0;
#X connect 161 0 205 0;
#X connect 162 0 166 0;
#X connect 163 0 165 0;
#X connect 165 0 300 0;
#X connect 165 1 167 0;
#X connect 166 0 194 0;
#X connect 166 1 168 0;
#X connect 167 0 300 1;
#X connect 168 0 194 1;
#X connect 169 0 197 0;
#X connect 170 0 133 0;
#X connect 171 0 137 0;
#X connect 172 0 106 0;
#X connect 173 0 106 0;
#X connect 174 0 173 0;
#X connect 175 0 172 0;
#X connect 182 0 184 0;
#X connect 183 0 185 0;
#X connect 184 0 106 0;
#X connect 185 0 106 0;
#X connect 186 0 188 0;
#X connect 187 0 189 0;
#X connect 188 0 106 0;
#X connect 189 0 106 0;
#X connect 194 0 164 0;
#X connect 195 0 214 1;
#X connect 196 0 198 1;
#X connect 197 0 198 0;
#X connect 197 1 198 3;
#X connect 198 0 164 0;
#X connect 199 0 200 0;
#X connect 200 0 168 0;
#X connect 201 0 202 0;
#X connect 202 0 167 0;
#X connect 203 0 207 1;
#X connect 204 0 19 0;
#X connect 205 0 206 0;
#X connect 205 1 206 1;
#X connect 206 0 207 0;
#X connect 206 1 207 3;
#X connect 207 0 164 0;
#X connect 208 0 212 0;
#X connect 209 0 213 0;
#X connect 210 0 212 1;
#X connect 211 0 213 1;
#X connect 212 0 164 0;
#X connect 213 0 164 0;
#X connect 214 0 164 0;
#X connect 215 0 216 0;
#X connect 216 0 217 0;
#X connect 216 0 222 0;
#X connect 217 0 216 1;
#X connect 218 0 216 1;
#X connect 219 0 215 0;
#X connect 220 0 228 0;
#X connect 221 0 219 0;
#X connect 221 1 218 0;
#X connect 221 2 225 1;
#X connect 222 0 225 0;
#X connect 222 1 224 3;
#X connect 223 0 224 1;
#X connect 224 0 164 0;
#X connect 225 0 226 0;
#X connect 226 0 224 0;
#X connect 227 0 221 0;
#X connect 228 0 230 0;
#X connect 228 1 229 0;
#X connect 228 2 227 1;
#X connect 229 0 230 0;
#X connect 230 0 227 0;
#X connect 231 0 21 0;
#X connect 231 0 232 0;
#X connect 232 0 4 0;
#X connect 233 0 245 0;
#X connect 234 0 244 0;
#X connect 235 0 84 0;
#X connect 236 0 82 0;
#X connect 237 0 81 0;
#X connect 238 0 80 0;
#X connect 239 0 79 0;
#X connect 240 0 78 0;
#X connect 241 0 243 0;
#X connect 242 0 246 0;
#X connect 243 0 106 0;
#X connect 244 0 106 0;
#X connect 245 0 106 0;
#X connect 246 0 106 0;
#X connect 257 0 160 0;
#X connect 257 1 146 0;
#X connect 257 2 147 0;
#X connect 257 3 148 0;
#X connect 257 4 149 0;
#X connect 257 5 150 0;
#X connect 257 6 151 0;
#X connect 257 7 152 0;
#X connect 257 8 153 0;
#X connect 257 9 154 0;
#X connect 257 10 192 0;
#X connect 257 11 193 0;
#X connect 257 12 258 0;
#X connect 259 0 106 0;
#X connect 260 0 259 0;
#X connect 262 0 270 1;
#X connect 263 0 270 2;
#X connect 264 0 269 0;
#X connect 265 0 293 1;
#X connect 266 0 271 0;
#X connect 267 0 268 0;
#X connect 268 0 293 4;
#X connect 269 0 270 3;
#X connect 270 0 295 0;
#X connect 271 0 293 2;
#X connect 273 0 276 1;
#X connect 274 0 276 2;
#X connect 275 0 277 0;
#X connect 277 0 276 3;
#X connect 278 0 283 1;
#X connect 279 0 281 0;
#X connect 279 0 317 0;
#X connect 280 0 282 0;
#X connect 281 0 283 2;
#X connect 282 0 283 4;
#X connect 284 0 85 0;
#X connect 285 0 106 0;
#X connect 286 0 106 0;
#X connect 287 0 106 0;
#X connect 288 0 106 0;
#X connect 289 0 287 0;
#X connect 290 0 288 0;
#X connect 291 0 286 0;
#X connect 292 0 285 0;
#X connect 295 0 26 0;
#X connect 295 1 23 0;
#X connect 295 2 22 0;
#X connect 295 3 30 0;
#X connect 295 4 37 0;
#X connect 295 5 38 0;
#X connect 295 6 39 0;
#X connect 295 7 52 0;
#X connect 295 8 53 0;
#X connect 295 9 54 0;
#X connect 295 10 55 0;
#X connect 295 11 56 0;
#X connect 295 12 57 0;
#X connect 295 13 60 0;
#X connect 295 14 140 0;
#X connect 295 15 141 0;
#X connect 295 16 91 0;
#X connect 295 17 92 0;
#X connect 295 18 93 0;
#X connect 295 19 94 0;
#X connect 295 20 95 0;
#X connect 295 21 97 0;
#X connect 295 22 105 0;
#X connect 295 23 99 0;
#X connect 295 24 103 0;
#X connect 295 25 104 0;
#X connect 295 26 119 0;
#X connect 295 27 120 0;
#X connect 295 28 121 0;
#X connect 295 29 122 0;
#X connect 295 30 123 0;
#X connect 295 31 247 0;
#X connect 295 32 248 0;
#X connect 295 33 249 0;
#X connect 295 34 250 0;
#X connect 295 35 251 0;
#X connect 295 36 252 0;
#X connect 295 37 124 0;
#X connect 295 38 125 0;
#X connect 295 39 126 0;
#X connect 295 40 178 0;
#X connect 295 41 127 0;
#X connect 295 42 128 0;
#X connect 295 43 129 0;
#X connect 295 44 179 0;
#X connect 295 45 145 0;
#X connect 295 46 158 0;
#X connect 295 47 176 0;
#X connect 295 48 177 0;
#X connect 295 49 180 0;
#X connect 295 50 181 0;
#X connect 295 51 190 0;
#X connect 295 52 191 0;
#X connect 295 53 253 0;
#X connect 295 54 254 0;
#X connect 295 55 255 0;
#X connect 295 56 256 0;
#X connect 295 57 261 0;
#X connect 295 58 296 0;
#X connect 295 59 297 0;
#X connect 295 60 298 0;
#X connect 295 61 299 0;
#X connect 295 62 257 0;
#X connect 300 0 164 0;
#X connect 301 0 303 0;
#X connect 301 1 302 0;
#X connect 302 0 303 1;
#X connect 303 0 164 0;
#X connect 304 0 305 0;
#X connect 305 0 302 0;
#X connect 306 0 301 0;
#X connect 307 0 309 0;
#X connect 307 1 308 0;
#X connect 308 0 309 1;
#X connect 309 0 164 0;
#X connect 310 0 311 0;
#X connect 311 0 308 0;
#X connect 312 0 307 0;
#X connect 313 0 295 0;
#X connect 314 0 315 0;
#X connect 315 0 313 1;
#X connect 316 0 313 0;
#X connect 319 0 320 0;
#X connect 320 0 318 2;
#X connect 321 0 318 0;
#X connect 322 0 325 0;
#X connect 323 0 324 0;
#X connect 325 0 324 2;
#X restore 858 135 pd handle_presets;
#X obj 88 53 inlet;
#X obj 290 153 s save_\$0;
#X obj 215 126 s load_\$0;
#X obj 86 119 s ID_\$0;
#X text 85 28 internal_in;
#X obj 372 131 s current_path_\$0;
#X obj 155 153 s module_id_\$0;
#X obj 436 213 s ext_bang_bpm_\$0;
#X obj 522 177 s ext_rst_\$0;
#X obj 694 120 s control_\$0;
#X obj 547 149 s load_init_\$0;
#X obj 88 82 route instance_id module_id load save current_path bang_bpm rst init save_init, f 87;
#X obj 582 115 s save_init_\$0;
#X connect 8 0 7 0;
#X connect 11 0 22 0;
#X connect 22 0 14 0;
#X connect 22 1 17 0;
#X connect 22 2 13 0;
#X connect 22 3 12 0;
#X connect 22 4 16 0;
#X connect 22 5 18 0;
#X connect 22 6 19 0;
#X connect 22 7 21 0;
#X connect 22 8 23 0;
#X connect 22 9 20 0;
#X coords 0 715 1 714 1360 160 0;
