#N canvas 530 75 1390 977 12;
#X declare -path ../../modules;
#X declare -path ../../modules/commons;
#X obj 16 394 melodic_seq;
#X obj 8 625 chord_seq;
#X obj 681 540 s osc_out;
#X obj 829 783 s osc_out;
#X obj 11 1013 s osc_out;
#X obj 631 242 s osc_out;
#X obj 16 968 pd~ -ninsig 0 -noutsig 4;
#X obj 225 41 main_song_handler;
#X obj 14 43 main_presets_handler;
#X obj 130 42 main_osc_handler;
#X obj 8 779 main_note_sender 3;
#X obj 17 543 main_note_sender 1;
#X obj 450 779 main_note_sender 4;
#X obj 437 40 main_connection 102 router;
#X obj 18 365 main_connection 0 seq1;
#X obj 8 593 main_connection 2 chord;
#X obj 216 190 loadbang;
#X msg 216 218 \; pd dsp 1;
#X obj 93 1015 main_send_to_output;
#X obj 1806 693 s osc_out;
#X obj 1435 730 main_send_to_output;
#X obj 437 66 main_note_router;
#X obj 23 16 declare -path ../../modules;
#N canvas 66 32 1854 977 init 0;
#X obj 110 315 s stop_subproc;
#X obj 112 212 bng 20 250 50 0 empty empty empty 0 -10 0 12 #fcfcfc #000000 #000000;
#X obj 12 399 s current_path;
#X msg 12 372 symbol \$1;
#X obj 12 347 pdcontrol;
#X msg 12 320 dir;
#X obj 156 352 s start_subproc;
#X obj 175 483 s init;
#X obj 23 163 delay 2000;
#X obj 112 186 bng 20 250 50 0 empty empty empty 0 -10 0 12 #fcfcfc #000000 #000000;
#X obj -107 -201 r auto_start;
#X obj 24 133 delay 100;
#X obj 111 106 bng 20 250 50 0 empty empty empty 0 -10 0 12 #fcfcfc #000000 #000000;
#X obj 111 159 bng 20 250 50 0 empty empty empty 0 -10 0 12 #fcfcfc #000000 #000000;
#X obj 111 132 bng 20 250 50 0 empty empty empty 0 -10 0 12 #fcfcfc #000000 #000000;
#X obj 163 238 tgl 20 0 empty empty empty 0 -10 0 12 #fcfcfc #000000 #000000 0 1;
#X text 134 237 gui;
#X obj 126 -69 loadbang;
#X msg 126 -44 0;
#X obj 192 -40 s with_gui;
#X obj -107 -105 delay 4000;
#X obj -107 -137 bng 20 250 50 0 empty empty empty 0 -10 0 12 #fcfcfc #000000 #000000;
#X msg -83 -166 auto_start;
#X obj -78 -137 print;
#X text 136 130 path;
#X text 136 156 start sub;
#X text 137 184 init;
#X text 135 104 start all;
#X text 137 209 stop sub;
#X obj 167 438 t b b;
#X connect 1 0 0 0;
#X connect 3 0 2 0;
#X connect 4 0 3 0;
#X connect 5 0 4 0;
#X connect 8 0 9 0;
#X connect 9 0 29 0;
#X connect 10 0 21 0;
#X connect 10 0 22 0;
#X connect 11 0 13 0;
#X connect 11 0 8 0;
#X connect 12 0 11 0;
#X connect 12 0 14 0;
#X connect 13 0 6 0;
#X connect 14 0 5 0;
#X connect 15 0 19 0;
#X connect 17 0 18 0;
#X connect 18 0 15 0;
#X connect 20 0 12 0;
#X connect 21 0 20 0;
#X connect 22 0 23 0;
#X connect 29 0 7 0;
#X connect 29 1 5 0;
#X coords 0 -1 1 1 185 160 1 100 100;
#X restore 16 177 pd init;
#X obj 1192 1001 s osc_out;
#X obj 1199 970 pd~ -ninsig 0 -noutsig 4;
#X obj 1273 1003 main_send_to_output;
#X obj 16 935 main_connection_ext_2 wrap_brds_synth_quad_effects.pd 3 brds 4 brdsfx, f 70;
#X obj 961 455 multiple_piano;
#X obj 14 903 main_note_receiver 1;
#X obj 610 1005 s osc_out;
#X obj 617 974 pd~ -ninsig 0 -noutsig 4;
#X obj 691 1007 main_send_to_output;
#X obj 612 933 main_connection_ext_2 wrap_fm_synth_quad_effects.pd 5 fm 6 fmfx, f 70;
#X obj 961 416 main_connection 7 mp;
#X obj 1194 929 main_connection_ext_1 wrap_drum_machine.pd 8 dm, f 70;
#X obj 609 901 main_note_receiver 2;
#X obj 960 391 main_note_receiver 3;
#X obj 1144 182 quad_effects;
#X obj 1002 40 main_note_receiver 3;
#X obj 1003 65 main_connection 8 mpfx;
#X obj 1041 869 s osc_out;
#X obj 1048 838 pd~ -ninsig 0 -noutsig 4;
#X obj 1122 871 main_send_to_output;
#X obj 1040 765 main_note_receiver 2;
#X obj 1043 797 main_connection_ext_2 wrap_phase_looper_quad_effects.pd 9 pl 6 plfx, f 70;
#X obj 790 325 r control_out_\$0;
#X obj 789 427 oscformat;
#X obj 790 349 list split 1;
#X obj 822 395 list trim;
#X msg 726 224 \$1 400;
#X msg 781 227 \$1 401;
#X msg 806 257 \$1 402;
#X msg 840 257 \$1 403;
#X msg 852 228 \$1 404;
#X msg 886 228 \$1 405;
#X msg 911 258 \$1 406;
#X msg 945 258 \$1 407;
#X obj 822 373 list prepend set brds;
#X obj 672 -21 declare -path ../../modules/commons;
#X obj 709 98 quad_pan_automation;
#X connect 0 0 11 0;
#X connect 0 1 2 0;
#X connect 1 0 10 0;
#X connect 1 1 12 0;
#X connect 1 2 3 0;
#X connect 6 0 4 0;
#X connect 6 1 18 0;
#X connect 6 2 18 1;
#X connect 6 3 18 2;
#X connect 6 4 18 3;
#X connect 13 0 21 0;
#X connect 14 0 0 0;
#X connect 15 0 1 0;
#X connect 16 0 17 0;
#X connect 21 1 5 0;
#X connect 25 0 24 0;
#X connect 25 1 26 0;
#X connect 25 2 26 1;
#X connect 25 3 26 2;
#X connect 25 4 26 3;
#X connect 27 0 6 0;
#X connect 28 0 20 0;
#X connect 28 1 20 1;
#X connect 28 2 20 2;
#X connect 28 3 20 3;
#X connect 29 0 27 0;
#X connect 31 0 30 0;
#X connect 31 1 32 0;
#X connect 31 2 32 1;
#X connect 31 3 32 2;
#X connect 31 4 32 3;
#X connect 33 0 31 0;
#X connect 34 0 28 0;
#X connect 35 0 25 0;
#X connect 36 0 33 0;
#X connect 37 0 34 0;
#X connect 39 0 40 0;
#X connect 40 0 38 0;
#X connect 42 0 41 0;
#X connect 42 1 43 0;
#X connect 42 2 43 1;
#X connect 42 3 43 2;
#X connect 42 4 43 3;
#X connect 44 0 45 0;
#X connect 45 0 42 0;
#X connect 46 0 48 0;
#X connect 47 0 5 0;
#X connect 48 0 47 0;
#X connect 48 1 58 0;
#X connect 49 0 47 0;
#X connect 50 0 48 0;
#X connect 51 0 48 0;
#X connect 52 0 48 0;
#X connect 53 0 48 0;
#X connect 54 0 48 0;
#X connect 55 0 48 0;
#X connect 56 0 48 0;
#X connect 57 0 48 0;
#X connect 58 0 49 0;
#X connect 60 0 50 0;
#X connect 60 1 51 0;
#X connect 60 2 52 0;
#X connect 60 3 53 0;
#X connect 60 4 54 0;
#X connect 60 5 55 0;
#X connect 60 6 56 0;
#X connect 60 7 57 0;
