#N canvas 316 248 1390 805 12;
#X declare -path ../../modules;
#X obj 30 256 melodic_seq;
#X obj 29 701 chord_seq;
#X obj 695 402 s osc_out;
#X obj 851 883 s osc_out;
#X obj 26 1015 s osc_out;
#X obj 750 221 s osc_out;
#X obj 150 173 s to_all;
#X obj 217 173 s osc_out;
#X obj 356 181 s to_all;
#X obj 449 180 s osc_out;
#X obj 356 19 main_connection 101 song;
#X obj 26 986 pd~ -ninsig 0 -noutsig 4;
#X obj 150 19 main_connection 100 presets;
#X obj 556 45 main_note_router;
#X obj 358 45 main_song_handler;
#X obj 150 46 main_presets_handler;
#X obj 103 1015 main_output, f 13;
#X obj 263 46 main_osc_handler;
#X obj 26 929 main_note_receiver 1;
#X obj 29 855 main_note_sender 3;
#X obj 31 405 main_note_sender 1;
#X obj 471 855 main_note_sender 4;
#X obj 556 19 main_connection 102 router;
#N canvas 66 32 1854 977 init 0;
#X obj 105 336 s stop_subproc;
#X obj 108 234 bng 20 250 50 0 empty empty empty 0 -10 0 12 #fcfcfc #000000 #000000;
#X obj 272 185 s current_path;
#X msg 272 158 symbol \$1;
#X obj 272 133 pdcontrol;
#X msg 272 106 dir;
#X obj 232 220 s start_subproc;
#X obj 328 376 declare -path ../../modules;
#X obj 231 252 s init;
#X obj 19 185 delay 2000;
#X obj 108 208 bng 20 250 50 0 empty empty empty 0 -10 0 12 #fcfcfc #000000 #000000;
#X text 427 187 start and init everything;
#X obj 13 12 r auto_start;
#X obj 20 155 delay 100;
#X obj 107 128 bng 20 250 50 0 empty empty empty 0 -10 0 12 #fcfcfc #000000 #000000;
#X obj 107 181 bng 20 250 50 0 empty empty empty 0 -10 0 12 #fcfcfc #000000 #000000;
#X obj 107 154 bng 20 250 50 0 empty empty empty 0 -10 0 12 #fcfcfc #000000 #000000;
#X text 131 154 path;
#X text 131 180 start sub;
#X text 132 233 stop sub;
#X text 132 208 init;
#X obj 161 104 tgl 20 0 empty empty empty 0 -10 0 12 #fcfcfc #000000 #000000 0 1;
#X text 130 128 start all;
#X text 183 103 gui;
#X obj 166 21 loadbang;
#X msg 166 46 0;
#X obj 232 50 s with_gui;
#X obj 15 40 delay 4000;
#X connect 1 0 0 0;
#X connect 3 0 2 0;
#X connect 4 0 3 0;
#X connect 5 0 4 0;
#X connect 9 0 10 0;
#X connect 10 0 8 0;
#X connect 12 0 27 0;
#X connect 13 0 15 0;
#X connect 13 0 9 0;
#X connect 14 0 13 0;
#X connect 14 0 16 0;
#X connect 15 0 6 0;
#X connect 16 0 5 0;
#X connect 21 0 26 0;
#X connect 24 0 25 0;
#X connect 25 0 21 0;
#X connect 27 0 14 0;
#X coords 0 -1 1 1 110 160 1 100 100;
#X restore 22 21 pd init;
#X obj 32 227 main_connection 0 seq1;
#X obj 26 472 melodic_seq;
#X obj 691 618 s osc_out;
#X obj 28 443 main_connection 1 seq2;
#X obj 27 621 main_note_sender 2;
#X obj 29 669 main_connection 2 chord;
#X text 1393 327 start and init everything;
#X obj 1249 65 loadbang;
#X msg 1249 93 \; pd dsp 1;
#X obj 25 959 main_connection_ext_1 phase_looper_wrap.pd 3 looper, f 70;
#X connect 0 0 20 0;
#X connect 0 1 2 0;
#X connect 1 0 19 0;
#X connect 1 1 21 0;
#X connect 1 2 3 0;
#X connect 10 0 14 0;
#X connect 11 0 4 0;
#X connect 11 1 16 0;
#X connect 11 2 16 1;
#X connect 11 3 16 2;
#X connect 11 4 16 3;
#X connect 12 0 15 0;
#X connect 13 1 5 0;
#X connect 14 0 8 0;
#X connect 14 1 9 0;
#X connect 15 0 6 0;
#X connect 15 1 7 0;
#X connect 18 0 33 0;
#X connect 22 0 13 0;
#X connect 24 0 0 0;
#X connect 25 0 28 0;
#X connect 25 1 26 0;
#X connect 27 0 25 0;
#X connect 29 0 1 0;
#X connect 31 0 32 0;
#X connect 33 0 11 0;
