#N canvas 746 64 1327 889 12;
#X declare -path ../../modules;
#X declare -path ../../modules/commons;
#X obj 30 256 melodic_seq;
#X obj 29 701 chord_seq;
#X obj 695 402 s osc_out;
#X obj 851 883 s osc_out;
#X obj 113 1071 s osc_out;
#X obj 750 221 s osc_out;
#X obj 118 1026 pd~ -ninsig 0 -noutsig 4;
#X obj 556 45 main_note_router;
#X obj 344 20 main_song_handler;
#X obj 140 21 main_presets_handler;
#X obj 249 21 main_osc_handler;
#X obj 29 855 main_note_sender 3;
#X obj 31 405 main_note_sender 1;
#X obj 471 855 main_note_sender 4;
#X obj 556 19 main_connection 102 router;
#N canvas 482 172 1390 715 init 0;
#X obj 108 336 s stop_subproc;
#X obj 108 234 bng 20 250 50 0 empty empty empty 0 -10 0 12 #fcfcfc #000000 #000000;
#X obj 272 185 s current_path;
#X msg 272 158 symbol \$1;
#X obj 272 133 pdcontrol;
#X msg 272 106 dir;
#X obj 232 220 s start_subproc;
#X obj 328 376 declare -path ../../modules;
#X obj 231 252 s init;
#X obj 19 185 delay 2000;
#X obj 108 208 bng 20 250 50 0 empty empty empty 0 -10 0 12 #fcfcfc #000000 #000000;
#X text 427 187 start and init everything;
#X obj 13 -22 r auto_start;
#X obj 20 155 delay 100;
#X obj 107 128 bng 20 250 50 0 empty empty empty 0 -10 0 12 #fcfcfc #000000 #000000;
#X obj 107 181 bng 20 250 50 0 empty empty empty 0 -10 0 12 #fcfcfc #000000 #000000;
#X obj 107 154 bng 20 250 50 0 empty empty empty 0 -10 0 12 #fcfcfc #000000 #000000;
#X text 131 154 path;
#X text 131 180 start sub;
#X text 132 208 init;
#X obj 161 104 tgl 20 0 empty empty empty 0 -10 0 12 #fcfcfc #000000 #000000 0 1;
#X text 130 128 start all;
#X text 183 103 gui;
#X obj 166 21 loadbang;
#X msg 166 46 0;
#X obj 232 50 s with_gui;
#X obj 13 74 delay 4000;
#X obj 13 42 bng 20 250 50 0 empty empty empty 0 -10 0 12 #fcfcfc #000000 #000000;
#X msg 37 13 auto_start;
#X obj 42 42 print;
#X obj 250 331 s to_all;
#X msg 250 296 vumeter \$1;
#X obj 186 266 tgl 20 0 empty empty empty 0 -10 0 12 #fcfcfc #000000 #000000 0 1;
#X text 132 233 stop sub;
#X text 130 267 vumeter;
#X connect 1 0 0 0;
#X connect 3 0 2 0;
#X connect 4 0 3 0;
#X connect 5 0 4 0;
#X connect 9 0 10 0;
#X connect 10 0 8 0;
#X connect 12 0 27 0;
#X connect 12 0 28 0;
#X connect 13 0 15 0;
#X connect 13 0 9 0;
#X connect 14 0 13 0;
#X connect 14 0 16 0;
#X connect 15 0 6 0;
#X connect 16 0 5 0;
#X connect 20 0 25 0;
#X connect 23 0 24 0;
#X connect 24 0 20 0;
#X connect 26 0 14 0;
#X connect 27 0 26 0;
#X connect 28 0 29 0;
#X connect 31 0 30 0;
#X connect 32 0 31 0;
#X coords 0 -1 1 1 110 190 1 100 100;
#X restore 22 21 pd init;
#X obj 32 227 main_connection 0 seq1;
#X obj 29 669 main_connection 2 chord;
#X text 1393 327 start and init everything;
#X obj 1249 65 loadbang;
#X msg 1249 93 \; pd dsp 1;
#X obj 1034 832 oscformat;
#X obj 1035 754 list split 1;
#X obj 1067 800 list trim;
#X obj 1067 778 list prepend;
#X obj 1169 781 list trim;
#X obj 1169 759 list prepend set;
#X obj 1027 311 declare -path ../../modules/commons;
#X obj 959 354 quad_pan_automation;
#X msg 931 477 \$1 400;
#X msg 958 505 \$1 401;
#X obj 1080 468 four_quad_pan_automations;
#X msg 1075 569 \$1 400;
#X msg 1102 597 \$1 401;
#X msg 1131 569 \$1 402;
#X msg 1158 598 \$1 403;
#X msg 1196 574 \$1 404;
#X msg 1226 601 \$1 405;
#X msg 1255 573 \$1 406;
#X msg 1283 602 \$1 407;
#X obj 1674 1306 s osc_out;
#X obj 195 1073 main_send_to_output;
#X obj 800 1023 phase_looper;
#X obj 804 989 main_connection 3 pl;
#X obj 902 1298 main_send_to_output;
#X obj -362 1174 brds_synth;
#X obj -338 1146 main_connection 4 brds;
#X obj 658 1380 s osc_out;
#X obj -66 1474 main_send_to_output;
#X msg 1176 722 brds;
#X floatatom 1015 571 5 0 0 0 - - - 0;
#X obj 118 961 main_connection_ext_1 wrap_drum_machine.pd 3 dm, f 70;
#X connect 0 0 12 0;
#X connect 0 1 2 0;
#X connect 1 0 11 0;
#X connect 1 1 13 0;
#X connect 1 2 3 0;
#X connect 6 0 4 0;
#X connect 6 1 41 0;
#X connect 6 2 41 1;
#X connect 6 3 41 2;
#X connect 6 4 41 3;
#X connect 7 1 5 0;
#X connect 14 0 7 0;
#X connect 16 0 0 0;
#X connect 19 0 20 0;
#X connect 21 0 3 0;
#X connect 22 0 21 0;
#X connect 22 1 24 0;
#X connect 23 0 21 0;
#X connect 24 0 23 0;
#X connect 25 0 24 1;
#X connect 26 0 25 0;
#X connect 28 0 29 0;
#X connect 28 0 50 0;
#X connect 28 1 30 0;
#X connect 29 0 22 0;
#X connect 30 0 22 0;
#X connect 31 0 32 0;
#X connect 31 1 33 0;
#X connect 31 2 34 0;
#X connect 31 3 35 0;
#X connect 31 4 36 0;
#X connect 31 5 37 0;
#X connect 31 6 38 0;
#X connect 31 7 39 0;
#X connect 34 0 22 0;
#X connect 35 0 22 0;
#X connect 36 0 22 0;
#X connect 37 0 22 0;
#X connect 38 0 22 0;
#X connect 39 0 22 0;
#X connect 42 0 44 0;
#X connect 42 1 44 1;
#X connect 42 2 44 2;
#X connect 42 3 44 3;
#X connect 42 4 40 0;
#X connect 43 0 42 0;
#X connect 45 0 48 0;
#X connect 45 1 48 1;
#X connect 45 2 48 2;
#X connect 45 3 48 3;
#X connect 45 4 47 0;
#X connect 46 0 45 0;
#X connect 49 0 26 0;
#X connect 51 0 6 0;
