#N canvas 579 120 1327 889 12;
#X declare -path ../../modules;
#X obj 17 470 melodic_seq;
#X obj 9 701 chord_seq;
#X obj 682 616 s osc_out;
#X obj 830 859 s osc_out;
#X obj 11 1013 s osc_out;
#X obj 631 330 s osc_out;
#X obj 16 968 pd~ -ninsig 0 -noutsig 4;
#X obj 225 129 main_song_handler;
#X obj 14 131 main_presets_handler;
#X obj 130 130 main_osc_handler;
#X obj 9 855 main_note_sender 3;
#X obj 18 619 main_note_sender 1;
#X obj 451 855 main_note_sender 4;
#X obj 437 128 main_connection 102 router;
#X obj 19 441 main_connection 0 seq1;
#X obj 9 669 main_connection 2 chord;
#X obj 216 278 loadbang;
#X msg 216 306 \; pd dsp 1;
#X obj 1680 402 s osc_out;
#X obj 93 1015 main_send_to_output;
#X obj 812 117 phase_looper;
#X obj 1137 410 main_send_to_output;
#X obj 1806 693 s osc_out;
#X obj 1125 678 main_send_to_output;
#X obj 18 936 main_connection_ext_1 wrap_drum_machine.pd 3 dm, f 70;
#X obj 437 154 main_note_router;
#X obj 23 104 declare -path ../../modules;
#N canvas 52 20 1854 977 init 0;
#X obj 110 315 s stop_subproc;
#X obj 112 212 bng 20 250 50 0 empty empty empty 0 -10 0 12 #fcfcfc #000000 #000000;
#X obj 12 399 s current_path;
#X msg 12 372 symbol \$1;
#X obj 12 347 pdcontrol;
#X msg 12 320 dir;
#X obj 156 352 s start_subproc;
#X obj 155 384 s init;
#X obj 23 163 delay 2000;
#X obj 112 186 bng 20 250 50 0 empty empty empty 0 -10 0 12 #fcfcfc #000000 #000000;
#X obj -107 -201 r auto_start;
#X obj 24 133 delay 100;
#X obj 111 106 bng 20 250 50 0 empty empty empty 0 -10 0 12 #fcfcfc #000000 #000000;
#X obj 111 159 bng 20 250 50 0 empty empty empty 0 -10 0 12 #fcfcfc #000000 #000000;
#X obj 111 132 bng 20 250 50 0 empty empty empty 0 -10 0 12 #fcfcfc #000000 #000000;
#X obj 163 238 tgl 20 0 empty empty empty 0 -10 0 12 #fcfcfc #000000 #000000 0 1;
#X text 134 237 gui;
#X obj 126 -69 loadbang;
#X msg 126 -44 0;
#X obj 192 -40 s with_gui;
#X obj -107 -105 delay 4000;
#X obj -107 -137 bng 20 250 50 0 empty empty empty 0 -10 0 12 #fcfcfc #000000 #000000;
#X msg -83 -166 auto_start;
#X obj -78 -137 print;
#X text 136 130 path;
#X text 136 156 start sub;
#X text 137 184 init;
#X text 135 104 start all;
#X text 137 209 stop sub;
#X connect 1 0 0 0;
#X connect 3 0 2 0;
#X connect 4 0 3 0;
#X connect 5 0 4 0;
#X connect 8 0 9 0;
#X connect 9 0 7 0;
#X connect 10 0 21 0;
#X connect 10 0 22 0;
#X connect 11 0 13 0;
#X connect 11 0 8 0;
#X connect 12 0 11 0;
#X connect 12 0 14 0;
#X connect 13 0 6 0;
#X connect 14 0 5 0;
#X connect 15 0 19 0;
#X connect 17 0 18 0;
#X connect 18 0 15 0;
#X connect 20 0 12 0;
#X connect 21 0 20 0;
#X connect 22 0 23 0;
#X coords 0 -1 1 1 185 160 1 100 100;
#X restore 16 265 pd init;
#X obj 791 430 main_note_receiver 1;
#X obj 558 1011 s osc_out;
#X obj 563 966 pd~ -ninsig 0 -noutsig 4;
#X obj 639 1013 main_send_to_output;
#X obj 816 83 main_connection 4 pl;
#X obj 561 911 main_note_receiver 2;
#X obj 792 455 main_connection 5 fm;
#X obj 799 481 fm_synth;
#X obj 560 939 main_connection_ext_1 wrap_brds_synth.pd 6 brds, f 70;
#X connect 0 0 11 0;
#X connect 0 1 2 0;
#X connect 1 0 10 0;
#X connect 1 1 12 0;
#X connect 1 2 3 0;
#X connect 6 0 4 0;
#X connect 6 1 19 0;
#X connect 6 2 19 1;
#X connect 6 3 19 2;
#X connect 6 4 19 3;
#X connect 13 0 25 0;
#X connect 14 0 0 0;
#X connect 15 0 1 0;
#X connect 16 0 17 0;
#X connect 20 0 21 0;
#X connect 20 1 21 1;
#X connect 20 2 21 2;
#X connect 20 3 21 3;
#X connect 20 4 18 0;
#X connect 24 0 6 0;
#X connect 25 1 5 0;
#X connect 28 0 34 0;
#X connect 30 0 29 0;
#X connect 30 1 31 0;
#X connect 30 2 31 1;
#X connect 30 3 31 2;
#X connect 30 4 31 3;
#X connect 32 0 20 0;
#X connect 33 0 36 0;
#X connect 34 0 35 0;
#X connect 35 0 23 0;
#X connect 35 1 23 1;
#X connect 35 2 23 2;
#X connect 35 3 23 3;
#X connect 35 4 22 0;
#X connect 36 0 30 0;
