#N canvas 192 220 1036 886 12;
#X obj 301 268 *~;
#X obj 334 61 inlet~;
#X obj 372 170 / 127;
#X obj 314 670 outlet~;
#X obj 586 63 inlet;
#X floatatom 390 299 5 0 0 0 - - - 0;
#X obj 346 361 *~;
#X obj 303 311 clip~ -1 1;
#X floatatom 476 324 5 0 0 0 - - - 0;
#X obj 421 241 * 100;
#X obj 339 247 max 1;
#X obj 472 279 expr 0.100168 + (0.9882624 - 0.1001681)/(1 + pow(($f1/5.066488) \, 2.37983));
#X obj 369 214 * 60;
#X obj 389 357 + 0.012;
#X text 339 31 signal;
#X text 579 35 gain;
#X connect 0 0 7 0;
#X connect 1 0 0 0;
#X connect 2 0 9 0;
#X connect 2 0 12 0;
#X connect 4 0 2 0;
#X connect 6 0 3 0;
#X connect 7 0 6 0;
#X connect 8 0 13 0;
#X connect 9 0 5 0;
#X connect 9 0 11 0;
#X connect 10 0 0 1;
#X connect 11 0 8 0;
#X connect 12 0 10 0;
#X connect 13 0 6 1;
