#N canvas 596 430 817 567 12;
#X obj 52 241 *~;
#X obj 51 329 outlet~;
#X obj 52 44 inlet~;
#X obj 126 242 *~;
#X obj 126 45 inlet~;
#X obj 203 241 *~;
#X obj 203 44 inlet~;
#X obj 287 241 *~;
#X obj 287 44 inlet~;
#X obj 379 42 inlet;
#X obj -153 94 loadbang;
#X obj -154 134 f \$1;
#X obj -110 135 f \$2;
#X obj -66 134 f \$3;
#X obj -25 134 f \$4;
#X obj 378 73 route 1 2 3 4 0;
#X msg 461 145 1;
#X connect 0 0 1 0;
#X connect 2 0 0 0;
#X connect 3 0 1 0;
#X connect 4 0 3 0;
#X connect 5 0 1 0;
#X connect 6 0 5 0;
#X connect 7 0 1 0;
#X connect 8 0 7 0;
#X connect 9 0 15 0;
#X connect 10 0 11 0;
#X connect 10 0 12 0;
#X connect 10 0 13 0;
#X connect 10 0 14 0;
#X connect 11 0 0 1;
#X connect 12 0 3 1;
#X connect 13 0 5 1;
#X connect 14 0 7 1;
#X connect 15 0 0 1;
#X connect 15 1 3 1;
#X connect 15 2 5 1;
#X connect 15 3 7 1;
#X connect 15 4 16 0;
#X connect 16 0 7 1;
#X connect 16 0 5 1;
#X connect 16 0 0 1;
#X connect 16 0 3 1;
