#N canvas -8 -8 1366 725 12;
#X obj 348 666 outlet~;
#X text 270 137 0.01-16;
#X obj 267 30 inlet~;
#X obj 265 78 s~ delay_step_\$0;
#X obj 970 234 r~ delay_step_\$0;
#N canvas -8 -8 1366 725 dry_wet_mixer~ 0;
#X obj 472 579 +~, f 25;
#X obj 645 501 *~;
#X obj 471 508 *~;
#X obj 471 385 inlet~;
#X obj 645 397 inlet~;
#X obj 472 603 outlet~;
#X obj 544 385 r on_\$0;
#X obj 544 409 - 1;
#X obj 544 457 sig~;
#X obj 544 490 lop~ 7;
#X obj 732 430 r on_\$0;
#X obj 732 455 sig~;
#X obj 732 481 lop~ 7;
#X obj 544 433 abs;
#X connect 0 0 5 0;
#X connect 1 0 0 1;
#X connect 2 0 0 0;
#X connect 3 0 2 0;
#X connect 4 0 1 0;
#X connect 6 0 7 0;
#X connect 7 0 13 0;
#X connect 8 0 9 0;
#X connect 9 0 2 1;
#X connect 10 0 11 0;
#X connect 11 0 12 0;
#X connect 12 0 1 1;
#X connect 13 0 8 0;
#X restore 348 615 pd dry_wet_mixer~;
#X f 25;
#X obj 348 639 clip~ -1 1;
#X obj 970 260 *~;
#X obj 1098 242 r~ ms_in_step_\$0;
#X obj 403 26 inlet~;
#X obj 403 75 s~ ms_in_step_\$0;
#X text 430 123 ms_in_step~;
#X obj 616 45 inlet;
#X obj 616 69 s reset_phase_\$0;
#X obj 793 336 r reset_phase_\$0;
#X obj 733 421 osc~;
#X msg 793 360 0;
#X obj 681 287 sig~ 1000;
#X obj 682 336 /~;
#X obj 733 469 clip~ -1 1;
#X obj 521 573 *~;
#X obj 682 360 /~ 2;
#X obj 348 358 r~ input_audio_\$0;
#X obj 100 77 s~ input_audio_\$0;
#X obj 100 55 inlet~;
#X text 246 121 step_num_to_repeat~;
#X obj 266 53 clip~ 0.01 16;
#X text 582 122 reset_phase;
#X text 612 137 bang;
#X obj 403 50 clip~ 0 1000;
#X text 442 138 0-1000;
#X text 147 121 on;
#X text 142 139 0 \, 1;
#X obj 207 31 inlet;
#X obj 207 53 s on_\$0;
#X obj 38 8 loadbang;
#X msg 38 32 0;
#X obj 103 514 delwrite~ delay_\$0 5000;
#X obj 700 310 r~ delay_time_ms_\$0~;
#X obj 971 287 s~ delay_time_ms_\$0~;
#X text 561 570 volume only 0.5 cycle;
#X obj 733 445 *~ 1;
#X obj 538 518 clip~ -1 0;
#X connect 2 0 26 0;
#X connect 4 0 7 0;
#X connect 5 0 6 0;
#X connect 6 0 0 0;
#X connect 7 0 39 0;
#X connect 8 0 7 1;
#X connect 9 0 29 0;
#X connect 12 0 13 0;
#X connect 14 0 16 0;
#X connect 15 0 41 0;
#X connect 16 0 15 1;
#X connect 17 0 18 0;
#X connect 18 0 21 0;
#X connect 19 0 42 0;
#X connect 20 0 5 1;
#X connect 21 0 15 0;
#X connect 22 0 5 0;
#X connect 22 0 20 0;
#X connect 22 0 37 0;
#X connect 24 0 23 0;
#X connect 26 0 3 0;
#X connect 29 0 10 0;
#X connect 33 0 34 0;
#X connect 35 0 36 0;
#X connect 36 0 34 0;
#X connect 38 0 18 1;
#X connect 41 0 19 0;
#X connect 42 0 20 1;
#X coords 0 -1 1 1 585 90 1 100 100;
