#N canvas 251 270 1267 755 10;
#X msg 974 1010 1 0 1 0 0 0 0 0;
#X msg 960 1033 1 0 0 1 0 0 0 0;
#X msg 917 1106 1 0 0 0 1 0 0 0;
#X msg 946 1059 1 0 0 0 0 1 0 0;
#X msg 932 1080 1 0 0 0 0 0 1 0;
#X msg 778 1077 1 0 0 0 0 0 0 0;
#X msg 804 1031 0 0 1 0 0 0 0 0;
#X msg 790 1053 0 0 0 0 1 0 0 0;
#X msg 818 1007 0 0 0 0 0 0 1 0;
#X obj 409 610 until;
#X msg 409 586 8;
#X obj 408 658 f;
#X obj 458 658 + 1;
#X msg 460 634 0;
#X msg 498 635 1;
#X obj 431 680 t f f;
#X obj 431 760 f;
#X obj 431 730 sel 1;
#X obj 386 910 random 16;
#X obj 382 1272 + 1;
#X obj 697 338 bng 15 250 50 0 empty empty empty 17 7 0 10 #fcfcfc #000000 #000000;
#X obj 509 897 r OffsetChordloop;
#X obj 560 776 r RndChordloop;
#X obj 535 592 f;
#X obj 550 565 r ChordBar;
#X obj 1047 831 f;
#X obj 1062 805 r ChordBar;
#X obj 491 862 f;
#X floatatom -112 296 5 0 0 0 - - OffsetChordloop 0;
#X text -154 296 Offset;
#X obj 166 139 tgl 15 0 empty empty no_rep -39 7 1 10 #fcfcfc #000000 #000000 0 1;
#X obj 359 855 spigot;
#X obj 424 859 spigot;
#X obj 375 808 == 0;
#X obj 305 754 r UrnChordloop;
#X obj 697 230 f;
#X obj 697 258 until;
#X obj 697 308 t b f;
#X obj 697 285 f;
#X obj 741 285 + 1;
#X obj 724 333 s ChordBar;
#X obj 107 180 bng 15 250 50 0 empty empty empty 17 7 0 10 #fcfcfc #000000 #000000;
#X msg 756 239 0;
#X msg 1069 284 resize \$1;
#X obj 1069 258 * 8;
#X obj 39 778 until;
#X obj 39 803 f;
#X obj 72 803 + 1;
#X obj 39 732 t b b;
#X obj 39 756 f;
#X msg 85 778 0;
#X msg 117 778 1;
#X obj 85 732 * 8;
#X obj 39 897 mod 8;
#X obj 132 850 / 8;
#X obj 132 872 i;
#X obj 39 826 t f f f;
#X obj 49 666 bng 15 250 50 0 empty empty empty 17 7 0 10 #fcfcfc #000000 #000000;
#X obj 712 204 r ChordBarLength;
#X obj 1069 225 r ChordBarLength;
#X obj 85 704 r ChordBarLength;
#X obj 777 976 sel 0 1 2 3 4 5 6 7 8;
#X obj 706 760 random;
#X obj 706 813 * 0;
#X obj 706 788 + 0;
#X msg 846 665 4 0 1;
#X obj 855 696 unpack f f f;
#X msg 1017 665 9 0 1;
#X msg 888 665 1 0 1;
#X msg 1060 665 2 0 4;
#X msg 976 665 1 4 1;
#X obj 902 632 route 0 1 2 3 4 5;
#X msg 932 665 5 4 1;
#X obj 902 604 f;
#X obj 902 523 t b f;
#X obj 986 470 r ChordBar;
#X obj 986 495 sel 0;
#X obj 929 552 sel 0;
#X msg 917 577 1;
#X msg 986 515 0;
#X msg 1017 515 6;
#X obj 328 908 urn, f 8;
#X obj 894 750 r ChordBar;
#X obj 894 775 sel 0;
#X obj 706 839 sel 0;
#X msg 706 930 0;
#X obj 734 864 sel 0;
#X obj 761 887 sel 0;
#X msg 921 812 9;
#X msg 759 813 1;
#X msg 793 837 2;
#X msg 819 863 3;
#X obj 1061 15 array define accp0 8;
#X obj 1060 41 array define accp1 8;
#X obj 1061 64 array define accp2 8;
#X obj 1061 87 array define accp3 8;
#X obj 1062 112 array define accp4 8;
#X obj 1062 137 array define accp5 8;
#X obj 1062 161 array define accp6 8;
#X msg 132 896 symbol accpn\$1;
#X obj 382 1296 array set accpn0;
#X obj 1255 15 array define accpn0 8;
#X obj 1255 39 array define accpn1 8;
#X obj 1256 87 array define accpn3 8;
#X obj 1257 109 array define accpn4 8;
#X obj 1256 136 array define accpn5 8;
#X obj 1257 160 array define accpn6 8;
#X obj 1257 183 array define accpn7 8;
#X obj 27 959 array set accpns;
#X obj 47 922 array get accpn0;
#X obj 431 706 array get accp0;
#X msg 552 668 symbol accp\$1;
#X msg 535 750 symbol accpn\$1;
#X obj 849 1161 array set accp0;
#X msg 1047 854 symbol accp\$1;
#X obj 1069 310 array define accpns;
#X obj 1062 184 array define accp7 8;
#X obj 1256 64 array define accpn2 8;
#X msg 565 620 \; accpn\$1 const 0;
#X obj 431 784 t b f;
#X obj 676 177 s UrnRandomSet;
#X obj 478 821 r UrnRandomSet;
#X obj -158 -9 loadbang;
#X obj -158 11 t b b b b b;
#X obj 105 102 hradio 15 1 0 6 empty empty empty 0 -8 0 10 #fcfcfc #000000 #000000 0;
#X text 107 120 1|1*|2|2*|R|R*;
#X obj -15 436 outlet bang;
#X obj 273 1090 sel 0 1 2 3 4 5 6 7 8 9 10 11 12 13 14 15 16 17 18 19;
#X msg 269 1130 0;
#X msg 279 1140 2;
#X msg 289 1150 4;
#X msg 299 1160 5;
#X msg 309 1170 7;
#X msg 319 1180 9;
#X msg 329 1190 11;
#X msg 377 1127 12;
#X msg 387 1137 14;
#X msg 397 1147 16;
#X msg 410 1161 17;
#X msg 420 1171 19;
#X msg 430 1181 21;
#X msg 441 1197 23;
#X msg 591 1146 24;
#X msg 601 1156 26;
#X msg 611 1166 28;
#X msg 621 1176 29;
#X msg 631 1186 31;
#X msg 669 1192 33;
#X obj 414 949 r seedIniziale;
#X msg 414 1004 seed \$1;
#X obj 414 971 + 231;
#X obj 724 634 r seedIniziale;
#X msg 724 689 seed \$1;
#X obj 724 656 + 2231;
#X obj 239 120 r bars;
#X obj 396 28 r noteperbar;
#X obj 284 32 r GenerateChords;
#X obj 1187 471 + 1;
#X obj 1150 470 i;
#X obj 1124 436 until;
#X msg 1164 436 0;
#X obj 1142 374 t b b b;
#X obj 1070 376 bng 15 250 50 0 empty empty empty 17 7 0 10 #fcfcfc #000000 #000000;
#X msg 1125 412 7;
#X msg 1276 564 \; accp\$1 const 0;
#X msg 1276 512 \; accpn\$1 const 0;
#X obj 1010 342 r resetAllTables;
#X msg 1246 620 \; accpnsv\$1 const 0;
#X msg 1234 653 \; accpnsvt\$1 const 0;
#X obj 525 93 s resetAllTables;
#X obj 47 696 t b b;
#X text 633 39 Genera max 8 battute che poi verranno accodate una all'altra \; accp (0 \, 1 \, ...) = battute ottavi con posizione note (1 \, 0) \; accpn (0 \, 1 \, ...) = battute ottavi con note generate sulla posizione \; accpns = sequenza finale somma di battute;
#X msg 1256 437 \; accpns const 0;
#X obj 1221 297 bng 18 250 50 0 empty empty empty 0 -9 0 10 #fcfcfc #000000 #000000;
#X obj -93 251 loadbang;
#X msg -93 274 60;
#X obj 389 268 s ChordBarLength;
#X obj 161 160 nbx 2 16 1 8 0 0 empty empty n°\ bars -40 10 1 10 #fcfcfc #000000 #000000 0 256;
#X obj 175 299 s RndChordloop;
#X obj 161 180 nbx 2 16 1 20 0 0 empty empty rnd -22 10 1 10 #fcfcfc #000000 #000000 0 256;
#X msg -120 102 7;
#X obj 220 168 s UrnChordloop;
#X msg 1200 738 \; accpnsvtos\$1 const 0;
#X msg 1166 767 \; accpnsvtosr\$1 const 0;
#X msg 1214 690 \; accpnsvto\$1 const 0;
#X msg -107 82 4;
#X msg -98 54 1;
#X obj -56 -71 inlet;
#X msg -160 135 1;
#N canvas 430 133 1156 901 rotate 0;
#X obj 611 380 until;
#X obj 622 402 i;
#X obj 597 358 f;
#X msg 779 371 1;
#X obj 557 434 f;
#X obj 612 502 f;
#X obj 559 463 t f b;
#X obj 666 490 + 1;
#X obj 650 401 - 1;
#X obj 696 366 f;
#X obj 691 336 - 1;
#X msg 595 478 0;
#X obj 623 436 t b f f;
#X obj 645 356 f;
#X obj -20 387 until;
#X obj -5 408 i;
#X obj 19 408 + 1;
#X obj -34 365 f;
#X obj -36 327 t b b;
#X msg 148 378 1;
#X msg 85 372 0;
#X obj -74 441 f;
#X msg 22 361 1;
#X obj -19 509 f;
#X obj -7 464 t b f;
#X obj -72 470 t f b;
#X obj 35 497 - 1;
#X obj -40 491 i;
#X msg 73 394 1;
#X obj 16 325 - 1;
#X obj 1 437 t f f;
#X obj 41 62 inlet;
#X obj 531 71 inlet;
#X obj 570 267 t b b b b b;
#X obj -61 275 t b b b b b;
#X obj 570 191 until;
#X msg 571 167 8;
#X obj 696 302 array size accpns;
#X obj 739 396 array get accpns;
#X obj 676 458 array get accpns;
#X obj 613 529 array set accpns;
#X obj -14 538 array set accpns;
#X obj 34 461 array get accpns;
#X obj 108 403 array get accpns;
#X obj 62 289 array size accpns;
#X obj 6 224 until;
#X obj 9 163 t b b;
#X msg 7 200 8;
#X obj 573 130 t b b;
#X obj 187 607 delay 10;
#X obj 184 665 outlet;
#X connect 0 0 1 0;
#X connect 1 0 8 0;
#X connect 1 0 12 0;
#X connect 2 0 0 0;
#X connect 3 0 38 1;
#X connect 3 0 39 1;
#X connect 4 0 6 0;
#X connect 5 0 40 0;
#X connect 6 0 40 0;
#X connect 6 1 11 0;
#X connect 7 0 40 1;
#X connect 8 0 1 1;
#X connect 9 0 38 0;
#X connect 10 0 9 1;
#X connect 10 0 13 1;
#X connect 11 0 40 1;
#X connect 12 0 5 0;
#X connect 12 1 7 0;
#X connect 12 2 39 0;
#X connect 13 0 1 1;
#X connect 14 0 15 0;
#X connect 15 0 16 0;
#X connect 15 0 30 0;
#X connect 16 0 15 1;
#X connect 17 0 14 0;
#X connect 18 0 17 0;
#X connect 18 1 22 0;
#X connect 19 0 43 1;
#X connect 20 0 43 0;
#X connect 21 0 25 0;
#X connect 22 0 15 1;
#X connect 23 0 41 0;
#X connect 24 0 23 0;
#X connect 24 1 26 0;
#X connect 25 0 41 0;
#X connect 25 1 27 0;
#X connect 26 0 41 1;
#X connect 27 0 41 1;
#X connect 28 0 42 1;
#X connect 29 0 17 1;
#X connect 29 0 27 1;
#X connect 30 0 24 0;
#X connect 30 1 42 0;
#X connect 31 0 46 0;
#X connect 32 0 48 0;
#X connect 33 0 4 0;
#X connect 33 1 2 0;
#X connect 33 2 9 0;
#X connect 33 2 13 0;
#X connect 33 3 3 0;
#X connect 33 4 37 0;
#X connect 34 0 21 0;
#X connect 34 1 18 0;
#X connect 34 2 20 0;
#X connect 34 2 28 0;
#X connect 34 3 19 0;
#X connect 34 4 44 0;
#X connect 35 0 33 0;
#X connect 36 0 35 0;
#X connect 37 0 10 0;
#X connect 37 0 2 1;
#X connect 38 0 4 1;
#X connect 39 0 5 1;
#X connect 42 0 23 1;
#X connect 43 0 21 1;
#X connect 44 0 29 0;
#X connect 45 0 34 0;
#X connect 46 0 49 0;
#X connect 46 1 47 0;
#X connect 47 0 45 0;
#X connect 48 0 49 0;
#X connect 48 1 36 0;
#X connect 49 0 50 0;
#X restore 45 340 pd rotate;
#X obj 170 203 bng 18 250 50 0 empty empty > 7 9 1 10 #000000 #7c7c7c #ffffff;
#X obj 113 203 bng 18 250 50 0 empty empty < 6 9 0 10 #000000 #7c7c7c #ffffff;
#X obj 136 213 cnv 5 5 5 empty empty rotate 0 0 1 10 #e0e0e0 #404040 0;
#X obj 53 -47 inlet;
#X obj 91 -46 inlet;
#X obj 132 -46 inlet;
#X obj 170 -45 inlet;
#X obj 217 -47 inlet;
#X obj 255 -46 inlet;
#X obj 79 433 outlet;
#X obj 132 434 outlet;
#X obj 190 434 outlet;
#X obj 243 435 outlet;
#X obj 919 466 f;
#X obj 684 398 t b b b b;
#X obj 514 61 t b b;
#X obj 475 135 t b b b b;
#X obj 1217 332 delay 100;
#X obj 453 106 delay 100;
#X obj -28 161 t b b;
#X msg -28 181 stop;
#X obj -28 202 delay 200;
#X obj 431 562 t b b;
#X obj 306 856 bng 18 250 50 0 empty empty empty 0 -9 0 10 #fcfcfc #000000 #000000;
#X obj 259 823 r reset_urn_\$0;
#X obj 774 176 s reset_urn_\$0;
#X connect 0 0 113 0;
#X connect 1 0 113 0;
#X connect 2 0 113 0;
#X connect 3 0 113 0;
#X connect 4 0 113 0;
#X connect 5 0 113 0;
#X connect 6 0 113 0;
#X connect 7 0 113 0;
#X connect 8 0 113 0;
#X connect 9 0 11 0;
#X connect 10 0 9 0;
#X connect 11 0 12 0;
#X connect 11 0 15 0;
#X connect 12 0 11 1;
#X connect 13 0 11 1;
#X connect 14 0 110 1;
#X connect 15 0 110 0;
#X connect 15 1 16 1;
#X connect 16 0 119 0;
#X connect 17 0 16 0;
#X connect 18 0 127 0;
#X connect 19 0 100 0;
#X connect 20 0 204 0;
#X connect 21 0 19 1;
#X connect 22 0 27 1;
#X connect 23 0 112 0;
#X connect 23 0 111 0;
#X connect 23 0 118 0;
#X connect 24 0 23 1;
#X connect 25 0 114 0;
#X connect 26 0 25 1;
#X connect 27 0 18 1;
#X connect 27 0 81 2;
#X connect 30 0 181 0;
#X connect 30 0 200 0;
#X connect 30 0 41 0;
#X connect 30 0 209 0;
#X connect 31 0 81 0;
#X connect 32 0 18 0;
#X connect 33 0 32 1;
#X connect 34 0 33 0;
#X connect 34 0 31 1;
#X connect 35 0 36 0;
#X connect 36 0 38 0;
#X connect 37 0 20 0;
#X connect 37 1 40 0;
#X connect 38 0 39 0;
#X connect 38 0 37 0;
#X connect 39 0 38 1;
#X connect 41 0 205 0;
#X connect 42 0 38 1;
#X connect 43 0 115 0;
#X connect 43 0 173 0;
#X connect 44 0 43 0;
#X connect 45 0 46 0;
#X connect 46 0 47 0;
#X connect 46 0 56 0;
#X connect 47 0 46 1;
#X connect 48 0 49 0;
#X connect 48 1 51 0;
#X connect 48 1 50 0;
#X connect 49 0 45 0;
#X connect 50 0 46 1;
#X connect 51 0 109 1;
#X connect 52 0 49 1;
#X connect 53 0 109 0;
#X connect 54 0 55 0;
#X connect 55 0 99 0;
#X connect 56 0 53 0;
#X connect 56 1 54 0;
#X connect 56 2 108 1;
#X connect 57 0 170 0;
#X connect 58 0 35 1;
#X connect 59 0 44 0;
#X connect 60 0 52 0;
#X connect 61 0 5 0;
#X connect 61 1 7 0;
#X connect 61 2 6 0;
#X connect 61 3 8 0;
#X connect 61 4 2 0;
#X connect 61 5 4 0;
#X connect 61 6 3 0;
#X connect 61 7 1 0;
#X connect 61 8 0 0;
#X connect 62 0 64 0;
#X connect 63 0 84 0;
#X connect 64 0 63 0;
#X connect 65 0 66 0;
#X connect 66 0 62 1;
#X connect 66 1 64 1;
#X connect 66 2 63 1;
#X connect 67 0 66 0;
#X connect 68 0 66 0;
#X connect 69 0 66 0;
#X connect 70 0 66 0;
#X connect 71 0 65 0;
#X connect 71 1 68 0;
#X connect 71 2 72 0;
#X connect 71 3 70 0;
#X connect 71 4 67 0;
#X connect 71 5 69 0;
#X connect 72 0 66 0;
#X connect 73 0 71 0;
#X connect 74 0 73 0;
#X connect 74 1 77 0;
#X connect 75 0 76 0;
#X connect 76 0 79 0;
#X connect 76 1 80 0;
#X connect 77 0 78 0;
#X connect 77 1 73 1;
#X connect 78 0 73 1;
#X connect 79 0 77 1;
#X connect 80 0 77 1;
#X connect 81 0 127 0;
#X connect 82 0 83 0;
#X connect 83 0 89 0;
#X connect 83 0 91 0;
#X connect 83 0 90 0;
#X connect 83 1 88 0;
#X connect 84 0 85 0;
#X connect 84 1 86 0;
#X connect 85 0 61 0;
#X connect 86 0 85 0;
#X connect 86 1 87 0;
#X connect 87 0 85 0;
#X connect 87 1 61 0;
#X connect 88 0 87 1;
#X connect 88 0 86 1;
#X connect 88 0 84 1;
#X connect 89 0 84 1;
#X connect 90 0 86 1;
#X connect 91 0 87 1;
#X connect 99 0 109 2;
#X connect 109 0 108 0;
#X connect 110 0 17 0;
#X connect 111 0 110 2;
#X connect 112 0 100 2;
#X connect 114 0 113 2;
#X connect 119 0 32 0;
#X connect 119 0 31 0;
#X connect 119 1 100 1;
#X connect 121 0 27 0;
#X connect 122 0 123 0;
#X connect 123 0 188 0;
#X connect 123 2 180 0;
#X connect 123 3 185 0;
#X connect 123 4 186 0;
#X connect 124 0 199 0;
#X connect 124 0 203 1;
#X connect 124 0 41 0;
#X connect 124 0 209 0;
#X connect 127 0 128 0;
#X connect 127 1 129 0;
#X connect 127 2 130 0;
#X connect 127 3 131 0;
#X connect 127 4 132 0;
#X connect 127 5 133 0;
#X connect 127 6 134 0;
#X connect 127 7 135 0;
#X connect 127 8 136 0;
#X connect 127 9 137 0;
#X connect 127 10 138 0;
#X connect 127 11 139 0;
#X connect 127 12 140 0;
#X connect 127 13 141 0;
#X connect 127 14 142 0;
#X connect 127 15 143 0;
#X connect 127 16 144 0;
#X connect 127 17 145 0;
#X connect 127 18 146 0;
#X connect 127 19 147 0;
#X connect 128 0 19 0;
#X connect 129 0 19 0;
#X connect 130 0 19 0;
#X connect 131 0 19 0;
#X connect 132 0 19 0;
#X connect 133 0 19 0;
#X connect 134 0 19 0;
#X connect 135 0 19 0;
#X connect 136 0 19 0;
#X connect 137 0 19 0;
#X connect 138 0 19 0;
#X connect 139 0 19 0;
#X connect 140 0 19 0;
#X connect 141 0 19 0;
#X connect 142 0 19 0;
#X connect 143 0 19 0;
#X connect 144 0 19 0;
#X connect 145 0 19 0;
#X connect 146 0 19 0;
#X connect 147 0 19 0;
#X connect 148 0 150 0;
#X connect 149 0 18 0;
#X connect 150 0 149 0;
#X connect 151 0 153 0;
#X connect 152 0 62 0;
#X connect 153 0 152 0;
#X connect 154 0 177 0;
#X connect 155 0 124 0;
#X connect 156 0 41 0;
#X connect 157 0 158 1;
#X connect 158 0 157 0;
#X connect 158 0 164 0;
#X connect 158 0 165 0;
#X connect 158 0 167 0;
#X connect 158 0 168 0;
#X connect 158 0 182 0;
#X connect 158 0 183 0;
#X connect 158 0 184 0;
#X connect 159 0 158 0;
#X connect 160 0 158 1;
#X connect 161 1 163 0;
#X connect 161 2 160 0;
#X connect 162 0 161 0;
#X connect 163 0 159 0;
#X connect 166 0 162 0;
#X connect 170 0 126 0;
#X connect 170 1 48 0;
#X connect 173 0 207 0;
#X connect 174 0 175 0;
#X connect 175 0 28 0;
#X connect 177 0 201 0;
#X connect 177 0 41 0;
#X connect 177 0 209 0;
#X connect 177 0 176 0;
#X connect 179 0 178 0;
#X connect 179 0 202 0;
#X connect 179 0 41 0;
#X connect 179 0 209 0;
#X connect 180 0 179 0;
#X connect 185 0 177 0;
#X connect 186 0 30 0;
#X connect 187 0 41 0;
#X connect 188 0 124 0;
#X connect 189 0 126 0;
#X connect 190 0 189 1;
#X connect 191 0 189 0;
#X connect 193 0 124 0;
#X connect 194 0 30 0;
#X connect 195 0 177 0;
#X connect 196 0 179 0;
#X connect 197 0 191 0;
#X connect 198 0 190 0;
#X connect 203 0 74 0;
#X connect 204 0 212 0;
#X connect 204 1 62 0;
#X connect 204 2 25 0;
#X connect 204 3 203 0;
#X connect 205 0 208 0;
#X connect 205 1 169 0;
#X connect 206 0 57 0;
#X connect 206 1 35 0;
#X connect 206 2 42 0;
#X connect 206 3 120 0;
#X connect 206 3 215 0;
#X connect 207 0 172 0;
#X connect 208 0 206 0;
#X connect 209 0 211 0;
#X connect 209 1 210 0;
#X connect 210 0 211 0;
#X connect 211 0 41 0;
#X connect 212 0 10 0;
#X connect 212 1 13 0;
#X connect 212 1 14 0;
#X connect 212 1 23 0;
#X connect 213 0 81 1;
#X connect 214 0 213 0;
#X coords 0 -1 1 1 100 125 2 100 100;
