#N canvas 585 75 1223 925 12;
#X msg 770 201 set \$1;
#X obj 610 501 i;
#X obj 641 500 + 1;
#X msg 661 399 0, f 4;
#X msg 753 429 0;
#X obj 681 351 spigot;
#X msg 767 284 1;
#X obj 722 220 bng 20 250 50 0 empty empty empty 0 -10 0 12 #fcfcfc #000000 #000000;
#X obj 580 406 bng 20 250 50 0 empty empty empty 0 -10 0 12 #fcfcfc #000000 #000000;
#X obj 783 335 tgl 20 0 empty empty empty 0 -10 0 12 #fcfcfc #000000 #000000 0 1;
#X obj 307 237 until;
#X obj 320 320 list store;
#X obj 341 204 t b b l;
#X obj 307 262 f;
#X obj 345 263 + 1;
#X msg 364 237 0, f 2;
#X msg 307 293 get \$1 1;
#X obj 742 388 sel 6;
#X obj 805 146 makefilename %s-%%s;
#X obj 553 351 makefilename %s;
#X msg 535 236 set %s;
#X obj 548 111 list length;
#X obj 432 489 symbol;
#X obj 505 56 t b l b b l;
#X obj 521 9 inlet;
#X obj 428 644 outlet;
#X obj 634 24 list;
#X connect 0 0 5 0;
#X connect 1 0 2 0;
#X connect 1 0 17 0;
#X connect 2 0 1 1;
#X connect 3 0 1 1;
#X connect 4 0 5 1;
#X connect 4 0 9 0;
#X connect 5 0 19 0;
#X connect 6 0 5 1;
#X connect 6 0 9 0;
#X connect 7 0 6 0;
#X connect 7 0 3 0;
#X connect 8 0 1 0;
#X connect 10 0 13 0;
#X connect 11 0 19 0;
#X connect 11 1 10 1;
#X connect 12 0 10 0;
#X connect 12 1 15 0;
#X connect 12 2 11 1;
#X connect 13 0 14 0;
#X connect 13 0 16 0;
#X connect 14 0 13 1;
#X connect 15 0 13 1;
#X connect 16 0 11 0;
#X connect 17 0 4 0;
#X connect 18 0 0 0;
#X connect 19 0 8 0;
#X connect 19 0 18 0;
#X connect 19 0 22 1;
#X connect 20 0 19 0;
#X connect 21 0 17 1;
#X connect 22 0 25 0;
#X connect 23 0 22 0;
#X connect 23 1 12 0;
#X connect 23 2 20 0;
#X connect 23 3 7 0;
#X connect 23 4 21 0;
#X connect 24 0 26 0;
#X connect 26 0 23 0;
