#N canvas 514 149 1054 634 12;
#X obj 665 184 table duplicates_\$0 128;
#X obj 233 240 unpack 0 0;
#X obj 426 346 array get duplicates_\$0;
#X msg 492 309 1;
#X obj 342 593 array set duplicates_\$0;
#X obj 426 312 t f f;
#X obj 237 433 pack 0 0;
#X obj 236 382 f;
#X obj 223 340 bng 20 250 50 0 empty empty empty 0 -10 0 12 #fcfcfc #000000 #000000;
#X obj 692 231 f \$0;
#X msg 684 269 \; duplicates_\$1 const 0;
#X obj 548 194 bng 20 250 50 0 empty empty empty 0 -10 0 12 #fcfcfc #000000 #000000;
#X obj 387 452 sel 0 1;
#X obj 346 322 > 0;
#X obj 387 398 ==;
#X obj 309 524 swap;
#X obj 309 486 unpack 0 0;
#X obj 322 566 > 0;
#X obj 547 153 loadbang;
#X obj 137 51 inlet;
#X obj 134 834 outlet;
#X obj 465 57 inlet;
#X text 682 59 this object receives pairs of number representing note on (note + velocity) and note off (note + 0). It will output a note only if it is not already playing.;
#X obj 670 572 until;
#X obj 670 597 i;
#X obj 706 601 + 1;
#X msg 668 633 \$1 0;
#X msg 704 542 0;
#X obj 665 471 bng 20 250 50 0 empty empty empty 0 -10 0 12 #fcfcfc #000000 #000000;
#X obj 665 499 t b b b;
#X msg 670 547 128;
#X text 694 123 The right inlet will clear the memory and send note off message for all the 128 notes;
#X connect 1 0 7 1;
#X connect 1 0 5 0;
#X connect 1 1 6 1;
#X connect 1 1 13 0;
#X connect 2 0 14 0;
#X connect 3 0 2 1;
#X connect 5 0 2 0;
#X connect 6 0 16 0;
#X connect 6 0 20 0;
#X connect 7 0 6 0;
#X connect 8 0 7 0;
#X connect 9 0 10 0;
#X connect 11 0 9 0;
#X connect 11 0 3 0;
#X connect 11 0 28 0;
#X connect 12 0 8 0;
#X connect 13 0 14 1;
#X connect 14 0 12 0;
#X connect 15 0 17 0;
#X connect 15 1 4 1;
#X connect 16 0 15 0;
#X connect 16 1 15 1;
#X connect 17 0 4 0;
#X connect 18 0 11 0;
#X connect 19 0 1 0;
#X connect 21 0 11 0;
#X connect 23 0 24 0;
#X connect 24 0 25 0;
#X connect 24 0 26 0;
#X connect 25 0 24 1;
#X connect 26 0 20 0;
#X connect 27 0 24 1;
#X connect 28 0 29 0;
#X connect 29 1 30 0;
#X connect 29 2 27 0;
#X connect 30 0 23 0;
