#N canvas 510 261 1390 805 10;
#X obj 110 105 bng 15 250 50 0 empty empty empty 17 7 0 10 #fcfcfc #000000 #000000;
#X msg 517 359 1;
#X obj 432 359 t f f;
#X obj 556 266 array size;
#X obj 432 313 until;
#X obj 432 337 f;
#X obj 457 337 + 1;
#X obj 432 290 f;
#X msg 473 313 0, f 2;
#X obj 456 835 array set;
#X obj 489 229 t b b b b;
#X obj 695 709 array size;
#X obj 695 606 f;
#X obj 588 130 until;
#X obj 591 160 f;
#X obj 642 163 + 1;
#X msg 641 124 0;
#X obj 492 390 array get;
#X obj 507 703 moses 0;
#X obj 579 704 moses 100;
#X obj 495 734 + 12;
#X obj 620 733 - 12;
#X obj 606 679 + 1;
#X obj 560 603 f;
#X obj 492 423 sel 0;
#X obj 519 483 t b f;
#X obj 520 511 random 100;
#X obj 520 535 < 50;
#X obj 109 132 vsl 10 40 0 100 0 0 empty empty empty 0 -9 0 10 #fcfcfc #000000 #000000 0 1;
#X msg 498 671 0;
#X obj -60 70 loadbang;
#X obj -60 92 t b b b;
#X msg -46 125 1;
#X obj 527 560 sel 0;
#X obj 698 635 t f b;
#X msg 718 669 0;
#X obj 603 193 t b f f f f;
#X obj 305 177 t b b;
#X msg -78 125 0;
#X obj -99 -6 inlet bang;
#X text 126 118 Min;
#X text 124 148 Max;
#X obj 158 395 s change;
#X obj 270 136 r riduceGo;
#X obj 747 357 r seedIniziale;
#X msg 747 412 seed \$1;
#X obj 747 379 + 222;
#X obj -31 222 r howMuchReduce;
#X obj 84 296 r reduceBang;
#X obj 820 489 array define accpnsvtosr0;
#X obj 820 514 array define accpnsvtosr1;
#X obj 819 538 array define accpnsvtosr2;
#X obj 820 564 array define accpnsvtosr3;
#X obj 820 587 array define accpnsvtosr4;
#X obj 819 611 array define accpnsvtosr5;
#X obj 819 635 array define accpnsvtosr6;
#X msg 761 676 symbol accpnsvtosr\$1;
#X msg 699 266 \; accpnsvtosr\$1 const 0;
#X msg 637 308 symbol accpnsvtos\$1;
#X msg 610 235 symbol accpnsvtos\$1;
#X obj 114 343 delay 100;
#X obj 155 105 nbx 2 16 -1e+37 1e+37 0 0 empty empty empty 0 -9 0 10 #000000 #ffffff #7c7c7c 0 256;
#X obj 130 103 tgl 18 0 empty empty empty 0 -9 0 10 #fcfcfc #000000 #000000 0 1;
#N canvas 101 69 952 743 retrig_every 0;
#X obj 573 257 i;
#X obj 601 257 + 1;
#X obj 618 208 r bang_\$0;
#X obj 573 231 bng 18 250 50 0 empty empty empty 0 -9 0 10 #fcfcfc #000000 #000000;
#X msg 600 232 0;
#X obj 630 232 r rst_\$0;
#X obj 573 280 %;
#X obj 573 305 sel 0;
#X obj 618 282 - 1;
#X obj 573 208 spigot;
#X obj 631 186 * 4;
#X obj 691 164 r ChordBarLength;
#X obj 691 188 * 8;
#X obj 573 353 outlet;
#X obj 611 121 inlet;
#X obj 656 122 inlet;
#X connect 0 0 1 0;
#X connect 0 0 6 0;
#X connect 1 0 0 1;
#X connect 2 0 9 0;
#X connect 3 0 0 0;
#X connect 4 0 0 1;
#X connect 5 0 4 0;
#X connect 6 0 7 0;
#X connect 7 0 13 0;
#X connect 8 0 7 1;
#X connect 9 0 3 0;
#X connect 10 0 8 0;
#X connect 10 0 6 1;
#X connect 11 0 12 0;
#X connect 12 0 10 1;
#X connect 14 0 9 1;
#X connect 15 0 10 0;
#X restore 121 72 pd retrig_every;
#X msg 588 102 4;
#X obj 979 184 until;
#X obj 979 203 f;
#X obj 1010 204 + 1;
#X obj 1030 361 array size;
#X obj 1030 386 array size;
#X obj 1028 278 t b f f;
#X obj 890 281 t b f f;
#X obj 890 393 array set;
#X obj 890 368 array get;
#X obj 979 233 t f f f;
#X obj 1007 131 t b b b;
#X obj 603 63 t b b b;
#X msg 979 162 3;
#X msg 1080 170 4;
#X msg 857 311 symbol accpnsvtos\$1;
#X msg 927 337 symbol accpnsvtosr\$1;
#X msg 1122 335 symbol accpnsvtosr\$1;
#X msg 1039 308 symbol accpnsvtos\$1;
#X obj 118 -3 inlet;
#X obj 162 -4 inlet;
#X obj 207 -1 inlet;
#X obj 251 -2 inlet;
#X obj 296 -4 inlet;
#X text 111 -33 retrsel;
#X text 157 -31 retramt;
#X text 204 -31 min;
#X text 247 -31 max;
#X text 290 -31 howmuch;
#X obj 101 261 s reduce_how_much_\$0;
#X obj 573 475 r reduce_how_much_\$0;
#X obj 540 659 r min_\$0;
#X obj 605 648 r max_\$0;
#X obj 217 170 s min_\$0;
#X obj 145 220 s max_\$0;
#X obj 257 76 s out_retr_sel_\$0;
#X obj 265 101 s out_retr_amt_\$0;
#X obj 297 807 r reduce_how_much_\$0;
#X obj 245 807 r max_\$0;
#X obj 188 805 r min_\$0;
#X obj 80 803 r out_retr_amt_\$0;
#X obj -36 806 r out_retr_sel_\$0;
#X obj -34 846 outlet;
#X obj 80 849 outlet;
#X obj 177 855 outlet;
#X obj 241 857 outlet;
#X obj 296 860 outlet;
#X obj -81 551 stampa;
#X obj -82 488 t b b;
#X obj 33 404 t b b;
#X msg -80 531 symbol accpnsvtosr;
#X msg -80 510 symbol Remove;
#X obj 100 213 / 127;
#X obj 100 235 * 100;
#X obj 320 294 + 12;
#X floatatom 148 126 5 0 0 0 - - - 0;
#X floatatom 150 150 5 0 0 0 - - - 0;
#X obj 294 317 f;
#X obj 307 350 <;
#X obj 321 317 t b f;
#X obj 300 381 sel 1;
#X obj 326 421 f;
#X obj 227 318 f;
#X obj 254 318 t b f;
#X obj 233 382 sel 1;
#X obj 259 422 f;
#X obj 253 295 - 12;
#X obj 240 351 >;
#X msg -12 125 127;
#X obj -60 444 bng 18 250 50 0 empty empty empty 0 -9 0 10 #fcfcfc #000000 #000000;
#X obj 390 857 outlet;
#X text 54 569 dump generated strings;
#X obj -86 601 print;
#X connect 0 0 37 0;
#X connect 1 0 17 1;
#X connect 2 0 17 0;
#X connect 2 1 9 1;
#X connect 3 0 7 1;
#X connect 3 0 12 1;
#X connect 4 0 5 0;
#X connect 5 0 6 0;
#X connect 5 0 2 0;
#X connect 6 0 5 1;
#X connect 7 0 4 0;
#X connect 8 0 5 1;
#X connect 10 0 7 0;
#X connect 10 1 1 0;
#X connect 10 1 8 0;
#X connect 10 2 12 0;
#X connect 10 3 3 0;
#X connect 12 0 34 0;
#X connect 13 0 14 0;
#X connect 14 0 15 0;
#X connect 14 0 36 0;
#X connect 15 0 14 1;
#X connect 16 0 14 1;
#X connect 17 0 24 0;
#X connect 18 0 20 0;
#X connect 18 1 9 0;
#X connect 19 0 18 0;
#X connect 19 1 21 0;
#X connect 20 0 18 0;
#X connect 21 0 19 0;
#X connect 22 0 19 1;
#X connect 23 0 19 0;
#X connect 24 1 25 0;
#X connect 25 0 26 0;
#X connect 25 1 23 1;
#X connect 26 0 27 0;
#X connect 27 0 33 0;
#X connect 28 0 116 0;
#X connect 29 0 9 0;
#X connect 30 0 31 0;
#X connect 31 0 38 0;
#X connect 31 1 32 0;
#X connect 31 2 132 0;
#X connect 32 0 119 0;
#X connect 33 0 23 0;
#X connect 33 1 29 0;
#X connect 34 0 11 0;
#X connect 34 1 35 0;
#X connect 35 0 11 0;
#X connect 36 0 10 0;
#X connect 36 1 59 0;
#X connect 36 2 58 0;
#X connect 36 3 56 0;
#X connect 36 4 57 0;
#X connect 37 0 42 0;
#X connect 37 0 60 0;
#X connect 37 1 76 0;
#X connect 38 0 28 0;
#X connect 39 0 0 0;
#X connect 43 0 0 0;
#X connect 44 0 46 0;
#X connect 45 0 26 0;
#X connect 46 0 45 0;
#X connect 47 0 28 0;
#X connect 48 0 0 0;
#X connect 56 0 9 2;
#X connect 56 0 11 1;
#X connect 58 0 17 2;
#X connect 59 0 3 1;
#X connect 60 0 113 0;
#X connect 61 0 63 1;
#X connect 61 0 100 0;
#X connect 62 0 63 0;
#X connect 62 0 99 0;
#X connect 63 0 0 0;
#X connect 64 0 13 0;
#X connect 65 0 66 0;
#X connect 66 0 67 0;
#X connect 66 0 74 0;
#X connect 67 0 66 1;
#X connect 68 0 69 0;
#X connect 70 0 68 0;
#X connect 70 1 82 0;
#X connect 70 2 81 0;
#X connect 71 0 73 0;
#X connect 71 1 79 0;
#X connect 71 2 80 0;
#X connect 73 0 72 0;
#X connect 74 0 71 0;
#X connect 74 2 70 0;
#X connect 75 0 77 0;
#X connect 75 1 78 0;
#X connect 76 0 64 0;
#X connect 76 1 16 0;
#X connect 76 2 75 0;
#X connect 77 0 65 0;
#X connect 78 0 66 1;
#X connect 79 0 73 2;
#X connect 80 0 72 2;
#X connect 81 0 69 1;
#X connect 82 0 68 1;
#X connect 83 0 62 0;
#X connect 84 0 61 0;
#X connect 85 0 119 0;
#X connect 86 0 120 0;
#X connect 87 0 28 0;
#X connect 94 0 27 1;
#X connect 95 0 18 1;
#X connect 96 0 22 0;
#X connect 101 0 110 0;
#X connect 102 0 109 0;
#X connect 103 0 108 0;
#X connect 104 0 107 0;
#X connect 105 0 106 0;
#X connect 111 0 134 0;
#X connect 111 0 136 0;
#X connect 112 0 114 0;
#X connect 112 1 115 0;
#X connect 113 0 112 0;
#X connect 114 0 111 0;
#X connect 115 0 111 1;
#X connect 116 0 117 0;
#X connect 117 0 93 0;
#X connect 118 0 123 0;
#X connect 119 0 118 0;
#X connect 119 0 126 1;
#X connect 119 0 97 0;
#X connect 120 0 121 1;
#X connect 120 0 130 0;
#X connect 120 0 98 0;
#X connect 121 0 122 0;
#X connect 122 0 124 0;
#X connect 123 0 121 0;
#X connect 123 1 122 1;
#X connect 123 1 125 1;
#X connect 124 0 125 0;
#X connect 125 0 120 0;
#X connect 126 0 131 0;
#X connect 127 0 126 0;
#X connect 127 1 129 1;
#X connect 127 1 131 1;
#X connect 128 0 129 0;
#X connect 129 0 119 0;
#X connect 130 0 127 0;
#X connect 131 0 128 0;
#X connect 132 0 120 0;
#X connect 133 0 112 0;
#X coords 0 -1 1 1 90 80 2 100 100;
