#N canvas 66 32 1854 1097 12;
#X obj 719 548 until;
#X obj 719 493 f, f 4;
#X obj 719 580 f;
#X msg 805 552 1;
#X obj 735 759 sel 0;
#X obj 843 487 list length;
#X msg 850 539 resize \$1;
#X obj 847 430 array set stampa\$0;
#X obj 878 584 array define stampa\$0;
#X obj 747 721 array get stampa\$0;
#X obj 779 894 list append;
#X obj 889 849 r recurs_\$0;
#X msg 678 794 symbol --;
#X obj 928 769 bng 20 250 50 0 empty empty empty 0 -10 0 12 #fcfcfc #000000 #000000;
#X obj 837 947 s recurs_\$0;
#X msg 765 805 \$1;
#X obj 596 957 spigot;
#X msg 571 804 1;
#X msg 625 863 0;
#X obj 567 548 t b b;
#X obj 719 521 t f f b;
#X obj 761 582 - 1;
#X obj 766 555 - 1;
#X obj 682 633 sel 0;
#X obj 661 663 t b b b;
#X msg 692 701 0;
#X obj 814 373 t b l l l b b;
#X obj 507 1074 print;
#X obj 580 995 list trim;
#X obj 772 611 % 8;
#X obj 772 636 == 0;
#X obj 763 666 sel 1;
#X obj 696 606 t f f;
#X msg 781 693 |;
#X obj 764 180 until;
#X obj 764 208 f;
#X obj 805 209 + 1;
#X obj 767 339 array get;
#X msg 830 179 0, f 2;
#X obj 1122 246 print;
#X obj 764 234 t b f;
#X obj 1119 45 inlet name;
#X msg 1114 197 New tab generated (\$1):;
#X obj 870 46 inlet tablename;
#X msg 827 287 symbol \$2\$1;
#X obj 807 263 pack 0 s;
#X obj 837 1232 outlet;
#X obj 837 1046 list_to_symbol;
#X obj 766 1170 pack 0 s;
#X obj 737 1131 i;
#X obj 768 1131 + 1;
#X msg 777 1038 0;
#X obj 833 1088 t b s;
#X obj 792 127 t b b a b;
#X msg 764 158 5;
#X connect 0 0 2 0;
#X connect 1 0 20 0;
#X connect 2 0 21 0;
#X connect 2 0 32 0;
#X connect 3 0 9 1;
#X connect 4 0 12 0;
#X connect 4 1 15 0;
#X connect 5 0 6 0;
#X connect 5 0 1 0;
#X connect 6 0 8 0;
#X connect 9 0 4 0;
#X connect 10 0 16 0;
#X connect 10 0 14 0;
#X connect 11 0 10 1;
#X connect 12 0 10 0;
#X connect 13 0 10 0;
#X connect 13 0 10 1;
#X connect 15 0 10 0;
#X connect 16 0 28 0;
#X connect 17 0 16 1;
#X connect 18 0 16 1;
#X connect 19 1 17 0;
#X connect 20 0 0 0;
#X connect 20 1 22 0;
#X connect 20 2 3 0;
#X connect 21 0 2 1;
#X connect 22 0 2 1;
#X connect 23 0 24 0;
#X connect 23 1 9 0;
#X connect 24 0 18 0;
#X connect 24 1 25 0;
#X connect 24 2 17 0;
#X connect 25 0 9 0;
#X connect 26 0 19 0;
#X connect 26 1 5 0;
#X connect 26 2 7 0;
#X connect 26 3 8 0;
#X connect 26 4 13 0;
#X connect 26 5 18 0;
#X connect 28 0 47 0;
#X connect 29 0 30 0;
#X connect 30 0 31 0;
#X connect 31 0 33 0;
#X connect 32 0 29 0;
#X connect 32 1 23 0;
#X connect 34 0 35 0;
#X connect 35 0 36 0;
#X connect 35 0 40 0;
#X connect 36 0 35 1;
#X connect 37 0 26 0;
#X connect 38 0 35 1;
#X connect 40 0 37 0;
#X connect 40 1 45 0;
#X connect 41 0 42 0;
#X connect 43 0 53 0;
#X connect 44 0 37 2;
#X connect 45 0 44 0;
#X connect 47 0 52 0;
#X connect 48 0 46 0;
#X connect 49 0 50 0;
#X connect 49 0 48 0;
#X connect 50 0 49 1;
#X connect 51 0 49 1;
#X connect 52 0 49 0;
#X connect 52 1 48 1;
#X connect 53 0 54 0;
#X connect 53 1 38 0;
#X connect 53 2 45 1;
#X connect 53 3 51 0;
#X connect 54 0 34 0;
