#N canvas 256 257 1390 805 10;
#X obj 1030 638 until;
#X obj 1030 657 f;
#X obj 1061 658 + 1;
#X obj 780 946 f;
#X obj 780 994 until;
#X obj 799 1022 f;
#X obj 832 1022 + 1;
#X msg 877 1040 1;
#X obj 777 1107 sel 0;
#X obj 921 1386 f;
#X obj 799 1044 t f f f;
#X msg 813 1383 0;
#X obj 864 1383 f;
#X obj 921 1482 + 0;
#X obj 969 1375 random 4;
#X obj 954 1406 sel 0 1 2 3;
#X obj 870 1345 t b b f b b;
#X msg 1002 1455 -1;
#X msg 1003 1483 -2;
#X obj 795 794 until;
#X obj 791 826 f;
#X obj 836 826 + 1;
#X obj 820 688 t b b;
#X obj 807 882 t b b b f;
#X obj 106 107 bng 15 250 50 0 empty empty empty 17 7 0 10 #fcfcfc #000000 #000000;
#X msg 1131 624 0;
#X obj 822 918 array size;
#X obj 777 1082 array get;
#X obj 805 1208 spigot;
#X obj 1047 1204 == 0;
#X obj 895 1133 t f b;
#X obj 994 1143 random 100;
#X obj 198 651 bng 15 250 50 0 empty empty empty 17 7 0 10 #fcfcfc #000000 #000000;
#X obj 1081 815 array size;
#X obj 1081 840 array size;
#X obj 1079 732 t b f f;
#X obj 941 735 t b f f;
#X obj 941 847 array set;
#X obj 941 822 array get;
#X floatatom 646 759 5 0 0 0 - - - 0;
#X obj 812 741 int;
#X floatatom 578 758 5 0 0 0 - - - 0;
#X obj 848 793 int;
#X obj 462 678 t b b;
#X msg 462 711 0;
#X obj 534 675 t b b;
#X obj 594 675 t b b;
#X obj 799 855 min 6;
#X msg 629 710 2;
#X obj 490 569 sel 0 1 2 3;
#X obj 664 677 t b b;
#X msg 534 710 0;
#X msg 664 711 3;
#X obj 180 186 tgl 13 0 empty empty single -34 7 1 10 #fcfcfc #000000 #000000 0 1;
#X obj 806 1241 spigot;
#X obj 805 1267 t f b;
#X msg 895 1309 0;
#X obj 936 1305 spigot;
#X msg 884 1252 1;
#X obj 1033 1237 t f b;
#X obj 996 1177 > 50;
#X obj 145 202 hradio 12 1 0 4 empty empty a|h|m|l -37 7 1 10 #fcfcfc #000000 #000000 0;
#X obj 1030 687 t f f f;
#X obj 2118 616 array define tempo0;
#X obj 2116 667 array define tempo1;
#X obj 1881 618 f;
#X msg 1940 577 0;
#X obj 1925 618 + 1;
#X obj 1892 726 + 1;
#X obj 1925 784 array max;
#X obj 1832 784 array max;
#X obj 1909 686 t b b f;
#X obj 1867 832 >;
#X obj 1867 856 sel 1;
#X obj 1921 1077 array get;
#X obj 2117 1084 array get;
#X obj 1892 891 f;
#X obj 2015 990 + 1;
#X obj 1924 1128 array set tempo0;
#X msg 2028 1070 0;
#X obj 1878 929 t b b f b b f;
#X msg 1684 1121 0;
#X obj 1542 1121 array get tempo0;
#X obj 1728 1120 array get tempo1;
#X obj 1571 1172 array set;
#X obj 1679 1172 array set;
#X obj 1882 650 sel 6;
#X obj 2099 819 until;
#X obj 2099 847 f;
#X obj 2140 848 + 1;
#X obj 2091 919 array get;
#X msg 2165 818 0, f 2;
#X obj 2151 751 t b b b;
#X obj 2099 873 t b f;
#X obj 2071 963 stampa;
#X obj 2060 1128 array set tempo1;
#X obj 1772 914 f;
#X obj 1806 912 + 1;
#X msg 1830 882 0;
#X obj 1768 889 bng 15 250 50 0 empty empty empty 17 7 0 10 #fcfcfc #000000 #000000;
#X obj 1772 936 > 14;
#X obj 1772 960 sel 1;
#X obj 1828 532 until;
#X obj 1872 416 bng 15 250 50 0 empty empty empty 17 7 0 10 #fcfcfc #000000 #000000;
#X obj 1058 585 t b b b;
#X obj 1725 1015 t b b;
#X obj 582 443 t b b;
#X obj 488 447 t b b;
#X obj 1637 652 f;
#X obj 1640 606 until;
#X obj 1676 543 t b b b;
#X obj 1639 735 array max;
#X msg 1695 623 6;
#X obj 1681 652 - 1;
#X obj 1639 767 sel 0;
#X obj 1624 821 f;
#X obj 1639 680 t b f f;
#X obj 1625 849 - 1;
#X obj 1919 470 t b b b;
#X obj 490 540 f;
#X obj 789 248 t b b b b b;
#X obj 1613 882 s lastline;
#X obj 653 530 r lastline;
#X msg 639 609 set \$1;
#X msg 595 710 1;
#X msg 701 711 1;
#X msg 560 710 1;
#X msg 497 711 4;
#X obj 612 559 + 1;
#X obj 684 564 - 1;
#X msg 576 601 set \$1;
#X msg 706 608 set \$1;
#X obj -45 160 loadbang;
#X msg -44 190 50;
#X msg -9 189 0;
#X obj 1452 655 f;
#X obj 1455 609 until;
#X obj 1491 546 t b b b;
#X obj 1454 742 array max;
#X obj 1454 683 t b f f;
#X obj 1472 875 ==;
#X obj 1505 849 f;
#X msg 1510 626 0;
#X obj 1496 655 + 1;
#X msg 1546 748 0;
#X obj 1472 905 sel 1;
#X obj 1472 942 f;
#X obj 1930 419 t b b;
#X obj 1452 974 t b f;
#X obj 1421 783 sel 0;
#X obj 1456 818 t f f b;
#X msg 835 997 0;
#X msg 962 1453 -2;
#X msg 947 1431 1;
#X obj 907 1543 moses 0;
#X obj 860 1618 f;
#X obj 876 1651 +;
#X obj 898 1575 t b f;
#X obj 945 1513 moses;
#X obj 976 1630 -;
#X obj -65 -141 inlet bang;
#X obj -208 -38 r shuffle;
#X obj 106 128 vradio 15 1 0 3 empty empty empty 0 -8 0 10 #fcfcfc #000000 #000000 0;
#X obj 496 369 i;
#X obj 1237 1336 r seedIniziale;
#X msg 1237 1391 seed \$1;
#X obj 1357 1339 r seedIniziale;
#X msg 1357 1394 seed \$1;
#X obj 1237 1358 + 3232;
#X obj 1357 1361 + 23231;
#X obj -115 400 r allBassTreble;
#X obj 8 19 r howMuch;
#X obj -227 1 delay 100;
#X obj 826 1690 array set accpnsvtos1;
#X msg 1051 1490 symbol accpnsvtos\$1;
#X msg 1481 712 symbol accpnsvto\$1;
#X msg 1666 709 symbol accpnsvto\$1;
#X msg 1979 751 symbol accpnsvto\$1;
#X msg 1837 752 symbol accpnsvto\$1;
#X msg 2184 897 symbol accpnsvto\$1;
#X msg 2140 1025 symbol accpnsvto\$1;
#X msg 1995 1024 symbol accpnsvto\$1;
#X msg 908 765 symbol accpnsvto\$1;
#X msg 1090 762 symbol accpnsvto\$1;
#X msg 1173 789 symbol accpnsvtos\$1;
#X msg 978 791 symbol accpnsvtos\$1;
#X msg 949 920 symbol accpnsvto\$1;
#X msg 1472 1003 \; accpnsvto\$1 const 0;
#X obj 984 161 array define accpnsvtos0;
#X obj 995 179 array define accpnsvtos1;
#X obj 1006 195 array define accpnsvtos2;
#X obj 1017 211 array define accpnsvtos3;
#X obj 1029 227 array define accpnsvtos4;
#X obj 1041 243 array define accpnsvtos5;
#X obj 1052 260 array define accpnsvtos6;
#X obj 156 107 nbx 2 16 -1e+37 1e+37 0 0 empty empty empty 0 -9 0 10 #000000 #ffffff #7c7c7c 0 256;
#X obj 131 105 tgl 18 0 empty empty empty 0 -9 0 10 #fcfcfc #000000 #000000 0 1;
#N canvas 101 69 952 743 retrig_every 0;
#X obj 573 257 i;
#X obj 601 257 + 1;
#X obj 618 208 r bang_\$0;
#X obj 573 231 bng 18 250 50 0 empty empty empty 0 -9 0 10 #fcfcfc #000000 #000000;
#X msg 600 232 0;
#X obj 630 232 r rst_\$0;
#X obj 573 280 %;
#X obj 573 305 sel 0;
#X obj 618 282 - 1;
#X obj 573 208 spigot;
#X obj 631 186 * 4;
#X obj 691 164 r ChordBarLength;
#X obj 691 188 * 8;
#X obj 573 353 outlet;
#X obj 611 121 inlet;
#X obj 656 122 inlet;
#X connect 0 0 1 0;
#X connect 0 0 6 0;
#X connect 1 0 0 1;
#X connect 2 0 9 0;
#X connect 3 0 0 0;
#X connect 4 0 0 1;
#X connect 5 0 4 0;
#X connect 6 0 7 0;
#X connect 7 0 13 0;
#X connect 8 0 7 1;
#X connect 9 0 3 0;
#X connect 10 0 8 0;
#X connect 10 0 6 1;
#X connect 11 0 12 0;
#X connect 12 0 10 1;
#X connect 14 0 9 1;
#X connect 15 0 10 0;
#X restore 106 81 pd retrig_every;
#X msg 2099 797 4;
#X msg 1635 573 4;
#X msg 1455 583 4;
#X obj 265 903 until;
#X obj 265 926 i;
#X obj 297 927 + 1;
#X msg 296 876 0;
#X msg 435 1059 symbol accpnsvto\$1;
#X obj 321 1023 r ChordBarLength;
#X obj 283 1076 until;
#X obj 283 1098 i;
#X obj 311 1098 + 1;
#X obj 283 1050 i;
#X obj 392 1221 array get;
#X msg 401 1167 1, f 4;
#X obj 266 1186 until;
#X obj 258 1214 i;
#X obj 296 1213 + 1;
#X msg 303 1186 0;
#X obj 256 1496 array set;
#X obj 201 1434 *;
#X obj 281 1459 +;
#X obj 251 818 t b b b;
#X msg 1030 616 7;
#X obj 275 1137 t b b f;
#X obj 309 756 bng 18 250 50 0 empty empty empty 0 -9 0 10 #fcfcfc #000000 #000000;
#X msg 382 1348 symbol accpnsvtos\$1;
#X msg 328 1075 0;
#X obj 249 1246 t f f;
#X msg 265 878 4;
#X obj 276 963 t b b b f b f;
#X obj 236 1287 +;
#X obj 379 988 * 16;
#X obj 505 399 sel 0 1 2;
#X text 124 141 pattern;
#X text 124 126 original;
#X text 124 157 shuffle;
#X obj 540 448 t b b;
#N canvas 66 32 1534 977 handle_patterns 0;
#X obj 202 20 inlet;
#X obj 204 331 sel 0 1 2 3;
#X obj 203 222 until;
#X obj 203 244 i;
#X obj 240 245 + 1;
#X msg 239 222 0;
#X obj 254 423 s to_pattern_arr_\$0;
#X obj 369 331 sel 0 1 2 3;
#X obj 419 423 s to_pattern_arr_\$0;
#X obj 537 332 sel 0 1 2 3;
#X obj 587 424 s to_pattern_arr_\$0;
#X obj 269 222 s first_or_sec_\$0;
#X msg 299 173 0;
#X obj 582 194 r to_pattern_arr_\$0;
#X obj 642 284 array set chord_pattern_\$0;
#X obj 202 174 t b b f b;
#X obj 204 274 list prepend;
#X obj 387 223 until;
#X obj 387 245 i;
#X obj 420 244 + 1;
#X msg 423 223 0;
#X obj 453 223 s first_or_sec_\$0;
#X obj 386 175 t b b f b;
#X obj 388 275 list prepend;
#X obj 716 196 r first_or_sec_\$0;
#X msg 483 174 8;
#X msg 204 199 4;
#X msg 387 200 4;
#X obj 582 220 t l b;
#X obj 650 246 i;
#X obj 706 333 sel 0 1 2 3;
#X obj 756 425 s to_pattern_arr_\$0;
#X obj 144 306 route 0 1 2 3;
#X obj 434 17 inlet;
#X obj 206 454 sel 0 1 2 3;
#X obj 256 546 s to_pattern_arr_\$0;
#X obj 371 454 sel 0 1 2 3;
#X obj 421 546 s to_pattern_arr_\$0;
#X obj 539 455 sel 0 1 2 3;
#X obj 589 547 s to_pattern_arr_\$0;
#X obj 708 456 sel 0 1 2 3;
#X obj 758 548 s to_pattern_arr_\$0;
#X obj 202 576 sel 0 1 2 3;
#X obj 252 668 s to_pattern_arr_\$0;
#X obj 367 576 sel 0 1 2 3;
#X obj 417 668 s to_pattern_arr_\$0;
#X obj 535 577 sel 0 1 2 3;
#X obj 585 669 s to_pattern_arr_\$0;
#X obj 704 578 sel 0 1 2 3;
#X obj 754 670 s to_pattern_arr_\$0;
#X obj 201 701 sel 0 1 2 3;
#X obj 251 793 s to_pattern_arr_\$0;
#X obj 366 701 sel 0 1 2 3;
#X obj 416 793 s to_pattern_arr_\$0;
#X obj 534 702 sel 0 1 2 3;
#X obj 584 794 s to_pattern_arr_\$0;
#X obj 703 703 sel 0 1 2 3;
#X obj 753 795 s to_pattern_arr_\$0;
#X obj 146 429 route 4 5 6 7;
#X obj 142 551 route 8 9 10 11;
#X obj 141 676 route 12 13 14 15;
#X msg 274 350 1 0 0 0 0 0 0 0;
#X msg 275 369 1 0 0 0 0 0 0 0;
#X msg 274 386 1 0 0 0 0 0 0 0;
#X msg 274 405 1 0 0 0 0 0 0 0;
#X msg 439 350 1 0 0 0 0 0 0 0;
#X msg 440 369 0 0 1 0 0 0 0 0;
#X msg 438 385 0 0 0 0 1 0 0 0;
#X msg 439 405 0 0 0 0 0 0 1 0;
#X msg 607 406 1 0 0 0 0 0 0 0;
#X msg 607 387 0 0 1 0 0 0 0 0;
#X msg 608 370 0 0 0 0 1 0 0 0;
#X msg 607 351 0 0 0 0 0 0 1 0;
#X msg 776 352 1 0 0 0 0 0 0 0;
#X msg 776 407 0 0 1 0 0 0 0 0;
#X msg 776 388 0 0 0 0 1 0 0 0;
#X msg 777 371 0 0 0 0 0 0 1 0;
#X msg 276 528 1 0 0 0 0 0 0 0;
#X msg 276 473 0 0 1 0 0 0 0 0;
#X msg 277 492 0 0 0 0 1 0 0 0;
#X msg 276 509 0 0 0 0 0 0 1 0;
#X msg 441 474 1 0 0 0 0 0 0 0;
#X msg 441 528 0 0 1 0 0 0 0 0;
#X msg 442 492 0 0 0 0 1 0 0 0;
#X msg 440 509 0 0 0 0 0 0 1 0;
#X msg 609 529 1 0 0 0 0 0 0 0;
#X msg 609 474 0 0 1 0 0 0 0 0;
#X msg 609 510 0 0 0 0 1 0 0 0;
#X msg 610 493 0 0 0 0 0 0 1 0;
#X msg 778 475 1 0 0 0 0 0 0 0;
#X msg 778 530 0 0 1 0 0 0 0 0;
#X msg 778 511 0 0 0 0 1 0 0 0;
#X msg 779 494 0 0 0 0 1 0 0 0;
#X msg 272 650 1 0 0 0 0 0 0 0;
#X msg 272 595 0 0 1 0 0 0 0 0;
#X msg 273 614 0 0 0 0 1 0 0 0;
#X msg 272 631 0 0 0 0 1 0 0 0;
#X msg 437 595 1 0 0 0 0 0 0 0;
#X msg 437 650 0 0 0 0 1 0 0 0;
#X msg 435 632 0 0 0 0 0 0 1 0;
#X msg 438 614 0 0 0 0 0 0 1 0;
#X msg 605 651 1 0 0 0 0 0 0 0;
#X msg 605 596 0 0 0 0 1 0 0 0;
#X msg 605 632 0 0 0 0 0 0 1 0;
#X msg 606 614 0 0 0 0 0 0 1 0;
#X obj 609 78 loadbang;
#X msg 605 101 0;
#X obj 685 245 + 16;
#X obj 987 459 array set drone_pattern_\$0;
#X obj 860 13 inlet;
#X msg 1056 255 1 0 0 0 0 0 0 0 1 0 0 0 0 0 0 0;
#X obj 934 437 loadbang;
#X msg 934 459 0;
#X obj 197 836 sel 0 1 2 3;
#X obj 247 928 s to_pattern_arr_\$0;
#X obj 362 836 sel 0 1 2 3;
#X obj 412 928 s to_pattern_arr_\$0;
#X obj 530 837 sel 0 1 2 3;
#X obj 580 929 s to_pattern_arr_\$0;
#X obj 699 838 sel 0 1 2 3;
#X obj 749 930 s to_pattern_arr_\$0;
#X msg 769 857 0 0 0 0 0 0 0 0;
#X msg 770 876 0 0 0 0 0 0 0 0;
#X msg 769 893 0 0 0 0 0 0 0 0;
#X msg 769 912 0 0 0 0 0 0 0 0;
#X msg 1057 273 1 0 0 0 1 0 0 0 1 0 0 0 1 0 0 0;
#X obj 62 1035 delay 10;
#X obj 62 1058 outlet;
#X msg 1058 291 0 0 0 0 1 0 0 0 0 0 0 0 1 0 0 0;
#X msg 1059 309 1 0 1 0 1 0 1 0 1 0 1 0 1 0 1 0;
#X msg 1060 327 1 0 0 0 0 0 1 0 1 0 0 0 0 0 1 0;
#X msg 1060 343 1 0 1 0 0 0 0 0 1 0 1 0 0 0 0 0;
#X msg 775 652 1 0 0 0 0 0 0 0;
#X msg 774 633 0 0 0 0 1 0 0 0;
#X msg 775 616 0 0 0 0 1 0 0 0;
#X msg 774 597 0 0 0 0 1 0 0 0;
#X msg 271 720 1 0 0 0 0 0 0 0;
#X msg 272 739 0 0 0 0 1 0 0 0;
#X msg 271 775 0 0 0 0 1 0 0 0;
#X msg 271 757 0 0 0 0 1 0 0 0;
#X msg 436 775 1 0 0 0 0 0 0 0;
#X msg 435 756 0 0 0 0 0 1 0 0;
#X msg 437 739 0 0 0 0 0 0 1 0;
#X msg 436 720 0 0 0 0 0 0 0 1;
#X msg 604 721 1 0 0 0 0 0 0 0;
#X msg 605 740 0 0 0 0 0 1 0 0;
#X msg 604 757 0 0 0 0 0 0 1 0;
#X msg 604 776 0 0 0 0 0 0 0 1;
#X msg 773 777 1 0 0 0 0 0 0 0;
#X msg 773 722 0 0 0 0 0 1 0 0;
#X msg 774 741 0 0 0 0 0 0 1 0;
#X msg 773 758 0 0 0 0 0 0 0 1;
#X obj 137 811 route 16 17 18 19;
#X msg 267 891 0 0 0 0 0 0 1 0;
#X msg 268 874 0 0 0 0 0 0 0 1;
#X msg 267 910 0 0 0 0 0 1 0 0;
#X msg 267 855 1 0 0 0 0 0 0 0;
#X msg 432 855 0 0 0 0 0 1 0 0;
#X msg 433 874 0 0 0 0 0 0 0 1;
#X msg 431 891 0 0 0 0 0 0 1 0;
#X msg 432 910 1 0 0 0 0 0 0 0;
#X msg 600 856 1 0 0 0 0 0 0 0;
#X msg 600 911 0 0 0 0 0 1 0 0;
#X msg 601 875 0 0 0 0 0 0 1 0;
#X msg 600 892 0 0 0 0 0 0 0 1;
#X obj 192 971 sel 0 1 2 3;
#X obj 242 1063 s to_pattern_arr_\$0;
#X obj 357 971 sel 0 1 2 3;
#X obj 407 1063 s to_pattern_arr_\$0;
#X obj 525 972 sel 0 1 2 3;
#X obj 575 1064 s to_pattern_arr_\$0;
#X obj 694 973 sel 0 1 2 3;
#X obj 744 1065 s to_pattern_arr_\$0;
#X obj 132 946 route 20 21 22 23;
#X msg 263 1009 0 0 0 1 0 0 0 1;
#X msg 262 990 0 0 0 0 0 1 0 0;
#X msg 262 1045 1 0 1 0 1 0 1 0;
#X msg 262 1026 0 1 0 0 0 0 0 0;
#X msg 427 990 1 0 1 0 1 0 1 0;
#X msg 426 1026 0 0 0 1 0 0 0 1;
#X msg 428 1009 0 1 0 0 0 0 0 0;
#X msg 427 1045 0 0 0 0 0 1 0 0;
#X msg 596 1010 0 0 0 1 0 0 0 1;
#X msg 595 1027 0 0 0 0 0 1 0 0;
#X msg 595 1046 1 0 1 0 1 0 1 0;
#X msg 595 991 0 1 0 0 0 0 0 0;
#X msg 765 1011 0 0 0 0 0 1 0 0;
#X msg 764 992 1 0 1 0 1 0 1 0;
#X msg 764 1028 0 0 0 1 0 0 0 1;
#X msg 764 1047 0 1 0 0 0 0 0 0;
#X msg 1061 359 1 1 1 1 1 1 1 1 1 1 1 1 1 1 1 1;
#X msg 1061 376 1 1 1 1 1 0 0 0 1 1 1 1 1 0 0 0;
#X msg 1060 395 1 0 0 0 0 1 1 1 1 0 0 0 1 1 1 1;
#X obj 909 207 sel 0 1 2 3 4 5 6 7 8;
#X text 1058 83 normal patterns: 23 \; drone patterns max index: 8;
#X connect 0 0 15 0;
#X connect 0 0 126 0;
#X connect 1 0 61 0;
#X connect 1 1 62 0;
#X connect 1 2 63 0;
#X connect 1 3 64 0;
#X connect 2 0 3 0;
#X connect 3 0 4 0;
#X connect 3 0 16 0;
#X connect 4 0 3 1;
#X connect 5 0 3 1;
#X connect 7 0 65 0;
#X connect 7 1 66 0;
#X connect 7 2 67 0;
#X connect 7 3 68 0;
#X connect 9 0 72 0;
#X connect 9 1 71 0;
#X connect 9 2 70 0;
#X connect 9 3 69 0;
#X connect 12 0 11 0;
#X connect 13 0 28 0;
#X connect 15 0 26 0;
#X connect 15 1 5 0;
#X connect 15 2 16 1;
#X connect 15 3 12 0;
#X connect 16 0 32 0;
#X connect 17 0 18 0;
#X connect 18 0 19 0;
#X connect 18 0 23 0;
#X connect 19 0 18 1;
#X connect 20 0 18 1;
#X connect 22 0 27 0;
#X connect 22 1 20 0;
#X connect 22 2 23 1;
#X connect 22 3 25 0;
#X connect 23 0 32 0;
#X connect 24 0 29 1;
#X connect 25 0 21 0;
#X connect 26 0 2 0;
#X connect 27 0 17 0;
#X connect 28 0 14 0;
#X connect 28 1 29 0;
#X connect 29 0 14 1;
#X connect 29 0 107 0;
#X connect 30 0 73 0;
#X connect 30 1 76 0;
#X connect 30 2 75 0;
#X connect 30 3 74 0;
#X connect 32 0 1 0;
#X connect 32 1 7 0;
#X connect 32 2 9 0;
#X connect 32 3 30 0;
#X connect 32 4 58 0;
#X connect 33 0 22 0;
#X connect 33 0 126 0;
#X connect 34 0 78 0;
#X connect 34 1 79 0;
#X connect 34 2 80 0;
#X connect 34 3 77 0;
#X connect 36 0 81 0;
#X connect 36 1 83 0;
#X connect 36 2 84 0;
#X connect 36 3 82 0;
#X connect 38 0 86 0;
#X connect 38 1 88 0;
#X connect 38 2 87 0;
#X connect 38 3 85 0;
#X connect 40 0 89 0;
#X connect 40 1 92 0;
#X connect 40 2 91 0;
#X connect 40 3 90 0;
#X connect 42 0 94 0;
#X connect 42 1 95 0;
#X connect 42 2 96 0;
#X connect 42 3 93 0;
#X connect 44 0 97 0;
#X connect 44 1 100 0;
#X connect 44 2 99 0;
#X connect 44 3 98 0;
#X connect 46 0 102 0;
#X connect 46 1 104 0;
#X connect 46 2 103 0;
#X connect 46 3 101 0;
#X connect 48 0 135 0;
#X connect 48 1 134 0;
#X connect 48 2 133 0;
#X connect 48 3 132 0;
#X connect 50 0 136 0;
#X connect 50 1 137 0;
#X connect 50 2 139 0;
#X connect 50 3 138 0;
#X connect 52 0 143 0;
#X connect 52 1 142 0;
#X connect 52 2 141 0;
#X connect 52 3 140 0;
#X connect 54 0 144 0;
#X connect 54 1 145 0;
#X connect 54 2 146 0;
#X connect 54 3 147 0;
#X connect 56 0 149 0;
#X connect 56 1 150 0;
#X connect 56 2 151 0;
#X connect 56 3 148 0;
#X connect 58 0 34 0;
#X connect 58 1 36 0;
#X connect 58 2 38 0;
#X connect 58 3 40 0;
#X connect 58 4 59 0;
#X connect 59 0 42 0;
#X connect 59 1 44 0;
#X connect 59 2 46 0;
#X connect 59 3 48 0;
#X connect 59 4 60 0;
#X connect 60 0 50 0;
#X connect 60 1 52 0;
#X connect 60 2 54 0;
#X connect 60 3 56 0;
#X connect 60 4 152 0;
#X connect 61 0 6 0;
#X connect 62 0 6 0;
#X connect 63 0 6 0;
#X connect 64 0 6 0;
#X connect 65 0 8 0;
#X connect 66 0 8 0;
#X connect 67 0 8 0;
#X connect 68 0 8 0;
#X connect 69 0 10 0;
#X connect 70 0 10 0;
#X connect 70 0 69 0;
#X connect 71 0 10 0;
#X connect 72 0 10 0;
#X connect 73 0 31 0;
#X connect 74 0 31 0;
#X connect 75 0 31 0;
#X connect 75 0 74 0;
#X connect 76 0 31 0;
#X connect 77 0 35 0;
#X connect 78 0 35 0;
#X connect 79 0 35 0;
#X connect 80 0 35 0;
#X connect 81 0 37 0;
#X connect 82 0 37 0;
#X connect 83 0 37 0;
#X connect 84 0 37 0;
#X connect 85 0 39 0;
#X connect 86 0 39 0;
#X connect 87 0 39 0;
#X connect 87 0 85 0;
#X connect 88 0 39 0;
#X connect 89 0 41 0;
#X connect 90 0 41 0;
#X connect 91 0 41 0;
#X connect 91 0 90 0;
#X connect 92 0 41 0;
#X connect 93 0 43 0;
#X connect 94 0 43 0;
#X connect 95 0 43 0;
#X connect 96 0 43 0;
#X connect 97 0 45 0;
#X connect 98 0 45 0;
#X connect 99 0 45 0;
#X connect 100 0 45 0;
#X connect 101 0 47 0;
#X connect 102 0 47 0;
#X connect 103 0 47 0;
#X connect 103 0 101 0;
#X connect 104 0 47 0;
#X connect 105 0 106 0;
#X connect 106 0 15 0;
#X connect 106 0 22 0;
#X connect 106 0 193 0;
#X connect 107 0 29 1;
#X connect 109 0 126 0;
#X connect 109 0 193 0;
#X connect 110 0 108 0;
#X connect 111 0 112 0;
#X connect 112 0 108 1;
#X connect 113 0 156 0;
#X connect 113 1 154 0;
#X connect 113 2 153 0;
#X connect 113 3 155 0;
#X connect 115 0 157 0;
#X connect 115 1 158 0;
#X connect 115 2 159 0;
#X connect 115 3 160 0;
#X connect 117 0 161 0;
#X connect 117 1 163 0;
#X connect 117 2 164 0;
#X connect 117 3 162 0;
#X connect 119 0 121 0;
#X connect 119 1 122 0;
#X connect 119 2 123 0;
#X connect 119 3 124 0;
#X connect 121 0 120 0;
#X connect 122 0 120 0;
#X connect 123 0 120 0;
#X connect 123 0 124 0;
#X connect 124 0 120 0;
#X connect 125 0 108 0;
#X connect 126 0 127 0;
#X connect 128 0 108 0;
#X connect 129 0 108 0;
#X connect 130 0 108 0;
#X connect 131 0 108 0;
#X connect 132 0 49 0;
#X connect 133 0 49 0;
#X connect 133 0 132 0;
#X connect 134 0 49 0;
#X connect 135 0 49 0;
#X connect 136 0 51 0;
#X connect 137 0 51 0;
#X connect 138 0 51 0;
#X connect 139 0 51 0;
#X connect 140 0 53 0;
#X connect 141 0 53 0;
#X connect 142 0 53 0;
#X connect 143 0 53 0;
#X connect 144 0 55 0;
#X connect 145 0 55 0;
#X connect 146 0 55 0;
#X connect 146 0 147 0;
#X connect 147 0 55 0;
#X connect 148 0 57 0;
#X connect 149 0 57 0;
#X connect 150 0 57 0;
#X connect 151 0 57 0;
#X connect 151 0 148 0;
#X connect 152 0 113 0;
#X connect 152 1 115 0;
#X connect 152 2 117 0;
#X connect 152 3 119 0;
#X connect 152 4 173 0;
#X connect 153 0 114 0;
#X connect 154 0 114 0;
#X connect 155 0 114 0;
#X connect 156 0 114 0;
#X connect 157 0 116 0;
#X connect 158 0 116 0;
#X connect 159 0 116 0;
#X connect 160 0 116 0;
#X connect 161 0 118 0;
#X connect 162 0 118 0;
#X connect 163 0 118 0;
#X connect 164 0 118 0;
#X connect 164 0 162 0;
#X connect 165 0 175 0;
#X connect 165 1 174 0;
#X connect 165 2 177 0;
#X connect 165 3 176 0;
#X connect 167 0 178 0;
#X connect 167 1 180 0;
#X connect 167 2 179 0;
#X connect 167 3 181 0;
#X connect 169 0 185 0;
#X connect 169 1 182 0;
#X connect 169 2 183 0;
#X connect 169 3 184 0;
#X connect 171 0 187 0;
#X connect 171 1 186 0;
#X connect 171 2 188 0;
#X connect 171 3 189 0;
#X connect 173 0 165 0;
#X connect 173 1 167 0;
#X connect 173 2 169 0;
#X connect 173 3 171 0;
#X connect 174 0 166 0;
#X connect 175 0 166 0;
#X connect 176 0 166 0;
#X connect 177 0 166 0;
#X connect 178 0 168 0;
#X connect 179 0 168 0;
#X connect 180 0 168 0;
#X connect 181 0 168 0;
#X connect 182 0 170 0;
#X connect 183 0 170 0;
#X connect 183 0 184 0;
#X connect 184 0 170 0;
#X connect 185 0 170 0;
#X connect 186 0 172 0;
#X connect 187 0 172 0;
#X connect 188 0 172 0;
#X connect 188 0 189 0;
#X connect 189 0 172 0;
#X connect 190 0 108 0;
#X connect 191 0 108 0;
#X connect 192 0 108 0;
#X connect 193 0 110 0;
#X connect 193 1 125 0;
#X connect 193 2 128 0;
#X connect 193 3 129 0;
#X connect 193 4 130 0;
#X connect 193 5 131 0;
#X connect 193 6 190 0;
#X connect 193 7 191 0;
#X connect 193 8 192 0;
#X restore -416 298 pd handle_patterns;
#X obj 490 1110 table chord_pattern_\$0 64;
#X obj 121 1376 array get chord_pattern_\$0;
#X obj 363 1189 *;
#X msg 338 1164 8;
#X msg 266 1163 8;
#X obj 323 1348 * 8;
#X obj 358 1398 % 16;
#X obj 359 1421 sel 0;
#X obj 307 1379 t f f;
#X obj 183 1336 +;
#X msg 344 1448 0;
#X msg 377 1449 8;
#X obj 276 1118 t f f, f 6;
#X obj -97 983 r ChordBarLength;
#X obj -135 1036 until;
#X obj -135 1058 i;
#X obj -107 1058 + 1;
#X obj -135 1010 i;
#X obj -26 1181 array get;
#X msg -17 1127 1, f 4;
#X obj -152 1146 until;
#X obj -160 1174 i;
#X obj -122 1173 + 1;
#X msg -115 1146 0;
#X obj -162 1456 array set;
#X obj -217 1394 *;
#X obj -137 1419 +;
#X obj -143 1097 t b b f;
#X msg -90 1035 0;
#X obj -169 1206 t f f;
#X obj -142 923 t b b b f b f;
#X obj -182 1247 +;
#X obj -39 948 * 16;
#X obj -55 1149 *;
#X msg -80 1124 8;
#X msg -152 1123 8;
#X obj -95 1308 * 8;
#X obj -60 1358 % 16;
#X obj -59 1381 sel 0;
#X obj -111 1339 t f f;
#X obj -235 1296 +;
#X msg -74 1408 0;
#X msg -41 1409 8;
#X obj -142 1078 t f f, f 6;
#X msg 17 1019 symbol accpnsvto4;
#X text 444 985 pattern accordo;
#X text -40 916 pattern drone;
#X obj 72 1125 table drone_pattern_\$0 16;
#X obj -311 1347 array get drone_pattern_\$0;
#X msg -36 1308 symbol accpnsvtos4;
#X obj 480 143 i;
#X obj 413 142 i;
#X obj 435 143 - 1;
#X obj 457 143 + 1;
#X obj 217 124 bng 16 250 50 0 empty empty + 5 8 0 10 #000000 #7c7c7c #ffffff;
#X obj 199 124 bng 16 250 50 0 empty empty - 5 8 0 10 #000000 #7c7c7c #ffffff;
#X obj 337 142 min 60;
#X obj 235 124 nbx 2 16 -1e+37 1e+37 0 0 empty empty empty 0 -9 0 10 #000000 #ffffff #9f9f9f 0 256;
#X obj 480 161 i;
#X obj 412 161 i;
#X obj 435 161 - 1;
#X obj 457 161 + 1;
#X obj 217 142 bng 16 250 50 0 empty empty + 5 8 0 10 #000000 #7c7c7c #ffffff;
#X obj 199 142 bng 16 250 50 0 empty empty - 5 8 0 10 #000000 #7c7c7c #ffffff;
#X obj 338 162 min 60;
#X obj 235 142 nbx 2 16 -1e+37 1e+37 0 0 empty empty empty 0 -9 0 10 #000000 #ffffff #9f9f9f 0 256;
#X obj 480 199 i;
#X obj 412 199 i;
#X obj 435 199 - 1;
#X obj 457 199 + 1;
#X obj 241 181 bng 16 250 50 0 empty empty + 5 8 0 10 #000000 #7c7c7c #ffffff;
#X obj 222 180 bng 16 250 50 0 empty empty - 5 8 0 10 #000000 #7c7c7c #ffffff;
#X obj 339 199 min 60;
#X obj 260 179 nbx 2 16 -1e+37 1e+37 0 0 empty empty empty 0 -9 0 10 #000000 #ffffff #9f9f9f 0 256;
#X obj -418 453 s go_pattern_\$0;
#X obj 476 312 r go_pattern_\$0;
#X obj -127 108 s go_pattern_\$0;
#X obj -375 1063 stampa;
#X obj -456 2011 outlet bang;
#X obj -376 1000 t b b;
#X obj -459 904 t b b;
#X msg -374 1022 symbol Pattern;
#X msg -374 1043 symbol accpnsvtos;
#X obj -429 864 delay 100;
#X obj 201 105 bng 15 250 50 0 empty empty same 19 9 1 10 #fcfcfc #000000 #000000;
#X obj 200 163 bng 15 250 50 0 empty empty drone 23 10 1 10 #fcfcfc #000000 #000000;
#X obj 248 105 bng 15 250 50 0 empty empty diff 23 9 1 10 #fcfcfc #000000 #000000;
#X obj 321 46 random 1000;
#X obj 321 68 / 1000;
#X obj 321 112 i;
#X obj 396 46 random 1000;
#X obj 396 68 / 1000;
#X obj 396 112 i;
#X obj 469 46 random 1000;
#X obj 469 68 / 1000;
#X obj 469 112 i;
#X obj 201 198 bng 15 250 50 0 empty empty interact 23 10 1 10 #fcfcfc #000000 #000000;
#X obj 544 46 random 1000;
#X obj 544 68 / 1000;
#X obj 544 112 i;
#X obj 111 217 hsl 80 10 0 127 0 0 empty empty empty -2 -9 0 10 #000000 #ffffff #000000 0 1;
#X obj 158 174 cnv 4 4 4 empty empty shuffle 3 5 1 10 #e0e0e0 #404040 0;
#X obj 90 -114 inlet;
#X obj 128 -114 inlet;
#X obj 238 -118 inlet;
#X obj 283 -118 inlet;
#X obj 331 -118 inlet;
#X obj 400 -118 inlet;
#X obj 449 -118 inlet;
#X obj 499 -117 inlet;
#X obj 544 -117 inlet;
#X obj 644 -119 inlet;
#X obj 687 -119 inlet;
#X obj -256 2009 outlet;
#X obj -201 2011 outlet;
#X obj -147 2007 outlet;
#X obj -92 2009 outlet;
#X obj -40 2011 outlet;
#X obj 15 2013 outlet;
#X obj 69 2009 outlet;
#X obj 124 2011 outlet;
#X obj 182 2012 outlet;
#X text 70 -137 retr_sel;
#X text 121 -137 retramt;
#X text 235 -141 single;
#X text 278 -141 basstreb;
#X text 337 -141 densy;
#X text 391 -141 rndsame;
#X text 441 -141 rnddiff;
#X text 496 -140 pat1-;
#X text 535 -140 pat1+;
#X text 640 -142 pat2-;
#X text 682 -142 pat2+;
#X obj 830 -121 inlet;
#X obj 873 -121 inlet;
#X text 826 -144 dron-;
#X text 868 -144 dron+;
#X obj 773 -119 inlet;
#X text 765 -142 rnddron;
#X obj 966 -118 inlet;
#X text 958 -141 interact;
#X obj 595 -119 inlet;
#X obj 733 -121 inlet;
#X text 591 -142 pat1;
#X text 728 -144 pat2;
#X obj 917 -122 inlet;
#X text 912 -145 dron;
#X obj 183 -119 inlet;
#X text 180 -142 patttype;
#X obj 119 282 s basstreb_\$0;
#X obj 137 260 s single_\$0;
#X obj 524 512 r basstreb_\$0;
#X obj 1100 1242 r single_\$0;
#X obj 33 345 s probarticula_\$0;
#X obj 1111 1158 r probarticula_\$0;
#X obj 17 367 s pattern_type_\$0;
#X obj 494 340 r pattern_type_\$0;
#X obj 97 1907 r pattern_1_\$0;
#X obj 209 1912 r pattern_2_\$0;
#X obj 316 1913 r pattern_drone_\$0;
#X obj -371 249 r pattern_drone_\$0;
#X obj -399 220 r pattern_2_\$0;
#X obj -415 196 r pattern_1_\$0;
#X obj 263 290 s pattern_1_\$0;
#X obj 258 323 s pattern_2_\$0;
#X obj 254 355 s pattern_drone_\$0;
#X obj 70 321 s retr_sel_out_\$0;
#X obj 98 300 s retr_amt_out_\$0;
#X obj -243 1889 r retr_sel_out_\$0;
#X obj -215 1868 r retr_amt_out_\$0;
#X obj -101 1880 r pattern_type_\$0;
#X obj -74 1897 r single_\$0;
#X obj -50 1914 r basstreb_\$0;
#X obj 74 1870 r probarticula_\$0;
#X obj 544 2013 outlet;
#X obj 397 1760 array get chord_pattern_\$0;
#X obj 417 1624 t b b;
#X msg 417 1647 64;
#X obj 410 1676 until;
#X obj 410 1699 i;
#X obj 442 1699 + 1;
#X msg 451 1653 0;
#X msg 479 1691 1;
#X obj 419 1800 pack 0 0;
#X obj 405 1737 t f f;
#X obj 396 1587 bng 18 250 50 0 empty empty empty 0 -9 0 10 #fcfcfc #000000 #000000;
#X obj -387 919 s dump_pattern_go_\$0;
#X obj 386 1563 r dump_pattern_go_\$0;
#X obj 378 144 max 0;
#X obj 378 162 max 0;
#X obj 378 200 max 0;
#X obj 235 1628 t b b;
#X msg 235 1651 64;
#X obj 228 1680 until;
#X obj 228 1703 i;
#X obj 260 1703 + 1;
#X msg 269 1657 0;
#X msg 297 1695 1;
#X obj 237 1804 pack 0 0;
#X obj 197 1728 t f f;
#X obj 218 1780 array get drone_pattern_\$0;
#X obj 252 1747 + 64;
#X obj 328 1622 delay 100;
#X obj 478 234 i;
#X obj 410 234 i;
#X obj 433 234 - 1;
#X obj 455 234 + 1;
#X obj 237 214 bng 16 250 50 0 empty empty + 5 8 0 10 #000000 #7c7c7c #ffffff;
#X obj 219 214 bng 16 250 50 0 empty empty - 5 8 0 10 #000000 #7c7c7c #ffffff;
#X obj 336 234 min 60;
#X obj 255 214 nbx 2 16 -1e+37 1e+37 0 0 empty empty empty 0 -9 0 10 #000000 #ffffff #9f9f9f 0 256;
#X obj 376 235 max 0;
#X obj 1023 -120 inlet;
#X obj 1076 -120 inlet;
#X text 1015 -143 interact-;
#X text 1068 -143 interact+;
#X obj 1135 -121 inlet;
#X text 1127 -144 interact_n;
#X obj 332 2009 outlet;
#X obj 243 384 s interact_val_\$0;
#X obj 356 1949 r interact_val_\$0;
#X obj 544 90 * 4;
#X obj 321 90 * 10;
#X obj 396 90 * 10;
#X obj 469 90 * 5;
#X obj -206 482 r interact_val_\$0;
#X obj -206 505 sel 0 1 2 3 4 5 6;
#X obj -31 555 s pattern_1_interact_\$0;
#X obj -31 578 s pattern_2_interact_\$0;
#X obj -56 599 s pattern_drone_interact_\$0;
#X obj 264 -11 r pattern_drone_interact_\$0;
#X obj 289 -32 r pattern_2_interact_\$0;
#X obj 284 -54 r pattern_1_interact_\$0;
#X msg -208 538 1;
#X msg -208 559 2;
#X msg -208 580 3;
#X msg -178 538 2;
#X msg -178 559 2;
#X msg -178 580 1;
#X msg -147 537 0;
#X msg -147 558 1;
#X msg -147 579 0;
#X msg -117 537 0;
#X msg -116 558 3;
#X msg -117 579 2;
#X msg -86 538 5;
#X msg -86 559 7;
#X msg -86 580 2;
#X obj 1916 347 bng 18 250 50 0 empty empty empty 0 -9 0 10 #fcfcfc #000000 #000000;
#X msg 593 141 23;
#X msg 631 142 8;
#X obj 609 110 loadbang;
#X msg 618 169 4;
#X obj 592 -44 f;
#X obj 621 -43 delay 100;
#X obj 595 -79 t b f;
#X obj 725 -43 f;
#X obj 754 -42 delay 100;
#X obj 728 -78 t b f;
#X obj 837 -44 f;
#X obj 866 -43 delay 100;
#X obj 840 -79 t b f;
#X obj -411 394 delay 100;
#X obj -406 352 t b b;
#X msg -356 357 stop;
#X connect 0 0 1 0;
#X connect 1 0 2 0;
#X connect 1 0 62 0;
#X connect 2 0 1 1;
#X connect 3 0 4 0;
#X connect 4 0 5 0;
#X connect 5 0 6 0;
#X connect 5 0 10 0;
#X connect 6 0 5 1;
#X connect 7 0 27 1;
#X connect 8 1 30 0;
#X connect 9 0 13 0;
#X connect 10 1 27 0;
#X connect 10 2 9 1;
#X connect 10 2 12 1;
#X connect 11 0 173 0;
#X connect 12 0 173 1;
#X connect 13 0 158 0;
#X connect 14 0 15 0;
#X connect 15 0 153 0;
#X connect 15 1 152 0;
#X connect 15 2 17 0;
#X connect 15 3 18 0;
#X connect 16 0 11 0;
#X connect 16 1 12 0;
#X connect 16 2 173 0;
#X connect 16 3 9 0;
#X connect 16 4 14 0;
#X connect 17 0 13 1;
#X connect 18 0 13 1;
#X connect 19 0 20 0;
#X connect 20 0 21 0;
#X connect 20 0 47 0;
#X connect 21 0 20 1;
#X connect 22 0 40 0;
#X connect 22 1 42 0;
#X connect 23 0 3 0;
#X connect 23 1 151 0;
#X connect 23 1 7 0;
#X connect 23 2 26 0;
#X connect 23 3 174 0;
#X connect 23 3 186 0;
#X connect 24 0 313 0;
#X connect 25 0 1 1;
#X connect 26 0 3 1;
#X connect 26 0 155 1;
#X connect 26 0 158 1;
#X connect 26 0 159 1;
#X connect 27 0 8 0;
#X connect 28 0 54 0;
#X connect 29 0 28 1;
#X connect 30 0 28 0;
#X connect 30 1 31 0;
#X connect 31 0 60 0;
#X connect 32 0 320 0;
#X connect 33 0 34 0;
#X connect 35 0 33 0;
#X connect 35 1 183 0;
#X connect 35 2 184 0;
#X connect 36 0 38 0;
#X connect 36 1 182 0;
#X connect 36 2 185 0;
#X connect 38 0 37 0;
#X connect 39 0 40 1;
#X connect 40 0 19 0;
#X connect 41 0 42 1;
#X connect 42 0 20 1;
#X connect 43 0 44 0;
#X connect 43 1 127 0;
#X connect 44 0 41 0;
#X connect 45 0 51 0;
#X connect 45 1 126 0;
#X connect 46 0 124 0;
#X connect 46 1 48 0;
#X connect 47 0 23 0;
#X connect 48 0 39 0;
#X connect 49 0 43 0;
#X connect 49 1 45 0;
#X connect 49 2 46 0;
#X connect 49 3 50 0;
#X connect 50 0 52 0;
#X connect 50 1 125 0;
#X connect 51 0 41 0;
#X connect 52 0 41 0;
#X connect 53 0 387 0;
#X connect 53 0 500 0;
#X connect 54 0 55 0;
#X connect 55 0 16 0;
#X connect 55 1 57 0;
#X connect 56 0 54 1;
#X connect 57 0 56 0;
#X connect 58 0 54 1;
#X connect 59 0 57 1;
#X connect 59 1 58 0;
#X connect 60 0 29 0;
#X connect 61 0 386 0;
#X connect 61 0 500 0;
#X connect 62 0 36 0;
#X connect 62 2 35 0;
#X connect 65 0 67 0;
#X connect 65 0 86 0;
#X connect 66 0 65 1;
#X connect 67 0 65 1;
#X connect 68 0 178 0;
#X connect 69 0 72 1;
#X connect 70 0 72 0;
#X connect 71 0 70 0;
#X connect 71 1 69 0;
#X connect 71 2 177 0;
#X connect 71 2 68 0;
#X connect 71 2 76 1;
#X connect 72 0 73 0;
#X connect 73 0 76 0;
#X connect 73 0 98 0;
#X connect 73 1 99 0;
#X connect 74 0 78 0;
#X connect 75 0 95 0;
#X connect 76 0 80 0;
#X connect 77 0 181 0;
#X connect 79 0 78 1;
#X connect 79 0 95 1;
#X connect 80 1 82 0;
#X connect 80 1 83 0;
#X connect 80 3 75 0;
#X connect 80 3 74 0;
#X connect 80 4 79 0;
#X connect 80 4 81 0;
#X connect 80 5 180 0;
#X connect 80 5 77 0;
#X connect 81 0 84 1;
#X connect 81 0 85 1;
#X connect 82 0 84 0;
#X connect 83 0 85 0;
#X connect 86 0 66 0;
#X connect 86 1 71 0;
#X connect 87 0 88 0;
#X connect 88 0 89 0;
#X connect 88 0 93 0;
#X connect 89 0 88 1;
#X connect 91 0 88 1;
#X connect 92 0 198 0;
#X connect 92 1 91 0;
#X connect 93 0 90 0;
#X connect 93 1 179 0;
#X connect 96 0 97 0;
#X connect 96 0 100 0;
#X connect 97 0 96 1;
#X connect 98 0 96 1;
#X connect 99 0 96 0;
#X connect 100 0 101 0;
#X connect 101 0 105 0;
#X connect 102 0 65 0;
#X connect 103 0 147 0;
#X connect 104 0 221 0;
#X connect 104 1 25 0;
#X connect 104 2 103 0;
#X connect 105 0 92 0;
#X connect 105 1 102 1;
#X connect 106 0 32 0;
#X connect 106 1 120 0;
#X connect 107 0 32 0;
#X connect 107 1 104 0;
#X connect 108 0 113 0;
#X connect 108 0 116 0;
#X connect 109 0 108 0;
#X connect 110 1 199 0;
#X connect 110 2 112 0;
#X connect 111 0 114 0;
#X connect 112 0 108 1;
#X connect 113 0 108 1;
#X connect 114 0 115 0;
#X connect 115 0 117 0;
#X connect 116 0 111 0;
#X connect 116 1 176 0;
#X connect 116 2 115 1;
#X connect 117 0 121 0;
#X connect 118 0 110 0;
#X connect 118 1 102 0;
#X connect 118 2 66 0;
#X connect 118 2 98 0;
#X connect 119 0 49 0;
#X connect 120 0 22 0;
#X connect 120 1 104 0;
#X connect 120 2 58 0;
#X connect 120 3 103 0;
#X connect 120 4 119 0;
#X connect 122 0 123 0;
#X connect 122 0 128 0;
#X connect 122 0 129 0;
#X connect 123 0 52 0;
#X connect 124 0 41 0;
#X connect 125 0 39 0;
#X connect 126 0 39 0;
#X connect 127 0 39 0;
#X connect 128 0 130 0;
#X connect 129 0 131 0;
#X connect 130 0 127 0;
#X connect 131 0 48 0;
#X connect 132 0 133 0;
#X connect 132 0 134 0;
#X connect 133 0 337 0;
#X connect 134 0 53 0;
#X connect 134 0 61 0;
#X connect 134 0 162 0;
#X connect 135 0 139 0;
#X connect 135 0 143 0;
#X connect 136 0 135 0;
#X connect 137 1 200 0;
#X connect 137 2 142 0;
#X connect 137 2 144 0;
#X connect 138 0 149 0;
#X connect 139 0 138 0;
#X connect 139 1 175 0;
#X connect 139 2 146 1;
#X connect 140 0 145 0;
#X connect 141 0 140 1;
#X connect 142 0 135 1;
#X connect 143 0 135 1;
#X connect 144 0 141 1;
#X connect 145 0 146 0;
#X connect 146 0 148 0;
#X connect 147 0 137 0;
#X connect 147 1 118 0;
#X connect 148 1 187 0;
#X connect 149 1 150 0;
#X connect 150 0 141 1;
#X connect 150 1 140 0;
#X connect 150 2 141 0;
#X connect 151 0 5 1;
#X connect 152 0 13 1;
#X connect 153 0 13 1;
#X connect 154 0 157 0;
#X connect 154 1 173 1;
#X connect 155 0 156 0;
#X connect 156 0 173 1;
#X connect 157 0 155 0;
#X connect 157 1 156 1;
#X connect 158 0 154 0;
#X connect 158 1 159 0;
#X connect 159 0 173 1;
#X connect 160 0 24 0;
#X connect 161 0 24 0;
#X connect 161 0 172 0;
#X connect 162 0 392 0;
#X connect 162 0 500 0;
#X connect 163 0 231 0;
#X connect 164 0 168 0;
#X connect 165 0 14 0;
#X connect 166 0 169 0;
#X connect 167 0 31 0;
#X connect 168 0 165 0;
#X connect 169 0 167 0;
#X connect 170 0 61 0;
#X connect 171 0 337 0;
#X connect 172 0 24 0;
#X connect 174 0 173 2;
#X connect 175 0 138 2;
#X connect 176 0 111 2;
#X connect 177 0 69 2;
#X connect 178 0 70 2;
#X connect 179 0 90 2;
#X connect 180 0 75 2;
#X connect 180 0 84 2;
#X connect 181 0 74 2;
#X connect 181 0 85 2;
#X connect 182 0 38 2;
#X connect 183 0 33 1;
#X connect 184 0 34 1;
#X connect 185 0 37 2;
#X connect 186 0 26 1;
#X connect 186 0 27 2;
#X connect 195 0 197 1;
#X connect 195 0 404 0;
#X connect 196 0 197 0;
#X connect 196 0 403 0;
#X connect 197 0 24 0;
#X connect 198 0 87 0;
#X connect 199 0 109 0;
#X connect 200 0 136 0;
#X connect 201 0 202 0;
#X connect 202 0 203 0;
#X connect 202 0 228 0;
#X connect 203 0 202 1;
#X connect 204 0 202 1;
#X connect 205 0 211 2;
#X connect 206 0 210 1;
#X connect 207 0 208 0;
#X connect 208 0 209 0;
#X connect 208 0 249 0;
#X connect 209 0 208 1;
#X connect 210 0 207 0;
#X connect 211 0 218 1;
#X connect 212 0 211 1;
#X connect 212 0 238 1;
#X connect 213 0 214 0;
#X connect 214 0 215 0;
#X connect 214 0 226 0;
#X connect 215 0 214 1;
#X connect 216 0 214 1;
#X connect 218 0 217 0;
#X connect 219 0 217 1;
#X connect 220 0 267 0;
#X connect 220 1 227 0;
#X connect 220 2 204 0;
#X connect 221 0 0 0;
#X connect 222 0 241 0;
#X connect 222 1 240 0;
#X connect 222 1 216 0;
#X connect 222 2 242 0;
#X connect 223 0 220 0;
#X connect 224 0 217 2;
#X connect 225 0 208 1;
#X connect 226 0 229 0;
#X connect 226 1 219 0;
#X connect 227 0 201 0;
#X connect 228 1 210 0;
#X connect 228 2 225 0;
#X connect 228 3 205 0;
#X connect 228 3 224 0;
#X connect 228 4 212 0;
#X connect 228 5 230 0;
#X connect 229 0 246 0;
#X connect 230 0 229 1;
#X connect 231 0 107 0;
#X connect 231 1 235 0;
#X connect 231 2 106 0;
#X connect 235 0 223 0;
#X connect 235 1 104 0;
#X connect 236 0 500 0;
#X connect 238 0 218 0;
#X connect 239 0 211 0;
#X connect 240 0 239 0;
#X connect 241 0 213 0;
#X connect 242 0 245 0;
#X connect 243 0 244 0;
#X connect 244 0 247 0;
#X connect 244 1 248 0;
#X connect 245 0 219 1;
#X connect 245 1 243 0;
#X connect 246 0 238 0;
#X connect 247 0 246 1;
#X connect 248 0 246 1;
#X connect 249 0 222 0;
#X connect 249 1 239 1;
#X connect 250 0 254 1;
#X connect 251 0 252 0;
#X connect 252 0 253 0;
#X connect 252 0 280 0;
#X connect 253 0 252 1;
#X connect 254 0 251 0;
#X connect 255 0 262 1;
#X connect 256 0 255 1;
#X connect 256 0 285 1;
#X connect 257 0 258 0;
#X connect 258 0 259 0;
#X connect 258 0 266 0;
#X connect 259 0 258 1;
#X connect 260 0 258 1;
#X connect 262 0 261 0;
#X connect 263 0 261 1;
#X connect 264 0 272 0;
#X connect 264 1 271 0;
#X connect 264 1 260 0;
#X connect 264 2 273 0;
#X connect 265 0 252 1;
#X connect 266 0 268 0;
#X connect 266 1 263 0;
#X connect 267 0 32 0;
#X connect 267 1 254 0;
#X connect 267 2 265 0;
#X connect 267 3 281 0;
#X connect 267 3 286 0;
#X connect 267 4 256 0;
#X connect 267 5 269 0;
#X connect 268 0 277 0;
#X connect 269 0 268 1;
#X connect 270 0 255 0;
#X connect 271 0 270 0;
#X connect 272 0 257 0;
#X connect 273 0 276 0;
#X connect 274 0 275 0;
#X connect 275 0 278 0;
#X connect 275 1 279 0;
#X connect 276 0 263 1;
#X connect 276 1 274 0;
#X connect 277 0 285 0;
#X connect 278 0 277 1;
#X connect 279 0 277 1;
#X connect 280 0 264 0;
#X connect 280 1 270 1;
#X connect 281 0 255 2;
#X connect 285 0 262 0;
#X connect 286 0 261 2;
#X connect 287 0 290 0;
#X connect 288 0 289 0;
#X connect 289 0 425 0;
#X connect 290 0 293 0;
#X connect 291 0 287 0;
#X connect 292 0 288 0;
#X connect 293 0 294 0;
#X connect 294 0 288 1;
#X connect 294 0 287 1;
#X connect 294 0 400 0;
#X connect 295 0 298 0;
#X connect 296 0 297 0;
#X connect 297 0 426 0;
#X connect 298 0 301 0;
#X connect 299 0 295 0;
#X connect 300 0 296 0;
#X connect 301 0 302 0;
#X connect 302 0 296 1;
#X connect 302 0 295 1;
#X connect 302 0 401 0;
#X connect 303 0 306 0;
#X connect 304 0 305 0;
#X connect 305 0 427 0;
#X connect 306 0 309 0;
#X connect 307 0 303 0;
#X connect 308 0 304 0;
#X connect 309 0 310 0;
#X connect 310 0 304 1;
#X connect 310 0 303 1;
#X connect 310 0 402 0;
#X connect 312 0 163 0;
#X connect 316 0 319 0;
#X connect 316 1 318 0;
#X connect 317 0 315 0;
#X connect 318 0 314 1;
#X connect 319 0 314 0;
#X connect 320 0 423 0;
#X connect 320 0 317 0;
#X connect 321 0 324 0;
#X connect 322 0 330 0;
#X connect 323 0 324 0;
#X connect 323 0 327 0;
#X connect 324 0 325 0;
#X connect 325 0 459 0;
#X connect 326 0 294 0;
#X connect 326 0 302 0;
#X connect 327 0 328 0;
#X connect 328 0 460 0;
#X connect 329 0 302 0;
#X connect 330 0 331 0;
#X connect 331 0 461 0;
#X connect 332 0 310 0;
#X connect 333 0 334 0;
#X connect 334 0 335 0;
#X connect 335 0 458 0;
#X connect 336 0 447 0;
#X connect 337 0 390 0;
#X connect 337 0 500 0;
#X connect 339 0 196 0;
#X connect 340 0 195 0;
#X connect 341 0 53 0;
#X connect 342 0 61 0;
#X connect 343 0 337 0;
#X connect 344 0 321 0;
#X connect 345 0 323 0;
#X connect 346 0 292 0;
#X connect 347 0 291 0;
#X connect 348 0 300 0;
#X connect 349 0 299 0;
#X connect 370 0 308 0;
#X connect 371 0 307 0;
#X connect 374 0 322 0;
#X connect 376 0 333 0;
#X connect 378 0 492 0;
#X connect 379 0 495 0;
#X connect 382 0 498 0;
#X connect 384 0 162 0;
#X connect 388 0 119 1;
#X connect 389 0 59 0;
#X connect 391 0 60 1;
#X connect 393 0 163 0;
#X connect 394 0 356 0;
#X connect 395 0 357 0;
#X connect 396 0 358 0;
#X connect 397 0 236 2;
#X connect 398 0 236 1;
#X connect 399 0 236 0;
#X connect 405 0 350 0;
#X connect 406 0 351 0;
#X connect 407 0 352 0;
#X connect 408 0 353 0;
#X connect 409 0 354 0;
#X connect 410 0 355 0;
#X connect 412 0 420 0;
#X connect 413 0 414 0;
#X connect 413 0 439 0;
#X connect 413 1 418 0;
#X connect 414 0 415 0;
#X connect 415 0 416 0;
#X connect 416 0 417 0;
#X connect 416 0 421 0;
#X connect 417 0 416 1;
#X connect 418 0 416 1;
#X connect 418 0 419 0;
#X connect 419 0 412 1;
#X connect 420 0 411 0;
#X connect 421 0 412 0;
#X connect 421 1 420 1;
#X connect 422 0 413 0;
#X connect 424 0 422 0;
#X connect 425 0 294 0;
#X connect 426 0 302 0;
#X connect 427 0 310 0;
#X connect 428 0 429 0;
#X connect 428 1 433 0;
#X connect 429 0 430 0;
#X connect 430 0 431 0;
#X connect 431 0 432 0;
#X connect 431 0 436 0;
#X connect 432 0 431 1;
#X connect 433 0 431 1;
#X connect 433 0 434 0;
#X connect 434 0 437 1;
#X connect 435 0 411 0;
#X connect 436 0 437 0;
#X connect 436 1 438 0;
#X connect 437 0 435 0;
#X connect 438 0 435 1;
#X connect 439 0 428 0;
#X connect 440 0 443 0;
#X connect 441 0 442 0;
#X connect 442 0 448 0;
#X connect 443 0 446 0;
#X connect 444 0 440 0;
#X connect 445 0 441 0;
#X connect 446 0 447 0;
#X connect 447 0 441 1;
#X connect 447 0 440 1;
#X connect 447 0 456 0;
#X connect 448 0 447 0;
#X connect 449 0 445 0;
#X connect 450 0 444 0;
#X connect 453 0 447 0;
#X connect 457 0 455 0;
#X connect 458 0 336 0;
#X connect 459 0 326 0;
#X connect 460 0 329 0;
#X connect 461 0 332 0;
#X connect 462 0 463 0;
#X connect 463 0 470 0;
#X connect 463 1 473 0;
#X connect 463 2 476 0;
#X connect 463 3 479 0;
#X connect 463 4 482 0;
#X connect 467 0 310 0;
#X connect 468 0 302 0;
#X connect 469 0 294 0;
#X connect 470 0 471 0;
#X connect 470 0 464 0;
#X connect 471 0 472 0;
#X connect 471 0 465 0;
#X connect 472 0 466 0;
#X connect 473 0 474 0;
#X connect 473 0 464 0;
#X connect 474 0 475 0;
#X connect 474 0 465 0;
#X connect 475 0 466 0;
#X connect 476 0 477 0;
#X connect 476 0 464 0;
#X connect 477 0 478 0;
#X connect 477 0 465 0;
#X connect 478 0 466 0;
#X connect 479 0 480 0;
#X connect 479 0 464 0;
#X connect 480 0 481 0;
#X connect 480 0 465 0;
#X connect 481 0 466 0;
#X connect 482 0 483 0;
#X connect 482 0 464 0;
#X connect 483 0 484 0;
#X connect 483 0 465 0;
#X connect 484 0 466 0;
#X connect 485 0 147 0;
#X connect 486 0 460 1;
#X connect 486 0 459 1;
#X connect 486 0 301 1;
#X connect 486 0 293 1;
#X connect 487 0 461 1;
#X connect 487 0 309 1;
#X connect 488 0 487 0;
#X connect 488 0 486 0;
#X connect 488 0 489 0;
#X connect 489 0 446 1;
#X connect 490 0 294 0;
#X connect 491 0 490 0;
#X connect 492 0 491 0;
#X connect 492 1 490 1;
#X connect 493 0 302 0;
#X connect 494 0 493 0;
#X connect 495 0 494 0;
#X connect 495 1 493 1;
#X connect 496 0 310 0;
#X connect 497 0 496 0;
#X connect 498 0 497 0;
#X connect 498 1 496 1;
#X connect 499 0 311 0;
#X connect 500 0 499 0;
#X connect 500 1 501 0;
#X connect 501 0 499 0;
#X coords 0 -1 1 1 192 133 2 100 100;
