#N canvas 412 219 1390 805 12;
#X obj -2 400 bng 15 250 50 0 empty empty empty 17 7 0 10 #fcfcfc #000000 #000000;
#X obj 101 101 to_tonality;
#X obj 661 -35 array define accpnsvt0;
#X obj 660 -16 array define accpnsvt1;
#X obj 661 4 array define accpnsvt2;
#X obj 660 23 array define accpnsvt3;
#X obj 661 44 array define accpnsvt4;
#X obj 660 63 array define accpnsvt5;
#X obj 658 86 array define accpnsvt6;
#X obj 605 -117 array size;
#X msg 604 -87 resize \$1;
#X msg 608 -152 symbol accpnsv\$1;
#X obj 574 -204 t b b;
#X msg 606 -178 0;
#X obj 420 -249 until;
#X obj 417 -209 f;
#X obj 458 -212 + 1;
#X obj 420 -299 t b b;
#X msg 459 -248 0;
#X msg 418 -273 7;
#X msg 378 -92 symbol accpnsv\$1;
#X msg 464 -126 symbol accpnsvt\$1;
#X obj 405 -382 t b b b;
#X obj -22 -520 inlet;
#X obj 368 -181 t b f;
#X obj -58 769 outlet;
#X obj 162 477 outlet;
#X obj 226 474 outlet;
#X obj 303 477 outlet;
#X text 170 503 scale;
#X text 226 504 tonality;
#X text 311 500 octave;
#X obj 232 -523 inlet;
#X obj 348 -521 inlet;
#X obj 431 -520 inlet;
#X text 229 -543 scale;
#X text 342 -548 tonality;
#X text 422 -543 octave;
#X text -6 -548 go;
#X obj 398 -140 t f f;
#X obj 195 160 bng 20 250 50 0 empty empty empty 0 -10 0 12 #fcfcfc #000000 #000000;
#X obj 539 -428 r redo_traspone_\$0;
#X obj 108 375 s redo_traspone_\$0;
#X obj 116 315 bng 20 250 50 0 empty empty empty 0 -10 0 12 #fcfcfc #000000 #000000;
#X obj 110 342 delay 100;
#X obj 382 477 outlet;
#X obj 446 474 outlet;
#X obj 523 477 outlet;
#X text 373 504 scale_nam;
#X text 446 504 ton_name;
#X text 514 503 oct_name;
#X obj 498 -522 inlet;
#X obj 565 -521 inlet;
#X obj 648 -520 inlet;
#X obj 719 -523 inlet;
#X obj 784 -517 inlet;
#X obj 855 -520 inlet;
#X text 495 -542 scale-;
#X text 559 -548 scale+;
#X text 639 -543 tonality-;
#X text 710 -546 tonality+;
#X text 775 -540 octave-;
#X text 846 -543 octave+;
#X obj -2 319 delay 200;
#X obj 3 635 stampa;
#X msg 4 594 symbol Voices;
#X obj 2 572 t b b;
#X msg 4 615 symbol accpnsvt;
#X connect 0 0 25 0;
#X connect 1 0 63 0;
#X connect 1 1 26 0;
#X connect 1 1 43 0;
#X connect 1 2 27 0;
#X connect 1 2 43 0;
#X connect 1 3 28 0;
#X connect 1 3 43 0;
#X connect 1 4 45 0;
#X connect 1 5 46 0;
#X connect 1 6 47 0;
#X connect 9 0 10 0;
#X connect 10 0 2 0;
#X connect 10 0 3 0;
#X connect 10 0 4 0;
#X connect 10 0 5 0;
#X connect 10 0 6 0;
#X connect 10 0 7 0;
#X connect 10 0 8 0;
#X connect 11 0 9 1;
#X connect 12 0 9 0;
#X connect 12 1 13 0;
#X connect 13 0 11 0;
#X connect 14 0 15 0;
#X connect 15 0 16 0;
#X connect 15 0 24 0;
#X connect 16 0 15 1;
#X connect 17 0 19 0;
#X connect 17 1 18 0;
#X connect 18 0 15 1;
#X connect 19 0 14 0;
#X connect 20 0 1 4;
#X connect 21 0 1 5;
#X connect 22 1 17 0;
#X connect 22 2 12 0;
#X connect 23 0 22 0;
#X connect 24 0 1 0;
#X connect 24 1 39 0;
#X connect 32 0 1 1;
#X connect 33 0 1 2;
#X connect 34 0 1 3;
#X connect 39 0 20 0;
#X connect 39 1 21 0;
#X connect 40 0 22 0;
#X connect 41 0 22 0;
#X connect 43 0 44 0;
#X connect 44 0 42 0;
#X connect 51 0 1 6;
#X connect 52 0 1 7;
#X connect 53 0 1 8;
#X connect 54 0 1 9;
#X connect 55 0 1 10;
#X connect 56 0 1 11;
#X connect 63 0 0 0;
#X connect 65 0 64 1;
#X connect 66 0 67 0;
#X connect 66 1 65 0;
#X connect 67 0 64 0;
#X coords 0 -1 1 1 121 86 2 100 100;
