#N canvas 585 75 1223 925 12;
#X msg 770 201 set \$1;
#X obj 610 501 i;
#X obj 641 500 + 1;
#X msg 637 438 0, f 4;
#X obj 742 388 sel 3;
#X msg 753 429 0;
#X obj 701 295 spigot;
#X msg 767 284 1;
#X obj 679 77 bng 20 250 50 0 empty empty empty 0 -10 0 12 #fcfcfc #000000 #000000;
#X obj 580 406 bng 20 250 50 0 empty empty empty 0 -10 0 12 #fcfcfc #000000 #000000;
#X obj 783 335 tgl 20 0 empty empty empty 0 -10 0 12 #fcfcfc #000000 #000000 0 1;
#X obj 805 146 makefilename %%s%s;
#X obj 307 237 until;
#X msg 341 181 1 2 3 4 a b c;
#X obj 320 320 list store;
#X obj 341 204 t b b l;
#X obj 307 262 f;
#X obj 345 263 + 1;
#X msg 364 237 0, f 2;
#X msg 307 293 get \$1 1;
#X obj 553 351 makefilename %s-;
#X obj 628 239 print;
#X connect 0 0 6 0;
#X connect 1 0 2 0;
#X connect 1 0 4 0;
#X connect 2 0 1 1;
#X connect 3 0 1 1;
#X connect 4 0 5 0;
#X connect 5 0 6 1;
#X connect 5 0 10 0;
#X connect 6 0 20 0;
#X connect 7 0 6 1;
#X connect 7 0 10 0;
#X connect 8 0 7 0;
#X connect 8 0 3 0;
#X connect 9 0 1 0;
#X connect 11 0 0 0;
#X connect 12 0 16 0;
#X connect 13 0 15 0;
#X connect 14 0 20 0;
#X connect 14 1 12 1;
#X connect 15 0 12 0;
#X connect 15 1 18 0;
#X connect 15 2 14 1;
#X connect 16 0 17 0;
#X connect 16 0 19 0;
#X connect 17 0 16 1;
#X connect 18 0 16 1;
#X connect 19 0 14 0;
#X connect 20 0 9 0;
#X connect 20 0 11 0;
#X connect 20 0 21 0;
