#N canvas 426 30 1052 737 10;
#X obj 655 -65 inlet max;
#X obj 508 238 until;
#X obj 508 215 f;
#X obj 508 268 f;
#X obj 538 268 + 1;
#X floatatom 601 32 5 0 0 0 - - -, f 5;
#X obj 507 297 t f f;
#X obj 659 208 f;
#X obj 376 202 random;
#X obj 333 260 sel 0;
#X msg 422 203 1;
#X obj 399 332 t b f;
#X msg 399 355 0;
#X obj 602 60 max 1;
#X msg 547 238 0;
#X obj 507 319 + 1;
#X obj 379 401 outlet;
#X obj 244 -57 inlet bang;
#X obj 399 309 - 1;
#X msg 413 -19 4;
#X obj 360 284 t b f f;
#X obj 602 477 f;
#X obj 636 477 + 1;
#X msg 693 426 1, f 2;
#X obj 602 510 sel 1;
#X obj 376 113 t b b;
#X obj 376 34 route bang float;
#X obj 532 -52 loadbang;
#X obj 520 165 t b b b b;
#X obj 532 -14 t b b;
#X obj 602 88 t b f;
#X obj 379 -58 inlet reset;
#X obj 592 -9 f \$1;
#X obj 650 284 array define urn\$0 32;
#X obj 507 340 array set urn\$0;
#X obj 399 377 array set urn\$0;
#X obj 377 228 array get urn\$0;
#X obj 665 244 array size urn\$0;
#X obj 362 350 - 1;
#X obj 772 -56 inlet seed;
#X text -16 81 urn genera numeri random senza ripetizione fino a un
massimo (max) resettabile (reset) e settabile tramite creation argument
(\$1). Il seed del random è resettabile con un messaggio di seed dall'inlet
(seed);
#X connect 0 0 5 0;
#X connect 1 0 3 0;
#X connect 2 0 1 0;
#X connect 3 0 4 0;
#X connect 3 0 6 0;
#X connect 4 0 3 1;
#X connect 5 0 13 0;
#X connect 6 0 15 0;
#X connect 6 1 34 1;
#X connect 7 0 37 0;
#X connect 8 0 36 0;
#X connect 9 0 8 0;
#X connect 9 1 20 0;
#X connect 10 0 36 1;
#X connect 11 0 12 0;
#X connect 11 1 35 1;
#X connect 12 0 35 0;
#X connect 13 0 30 0;
#X connect 14 0 3 1;
#X connect 15 0 34 0;
#X connect 17 0 26 0;
#X connect 18 0 11 0;
#X connect 19 0 26 0;
#X connect 20 0 21 0;
#X connect 20 1 38 0;
#X connect 20 2 18 0;
#X connect 21 0 22 0;
#X connect 21 0 24 0;
#X connect 22 0 21 1;
#X connect 23 0 21 1;
#X connect 24 0 23 0;
#X connect 24 0 28 0;
#X connect 25 0 8 0;
#X connect 25 1 10 0;
#X connect 26 0 25 0;
#X connect 26 1 28 0;
#X connect 27 0 29 0;
#X connect 27 0 32 0;
#X connect 28 0 2 0;
#X connect 28 1 7 0;
#X connect 28 2 14 0;
#X connect 28 3 23 0;
#X connect 29 0 28 0;
#X connect 29 1 5 0;
#X connect 30 0 28 0;
#X connect 30 1 7 1;
#X connect 30 1 24 1;
#X connect 30 1 2 1;
#X connect 30 1 8 1;
#X connect 31 0 29 0;
#X connect 32 0 5 0;
#X connect 36 0 9 0;
#X connect 38 0 16 0;
#X connect 39 0 8 0;
