#N canvas 426 32 1052 737 10;
#X obj 541 -33 inlet max;
#X obj 508 238 until;
#X obj 508 215 f;
#X obj 508 268 f;
#X obj 538 268 + 1;
#X floatatom 541 21 5 0 0 0 - - - 0;
#X obj 507 297 t f f;
#X obj 568 161 f;
#X obj 442 -30 inlet howmany;
#X floatatom 313 50 5 0 0 0 - - - 0;
#X obj 297 134 f;
#X obj 262 1 bng 15 250 50 0 empty empty empty 17 7 0 10 #fcfcfc #000000 #000000;
#X obj 376 202 random;
#X obj 297 157 until;
#X obj 333 260 sel 0;
#X msg 423 202 1;
#X obj 387 339 t b f;
#X msg 387 362 0;
#X obj 313 69 max 1;
#X obj 508 111 t b b b;
#X msg 547 238 0;
#X obj 507 319 + 1;
#X obj 297 21 t b b b;
#X obj 312 104 min;
#X obj 360 475 outlet;
#X obj 266 -25 inlet bang;
#X obj 360 284 t f f;
#X obj 387 309 - 1;
#X obj 360 79 t b f;
#X text 703 -23 This object acts as a urn: puts out n different integer numbers in a certain range. Max sets the range 1-max and howmany indicatees how many numbers to get (obviously max > howmany).;
#X obj 583 111 max 1;
#X obj 357 442 - 1;
#X obj 590 239 array define uziurn_\$0 32;
#X obj 376 228 array get uziurn_\$0;
#X obj 387 384 array set uziurn_\$0;
#X obj 508 340 array set uziurn_\$0;
#X obj 661 157 pack 0 0;
#X obj 668 105 f \$0;
#X obj 675 67 loadbang;
#X msg 622 195 \; uziurn_\$2 resize \$1;
#X connect 0 0 5 0;
#X connect 1 0 3 0;
#X connect 2 0 1 0;
#X connect 3 0 4 0;
#X connect 3 0 6 0;
#X connect 4 0 3 1;
#X connect 5 0 28 0;
#X connect 5 0 30 0;
#X connect 6 0 21 0;
#X connect 6 1 35 1;
#X connect 7 0 36 0;
#X connect 8 0 9 0;
#X connect 9 0 18 0;
#X connect 10 0 13 0;
#X connect 11 0 22 0;
#X connect 12 0 33 0;
#X connect 13 0 12 0;
#X connect 14 0 12 0;
#X connect 14 1 26 0;
#X connect 15 0 33 1;
#X connect 16 0 17 0;
#X connect 16 1 34 1;
#X connect 17 0 34 0;
#X connect 18 0 23 0;
#X connect 19 0 2 0;
#X connect 19 1 7 0;
#X connect 19 2 20 0;
#X connect 20 0 3 1;
#X connect 21 0 35 0;
#X connect 22 0 10 0;
#X connect 22 1 15 0;
#X connect 22 2 19 0;
#X connect 22 2 5 0;
#X connect 23 0 10 1;
#X connect 25 0 11 0;
#X connect 26 0 31 0;
#X connect 26 1 27 0;
#X connect 27 0 16 0;
#X connect 28 0 23 0;
#X connect 28 1 23 1;
#X connect 30 0 7 1;
#X connect 30 0 12 1;
#X connect 30 0 2 1;
#X connect 31 0 24 0;
#X connect 33 0 14 0;
#X connect 36 0 39 0;
#X connect 37 0 36 1;
#X connect 38 0 37 0;
