#N canvas 288 200 1390 805 10;
#X obj 659 964 until;
#X floatatom 1002 658 5 0 0 0 - - - 0;
#X obj 659 909 f, f 4;
#X msg 1002 681 resize \$1;
#X obj 663 1238 array set;
#X floatatom 913 1171 5 0 0 0 - - - 0;
#X obj 659 996 f;
#X obj 700 998 + 1;
#X msg 713 968 0;
#X msg 745 968 1, f 4;
#X obj 714 1080 sel 0;
#X msg 745 1176 0;
#X obj 675 1024 t f f;
#X obj 791 1176 +;
#X obj 920 506 until;
#X obj 920 536 f;
#X obj 956 536 + 1;
#X msg 975 507 0;
#X obj 659 937 t f b;
#X obj 986 1008 sel 0 1 2 3 4 5 6;
#X obj 963 1058 f;
#X obj 993 1059 f;
#X obj 1023 1059 f;
#X obj 1052 1059 f;
#X obj 1084 1059 f;
#X obj 1115 1059 f;
#X obj 1146 1060 f;
#X floatatom 175 609 5 0 60 0 - Voce6 Voice6 0;
#X obj 106 107 bng 15 250 50 0 empty empty empty 17 7 0 10 #fcfcfc #000000 #000000;
#X obj 1176 874 r Voice0;
#X obj 1176 892 r Voice1;
#X obj 1177 912 r Voice2;
#X obj 1176 931 r Voice3;
#X obj 1176 949 r Voice4;
#X obj 1176 969 r Voice5;
#X obj 1176 988 r Voice6;
#X obj -235 -5 inlet bang;
#X obj 1002 629 array size accpns;
#X obj 1028 705 array define accpnsv0;
#X obj 1028 723 array define accpnsv1;
#X obj 1028 741 array define accpnsv2;
#X obj 1029 761 array define accpnsv3;
#X obj 1030 780 array define accpnsv4;
#X obj 1029 798 array define accpnsv5;
#X obj 1029 816 array define accpnsv6;
#X msg 895 1202 symbol accpnsv\$1;
#X obj 716 1052 array get accpns;
#X obj 106 125 vradio 13 1 0 8 empty empty empty 0 -8 0 10 #fcfcfc #000000 #000000 0;
#X obj 86 691 sel 0 1 2 3 4 5 6 7;
#X msg -6 826 0;
#X msg -5 845 4;
#X msg -5 868 7;
#X msg -48 826 0;
#X msg -47 868 7;
#X msg -47 845 4;
#X msg -46 888 11;
#X msg 35 827 0;
#X msg 36 846 4;
#X msg 36 869 7;
#X obj -144 805 bng 15 250 50 0 empty empty empty 17 7 0 10 #fcfcfc #000000 #000000;
#X obj -230 846 s Voce0;
#X obj -228 867 s Voce1;
#X obj -228 889 s Voce2;
#X obj -230 909 s Voce3;
#X obj -230 951 s Voce4;
#X obj -229 973 s Voce5;
#X obj -230 996 s Voce6;
#X obj -100 805 bng 15 250 50 0 empty empty empty 17 7 0 10 #fcfcfc #000000 #000000;
#X obj -56 805 bng 15 250 50 0 empty empty empty 17 7 0 10 #fcfcfc #000000 #000000;
#X obj -17 807 bng 15 250 50 0 empty empty empty 17 7 0 10 #fcfcfc #000000 #000000;
#X obj 27 807 bng 15 250 50 0 empty empty empty 17 7 0 10 #fcfcfc #000000 #000000;
#X msg 79 827 0;
#X obj 71 807 bng 15 250 50 0 empty empty empty 17 7 0 10 #fcfcfc #000000 #000000;
#X msg 126 829 0;
#X obj 118 809 bng 15 250 50 0 empty empty empty 17 7 0 10 #fcfcfc #000000 #000000;
#X obj 162 809 bng 15 250 50 0 empty empty empty 17 7 0 10 #fcfcfc #000000 #000000;
#X obj -195 552 random 25;
#X obj -243 489 until;
#X msg -246 458 7;
#X obj -244 525 f;
#X obj -203 526 + 1;
#X msg -192 488 0, f 4;
#X obj -206 400 bng 15 250 50 0 empty empty empty 17 7 0 10 #fcfcfc #000000 #000000;
#X obj -244 431 t b b;
#X obj -243 549 t f b;
#X obj -242 606 pack f f;
#X obj -242 629 route 0 1 2 3 4 5 6;
#X obj -199 587 - 12;
#X text -228 399 Rnd;
#X msg 942 480 7;
#X obj -25 368 loadbang;
#X msg -7 401 0;
#X msg -133 956 0;
#X msg -133 975 0;
#X msg -88 955 0;
#X msg -87 975 0;
#X msg -45 974 0;
#X msg -2 972 0;
#X msg 39 973 0;
#X obj 132 107 tgl 15 0 empty t0 empty 17 7 0 10 #fcfcfc #000000 #000000 0 1;
#X obj 132 125 tgl 15 0 empty t1 empty 17 7 0 10 #fcfcfc #000000 #000000 0 1;
#X obj 132 143 tgl 15 0 empty t2 empty 17 7 0 10 #fcfcfc #000000 #000000 0 1;
#X obj 132 161 tgl 15 0 empty t3 empty 17 7 0 10 #fcfcfc #000000 #000000 0 1;
#X obj 132 188 tgl 15 0 empty t4 empty 17 7 0 10 #fcfcfc #000000 #000000 0 1;
#X obj 131 215 tgl 15 0 empty t5 empty 17 7 0 10 #fcfcfc #000000 #000000 0 1;
#X obj 159 608 tgl 15 0 empty t6 empty 17 7 0 10 #fcfcfc #000000 #000000 0 1;
#X obj 928 417 t b b b b;
#X obj 320 588 spigot;
#X obj 362 588 spigot;
#X obj 404 587 spigot;
#X obj 444 588 spigot;
#X obj 487 588 spigot;
#X obj 529 589 spigot;
#X obj 570 589 spigot;
#X msg 324 620 0;
#X msg 363 619 1;
#X msg 401 617 2;
#X msg 489 616 4;
#X msg 444 618 3;
#X msg 531 616 5;
#X msg 576 618 6;
#X obj -361 668 pack 0 0;
#X msg -361 698 \; t\$1 \$2;
#X obj -317 578 t f b;
#X obj -328 635 random 2;
#X msg 353 661 \; accpnsv\$1 const 0;
#X obj 233 1255 stampa;
#X obj 110 1394 outlet bang;
#X obj 30 658 loadbang;
#X msg -31 644 0;
#X msg 109 542 1;
#X msg -4 888 12;
#X msg 37 889 12;
#X msg 80 846 5;
#X msg 80 869 12;
#X msg 82 950 0;
#X msg 83 973 0;
#X msg 81 889 -12;
#X msg 129 952 0;
#X msg 130 975 0;
#X obj 18 706 bng 15 250 50 0 empty empty empty 17 7 0 10 #fcfcfc #000000 #000000;
#X obj -478 778 r seedIniziale;
#X msg -478 833 seed \$1;
#X obj -358 781 r seedIniziale;
#X msg -358 836 seed \$1;
#X obj -478 800 + 431;
#X obj -358 803 + 11;
#X msg 127 848 4;
#X msg 127 871 7;
#X msg 128 891 12;
#X msg 81 927 0;
#X msg -133 930 0;
#X obj -136 -6 inlet;
#X text -146 -31 chrd_type;
#X text -227 -29 go;
#X text 108 1418 go;
#X obj 293 464 t b b b;
#X msg -133 827 1;
#X msg -90 827 1;
#X msg -133 847 3;
#X msg -133 869 5;
#X msg -133 890 8;
#X msg -88 889 7;
#X msg -89 869 5;
#X msg -89 846 3;
#X obj 1152 988 - 1;
#X obj 1152 969 - 1;
#X obj 1152 949 - 1;
#X obj 1152 930 - 1;
#X obj 1153 912 - 1;
#X obj 1153 893 - 1;
#X obj 1153 873 - 1;
#X msg -88 929 0;
#X msg -46 928 0;
#X msg -46 951 0;
#X msg -3 949 0;
#X msg -4 928 0;
#X msg 37 929 0;
#X msg 38 950 0;
#X msg 128 931 0;
#X msg 172 931 0;
#X msg 173 952 0;
#X msg 174 975 0;
#X msg 172 891 0;
#X msg 171 871 0;
#X msg 171 848 0;
#X msg 170 829 0;
#X obj 890 912 t b f f f;
#X obj 901 994 sel 4 5 6;
#X obj 764 1123 *;
#X msg 874 1024 0;
#X msg 884 1034 1;
#X obj 1107 1125 + 60;
#X obj 442 105 i;
#X obj 374 105 i;
#X obj 397 105 - 1;
#X obj 419 105 + 1;
#X obj 465 105 r folder+_\$0;
#X obj 542 104 r folder-_\$0;
#X obj 167 106 bng 16 250 50 0 empty empty + 5 8 0 10 #000000 #7c7c7c #ffffff;
#X obj 149 106 bng 16 250 50 0 empty empty - 5 8 0 10 #000000 #7c7c7c #ffffff;
#X obj 340 105 max 1;
#X obj 300 105 min 60;
#X obj 185 106 nbx 2 16 -1e+37 1e+37 0 0 empty empty empty 0 -9 0 10 #000000 #ffffff #9f9f9f 0 256;
#X obj 665 105 s Voice0;
#X obj 618 105 r Voce0;
#X obj 442 123 i;
#X obj 374 123 i;
#X obj 397 123 - 1;
#X obj 419 123 + 1;
#X obj 465 123 r folder+_\$0;
#X obj 542 122 r folder-_\$0;
#X obj 167 124 bng 16 250 50 0 empty empty + 5 8 0 10 #000000 #7c7c7c #ffffff;
#X obj 149 124 bng 16 250 50 0 empty empty - 5 8 0 10 #000000 #7c7c7c #ffffff;
#X obj 340 123 max 1;
#X obj 300 123 min 60;
#X obj 185 124 nbx 2 16 -1e+37 1e+37 0 0 empty empty empty 0 -9 0 10 #000000 #ffffff #9f9f9f 0 256;
#X obj 442 141 i;
#X obj 374 141 i;
#X obj 397 141 - 1;
#X obj 419 141 + 1;
#X obj 465 141 r folder+_\$0;
#X obj 542 140 r folder-_\$0;
#X obj 167 142 bng 16 250 50 0 empty empty + 5 8 0 10 #000000 #7c7c7c #ffffff;
#X obj 149 142 bng 16 250 50 0 empty empty - 5 8 0 10 #000000 #7c7c7c #ffffff;
#X obj 340 141 max 1;
#X obj 300 141 min 60;
#X obj 185 142 nbx 2 16 -1e+37 1e+37 0 0 empty empty empty 0 -9 0 10 #000000 #ffffff #9f9f9f 0 256;
#X obj 442 159 i;
#X obj 374 159 i;
#X obj 397 159 - 1;
#X obj 419 159 + 1;
#X obj 465 159 r folder+_\$0;
#X obj 542 158 r folder-_\$0;
#X obj 167 160 bng 16 250 50 0 empty empty + 5 8 0 10 #000000 #7c7c7c #ffffff;
#X obj 149 160 bng 16 250 50 0 empty empty - 5 8 0 10 #000000 #7c7c7c #ffffff;
#X obj 340 159 max 1;
#X obj 300 159 min 60;
#X obj 185 160 nbx 2 16 -1e+37 1e+37 0 0 empty empty empty 0 -9 0 10 #000000 #ffffff #9f9f9f 0 256;
#X obj 442 186 i;
#X obj 374 186 i;
#X obj 397 186 - 1;
#X obj 419 186 + 1;
#X obj 465 186 r folder+_\$0;
#X obj 542 185 r folder-_\$0;
#X obj 167 188 bng 16 250 50 0 empty empty + 5 8 0 10 #000000 #7c7c7c #ffffff;
#X obj 149 187 bng 16 250 50 0 empty empty - 5 8 0 10 #000000 #7c7c7c #ffffff;
#X obj 340 186 max 1;
#X obj 300 186 min 60;
#X obj 185 187 nbx 2 16 -1e+37 1e+37 0 0 empty empty empty 0 -9 0 10 #000000 #ffffff #9f9f9f 0 256;
#X obj 442 213 i;
#X obj 374 213 i;
#X obj 397 213 - 1;
#X obj 419 213 + 1;
#X obj 465 213 r folder+_\$0;
#X obj 542 212 r folder-_\$0;
#X obj 167 214 bng 16 250 50 0 empty empty + 5 8 0 10 #000000 #7c7c7c #ffffff;
#X obj 149 214 bng 16 250 50 0 empty empty - 5 8 0 10 #000000 #7c7c7c #ffffff;
#X obj 340 213 max 1;
#X obj 300 213 min 60;
#X obj 185 214 nbx 2 16 -1e+37 1e+37 0 0 empty empty empty 0 -9 0 10 #000000 #ffffff #9f9f9f 0 256;
#X obj 618 123 r Voce1;
#X obj 665 123 s Voice1;
#X obj 665 141 s Voice2;
#X obj 665 159 s Voice3;
#X obj 618 159 r Voce3;
#X obj 618 141 r Voce2;
#X obj 630 246 r Voce4;
#X obj 665 186 s Voice4;
#X obj 665 213 s Voice5;
#X obj 633 267 r Voce5;
#X msg 234 1214 symbol Voices;
#X msg 234 1235 symbol accpnsv;
#X obj 232 1192 t b b;
#X obj 193 1153 t b b;
#X obj 725 104 s on0_voce;
#X obj 723 122 s on1_voce;
#X obj 724 139 s on2_voce;
#X obj 723 157 s on3_voce;
#X obj 727 188 s on4_voce;
#X obj 724 215 s on5_voce;
#X obj 795 214 r preset_on5_voce;
#X obj 796 160 r preset_on3_voce;
#X obj 796 141 r preset_on2_voce;
#X obj 798 122 r preset_on1_voce;
#X obj 798 102 r preset_on0_voce;
#X obj 404 364 s go_voci_\$0;
#X obj 405 322 bang;
#X obj 405 344 delay 10;
#X obj -143 71 r go_voci_\$0;
#X obj 436 1393 outlet;
#X obj 431 1343 r chord_name_\$0;
#X obj 487 863 sel 0 1 2 3 4 5 6 7 8 9;
#X obj 395 993 s chord_name_\$0;
#X msg 482 904 triad;
#X msg 501 934 caioo;
#X msg 526 959 noneas;
#X obj 327 1389 outlet;
#X obj 313 1316 r chord_sel_\$0;
#X obj 402 828 r chord_sel_\$0;
#X obj 255 -10 inlet;
#X obj 316 -9 inlet;
#X obj 844 1391 outlet;
#X obj 825 1342 r drone_n_\$0;
#X obj 677 326 s drone_n_\$0;
#X obj 185 -11 inlet;
#X text 316 -27 droneval;
#X text 177 -29 drone-;
#X text 253 -28 drone+;
#X obj 546 1318 r Voice0;
#X obj 616 1316 r Voice1;
#X obj 685 1320 r Voice2;
#X obj 756 1318 r Voice3;
#X obj 558 1389 outlet;
#X obj 613 1390 outlet;
#X obj 681 1391 outlet;
#X obj 753 1387 outlet;
#X obj 97 658 r chord_sel_\$0;
#X obj 48 255 s chord_sel_\$0;
#X obj 934 1390 outlet;
#X obj 388 -9 inlet;
#X text 388 -27 droneon;
#X obj 352 34 == 0;
#X obj 915 1310 r drone_on_out_\$0;
#X obj 170 375 == 0;
#X obj 177 418 s drone_on_out_\$0;
#X obj 171 311 loadbang;
#X msg 171 334 1;
#X obj 197 1126 delay 100;
#X connect 0 0 6 0;
#X connect 1 0 2 1;
#X connect 1 0 3 0;
#X connect 2 0 18 0;
#X connect 3 0 38 0;
#X connect 3 0 39 0;
#X connect 3 0 40 0;
#X connect 3 0 41 0;
#X connect 3 0 42 0;
#X connect 3 0 43 0;
#X connect 3 0 44 0;
#X connect 5 0 45 0;
#X connect 6 0 7 0;
#X connect 6 0 12 0;
#X connect 7 0 6 1;
#X connect 8 0 6 1;
#X connect 9 0 46 1;
#X connect 10 0 11 0;
#X connect 10 1 189 0;
#X connect 11 0 4 0;
#X connect 12 0 46 0;
#X connect 12 1 4 1;
#X connect 13 0 4 0;
#X connect 14 0 15 0;
#X connect 15 0 16 0;
#X connect 15 0 187 0;
#X connect 16 0 15 1;
#X connect 17 0 15 1;
#X connect 18 0 0 0;
#X connect 18 1 9 0;
#X connect 18 1 8 0;
#X connect 19 0 20 0;
#X connect 19 1 21 0;
#X connect 19 2 22 0;
#X connect 19 3 23 0;
#X connect 19 4 24 0;
#X connect 19 5 25 0;
#X connect 19 6 26 0;
#X connect 20 0 13 1;
#X connect 21 0 13 1;
#X connect 22 0 13 1;
#X connect 23 0 13 1;
#X connect 24 0 192 0;
#X connect 25 0 192 0;
#X connect 26 0 192 0;
#X connect 28 0 156 0;
#X connect 29 0 171 0;
#X connect 30 0 170 0;
#X connect 31 0 169 0;
#X connect 32 0 168 0;
#X connect 33 0 167 0;
#X connect 34 0 166 0;
#X connect 35 0 165 0;
#X connect 36 0 28 0;
#X connect 37 0 1 0;
#X connect 45 0 4 2;
#X connect 46 0 10 0;
#X connect 47 0 318 0;
#X connect 48 0 59 0;
#X connect 48 1 72 0;
#X connect 48 2 67 0;
#X connect 48 3 68 0;
#X connect 48 4 69 0;
#X connect 48 5 70 0;
#X connect 48 6 74 0;
#X connect 48 7 75 0;
#X connect 49 0 60 0;
#X connect 50 0 61 0;
#X connect 51 0 62 0;
#X connect 52 0 60 0;
#X connect 53 0 62 0;
#X connect 54 0 61 0;
#X connect 55 0 63 0;
#X connect 56 0 60 0;
#X connect 57 0 61 0;
#X connect 58 0 62 0;
#X connect 59 0 161 0;
#X connect 59 0 92 0;
#X connect 59 0 93 0;
#X connect 59 0 140 0;
#X connect 59 0 160 0;
#X connect 59 0 159 0;
#X connect 59 0 157 0;
#X connect 59 0 151 0;
#X connect 67 0 163 0;
#X connect 67 0 94 0;
#X connect 67 0 95 0;
#X connect 67 0 140 0;
#X connect 67 0 162 0;
#X connect 67 0 158 0;
#X connect 67 0 172 0;
#X connect 67 0 164 0;
#X connect 68 0 52 0;
#X connect 68 0 54 0;
#X connect 68 0 53 0;
#X connect 68 0 55 0;
#X connect 68 0 96 0;
#X connect 68 0 140 0;
#X connect 68 0 174 0;
#X connect 68 0 173 0;
#X connect 69 0 49 0;
#X connect 69 0 50 0;
#X connect 69 0 51 0;
#X connect 69 0 131 0;
#X connect 69 0 97 0;
#X connect 69 0 140 0;
#X connect 69 0 176 0;
#X connect 69 0 175 0;
#X connect 70 0 56 0;
#X connect 70 0 57 0;
#X connect 70 0 58 0;
#X connect 70 0 132 0;
#X connect 70 0 98 0;
#X connect 70 0 140 0;
#X connect 70 0 178 0;
#X connect 70 0 177 0;
#X connect 71 0 60 0;
#X connect 72 0 71 0;
#X connect 72 0 133 0;
#X connect 72 0 134 0;
#X connect 72 0 137 0;
#X connect 72 0 150 0;
#X connect 72 0 135 0;
#X connect 72 0 136 0;
#X connect 72 0 140 0;
#X connect 73 0 60 0;
#X connect 74 0 73 0;
#X connect 74 0 147 0;
#X connect 74 0 148 0;
#X connect 74 0 149 0;
#X connect 74 0 138 0;
#X connect 74 0 139 0;
#X connect 74 0 140 0;
#X connect 74 0 179 0;
#X connect 75 0 186 0;
#X connect 75 0 185 0;
#X connect 75 0 184 0;
#X connect 75 0 183 0;
#X connect 75 0 140 0;
#X connect 75 0 182 0;
#X connect 75 0 181 0;
#X connect 75 0 180 0;
#X connect 76 0 87 0;
#X connect 77 0 79 0;
#X connect 78 0 77 0;
#X connect 79 0 80 0;
#X connect 79 0 84 0;
#X connect 80 0 79 1;
#X connect 81 0 79 1;
#X connect 82 0 83 0;
#X connect 83 0 78 0;
#X connect 83 1 81 0;
#X connect 84 0 85 0;
#X connect 84 0 123 0;
#X connect 84 1 76 0;
#X connect 85 0 86 0;
#X connect 86 0 60 0;
#X connect 86 1 61 0;
#X connect 86 2 62 0;
#X connect 86 3 63 0;
#X connect 86 4 64 0;
#X connect 86 5 65 0;
#X connect 86 6 66 0;
#X connect 87 0 85 1;
#X connect 89 0 14 0;
#X connect 90 0 91 0;
#X connect 91 0 47 0;
#X connect 92 0 65 0;
#X connect 93 0 66 0;
#X connect 94 0 65 0;
#X connect 95 0 66 0;
#X connect 96 0 66 0;
#X connect 97 0 66 0;
#X connect 98 0 66 0;
#X connect 99 0 107 1;
#X connect 99 0 275 0;
#X connect 99 0 287 0;
#X connect 100 0 108 1;
#X connect 100 0 276 0;
#X connect 100 0 287 0;
#X connect 101 0 109 1;
#X connect 101 0 277 0;
#X connect 101 0 287 0;
#X connect 102 0 110 1;
#X connect 102 0 278 0;
#X connect 102 0 287 0;
#X connect 103 0 111 1;
#X connect 103 0 287 0;
#X connect 103 0 324 0;
#X connect 103 0 279 0;
#X connect 104 0 112 1;
#X connect 104 0 287 0;
#X connect 105 0 113 1;
#X connect 106 0 107 0;
#X connect 106 0 108 0;
#X connect 106 0 109 0;
#X connect 106 0 110 0;
#X connect 106 0 111 0;
#X connect 106 0 112 0;
#X connect 106 0 113 0;
#X connect 106 1 89 0;
#X connect 106 2 17 0;
#X connect 106 3 37 0;
#X connect 107 0 114 0;
#X connect 108 0 115 0;
#X connect 109 0 116 0;
#X connect 110 0 118 0;
#X connect 111 0 117 0;
#X connect 112 0 119 0;
#X connect 113 0 120 0;
#X connect 114 0 125 0;
#X connect 115 0 125 0;
#X connect 116 0 125 0;
#X connect 117 0 125 0;
#X connect 118 0 125 0;
#X connect 119 0 125 0;
#X connect 120 0 125 0;
#X connect 121 0 122 0;
#X connect 123 0 121 0;
#X connect 123 1 124 0;
#X connect 124 0 121 1;
#X connect 128 0 140 0;
#X connect 129 0 99 0;
#X connect 129 0 100 0;
#X connect 129 0 101 0;
#X connect 129 0 102 0;
#X connect 130 0 105 0;
#X connect 131 0 63 0;
#X connect 132 0 63 0;
#X connect 133 0 61 0;
#X connect 134 0 62 0;
#X connect 135 0 65 0;
#X connect 136 0 66 0;
#X connect 137 0 63 0;
#X connect 138 0 65 0;
#X connect 139 0 66 0;
#X connect 140 0 129 0;
#X connect 140 0 130 0;
#X connect 141 0 145 0;
#X connect 142 0 124 0;
#X connect 143 0 146 0;
#X connect 144 0 76 0;
#X connect 145 0 142 0;
#X connect 146 0 144 0;
#X connect 147 0 61 0;
#X connect 148 0 62 0;
#X connect 149 0 63 0;
#X connect 150 0 64 0;
#X connect 151 0 64 0;
#X connect 152 0 47 0;
#X connect 156 1 328 0;
#X connect 156 2 106 0;
#X connect 157 0 60 0;
#X connect 158 0 60 0;
#X connect 159 0 61 0;
#X connect 160 0 62 0;
#X connect 161 0 63 0;
#X connect 162 0 63 0;
#X connect 163 0 62 0;
#X connect 164 0 61 0;
#X connect 165 0 26 1;
#X connect 166 0 25 1;
#X connect 167 0 24 1;
#X connect 168 0 23 1;
#X connect 169 0 22 1;
#X connect 170 0 21 1;
#X connect 171 0 20 1;
#X connect 172 0 64 0;
#X connect 173 0 64 0;
#X connect 174 0 65 0;
#X connect 175 0 65 0;
#X connect 176 0 64 0;
#X connect 177 0 64 0;
#X connect 178 0 65 0;
#X connect 179 0 64 0;
#X connect 180 0 64 0;
#X connect 181 0 65 0;
#X connect 182 0 66 0;
#X connect 183 0 63 0;
#X connect 184 0 62 0;
#X connect 185 0 61 0;
#X connect 186 0 60 0;
#X connect 187 0 2 0;
#X connect 187 1 19 0;
#X connect 187 2 5 0;
#X connect 187 3 188 0;
#X connect 188 0 190 0;
#X connect 188 1 190 0;
#X connect 188 2 190 0;
#X connect 188 3 191 0;
#X connect 189 0 13 0;
#X connect 190 0 189 1;
#X connect 191 0 189 1;
#X connect 192 0 13 1;
#X connect 193 0 196 0;
#X connect 194 0 195 0;
#X connect 195 0 201 0;
#X connect 196 0 202 0;
#X connect 197 0 193 0;
#X connect 198 0 194 0;
#X connect 199 0 193 0;
#X connect 200 0 194 0;
#X connect 201 0 203 0;
#X connect 202 0 203 0;
#X connect 203 0 194 1;
#X connect 203 0 193 1;
#X connect 203 0 204 0;
#X connect 203 0 287 0;
#X connect 205 0 203 0;
#X connect 206 0 209 0;
#X connect 207 0 208 0;
#X connect 208 0 214 0;
#X connect 209 0 215 0;
#X connect 210 0 206 0;
#X connect 211 0 207 0;
#X connect 212 0 206 0;
#X connect 213 0 207 0;
#X connect 214 0 216 0;
#X connect 215 0 216 0;
#X connect 216 0 207 1;
#X connect 216 0 206 1;
#X connect 216 0 262 0;
#X connect 216 0 287 0;
#X connect 217 0 220 0;
#X connect 218 0 219 0;
#X connect 219 0 225 0;
#X connect 220 0 226 0;
#X connect 221 0 217 0;
#X connect 222 0 218 0;
#X connect 223 0 217 0;
#X connect 224 0 218 0;
#X connect 225 0 227 0;
#X connect 226 0 227 0;
#X connect 227 0 218 1;
#X connect 227 0 217 1;
#X connect 227 0 263 0;
#X connect 227 0 287 0;
#X connect 228 0 231 0;
#X connect 229 0 230 0;
#X connect 230 0 236 0;
#X connect 231 0 237 0;
#X connect 232 0 228 0;
#X connect 233 0 229 0;
#X connect 234 0 228 0;
#X connect 235 0 229 0;
#X connect 236 0 238 0;
#X connect 237 0 238 0;
#X connect 238 0 229 1;
#X connect 238 0 228 1;
#X connect 238 0 264 0;
#X connect 238 0 287 0;
#X connect 239 0 242 0;
#X connect 240 0 241 0;
#X connect 241 0 247 0;
#X connect 242 0 248 0;
#X connect 243 0 239 0;
#X connect 244 0 240 0;
#X connect 245 0 239 0;
#X connect 246 0 240 0;
#X connect 247 0 249 0;
#X connect 248 0 249 0;
#X connect 249 0 240 1;
#X connect 249 0 239 1;
#X connect 249 0 268 0;
#X connect 249 0 287 0;
#X connect 249 0 304 0;
#X connect 250 0 253 0;
#X connect 251 0 252 0;
#X connect 252 0 258 0;
#X connect 253 0 259 0;
#X connect 254 0 250 0;
#X connect 255 0 251 0;
#X connect 256 0 250 0;
#X connect 257 0 251 0;
#X connect 258 0 260 0;
#X connect 259 0 260 0;
#X connect 260 0 251 1;
#X connect 260 0 250 1;
#X connect 260 0 269 0;
#X connect 260 0 287 0;
#X connect 261 0 216 0;
#X connect 265 0 238 0;
#X connect 266 0 227 0;
#X connect 271 0 126 1;
#X connect 272 0 126 0;
#X connect 273 0 272 0;
#X connect 273 1 271 0;
#X connect 274 0 127 0;
#X connect 282 0 102 0;
#X connect 283 0 101 0;
#X connect 284 0 100 0;
#X connect 285 0 99 0;
#X connect 287 0 288 0;
#X connect 288 0 286 0;
#X connect 289 0 28 0;
#X connect 291 0 290 0;
#X connect 292 0 294 0;
#X connect 292 1 295 0;
#X connect 292 2 296 0;
#X connect 292 3 296 0;
#X connect 292 4 296 0;
#X connect 292 5 296 0;
#X connect 294 0 293 0;
#X connect 295 0 293 0;
#X connect 296 0 293 0;
#X connect 298 0 297 0;
#X connect 299 0 292 0;
#X connect 300 0 245 0;
#X connect 301 0 249 0;
#X connect 303 0 302 0;
#X connect 305 0 246 0;
#X connect 309 0 313 0;
#X connect 310 0 314 0;
#X connect 311 0 315 0;
#X connect 312 0 316 0;
#X connect 317 0 48 0;
#X connect 320 0 322 0;
#X connect 322 0 103 0;
#X connect 323 0 319 0;
#X connect 324 0 325 0;
#X connect 326 0 327 0;
#X connect 327 0 104 0;
#X connect 328 0 274 0;
#X coords 0 -1 1 1 120 135 2 100 100;
