#N canvas -8 -8 1366 725 12;
#X obj 642 478 delread4~ chorus_\$0;
#X obj 644 200 delwrite~ chorus_\$0 10;
#X obj 10 27 inlet~;
#X obj 470 675 outlet~;
#X text 307 133 0-1;
#X obj 644 276 osc~;
#X text 698 308 normalizing function between 0 and 1;
#X text 693 502 wave in chorus has -1 phase direction;
#X obj 100 26 inlet~;
#X obj 186 27 inlet~;
#X obj 269 24 inlet~;
#X obj 391 23 inlet~;
#X text 104 117 speed~;
#X text 173 117 depth~;
#X text 306 117 dry/wet~;
#X obj 642 419 *~;
#X obj 641 452 +~;
#X obj 390 49 clip~ 0 1;
#X obj 99 73 s~ speed_\$0;
#X obj 645 250 r~ speed_\$0;
#X obj 703 401 r~ depth_\$0;
#X obj 185 73 s~ depth_\$0;
#X obj 390 73 s~ dry_wet_\$0;
#X obj 10 51 s~ input_\$0;
#X obj 643 176 r~ input_\$0;
#X obj 643 299 +~ 1;
#X obj 643 323 *~ 0.5;
#X obj 642 502 *~ -1;
#X obj 185 51 clip~ 0 8;
#X text 174 133 0-8;
#X obj 100 51 clip~ 0 8;
#X text 106 133 0-8;
#X text 242 133 0-8;
#X obj 269 48 clip~ 0 8;
#X text 231 115 shift_ms~;
#X obj 270 73 s~ shift_ms_\$0;
#X obj 704 433 r~ shift_ms_\$0;
#X connect 0 0 27 0;
#X connect 2 0 23 0;
#X connect 5 0 25 0;
#X connect 8 0 30 0;
#X connect 9 0 28 0;
#X connect 10 0 33 0;
#X connect 11 0 17 0;
#X connect 15 0 16 0;
#X connect 16 0 0 0;
#X connect 17 0 22 0;
#X connect 19 0 5 0;
#X connect 20 0 15 1;
#X connect 24 0 1 0;
#X connect 25 0 26 0;
#X connect 26 0 15 0;
#X connect 27 0 3 0;
#X connect 28 0 21 0;
#X connect 30 0 18 0;
#X connect 33 0 35 0;
#X connect 36 0 16 1;
#X coords 0 -1 1 1 271 56 1 100 100;
