#N canvas -8 -8 1366 725 12;
#X obj 384 506 delwrite~ delay_\$0 10000;
#X obj 50 16 inlet~;
#X obj 430 667 outlet~;
#X text 226 142 0.01-16;
#X obj 265 14 inlet~;
#X obj 266 45 clip~ 0.01 16;
#X obj 266 76 s~ delay_step_\$0;
#X obj 955 40 r~ delay_step_\$0;
#N canvas -8 -8 1366 725 dry_wet_mixer~ 0;
#X obj 472 579 +~, f 25;
#X obj 645 501 *~;
#X obj 471 508 *~;
#X obj 489 436 r~ dry_wet_\$0;
#X obj 663 474 r~ dry_wet_\$0;
#X obj 471 385 inlet~;
#X obj 645 397 inlet~;
#X obj 472 603 outlet~;
#X obj 489 459 -~ 1;
#X obj 489 483 abs~;
#X connect 0 0 7 0;
#X connect 1 0 0 1;
#X connect 2 0 0 0;
#X connect 3 0 8 0;
#X connect 4 0 1 1;
#X connect 5 0 2 0;
#X connect 6 0 1 0;
#X connect 8 0 9 0;
#X connect 9 0 2 1;
#X restore 430 616 pd dry_wet_mixer~;
#X f 25;
#X obj 430 640 clip~ -1 1;
#X obj 955 123 *~;
#X obj 973 100 r~ ms_in_step_\$0;
#X obj 442 21 inlet~;
#X obj 442 76 s~ ms_in_step_\$0;
#X text 345 125 ms_in_step~;
#X obj 664 280 delread4~ delay_\$0 500;
#X obj 663 306 *~;
#X obj 186 -1 inlet;
#X obj 187 79 s on_\$0;
#X obj 272 340 r on_\$0;
#X obj 253 479 *~;
#X obj 272 365 - 1;
#X obj 272 389 abs;
#X obj 681 177 r on_\$0;
#X obj 681 201 sig~;
#X obj 681 225 abs~;
#X obj 681 249 lop~ 5;
#X obj 570 336 r on_\$0;
#X obj 518 404 *~;
#X obj 570 361 sig~;
#X obj 272 411 sig~ 0;
#X text 129 125 on/off~;
#X obj 737 608 s~ dry_wet_\$0;
#X obj 736 532 r on_\$0;
#X obj 736 557 sig~;
#X obj 736 581 lop~ 2;
#X obj 51 78 s~ audio_input_\$0~;
#X obj 254 258 r~ audio_input_\$0~;
#X text 97 402 disable input writing;
#X text 97 420 after fx on;
#X text 357 142 0-1000;
#X obj 442 45 clip~ 0 1000;
#X text 143 142 0 \, 1;
#X obj 186 23 clip 0 1;
#X obj 186 47 int;
#X obj 1070 141 s~ delay_time_ms_\$0~;
#X obj 665 139 r~ delay_time_ms_\$0~;
#X text 353 338 enable writing to delay line;
#X text 399 359 for endless loop;
#X text 404 380 after fx on;
#X text 806 564 switch to loop line after fx on;
#X text 205 125 step_num_to_loop~;
#X obj 272 435 lop~ 3;
#X obj 570 385 lop~ 3;
#X obj 474 187 loadbang;
#X msg 474 211 0;
#X connect 1 0 36 0;
#X connect 4 0 5 0;
#X connect 5 0 6 0;
#X connect 7 0 10 0;
#X connect 8 0 9 0;
#X connect 9 0 2 0;
#X connect 10 0 45 0;
#X connect 11 0 10 1;
#X connect 12 0 41 0;
#X connect 15 0 16 0;
#X connect 16 0 28 0;
#X connect 16 0 8 1;
#X connect 17 0 43 0;
#X connect 19 0 21 0;
#X connect 20 0 0 0;
#X connect 21 0 22 0;
#X connect 22 0 30 0;
#X connect 23 0 24 0;
#X connect 24 0 25 0;
#X connect 25 0 26 0;
#X connect 26 0 16 1;
#X connect 27 0 29 0;
#X connect 28 0 0 0;
#X connect 29 0 53 0;
#X connect 30 0 52 0;
#X connect 33 0 34 0;
#X connect 34 0 35 0;
#X connect 35 0 32 0;
#X connect 37 0 20 0;
#X connect 37 0 8 0;
#X connect 41 0 13 0;
#X connect 43 0 44 0;
#X connect 44 0 18 0;
#X connect 46 0 15 0;
#X connect 52 0 20 1;
#X connect 53 0 28 1;
#X connect 54 0 55 0;
#X connect 55 0 44 0;
#X coords 0 -1 1 1 337 66 1 100 100;
