#N canvas 52 20 1854 977 10;
#X obj 101 695 line~;
#X obj 104 670 pack 0 50;
#N canvas 0 22 1534 977 sinewave 0;
#X obj 231 28 r \$0-basic-lfo-sync!;
#X obj 209 58 inlet~;
#X obj 209 136 osc~;
#X obj 450 235 switch~;
#X obj 450 158 sel 0;
#X obj 450 180 del 100;
#X msg 450 202 0;
#X obj 440 6 r \$0-basic-lfo-sine-on/off;
#X obj 206 182 *~ 0.5;
#X obj 208 207 +~ 0.5;
#X obj 205 240 outlet~ UNI;
#X obj 238 108 f;
#X obj 354 102 bng 18 250 50 0 empty empty empty 0 -9 0 10 #fcfcfc #000000 #000000;
#X obj 344 142 del 100;
#X connect 0 0 11 0;
#X connect 1 0 2 0;
#X connect 2 0 8 0;
#X connect 4 0 5 0;
#X connect 4 1 3 0;
#X connect 4 1 12 0;
#X connect 5 0 6 0;
#X connect 6 0 3 0;
#X connect 7 0 4 0;
#X connect 8 0 9 0;
#X connect 9 0 10 0;
#X connect 11 0 2 1;
#X connect 12 0 13 0;
#X connect 13 0 11 0;
#X restore 101 751 pd sinewave;
#N canvas 202 115 1534 805 triangle 0;
#X obj 425 80 r \$0-basic-lfo-sync!;
#X obj 340 53 inlet~;
#X obj 466 288 switch~;
#X obj 340 125 phasor~;
#X obj 340 213 min~;
#X obj 361 167 *~ -1;
#X obj 361 189 +~ 1;
#X obj 466 178 sel 0;
#X obj 466 200 del 100;
#X msg 466 222 0;
#X obj 388 52 r \$0-basic-lfo-triangle-on/off;
#X obj 341 342 *~ 2;
#X obj 341 471 outlet~ UNI;
#X obj 490 149 del 10;
#X obj 419 132 f;
#X connect 0 0 14 0;
#X connect 1 0 3 0;
#X connect 3 0 4 0;
#X connect 3 0 5 0;
#X connect 4 0 11 0;
#X connect 5 0 6 0;
#X connect 6 0 4 1;
#X connect 7 0 8 0;
#X connect 7 1 2 0;
#X connect 7 1 13 0;
#X connect 8 0 9 0;
#X connect 9 0 2 0;
#X connect 10 0 7 0;
#X connect 11 0 12 0;
#X connect 13 0 14 0;
#X connect 14 0 3 1;
#X restore 187 749 pd triangle;
#N canvas 0 22 652 481 saw 0;
#X obj 404 116 r \$0-basic-lfo-sync!;
#X obj 365 68 inlet~;
#X obj 413 350 switch~;
#X obj 311 230 phasor~;
#X obj 413 177 sel 0;
#X obj 413 199 del 100;
#X msg 413 221 0;
#X obj 413 67 r \$0-basic-lfo-saw-on/off;
#X obj 369 407 outlet~ UNI;
#X obj 362 178 f;
#X obj 464 246 bng 18 250 50 0 empty empty empty 0 -9 0 10 #fcfcfc #000000 #000000;
#X obj 464 269 del 10;
#X connect 0 0 9 0;
#X connect 1 0 3 0;
#X connect 3 0 8 0;
#X connect 4 0 5 0;
#X connect 4 1 2 0;
#X connect 4 1 10 0;
#X connect 5 0 6 0;
#X connect 6 0 2 0;
#X connect 7 0 4 0;
#X connect 9 0 3 1;
#X connect 10 0 11 0;
#X connect 11 0 9 0;
#X restore 277 747 pd saw;
#X obj 89 367 r \$0-basic-lfo-freq-s;
#X obj 828 587 r \$0-basic-lfo-depth-s;
#X obj 829 721 pack 0 50;
#X obj 829 757 line~;
#X obj 102 133 hradio 10 1 1 7 \$0-basic-lfo-wform-s \$0-basic-lfo-wform-r empty 65 7 0 10 #fcfcfc #000000 #000000 0;
#X obj 176 136 cnv 5 5 5 empty \$0-lfo-waveform-gui-r SIN 0 0 0 10 #fcfcfc #404040 0;
#N canvas 66 32 1132 690 choose-wform 0;
#X obj 688 575 makefilename %s;
#X msg 688 599 label \$1;
#X msg 119 1162 symbol SAW;
#X obj -18 -175 r \$0-basic-lfo-wform-s;
#X obj 688 622 s \$0-lfo-waveform-gui-r;
#X obj 199 -52 t b b;
#X obj 179 205 s \$0-basic-lfo-sine-on/off;
#X obj 206 180 s \$0-basic-lfo-triangle-on/off;
#X obj 233 154 s \$0-basic-lfo-saw-on/off;
#X obj 252 132 s \$0-basic-lfo-invsaw-on/off;
#X obj 329 60 s \$0-basic-lfo-samphold-on/off;
#X obj -142 -159 loadbang;
#X msg -142 -136 0;
#X obj 199 -7 unpack f f f f f f f;
#X obj 303 80 s \$0-basic-lfo-pulse-on/off;
#X obj 283 104 s \$0-basic-lfo-square-on/off;
#X obj 175 234 t b b;
#X obj 155 491 s \$0-basic-lfo-sine-on/off;
#X obj 182 466 s \$0-basic-lfo-triangle-on/off;
#X obj 209 440 s \$0-basic-lfo-saw-on/off;
#X obj 228 418 s \$0-basic-lfo-invsaw-on/off;
#X obj 305 346 s \$0-basic-lfo-samphold-on/off;
#X obj 175 279 unpack f f f f f f f;
#X obj 279 366 s \$0-basic-lfo-pulse-on/off;
#X obj 259 390 s \$0-basic-lfo-square-on/off;
#X obj 158 531 t b b;
#X obj 138 788 s \$0-basic-lfo-sine-on/off;
#X obj 165 763 s \$0-basic-lfo-triangle-on/off;
#X obj 192 737 s \$0-basic-lfo-saw-on/off;
#X obj 211 715 s \$0-basic-lfo-invsaw-on/off;
#X obj 288 643 s \$0-basic-lfo-samphold-on/off;
#X obj 158 576 unpack f f f f f f f;
#X obj 262 663 s \$0-basic-lfo-pulse-on/off;
#X obj 242 687 s \$0-basic-lfo-square-on/off;
#X obj 137 861 t b b;
#X obj 117 1118 s \$0-basic-lfo-sine-on/off;
#X obj 144 1093 s \$0-basic-lfo-triangle-on/off;
#X obj 171 1067 s \$0-basic-lfo-saw-on/off;
#X obj 190 1045 s \$0-basic-lfo-invsaw-on/off;
#X obj 267 973 s \$0-basic-lfo-samphold-on/off;
#X obj 137 906 unpack f f f f f f f;
#X obj 241 993 s \$0-basic-lfo-pulse-on/off;
#X obj 221 1017 s \$0-basic-lfo-square-on/off;
#X obj 78 1162 t b b;
#X obj 58 1419 s \$0-basic-lfo-sine-on/off;
#X obj 85 1394 s \$0-basic-lfo-triangle-on/off;
#X obj 112 1368 s \$0-basic-lfo-saw-on/off;
#X obj 131 1346 s \$0-basic-lfo-invsaw-on/off;
#X obj 208 1274 s \$0-basic-lfo-samphold-on/off;
#X obj 78 1207 unpack f f f f f f f;
#X obj 182 1294 s \$0-basic-lfo-pulse-on/off;
#X obj 162 1318 s \$0-basic-lfo-square-on/off;
#X obj 12 1453 t b b;
#X obj -8 1710 s \$0-basic-lfo-sine-on/off;
#X obj 19 1685 s \$0-basic-lfo-triangle-on/off;
#X obj 46 1659 s \$0-basic-lfo-saw-on/off;
#X obj 65 1637 s \$0-basic-lfo-invsaw-on/off;
#X obj 142 1565 s \$0-basic-lfo-samphold-on/off;
#X obj 12 1498 unpack f f f f f f f;
#X obj 116 1585 s \$0-basic-lfo-pulse-on/off;
#X obj 96 1609 s \$0-basic-lfo-square-on/off;
#X obj -75 1750 t b b;
#X obj -95 2007 s \$0-basic-lfo-sine-on/off;
#X obj -68 1982 s \$0-basic-lfo-triangle-on/off;
#X obj -41 1956 s \$0-basic-lfo-saw-on/off;
#X obj -22 1934 s \$0-basic-lfo-invsaw-on/off;
#X obj 55 1862 s \$0-basic-lfo-samphold-on/off;
#X obj -75 1795 unpack f f f f f f f;
#X obj 29 1882 s \$0-basic-lfo-pulse-on/off;
#X obj 9 1906 s \$0-basic-lfo-square-on/off;
#X msg 201 -29 0 0 0 0 0 0 1;
#X msg 177 257 0 0 0 0 0 1 0;
#X msg 160 554 0 0 0 0 1 0 0;
#X msg 139 884 0 0 0 1 0 0 0;
#X msg 80 1185 0 0 1 0 0 0 0;
#X msg 13 1476 0 1 0 0 0 0 0;
#X msg -73 1773 1 0 0 0 0 0 0;
#X obj -44 -140 sel 0 1 2 3 4 5 6;
#X msg 245 -54 symbol S_H;
#X msg 221 234 symbol PLS;
#X msg 198 532 symbol SQR;
#X msg 180 862 symbol WAS;
#X msg 51 1454 symbol TRI;
#X msg -33 1749 symbol SIN;
#X connect 0 0 1 0;
#X connect 1 0 4 0;
#X connect 2 0 0 0;
#X connect 3 0 77 0;
#X connect 5 0 70 0;
#X connect 5 1 78 0;
#X connect 11 0 12 0;
#X connect 12 0 77 0;
#X connect 13 0 6 0;
#X connect 13 1 7 0;
#X connect 13 2 8 0;
#X connect 13 3 9 0;
#X connect 13 4 15 0;
#X connect 13 5 14 0;
#X connect 13 6 10 0;
#X connect 16 0 71 0;
#X connect 16 1 79 0;
#X connect 22 0 17 0;
#X connect 22 1 18 0;
#X connect 22 2 19 0;
#X connect 22 3 20 0;
#X connect 22 4 24 0;
#X connect 22 5 23 0;
#X connect 22 6 21 0;
#X connect 25 0 72 0;
#X connect 25 1 80 0;
#X connect 31 0 26 0;
#X connect 31 1 27 0;
#X connect 31 2 28 0;
#X connect 31 3 29 0;
#X connect 31 4 33 0;
#X connect 31 5 32 0;
#X connect 31 6 30 0;
#X connect 34 0 73 0;
#X connect 34 1 81 0;
#X connect 40 0 35 0;
#X connect 40 1 36 0;
#X connect 40 2 37 0;
#X connect 40 3 38 0;
#X connect 40 4 42 0;
#X connect 40 5 41 0;
#X connect 40 6 39 0;
#X connect 43 0 74 0;
#X connect 43 1 2 0;
#X connect 49 0 44 0;
#X connect 49 1 45 0;
#X connect 49 2 46 0;
#X connect 49 3 47 0;
#X connect 49 4 51 0;
#X connect 49 5 50 0;
#X connect 49 6 48 0;
#X connect 52 0 75 0;
#X connect 52 1 82 0;
#X connect 58 0 53 0;
#X connect 58 1 54 0;
#X connect 58 2 55 0;
#X connect 58 3 56 0;
#X connect 58 4 60 0;
#X connect 58 5 59 0;
#X connect 58 6 57 0;
#X connect 61 0 76 0;
#X connect 61 1 83 0;
#X connect 67 0 62 0;
#X connect 67 1 63 0;
#X connect 67 2 64 0;
#X connect 67 3 65 0;
#X connect 67 4 69 0;
#X connect 67 5 68 0;
#X connect 67 6 66 0;
#X connect 70 0 13 0;
#X connect 71 0 22 0;
#X connect 72 0 31 0;
#X connect 73 0 40 0;
#X connect 74 0 49 0;
#X connect 75 0 58 0;
#X connect 76 0 67 0;
#X connect 77 0 61 0;
#X connect 77 1 52 0;
#X connect 77 2 43 0;
#X connect 77 3 34 0;
#X connect 77 4 25 0;
#X connect 77 5 16 0;
#X connect 77 6 5 0;
#X connect 78 0 0 0;
#X connect 79 0 0 0;
#X connect 80 0 0 0;
#X connect 81 0 0 0;
#X connect 82 0 0 0;
#X connect 83 0 0 0;
#X restore 1143 -7 pd choose-wform;
#X obj 78 15 inlet;
#X obj 148 15 inlet;
#X obj 214 14 inlet;
#X text 77 -9 freq;
#X text 140 -9 depth;
#X text 214 -9 wform;
#X obj 106 105 hsl 80 10 0 127 0 0 empty empty frq 10 6 1 10 #000000 #ffffff #7c7c7c 0 1;
#X obj 106 119 hsl 80 10 0 127 0 0 empty empty dep 10 6 1 10 #000000 #ffffff #7c7c7c 0 1;
#X obj 606 944 outlet;
#X obj 664 945 outlet;
#X obj 728 946 outlet;
#X obj 832 691 * 0.1;
#X obj 852 662 t b f;
#X obj 102 145 hradio 10 1 0 3 empty empty empty 0 -9 0 10 #fcfcfc #000000 #000000 0;
#X obj 970 595 sel 0 1 2;
#X msg 1006 624 0.5;
#X obj 275 11 inlet;
#X obj 871 947 outlet;
#X obj -74 42 loadbang;
#X obj 427 14 inlet;
#X obj 677 505 s \$0-basic-lfo-sync!;
#X msg -9 100 0;
#N canvas 0 22 1199 764 invsaw 0;
#X obj 404 116 r \$0-basic-lfo-sync!;
#X obj 365 68 inlet~;
#X obj 413 350 switch~;
#X obj 311 230 phasor~;
#X obj 413 177 sel 0;
#X obj 413 199 del 100;
#X msg 413 221 0;
#X obj 369 407 outlet~ UNI;
#X obj 362 178 f;
#X obj 464 246 bng 18 250 50 0 empty empty empty 0 -9 0 10 #fcfcfc #000000 #000000;
#X obj 464 269 del 10;
#X obj 184 223 loadbang;
#X msg 184 261 1;
#X obj 188 305 sig~;
#X obj 299 327 -~;
#X obj 413 67 r \$0-basic-lfo-invsaw-on/off;
#X connect 0 0 8 0;
#X connect 1 0 3 0;
#X connect 3 0 14 1;
#X connect 4 0 5 0;
#X connect 4 1 2 0;
#X connect 4 1 9 0;
#X connect 5 0 6 0;
#X connect 6 0 2 0;
#X connect 8 0 3 1;
#X connect 9 0 10 0;
#X connect 10 0 8 0;
#X connect 11 0 12 0;
#X connect 12 0 13 0;
#X connect 13 0 14 0;
#X connect 14 0 7 0;
#X connect 15 0 4 0;
#X restore 334 747 pd invsaw;
#X obj 498 12 inlet;
#X obj 285 910 -~;
#X obj 166 871 sig~;
#X msg 166 846 1;
#X obj 159 821 loadbang;
#N canvas 0 22 1199 764 samphold 0;
#X obj 404 116 r \$0-basic-lfo-sync!;
#X obj 413 350 switch~;
#X obj 413 177 sel 0;
#X obj 413 199 del 100;
#X msg 413 221 0;
#X obj 336 437 outlet~ UNI;
#X obj 464 246 bng 18 250 50 0 empty empty empty 0 -9 0 10 #fcfcfc #000000 #000000;
#X obj 464 269 del 10;
#X obj 337 413 -~;
#X obj 306 237 random 100;
#X obj 306 260 / 100;
#X obj 287 183 metro;
#X msg 280 149 1;
#X msg 313 147 0;
#X obj 246 77 inlet;
#X obj 358 76 r \$0-basic-lfo-samphold-on/off;
#X obj 362 346 line~;
#X obj 344 322 pack 0 10;
#X connect 0 0 12 0;
#X connect 2 0 3 0;
#X connect 2 1 1 0;
#X connect 2 1 6 0;
#X connect 3 0 4 0;
#X connect 4 0 1 0;
#X connect 4 0 13 0;
#X connect 6 0 7 0;
#X connect 7 0 12 0;
#X connect 8 0 5 0;
#X connect 9 0 10 0;
#X connect 10 0 17 0;
#X connect 11 0 9 0;
#X connect 12 0 11 0;
#X connect 13 0 11 0;
#X connect 14 0 11 1;
#X connect 15 0 2 0;
#X connect 16 0 8 0;
#X connect 17 0 16 0;
#X restore 538 747 pd samphold;
#X obj 236 499 t b f;
#X msg 233 529 1;
#X obj 233 553 /;
#X obj 232 577 * 1000;
#X text 257 966 output 1 minus osc;
#X obj 95 469 * 23;
#X text 275 -12 mul;
#X obj 94 401 / 127;
#X obj 64 504 + 0.05;
#X obj 94 427 0_to_1_log 300;
#X text 102 451 from 0.05Hz to 23Hz;
#X obj 828 616 / 127;
#X msg 970 616 1;
#X msg 1036 627 0.1;
#X text 970 69 The depth can be scaled with the radio selector: 0 means from 0 to 1 \, 1 means from 0 to 0.5 \, 2 means from 0 to 0.1.;
#X text 970 29 This is an LFO that outputs 1 when depth slider is at minimum and moves from 1 to 0 when the depth slider is at max.;
#X text 427 -8 ext_bang;
#X text 485 -9 ext_rst;
#X obj 498 37 s ext_rst_\$0;
#X obj 647 287 internal_sync;
#X obj 563 431 change;
#X obj 563 461 t b f;
#X msg 563 484 1000;
#X obj 563 507 /;
#X floatatom 537 535 5 0 0 0 - - - 0;
#X obj 129 157 tgl 15 0 empty empty empty 0 -9 0 10 #fcfcfc #000000 #000000 0 1;
#X obj 329 12 inlet;
#X text 330 -10 sync;
#X obj 796 946 outlet;
#X obj 129 184 s sync_\$0;
#X obj 865 912 r sync_\$0;
#X obj 757 109 r sync_\$0;
#X obj 104 629 spigot;
#X obj 126 550 r sync_\$0;
#X obj 135 576 == 0;
#X obj 184 630 spigot;
#X obj 430 636 spigot;
#X obj 496 635 spigot;
#X obj 521 589 r sync_\$0;
#X obj 598 571 t b f;
#X msg 595 601 1;
#X obj 595 625 /;
#X obj 594 649 * 1000;
#X obj 113 573 bng 18 250 50 0 empty empty empty 0 -9 0 10 #fcfcfc #000000 #000000;
#X obj 658 247 r ext_rst_\$0;
#X text 100 156 sync;
#X obj 885 435 f \$0;
#X obj 815 435 pack s 0;
#X obj 924 436 bng 20 250 50 0 empty empty empty 0 -10 0 12 #fcfcfc #000000 #000000;
#X obj 950 436 loadbang;
#X msg 814 457 \; division_label_\$2 label \$1;
#X obj 148 164 cnv 5 5 5 empty division_label_\$0 1/4t 0 0 0 10 #fcfcfc #404040 0;
#X obj 139 149 cnv 5 5 5 empty mul_label_\$0 1x 0 0 0 10 #fcfcfc #404040 0;
#X obj 1088 751 f \$0;
#X obj 1018 751 pack s 0;
#X obj 1127 752 bng 20 250 50 0 empty empty empty 0 -10 0 12 #fcfcfc #000000 #000000;
#X obj 1153 752 loadbang;
#X msg 1017 773 \; mul_label_\$2 label \$1;
#X msg 959 643 1x;
#X msg 1004 654 1/2x;
#X msg 1039 659 1/10x;
#X text 975 107 Code from AUTOMATONISM project;
#N canvas 190 124 1199 764 square 0;
#X obj 404 116 r \$0-basic-lfo-sync!;
#X obj 413 350 switch~;
#X obj 413 177 sel 0;
#X obj 413 199 del 100;
#X msg 413 221 0;
#X obj 271 469 outlet~ UNI;
#X obj 464 246 bng 18 250 50 0 empty empty empty 0 -9 0 10 #fcfcfc #000000 #000000;
#X obj 464 269 del 10;
#X obj 272 445 -~;
#X obj 287 183 metro;
#X msg 280 149 1;
#X msg 327 156 0;
#X obj 310 34 inlet;
#X obj 297 378 line~;
#X obj 279 354 pack 0 10;
#X obj 289 229 delay 10;
#X obj 352 202 * 0.5;
#X obj 358 76 r \$0-basic-lfo-square-on/off;
#X msg 284 301 1;
#X msg 246 296 0;
#X connect 0 0 10 0;
#X connect 2 0 3 0;
#X connect 2 1 1 0;
#X connect 2 1 6 0;
#X connect 3 0 4 0;
#X connect 4 0 1 0;
#X connect 4 0 11 0;
#X connect 6 0 7 0;
#X connect 7 0 10 0;
#X connect 8 0 5 0;
#X connect 9 0 15 0;
#X connect 9 0 19 0;
#X connect 10 0 9 0;
#X connect 11 0 9 0;
#X connect 12 0 9 1;
#X connect 12 0 16 0;
#X connect 13 0 8 0;
#X connect 14 0 13 0;
#X connect 15 0 18 0;
#X connect 16 0 15 1;
#X connect 17 0 2 0;
#X connect 18 0 14 0;
#X connect 19 0 14 0;
#X restore 401 747 pd square;
#N canvas 190 124 1199 764 pulse 0;
#X obj 404 116 r \$0-basic-lfo-sync!;
#X obj 413 350 switch~;
#X obj 413 177 sel 0;
#X obj 413 199 del 100;
#X msg 413 221 0;
#X obj 271 469 outlet~ UNI;
#X obj 464 246 bng 18 250 50 0 empty empty empty 0 -9 0 10 #fcfcfc #000000 #000000;
#X obj 464 269 del 10;
#X obj 272 445 -~;
#X obj 287 183 metro;
#X msg 280 149 1;
#X msg 313 147 0;
#X obj 310 34 inlet;
#X obj 297 378 line~;
#X obj 279 354 pack 0 10;
#X obj 289 229 delay 10;
#X obj 352 202 * 0.1;
#X obj 358 76 r \$0-basic-lfo-pulse-on/off;
#X msg 246 296 0;
#X msg 284 301 1;
#X connect 0 0 10 0;
#X connect 2 0 3 0;
#X connect 2 1 1 0;
#X connect 2 1 6 0;
#X connect 3 0 4 0;
#X connect 4 0 1 0;
#X connect 4 0 11 0;
#X connect 6 0 7 0;
#X connect 7 0 10 0;
#X connect 8 0 5 0;
#X connect 9 0 15 0;
#X connect 9 0 18 0;
#X connect 10 0 9 0;
#X connect 11 0 9 0;
#X connect 12 0 9 1;
#X connect 12 0 16 0;
#X connect 13 0 8 0;
#X connect 14 0 13 0;
#X connect 15 0 19 0;
#X connect 16 0 15 1;
#X connect 17 0 2 0;
#X connect 18 0 14 0;
#X connect 19 0 14 0;
#X restore 473 747 pd pulse;
#X obj -73 98 del 10;
#X obj 379 11 inlet;
#X text 379 -11 phase;
#X obj 200 185 s phs_\$0;
#X obj 721 415 r phs_\$0;
#X obj 675 453 f;
#X obj 200 115 vsl 12 55 0 1 0 0 empty empty phs 0 -9 1 10 #000000 #ffffff #000000 0 1;
#X obj 676 402 bng 18 250 50 0 empty empty empty 0 -9 0 10 #fcfcfc #000000 #000000;
#X obj 112 945 outlet~;
#X obj 286 949 outlet~;
#X obj -48 159 s \$0-basic-lfo-freq-s;
#X obj -40 184 s \$0-basic-lfo-depth-s;
#X obj 802 137 r \$0-basic-lfo-freq-s;
#X obj 103 236 s mul_select_\$0;
#X obj 807 891 r mul_select_\$0;
#X obj 600 892 r \$0-basic-lfo-freq-s;
#X obj 660 914 r \$0-basic-lfo-depth-s;
#X obj 103 208 s \$0-basic-lfo-wform-s;
#X obj 735 869 r \$0-basic-lfo-wform-s;
#X obj 772 192 f;
#X obj 770 151 bng 18 250 50 0 empty empty empty 0 -9 0 10 #fcfcfc #000000 #000000;
#X text 162 574 no sync;
#X text 486 591 sync;
#X obj 623 214 r ext_bang_\$0;
#X obj 428 60 s ext_bang_\$0;
#X obj 970 563 r mul_select_\$0;
#X obj 452 888 *~ 2;
#X obj 452 911 -~ 1;
#X obj 451 948 outlet~;
#X obj 850 404 spigot;
#X obj 865 340 r sync_\$0;
#X obj 794 378 symbol;
#X obj 811 331 bng 18 250 50 0 empty empty empty 0 -9 0 10 #fcfcfc #000000 #000000;
#X obj -41 645 f \$0;
#X obj -2 646 bng 20 250 50 0 empty empty empty 0 -10 0 12 #fcfcfc #000000 #000000;
#X obj 24 646 loadbang;
#X msg -100 706 \; division_label_\$2 label \$1;
#X obj -76 614 spigot;
#X obj -76 580 f;
#X obj -23 483 r sync_\$0;
#X obj -55 530 bng 18 250 50 0 empty empty empty 0 -9 0 10 #fcfcfc #000000 #000000;
#X obj -19 600 == 0;
#X obj -101 680 pack s 0;
#X obj -195 643 makefilename %.2f_Hz;
#X obj 940 912 r phs_\$0;
#X obj 940 946 outlet;
#X text 60 964 output goes from 0 to 1;
#X text 408 965 output goes from -1 to 1;
#X msg 840 494 symbol \$1;
#X obj 1005 944 outlet;
#X obj 840 519 s show_time_\$0;
#X obj 1007 914 r show_time_\$0;
#X msg -100 756 symbol \$1;
#X obj -100 781 s show_time_\$0;
#X text 601 964 freq;
#X text 664 964 depth;
#X text 735 967 wform;
#X text 807 963 mul;
#X text 871 964 sync;
#X text 943 962 phase;
#X text 1004 961 showtime;
#X obj 336 835 *~;
#X obj 620 377 t f b;
#X obj 770 226 / 127;
#X obj 770 249 * 27;
#X obj 1121 942 outlet;
#X text 1108 966 bang_every_cycle;
#X obj 1128 908 r bang_every_cycle_\$0;
#X obj 648 529 s bang_every_cycle_\$0;
#X connect 0 0 3 0;
#X connect 0 0 4 0;
#X connect 0 0 34 0;
#X connect 0 0 2 0;
#X connect 1 0 0 0;
#X connect 2 0 166 0;
#X connect 3 0 166 0;
#X connect 4 0 166 0;
#X connect 5 0 48 0;
#X connect 6 0 52 0;
#X connect 7 0 8 0;
#X connect 8 0 166 1;
#X connect 9 0 122 0;
#X connect 12 0 18 0;
#X connect 13 0 19 0;
#X connect 14 0 9 0;
#X connect 18 0 115 0;
#X connect 19 0 116 0;
#X connect 23 0 7 0;
#X connect 24 0 23 0;
#X connect 24 1 23 1;
#X connect 25 0 118 0;
#X connect 26 0 53 0;
#X connect 26 1 27 0;
#X connect 26 2 54 0;
#X connect 27 0 24 0;
#X connect 27 0 100 0;
#X connect 28 0 25 0;
#X connect 30 0 105 0;
#X connect 31 0 129 0;
#X connect 33 0 9 0;
#X connect 33 0 25 0;
#X connect 33 0 66 0;
#X connect 34 0 166 0;
#X connect 35 0 59 0;
#X connect 36 0 114 0;
#X connect 37 0 36 0;
#X connect 38 0 37 0;
#X connect 39 0 38 0;
#X connect 40 0 166 0;
#X connect 41 0 42 0;
#X connect 41 1 43 1;
#X connect 42 0 43 0;
#X connect 43 0 44 0;
#X connect 44 0 76 0;
#X connect 46 0 49 0;
#X connect 48 0 50 0;
#X connect 49 0 41 0;
#X connect 49 0 73 0;
#X connect 49 0 143 0;
#X connect 50 0 46 0;
#X connect 52 0 23 0;
#X connect 53 0 24 0;
#X connect 53 0 99 0;
#X connect 54 0 24 0;
#X connect 54 0 101 0;
#X connect 60 0 167 0;
#X connect 60 7 136 0;
#X connect 61 0 62 0;
#X connect 62 0 63 0;
#X connect 62 1 64 1;
#X connect 63 0 64 0;
#X connect 64 0 65 0;
#X connect 65 0 77 0;
#X connect 65 0 80 0;
#X connect 66 0 70 0;
#X connect 67 0 66 0;
#X connect 71 0 29 0;
#X connect 72 0 125 0;
#X connect 72 0 60 3;
#X connect 73 0 1 0;
#X connect 74 0 75 0;
#X connect 74 0 84 0;
#X connect 75 0 73 1;
#X connect 75 0 76 1;
#X connect 76 0 40 0;
#X connect 76 0 103 0;
#X connect 76 0 104 0;
#X connect 77 0 1 0;
#X connect 78 0 40 0;
#X connect 78 0 103 0;
#X connect 78 0 104 0;
#X connect 79 0 77 1;
#X connect 79 0 78 1;
#X connect 80 0 81 0;
#X connect 80 1 82 1;
#X connect 81 0 82 0;
#X connect 82 0 83 0;
#X connect 83 0 78 0;
#X connect 84 0 49 0;
#X connect 85 0 60 1;
#X connect 87 0 88 1;
#X connect 88 0 91 0;
#X connect 88 0 153 0;
#X connect 89 0 87 0;
#X connect 90 0 89 0;
#X connect 94 0 95 1;
#X connect 95 0 98 0;
#X connect 96 0 94 0;
#X connect 97 0 96 0;
#X connect 99 0 95 0;
#X connect 100 0 95 0;
#X connect 101 0 95 0;
#X connect 103 0 166 0;
#X connect 104 0 166 0;
#X connect 105 0 33 0;
#X connect 106 0 111 0;
#X connect 109 0 110 0;
#X connect 110 0 32 0;
#X connect 111 0 108 0;
#X connect 112 0 110 0;
#X connect 112 0 173 0;
#X connect 117 0 124 0;
#X connect 119 0 69 0;
#X connect 120 0 20 0;
#X connect 121 0 21 0;
#X connect 123 0 22 0;
#X connect 124 0 168 0;
#X connect 125 0 124 0;
#X connect 128 0 60 0;
#X connect 130 0 26 0;
#X connect 131 0 132 0;
#X connect 132 0 133 0;
#X connect 134 0 88 0;
#X connect 135 0 134 1;
#X connect 135 0 137 0;
#X connect 136 0 134 0;
#X connect 137 0 136 0;
#X connect 138 0 147 1;
#X connect 139 0 138 0;
#X connect 140 0 139 0;
#X connect 142 0 148 0;
#X connect 143 0 142 0;
#X connect 144 0 145 0;
#X connect 144 0 146 0;
#X connect 145 0 143 0;
#X connect 146 0 142 1;
#X connect 147 0 141 0;
#X connect 147 0 157 0;
#X connect 148 0 147 0;
#X connect 149 0 150 0;
#X connect 153 0 155 0;
#X connect 156 0 154 0;
#X connect 157 0 158 0;
#X connect 166 0 131 0;
#X connect 166 0 36 1;
#X connect 166 0 113 0;
#X connect 167 0 61 0;
#X connect 167 1 112 0;
#X connect 168 0 169 0;
#X connect 169 0 60 4;
#X connect 172 0 170 0;
#X coords 0 -1 1 1 120 75 2 100 100;
