#N canvas 73 267 1390 805 12;
#X obj 311 124 inlet~;
#X obj 395 123 inlet;
#X obj 458 123 inlet;
#X text 310 99 signal;
#X obj 553 124 inlet;
#X obj 474 481 outlet~;
#X obj 257 481 outlet~;
#X obj 567 480 outlet~;
#X obj 347 480 outlet~;
#X text 241 141 RR;
#X obj 101 122 cnv 20 160 20 empty empty quad_pan 50 10 0 12 #e0e0e0 #404040 0;
#X text 147 101 x;
#X text 193 101 y, f 2;
#X text 220 101 (spd);
#X text 101 101 in~;
#X obj 279 228 one_to_two;
#X obj 351 298 one_to_two;
#X obj 530 298 one_to_two;
#X obj 631 191 loadbang;
#X text 390 96 x (0-1);
#X text 467 98 y (0 \, 1);
#X text 553 102 speed;
#X text 460 502 rear left;
#X text 247 503 front left;
#X text 562 502 rear right;
#X text 346 501 front right;
#X text 649 45 front left: x=0 \, y=1 \; front right: x=1 \, y=1 \; rear left: x=0 \, y=0 \; rear right: x=1 \, y=0 \;;
#X text 103 141 FL;
#X text 147 141 FR;
#X text 193 141 RL;
#X msg 631 216 5;
#X connect 0 0 15 0;
#X connect 1 0 16 1;
#X connect 1 0 17 1;
#X connect 2 0 15 1;
#X connect 4 0 15 2;
#X connect 4 0 17 2;
#X connect 4 0 16 2;
#X connect 15 0 16 0;
#X connect 15 1 17 0;
#X connect 16 0 5 0;
#X connect 16 1 7 0;
#X connect 17 0 6 0;
#X connect 17 1 8 0;
#X connect 18 0 30 0;
#X connect 30 0 15 2;
#X connect 30 0 17 2;
#X connect 30 0 16 2;
#X coords 0 -1 1 1 160 60 2 100 100;
