#N canvas 268 111 1390 823 10;
#X obj 225 165 hsl 60 10 0 1 0 0 \$0-c \$0-rc feedback -2 -7 1 10 #000000 #fcfcfc #001488 0 1;
#X obj 224 137 hsl 60 10 0 127 0 0 \$0-b \$0-rb depth -2 -7 1 10 #000000 #ffffff #001488 0 1;
#X obj 224 190 hsl 60 10 0 1 0 0 \$0-d \$0-rd fbdelay -2 -7 1 10 #000000 #fcfcfc #001488 0 1;
#X obj 299 163 s \$0-feedback;
#X obj 302 185 s \$0-fbdelay;
#X obj 224 214 hsl 60 10 0 127 0 0 \$0-f \$0-rf d/w -2 -7 1 10 #000000 #ffffff #001488 0 1;
#X obj 399 100 s \$0-depth;
#X obj -643 -154 inlet~;
#X obj -572 -155 inlet~;
#X obj -510 -155 inlet~;
#X obj -452 -156 inlet~;
#X obj 200 119 vsl 15 80 0 127 0 0 empty empty tim 0 -9 1 12 #000000 #ffffff #7c7c7c 0 1;
#X obj 198 276 s tim_\$0;
#X obj 217 -142 inlet;
#X text 217 -168 time;
#X obj 124 182 vradio 15 1 0 3 empty empty phs 0 -9 1 10 #fcfcfc #000000 #000000 0;
#X obj 170 -143 inlet;
#X obj 343 -141 inlet;
#X obj 299 -143 inlet;
#X text 298 -167 depth;
#X obj 432 -141 inlet;
#X obj 388 -141 inlet;
#X text 382 -167 feedbk;
#X text 430 -165 delay;
#X obj 126 -143 inlet;
#X obj 80 -143 inlet;
#X obj 73 268 s phase_lfo_\$0;
#X text 66 -163 phaselfo;
#X text 62 931 time;
#X text 162 931 depth;
#X text 275 931 feedbk;
#X text 329 931 delay;
#X text -121 931 phaselfo;
#X obj -110 897 outlet;
#X obj 0 902 outlet;
#X obj -56 900 outlet;
#X obj 55 902 outlet;
#X obj 214 901 outlet;
#X obj 161 901 outlet;
#X obj 327 900 outlet;
#X obj 274 900 outlet;
#X obj -122 833 r phase_lfo_\$0;
#X obj 31 857 r tim_\$0;
#X obj 315 847 r \$0-fbdelay;
#X obj 260 823 r \$0-feedback;
#X obj 217 849 r \$0-gain;
#X obj 160 827 r \$0-depth;
#X obj 548 -141 inlet;
#X msg -7 17 0;
#X msg 211 52 0.4;
#N canvas 457 126 1391 715 flanger 0;
#X obj -84 -68 inlet~;
#X obj -32 -69 inlet~;
#N canvas 518 513 1223 258 feedback 0;
#X obj 129 -76 inlet~;
#X obj 296 -73 inlet~;
#X obj 19 142 outlet~;
#X obj 191 154 outlet~;
#X obj 52 58 *~;
#X obj 226 64 *~;
#X obj 36 -77 inlet~;
#X obj 210 -74 inlet~;
#X obj 300 147 block~ 4 1 1;
#X obj 927 -51 inlet~;
#X obj 527 -75 inlet~;
#X obj 713 -67 inlet~;
#X obj 436 148 outlet~;
#X obj 608 160 outlet~;
#X obj 469 64 *~;
#X obj 643 70 *~;
#X obj 453 -71 inlet~;
#X obj 627 -68 inlet~;
#X obj 36 -50 vd~ \$0-flanger-1;
#X obj 211 -44 vd~ \$0-flanger-2;
#X obj 453 -44 vd~ \$0-flanger-3;
#X obj 628 -38 vd~ \$0-flanger-4;
#X obj 58 112 delwrite~ \$0-flanger-1 100;
#X obj 233 115 delwrite~ \$0-flanger-2 100;
#X obj 475 118 delwrite~ \$0-flanger-3 100;
#X obj 650 121 delwrite~ \$0-flanger-4 100;
#X connect 0 0 22 0;
#X connect 1 0 23 0;
#X connect 4 0 22 0;
#X connect 5 0 23 0;
#X connect 6 0 18 0;
#X connect 7 0 19 0;
#X connect 9 0 5 1;
#X connect 9 0 4 1;
#X connect 9 0 15 1;
#X connect 9 0 14 1;
#X connect 10 0 24 0;
#X connect 11 0 25 0;
#X connect 14 0 24 0;
#X connect 15 0 25 0;
#X connect 16 0 20 0;
#X connect 17 0 21 0;
#X connect 18 0 4 0;
#X connect 18 0 2 0;
#X connect 19 0 5 0;
#X connect 19 0 3 0;
#X connect 20 0 14 0;
#X connect 20 0 12 0;
#X connect 21 0 15 0;
#X connect 21 0 13 0;
#X restore 182 426 pd feedback;
#X f 20;
#X obj 268 255 +~ 0.12;
#X obj 344 261 +~ 0.12;
#X obj 13 1033 outlet~;
#X obj 75 1031 outlet~;
#X msg 653 308 \$1 20;
#X obj 655 331 line~;
#X obj 652 243 r \$0-feedback;
#X obj 653 266 * 0.9;
#X obj 654 286 + 0.05;
#X obj 26 -69 inlet~;
#X obj 78 -70 inlet~;
#X obj 439 261 +~ 0.12;
#X obj 542 259 +~ 0.12;
#X obj 148 1036 outlet~;
#X obj 210 1034 outlet~;
#X obj 164 -66 inlet;
#X obj 167 -34 switch~;
#X obj 356 140 r~ lfo2_01_\$0;
#X obj 456 140 r~ lfo3_01_\$0;
#X obj 554 141 r~ lfo4_01_\$0;
#X obj 267 231 *~ 20;
#X obj 343 238 *~ 20;
#X obj 438 238 *~ 20;
#X obj 541 236 *~ 20;
#X obj 259 139 r~ lfo1_01_\$0;
#X connect 0 0 2 1;
#X connect 1 0 2 3;
#X connect 2 0 5 0;
#X connect 2 1 6 0;
#X connect 2 2 16 0;
#X connect 2 3 17 0;
#X connect 3 0 2 0;
#X connect 4 0 2 2;
#X connect 7 0 8 0;
#X connect 8 0 2 8;
#X connect 9 0 10 0;
#X connect 10 0 11 0;
#X connect 11 0 7 0;
#X connect 12 0 2 5;
#X connect 13 0 2 7;
#X connect 14 0 2 4;
#X connect 15 0 2 6;
#X connect 18 0 19 0;
#X connect 20 0 24 0;
#X connect 21 0 25 0;
#X connect 22 0 26 0;
#X connect 23 0 3 0;
#X connect 24 0 4 0;
#X connect 25 0 14 0;
#X connect 26 0 15 0;
#X connect 27 0 23 0;
#X restore -89 514 pd flanger;
#N canvas 137 453 1783 713 phaser 0;
#X obj 136 490 +~;
#N canvas 0 22 249 192 allpass-filter 0;
#X obj 37 136 rpole~;
#X obj 30 87 rzero_rev~;
#X obj 31 23 inlet~;
#X obj 38 160 outlet~;
#X obj 167 48 inlet~;
#X obj 172 139 outlet~;
#X connect 0 0 3 0;
#X connect 1 0 0 0;
#X connect 2 0 1 0;
#X connect 4 0 1 1;
#X connect 4 0 5 0;
#X connect 4 0 0 1;
#X restore 162 218 pd allpass-filter;
#N canvas 0 22 249 192 allpass-filter 0;
#X obj 37 136 rpole~;
#X obj 30 87 rzero_rev~;
#X obj 31 23 inlet~;
#X obj 38 160 outlet~;
#X obj 167 48 inlet~;
#X obj 172 139 outlet~;
#X connect 0 0 3 0;
#X connect 1 0 0 0;
#X connect 2 0 1 0;
#X connect 4 0 1 1;
#X connect 4 0 5 0;
#X connect 4 0 0 1;
#X restore 161 240 pd allpass-filter;
#N canvas 0 22 249 192 allpass-filter 0;
#X obj 37 136 rpole~;
#X obj 30 87 rzero_rev~;
#X obj 31 23 inlet~;
#X obj 38 160 outlet~;
#X obj 167 48 inlet~;
#X obj 172 139 outlet~;
#X connect 0 0 3 0;
#X connect 1 0 0 0;
#X connect 2 0 1 0;
#X connect 4 0 1 1;
#X connect 4 0 5 0;
#X connect 4 0 0 1;
#X restore 160 263 pd allpass-filter;
#N canvas 0 22 249 192 allpass-filter 0;
#X obj 37 136 rpole~;
#X obj 30 87 rzero_rev~;
#X obj 31 23 inlet~;
#X obj 38 160 outlet~;
#X obj 167 48 inlet~;
#X obj 172 139 outlet~;
#X connect 0 0 3 0;
#X connect 1 0 0 0;
#X connect 2 0 1 0;
#X connect 4 0 1 1;
#X connect 4 0 5 0;
#X connect 4 0 0 1;
#X restore 159 285 pd allpass-filter;
#N canvas 0 22 249 192 allpass-filter 0;
#X obj 37 136 rpole~;
#X obj 30 87 rzero_rev~;
#X obj 31 23 inlet~;
#X obj 38 160 outlet~;
#X obj 167 48 inlet~;
#X obj 172 139 outlet~;
#X connect 0 0 3 0;
#X connect 1 0 0 0;
#X connect 2 0 1 0;
#X connect 4 0 1 1;
#X connect 4 0 5 0;
#X connect 4 0 0 1;
#X restore 157 308 pd allpass-filter;
#N canvas 0 22 249 192 allpass-filter 0;
#X obj 37 136 rpole~;
#X obj 30 87 rzero_rev~;
#X obj 31 23 inlet~;
#X obj 38 160 outlet~;
#X obj 167 48 inlet~;
#X obj 172 139 outlet~;
#X connect 0 0 3 0;
#X connect 1 0 0 0;
#X connect 2 0 1 0;
#X connect 4 0 1 1;
#X connect 4 0 5 0;
#X connect 4 0 0 1;
#X restore 156 330 pd allpass-filter;
#N canvas 0 22 249 192 allpass-filter 0;
#X obj 37 136 rpole~;
#X obj 30 87 rzero_rev~;
#X obj 31 23 inlet~;
#X obj 38 160 outlet~;
#X obj 167 48 inlet~;
#X obj 172 139 outlet~;
#X connect 0 0 3 0;
#X connect 1 0 0 0;
#X connect 2 0 1 0;
#X connect 4 0 1 1;
#X connect 4 0 5 0;
#X connect 4 0 0 1;
#X restore 157 351 pd allpass-filter;
#N canvas 0 22 249 192 allpass-filter 0;
#X obj 37 136 rpole~;
#X obj 30 87 rzero_rev~;
#X obj 31 23 inlet~;
#X obj 38 160 outlet~;
#X obj 167 48 inlet~;
#X obj 172 139 outlet~;
#X connect 0 0 3 0;
#X connect 1 0 0 0;
#X connect 2 0 1 0;
#X connect 4 0 1 1;
#X connect 4 0 5 0;
#X connect 4 0 0 1;
#X restore 156 373 pd allpass-filter;
#N canvas 0 22 249 192 allpass-filter 0;
#X obj 37 136 rpole~;
#X obj 30 87 rzero_rev~;
#X obj 31 23 inlet~;
#X obj 38 160 outlet~;
#X obj 167 48 inlet~;
#X obj 172 139 outlet~;
#X connect 0 0 3 0;
#X connect 1 0 0 0;
#X connect 2 0 1 0;
#X connect 4 0 1 1;
#X connect 4 0 5 0;
#X connect 4 0 0 1;
#X restore 154 396 pd allpass-filter;
#N canvas 0 22 249 192 allpass-filter 0;
#X obj 37 136 rpole~;
#X obj 30 87 rzero_rev~;
#X obj 31 23 inlet~;
#X obj 38 160 outlet~;
#X obj 167 48 inlet~;
#X obj 172 139 outlet~;
#X connect 0 0 3 0;
#X connect 1 0 0 0;
#X connect 2 0 1 0;
#X connect 4 0 1 1;
#X connect 4 0 5 0;
#X connect 4 0 0 1;
#X restore 153 418 pd allpass-filter;
#N canvas 0 22 249 192 allpass-filter 0;
#X obj 37 136 rpole~;
#X obj 30 87 rzero_rev~;
#X obj 31 23 inlet~;
#X obj 38 160 outlet~;
#X obj 167 48 inlet~;
#X obj 172 139 outlet~;
#X connect 0 0 3 0;
#X connect 1 0 0 0;
#X connect 2 0 1 0;
#X connect 4 0 1 1;
#X connect 4 0 5 0;
#X connect 4 0 0 1;
#X restore 152 441 pd allpass-filter;
#N canvas 0 22 249 192 allpass-filter 0;
#X obj 37 136 rpole~;
#X obj 30 87 rzero_rev~;
#X obj 31 23 inlet~;
#X obj 38 160 outlet~;
#X obj 167 48 inlet~;
#X obj 172 139 outlet~;
#X connect 0 0 3 0;
#X connect 1 0 0 0;
#X connect 2 0 1 0;
#X connect 4 0 1 1;
#X connect 4 0 5 0;
#X connect 4 0 0 1;
#X restore 151 463 pd allpass-filter;
#X obj 214 163 *~ 0.1;
#X obj 452 439 delwrite~ \$0-fb 100;
#X obj 374 126 sqrt;
#X obj 373 147 clip 0 0.9999;
#X obj 452 413 *~ 0.333333;
#X obj 137 510 hip~ 5;
#X obj 74 221 *~ 1;
#X obj 374 101 * 0.9999;
#X obj 239 666 outlet~;
#X obj 220 -98 inlet~;
#X text 264 8 PHASER;
#X obj 208 73 * 100;
#X obj 209 48 pow 4;
#X msg 212 102 \$1 20;
#X obj 214 121 line~;
#X obj 212 143 vd~ \$0-fb;
#X obj 374 79 r \$0-feedback;
#X obj 211 26 r \$0-fbdelay;
#X text 987 1 PHASER;
#X obj 859 483 +~;
#N canvas 0 22 249 192 allpass-filter 0;
#X obj 37 136 rpole~;
#X obj 30 87 rzero_rev~;
#X obj 31 23 inlet~;
#X obj 38 160 outlet~;
#X obj 167 48 inlet~;
#X obj 172 139 outlet~;
#X connect 0 0 3 0;
#X connect 1 0 0 0;
#X connect 2 0 1 0;
#X connect 4 0 1 1;
#X connect 4 0 5 0;
#X connect 4 0 0 1;
#X restore 885 211 pd allpass-filter;
#N canvas 0 22 249 192 allpass-filter 0;
#X obj 37 136 rpole~;
#X obj 30 87 rzero_rev~;
#X obj 31 23 inlet~;
#X obj 38 160 outlet~;
#X obj 167 48 inlet~;
#X obj 172 139 outlet~;
#X connect 0 0 3 0;
#X connect 1 0 0 0;
#X connect 2 0 1 0;
#X connect 4 0 1 1;
#X connect 4 0 5 0;
#X connect 4 0 0 1;
#X restore 884 233 pd allpass-filter;
#N canvas 0 22 249 192 allpass-filter 0;
#X obj 37 136 rpole~;
#X obj 30 87 rzero_rev~;
#X obj 31 23 inlet~;
#X obj 38 160 outlet~;
#X obj 167 48 inlet~;
#X obj 172 139 outlet~;
#X connect 0 0 3 0;
#X connect 1 0 0 0;
#X connect 2 0 1 0;
#X connect 4 0 1 1;
#X connect 4 0 5 0;
#X connect 4 0 0 1;
#X restore 883 256 pd allpass-filter;
#N canvas 0 22 249 192 allpass-filter 0;
#X obj 37 136 rpole~;
#X obj 30 87 rzero_rev~;
#X obj 31 23 inlet~;
#X obj 38 160 outlet~;
#X obj 167 48 inlet~;
#X obj 172 139 outlet~;
#X connect 0 0 3 0;
#X connect 1 0 0 0;
#X connect 2 0 1 0;
#X connect 4 0 1 1;
#X connect 4 0 5 0;
#X connect 4 0 0 1;
#X restore 882 278 pd allpass-filter;
#N canvas 0 22 249 192 allpass-filter 0;
#X obj 37 136 rpole~;
#X obj 30 87 rzero_rev~;
#X obj 31 23 inlet~;
#X obj 38 160 outlet~;
#X obj 167 48 inlet~;
#X obj 172 139 outlet~;
#X connect 0 0 3 0;
#X connect 1 0 0 0;
#X connect 2 0 1 0;
#X connect 4 0 1 1;
#X connect 4 0 5 0;
#X connect 4 0 0 1;
#X restore 880 301 pd allpass-filter;
#N canvas 0 22 249 192 allpass-filter 0;
#X obj 37 136 rpole~;
#X obj 30 87 rzero_rev~;
#X obj 31 23 inlet~;
#X obj 38 160 outlet~;
#X obj 167 48 inlet~;
#X obj 172 139 outlet~;
#X connect 0 0 3 0;
#X connect 1 0 0 0;
#X connect 2 0 1 0;
#X connect 4 0 1 1;
#X connect 4 0 5 0;
#X connect 4 0 0 1;
#X restore 879 323 pd allpass-filter;
#N canvas 0 22 249 192 allpass-filter 0;
#X obj 37 136 rpole~;
#X obj 30 87 rzero_rev~;
#X obj 31 23 inlet~;
#X obj 38 160 outlet~;
#X obj 167 48 inlet~;
#X obj 172 139 outlet~;
#X connect 0 0 3 0;
#X connect 1 0 0 0;
#X connect 2 0 1 0;
#X connect 4 0 1 1;
#X connect 4 0 5 0;
#X connect 4 0 0 1;
#X restore 880 344 pd allpass-filter;
#N canvas 0 22 249 192 allpass-filter 0;
#X obj 37 136 rpole~;
#X obj 30 87 rzero_rev~;
#X obj 31 23 inlet~;
#X obj 38 160 outlet~;
#X obj 167 48 inlet~;
#X obj 172 139 outlet~;
#X connect 0 0 3 0;
#X connect 1 0 0 0;
#X connect 2 0 1 0;
#X connect 4 0 1 1;
#X connect 4 0 5 0;
#X connect 4 0 0 1;
#X restore 879 366 pd allpass-filter;
#N canvas 0 22 249 192 allpass-filter 0;
#X obj 37 136 rpole~;
#X obj 30 87 rzero_rev~;
#X obj 31 23 inlet~;
#X obj 38 160 outlet~;
#X obj 167 48 inlet~;
#X obj 172 139 outlet~;
#X connect 0 0 3 0;
#X connect 1 0 0 0;
#X connect 2 0 1 0;
#X connect 4 0 1 1;
#X connect 4 0 5 0;
#X connect 4 0 0 1;
#X restore 877 389 pd allpass-filter;
#N canvas 0 22 249 192 allpass-filter 0;
#X obj 37 136 rpole~;
#X obj 30 87 rzero_rev~;
#X obj 31 23 inlet~;
#X obj 38 160 outlet~;
#X obj 167 48 inlet~;
#X obj 172 139 outlet~;
#X connect 0 0 3 0;
#X connect 1 0 0 0;
#X connect 2 0 1 0;
#X connect 4 0 1 1;
#X connect 4 0 5 0;
#X connect 4 0 0 1;
#X restore 876 411 pd allpass-filter;
#N canvas 0 22 249 192 allpass-filter 0;
#X obj 37 136 rpole~;
#X obj 30 87 rzero_rev~;
#X obj 31 23 inlet~;
#X obj 38 160 outlet~;
#X obj 167 48 inlet~;
#X obj 172 139 outlet~;
#X connect 0 0 3 0;
#X connect 1 0 0 0;
#X connect 2 0 1 0;
#X connect 4 0 1 1;
#X connect 4 0 5 0;
#X connect 4 0 0 1;
#X restore 875 434 pd allpass-filter;
#N canvas 0 22 249 192 allpass-filter 0;
#X obj 37 136 rpole~;
#X obj 30 87 rzero_rev~;
#X obj 31 23 inlet~;
#X obj 38 160 outlet~;
#X obj 167 48 inlet~;
#X obj 172 139 outlet~;
#X connect 0 0 3 0;
#X connect 1 0 0 0;
#X connect 2 0 1 0;
#X connect 4 0 1 1;
#X connect 4 0 5 0;
#X connect 4 0 0 1;
#X restore 874 456 pd allpass-filter;
#X obj 937 156 *~ 0.1;
#X obj 1097 119 sqrt;
#X obj 1096 140 clip 0 0.9999;
#X obj 1175 406 *~ 0.333333;
#X obj 860 503 hip~ 5;
#X obj 797 214 *~ 1;
#X obj 1097 94 * 0.9999;
#X obj 1097 72 r \$0-feedback;
#X obj 934 19 r \$0-fbdelay;
#X obj 931 66 * 100;
#X obj 932 41 pow 4;
#X obj 878 660 outlet~;
#X obj 906 -111 inlet~;
#X obj 1175 431 delwrite~ \$0-fbb 100;
#X msg 932 87 \$1 20;
#X obj 937 114 line~;
#X obj 937 134 vd~ \$0-fbb;
#X obj 1576 473 +~;
#N canvas 0 22 249 192 allpass-filter 0;
#X obj 37 136 rpole~;
#X obj 30 87 rzero_rev~;
#X obj 31 23 inlet~;
#X obj 38 160 outlet~;
#X obj 167 48 inlet~;
#X obj 172 139 outlet~;
#X connect 0 0 3 0;
#X connect 1 0 0 0;
#X connect 2 0 1 0;
#X connect 4 0 1 1;
#X connect 4 0 5 0;
#X connect 4 0 0 1;
#X restore 1602 201 pd allpass-filter;
#N canvas 0 22 249 192 allpass-filter 0;
#X obj 37 136 rpole~;
#X obj 30 87 rzero_rev~;
#X obj 31 23 inlet~;
#X obj 38 160 outlet~;
#X obj 167 48 inlet~;
#X obj 172 139 outlet~;
#X connect 0 0 3 0;
#X connect 1 0 0 0;
#X connect 2 0 1 0;
#X connect 4 0 1 1;
#X connect 4 0 5 0;
#X connect 4 0 0 1;
#X restore 1601 223 pd allpass-filter;
#N canvas 0 22 249 192 allpass-filter 0;
#X obj 37 136 rpole~;
#X obj 30 87 rzero_rev~;
#X obj 31 23 inlet~;
#X obj 38 160 outlet~;
#X obj 167 48 inlet~;
#X obj 172 139 outlet~;
#X connect 0 0 3 0;
#X connect 1 0 0 0;
#X connect 2 0 1 0;
#X connect 4 0 1 1;
#X connect 4 0 5 0;
#X connect 4 0 0 1;
#X restore 1600 246 pd allpass-filter;
#N canvas 0 22 249 192 allpass-filter 0;
#X obj 37 136 rpole~;
#X obj 30 87 rzero_rev~;
#X obj 31 23 inlet~;
#X obj 38 160 outlet~;
#X obj 167 48 inlet~;
#X obj 172 139 outlet~;
#X connect 0 0 3 0;
#X connect 1 0 0 0;
#X connect 2 0 1 0;
#X connect 4 0 1 1;
#X connect 4 0 5 0;
#X connect 4 0 0 1;
#X restore 1599 268 pd allpass-filter;
#N canvas 0 22 249 192 allpass-filter 0;
#X obj 37 136 rpole~;
#X obj 30 87 rzero_rev~;
#X obj 31 23 inlet~;
#X obj 38 160 outlet~;
#X obj 167 48 inlet~;
#X obj 172 139 outlet~;
#X connect 0 0 3 0;
#X connect 1 0 0 0;
#X connect 2 0 1 0;
#X connect 4 0 1 1;
#X connect 4 0 5 0;
#X connect 4 0 0 1;
#X restore 1597 291 pd allpass-filter;
#N canvas 0 22 249 192 allpass-filter 0;
#X obj 37 136 rpole~;
#X obj 30 87 rzero_rev~;
#X obj 31 23 inlet~;
#X obj 38 160 outlet~;
#X obj 167 48 inlet~;
#X obj 172 139 outlet~;
#X connect 0 0 3 0;
#X connect 1 0 0 0;
#X connect 2 0 1 0;
#X connect 4 0 1 1;
#X connect 4 0 5 0;
#X connect 4 0 0 1;
#X restore 1596 313 pd allpass-filter;
#N canvas 0 22 249 192 allpass-filter 0;
#X obj 37 136 rpole~;
#X obj 30 87 rzero_rev~;
#X obj 31 23 inlet~;
#X obj 38 160 outlet~;
#X obj 167 48 inlet~;
#X obj 172 139 outlet~;
#X connect 0 0 3 0;
#X connect 1 0 0 0;
#X connect 2 0 1 0;
#X connect 4 0 1 1;
#X connect 4 0 5 0;
#X connect 4 0 0 1;
#X restore 1597 334 pd allpass-filter;
#N canvas 0 22 249 192 allpass-filter 0;
#X obj 37 136 rpole~;
#X obj 30 87 rzero_rev~;
#X obj 31 23 inlet~;
#X obj 38 160 outlet~;
#X obj 167 48 inlet~;
#X obj 172 139 outlet~;
#X connect 0 0 3 0;
#X connect 1 0 0 0;
#X connect 2 0 1 0;
#X connect 4 0 1 1;
#X connect 4 0 5 0;
#X connect 4 0 0 1;
#X restore 1596 356 pd allpass-filter;
#N canvas 0 22 249 192 allpass-filter 0;
#X obj 37 136 rpole~;
#X obj 30 87 rzero_rev~;
#X obj 31 23 inlet~;
#X obj 38 160 outlet~;
#X obj 167 48 inlet~;
#X obj 172 139 outlet~;
#X connect 0 0 3 0;
#X connect 1 0 0 0;
#X connect 2 0 1 0;
#X connect 4 0 1 1;
#X connect 4 0 5 0;
#X connect 4 0 0 1;
#X restore 1594 379 pd allpass-filter;
#N canvas 0 22 249 192 allpass-filter 0;
#X obj 37 136 rpole~;
#X obj 30 87 rzero_rev~;
#X obj 31 23 inlet~;
#X obj 38 160 outlet~;
#X obj 167 48 inlet~;
#X obj 172 139 outlet~;
#X connect 0 0 3 0;
#X connect 1 0 0 0;
#X connect 2 0 1 0;
#X connect 4 0 1 1;
#X connect 4 0 5 0;
#X connect 4 0 0 1;
#X restore 1593 401 pd allpass-filter;
#N canvas 0 22 249 192 allpass-filter 0;
#X obj 37 136 rpole~;
#X obj 30 87 rzero_rev~;
#X obj 31 23 inlet~;
#X obj 38 160 outlet~;
#X obj 167 48 inlet~;
#X obj 172 139 outlet~;
#X connect 0 0 3 0;
#X connect 1 0 0 0;
#X connect 2 0 1 0;
#X connect 4 0 1 1;
#X connect 4 0 5 0;
#X connect 4 0 0 1;
#X restore 1592 424 pd allpass-filter;
#N canvas 0 22 249 192 allpass-filter 0;
#X obj 37 136 rpole~;
#X obj 30 87 rzero_rev~;
#X obj 31 23 inlet~;
#X obj 38 160 outlet~;
#X obj 167 48 inlet~;
#X obj 172 139 outlet~;
#X connect 0 0 3 0;
#X connect 1 0 0 0;
#X connect 2 0 1 0;
#X connect 4 0 1 1;
#X connect 4 0 5 0;
#X connect 4 0 0 1;
#X restore 1591 446 pd allpass-filter;
#X obj 1654 146 *~ 0.1;
#X obj 1814 109 sqrt;
#X obj 1813 130 clip 0 0.9999;
#X obj 1892 396 *~ 0.333333;
#X obj 1577 493 hip~ 5;
#X obj 1514 204 *~ 1;
#X obj 1814 84 * 0.9999;
#X obj 1613 651 outlet~;
#X obj 1591 -145 inlet~;
#X text 1704 -9 PHASER;
#X obj 1648 56 * 100;
#X obj 1649 31 pow 4;
#X msg 1652 85 \$1 20;
#X obj 1654 104 line~;
#X obj 1814 62 r \$0-feedback;
#X obj 1651 9 r \$0-fbdelay;
#X obj 1892 422 delwrite~ \$0-fbbb 100;
#X obj 1652 126 vd~ \$0-fbbb;
#X text 2490 -42 PHASER;
#X obj 2362 440 +~;
#N canvas 0 22 249 192 allpass-filter 0;
#X obj 37 136 rpole~;
#X obj 30 87 rzero_rev~;
#X obj 31 23 inlet~;
#X obj 38 160 outlet~;
#X obj 167 48 inlet~;
#X obj 172 139 outlet~;
#X connect 0 0 3 0;
#X connect 1 0 0 0;
#X connect 2 0 1 0;
#X connect 4 0 1 1;
#X connect 4 0 5 0;
#X connect 4 0 0 1;
#X restore 2388 168 pd allpass-filter;
#N canvas 0 22 249 192 allpass-filter 0;
#X obj 37 136 rpole~;
#X obj 30 87 rzero_rev~;
#X obj 31 23 inlet~;
#X obj 38 160 outlet~;
#X obj 167 48 inlet~;
#X obj 172 139 outlet~;
#X connect 0 0 3 0;
#X connect 1 0 0 0;
#X connect 2 0 1 0;
#X connect 4 0 1 1;
#X connect 4 0 5 0;
#X connect 4 0 0 1;
#X restore 2387 190 pd allpass-filter;
#N canvas 0 22 249 192 allpass-filter 0;
#X obj 37 136 rpole~;
#X obj 30 87 rzero_rev~;
#X obj 31 23 inlet~;
#X obj 38 160 outlet~;
#X obj 167 48 inlet~;
#X obj 172 139 outlet~;
#X connect 0 0 3 0;
#X connect 1 0 0 0;
#X connect 2 0 1 0;
#X connect 4 0 1 1;
#X connect 4 0 5 0;
#X connect 4 0 0 1;
#X restore 2386 213 pd allpass-filter;
#N canvas 0 22 249 192 allpass-filter 0;
#X obj 37 136 rpole~;
#X obj 30 87 rzero_rev~;
#X obj 31 23 inlet~;
#X obj 38 160 outlet~;
#X obj 167 48 inlet~;
#X obj 172 139 outlet~;
#X connect 0 0 3 0;
#X connect 1 0 0 0;
#X connect 2 0 1 0;
#X connect 4 0 1 1;
#X connect 4 0 5 0;
#X connect 4 0 0 1;
#X restore 2385 235 pd allpass-filter;
#N canvas 0 22 249 192 allpass-filter 0;
#X obj 37 136 rpole~;
#X obj 30 87 rzero_rev~;
#X obj 31 23 inlet~;
#X obj 38 160 outlet~;
#X obj 167 48 inlet~;
#X obj 172 139 outlet~;
#X connect 0 0 3 0;
#X connect 1 0 0 0;
#X connect 2 0 1 0;
#X connect 4 0 1 1;
#X connect 4 0 5 0;
#X connect 4 0 0 1;
#X restore 2383 258 pd allpass-filter;
#N canvas 0 22 249 192 allpass-filter 0;
#X obj 37 136 rpole~;
#X obj 30 87 rzero_rev~;
#X obj 31 23 inlet~;
#X obj 38 160 outlet~;
#X obj 167 48 inlet~;
#X obj 172 139 outlet~;
#X connect 0 0 3 0;
#X connect 1 0 0 0;
#X connect 2 0 1 0;
#X connect 4 0 1 1;
#X connect 4 0 5 0;
#X connect 4 0 0 1;
#X restore 2382 280 pd allpass-filter;
#N canvas 0 22 249 192 allpass-filter 0;
#X obj 37 136 rpole~;
#X obj 30 87 rzero_rev~;
#X obj 31 23 inlet~;
#X obj 38 160 outlet~;
#X obj 167 48 inlet~;
#X obj 172 139 outlet~;
#X connect 0 0 3 0;
#X connect 1 0 0 0;
#X connect 2 0 1 0;
#X connect 4 0 1 1;
#X connect 4 0 5 0;
#X connect 4 0 0 1;
#X restore 2383 301 pd allpass-filter;
#N canvas 0 22 249 192 allpass-filter 0;
#X obj 37 136 rpole~;
#X obj 30 87 rzero_rev~;
#X obj 31 23 inlet~;
#X obj 38 160 outlet~;
#X obj 167 48 inlet~;
#X obj 172 139 outlet~;
#X connect 0 0 3 0;
#X connect 1 0 0 0;
#X connect 2 0 1 0;
#X connect 4 0 1 1;
#X connect 4 0 5 0;
#X connect 4 0 0 1;
#X restore 2382 323 pd allpass-filter;
#N canvas 0 22 249 192 allpass-filter 0;
#X obj 37 136 rpole~;
#X obj 30 87 rzero_rev~;
#X obj 31 23 inlet~;
#X obj 38 160 outlet~;
#X obj 167 48 inlet~;
#X obj 172 139 outlet~;
#X connect 0 0 3 0;
#X connect 1 0 0 0;
#X connect 2 0 1 0;
#X connect 4 0 1 1;
#X connect 4 0 5 0;
#X connect 4 0 0 1;
#X restore 2380 346 pd allpass-filter;
#N canvas 0 22 249 192 allpass-filter 0;
#X obj 37 136 rpole~;
#X obj 30 87 rzero_rev~;
#X obj 31 23 inlet~;
#X obj 38 160 outlet~;
#X obj 167 48 inlet~;
#X obj 172 139 outlet~;
#X connect 0 0 3 0;
#X connect 1 0 0 0;
#X connect 2 0 1 0;
#X connect 4 0 1 1;
#X connect 4 0 5 0;
#X connect 4 0 0 1;
#X restore 2379 368 pd allpass-filter;
#N canvas 0 22 249 192 allpass-filter 0;
#X obj 37 136 rpole~;
#X obj 30 87 rzero_rev~;
#X obj 31 23 inlet~;
#X obj 38 160 outlet~;
#X obj 167 48 inlet~;
#X obj 172 139 outlet~;
#X connect 0 0 3 0;
#X connect 1 0 0 0;
#X connect 2 0 1 0;
#X connect 4 0 1 1;
#X connect 4 0 5 0;
#X connect 4 0 0 1;
#X restore 2378 391 pd allpass-filter;
#N canvas 0 22 249 192 allpass-filter 0;
#X obj 37 136 rpole~;
#X obj 30 87 rzero_rev~;
#X obj 31 23 inlet~;
#X obj 38 160 outlet~;
#X obj 167 48 inlet~;
#X obj 172 139 outlet~;
#X connect 0 0 3 0;
#X connect 1 0 0 0;
#X connect 2 0 1 0;
#X connect 4 0 1 1;
#X connect 4 0 5 0;
#X connect 4 0 0 1;
#X restore 2377 413 pd allpass-filter;
#X obj 2440 113 *~ 0.1;
#X obj 2600 76 sqrt;
#X obj 2599 97 clip 0 0.9999;
#X obj 2678 363 *~ 0.333333;
#X obj 2363 460 hip~ 5;
#X obj 2300 171 *~ 1;
#X obj 2600 51 * 0.9999;
#X obj 2600 29 r \$0-feedback;
#X obj 2437 -24 r \$0-fbdelay;
#X obj 2434 23 * 100;
#X obj 2435 -2 pow 4;
#X obj 2358 645 outlet~;
#X obj 2353 -136 inlet~;
#X msg 2435 44 \$1 20;
#X obj 2440 71 line~;
#X obj 2678 388 delwrite~ \$0-fbbbb 100;
#X obj 2440 91 vd~ \$0-fbbbb;
#X obj 2936 -138 inlet;
#X obj 2960 -83 switch~;
#X obj 558 339 snapshot~;
#X obj 704 204 vsl 18 153 -2 2 0 0 empty empty empty 0 -9 0 10 #fcfcfc #000000 #000000 0 1;
#X obj 553 294 metro 5;
#X obj 563 263 tgl 18 0 empty empty empty 0 -9 0 10 #fcfcfc #000000 #000000 0 1;
#X obj 528 165 r~ lfo1_10_\$0;
#X obj 1250 197 r~ lfo2_10_\$0;
#X obj 1949 213 r~ lfo3_10_\$0;
#X obj 2571 155 r~ lfo4_10_\$0;
#X connect 0 0 18 0;
#X connect 1 0 2 0;
#X connect 1 1 2 1;
#X connect 2 0 3 0;
#X connect 2 1 3 1;
#X connect 3 0 4 0;
#X connect 3 1 4 1;
#X connect 4 0 5 0;
#X connect 4 0 17 0;
#X connect 4 1 5 1;
#X connect 5 0 6 0;
#X connect 5 1 6 1;
#X connect 6 0 7 0;
#X connect 6 1 7 1;
#X connect 7 0 8 0;
#X connect 7 1 8 1;
#X connect 8 0 9 0;
#X connect 8 0 17 0;
#X connect 8 1 9 1;
#X connect 9 0 10 0;
#X connect 9 1 10 1;
#X connect 10 0 11 0;
#X connect 10 1 11 1;
#X connect 11 0 12 0;
#X connect 11 1 12 1;
#X connect 12 0 0 1;
#X connect 12 0 17 0;
#X connect 13 0 1 0;
#X connect 15 0 16 0;
#X connect 16 0 13 1;
#X connect 17 0 14 0;
#X connect 18 0 21 0;
#X connect 19 0 1 0;
#X connect 19 0 0 0;
#X connect 20 0 15 0;
#X connect 22 0 19 0;
#X connect 24 0 26 0;
#X connect 25 0 24 0;
#X connect 26 0 27 0;
#X connect 27 0 28 0;
#X connect 28 0 13 0;
#X connect 29 0 20 0;
#X connect 30 0 25 0;
#X connect 32 0 49 0;
#X connect 33 0 34 0;
#X connect 33 1 34 1;
#X connect 34 0 35 0;
#X connect 34 1 35 1;
#X connect 35 0 36 0;
#X connect 35 1 36 1;
#X connect 36 0 37 0;
#X connect 36 0 48 0;
#X connect 36 1 37 1;
#X connect 37 0 38 0;
#X connect 37 1 38 1;
#X connect 38 0 39 0;
#X connect 38 1 39 1;
#X connect 39 0 40 0;
#X connect 39 1 40 1;
#X connect 40 0 41 0;
#X connect 40 0 48 0;
#X connect 40 1 41 1;
#X connect 41 0 42 0;
#X connect 41 1 42 1;
#X connect 42 0 43 0;
#X connect 42 1 43 1;
#X connect 43 0 44 0;
#X connect 43 1 44 1;
#X connect 44 0 32 1;
#X connect 44 0 48 0;
#X connect 45 0 33 0;
#X connect 46 0 47 0;
#X connect 47 0 45 1;
#X connect 48 0 58 0;
#X connect 49 0 56 0;
#X connect 50 0 33 0;
#X connect 50 0 32 0;
#X connect 51 0 46 0;
#X connect 52 0 51 0;
#X connect 53 0 55 0;
#X connect 54 0 59 0;
#X connect 55 0 54 0;
#X connect 57 0 50 0;
#X connect 59 0 60 0;
#X connect 60 0 61 0;
#X connect 61 0 45 0;
#X connect 62 0 79 0;
#X connect 63 0 64 0;
#X connect 63 1 64 1;
#X connect 64 0 65 0;
#X connect 64 1 65 1;
#X connect 65 0 66 0;
#X connect 65 1 66 1;
#X connect 66 0 67 0;
#X connect 66 0 78 0;
#X connect 66 1 67 1;
#X connect 67 0 68 0;
#X connect 67 1 68 1;
#X connect 68 0 69 0;
#X connect 68 1 69 1;
#X connect 69 0 70 0;
#X connect 69 1 70 1;
#X connect 70 0 71 0;
#X connect 70 0 78 0;
#X connect 70 1 71 1;
#X connect 71 0 72 0;
#X connect 71 1 72 1;
#X connect 72 0 73 0;
#X connect 72 1 73 1;
#X connect 73 0 74 0;
#X connect 73 1 74 1;
#X connect 74 0 62 1;
#X connect 74 0 78 0;
#X connect 75 0 63 0;
#X connect 76 0 77 0;
#X connect 77 0 75 1;
#X connect 78 0 91 0;
#X connect 79 0 82 0;
#X connect 80 0 63 0;
#X connect 80 0 62 0;
#X connect 81 0 76 0;
#X connect 83 0 80 0;
#X connect 85 0 87 0;
#X connect 86 0 85 0;
#X connect 87 0 88 0;
#X connect 88 0 92 0;
#X connect 89 0 81 0;
#X connect 90 0 86 0;
#X connect 92 0 75 0;
#X connect 94 0 111 0;
#X connect 95 0 96 0;
#X connect 95 1 96 1;
#X connect 96 0 97 0;
#X connect 96 1 97 1;
#X connect 97 0 98 0;
#X connect 97 1 98 1;
#X connect 98 0 99 0;
#X connect 98 0 110 0;
#X connect 98 1 99 1;
#X connect 99 0 100 0;
#X connect 99 1 100 1;
#X connect 100 0 101 0;
#X connect 100 1 101 1;
#X connect 101 0 102 0;
#X connect 101 1 102 1;
#X connect 102 0 103 0;
#X connect 102 0 110 0;
#X connect 102 1 103 1;
#X connect 103 0 104 0;
#X connect 103 1 104 1;
#X connect 104 0 105 0;
#X connect 104 1 105 1;
#X connect 105 0 106 0;
#X connect 105 1 106 1;
#X connect 106 0 94 1;
#X connect 106 0 110 0;
#X connect 107 0 95 0;
#X connect 108 0 109 0;
#X connect 109 0 107 1;
#X connect 110 0 122 0;
#X connect 111 0 118 0;
#X connect 112 0 95 0;
#X connect 112 0 94 0;
#X connect 113 0 108 0;
#X connect 114 0 113 0;
#X connect 115 0 117 0;
#X connect 116 0 120 0;
#X connect 117 0 116 0;
#X connect 119 0 112 0;
#X connect 120 0 121 0;
#X connect 121 0 123 0;
#X connect 123 0 107 0;
#X connect 124 0 125 0;
#X connect 126 0 127 0;
#X connect 128 0 126 0;
#X connect 129 0 128 0;
#X connect 130 0 1 1;
#X connect 131 0 33 1;
#X connect 132 0 63 1;
#X connect 133 0 95 1;
#X restore -294 511 pd phaser;
#X obj 124 104 vradio 15 1 0 4 empty empty empty 0 -9 1 10 #fcfcfc #000000 #000000 0;
#X text 101 105 off;
#X text 104 119 ph;
#X obj 479 -140 inlet;
#X obj 392 901 outlet;
#X obj -473 932 outlet~;
#X obj -403 933 outlet~;
#X obj -338 932 outlet~;
#X obj -271 933 outlet~;
#X obj -487 844 dry_wet_quad;
#X obj 306 216 s \$0-dw;
#X obj -198 822 r \$0-dw;
#X text 104 135 fl;
#X text 104 149 tr;
#X obj 609 -138 inlet;
#X text 542 -167 bang_bpm;
#X text 603 -164 ext_rst;
#X obj 635 -92 s ext_rst_\$0;
#X obj 525 -85 s ext_bang_\$0;
#N canvas -106 647 1783 713 tremolo 0;
#X obj 239 666 outlet~;
#X obj 239 -44 inlet~;
#X obj 340 665 outlet~;
#X obj 361 -43 inlet~;
#X obj 459 663 outlet~;
#X obj 479 -42 inlet~;
#X obj 568 664 outlet~;
#X obj 608 -37 inlet~;
#X obj 818 -43 inlet;
#X obj 842 12 switch~;
#X obj 272 154 *~;
#X obj 387 149 *~;
#X obj 505 151 *~;
#X obj 634 150 *~;
#X obj 283 90 lop~ 400;
#X obj 403 85 lop~ 400;
#X obj 530 87 lop~ 400;
#X obj 665 82 lop~ 400;
#X obj 287 16 r~ lfo1_10_\$0;
#X obj 411 16 r~ lfo2_10_\$0;
#X obj 531 20 r~ lfo3_10_\$0;
#X obj 665 16 r~ lfo4_10_\$0;
#X connect 1 0 10 0;
#X connect 3 0 11 0;
#X connect 5 0 12 0;
#X connect 7 0 13 0;
#X connect 8 0 9 0;
#X connect 10 0 0 0;
#X connect 11 0 2 0;
#X connect 12 0 4 0;
#X connect 13 0 6 0;
#X connect 14 0 10 1;
#X connect 15 0 11 1;
#X connect 16 0 12 1;
#X connect 17 0 13 1;
#X connect 18 0 14 0;
#X connect 19 0 15 0;
#X connect 20 0 16 0;
#X connect 21 0 17 0;
#X restore 117 515 pd tremolo;
#X obj 4 297 s ph_fl_tr_\$0;
#X obj -186 513 r ph_fl_tr_\$0;
#X obj 4 513 r ph_fl_tr_\$0;
#X obj 195 487 r ph_fl_tr_\$0;
#X obj 189 332 s time_spread_\$0;
#X obj 177 119 vradio 18 1 0 6 empty empty empty 0 -9 0 10 #fcfcfc #000000 #000000 0;
#X obj 199 207 tgl 18 0 empty empty empty 0 -9 0 10 #fcfcfc #000000 #000000 0 1;
#X obj 200 257 s sync_\$0;
#X obj 250 30 r rst_tim_val_\$0;
#X text 161 -169 timesprd;
#X obj 147 121 vradio 15 1 0 7 empty empty empty 0 -9 0 10 #fcfcfc #000000 #000000 0;
#X text 127 -167 wave;
#X obj 103 331 s waveform_\$0;
#X obj 258 -142 inlet;
#X text 258 -168 sync;
#X text 468 -167 ph-fl-tr;
#X msg 54 16 1;
#X msg 23 17 64;
#X obj 466 900 outlet;
#X obj 433 848 r show_time_\$0;
#X text 445 932 show_time;
#X text -61 931 wave;
#X obj -83 859 r waveform_\$0;
#X obj -21 828 r time_spread_\$0;
#X text -6 931 timesprd;
#X obj 111 901 outlet;
#X obj 90 813 r sync_\$0;
#X text 112 931 sync;
#X text 346 -166 dw;
#X text 224 931 dw;
#X obj 373 806 r ph_fl_tr_\$0;
#X text 383 932 ph-fl-tr;
#X obj 23 -24 del 100;
#X obj 9 -57 loadbang;
#X obj 596 909 outlet;
#X text 596 941 bang_every_cycle;
#X obj 610 839 r bang_every_cycle_\$0;
#X obj 206 522 == 3;
#X obj 9 538 == 2;
#X obj -186 536 == 1;
#X obj 644 348 quad_lfo;
#X obj 1238 300 r ext_rst_\$0;
#X obj 1195 275 r ext_bang_\$0;
#X obj 722 283 r time_spread_\$0;
#X obj 908 226 r tim_\$0;
#X obj 936 258 r sync_\$0;
#X obj 616 285 r phase_lfo_\$0;
#X obj 663 255 r waveform_\$0;
#X obj 1060 283 r \$0-depth;
#X obj 1122 222 loadbang;
#X msg 1122 245 0;
#X obj 631 543 s~ lfo1_01_\$0;
#X obj 1054 535 s show_time_\$0;
#X obj 1196 535 s bang_every_cycle_\$0;
#X obj 1141 508 s error_\$0;
#X obj 534 907 outlet;
#X text 530 936 error;
#X obj 528 873 r error_\$0;
#X obj 647 521 s~ lfo1_10_\$0;
#X obj 738 545 s~ lfo2_01_\$0;
#X obj 753 523 s~ lfo2_10_\$0;
#X obj 833 548 s~ lfo3_01_\$0;
#X obj 849 526 s~ lfo3_10_\$0;
#X obj 955 528 s~ lfo4_10_\$0;
#X obj 940 550 s~ lfo4_01_\$0;
#X obj 157 302 bng 18 250 50 0 empty empty empty 0 -9 0 10 #fcfcfc #000000 #000000;
#X connect 0 0 3 0;
#X connect 1 0 6 0;
#X connect 2 0 4 0;
#X connect 5 0 62 0;
#X connect 7 0 71 0;
#X connect 7 0 50 0;
#X connect 7 0 51 0;
#X connect 7 0 61 0;
#X connect 8 0 71 1;
#X connect 8 0 50 1;
#X connect 8 0 51 1;
#X connect 8 0 61 1;
#X connect 9 0 71 2;
#X connect 9 0 50 2;
#X connect 9 0 51 2;
#X connect 9 0 61 2;
#X connect 10 0 71 3;
#X connect 10 0 50 3;
#X connect 10 0 51 3;
#X connect 10 0 61 3;
#X connect 11 0 12 0;
#X connect 13 0 11 0;
#X connect 15 0 26 0;
#X connect 16 0 77 0;
#X connect 17 0 5 0;
#X connect 18 0 1 0;
#X connect 20 0 2 0;
#X connect 21 0 0 0;
#X connect 24 0 82 0;
#X connect 25 0 15 0;
#X connect 41 0 33 0;
#X connect 42 0 36 0;
#X connect 43 0 39 0;
#X connect 44 0 40 0;
#X connect 45 0 37 0;
#X connect 46 0 38 0;
#X connect 47 0 70 0;
#X connect 48 0 15 0;
#X connect 48 0 52 0;
#X connect 48 0 82 0;
#X connect 48 0 77 0;
#X connect 48 0 78 0;
#X connect 49 0 5 0;
#X connect 49 0 0 0;
#X connect 49 0 2 0;
#X connect 49 0 11 0;
#X connect 50 0 61 4;
#X connect 50 1 61 5;
#X connect 50 2 61 6;
#X connect 50 3 61 7;
#X connect 51 0 61 4;
#X connect 51 1 61 5;
#X connect 51 2 61 6;
#X connect 51 3 61 7;
#X connect 52 0 72 0;
#X connect 55 0 52 0;
#X connect 61 0 57 0;
#X connect 61 1 58 0;
#X connect 61 2 59 0;
#X connect 61 3 60 0;
#X connect 63 0 61 8;
#X connect 66 0 69 0;
#X connect 71 0 61 4;
#X connect 71 1 61 5;
#X connect 71 2 61 6;
#X connect 71 3 61 7;
#X connect 73 0 111 0;
#X connect 74 0 110 0;
#X connect 75 0 109 0;
#X connect 77 0 76 0;
#X connect 77 0 137 0;
#X connect 78 0 79 0;
#X connect 80 0 11 0;
#X connect 82 0 84 0;
#X connect 82 0 137 0;
#X connect 85 0 78 0;
#X connect 88 0 1 0;
#X connect 89 0 11 0;
#X connect 91 0 90 0;
#X connect 94 0 35 0;
#X connect 95 0 34 0;
#X connect 98 0 97 0;
#X connect 102 0 56 0;
#X connect 104 0 48 0;
#X connect 104 0 88 0;
#X connect 104 0 49 0;
#X connect 104 0 89 0;
#X connect 105 0 104 0;
#X connect 108 0 106 0;
#X connect 109 0 71 4;
#X connect 110 0 50 4;
#X connect 111 0 51 4;
#X connect 112 0 123 0;
#X connect 112 1 130 0;
#X connect 112 3 131 0;
#X connect 112 4 132 0;
#X connect 112 6 133 0;
#X connect 112 7 134 0;
#X connect 112 19 124 0;
#X connect 112 20 126 0;
#X connect 112 21 125 0;
#X connect 113 0 112 8;
#X connect 114 0 112 7;
#X connect 115 0 112 2;
#X connect 116 0 112 3;
#X connect 117 0 112 4;
#X connect 118 0 112 0;
#X connect 119 0 112 1;
#X connect 120 0 112 5;
#X connect 121 0 122 0;
#X connect 122 0 112 6;
#X connect 129 0 127 0;
#X connect 137 0 15 0;
#X coords 0 -1 1 1 190 130 2 100 100;
