#N canvas 52 20 1854 1097 10;
#X declare -path ../commons;
#X obj 225 165 hsl 60 10 0 1 0 0 \$0-c \$0-rc feedback -2 -7 1 10 #000000 #fcfcfc #001488 0 1;
#X obj 224 137 hsl 60 10 0 127 0 0 \$0-b \$0-rb depth -2 -7 1 10 #000000 #ffffff #001488 0 1;
#X obj 224 190 hsl 60 10 0 1 0 0 \$0-d \$0-rd fbdelay -2 -7 1 10 #000000 #fcfcfc #001488 0 1;
#X obj 299 163 s \$0-feedback;
#X obj 302 185 s \$0-fbdelay;
#X obj 224 214 hsl 60 10 0 127 0 0 \$0-f \$0-rf d/w -2 -7 1 10 #000000 #ffffff #001488 0 1;
#X obj 399 100 s \$0-depth;
#X msg 770 698 0;
#X obj 784 778 s \$0-phase1;
#X obj 783 799 s \$0-phase2;
#X obj 714 698 bng 18 250 50 0 empty empty empty 0 -9 0 10 #fcfcfc #000000 #000000;
#X obj -643 -154 inlet~;
#X obj -572 -155 inlet~;
#X obj -510 -155 inlet~;
#X obj -452 -156 inlet~;
#X obj 783 821 s \$0-phase3;
#X obj 782 842 s \$0-phase4;
#X msg 769 671 0;
#X msg 868 671 0;
#X msg 828 671 0;
#X msg 796 671 0;
#X obj 714 671 bng 18 250 50 0 empty empty empty 0 -9 0 10 #fcfcfc #000000 #000000;
#X msg 770 729 0;
#X obj 715 729 bng 18 250 50 0 empty empty empty 0 -9 0 10 #fcfcfc #000000 #000000;
#X obj 200 117 vsl 15 80 0 127 0 0 empty empty tim 0 -9 1 12 #000000 #ffffff #7c7c7c 0 1;
#X obj 198 276 s tim_\$0;
#X obj 217 -142 inlet;
#X text 217 -168 time;
#X obj 124 182 vradio 15 1 0 3 empty empty phs 0 -9 1 10 #fcfcfc #000000 #000000 0;
#X obj 170 -143 inlet;
#X obj 343 -141 inlet;
#X obj 299 -143 inlet;
#X text 298 -167 depth;
#X obj 432 -141 inlet;
#X obj 388 -141 inlet;
#X text 382 -167 feedbk;
#X text 430 -165 delay;
#X obj 126 -143 inlet;
#X obj 80 -143 inlet;
#X obj 36 263 s phase_lfo_\$0;
#X obj 724 609 r phase_lfo_\$0;
#X obj 722 633 sel 0 1 2;
#X text 66 -163 phaselfo;
#X text 62 931 time;
#X text 162 931 depth;
#X text 275 931 feedbk;
#X text 329 931 delay;
#X text -121 931 phaselfo;
#X obj -110 897 outlet;
#X obj 0 902 outlet;
#X obj -56 900 outlet;
#X obj 55 902 outlet;
#X obj 214 901 outlet;
#X obj 161 901 outlet;
#X obj 327 900 outlet;
#X obj 274 900 outlet;
#X obj -122 833 r phase_lfo_\$0;
#X obj 31 857 r tim_\$0;
#X obj 315 847 r \$0-fbdelay;
#X obj 260 823 r \$0-feedback;
#X obj 217 849 r \$0-gain;
#X obj 160 827 r \$0-depth;
#X obj 548 -141 inlet;
#X msg -7 17 0;
#X msg 211 52 0.4;
#N canvas 457 126 1391 715 flanger 0;
#X obj -84 -68 inlet~;
#X obj -32 -69 inlet~;
#N canvas 518 513 1223 258 feedback 0;
#X obj 129 -76 inlet~;
#X obj 296 -73 inlet~;
#X obj 19 142 outlet~;
#X obj 191 154 outlet~;
#X obj 52 58 *~;
#X obj 226 64 *~;
#X obj 36 -77 inlet~;
#X obj 210 -74 inlet~;
#X obj 300 147 block~ 4 1 1;
#X obj 927 -51 inlet~;
#X obj 527 -75 inlet~;
#X obj 713 -67 inlet~;
#X obj 436 148 outlet~;
#X obj 608 160 outlet~;
#X obj 469 64 *~;
#X obj 643 70 *~;
#X obj 453 -71 inlet~;
#X obj 627 -68 inlet~;
#X obj 36 -50 vd~ \$0-flanger-1;
#X obj 211 -44 vd~ \$0-flanger-2;
#X obj 453 -44 vd~ \$0-flanger-3;
#X obj 628 -38 vd~ \$0-flanger-4;
#X obj 58 112 delwrite~ \$0-flanger-1 100;
#X obj 233 115 delwrite~ \$0-flanger-2 100;
#X obj 475 118 delwrite~ \$0-flanger-3 100;
#X obj 650 121 delwrite~ \$0-flanger-4 100;
#X connect 0 0 22 0;
#X connect 1 0 23 0;
#X connect 4 0 22 0;
#X connect 5 0 23 0;
#X connect 6 0 18 0;
#X connect 7 0 19 0;
#X connect 9 0 5 1;
#X connect 9 0 4 1;
#X connect 9 0 15 1;
#X connect 9 0 14 1;
#X connect 10 0 24 0;
#X connect 11 0 25 0;
#X connect 14 0 24 0;
#X connect 15 0 25 0;
#X connect 16 0 20 0;
#X connect 17 0 21 0;
#X connect 18 0 4 0;
#X connect 18 0 2 0;
#X connect 19 0 5 0;
#X connect 19 0 3 0;
#X connect 20 0 14 0;
#X connect 20 0 12 0;
#X connect 21 0 15 0;
#X connect 21 0 13 0;
#X restore 182 426 pd feedback;
#X f 20;
#X obj 268 255 +~ 0.12;
#X obj 344 261 +~ 0.12;
#X obj 13 1033 outlet~;
#X obj 75 1031 outlet~;
#X msg 653 308 \$1 20;
#X obj 655 331 line~;
#X obj 652 243 r \$0-feedback;
#X obj 653 266 * 0.9;
#X obj 654 286 + 0.05;
#X obj 26 -69 inlet~;
#X obj 78 -70 inlet~;
#X obj 439 261 +~ 0.12;
#X obj 542 259 +~ 0.12;
#X obj 148 1036 outlet~;
#X obj 210 1034 outlet~;
#X obj 164 -66 inlet;
#X obj 167 -34 switch~;
#X obj 259 139 r~ lfo1_01_\$0;
#X obj 356 140 r~ lfo2_01_\$0;
#X obj 456 140 r~ lfo3_01_\$0;
#X obj 554 141 r~ lfo4_01_\$0;
#X obj 267 231 *~ 20;
#X obj 343 238 *~ 20;
#X obj 438 238 *~ 20;
#X obj 541 236 *~ 20;
#X connect 0 0 2 1;
#X connect 1 0 2 3;
#X connect 2 0 5 0;
#X connect 2 1 6 0;
#X connect 2 2 16 0;
#X connect 2 3 17 0;
#X connect 3 0 2 0;
#X connect 4 0 2 2;
#X connect 7 0 8 0;
#X connect 8 0 2 8;
#X connect 9 0 10 0;
#X connect 10 0 11 0;
#X connect 11 0 7 0;
#X connect 12 0 2 5;
#X connect 13 0 2 7;
#X connect 14 0 2 4;
#X connect 15 0 2 6;
#X connect 18 0 19 0;
#X connect 20 0 24 0;
#X connect 21 0 25 0;
#X connect 22 0 26 0;
#X connect 23 0 27 0;
#X connect 24 0 3 0;
#X connect 25 0 4 0;
#X connect 26 0 14 0;
#X connect 27 0 15 0;
#X restore -89 514 pd flanger;
#N canvas 137 453 1783 713 phaser 0;
#X obj 136 490 +~;
#N canvas 0 22 249 192 allpass-filter 0;
#X obj 37 136 rpole~;
#X obj 30 87 rzero_rev~;
#X obj 31 23 inlet~;
#X obj 38 160 outlet~;
#X obj 167 48 inlet~;
#X obj 172 139 outlet~;
#X connect 0 0 3 0;
#X connect 1 0 0 0;
#X connect 2 0 1 0;
#X connect 4 0 1 1;
#X connect 4 0 5 0;
#X connect 4 0 0 1;
#X restore 162 218 pd allpass-filter;
#N canvas 0 22 249 192 allpass-filter 0;
#X obj 37 136 rpole~;
#X obj 30 87 rzero_rev~;
#X obj 31 23 inlet~;
#X obj 38 160 outlet~;
#X obj 167 48 inlet~;
#X obj 172 139 outlet~;
#X connect 0 0 3 0;
#X connect 1 0 0 0;
#X connect 2 0 1 0;
#X connect 4 0 1 1;
#X connect 4 0 5 0;
#X connect 4 0 0 1;
#X restore 161 240 pd allpass-filter;
#N canvas 0 22 249 192 allpass-filter 0;
#X obj 37 136 rpole~;
#X obj 30 87 rzero_rev~;
#X obj 31 23 inlet~;
#X obj 38 160 outlet~;
#X obj 167 48 inlet~;
#X obj 172 139 outlet~;
#X connect 0 0 3 0;
#X connect 1 0 0 0;
#X connect 2 0 1 0;
#X connect 4 0 1 1;
#X connect 4 0 5 0;
#X connect 4 0 0 1;
#X restore 160 263 pd allpass-filter;
#N canvas 0 22 249 192 allpass-filter 0;
#X obj 37 136 rpole~;
#X obj 30 87 rzero_rev~;
#X obj 31 23 inlet~;
#X obj 38 160 outlet~;
#X obj 167 48 inlet~;
#X obj 172 139 outlet~;
#X connect 0 0 3 0;
#X connect 1 0 0 0;
#X connect 2 0 1 0;
#X connect 4 0 1 1;
#X connect 4 0 5 0;
#X connect 4 0 0 1;
#X restore 159 285 pd allpass-filter;
#N canvas 0 22 249 192 allpass-filter 0;
#X obj 37 136 rpole~;
#X obj 30 87 rzero_rev~;
#X obj 31 23 inlet~;
#X obj 38 160 outlet~;
#X obj 167 48 inlet~;
#X obj 172 139 outlet~;
#X connect 0 0 3 0;
#X connect 1 0 0 0;
#X connect 2 0 1 0;
#X connect 4 0 1 1;
#X connect 4 0 5 0;
#X connect 4 0 0 1;
#X restore 157 308 pd allpass-filter;
#N canvas 0 22 249 192 allpass-filter 0;
#X obj 37 136 rpole~;
#X obj 30 87 rzero_rev~;
#X obj 31 23 inlet~;
#X obj 38 160 outlet~;
#X obj 167 48 inlet~;
#X obj 172 139 outlet~;
#X connect 0 0 3 0;
#X connect 1 0 0 0;
#X connect 2 0 1 0;
#X connect 4 0 1 1;
#X connect 4 0 5 0;
#X connect 4 0 0 1;
#X restore 156 330 pd allpass-filter;
#N canvas 0 22 249 192 allpass-filter 0;
#X obj 37 136 rpole~;
#X obj 30 87 rzero_rev~;
#X obj 31 23 inlet~;
#X obj 38 160 outlet~;
#X obj 167 48 inlet~;
#X obj 172 139 outlet~;
#X connect 0 0 3 0;
#X connect 1 0 0 0;
#X connect 2 0 1 0;
#X connect 4 0 1 1;
#X connect 4 0 5 0;
#X connect 4 0 0 1;
#X restore 157 351 pd allpass-filter;
#N canvas 0 22 249 192 allpass-filter 0;
#X obj 37 136 rpole~;
#X obj 30 87 rzero_rev~;
#X obj 31 23 inlet~;
#X obj 38 160 outlet~;
#X obj 167 48 inlet~;
#X obj 172 139 outlet~;
#X connect 0 0 3 0;
#X connect 1 0 0 0;
#X connect 2 0 1 0;
#X connect 4 0 1 1;
#X connect 4 0 5 0;
#X connect 4 0 0 1;
#X restore 156 373 pd allpass-filter;
#N canvas 0 22 249 192 allpass-filter 0;
#X obj 37 136 rpole~;
#X obj 30 87 rzero_rev~;
#X obj 31 23 inlet~;
#X obj 38 160 outlet~;
#X obj 167 48 inlet~;
#X obj 172 139 outlet~;
#X connect 0 0 3 0;
#X connect 1 0 0 0;
#X connect 2 0 1 0;
#X connect 4 0 1 1;
#X connect 4 0 5 0;
#X connect 4 0 0 1;
#X restore 154 396 pd allpass-filter;
#N canvas 0 22 249 192 allpass-filter 0;
#X obj 37 136 rpole~;
#X obj 30 87 rzero_rev~;
#X obj 31 23 inlet~;
#X obj 38 160 outlet~;
#X obj 167 48 inlet~;
#X obj 172 139 outlet~;
#X connect 0 0 3 0;
#X connect 1 0 0 0;
#X connect 2 0 1 0;
#X connect 4 0 1 1;
#X connect 4 0 5 0;
#X connect 4 0 0 1;
#X restore 153 418 pd allpass-filter;
#N canvas 0 22 249 192 allpass-filter 0;
#X obj 37 136 rpole~;
#X obj 30 87 rzero_rev~;
#X obj 31 23 inlet~;
#X obj 38 160 outlet~;
#X obj 167 48 inlet~;
#X obj 172 139 outlet~;
#X connect 0 0 3 0;
#X connect 1 0 0 0;
#X connect 2 0 1 0;
#X connect 4 0 1 1;
#X connect 4 0 5 0;
#X connect 4 0 0 1;
#X restore 152 441 pd allpass-filter;
#N canvas 0 22 249 192 allpass-filter 0;
#X obj 37 136 rpole~;
#X obj 30 87 rzero_rev~;
#X obj 31 23 inlet~;
#X obj 38 160 outlet~;
#X obj 167 48 inlet~;
#X obj 172 139 outlet~;
#X connect 0 0 3 0;
#X connect 1 0 0 0;
#X connect 2 0 1 0;
#X connect 4 0 1 1;
#X connect 4 0 5 0;
#X connect 4 0 0 1;
#X restore 151 463 pd allpass-filter;
#X obj 214 163 *~ 0.1;
#X obj 452 439 delwrite~ \$0-fb 100;
#X obj 374 126 sqrt;
#X obj 373 147 clip 0 0.9999;
#X obj 452 413 *~ 0.333333;
#X obj 137 510 hip~ 5;
#X obj 74 221 *~ 1;
#X obj 374 101 * 0.9999;
#X obj 239 666 outlet~;
#X obj 220 -98 inlet~;
#X text 264 8 PHASER;
#X obj 208 73 * 100;
#X obj 209 48 pow 4;
#X msg 212 102 \$1 20;
#X obj 214 121 line~;
#X obj 212 143 vd~ \$0-fb;
#X obj 374 79 r \$0-feedback;
#X obj 211 26 r \$0-fbdelay;
#X text 987 1 PHASER;
#X obj 859 483 +~;
#N canvas 0 22 249 192 allpass-filter 0;
#X obj 37 136 rpole~;
#X obj 30 87 rzero_rev~;
#X obj 31 23 inlet~;
#X obj 38 160 outlet~;
#X obj 167 48 inlet~;
#X obj 172 139 outlet~;
#X connect 0 0 3 0;
#X connect 1 0 0 0;
#X connect 2 0 1 0;
#X connect 4 0 1 1;
#X connect 4 0 5 0;
#X connect 4 0 0 1;
#X restore 885 211 pd allpass-filter;
#N canvas 0 22 249 192 allpass-filter 0;
#X obj 37 136 rpole~;
#X obj 30 87 rzero_rev~;
#X obj 31 23 inlet~;
#X obj 38 160 outlet~;
#X obj 167 48 inlet~;
#X obj 172 139 outlet~;
#X connect 0 0 3 0;
#X connect 1 0 0 0;
#X connect 2 0 1 0;
#X connect 4 0 1 1;
#X connect 4 0 5 0;
#X connect 4 0 0 1;
#X restore 884 233 pd allpass-filter;
#N canvas 0 22 249 192 allpass-filter 0;
#X obj 37 136 rpole~;
#X obj 30 87 rzero_rev~;
#X obj 31 23 inlet~;
#X obj 38 160 outlet~;
#X obj 167 48 inlet~;
#X obj 172 139 outlet~;
#X connect 0 0 3 0;
#X connect 1 0 0 0;
#X connect 2 0 1 0;
#X connect 4 0 1 1;
#X connect 4 0 5 0;
#X connect 4 0 0 1;
#X restore 883 256 pd allpass-filter;
#N canvas 0 22 249 192 allpass-filter 0;
#X obj 37 136 rpole~;
#X obj 30 87 rzero_rev~;
#X obj 31 23 inlet~;
#X obj 38 160 outlet~;
#X obj 167 48 inlet~;
#X obj 172 139 outlet~;
#X connect 0 0 3 0;
#X connect 1 0 0 0;
#X connect 2 0 1 0;
#X connect 4 0 1 1;
#X connect 4 0 5 0;
#X connect 4 0 0 1;
#X restore 882 278 pd allpass-filter;
#N canvas 0 22 249 192 allpass-filter 0;
#X obj 37 136 rpole~;
#X obj 30 87 rzero_rev~;
#X obj 31 23 inlet~;
#X obj 38 160 outlet~;
#X obj 167 48 inlet~;
#X obj 172 139 outlet~;
#X connect 0 0 3 0;
#X connect 1 0 0 0;
#X connect 2 0 1 0;
#X connect 4 0 1 1;
#X connect 4 0 5 0;
#X connect 4 0 0 1;
#X restore 880 301 pd allpass-filter;
#N canvas 0 22 249 192 allpass-filter 0;
#X obj 37 136 rpole~;
#X obj 30 87 rzero_rev~;
#X obj 31 23 inlet~;
#X obj 38 160 outlet~;
#X obj 167 48 inlet~;
#X obj 172 139 outlet~;
#X connect 0 0 3 0;
#X connect 1 0 0 0;
#X connect 2 0 1 0;
#X connect 4 0 1 1;
#X connect 4 0 5 0;
#X connect 4 0 0 1;
#X restore 879 323 pd allpass-filter;
#N canvas 0 22 249 192 allpass-filter 0;
#X obj 37 136 rpole~;
#X obj 30 87 rzero_rev~;
#X obj 31 23 inlet~;
#X obj 38 160 outlet~;
#X obj 167 48 inlet~;
#X obj 172 139 outlet~;
#X connect 0 0 3 0;
#X connect 1 0 0 0;
#X connect 2 0 1 0;
#X connect 4 0 1 1;
#X connect 4 0 5 0;
#X connect 4 0 0 1;
#X restore 880 344 pd allpass-filter;
#N canvas 0 22 249 192 allpass-filter 0;
#X obj 37 136 rpole~;
#X obj 30 87 rzero_rev~;
#X obj 31 23 inlet~;
#X obj 38 160 outlet~;
#X obj 167 48 inlet~;
#X obj 172 139 outlet~;
#X connect 0 0 3 0;
#X connect 1 0 0 0;
#X connect 2 0 1 0;
#X connect 4 0 1 1;
#X connect 4 0 5 0;
#X connect 4 0 0 1;
#X restore 879 366 pd allpass-filter;
#N canvas 0 22 249 192 allpass-filter 0;
#X obj 37 136 rpole~;
#X obj 30 87 rzero_rev~;
#X obj 31 23 inlet~;
#X obj 38 160 outlet~;
#X obj 167 48 inlet~;
#X obj 172 139 outlet~;
#X connect 0 0 3 0;
#X connect 1 0 0 0;
#X connect 2 0 1 0;
#X connect 4 0 1 1;
#X connect 4 0 5 0;
#X connect 4 0 0 1;
#X restore 877 389 pd allpass-filter;
#N canvas 0 22 249 192 allpass-filter 0;
#X obj 37 136 rpole~;
#X obj 30 87 rzero_rev~;
#X obj 31 23 inlet~;
#X obj 38 160 outlet~;
#X obj 167 48 inlet~;
#X obj 172 139 outlet~;
#X connect 0 0 3 0;
#X connect 1 0 0 0;
#X connect 2 0 1 0;
#X connect 4 0 1 1;
#X connect 4 0 5 0;
#X connect 4 0 0 1;
#X restore 876 411 pd allpass-filter;
#N canvas 0 22 249 192 allpass-filter 0;
#X obj 37 136 rpole~;
#X obj 30 87 rzero_rev~;
#X obj 31 23 inlet~;
#X obj 38 160 outlet~;
#X obj 167 48 inlet~;
#X obj 172 139 outlet~;
#X connect 0 0 3 0;
#X connect 1 0 0 0;
#X connect 2 0 1 0;
#X connect 4 0 1 1;
#X connect 4 0 5 0;
#X connect 4 0 0 1;
#X restore 875 434 pd allpass-filter;
#N canvas 0 22 249 192 allpass-filter 0;
#X obj 37 136 rpole~;
#X obj 30 87 rzero_rev~;
#X obj 31 23 inlet~;
#X obj 38 160 outlet~;
#X obj 167 48 inlet~;
#X obj 172 139 outlet~;
#X connect 0 0 3 0;
#X connect 1 0 0 0;
#X connect 2 0 1 0;
#X connect 4 0 1 1;
#X connect 4 0 5 0;
#X connect 4 0 0 1;
#X restore 874 456 pd allpass-filter;
#X obj 937 156 *~ 0.1;
#X obj 1097 119 sqrt;
#X obj 1096 140 clip 0 0.9999;
#X obj 1175 406 *~ 0.333333;
#X obj 860 503 hip~ 5;
#X obj 797 214 *~ 1;
#X obj 1097 94 * 0.9999;
#X obj 1097 72 r \$0-feedback;
#X obj 934 19 r \$0-fbdelay;
#X obj 931 66 * 100;
#X obj 932 41 pow 4;
#X obj 878 660 outlet~;
#X obj 906 -111 inlet~;
#X obj 1175 431 delwrite~ \$0-fbb 100;
#X msg 932 87 \$1 20;
#X obj 937 114 line~;
#X obj 937 134 vd~ \$0-fbb;
#X obj 1576 473 +~;
#N canvas 0 22 249 192 allpass-filter 0;
#X obj 37 136 rpole~;
#X obj 30 87 rzero_rev~;
#X obj 31 23 inlet~;
#X obj 38 160 outlet~;
#X obj 167 48 inlet~;
#X obj 172 139 outlet~;
#X connect 0 0 3 0;
#X connect 1 0 0 0;
#X connect 2 0 1 0;
#X connect 4 0 1 1;
#X connect 4 0 5 0;
#X connect 4 0 0 1;
#X restore 1602 201 pd allpass-filter;
#N canvas 0 22 249 192 allpass-filter 0;
#X obj 37 136 rpole~;
#X obj 30 87 rzero_rev~;
#X obj 31 23 inlet~;
#X obj 38 160 outlet~;
#X obj 167 48 inlet~;
#X obj 172 139 outlet~;
#X connect 0 0 3 0;
#X connect 1 0 0 0;
#X connect 2 0 1 0;
#X connect 4 0 1 1;
#X connect 4 0 5 0;
#X connect 4 0 0 1;
#X restore 1601 223 pd allpass-filter;
#N canvas 0 22 249 192 allpass-filter 0;
#X obj 37 136 rpole~;
#X obj 30 87 rzero_rev~;
#X obj 31 23 inlet~;
#X obj 38 160 outlet~;
#X obj 167 48 inlet~;
#X obj 172 139 outlet~;
#X connect 0 0 3 0;
#X connect 1 0 0 0;
#X connect 2 0 1 0;
#X connect 4 0 1 1;
#X connect 4 0 5 0;
#X connect 4 0 0 1;
#X restore 1600 246 pd allpass-filter;
#N canvas 0 22 249 192 allpass-filter 0;
#X obj 37 136 rpole~;
#X obj 30 87 rzero_rev~;
#X obj 31 23 inlet~;
#X obj 38 160 outlet~;
#X obj 167 48 inlet~;
#X obj 172 139 outlet~;
#X connect 0 0 3 0;
#X connect 1 0 0 0;
#X connect 2 0 1 0;
#X connect 4 0 1 1;
#X connect 4 0 5 0;
#X connect 4 0 0 1;
#X restore 1599 268 pd allpass-filter;
#N canvas 0 22 249 192 allpass-filter 0;
#X obj 37 136 rpole~;
#X obj 30 87 rzero_rev~;
#X obj 31 23 inlet~;
#X obj 38 160 outlet~;
#X obj 167 48 inlet~;
#X obj 172 139 outlet~;
#X connect 0 0 3 0;
#X connect 1 0 0 0;
#X connect 2 0 1 0;
#X connect 4 0 1 1;
#X connect 4 0 5 0;
#X connect 4 0 0 1;
#X restore 1597 291 pd allpass-filter;
#N canvas 0 22 249 192 allpass-filter 0;
#X obj 37 136 rpole~;
#X obj 30 87 rzero_rev~;
#X obj 31 23 inlet~;
#X obj 38 160 outlet~;
#X obj 167 48 inlet~;
#X obj 172 139 outlet~;
#X connect 0 0 3 0;
#X connect 1 0 0 0;
#X connect 2 0 1 0;
#X connect 4 0 1 1;
#X connect 4 0 5 0;
#X connect 4 0 0 1;
#X restore 1596 313 pd allpass-filter;
#N canvas 0 22 249 192 allpass-filter 0;
#X obj 37 136 rpole~;
#X obj 30 87 rzero_rev~;
#X obj 31 23 inlet~;
#X obj 38 160 outlet~;
#X obj 167 48 inlet~;
#X obj 172 139 outlet~;
#X connect 0 0 3 0;
#X connect 1 0 0 0;
#X connect 2 0 1 0;
#X connect 4 0 1 1;
#X connect 4 0 5 0;
#X connect 4 0 0 1;
#X restore 1597 334 pd allpass-filter;
#N canvas 0 22 249 192 allpass-filter 0;
#X obj 37 136 rpole~;
#X obj 30 87 rzero_rev~;
#X obj 31 23 inlet~;
#X obj 38 160 outlet~;
#X obj 167 48 inlet~;
#X obj 172 139 outlet~;
#X connect 0 0 3 0;
#X connect 1 0 0 0;
#X connect 2 0 1 0;
#X connect 4 0 1 1;
#X connect 4 0 5 0;
#X connect 4 0 0 1;
#X restore 1596 356 pd allpass-filter;
#N canvas 0 22 249 192 allpass-filter 0;
#X obj 37 136 rpole~;
#X obj 30 87 rzero_rev~;
#X obj 31 23 inlet~;
#X obj 38 160 outlet~;
#X obj 167 48 inlet~;
#X obj 172 139 outlet~;
#X connect 0 0 3 0;
#X connect 1 0 0 0;
#X connect 2 0 1 0;
#X connect 4 0 1 1;
#X connect 4 0 5 0;
#X connect 4 0 0 1;
#X restore 1594 379 pd allpass-filter;
#N canvas 0 22 249 192 allpass-filter 0;
#X obj 37 136 rpole~;
#X obj 30 87 rzero_rev~;
#X obj 31 23 inlet~;
#X obj 38 160 outlet~;
#X obj 167 48 inlet~;
#X obj 172 139 outlet~;
#X connect 0 0 3 0;
#X connect 1 0 0 0;
#X connect 2 0 1 0;
#X connect 4 0 1 1;
#X connect 4 0 5 0;
#X connect 4 0 0 1;
#X restore 1593 401 pd allpass-filter;
#N canvas 0 22 249 192 allpass-filter 0;
#X obj 37 136 rpole~;
#X obj 30 87 rzero_rev~;
#X obj 31 23 inlet~;
#X obj 38 160 outlet~;
#X obj 167 48 inlet~;
#X obj 172 139 outlet~;
#X connect 0 0 3 0;
#X connect 1 0 0 0;
#X connect 2 0 1 0;
#X connect 4 0 1 1;
#X connect 4 0 5 0;
#X connect 4 0 0 1;
#X restore 1592 424 pd allpass-filter;
#N canvas 0 22 249 192 allpass-filter 0;
#X obj 37 136 rpole~;
#X obj 30 87 rzero_rev~;
#X obj 31 23 inlet~;
#X obj 38 160 outlet~;
#X obj 167 48 inlet~;
#X obj 172 139 outlet~;
#X connect 0 0 3 0;
#X connect 1 0 0 0;
#X connect 2 0 1 0;
#X connect 4 0 1 1;
#X connect 4 0 5 0;
#X connect 4 0 0 1;
#X restore 1591 446 pd allpass-filter;
#X obj 1654 146 *~ 0.1;
#X obj 1814 109 sqrt;
#X obj 1813 130 clip 0 0.9999;
#X obj 1892 396 *~ 0.333333;
#X obj 1577 493 hip~ 5;
#X obj 1514 204 *~ 1;
#X obj 1814 84 * 0.9999;
#X obj 1613 651 outlet~;
#X obj 1591 -145 inlet~;
#X text 1704 -9 PHASER;
#X obj 1648 56 * 100;
#X obj 1649 31 pow 4;
#X msg 1652 85 \$1 20;
#X obj 1654 104 line~;
#X obj 1814 62 r \$0-feedback;
#X obj 1651 9 r \$0-fbdelay;
#X obj 1892 422 delwrite~ \$0-fbbb 100;
#X obj 1652 126 vd~ \$0-fbbb;
#X text 2490 -42 PHASER;
#X obj 2362 440 +~;
#N canvas 0 22 249 192 allpass-filter 0;
#X obj 37 136 rpole~;
#X obj 30 87 rzero_rev~;
#X obj 31 23 inlet~;
#X obj 38 160 outlet~;
#X obj 167 48 inlet~;
#X obj 172 139 outlet~;
#X connect 0 0 3 0;
#X connect 1 0 0 0;
#X connect 2 0 1 0;
#X connect 4 0 1 1;
#X connect 4 0 5 0;
#X connect 4 0 0 1;
#X restore 2388 168 pd allpass-filter;
#N canvas 0 22 249 192 allpass-filter 0;
#X obj 37 136 rpole~;
#X obj 30 87 rzero_rev~;
#X obj 31 23 inlet~;
#X obj 38 160 outlet~;
#X obj 167 48 inlet~;
#X obj 172 139 outlet~;
#X connect 0 0 3 0;
#X connect 1 0 0 0;
#X connect 2 0 1 0;
#X connect 4 0 1 1;
#X connect 4 0 5 0;
#X connect 4 0 0 1;
#X restore 2387 190 pd allpass-filter;
#N canvas 0 22 249 192 allpass-filter 0;
#X obj 37 136 rpole~;
#X obj 30 87 rzero_rev~;
#X obj 31 23 inlet~;
#X obj 38 160 outlet~;
#X obj 167 48 inlet~;
#X obj 172 139 outlet~;
#X connect 0 0 3 0;
#X connect 1 0 0 0;
#X connect 2 0 1 0;
#X connect 4 0 1 1;
#X connect 4 0 5 0;
#X connect 4 0 0 1;
#X restore 2386 213 pd allpass-filter;
#N canvas 0 22 249 192 allpass-filter 0;
#X obj 37 136 rpole~;
#X obj 30 87 rzero_rev~;
#X obj 31 23 inlet~;
#X obj 38 160 outlet~;
#X obj 167 48 inlet~;
#X obj 172 139 outlet~;
#X connect 0 0 3 0;
#X connect 1 0 0 0;
#X connect 2 0 1 0;
#X connect 4 0 1 1;
#X connect 4 0 5 0;
#X connect 4 0 0 1;
#X restore 2385 235 pd allpass-filter;
#N canvas 0 22 249 192 allpass-filter 0;
#X obj 37 136 rpole~;
#X obj 30 87 rzero_rev~;
#X obj 31 23 inlet~;
#X obj 38 160 outlet~;
#X obj 167 48 inlet~;
#X obj 172 139 outlet~;
#X connect 0 0 3 0;
#X connect 1 0 0 0;
#X connect 2 0 1 0;
#X connect 4 0 1 1;
#X connect 4 0 5 0;
#X connect 4 0 0 1;
#X restore 2383 258 pd allpass-filter;
#N canvas 0 22 249 192 allpass-filter 0;
#X obj 37 136 rpole~;
#X obj 30 87 rzero_rev~;
#X obj 31 23 inlet~;
#X obj 38 160 outlet~;
#X obj 167 48 inlet~;
#X obj 172 139 outlet~;
#X connect 0 0 3 0;
#X connect 1 0 0 0;
#X connect 2 0 1 0;
#X connect 4 0 1 1;
#X connect 4 0 5 0;
#X connect 4 0 0 1;
#X restore 2382 280 pd allpass-filter;
#N canvas 0 22 249 192 allpass-filter 0;
#X obj 37 136 rpole~;
#X obj 30 87 rzero_rev~;
#X obj 31 23 inlet~;
#X obj 38 160 outlet~;
#X obj 167 48 inlet~;
#X obj 172 139 outlet~;
#X connect 0 0 3 0;
#X connect 1 0 0 0;
#X connect 2 0 1 0;
#X connect 4 0 1 1;
#X connect 4 0 5 0;
#X connect 4 0 0 1;
#X restore 2383 301 pd allpass-filter;
#N canvas 0 22 249 192 allpass-filter 0;
#X obj 37 136 rpole~;
#X obj 30 87 rzero_rev~;
#X obj 31 23 inlet~;
#X obj 38 160 outlet~;
#X obj 167 48 inlet~;
#X obj 172 139 outlet~;
#X connect 0 0 3 0;
#X connect 1 0 0 0;
#X connect 2 0 1 0;
#X connect 4 0 1 1;
#X connect 4 0 5 0;
#X connect 4 0 0 1;
#X restore 2382 323 pd allpass-filter;
#N canvas 0 22 249 192 allpass-filter 0;
#X obj 37 136 rpole~;
#X obj 30 87 rzero_rev~;
#X obj 31 23 inlet~;
#X obj 38 160 outlet~;
#X obj 167 48 inlet~;
#X obj 172 139 outlet~;
#X connect 0 0 3 0;
#X connect 1 0 0 0;
#X connect 2 0 1 0;
#X connect 4 0 1 1;
#X connect 4 0 5 0;
#X connect 4 0 0 1;
#X restore 2380 346 pd allpass-filter;
#N canvas 0 22 249 192 allpass-filter 0;
#X obj 37 136 rpole~;
#X obj 30 87 rzero_rev~;
#X obj 31 23 inlet~;
#X obj 38 160 outlet~;
#X obj 167 48 inlet~;
#X obj 172 139 outlet~;
#X connect 0 0 3 0;
#X connect 1 0 0 0;
#X connect 2 0 1 0;
#X connect 4 0 1 1;
#X connect 4 0 5 0;
#X connect 4 0 0 1;
#X restore 2379 368 pd allpass-filter;
#N canvas 0 22 249 192 allpass-filter 0;
#X obj 37 136 rpole~;
#X obj 30 87 rzero_rev~;
#X obj 31 23 inlet~;
#X obj 38 160 outlet~;
#X obj 167 48 inlet~;
#X obj 172 139 outlet~;
#X connect 0 0 3 0;
#X connect 1 0 0 0;
#X connect 2 0 1 0;
#X connect 4 0 1 1;
#X connect 4 0 5 0;
#X connect 4 0 0 1;
#X restore 2378 391 pd allpass-filter;
#N canvas 0 22 249 192 allpass-filter 0;
#X obj 37 136 rpole~;
#X obj 30 87 rzero_rev~;
#X obj 31 23 inlet~;
#X obj 38 160 outlet~;
#X obj 167 48 inlet~;
#X obj 172 139 outlet~;
#X connect 0 0 3 0;
#X connect 1 0 0 0;
#X connect 2 0 1 0;
#X connect 4 0 1 1;
#X connect 4 0 5 0;
#X connect 4 0 0 1;
#X restore 2377 413 pd allpass-filter;
#X obj 2440 113 *~ 0.1;
#X obj 2600 76 sqrt;
#X obj 2599 97 clip 0 0.9999;
#X obj 2678 363 *~ 0.333333;
#X obj 2363 460 hip~ 5;
#X obj 2300 171 *~ 1;
#X obj 2600 51 * 0.9999;
#X obj 2600 29 r \$0-feedback;
#X obj 2437 -24 r \$0-fbdelay;
#X obj 2434 23 * 100;
#X obj 2435 -2 pow 4;
#X obj 2358 645 outlet~;
#X obj 2353 -136 inlet~;
#X msg 2435 44 \$1 20;
#X obj 2440 71 line~;
#X obj 2678 388 delwrite~ \$0-fbbbb 100;
#X obj 2440 91 vd~ \$0-fbbbb;
#X obj 2936 -138 inlet;
#X obj 2960 -83 switch~;
#X obj 527 165 r~ lfo1_\$0;
#X obj 1249 197 r~ lfo2_\$0;
#X obj 1948 213 r~ lfo3_\$0;
#X obj 2569 156 r~ lfo4_\$0;
#X obj 558 339 snapshot~;
#X obj 704 204 vsl 18 153 -2 2 0 0 empty empty empty 0 -9 0 10 #fcfcfc #000000 #000000 0 1;
#X obj 553 294 metro 5;
#X obj 563 263 tgl 18 0 empty empty empty 0 -9 0 10 #fcfcfc #000000 #000000 0 1;
#X connect 0 0 18 0;
#X connect 1 0 2 0;
#X connect 1 1 2 1;
#X connect 2 0 3 0;
#X connect 2 1 3 1;
#X connect 3 0 4 0;
#X connect 3 1 4 1;
#X connect 4 0 5 0;
#X connect 4 0 17 0;
#X connect 4 1 5 1;
#X connect 5 0 6 0;
#X connect 5 1 6 1;
#X connect 6 0 7 0;
#X connect 6 1 7 1;
#X connect 7 0 8 0;
#X connect 7 1 8 1;
#X connect 8 0 9 0;
#X connect 8 0 17 0;
#X connect 8 1 9 1;
#X connect 9 0 10 0;
#X connect 9 1 10 1;
#X connect 10 0 11 0;
#X connect 10 1 11 1;
#X connect 11 0 12 0;
#X connect 11 1 12 1;
#X connect 12 0 0 1;
#X connect 12 0 17 0;
#X connect 13 0 1 0;
#X connect 15 0 16 0;
#X connect 16 0 13 1;
#X connect 17 0 14 0;
#X connect 18 0 21 0;
#X connect 19 0 1 0;
#X connect 19 0 0 0;
#X connect 20 0 15 0;
#X connect 22 0 19 0;
#X connect 24 0 26 0;
#X connect 25 0 24 0;
#X connect 26 0 27 0;
#X connect 27 0 28 0;
#X connect 28 0 13 0;
#X connect 29 0 20 0;
#X connect 30 0 25 0;
#X connect 32 0 49 0;
#X connect 33 0 34 0;
#X connect 33 1 34 1;
#X connect 34 0 35 0;
#X connect 34 1 35 1;
#X connect 35 0 36 0;
#X connect 35 1 36 1;
#X connect 36 0 37 0;
#X connect 36 0 48 0;
#X connect 36 1 37 1;
#X connect 37 0 38 0;
#X connect 37 1 38 1;
#X connect 38 0 39 0;
#X connect 38 1 39 1;
#X connect 39 0 40 0;
#X connect 39 1 40 1;
#X connect 40 0 41 0;
#X connect 40 0 48 0;
#X connect 40 1 41 1;
#X connect 41 0 42 0;
#X connect 41 1 42 1;
#X connect 42 0 43 0;
#X connect 42 1 43 1;
#X connect 43 0 44 0;
#X connect 43 1 44 1;
#X connect 44 0 32 1;
#X connect 44 0 48 0;
#X connect 45 0 33 0;
#X connect 46 0 47 0;
#X connect 47 0 45 1;
#X connect 48 0 58 0;
#X connect 49 0 56 0;
#X connect 50 0 33 0;
#X connect 50 0 32 0;
#X connect 51 0 46 0;
#X connect 52 0 51 0;
#X connect 53 0 55 0;
#X connect 54 0 59 0;
#X connect 55 0 54 0;
#X connect 57 0 50 0;
#X connect 59 0 60 0;
#X connect 60 0 61 0;
#X connect 61 0 45 0;
#X connect 62 0 79 0;
#X connect 63 0 64 0;
#X connect 63 1 64 1;
#X connect 64 0 65 0;
#X connect 64 1 65 1;
#X connect 65 0 66 0;
#X connect 65 1 66 1;
#X connect 66 0 67 0;
#X connect 66 0 78 0;
#X connect 66 1 67 1;
#X connect 67 0 68 0;
#X connect 67 1 68 1;
#X connect 68 0 69 0;
#X connect 68 1 69 1;
#X connect 69 0 70 0;
#X connect 69 1 70 1;
#X connect 70 0 71 0;
#X connect 70 0 78 0;
#X connect 70 1 71 1;
#X connect 71 0 72 0;
#X connect 71 1 72 1;
#X connect 72 0 73 0;
#X connect 72 1 73 1;
#X connect 73 0 74 0;
#X connect 73 1 74 1;
#X connect 74 0 62 1;
#X connect 74 0 78 0;
#X connect 75 0 63 0;
#X connect 76 0 77 0;
#X connect 77 0 75 1;
#X connect 78 0 91 0;
#X connect 79 0 82 0;
#X connect 80 0 63 0;
#X connect 80 0 62 0;
#X connect 81 0 76 0;
#X connect 83 0 80 0;
#X connect 85 0 87 0;
#X connect 86 0 85 0;
#X connect 87 0 88 0;
#X connect 88 0 92 0;
#X connect 89 0 81 0;
#X connect 90 0 86 0;
#X connect 92 0 75 0;
#X connect 94 0 111 0;
#X connect 95 0 96 0;
#X connect 95 1 96 1;
#X connect 96 0 97 0;
#X connect 96 1 97 1;
#X connect 97 0 98 0;
#X connect 97 1 98 1;
#X connect 98 0 99 0;
#X connect 98 0 110 0;
#X connect 98 1 99 1;
#X connect 99 0 100 0;
#X connect 99 1 100 1;
#X connect 100 0 101 0;
#X connect 100 1 101 1;
#X connect 101 0 102 0;
#X connect 101 1 102 1;
#X connect 102 0 103 0;
#X connect 102 0 110 0;
#X connect 102 1 103 1;
#X connect 103 0 104 0;
#X connect 103 1 104 1;
#X connect 104 0 105 0;
#X connect 104 1 105 1;
#X connect 105 0 106 0;
#X connect 105 1 106 1;
#X connect 106 0 94 1;
#X connect 106 0 110 0;
#X connect 107 0 95 0;
#X connect 108 0 109 0;
#X connect 109 0 107 1;
#X connect 110 0 122 0;
#X connect 111 0 118 0;
#X connect 112 0 95 0;
#X connect 112 0 94 0;
#X connect 113 0 108 0;
#X connect 114 0 113 0;
#X connect 115 0 117 0;
#X connect 116 0 120 0;
#X connect 117 0 116 0;
#X connect 119 0 112 0;
#X connect 120 0 121 0;
#X connect 121 0 123 0;
#X connect 123 0 107 0;
#X connect 124 0 125 0;
#X connect 126 0 1 1;
#X connect 127 0 33 1;
#X connect 128 0 63 1;
#X connect 129 0 95 1;
#X connect 130 0 131 0;
#X connect 132 0 130 0;
#X connect 133 0 132 0;
#X restore -294 511 pd phaser;
#X obj 124 104 vradio 15 1 0 4 empty empty empty 0 -9 1 10 #fcfcfc #000000 #000000 0;
#X text 101 105 off;
#X text 104 119 ph;
#X obj 479 -140 inlet;
#X obj 392 901 outlet;
#X msg 7 562 1;
#X msg -190 559 1, f 2;
#X obj -473 932 outlet~;
#X obj -403 933 outlet~;
#X obj -338 932 outlet~;
#X obj -271 933 outlet~;
#X obj 842 -119 declare -path ../commons;
#X obj -487 844 dry_wet_quad;
#X obj 306 216 s \$0-dw;
#X obj -198 822 r \$0-dw;
#X text 104 135 fl;
#X text 104 149 tr;
#X obj 609 -138 inlet;
#X text 542 -167 bang_bpm;
#X text 603 -164 ext_rst;
#X obj 635 -92 s ext_rst_\$0;
#X obj 673 149 lfo;
#X obj 684 245 s~ lfo1_\$0;
#X obj 822 153 lfo;
#X obj 835 243 s~ lfo2_\$0;
#X obj 990 155 lfo;
#X obj 1140 153 lfo;
#X obj 990 248 s~ lfo3_\$0;
#X obj 1140 251 s~ lfo4_\$0;
#X obj 525 -85 s ext_bang_\$0;
#X obj 1237 93 r ext_bang_\$0;
#X obj 1252 113 r ext_rst_\$0;
#X obj 1087 94 r ext_bang_\$0;
#X obj 1103 115 r ext_rst_\$0;
#X obj 919 106 r ext_bang_\$0;
#X obj 935 126 r ext_rst_\$0;
#X obj 767 103 r ext_bang_\$0;
#X obj 783 123 r ext_rst_\$0;
#N canvas -106 647 1783 713 tremolo 0;
#X obj 239 666 outlet~;
#X obj 239 -44 inlet~;
#X obj 340 665 outlet~;
#X obj 361 -43 inlet~;
#X obj 459 663 outlet~;
#X obj 479 -42 inlet~;
#X obj 568 664 outlet~;
#X obj 608 -37 inlet~;
#X obj 818 -43 inlet;
#X obj 842 12 switch~;
#X obj 287 16 r~ lfo1_\$0;
#X obj 272 154 *~;
#X obj 387 149 *~;
#X obj 505 151 *~;
#X obj 634 150 *~;
#X obj 411 16 r~ lfo2_\$0;
#X obj 531 20 r~ lfo3_\$0;
#X obj 665 16 r~ lfo4_\$0;
#X obj 283 90 lop~ 400;
#X obj 403 85 lop~ 400;
#X obj 530 87 lop~ 400;
#X obj 665 82 lop~ 400;
#X connect 1 0 11 0;
#X connect 3 0 12 0;
#X connect 5 0 13 0;
#X connect 7 0 14 0;
#X connect 8 0 9 0;
#X connect 10 0 18 0;
#X connect 11 0 0 0;
#X connect 12 0 2 0;
#X connect 13 0 4 0;
#X connect 14 0 6 0;
#X connect 15 0 19 0;
#X connect 16 0 20 0;
#X connect 17 0 21 0;
#X connect 18 0 11 1;
#X connect 19 0 12 1;
#X connect 20 0 13 1;
#X connect 21 0 14 1;
#X restore 117 515 pd tremolo;
#X msg 212 559 1;
#X obj -186 536 sel 1;
#X msg -161 559 0;
#X msg 39 561 0;
#X obj 8 538 sel 2;
#X msg 243 559 0;
#X obj 214 534 sel 3;
#X obj 686 21 r \$0-depth;
#X obj 750 82 r \$0-phase1;
#X obj 903 86 r \$0-phase2;
#X obj 1071 74 r \$0-phase3;
#X obj 1220 73 r \$0-phase4;
#X obj 702 42 r waveform_\$0;
#X obj 735 63 r sync_\$0;
#X obj 838 18 r \$0-depth;
#X obj 854 39 r waveform_\$0;
#X obj 886 64 r sync_\$0;
#X obj 1006 11 r \$0-depth;
#X obj 1022 32 r waveform_\$0;
#X obj 1055 54 r sync_\$0;
#X obj 1151 9 r \$0-depth;
#X obj 1167 30 r waveform_\$0;
#X obj 1200 51 r sync_\$0;
#X msg 797 698 0.5;
#X msg 829 698 0.25;
#X msg 869 698 0.75;
#X obj 4 297 s ph_fl_tr_\$0;
#X obj -186 513 r ph_fl_tr_\$0;
#X obj 4 513 r ph_fl_tr_\$0;
#X obj 211 508 r ph_fl_tr_\$0;
#X obj 189 332 s time_spread_\$0;
#X obj 177 119 vradio 18 1 0 6 empty empty empty 0 -9 0 10 #fcfcfc #000000 #000000 0;
#X obj 1126 674 * 2;
#X obj 1097 675 * 3;
#X obj 1059 712 -;
#X obj 1089 712 -;
#X obj 1129 710 -;
#X obj 1155 674 f;
#X obj 1130 738 / 27;
#X obj 1130 760 * 127;
#X obj 1089 738 / 27;
#X obj 1089 760 * 127;
#X obj 1050 739 / 27;
#X obj 1050 761 * 127;
#X obj 1220 794 s rate1_\$0;
#X obj 1151 793 s rate2_\$0;
#X obj 1083 793 s rate3_\$0;
#X obj 1010 793 s rate4_\$0;
#X obj 1214 733 / 27;
#X obj 1216 758 * 127;
#X floatatom 1124 589 5 0 0 0 - - - 0;
#X obj 1162 603 bng 18 250 50 0 empty empty empty 0 -9 0 10 #fcfcfc #000000 #000000;
#X obj 1139 -14 r rate4_\$0;
#X obj 990 -13 r rate3_\$0;
#X obj 819 -3 r rate2_\$0;
#X obj 668 -3 r rate1_\$0;
#X obj 1124 541 / 127;
#X obj 1124 565 * 27;
#X obj 199 207 tgl 18 0 empty empty empty 0 -9 0 10 #fcfcfc #000000 #000000 0 1;
#X obj 200 257 s sync_\$0;
#X obj 1124 485 r tim_\$0;
#X obj 1124 512 f;
#X obj 1194 613 max 0;
#X obj 1162 563 r time_spread_\$0;
#X obj 966 695 < 0;
#X obj 966 718 sel 1;
#X obj 1032 598 f;
#X obj 1060 599 + 1;
#X obj 966 816 s rst_tim_\$0;
#X obj 1013 568 r rst_tim_\$0;
#X obj 966 795 until;
#X obj 993 745 bng 18 250 50 0 empty empty empty 0 -9 0 10 #fcfcfc #000000 #000000;
#X obj 951 738 del 1;
#X msg 967 765 127;
#X obj 997 643 s rst_tim_val_\$0;
#X obj 250 30 r rst_tim_val_\$0;
#X text 161 -169 timesprd;
#X obj 147 121 vradio 15 1 0 7 empty empty empty 0 -9 0 10 #fcfcfc #000000 #000000 0;
#X text 127 -167 wave;
#X obj 103 331 s waveform_\$0;
#X obj 258 -142 inlet;
#X text 258 -168 sync;
#X text 468 -167 ph-fl-tr;
#X msg 54 16 1;
#X msg 23 17 64;
#X obj 224 102 cnv 18 10 10 empty time_show_\$0 1.33_Hz 2 12 0 10 #ffffff #404040 0;
#X obj 850 316 f \$0;
#X obj 780 316 pack s 0;
#X obj 889 317 bng 20 250 50 0 empty empty empty 0 -10 0 12 #fcfcfc #000000 #000000;
#X obj 915 317 loadbang;
#X msg 779 348 \; time_show_\$2 label \$1;
#X obj 780 413 s show_time_\$0;
#X msg 780 389 symbol \$1;
#X obj 466 900 outlet;
#X obj 433 848 r show_time_\$0;
#X text 445 932 show_time;
#X text -61 931 wave;
#X obj -83 859 r waveform_\$0;
#X obj -21 828 r time_spread_\$0;
#X text -6 931 timesprd;
#X obj 111 901 outlet;
#X obj 90 813 r sync_\$0;
#X text 112 931 sync;
#X text 346 -166 dw;
#X text 224 931 dw;
#X obj 373 806 r ph_fl_tr_\$0;
#X text 383 932 ph-fl-tr;
#X msg 869 729 0.69;
#X msg 796 729 0.57;
#X msg 829 729 0.21;
#X obj 668 267 s~ lfo1_01_\$0;
#X obj 824 266 s~ lfo2_01_\$0;
#X obj 967 279 s~ lfo3_01_\$0;
#X obj 1125 278 s~ lfo4_01_\$0;
#X obj 23 -24 del 100;
#X obj 9 -57 loadbang;
#X connect 0 0 3 0;
#X connect 1 0 6 0;
#X connect 2 0 4 0;
#X connect 5 0 80 0;
#X connect 7 0 8 0;
#X connect 10 0 7 0;
#X connect 10 0 129 0;
#X connect 10 0 130 0;
#X connect 10 0 131 0;
#X connect 11 0 105 0;
#X connect 11 0 65 0;
#X connect 11 0 66 0;
#X connect 11 0 79 0;
#X connect 12 0 105 1;
#X connect 12 0 65 1;
#X connect 12 0 66 1;
#X connect 12 0 79 1;
#X connect 13 0 105 2;
#X connect 13 0 65 2;
#X connect 13 0 66 2;
#X connect 13 0 79 2;
#X connect 14 0 105 3;
#X connect 14 0 65 3;
#X connect 14 0 66 3;
#X connect 14 0 79 3;
#X connect 17 0 8 0;
#X connect 18 0 16 0;
#X connect 19 0 15 0;
#X connect 20 0 9 0;
#X connect 21 0 17 0;
#X connect 21 0 20 0;
#X connect 21 0 19 0;
#X connect 21 0 18 0;
#X connect 22 0 8 0;
#X connect 23 0 22 0;
#X connect 23 0 214 0;
#X connect 23 0 215 0;
#X connect 23 0 213 0;
#X connect 24 0 25 0;
#X connect 26 0 24 0;
#X connect 28 0 39 0;
#X connect 29 0 137 0;
#X connect 30 0 5 0;
#X connect 31 0 1 0;
#X connect 33 0 2 0;
#X connect 34 0 0 0;
#X connect 37 0 183 0;
#X connect 38 0 28 0;
#X connect 40 0 41 0;
#X connect 41 0 21 0;
#X connect 41 1 10 0;
#X connect 41 2 23 0;
#X connect 56 0 48 0;
#X connect 57 0 51 0;
#X connect 58 0 54 0;
#X connect 59 0 55 0;
#X connect 60 0 52 0;
#X connect 61 0 53 0;
#X connect 62 0 96 0;
#X connect 63 0 28 0;
#X connect 63 0 67 0;
#X connect 63 0 183 0;
#X connect 63 0 137 0;
#X connect 63 0 164 0;
#X connect 64 0 5 0;
#X connect 64 0 0 0;
#X connect 64 0 2 0;
#X connect 64 0 24 0;
#X connect 65 0 79 4;
#X connect 65 1 79 5;
#X connect 65 2 79 6;
#X connect 65 3 79 7;
#X connect 66 0 79 4;
#X connect 66 1 79 5;
#X connect 66 2 79 6;
#X connect 66 3 79 7;
#X connect 67 0 132 0;
#X connect 70 0 67 0;
#X connect 72 0 65 4;
#X connect 73 0 66 4;
#X connect 79 0 74 0;
#X connect 79 1 75 0;
#X connect 79 2 76 0;
#X connect 79 3 77 0;
#X connect 81 0 79 8;
#X connect 84 0 87 0;
#X connect 88 0 216 0;
#X connect 88 1 89 0;
#X connect 88 9 193 0;
#X connect 90 0 217 0;
#X connect 90 1 91 0;
#X connect 92 0 218 0;
#X connect 92 1 94 0;
#X connect 93 0 219 0;
#X connect 93 1 95 0;
#X connect 97 0 93 6;
#X connect 98 0 93 7;
#X connect 99 0 92 6;
#X connect 100 0 92 7;
#X connect 101 0 90 6;
#X connect 102 0 90 7;
#X connect 103 0 88 6;
#X connect 104 0 88 7;
#X connect 105 0 79 4;
#X connect 105 1 79 5;
#X connect 105 2 79 6;
#X connect 105 3 79 7;
#X connect 106 0 105 4;
#X connect 107 0 73 0;
#X connect 107 1 108 0;
#X connect 108 0 66 4;
#X connect 109 0 65 4;
#X connect 110 0 72 0;
#X connect 110 1 109 0;
#X connect 111 0 105 4;
#X connect 112 0 106 0;
#X connect 112 1 111 0;
#X connect 113 0 88 1;
#X connect 114 0 88 5;
#X connect 115 0 90 5;
#X connect 116 0 92 5;
#X connect 117 0 93 5;
#X connect 118 0 88 2;
#X connect 119 0 88 4;
#X connect 120 0 90 1;
#X connect 121 0 90 2;
#X connect 122 0 90 4;
#X connect 123 0 92 1;
#X connect 124 0 92 2;
#X connect 125 0 92 4;
#X connect 126 0 93 1;
#X connect 127 0 93 2;
#X connect 128 0 93 4;
#X connect 129 0 9 0;
#X connect 130 0 15 0;
#X connect 131 0 16 0;
#X connect 133 0 107 0;
#X connect 134 0 110 0;
#X connect 135 0 112 0;
#X connect 137 0 136 0;
#X connect 138 0 141 1;
#X connect 139 0 140 1;
#X connect 140 0 148 0;
#X connect 141 0 146 0;
#X connect 142 0 144 0;
#X connect 143 0 142 1;
#X connect 144 0 145 0;
#X connect 145 0 151 0;
#X connect 146 0 147 0;
#X connect 147 0 152 0;
#X connect 148 0 149 0;
#X connect 149 0 153 0;
#X connect 149 0 170 0;
#X connect 154 0 155 0;
#X connect 155 0 150 0;
#X connect 156 0 142 0;
#X connect 156 0 141 0;
#X connect 156 0 140 0;
#X connect 156 0 154 0;
#X connect 157 0 156 0;
#X connect 158 0 93 0;
#X connect 159 0 92 0;
#X connect 160 0 90 0;
#X connect 161 0 88 0;
#X connect 162 0 163 0;
#X connect 163 0 156 0;
#X connect 164 0 165 0;
#X connect 166 0 167 0;
#X connect 167 0 173 0;
#X connect 167 0 162 0;
#X connect 168 0 143 0;
#X connect 168 0 138 0;
#X connect 168 0 139 0;
#X connect 168 0 157 0;
#X connect 169 0 168 0;
#X connect 170 0 171 0;
#X connect 171 0 178 0;
#X connect 171 1 177 0;
#X connect 172 0 180 0;
#X connect 173 0 172 1;
#X connect 175 0 172 0;
#X connect 176 0 174 0;
#X connect 177 0 176 1;
#X connect 178 0 179 0;
#X connect 179 0 176 0;
#X connect 181 0 24 0;
#X connect 183 0 185 0;
#X connect 186 0 164 0;
#X connect 189 0 1 0;
#X connect 190 0 24 0;
#X connect 192 0 193 1;
#X connect 193 0 196 0;
#X connect 193 0 198 0;
#X connect 194 0 192 0;
#X connect 195 0 194 0;
#X connect 198 0 197 0;
#X connect 200 0 199 0;
#X connect 203 0 50 0;
#X connect 204 0 49 0;
#X connect 207 0 206 0;
#X connect 211 0 71 0;
#X connect 213 0 16 0;
#X connect 214 0 9 0;
#X connect 215 0 15 0;
#X connect 220 0 63 0;
#X connect 220 0 189 0;
#X connect 220 0 64 0;
#X connect 220 0 190 0;
#X connect 221 0 220 0;
#X coords 0 -1 1 1 190 130 2 100 100;
