#N canvas 66 32 1854 977 12;
#X obj -244 469 rev3~ 100 90 3000 20;
#X floatatom -164 382 4 0 100 0 - - - 0;
#X floatatom -137 417 6 0 0 0 - - - 0;
#X floatatom -109 443 4 0 100 0 - - - 0;
#X text -89 417 crossover frequency \, Hz.;
#X text -131 377 liveness \, feedback percentage (0-100), f 18;
#X text -74 444 High Frequency damping \, percentage (0-100), f 23;
#X obj -511 -10 inlet~;
#X obj -454 -10 inlet~;
#X obj -396 -10 inlet~;
#X obj -335 -11 inlet~;
#X obj 180 121 vsl 20 100 0 127 0 0 empty empty vol 0 -9 1 12 #000000 #ffffff #7c7c7c 0 1;
#X obj 105 121 vsl 20 100 0 127 0 0 empty empty liv 0 -9 1 12 #000000 #ffffff #7c7c7c 0 1;
#X obj 155 121 vsl 20 100 0 127 0 0 empty empty frq 0 -9 1 12 #000000 #ffffff #7c7c7c 0 1;
#X obj 130 121 vsl 20 100 0 127 0 0 empty empty lop 0 -9 1 12 #000000 #ffffff #7c7c7c 0 1;
#X obj 159 328 loadbang;
#X msg 129 327 100;
#X obj 210 470 loadbang;
#X msg 180 469 100;
#X obj 182 395 loadbang;
#X msg 152 394 100;
#X obj 182 237 s vol_\$0;
#X obj 183 276 r preset_vol_\$0;
#X obj 212 257 loadbang;
#X obj 152 375 s lop_\$0;
#X obj 153 414 r preset_lop_\$0;
#X obj 130 347 r preset_liv_\$0;
#X obj 129 308 s liv_\$0;
#X obj 180 450 s frq_\$0;
#X obj 181 489 r preset_frq_\$0;
#X obj -365 788 r vol_\$0;
#X obj -152 298 / 127;
#X obj -152 323 * 100;
#X obj -152 273 r liv_\$0;
#X obj -86 298 / 127;
#X obj -86 273 r frq_\$0;
#X obj -86 323 * 6000;
#X obj -21 298 / 127;
#X obj -21 273 r lop_\$0;
#X obj -21 323 * 100;
#X obj -213 823 r frq_\$0;
#X obj -280 823 r lop_\$0;
#X obj -345 823 r liv_\$0;
#X obj -142 819 r vol_\$0;
#X obj -130 898 outlet;
#X obj -334 902 outlet;
#X obj -267 899 outlet;
#X obj -198 898 outlet;
#X obj -71 -12 inlet;
#X obj -265 -10 inlet;
#X obj -207 -11 inlet;
#X obj -135 -11 inlet;
#X text -75 -39 vloume;
#X text -276 -38 livelin;
#X text -202 -38 lop;
#X text -139 -38 freq;
#X text -321 926 livelin;
#X text -247 926 lop;
#X text -184 926 freq;
#X text -139 924 voloume;
#X obj -671 908 outlet~;
#X obj -601 909 outlet~;
#X obj -536 908 outlet~;
#X obj -469 909 outlet~;
#X obj -689 821 dry_wet_quad;
#X msg 182 256 0;
#X connect 0 0 64 4;
#X connect 0 1 64 5;
#X connect 0 2 64 6;
#X connect 0 3 64 7;
#X connect 1 0 0 3;
#X connect 2 0 0 4;
#X connect 3 0 0 5;
#X connect 7 0 64 0;
#X connect 7 0 0 0;
#X connect 8 0 64 1;
#X connect 8 0 0 0;
#X connect 9 0 64 2;
#X connect 9 0 0 1;
#X connect 10 0 64 3;
#X connect 10 0 0 1;
#X connect 11 0 21 0;
#X connect 12 0 27 0;
#X connect 13 0 28 0;
#X connect 14 0 24 0;
#X connect 15 0 16 0;
#X connect 16 0 12 0;
#X connect 17 0 18 0;
#X connect 18 0 13 0;
#X connect 19 0 20 0;
#X connect 20 0 14 0;
#X connect 22 0 11 0;
#X connect 23 0 65 0;
#X connect 25 0 14 0;
#X connect 26 0 12 0;
#X connect 29 0 13 0;
#X connect 30 0 64 8;
#X connect 31 0 32 0;
#X connect 32 0 0 3;
#X connect 33 0 31 0;
#X connect 34 0 36 0;
#X connect 35 0 34 0;
#X connect 36 0 0 4;
#X connect 37 0 39 0;
#X connect 38 0 37 0;
#X connect 39 0 0 5;
#X connect 40 0 47 0;
#X connect 41 0 46 0;
#X connect 42 0 45 0;
#X connect 43 0 44 0;
#X connect 48 0 11 0;
#X connect 49 0 12 0;
#X connect 50 0 14 0;
#X connect 51 0 13 0;
#X connect 64 0 60 0;
#X connect 64 1 61 0;
#X connect 64 2 62 0;
#X connect 64 3 63 0;
#X connect 65 0 11 0;
#X coords 0 -1 1 1 105 130 2 100 100;
