#N canvas 52 20 1854 977 10;
#X obj 399 100 s \$0-depth;
#X msg 594 34 0;
#X obj 608 114 s \$0-phase1;
#X obj 607 135 s \$0-phase2;
#X obj 538 34 bng 18 250 50 0 empty empty empty 0 -9 0 10 #fcfcfc #000000 #000000;
#X obj 607 157 s \$0-phase3;
#X obj 606 178 s \$0-phase4;
#X msg 593 7 0;
#X msg 692 7 0;
#X msg 652 7 0;
#X msg 620 7 0;
#X obj 538 7 bng 18 250 50 0 empty empty empty 0 -9 0 10 #fcfcfc #000000 #000000;
#X msg 594 65 0;
#X obj 539 65 bng 18 250 50 0 empty empty empty 0 -9 0 10 #fcfcfc #000000 #000000;
#X obj 181 139 vsl 15 80 0 127 0 0 empty empty tim 0 -9 1 12 #000000 #ffffff #7c7c7c 0 1;
#X obj 198 276 s tim_\$0;
#X obj 147 -142 inlet;
#X text 147 -168 time;
#X obj 157 123 vradio 15 1 0 3 empty empty phs 0 -9 1 10 #fcfcfc #000000 #000000 0;
#X obj 100 -143 inlet;
#X obj 229 -143 inlet;
#X text 228 -167 depth;
#X obj 56 -143 inlet;
#X obj 10 -143 inlet;
#X obj 15 278 s phase_lfo_\$0;
#X obj 548 -55 r phase_lfo_\$0;
#X obj 546 -31 sel 0 1 2;
#X text -4 -163 phaselfo;
#X text 38 956 time;
#X text 138 956 depth;
#X text -145 956 phaselfo;
#X obj -134 922 outlet;
#X obj -24 927 outlet;
#X obj -80 925 outlet;
#X obj 31 927 outlet;
#X obj 137 926 outlet;
#X obj -146 858 r phase_lfo_\$0;
#X obj 7 882 r tim_\$0;
#X obj 136 852 r \$0-depth;
#X obj 371 -142 inlet;
#X msg -7 17 0;
#X msg 144 47 0.4;
#X obj -403 933 outlet~;
#X obj -338 932 outlet~;
#X obj -271 933 outlet~;
#X obj 432 -139 inlet;
#X text 365 -168 bang_bpm;
#X text 426 -165 ext_rst;
#X obj 458 -93 s ext_rst_\$0;
#X obj -471 532 lfo;
#X obj -322 536 lfo;
#X obj -154 538 lfo;
#X obj -4 536 lfo;
#X obj 348 -86 s ext_bang_\$0;
#X obj 75 461 r ext_bang_\$0;
#X obj 90 481 r ext_rst_\$0;
#X obj -80 443 r ext_bang_\$0;
#X obj -64 464 r ext_rst_\$0;
#X obj -248 455 r ext_bang_\$0;
#X obj -232 475 r ext_rst_\$0;
#X obj -400 452 r ext_bang_\$0;
#X obj -384 472 r ext_rst_\$0;
#X obj -479 350 r \$0-depth;
#X obj -417 431 r \$0-phase1;
#X obj -264 435 r \$0-phase2;
#X obj -96 423 r \$0-phase3;
#X obj 58 441 r \$0-phase4;
#X obj -463 371 r waveform_\$0;
#X obj -432 412 r sync_\$0;
#X obj -327 347 r \$0-depth;
#X obj -311 368 r waveform_\$0;
#X obj -281 413 r sync_\$0;
#X obj -159 340 r \$0-depth;
#X obj -143 361 r waveform_\$0;
#X obj -112 403 r sync_\$0;
#X obj -16 358 r \$0-depth;
#X obj 0 379 r waveform_\$0;
#X obj 38 419 r sync_\$0;
#X msg 621 34 0.5;
#X msg 653 34 0.25;
#X msg 693 34 0.75;
#X obj 189 332 s time_spread_\$0;
#X obj 131 108 vradio 18 1 0 6 empty empty empty 0 -9 0 10 #fcfcfc #000000 #000000 0;
#X obj 749 478 * 2;
#X obj 720 479 * 3;
#X obj 682 516 -;
#X obj 712 516 -;
#X obj 752 514 -;
#X obj 778 478 f;
#X obj 753 542 / 27;
#X obj 753 564 * 127;
#X obj 712 542 / 27;
#X obj 712 564 * 127;
#X obj 673 543 / 27;
#X obj 673 565 * 127;
#X obj 837 537 / 27;
#X obj 839 562 * 127;
#X floatatom 747 393 5 0 0 0 - - - 0;
#X obj 785 407 bng 18 250 50 0 empty empty empty 0 -9 0 10 #fcfcfc #000000 #000000;
#X obj -28 335 r rate4_\$0;
#X obj -175 316 r rate3_\$0;
#X obj -346 326 r rate2_\$0;
#X obj -497 326 r rate1_\$0;
#X obj 747 345 / 127;
#X obj 747 369 * 27;
#X obj 157 200 tgl 18 0 empty empty sync 0 -9 0 10 #fcfcfc #000000 #000000 0 1;
#X obj 200 257 s sync_\$0;
#X obj 747 289 r tim_\$0;
#X obj 747 316 f;
#X obj 817 417 max 0;
#X obj 812 371 r time_spread_\$0;
#X obj 250 30 r rst_tim_val_\$0;
#X text 91 -169 timesprd;
#X obj 109 110 vradio 15 1 0 7 empty empty empty 0 -9 0 10 #fcfcfc #000000 #000000 0;
#X text 57 -167 wave;
#X obj 103 331 s waveform_\$0;
#X obj 188 -142 inlet;
#X text 188 -168 sync;
#X msg 54 16 1;
#X msg 23 17 64;
#X obj 180 102 cnv 18 10 10 empty time_show_\$0 0.32_Hz 2 12 0 10 #ffffff #404040 0;
#X obj -257 58 f \$0;
#X obj -327 58 pack s 0;
#X obj -218 59 bng 20 250 50 0 empty empty empty 0 -10 0 12 #fcfcfc #000000 #000000;
#X obj -192 59 loadbang;
#X msg -328 90 \; time_show_\$2 label \$1;
#X obj -327 155 s show_time_\$0;
#X msg -327 131 symbol \$1;
#X obj 295 930 outlet;
#X obj 245 855 r show_time_\$0;
#X text 274 962 show_time;
#X text -85 956 wave;
#X obj -107 884 r waveform_\$0;
#X obj -45 853 r time_spread_\$0;
#X text -30 956 timesprd;
#X obj 87 926 outlet;
#X obj 66 838 r sync_\$0;
#X text 88 956 sync;
#X msg 693 65 0.69;
#X msg 620 65 0.57;
#X msg 653 65 0.21;
#X obj 23 -24 del 100;
#X obj 9 -57 loadbang;
#X obj -608 929 outlet~;
#X obj -543 928 outlet~;
#X obj -476 929 outlet~;
#X obj -813 930 outlet~;
#X obj -748 929 outlet~;
#X obj -681 930 outlet~;
#X obj -1018 926 outlet~;
#X obj -953 925 outlet~;
#X obj -886 926 outlet~;
#X text -1014 960 lfo1;
#X text -946 962 lfo1;
#X text -878 960 lfo1;
#X text -798 956 lfo2;
#X text -741 960 lfo2;
#X text -676 963 lfo2;
#X text -600 959 lfo3;
#X text -532 961 lfo3;
#X text -464 959 lfo3;
#X text -384 955 lfo4;
#X text -326 959 lfo4;
#X text -262 962 lfo4;
#X obj 204 140 vsl 15 80 0 127 0 0 empty empty dep 0 -9 1 12 #000000 #ffffff #7c7c7c 0 1;
#X obj 285 -147 inlet;
#X text 284 -171 mult;
#X obj 16 398 r mult_\$0;
#X obj -128 385 r mult_\$0;
#X obj -302 392 r mult_\$0;
#X obj -444 391 r mult_\$0;
#X obj 272 247 s mult_\$0;
#X obj 197 893 r mult_\$0;
#X obj 217 927 outlet;
#X text 220 958 mult;
#X obj 227 169 vradio 18 1 0 3 empty empty mul 0 -9 0 10 #fcfcfc #000000 #000000 0;
#X obj 458 930 outlet;
#X text 451 957 bang_every_Cycle;
#X obj 448 878 r bang_id_every_cycle_\$0;
#X obj 111 658 s bang_id_every_cycle_\$0;
#X obj -74 656 s bang_id_every_cycle_\$0;
#X obj -232 653 s bang_id_every_cycle_\$0;
#X obj -417 651 s bang_id_every_cycle_\$0;
#X obj 380 929 outlet;
#X text 380 957 error;
#X obj 341 884 r error_\$0;
#X msg 486 429 5;
#X obj 486 452 until;
#X obj 486 476 i;
#X obj 524 475 + 1;
#X obj 521 429 t b b;
#X msg 524 451 0;
#X obj 486 506 sel 0 1 2 3 4;
#X obj 516 367 bng 18 250 50 0 empty empty empty 0 -9 0 10 #fcfcfc #000000 #000000;
#X obj 440 506 print;
#X msg 460 604 0;
#X obj 493 580 sel 1;
#X msg 493 603 1;
#X obj 501 544 < 0;
#X obj 508 394 delay 50;
#X obj 844 685 s rate1_\$0;
#X obj 775 684 s rate2_\$0;
#X obj 707 684 s rate3_\$0;
#X obj 636 685 s rate4_\$0;
#X obj 660 618 max 0;
#X obj 706 617 max 0;
#X obj 757 615 max 0;
#X obj 834 614 max 0;
#X obj 653 650 min 127;
#X obj 708 650 min 127;
#X obj 767 651 min 127;
#X obj 843 650 min 127;
#X obj 472 686 s error_\$0;
#X obj -237 735 s show_time_\$0;
#X msg -306 682 1 \$1;
#X msg -125 686 2 \$1;
#X msg 6 688 3 \$1;
#X msg -469 683 0 \$1;
#X msg -373 622 0;
#X msg -226 625 1;
#X msg -55 625 2;
#X msg 114 631 3;
#X connect 1 0 2 0;
#X connect 4 0 1 0;
#X connect 4 0 78 0;
#X connect 4 0 79 0;
#X connect 4 0 80 0;
#X connect 7 0 2 0;
#X connect 8 0 6 0;
#X connect 9 0 5 0;
#X connect 10 0 3 0;
#X connect 11 0 7 0;
#X connect 11 0 10 0;
#X connect 11 0 9 0;
#X connect 11 0 8 0;
#X connect 12 0 2 0;
#X connect 13 0 12 0;
#X connect 13 0 139 0;
#X connect 13 0 140 0;
#X connect 13 0 138 0;
#X connect 14 0 15 0;
#X connect 16 0 14 0;
#X connect 18 0 24 0;
#X connect 19 0 82 0;
#X connect 20 0 164 0;
#X connect 22 0 113 0;
#X connect 23 0 18 0;
#X connect 25 0 26 0;
#X connect 26 0 11 0;
#X connect 26 1 4 0;
#X connect 26 2 13 0;
#X connect 36 0 31 0;
#X connect 37 0 34 0;
#X connect 38 0 35 0;
#X connect 39 0 53 0;
#X connect 40 0 18 0;
#X connect 40 0 113 0;
#X connect 40 0 82 0;
#X connect 40 0 105 0;
#X connect 41 0 14 0;
#X connect 45 0 48 0;
#X connect 49 0 149 0;
#X connect 49 1 150 0;
#X connect 49 2 151 0;
#X connect 49 9 122 0;
#X connect 49 9 217 0;
#X connect 49 10 218 0;
#X connect 50 0 146 0;
#X connect 50 1 147 0;
#X connect 50 2 148 0;
#X connect 50 9 214 0;
#X connect 50 10 219 0;
#X connect 51 0 143 0;
#X connect 51 1 144 0;
#X connect 51 2 145 0;
#X connect 51 9 215 0;
#X connect 51 10 220 0;
#X connect 52 0 42 0;
#X connect 52 1 43 0;
#X connect 52 2 44 0;
#X connect 52 9 216 0;
#X connect 52 10 221 0;
#X connect 54 0 52 6;
#X connect 55 0 52 7;
#X connect 56 0 51 6;
#X connect 57 0 51 7;
#X connect 58 0 50 6;
#X connect 59 0 50 7;
#X connect 60 0 49 6;
#X connect 61 0 49 7;
#X connect 62 0 49 1;
#X connect 63 0 49 5;
#X connect 64 0 50 5;
#X connect 65 0 51 5;
#X connect 66 0 52 5;
#X connect 67 0 49 2;
#X connect 68 0 49 4;
#X connect 69 0 50 1;
#X connect 70 0 50 2;
#X connect 71 0 50 4;
#X connect 72 0 51 1;
#X connect 73 0 51 2;
#X connect 74 0 51 4;
#X connect 75 0 52 1;
#X connect 76 0 52 2;
#X connect 77 0 52 4;
#X connect 78 0 3 0;
#X connect 79 0 5 0;
#X connect 80 0 6 0;
#X connect 82 0 81 0;
#X connect 83 0 86 1;
#X connect 84 0 85 1;
#X connect 85 0 93 0;
#X connect 86 0 91 0;
#X connect 87 0 89 0;
#X connect 88 0 87 1;
#X connect 89 0 90 0;
#X connect 90 0 198 0;
#X connect 90 0 206 0;
#X connect 91 0 92 0;
#X connect 92 0 198 0;
#X connect 92 0 205 0;
#X connect 93 0 94 0;
#X connect 94 0 198 0;
#X connect 94 0 204 0;
#X connect 95 0 96 0;
#X connect 96 0 198 0;
#X connect 96 0 207 0;
#X connect 97 0 87 0;
#X connect 97 0 86 0;
#X connect 97 0 85 0;
#X connect 97 0 95 0;
#X connect 98 0 97 0;
#X connect 99 0 52 0;
#X connect 100 0 51 0;
#X connect 101 0 50 0;
#X connect 102 0 49 0;
#X connect 103 0 104 0;
#X connect 104 0 97 0;
#X connect 105 0 106 0;
#X connect 107 0 108 0;
#X connect 107 0 193 0;
#X connect 108 0 103 0;
#X connect 109 0 88 0;
#X connect 109 0 83 0;
#X connect 109 0 84 0;
#X connect 109 0 98 0;
#X connect 110 0 109 0;
#X connect 110 0 193 0;
#X connect 111 0 14 0;
#X connect 113 0 115 0;
#X connect 116 0 105 0;
#X connect 118 0 164 0;
#X connect 119 0 14 0;
#X connect 121 0 122 1;
#X connect 122 0 125 0;
#X connect 122 0 127 0;
#X connect 123 0 121 0;
#X connect 124 0 123 0;
#X connect 127 0 126 0;
#X connect 129 0 128 0;
#X connect 132 0 33 0;
#X connect 133 0 32 0;
#X connect 136 0 135 0;
#X connect 138 0 6 0;
#X connect 139 0 3 0;
#X connect 140 0 5 0;
#X connect 141 0 40 0;
#X connect 141 0 118 0;
#X connect 141 0 41 0;
#X connect 141 0 119 0;
#X connect 142 0 141 0;
#X connect 164 0 0 0;
#X connect 165 0 175 0;
#X connect 167 0 52 3;
#X connect 168 0 51 3;
#X connect 169 0 50 3;
#X connect 170 0 49 3;
#X connect 172 0 173 0;
#X connect 175 0 171 0;
#X connect 178 0 176 0;
#X connect 185 0 183 0;
#X connect 186 0 187 0;
#X connect 187 0 188 0;
#X connect 188 0 189 0;
#X connect 188 0 194 0;
#X connect 188 0 192 0;
#X connect 189 0 188 1;
#X connect 190 0 186 0;
#X connect 190 1 191 0;
#X connect 191 0 188 1;
#X connect 192 0 195 0;
#X connect 192 1 94 0;
#X connect 192 2 92 0;
#X connect 192 3 90 0;
#X connect 192 4 96 0;
#X connect 193 0 199 0;
#X connect 195 0 212 0;
#X connect 196 0 197 0;
#X connect 197 0 212 0;
#X connect 198 0 196 0;
#X connect 199 0 190 0;
#X connect 204 0 208 0;
#X connect 205 0 209 0;
#X connect 206 0 210 0;
#X connect 207 0 211 0;
#X connect 208 0 203 0;
#X connect 209 0 202 0;
#X connect 210 0 201 0;
#X connect 211 0 200 0;
#X connect 214 0 213 0;
#X connect 215 0 213 0;
#X connect 216 0 213 0;
#X connect 217 0 213 0;
#X connect 218 0 182 0;
#X connect 219 0 181 0;
#X connect 220 0 180 0;
#X connect 221 0 179 0;
#X coords 0 -1 1 1 152 132 2 100 100;
