#N canvas 436 59 1150 805 10;
#X declare -path ../commons;
#X declare -path ./quad_grains_abs;
#X obj 106 112 tgl 15 1 empty empty frzz 17 7 0 10 #fcfcfc #000000 #000000 1 1;
#X obj 984 565 tgl 15 1 empty empty bypass 17 7 0 10 #fcfcfc #000000 #000000 0 1;
#X obj 1028 564 tgl 15 1 empty empty silence 17 7 0 10 #fcfcfc #000000 #000000 0 1;
#X obj 1088 565 tgl 15 1 empty empty mono 17 7 0 10 #fcfcfc #000000 #000000 0 1;
#X obj 1146 565 tgl 15 1 empty empty lofi 17 7 0 10 #fcfcfc #000000 #000000 0 1;
#X text 965 533 lofi and mono not enabled;
#X msg 264 771 mix \$1;
#X msg 376 771 position \$1;
#X msg 481 797 size \$1;
#X msg 550 800 pitch \$1;
#X msg 634 774 density \$1;
#X msg 725 774 texture \$1;
#X msg 811 774 spread \$1;
#X msg 901 774 feedback \$1;
#X msg 995 775 reverb \$1;
#X msg 1070 777 mode \$1;
#X msg 1139 785 bypass \$1;
#X obj 365 948 clds~ 1.04858e+06 524288;
#X obj 589 952 clds~ 1.04858e+06 524288;
#X obj 236 119 vsl 18 80 0 127 0 0 empty empty dens 0 -9 0 10 #000000 #ffffff #7c7c7c 0 1;
#X obj 647 544 / 127;
#X obj 236 204 tgl 18 0 empty empty cnst 0 10 1 10 #fcfcfc #000000 #000000 0 1;
#X floatatom 1145 537 5 0 0 0 - - - 0;
#X obj 647 596 * 0.5;
#X obj 652 625 expr 0.5 - $f1;
#X obj 612 626 + 0.5;
#X obj 592 703 spigot;
#X obj 670 703 spigot;
#X obj 633 675 == 0;
#X floatatom 634 731 5 0 0 0 - - - 0;
#X obj 700 582 t b f;
#X obj 262 119 vsl 18 100 0 127 0 0 empty empty txtr 0 -9 0 10 #000000 #ffffff #7c7c7c 0 1;
#X obj 724 749 / 127;
#X obj 289 119 vsl 18 100 0 127 0 0 empty empty revb 0 -9 0 10 #000000 #ffffff #7c7c7c 0 1;
#X obj 996 748 / 127;
#X obj 105 152 vradio 18 1 0 4 empty empty mode 0 -9 0 10 #fcfcfc #000000 #000000 0;
#X text 124 152 gran;
#X text 124 206 spct;
#X text 124 188 loop;
#X text 124 170 strc;
#X obj 209 119 vsl 18 80 0 127 0 0 empty empty ptch 0 -9 0 10 #000000 #ffffff #7c7c7c 0 1;
#X obj 547 703 / 127;
#X obj 182 119 vsl 18 100 0 127 0 0 empty empty size 0 -9 0 10 #000000 #ffffff #7c7c7c 0 1;
#X obj 486 712 / 127;
#X msg 220 234 64;
#X obj 156 119 vsl 18 100 0 127 0 0 empty empty pstn 0 -9 0 10 #000000 #ffffff #7c7c7c 0 1;
#X obj 393 738 / 127;
#X obj 807 725 loadbang;
#X msg 807 748 1;
#X text 824 704 stereo_spread;
#X msg 845 747 0;
#X obj 586 91 declare -path ../commons;
#X obj 500 752 - 0.5;
#X obj 209 204 bng 18 250 50 0 empty empty empty 0 -9 0 10 #fcfcfc #000000 #000000;
#X obj 393 1068 r vol_\$0;
#X obj 342 119 vsl 18 100 0 127 0 0 empty empty volu 0 -9 1 10 #000000 #ffffff #7c7c7c 0 1;
#X obj 344 303 s vol_\$0;
#X obj 315 119 vsl 18 100 0 127 0 0 empty empty fdbk 0 -9 1 10 #000000 #ffffff #7c7c7c 0 1;
#X obj 894 748 / 127;
#X obj 264 721 loadbang;
#X msg 264 744 1;
#X obj 635 518 r density_\$0;
#X obj 234 351 s density_\$0;
#X obj 649 572 f;
#X obj 700 551 r constant_\$0;
#X obj 180 2 s constant_\$0;
#X obj 260 -75 s texture_\$0;
#X obj 724 715 r texture_\$0;
#X obj 284 421 s reverb_\$0;
#X obj 995 723 r reverb_\$0;
#X obj 32 -37 s mode_\$0;
#X obj 1069 750 r mode_\$0;
#X obj 315 239 s fbk_\$0;
#X obj 921 719 r fbk_\$0;
#X obj 205 532 s pitch_\$0;
#X obj 179 422 s size_\$0;
#X obj 155 252 s pos_\$0;
#X obj 373 699 r pos_\$0;
#X obj 455 680 r size_\$0;
#X obj 527 675 r pitch_\$0;
#X obj 180 456 r preset_size_\$0;
#X obj 205 497 r preset_pitch_\$0;
#X obj 181 271 loadbang;
#X obj 205 438 loadbang;
#X obj 231 515 loadbang;
#X obj 206 19 loadbang;
#X obj 260 370 loadbang;
#X obj 234 388 r preset_density_\$0;
#X obj 181 37 r preset_constant_\$0;
#X obj 286 -57 loadbang;
#X obj 370 321 loadbang;
#X obj 342 257 loadbang;
#X obj 58 -19 loadbang;
#X obj 311 439 loadbang;
#X obj 286 457 r preset_reverb_\$0;
#X obj 33 -1 r preset_mode_\$0;
#X obj 345 339 r preset_vol_\$0;
#X obj 317 275 r preset_fbk_\$0;
#X obj 261 -39 r preset_texture_\$0;
#X msg 154 270 64;
#X msg 179 439 64;
#X msg 205 515 64;
#X msg 260 -57 64;
#X msg 234 370 64;
#X msg 285 439 64;
#X msg 344 321 90;
#X msg 32 -19 0;
#X msg 180 19 0;
#X msg 316 257 0;
#X obj -205 -227 inlet~;
#X obj 158 289 r preset_pos_\$0;
#X text -199 -251 signal_in;
#X obj 152 -232 inlet;
#X obj 209 -235 inlet;
#X obj 266 -235 inlet;
#X obj 315 -235 inlet;
#X obj 367 -235 inlet;
#X obj 420 -235 inlet;
#X obj 477 -235 inlet;
#X obj 526 -235 inlet;
#X obj 578 -235 inlet;
#X obj 631 -235 inlet;
#X obj 688 -235 inlet;
#X obj 737 -235 inlet;
#X obj 392 1148 outlet;
#X obj 458 1148 outlet;
#X obj 516 1148 outlet;
#X obj 576 1148 outlet;
#X obj 650 1148 outlet;
#X obj 732 1148 outlet;
#X obj 816 1148 outlet;
#X obj 898 1148 outlet;
#X obj 971 1148 outlet;
#X obj 1033 1148 outlet;
#X obj 393 1110 r mode_\$0;
#X obj 457 1110 r pos_\$0;
#X obj 516 1111 r size_\$0;
#X obj 575 1110 r pitch_\$0;
#X obj 646 1110 r density_\$0;
#X obj 729 1110 r constant_\$0;
#X obj 814 1110 r texture_\$0;
#X obj 896 1110 r reverb_\$0;
#X obj 973 1110 r fbk_\$0;
#X obj 1035 1110 r vol_\$0;
#X text 150 -259 frzz;
#X text 204 -259 mode;
#X text 256 -259 position;
#X text 318 -259 size;
#X text 372 -259 pitch;
#X text 416 -259 pitch_rst;
#X text 476 -259 density;
#X text 530 -259 constant;
#X text 582 -259 texture;
#X text 635 -259 reverb;
#X text 689 -259 feedbakc;
#X text 741 -259 volume;
#X text 404 1189 mode;
#X text 456 1189 position;
#X text 518 1189 size;
#X text 572 1189 pitch;
#X text 653 1189 density;
#X text 730 1189 constant;
#X text 818 1189 texture;
#X text 910 1189 reverb;
#X text 964 1189 feedbakc;
#X text 1038 1189 volume;
#X obj 110 812 r~ from_input4_\$0;
#X obj 2 811 r~ from_input3_\$0;
#X obj -106 813 r~ from_input2_\$0;
#X obj -219 813 r~ from_input1_\$0;
#X obj -114 -231 inlet~;
#X text -108 -255 signal_in;
#X obj -21 -237 inlet~;
#X text -15 -261 signal_in;
#X obj 69 -233 inlet~;
#X text 75 -257 signal_in;
#X obj -280 -154 s~ from_input1_\$0;
#X obj -166 -156 s~ from_input2_\$0;
#X obj -52 -157 s~ from_input3_\$0;
#X obj 66 -154 s~ from_input4_\$0;
#X obj 281 629 r freez_\$0;
#X obj -34 170 s freez_\$0;
#X msg 309 676 freeze \$1;
#X obj 577 56 declare -path ./quad_grains_abs;
#X obj 105 1146 outlet~;
#X obj 175 1147 outlet~;
#X obj 240 1146 outlet~;
#X obj 307 1147 outlet~;
#X obj 91 1058 dry_wet_quad;
#X obj 124 961 r~ from_input4_\$0;
#X obj 16 960 r~ from_input3_\$0;
#X obj -92 962 r~ from_input2_\$0;
#X obj -205 962 r~ from_input1_\$0;
#X obj 546 744 * 2;
#X obj 551 770 - 1;
#X connect 0 0 181 0;
#X connect 1 0 16 0;
#X connect 6 0 17 0;
#X connect 6 0 18 0;
#X connect 7 0 17 0;
#X connect 7 0 18 0;
#X connect 8 0 17 0;
#X connect 8 0 18 0;
#X connect 9 0 17 0;
#X connect 9 0 18 0;
#X connect 10 0 17 0;
#X connect 10 0 18 0;
#X connect 11 0 17 0;
#X connect 11 0 18 0;
#X connect 12 0 17 0;
#X connect 12 0 18 0;
#X connect 13 0 17 0;
#X connect 13 0 18 0;
#X connect 14 0 17 0;
#X connect 14 0 18 0;
#X connect 15 0 17 0;
#X connect 15 0 18 0;
#X connect 16 0 17 0;
#X connect 17 0 188 4;
#X connect 17 1 188 5;
#X connect 18 0 188 6;
#X connect 18 1 188 7;
#X connect 19 0 62 0;
#X connect 20 0 63 0;
#X connect 21 0 65 0;
#X connect 23 0 24 0;
#X connect 23 0 25 0;
#X connect 24 0 27 0;
#X connect 25 0 26 0;
#X connect 26 0 29 0;
#X connect 27 0 29 0;
#X connect 28 0 26 1;
#X connect 29 0 10 0;
#X connect 30 0 63 0;
#X connect 30 1 27 1;
#X connect 30 1 28 0;
#X connect 31 0 66 0;
#X connect 32 0 11 0;
#X connect 33 0 68 0;
#X connect 34 0 14 0;
#X connect 35 0 70 0;
#X connect 40 0 74 0;
#X connect 41 0 193 0;
#X connect 42 0 75 0;
#X connect 43 0 8 0;
#X connect 43 0 52 0;
#X connect 44 0 40 0;
#X connect 45 0 76 0;
#X connect 46 0 7 0;
#X connect 47 0 48 0;
#X connect 48 0 12 0;
#X connect 50 0 12 0;
#X connect 53 0 44 0;
#X connect 54 0 188 8;
#X connect 55 0 56 0;
#X connect 57 0 72 0;
#X connect 58 0 13 0;
#X connect 59 0 60 0;
#X connect 60 0 6 0;
#X connect 61 0 20 0;
#X connect 63 0 23 0;
#X connect 64 0 30 0;
#X connect 67 0 32 0;
#X connect 69 0 34 0;
#X connect 71 0 15 0;
#X connect 73 0 58 0;
#X connect 77 0 46 0;
#X connect 78 0 43 0;
#X connect 79 0 41 0;
#X connect 80 0 42 0;
#X connect 81 0 40 0;
#X connect 82 0 99 0;
#X connect 83 0 100 0;
#X connect 84 0 101 0;
#X connect 85 0 107 0;
#X connect 86 0 103 0;
#X connect 87 0 19 0;
#X connect 88 0 21 0;
#X connect 89 0 102 0;
#X connect 90 0 105 0;
#X connect 91 0 108 0;
#X connect 92 0 106 0;
#X connect 93 0 104 0;
#X connect 94 0 33 0;
#X connect 95 0 35 0;
#X connect 96 0 55 0;
#X connect 97 0 57 0;
#X connect 98 0 31 0;
#X connect 99 0 45 0;
#X connect 100 0 42 0;
#X connect 101 0 40 0;
#X connect 102 0 31 0;
#X connect 103 0 19 0;
#X connect 104 0 33 0;
#X connect 105 0 55 0;
#X connect 106 0 35 0;
#X connect 107 0 21 0;
#X connect 108 0 57 0;
#X connect 109 0 176 0;
#X connect 110 0 45 0;
#X connect 112 0 0 0;
#X connect 113 0 35 0;
#X connect 114 0 45 0;
#X connect 115 0 42 0;
#X connect 116 0 40 0;
#X connect 117 0 53 0;
#X connect 118 0 19 0;
#X connect 119 0 21 0;
#X connect 120 0 31 0;
#X connect 121 0 33 0;
#X connect 122 0 57 0;
#X connect 123 0 55 0;
#X connect 134 0 124 0;
#X connect 135 0 125 0;
#X connect 136 0 126 0;
#X connect 137 0 127 0;
#X connect 138 0 128 0;
#X connect 139 0 129 0;
#X connect 140 0 130 0;
#X connect 141 0 131 0;
#X connect 142 0 132 0;
#X connect 143 0 133 0;
#X connect 166 0 18 1;
#X connect 167 0 18 0;
#X connect 168 0 17 1;
#X connect 169 0 17 0;
#X connect 170 0 177 0;
#X connect 172 0 178 0;
#X connect 174 0 179 0;
#X connect 180 0 182 0;
#X connect 182 0 17 0;
#X connect 182 0 18 0;
#X connect 188 0 184 0;
#X connect 188 1 185 0;
#X connect 188 2 186 0;
#X connect 188 3 187 0;
#X connect 189 0 188 3;
#X connect 190 0 188 2;
#X connect 191 0 188 1;
#X connect 192 0 188 0;
#X connect 193 0 194 0;
#X connect 194 0 9 0;
#X coords 0 -1 1 1 265 130 2 100 100;
