#N canvas 434 74 1486 829 12;
#X obj 404 -3 inlet~;
#X obj 458 -3 inlet~;
#X obj 511 -3 inlet~;
#X obj 567 -3 inlet~;
#X obj 290 429 *~;
#X obj 321 430 *~;
#X obj 353 430 *~;
#X obj 384 430 *~;
#X obj 429 430 *~;
#X obj 460 431 *~;
#X obj 492 431 *~;
#X obj 523 431 *~;
#X obj 564 430 *~;
#X obj 595 431 *~;
#X obj 627 431 *~;
#X obj 658 431 *~;
#X obj 703 431 *~;
#X obj 734 432 *~;
#X obj 766 432 *~;
#X obj 797 432 *~;
#X obj 203 371 line~;
#X obj 204 346 pack 0 50;
#X obj 323 374 line~;
#X obj 324 349 pack 0 50;
#X obj 695 368 line~;
#X obj 696 343 pack 0 50;
#X obj 815 371 line~;
#X obj 816 346 pack 0 50;
#X obj 200 322 / 127;
#X obj 325 320 / 127;
#X obj 698 315 / 127;
#X obj 815 316 / 127;
#X obj 104 117 vsl 20 80 0 127 0 0 empty empty mod 0 -9 0 12 #000000 #ffffff #7c7c7c 0 1;
#X obj 130 117 vsl 20 80 0 127 0 0 empty empty del 0 -9 0 12 #000000 #ffffff #7c7c7c 0 1;
#X obj 158 117 vsl 20 80 0 127 0 0 empty empty grn 0 -9 0 12 #000000 #ffffff #7c7c7c 0 1;
#X obj 185 117 vsl 20 80 0 127 0 0 empty empty rev 0 -9 0 12 #000000 #ffffff #7c7c7c 0 1;
#X obj 64 544 outlet~;
#X obj 125 545 outlet~;
#X obj 188 544 outlet~;
#X obj 249 544 outlet~;
#X obj 312 544 outlet~;
#X obj 373 545 outlet~;
#X obj 436 544 outlet~;
#X obj 497 544 outlet~;
#X obj 579 543 outlet~;
#X obj 640 544 outlet~;
#X obj 703 543 outlet~;
#X obj 764 543 outlet~;
#X obj 827 543 outlet~;
#X obj 888 544 outlet~;
#X obj 951 543 outlet~;
#X obj 1012 543 outlet~;
#X obj 638 -2 inlet;
#X obj 701 0 inlet;
#X obj 757 0 inlet;
#X obj 811 -1 inlet;
#X obj 1088 542 outlet;
#X obj 1147 542 outlet;
#X obj 1204 541 outlet;
#X obj 1261 540 outlet;
#X connect 0 0 4 0;
#X connect 0 0 8 0;
#X connect 0 0 12 0;
#X connect 0 0 16 0;
#X connect 1 0 5 0;
#X connect 1 0 9 0;
#X connect 1 0 13 0;
#X connect 1 0 17 0;
#X connect 2 0 6 0;
#X connect 2 0 10 0;
#X connect 2 0 14 0;
#X connect 2 0 18 0;
#X connect 3 0 7 0;
#X connect 3 0 11 0;
#X connect 3 0 15 0;
#X connect 3 0 19 0;
#X connect 4 0 36 0;
#X connect 5 0 37 0;
#X connect 6 0 38 0;
#X connect 7 0 39 0;
#X connect 8 0 40 0;
#X connect 9 0 41 0;
#X connect 10 0 42 0;
#X connect 11 0 43 0;
#X connect 12 0 44 0;
#X connect 13 0 45 0;
#X connect 14 0 46 0;
#X connect 15 0 47 0;
#X connect 16 0 48 0;
#X connect 17 0 49 0;
#X connect 18 0 50 0;
#X connect 19 0 51 0;
#X connect 20 0 4 1;
#X connect 20 0 5 1;
#X connect 20 0 6 1;
#X connect 20 0 7 1;
#X connect 21 0 20 0;
#X connect 22 0 8 1;
#X connect 22 0 9 1;
#X connect 22 0 10 1;
#X connect 22 0 11 1;
#X connect 23 0 22 0;
#X connect 24 0 15 1;
#X connect 24 0 14 1;
#X connect 24 0 13 1;
#X connect 24 0 12 1;
#X connect 25 0 24 0;
#X connect 26 0 19 1;
#X connect 26 0 18 1;
#X connect 26 0 17 1;
#X connect 26 0 16 1;
#X connect 27 0 26 0;
#X connect 28 0 21 0;
#X connect 29 0 23 0;
#X connect 30 0 25 0;
#X connect 31 0 27 0;
#X connect 32 0 28 0;
#X connect 32 0 56 0;
#X connect 33 0 29 0;
#X connect 33 0 57 0;
#X connect 34 0 30 0;
#X connect 34 0 58 0;
#X connect 35 0 31 0;
#X connect 35 0 59 0;
#X connect 52 0 32 0;
#X connect 53 0 33 0;
#X connect 54 0 34 0;
#X connect 55 0 35 0;
#X coords 0 -1 1 1 110 105 2 100 100;
