#N canvas 210 170 1390 715 12;
#X obj -1140 -285 inlet~;
#X obj -399 626 delread~ del1_\$0;
#X obj -229 633 delread~ del2_\$0;
#X obj -80 633 delread~ del3_\$0;
#X obj 62 629 delread~ del4_\$0;
#X obj -607 194 *~;
#X obj -428 193 *~;
#X obj -262 197 *~;
#X obj -96 200 *~;
#X obj 532 168 / 127;
#X obj -368 694 r route_del1_\$0;
#X obj -212 695 r route_del2_\$0;
#X obj -58 696 r route_del3_\$0;
#X obj 74 693 r route_del4_\$0;
#X obj -587 150 r~ to_del1_\$0;
#X obj -245 158 r~ to_del3_\$0;
#X obj -415 155 r~ to_del2_\$0;
#X obj -79 159 r~ to_del4_\$0;
#X obj 705 564 s route_del1_\$0;
#X obj 706 609 s route_del2_\$0;
#X obj 706 653 s route_del3_\$0;
#X obj 705 696 s route_del4_\$0;
#X obj 737 459 sel 0 1 2 3 4 5;
#X msg 698 674 1 0 0 0;
#X obj 826 563 s route_del1_\$0;
#X obj 827 608 s route_del2_\$0;
#X obj 827 652 s route_del3_\$0;
#X obj 826 695 s route_del4_\$0;
#X msg 819 673 1 0 0 0;
#X msg 698 543 0 1 0 0;
#X msg 698 587 0 0 1 0;
#X msg 698 631 0 0 0 1;
#X text 820 519 infinite;
#X text 700 519 eight;
#X obj 950 563 s route_del1_\$0;
#X obj 951 608 s route_del2_\$0;
#X obj 951 652 s route_del3_\$0;
#X obj 950 695 s route_del4_\$0;
#X msg 943 542 0 1 0 0;
#X text 945 518 circle;
#X msg 943 586 0 0 0 1;
#X text 572 460 each delay goes to...;
#X obj -399 601 line;
#X obj -214 609 line;
#X obj -80 611 line;
#X obj 75 604 line;
#X obj 534 254 line;
#X obj 534 224 pack 0 100;
#X obj 584 563 s route_del1_\$0;
#X obj 586 611 s route_del2_\$0;
#X obj 586 655 s route_del3_\$0;
#X obj 585 698 s route_del4_\$0;
#X text 580 521 itself;
#X msg 578 539 1 0 0 0;
#X msg 578 586 0 1 0 0;
#X msg 578 633 0 0 1 0;
#X msg 578 676 0 0 0 1;
#X obj -374 911 s~ to_del1_\$0;
#X obj 83 908 s~ to_del4_\$0;
#X obj -62 910 s~ to_del3_\$0;
#X obj -222 911 s~ to_del2_\$0;
#X obj 694 417 i;
#X obj 718 379 r reload_routing_\$0;
#X obj 533 195 * 0.25;
#X obj 210 119 vsl 20 100 0 127 0 0 empty empty fbk 0 -9 1 12 #000000 #ffffff #7c7c7c 0 1;
#X obj 237 119 vsl 20 100 0 127 0 0 empty empty dif 0 -9 1 12 #000000 #ffffff #7c7c7c 0 1;
#X obj 239 449 s diff_\$0;
#X obj 211 523 s fbk_\$0;
#X obj 210 541 r preset_fbk_\$0;
#X msg 210 561 20;
#X msg 238 471 0;
#X obj 240 561 loadbang;
#X obj 265 471 loadbang;
#X obj 510 -214 inlet;
#X msg 130 472 0;
#X obj 158 472 loadbang;
#X obj 131 451 s chain_\$0;
#X obj 567 370 r chain_\$0;
#X obj 532 142 r fbk_\$0;
#X obj 532 280 s fbk_mul_\$0;
#X obj -226 198 r fbk_mul_\$0;
#X obj -55 198 r fbk_mul_\$0;
#X obj -388 193 r fbk_mul_\$0;
#X obj -568 194 r fbk_mul_\$0;
#X obj -605 259 lo_hi_filter;
#X obj 263 120 vsl 20 80 0 127 0 0 empty empty fil 0 -9 1 12 #000000 #ffffff #7c7c7c 0 1;
#X obj 289 385 loadbang;
#X obj 262 363 s filter_\$0;
#X msg 262 385 64;
#X obj -565 227 r filter_\$0;
#X obj -414 256 lo_hi_filter;
#X obj -395 225 r filter_\$0;
#X obj -254 259 lo_hi_filter;
#X obj -230 228 r filter_\$0;
#X obj -79 262 lo_hi_filter;
#X obj -46 230 r filter_\$0;
#X obj 263 202 bng 20 250 50 0 empty empty empty 0 -10 0 12 #fcfcfc #000000 #000000;
#X msg 262 241 64;
#X obj -1003 -283 inlet~;
#X obj -884 -282 inlet~;
#X obj -772 -281 inlet~;
#X obj 94 667 r diff_\$0;
#X obj -29 669 r diff_\$0;
#X obj -180 669 r diff_\$0;
#X obj -337 669 r diff_\$0;
#X text -520 694 the ping pong;
#X text -928 457 this delay can do many things \; -it has four delays each with their own time but with common feedback and filtering \; -the four inputs can be assigned to the four delays or they can be mixed and be sent to the first channel only \; -the four feedbacks can be mixed (e.g. fbk of delay 1 goes to delay 2...). This is done with the routing message and the route can be more diffuse: it means that the signal goes primarily to a single delay but also to the others.;
#X obj -388 734 one_to_four;
#X obj -213 737 one_to_four;
#X obj -61 736 one_to_four;
#X obj 76 735 one_to_four;
#X obj -605 1162 outlet;
#X obj -788 1161 outlet;
#X obj -699 1163 outlet;
#X obj -413 1164 outlet;
#X obj -506 1164 outlet;
#X obj -322 1165 outlet;
#X obj -231 1166 outlet;
#X obj -148 1164 outlet;
#X obj -604 1115 r time_div_\$0;
#X obj -693 1115 r chain_\$0;
#X obj -396 1116 r time_sync_\$0;
#X obj -483 1118 r tim_\$0;
#X obj -266 1118 r fbk_\$0;
#X obj -197 1118 r diff_\$0;
#X obj -129 1117 r filter_\$0;
#X obj 86 -215 inlet;
#X obj -20 -215 inlet;
#X obj 30 -215 inlet;
#X obj 195 -216 inlet;
#X obj 142 -215 inlet;
#X obj 241 -215 inlet;
#X obj 287 -215 inlet;
#X obj 334 -215 inlet;
#X obj 397 -215 inlet;
#X text -8 -241 mono;
#X text 26 -241 chain;
#X text 187 -242 sync;
#X text 136 -241 time;
#X text 236 -241 feedb;
#X text 285 -241 diff;
#X text 333 -241 filter;
#X text 381 -241 rst_filter;
#X text -794 1195 mono;
#X text -694 1196 chain;
#X text -403 1197 sync;
#X text -498 1194 time;
#X text -318 1196 feedb;
#X text -228 1196 diff;
#X text -150 1196 filter;
#X obj 458 -214 inlet;
#X obj -51 1166 outlet;
#X obj 291 119 vsl 20 100 0 127 0 0 empty empty dw 0 -9 1 12 #000000 #ffffff #7c7c7c 0 1;
#X obj 32 1167 outlet;
#X obj 41 1119 r show_time_\$0;
#X obj 75 579 pack 0 100;
#X obj -80 586 pack 0 100;
#X obj -214 584 pack 0 100;
#X obj -399 576 pack 0 100;
#X obj -1111 1154 outlet~;
#X obj -1041 1155 outlet~;
#X obj -976 1154 outlet~;
#X obj -909 1155 outlet~;
#X obj -1141 979 dry_wet_quad;
#X obj 318 283 loadbang;
#X msg 291 283 0;
#X obj 184 119 vsl 20 80 0 127 0 0 empty empty tim 0 -9 1 12 #000000 #ffffff #7c7c7c 0 1;
#X obj 185 345 s tim_\$0;
#X obj 148 424 s time_spread_\$0;
#X obj 156 119 vradio 18 1 0 4 empty empty sprd 0 -9 1 10 #fcfcfc #000000 #000000 0;
#X obj 1965 1148 s rate1_\$0;
#X obj 1806 1145 s rate2_\$0;
#X obj 1701 1146 s rate3_\$0;
#X obj 1551 1150 s rate4_\$0;
#X obj 187 205 tgl 18 0 empty empty empty 0 -9 0 10 #fcfcfc #000000 #000000 0 1;
#X obj 186 270 s sync_\$0;
#X obj 200 63 r rst_tim_val_\$0;
#X text 464 -243 dw;
#X text 501 -243 ext_bang;
#X obj 459 -125 s ext_bang_\$0;
#X floatatom 1573 1043 8 0 0 0 - - - 0;
#X floatatom 1702 1051 8 0 0 0 - - - 0;
#X floatatom 1793 1049 8 0 0 0 - - - 0;
#X floatatom 1897 1056 8 0 0 0 - - - 0;
#X obj -645 351 delwrite~ del1_\$0 3000;
#X obj -462 351 delwrite~ del2_\$0 3000;
#X obj -297 352 delwrite~ del3_\$0 3000;
#X obj -131 353 delwrite~ del4_\$0 3000;
#X obj 319 120 cnv 20 10 10 empty del1_time_\$0 1869ms 0 12 1 12 #ffffff #404040 0;
#X obj 319 142 cnv 20 10 10 empty del2_time_\$0 1869ms 0 12 1 12 #ffffff #404040 0;
#X obj 319 164 cnv 20 10 10 empty del3_time_\$0 1869ms 0 12 1 12 #ffffff #404040 0;
#X obj 319 186 cnv 20 10 10 empty del4_time_\$0 1869ms 0 12 1 12 #ffffff #404040 0;
#X obj 1440 1310 pack s 0;
#X obj 1505 1312 f \$0;
#X obj 1545 1309 loadbang;
#X obj 1516 1277 bng 20 250 50 0 empty empty empty 0 -10 0 12 #fcfcfc #000000 #000000;
#X obj 1627 1305 pack s 0;
#X obj 1700 1313 f \$0;
#X obj 1740 1310 loadbang;
#X obj 1711 1278 bng 20 250 50 0 empty empty empty 0 -10 0 12 #fcfcfc #000000 #000000;
#X obj 1819 1305 pack s 0;
#X obj 1892 1313 f \$0;
#X obj 1903 1278 bng 20 250 50 0 empty empty empty 0 -10 0 12 #fcfcfc #000000 #000000;
#X obj 2011 1306 pack s 0;
#X obj 2084 1314 f \$0;
#X obj 2075 1281 bng 20 250 50 0 empty empty empty 0 -10 0 12 #fcfcfc #000000 #000000;
#X msg 2011 1346 \; del1_time_\$2 label \$1;
#X msg 1432 1344 \; del4_time_\$2 label \$1;
#X msg 1627 1345 \; del3_time_\$2 label \$1;
#X msg 1819 1345 \; del2_time_\$2 label \$1;
#X obj 1431 1242 makefilename %ims;
#X obj 1629 1241 makefilename %ims;
#X obj 1809 1237 makefilename %ims;
#X obj 2013 1236 makefilename %ims;
#X text 77 -241 timspred;
#X text -622 1196 time_spread;
#X text -37 1196 dw;
#X obj -742 958 r dw_\$0;
#X obj -35 1120 r dw_\$0;
#X obj 290 261 s dw_\$0;
#X obj -399 550 r rate1_\$0;
#X obj -236 557 r rate2_\$0;
#X obj -82 563 r rate3_\$0;
#X obj 56 554 r rate4_\$0;
#X obj -633 -22 four_to_one_select;
#X obj -456 -26 four_to_one_select;
#X obj -294 -26 four_to_one_select;
#X obj -117 -30 four_to_one_select;
#X obj -612 5 r 1_receives_\$0;
#X obj -436 2 r 2_receives_\$0;
#X obj -273 3 r 3_receives_\$0;
#X obj -94 0 r 4_receives_\$0;
#X obj 705 902 s 1_receives_\$0;
#X obj 708 956 s 2_receives_\$0;
#X obj 709 1006 s 3_receives_\$0;
#X obj 711 1060 s 4_receives_\$0;
#X obj 854 903 s 1_receives_\$0;
#X obj 857 957 s 2_receives_\$0;
#X obj 858 1007 s 3_receives_\$0;
#X obj 860 1062 s 4_receives_\$0;
#X obj 1010 902 s 1_receives_\$0;
#X obj 1013 956 s 2_receives_\$0;
#X obj 1014 1006 s 3_receives_\$0;
#X obj 1016 1062 s 4_receives_\$0;
#X obj 546 899 s 1_receives_\$0;
#X obj 549 953 s 2_receives_\$0;
#X obj 550 1003 s 3_receives_\$0;
#X obj 553 1057 s 4_receives_\$0;
#X msg 538 877 1 1 \, 2 0 \, 3 0 \, 4 0;
#X msg 540 930 1 0 \, 2 1 \, 3 0 \, 4 0;
#X msg 539 980 1 0 \, 2 0 \, 3 1 \, 4 0;
#X msg 537 1034 1 0 \, 2 0 \, 3 0 \, 4 1;
#X msg 697 880 1 0 \, 2 0 \, 3 0 \, 4 1;
#X msg 698 934 1 1 \, 2 0 \, 3 0 \, 4 0;
#X msg 705 983 1 0 \, 2 1 \, 3 0 \, 4 0;
#X msg 696 1037 1 0 \, 2 0 \, 3 1 \, 4 0;
#X obj 463 595 tgl 20 0 empty empty empty 0 -10 0 12 #fcfcfc #000000 #000000 0 1;
#X obj 107 289 s mono_\$0;
#X msg 846 881 1 0 \, 2 0 \, 3 0 \, 4 1;
#X msg 1003 933 1 1 \, 2 0 \, 3 0 \, 4 0;
#X msg 1001 1037 1 0 \, 2 1 \, 3 0 \, 4 0;
#X msg 845 984 1 1 \, 2 0 \, 3 0 \, 4 0;
#X obj 479 554 r mono_\$0;
#X obj 539 841 spigot;
#X obj 695 839 spigot;
#X obj 843 839 spigot;
#X obj 999 837 spigot;
#X obj 372 897 s 1_receives_\$0;
#X obj 375 951 s 2_receives_\$0;
#X obj 376 1001 s 3_receives_\$0;
#X obj 379 1055 s 4_receives_\$0;
#X msg 363 1032 1 0 \, 2 0 \, 3 0 \, 4 0;
#X msg 365 978 1 0 \, 2 0 \, 3 0 \, 4 0;
#X obj 433 675 sel 1;
#X obj 469 631 == 0;
#X obj 106 118 tgl 20 0 empty empty mono 0 -10 1 8 #fcfcfc #000000 #000000 0 1;
#X obj 464 711 bng 20 250 50 0 empty empty empty 0 -10 0 12 #fcfcfc #000000 #000000;
#X msg 820 630 0 1 0 0;
#X msg 823 542 0 0 1 0;
#X msg 819 586 0 0 0 1;
#X msg 943 673 0 0 1 0;
#X msg 943 630 1 0 0 0;
#X msg 365 871 0 1;
#X msg 366 928 1 0 \, 2 0 \, 3 0 \, 4 0;
#X msg 845 1038 1 0 \, 2 1 \, 3 0 \, 4 0;
#X msg 847 934 1 0 \, 2 0 \, 3 1 \, 4 0;
#X msg 1003 880 1 0 \, 2 0 \, 3 1 \, 4 0;
#X msg 1001 982 1 0 \, 2 0 \, 3 0 \, 4 1;
#X text 609 764 This represents where the first delay comes from. If the first one on the left means: the delay n1 receives input from the 1 input. The first on the second column means: delay 1 receives input from input 4;
#X obj 175 401 loadbang;
#X msg 148 401 0;
#X obj 273 323 loadbang;
#X obj 214 250 loadbang;
#X msg 185 249 0;
#X obj 131 122 vradio 15 1 0 7 empty empty chain 0 -10 1 8 #fcfcfc #000000 #000000 0;
#X obj 214 324 delay 100;
#X msg 185 323 30;
#X text 35 1195 time_display;
#X obj 2013 1207 t f b;
#X obj 1813 1210 t f b;
#X obj 1681 1209 t f b;
#X obj 1481 1212 t f b;
#X obj 1786 1489 s show_time_\$0;
#X obj 1706 778 * 2;
#X obj 1645 777 * 3;
#X obj 1575 806 -;
#X obj 1687 819 -;
#X obj 1769 813 -;
#X obj 1787 778 f;
#X floatatom 1688 686 5 0 0 0 - - - 0;
#X obj 1726 700 bng 18 250 50 0 empty empty empty 0 -9 0 10 #fcfcfc #000000 #000000;
#X obj 1688 638 / 127;
#X obj 1688 662 * 27;
#X obj 1615 319 r tim_\$0;
#X obj 1688 591 f;
#X obj 1758 710 max 0;
#X obj 1768 671 r time_spread_\$0;
#X obj 1585 621 f;
#X obj 1621 621 + 1;
#X obj 1530 647 s rst_tim_val_\$0;
#X obj 1533 882 internal_sync;
#X obj 1576 835 i;
#X obj 1687 844 i;
#X obj 1769 840 i;
#X obj 1874 839 i;
#X obj 1217 825 r ext_bang_\$0;
#X obj 1584 1013 *;
#X obj 1586 975 t b f;
#X obj 1635 884 internal_sync;
#X obj 1741 884 internal_sync;
#X obj 1844 883 internal_sync;
#X floatatom 1495 994 5 0 0 0 - - - 0;
#X obj 1690 1011 *;
#X obj 1692 973 t b f;
#X obj 1802 1008 *;
#X obj 1804 970 t b f;
#X obj 1907 1007 *;
#X obj 1909 969 t b f;
#X obj 1481 1049 < 100;
#X obj 1516 586 r rst_tim_up_\$0;
#X obj 1842 606 f;
#X obj 1787 632 s rst_tim_val_\$0;
#X obj 1788 606 - 1;
#X obj 1773 571 r rst_tim_down_\$0;
#X obj 1998 1040 > 3000;
#X obj 1437 995 min 125;
#X obj 1392 710 ==;
#X obj 1390 685 > 0;
#X obj 1400 630 ==;
#X obj 1400 656 t b f;
#X floatatom 1640 986 5 0 0 0 - - - 0;
#X floatatom 1748 974 5 0 0 0 - - - 0;
#X obj 1399 604 t b f;
#X obj 1357 574 r time_spread_\$0;
#X obj 1990 1076 tgl 20 0 empty empty empty 0 -10 0 12 #fcfcfc #000000 #000000 0 1;
#X obj 1478 1079 tgl 20 0 empty empty empty 0 -10 0 12 #fcfcfc #000000 #000000 0 1;
#X obj 1318 597 tgl 20 0 empty empty empty 0 -10 0 12 #fcfcfc #000000 #000000 0 1;
#X obj 1554 1104 min 2999;
#X obj 1554 1079 max 100;
#X obj 1705 1105 min 2999;
#X obj 1705 1080 max 100;
#X obj 1796 1106 min 2999;
#X obj 1796 1081 max 100;
#X obj 1917 1110 min 2999;
#X obj 1917 1085 max 100;
#X obj 1795 1464 list trim;
#X obj 1331 1492 s show_time_\$0;
#X obj 1340 1467 list trim;
#X obj 1823 1423 list prepend 1;
#X obj 1715 1422 list prepend 2;
#X obj 1611 1421 list prepend 3;
#X obj 1494 1420 list prepend 4, f 15;
#X obj 1368 1425 list prepend 5;
#X obj 1260 1425 list prepend 6;
#X obj 1156 1424 list prepend 7;
#X obj 1047 1425 list prepend 8;
#X obj 1297 1081 sel 1;
#X msg 1191 1138 delay_too_short;
#X obj 2130 1059 sel 1;
#X msg 2113 1127 delay_too_long;
#X obj 1228 568 sel 1;
#X msg 1216 630 no_spread;
#X obj 1465 915 loadbang;
#X msg 1347 1110 --;
#X msg 2238 1112 --;
#X msg 1303 635 --;
#X obj 1225 719 s show_time_\$0;
#X obj 1225 664 list prepend 0;
#X obj 1225 689 list trim;
#X obj 1191 1220 s show_time_\$0;
#X obj 1191 1165 list prepend 0;
#X obj 1191 1190 list trim;
#X obj 2157 1217 s show_time_\$0;
#X obj 2157 1162 list prepend 0;
#X obj 2157 1187 list trim;
#X obj 1654 365 / 127;
#X msg 1465 940 50;
#X obj 1617 479 spigot;
#X obj 1232 858 change;
#X obj 1228 914 spigot;
#X obj 1313 915 spigot;
#X obj 1406 917 == 0;
#X obj 1405 823 r sync_\$0;
#X obj 1404 861 t b f;
#X obj 1242 888 f;
#X obj 1738 396 r sync_\$0;
#X obj 1738 433 t b f;
#X obj 1696 478 spigot;
#X obj 1610 449 f;
#X obj 1767 461 == 0;
#X obj 1605 392 * 100;
#X msg 1681 427 48;
#X obj 1313 887 f;
#X obj 1347 773 r tim_\$0;
#X obj 1349 802 / 127;
#X obj 1437 971 max 5;
#X obj 1348 829 * 120;
#X obj 1350 854 + 5;
#X obj 1191 1108 delay 50;
#X obj 1218 599 delay 50;
#X obj 2119 1096 delay 50;
#X obj -796 1116 r mono_\$0;
#X connect 0 0 224 0;
#X connect 0 0 225 0;
#X connect 0 0 226 0;
#X connect 0 0 227 0;
#X connect 0 0 163 0;
#X connect 1 0 107 0;
#X connect 1 0 163 4;
#X connect 2 0 108 0;
#X connect 2 0 163 5;
#X connect 3 0 109 0;
#X connect 3 0 163 6;
#X connect 4 0 110 0;
#X connect 4 0 163 7;
#X connect 5 0 84 0;
#X connect 6 0 90 0;
#X connect 7 0 92 0;
#X connect 8 0 94 0;
#X connect 9 0 63 0;
#X connect 10 0 107 1;
#X connect 11 0 108 1;
#X connect 12 0 109 1;
#X connect 13 0 110 1;
#X connect 14 0 5 0;
#X connect 15 0 7 0;
#X connect 16 0 6 0;
#X connect 17 0 8 0;
#X connect 22 0 53 0;
#X connect 22 1 29 0;
#X connect 22 2 278 0;
#X connect 22 3 38 0;
#X connect 23 0 21 0;
#X connect 23 0 264 0;
#X connect 28 0 27 0;
#X connect 28 0 265 0;
#X connect 29 0 30 0;
#X connect 29 0 18 0;
#X connect 30 0 31 0;
#X connect 30 0 19 0;
#X connect 31 0 23 0;
#X connect 31 0 20 0;
#X connect 38 0 40 0;
#X connect 38 0 34 0;
#X connect 40 0 281 0;
#X connect 40 0 35 0;
#X connect 42 0 1 0;
#X connect 43 0 2 0;
#X connect 44 0 3 0;
#X connect 45 0 4 0;
#X connect 46 0 79 0;
#X connect 47 0 46 0;
#X connect 53 0 54 0;
#X connect 53 0 48 0;
#X connect 54 0 55 0;
#X connect 54 0 49 0;
#X connect 55 0 56 0;
#X connect 55 0 50 0;
#X connect 56 0 51 0;
#X connect 56 0 263 0;
#X connect 61 0 22 0;
#X connect 62 0 61 0;
#X connect 63 0 47 0;
#X connect 64 0 67 0;
#X connect 65 0 66 0;
#X connect 68 0 64 0;
#X connect 69 0 64 0;
#X connect 70 0 65 0;
#X connect 71 0 69 0;
#X connect 72 0 70 0;
#X connect 73 0 179 0;
#X connect 74 0 294 0;
#X connect 75 0 74 0;
#X connect 77 0 61 0;
#X connect 78 0 9 0;
#X connect 80 0 7 1;
#X connect 81 0 8 1;
#X connect 82 0 6 1;
#X connect 83 0 5 1;
#X connect 84 0 184 0;
#X connect 85 0 87 0;
#X connect 86 0 88 0;
#X connect 88 0 85 0;
#X connect 89 0 84 1;
#X connect 90 0 185 0;
#X connect 91 0 90 1;
#X connect 92 0 186 0;
#X connect 93 0 92 1;
#X connect 94 0 187 0;
#X connect 95 0 94 1;
#X connect 96 0 97 0;
#X connect 97 0 85 0;
#X connect 98 0 224 1;
#X connect 98 0 225 1;
#X connect 98 0 226 1;
#X connect 98 0 227 1;
#X connect 98 0 163 1;
#X connect 99 0 224 2;
#X connect 99 0 225 2;
#X connect 99 0 226 2;
#X connect 99 0 227 2;
#X connect 99 0 163 2;
#X connect 100 0 224 3;
#X connect 100 0 225 3;
#X connect 100 0 226 3;
#X connect 100 0 227 3;
#X connect 100 0 163 3;
#X connect 101 0 110 2;
#X connect 102 0 109 2;
#X connect 103 0 108 2;
#X connect 104 0 107 2;
#X connect 107 0 57 0;
#X connect 107 1 60 0;
#X connect 107 2 59 0;
#X connect 107 3 58 0;
#X connect 108 0 57 0;
#X connect 108 1 60 0;
#X connect 108 2 59 0;
#X connect 108 3 58 0;
#X connect 109 0 57 0;
#X connect 109 1 60 0;
#X connect 109 2 59 0;
#X connect 109 3 58 0;
#X connect 110 0 57 0;
#X connect 110 1 60 0;
#X connect 110 2 59 0;
#X connect 110 3 58 0;
#X connect 119 0 111 0;
#X connect 120 0 113 0;
#X connect 121 0 114 0;
#X connect 122 0 115 0;
#X connect 123 0 116 0;
#X connect 124 0 117 0;
#X connect 125 0 118 0;
#X connect 126 0 169 0;
#X connect 127 0 275 0;
#X connect 128 0 294 0;
#X connect 129 0 174 0;
#X connect 130 0 166 0;
#X connect 131 0 64 0;
#X connect 132 0 65 0;
#X connect 133 0 85 0;
#X connect 134 0 96 0;
#X connect 150 0 152 0;
#X connect 152 0 219 0;
#X connect 154 0 153 0;
#X connect 155 0 45 0;
#X connect 156 0 44 0;
#X connect 157 0 43 0;
#X connect 158 0 42 0;
#X connect 163 0 159 0;
#X connect 163 1 160 0;
#X connect 163 2 161 0;
#X connect 163 3 162 0;
#X connect 164 0 165 0;
#X connect 165 0 152 0;
#X connect 166 0 167 0;
#X connect 169 0 168 0;
#X connect 174 0 175 0;
#X connect 176 0 166 0;
#X connect 180 0 358 0;
#X connect 181 0 360 0;
#X connect 182 0 362 0;
#X connect 183 0 364 0;
#X connect 192 0 207 0;
#X connect 193 0 192 1;
#X connect 194 0 193 0;
#X connect 195 0 193 0;
#X connect 196 0 208 0;
#X connect 197 0 196 1;
#X connect 198 0 197 0;
#X connect 199 0 197 0;
#X connect 200 0 209 0;
#X connect 201 0 200 1;
#X connect 202 0 201 0;
#X connect 203 0 206 0;
#X connect 204 0 203 1;
#X connect 205 0 204 0;
#X connect 210 0 192 0;
#X connect 210 0 371 0;
#X connect 211 0 196 0;
#X connect 211 0 370 0;
#X connect 212 0 200 0;
#X connect 212 0 369 0;
#X connect 213 0 203 0;
#X connect 213 0 368 0;
#X connect 217 0 163 8;
#X connect 218 0 151 0;
#X connect 220 0 158 0;
#X connect 221 0 157 0;
#X connect 222 0 156 0;
#X connect 223 0 155 0;
#X connect 224 0 5 0;
#X connect 225 0 6 0;
#X connect 226 0 7 0;
#X connect 227 0 8 0;
#X connect 228 0 224 4;
#X connect 229 0 225 4;
#X connect 230 0 226 4;
#X connect 231 0 227 4;
#X connect 248 0 244 0;
#X connect 248 0 249 0;
#X connect 249 0 245 0;
#X connect 249 0 250 0;
#X connect 250 0 246 0;
#X connect 250 0 251 0;
#X connect 251 0 247 0;
#X connect 252 0 232 0;
#X connect 252 0 253 0;
#X connect 253 0 233 0;
#X connect 253 0 254 0;
#X connect 254 0 234 0;
#X connect 254 0 255 0;
#X connect 255 0 235 0;
#X connect 256 0 273 0;
#X connect 256 0 274 0;
#X connect 258 0 236 0;
#X connect 258 0 285 0;
#X connect 259 0 241 0;
#X connect 259 0 287 0;
#X connect 260 0 243 0;
#X connect 261 0 238 0;
#X connect 261 0 284 0;
#X connect 262 0 256 0;
#X connect 263 0 248 0;
#X connect 264 0 252 0;
#X connect 265 0 258 0;
#X connect 266 0 286 0;
#X connect 271 0 270 0;
#X connect 272 0 269 0;
#X connect 272 0 271 0;
#X connect 273 0 282 0;
#X connect 273 1 276 0;
#X connect 274 0 263 1;
#X connect 274 0 264 1;
#X connect 274 0 265 1;
#X connect 274 0 266 1;
#X connect 275 0 257 0;
#X connect 276 0 61 0;
#X connect 277 0 28 0;
#X connect 277 0 26 0;
#X connect 278 0 279 0;
#X connect 278 0 24 0;
#X connect 279 0 277 0;
#X connect 279 0 25 0;
#X connect 280 0 37 0;
#X connect 280 0 266 0;
#X connect 281 0 280 0;
#X connect 281 0 36 0;
#X connect 282 0 267 0;
#X connect 282 0 283 0;
#X connect 283 0 268 0;
#X connect 283 0 272 0;
#X connect 284 0 239 0;
#X connect 285 0 237 0;
#X connect 285 0 261 0;
#X connect 286 0 240 0;
#X connect 286 0 259 0;
#X connect 287 0 242 0;
#X connect 287 0 260 0;
#X connect 289 0 290 0;
#X connect 290 0 169 0;
#X connect 291 0 295 0;
#X connect 292 0 293 0;
#X connect 293 0 174 0;
#X connect 294 0 76 0;
#X connect 295 0 296 0;
#X connect 296 0 166 0;
#X connect 298 0 213 0;
#X connect 298 1 205 0;
#X connect 299 0 212 0;
#X connect 299 1 202 0;
#X connect 300 0 211 0;
#X connect 300 1 199 0;
#X connect 301 0 210 0;
#X connect 301 1 195 0;
#X connect 303 0 306 1;
#X connect 304 0 305 1;
#X connect 305 0 321 0;
#X connect 306 0 322 0;
#X connect 307 0 323 0;
#X connect 308 0 307 1;
#X connect 309 0 307 0;
#X connect 309 0 306 0;
#X connect 309 0 305 0;
#X connect 309 0 324 0;
#X connect 310 0 309 0;
#X connect 311 0 312 0;
#X connect 312 0 309 0;
#X connect 313 0 395 0;
#X connect 314 0 318 0;
#X connect 314 0 311 0;
#X connect 314 0 342 0;
#X connect 315 0 308 0;
#X connect 315 0 303 0;
#X connect 315 0 304 0;
#X connect 315 0 310 0;
#X connect 316 0 315 0;
#X connect 317 0 319 0;
#X connect 318 0 317 1;
#X connect 320 6 327 0;
#X connect 320 6 350 0;
#X connect 320 6 348 0;
#X connect 320 7 375 0;
#X connect 321 0 320 4;
#X connect 322 0 328 4;
#X connect 323 0 329 4;
#X connect 324 0 330 4;
#X connect 325 0 398 0;
#X connect 326 0 180 0;
#X connect 326 0 338 0;
#X connect 327 0 326 0;
#X connect 327 1 326 1;
#X connect 328 6 333 0;
#X connect 328 6 351 0;
#X connect 328 6 352 0;
#X connect 328 7 374 0;
#X connect 329 6 335 0;
#X connect 329 7 373 0;
#X connect 330 6 337 0;
#X connect 330 7 372 0;
#X connect 331 0 326 0;
#X connect 331 0 332 0;
#X connect 331 0 334 0;
#X connect 331 0 336 0;
#X connect 332 0 181 0;
#X connect 333 0 332 0;
#X connect 333 1 332 1;
#X connect 334 0 182 0;
#X connect 335 0 334 0;
#X connect 335 1 334 1;
#X connect 336 0 344 0;
#X connect 336 0 183 0;
#X connect 337 0 336 0;
#X connect 337 1 336 1;
#X connect 338 0 355 0;
#X connect 339 0 317 0;
#X connect 340 0 341 0;
#X connect 342 0 340 1;
#X connect 343 0 340 0;
#X connect 344 0 354 0;
#X connect 345 0 331 0;
#X connect 346 0 356 0;
#X connect 347 0 346 0;
#X connect 348 0 349 0;
#X connect 349 0 347 0;
#X connect 349 1 346 1;
#X connect 352 0 348 0;
#X connect 352 1 348 1;
#X connect 353 0 347 0;
#X connect 354 0 378 0;
#X connect 355 0 376 0;
#X connect 356 0 380 0;
#X connect 357 0 173 0;
#X connect 357 0 301 0;
#X connect 358 0 357 0;
#X connect 359 0 172 0;
#X connect 359 0 300 0;
#X connect 360 0 359 0;
#X connect 361 0 171 0;
#X connect 361 0 299 0;
#X connect 362 0 361 0;
#X connect 363 0 170 0;
#X connect 363 0 298 0;
#X connect 364 0 363 0;
#X connect 365 0 302 0;
#X connect 367 0 366 0;
#X connect 368 0 365 0;
#X connect 369 0 365 0;
#X connect 370 0 365 0;
#X connect 371 0 365 0;
#X connect 372 0 367 0;
#X connect 373 0 367 0;
#X connect 374 0 367 0;
#X connect 375 0 367 0;
#X connect 376 0 418 0;
#X connect 376 1 383 0;
#X connect 377 0 390 0;
#X connect 378 0 420 0;
#X connect 378 1 384 0;
#X connect 379 0 393 0;
#X connect 380 0 419 0;
#X connect 380 1 385 0;
#X connect 381 0 387 0;
#X connect 382 0 396 0;
#X connect 383 0 390 0;
#X connect 384 0 393 0;
#X connect 385 0 387 0;
#X connect 387 0 388 0;
#X connect 388 0 386 0;
#X connect 390 0 391 0;
#X connect 391 0 389 0;
#X connect 393 0 394 0;
#X connect 394 0 392 0;
#X connect 395 0 410 0;
#X connect 396 0 415 0;
#X connect 397 0 314 0;
#X connect 398 0 404 0;
#X connect 399 0 415 0;
#X connect 400 0 415 0;
#X connect 401 0 400 1;
#X connect 402 0 403 0;
#X connect 403 0 404 0;
#X connect 403 1 401 0;
#X connect 403 1 399 1;
#X connect 404 0 399 0;
#X connect 405 0 406 0;
#X connect 406 0 408 0;
#X connect 406 0 411 0;
#X connect 406 1 397 1;
#X connect 406 1 409 0;
#X connect 407 0 314 0;
#X connect 408 0 397 0;
#X connect 409 0 407 1;
#X connect 410 0 408 0;
#X connect 411 0 407 0;
#X connect 412 0 400 0;
#X connect 413 0 414 0;
#X connect 414 0 416 0;
#X connect 415 0 345 0;
#X connect 416 0 417 0;
#X connect 417 0 412 0;
#X connect 418 0 377 0;
#X connect 419 0 381 0;
#X connect 420 0 379 0;
#X connect 421 0 112 0;
#X coords 0 -1 1 1 270 130 2 100 100;
