#N canvas 66 32 1854 977 10;
#X obj 32 614 phasor~;
#X obj 32 636 +~;
#X obj 32 658 cos~;
#X obj 32 680 +~ 1;
#X obj 32 702 *~ 0.5;
#X obj 32 567 mtof~;
#X obj 101 535 / 127;
#X obj 101 599 pack f 50;
#X obj 101 658 line~;
#X obj 32 724 *~;
#X obj 457 616 phasor~;
#X obj 457 660 cos~;
#X obj 457 682 +~ 1;
#X obj 457 704 *~ 0.5;
#X obj 457 726 *~;
#X obj 457 585 mtof~;
#X obj 522 535 / 127;
#X obj 522 632 pack f 50;
#X obj 522 660 line~;
#X obj 169 610 phasor~;
#X obj 169 654 cos~;
#X obj 169 676 +~ 1;
#X obj 169 698 *~ 0.5;
#X obj 169 563 mtof~;
#X obj 238 535 / 127;
#X obj 238 595 pack f 50;
#X obj 238 654 line~;
#X obj 169 720 *~;
#X obj 321 607 phasor~;
#X obj 321 651 cos~;
#X obj 321 673 +~ 1;
#X obj 321 695 *~ 0.5;
#X obj 321 717 *~;
#X obj 321 576 mtof~;
#X obj 386 535 / 127;
#X obj 386 623 pack f 50;
#X obj 386 651 line~;
#X obj 321 629 +~ 0.75;
#X obj 32 396 / 127;
#X obj 169 387 / 127;
#X obj 321 387 / 127;
#X obj 457 387 / 127;
#X obj 101 577 * 5;
#X obj 238 573 * 5;
#X obj 386 601 * 5;
#X obj 522 610 * 5;
#X obj 35 806 *~ 0.5;
#X obj 32 440 - 64;
#X obj 169 443 - 64;
#X obj 321 437 - 64;
#X obj 457 442 - 64;
#X obj 32 418 * 96;
#X obj 169 421 * 96;
#X obj 321 415 * 96;
#X obj 457 420 * 96;
#X obj 32 462 sig~;
#X obj 169 465 sig~;
#X obj 321 459 sig~;
#X obj 457 464 sig~;
#X obj 101 805 *~ 0.5;
#X obj 100 496 r depth_\$0;
#X obj 236 495 r depth_\$0;
#X obj 386 499 r depth_\$0;
#X obj 520 497 r depth_\$0;
#X obj 54 349 r rate_\$0;
#X obj 194 349 r rate_\$0;
#X obj 349 349 r rate_\$0;
#X obj 484 352 r rate_\$0;
#X obj 128 117 vsl 18 100 0 127 0 0 empty empty dep 0 -9 0 10 #000000 #ffffff #7c7c7c 0 1;
#X obj 201 286 s depth_\$0;
#X obj 105 117 vsl 18 100 0 127 0 0 empty empty spd 0 -9 0 10 #000000 #ffffff #7c7c7c 0 1;
#X obj 46 281 s rate_\$0;
#X obj 114 -132 inlet;
#X obj 257 -132 inlet;
#X obj 611 627 phasor~;
#X obj 611 671 cos~;
#X obj 611 693 +~ 1;
#X obj 611 715 *~ 0.5;
#X obj 611 580 mtof~;
#X obj 680 548 / 127;
#X obj 680 612 pack f 50;
#X obj 680 671 line~;
#X obj 611 737 *~;
#X obj 1036 629 phasor~;
#X obj 1036 673 cos~;
#X obj 1036 695 +~ 1;
#X obj 1036 717 *~ 0.5;
#X obj 1036 739 *~;
#X obj 1036 598 mtof~;
#X obj 1101 548 / 127;
#X obj 1101 645 pack f 50;
#X obj 1101 673 line~;
#X obj 748 623 phasor~;
#X obj 748 667 cos~;
#X obj 748 689 +~ 1;
#X obj 748 711 *~ 0.5;
#X obj 748 576 mtof~;
#X obj 817 548 / 127;
#X obj 817 608 pack f 50;
#X obj 817 667 line~;
#X obj 748 733 *~;
#X obj 900 620 phasor~;
#X obj 900 664 cos~;
#X obj 900 686 +~ 1;
#X obj 900 708 *~ 0.5;
#X obj 900 730 *~;
#X obj 900 589 mtof~;
#X obj 965 548 / 127;
#X obj 965 636 pack f 50;
#X obj 965 664 line~;
#X obj 611 409 / 127;
#X obj 748 400 / 127;
#X obj 900 400 / 127;
#X obj 1036 400 / 127;
#X obj 680 590 * 5;
#X obj 817 586 * 5;
#X obj 965 614 * 5;
#X obj 1101 623 * 5;
#X obj 611 453 - 64;
#X obj 748 456 - 64;
#X obj 900 450 - 64;
#X obj 1036 455 - 64;
#X obj 611 431 * 96;
#X obj 748 434 * 96;
#X obj 900 428 * 96;
#X obj 1036 433 * 96;
#X obj 611 475 sig~;
#X obj 748 478 sig~;
#X obj 900 472 sig~;
#X obj 1036 477 sig~;
#X obj 679 509 r depth_\$0;
#X obj 815 508 r depth_\$0;
#X obj 965 512 r depth_\$0;
#X obj 1099 510 r depth_\$0;
#X obj 633 362 r rate_\$0;
#X obj 773 362 r rate_\$0;
#X obj 928 362 r rate_\$0;
#X obj 1063 365 r rate_\$0;
#X obj 122 284 s wide_\$0;
#X obj 152 105 tgl 18 0 empty empty wide 1 10 1 7 #fcfcfc #000000 #000000 0 1;
#X obj 200 794 r wide_\$0;
#X obj 196 819 sel 0 1;
#X msg 192 852 0;
#X msg 227 852 0.5;
#X msg 192 875 1;
#X obj 324 795 *~ 0.5;
#X obj 390 794 *~ 0.5;
#X obj 489 783 r wide_\$0;
#X obj 485 808 sel 0 1;
#X msg 481 841 0;
#X msg 516 841 0.5;
#X msg 481 864 1;
#X obj 614 812 *~ 0.5;
#X obj 680 811 *~ 0.5;
#X obj 779 800 r wide_\$0;
#X obj 775 825 sel 0 1;
#X msg 771 858 0;
#X msg 806 858 0.5;
#X msg 771 881 1;
#X obj 901 812 *~ 0.5;
#X obj 967 811 *~ 0.5;
#X obj 1066 800 r wide_\$0;
#X obj 1062 825 sel 0 1;
#X msg 1058 858 0;
#X msg 1093 858 0.5;
#X msg 1058 881 1;
#X obj 611 649 +~ 0.5;
#X obj 900 642 +~ 0.25;
#X obj 169 632 +~ 0.625;
#X obj 748 645 +~ 0.125;
#X obj 1036 651 +~ 0.875;
#X obj 458 638 +~ 0.375;
#X obj 270 22 loadbang;
#X msg 270 45 0;
#X obj 189 -132 inlet;
#X text 119 -160 rate;
#X text 264 -154 depth;
#X text 194 -154 wide;
#X obj -287 220 delwrite~ \$0-pe-chorus1 100;
#X obj -269 241 delwrite~ \$0-pe-chorus2 100;
#X obj -247 262 delwrite~ \$0-pe-chorus3 100;
#X obj -222 282 delwrite~ \$0-pe-chorus4 100;
#X obj 32 746 vd~ \$0-pe-chorus1;
#X obj 169 756 vd~ \$0-pe-chorus1;
#X obj 326 748 vd~ \$0-pe-chorus2;
#X obj 457 748 vd~ \$0-pe-chorus2;
#X obj 611 759 vd~ \$0-pe-chorus3;
#X obj 748 769 vd~ \$0-pe-chorus3;
#X obj 905 761 vd~ \$0-pe-chorus4;
#X obj 1036 761 vd~ \$0-pe-chorus4;
#X obj -219 -126 inlet~;
#X obj -149 -126 inlet~;
#X obj -80 -126 inlet~;
#X obj 1 -125 inlet~;
#X obj 814 1242 outlet;
#X obj 620 1243 outlet;
#X obj 712 1243 outlet;
#X obj 706 1195 r wide_\$0;
#X obj 805 1195 r depth_\$0;
#X obj 612 1197 r rate_\$0;
#X text 628 1273 rate;
#X text 815 1272 depth;
#X text 716 1273 wide;
#X obj 330 -133 inlet;
#X text 335 -154 vol;
#X obj 921 1242 outlet;
#X text 925 1272 vol;
#X obj 915 1194 r vol_\$0;
#X obj 152 137 vsl 18 80 0 127 0 0 empty empty vol 0 -9 0 10 #000000 #ffffff #7c7c7c 0 1;
#X obj 299 1240 outlet~;
#X obj 369 1241 outlet~;
#X obj 434 1240 outlet~;
#X obj 501 1241 outlet~;
#X obj -219 -95 s~ from_in_1_\$0;
#X obj -148 -67 s~ from_in_2_\$0;
#X obj -79 -40 s~ from_in_3_\$0;
#X obj -8 -18 s~ from_in_4_\$0;
#X obj -303 108 r~ from_in_1_\$0;
#X obj -232 136 r~ from_in_2_\$0;
#X obj -163 163 r~ from_in_3_\$0;
#X obj -92 185 r~ from_in_4_\$0;
#X obj 22 1018 r~ from_in_1_\$0;
#X obj 81 1038 r~ from_in_2_\$0;
#X obj 148 1061 r~ from_in_3_\$0;
#X obj 215 1081 r~ from_in_4_\$0;
#X obj 278 1165 dry_wet_quad;
#X obj 641 1101 r dw_\$0;
#X obj 269 285 s dw_\$0;
#X connect 0 0 1 0;
#X connect 1 0 2 0;
#X connect 2 0 3 0;
#X connect 3 0 4 0;
#X connect 4 0 9 0;
#X connect 5 0 0 0;
#X connect 6 0 42 0;
#X connect 7 0 8 0;
#X connect 8 0 9 1;
#X connect 9 0 182 0;
#X connect 10 0 171 0;
#X connect 11 0 12 0;
#X connect 12 0 13 0;
#X connect 13 0 14 0;
#X connect 14 0 185 0;
#X connect 15 0 10 0;
#X connect 16 0 45 0;
#X connect 17 0 18 0;
#X connect 18 0 14 1;
#X connect 19 0 168 0;
#X connect 20 0 21 0;
#X connect 21 0 22 0;
#X connect 22 0 27 0;
#X connect 23 0 19 0;
#X connect 24 0 43 0;
#X connect 25 0 26 0;
#X connect 26 0 27 1;
#X connect 27 0 183 0;
#X connect 28 0 37 0;
#X connect 29 0 30 0;
#X connect 30 0 31 0;
#X connect 31 0 32 0;
#X connect 32 0 184 0;
#X connect 33 0 28 0;
#X connect 34 0 44 0;
#X connect 35 0 36 0;
#X connect 36 0 32 1;
#X connect 37 0 29 0;
#X connect 38 0 51 0;
#X connect 39 0 52 0;
#X connect 40 0 53 0;
#X connect 41 0 54 0;
#X connect 42 0 7 0;
#X connect 43 0 25 0;
#X connect 44 0 35 0;
#X connect 45 0 17 0;
#X connect 46 0 225 4;
#X connect 47 0 55 0;
#X connect 48 0 56 0;
#X connect 49 0 57 0;
#X connect 50 0 58 0;
#X connect 51 0 47 0;
#X connect 52 0 48 0;
#X connect 53 0 49 0;
#X connect 54 0 50 0;
#X connect 55 0 5 0;
#X connect 56 0 23 0;
#X connect 57 0 33 0;
#X connect 58 0 15 0;
#X connect 59 0 225 4;
#X connect 60 0 6 0;
#X connect 61 0 24 0;
#X connect 62 0 34 0;
#X connect 63 0 16 0;
#X connect 64 0 38 0;
#X connect 65 0 39 0;
#X connect 66 0 40 0;
#X connect 67 0 41 0;
#X connect 68 0 69 0;
#X connect 70 0 71 0;
#X connect 72 0 70 0;
#X connect 73 0 68 0;
#X connect 74 0 166 0;
#X connect 75 0 76 0;
#X connect 76 0 77 0;
#X connect 77 0 82 0;
#X connect 78 0 74 0;
#X connect 79 0 114 0;
#X connect 80 0 81 0;
#X connect 81 0 82 1;
#X connect 82 0 186 0;
#X connect 83 0 170 0;
#X connect 84 0 85 0;
#X connect 85 0 86 0;
#X connect 86 0 87 0;
#X connect 87 0 189 0;
#X connect 88 0 83 0;
#X connect 89 0 117 0;
#X connect 90 0 91 0;
#X connect 91 0 87 1;
#X connect 92 0 169 0;
#X connect 93 0 94 0;
#X connect 94 0 95 0;
#X connect 95 0 100 0;
#X connect 96 0 92 0;
#X connect 97 0 115 0;
#X connect 98 0 99 0;
#X connect 99 0 100 1;
#X connect 100 0 187 0;
#X connect 101 0 167 0;
#X connect 102 0 103 0;
#X connect 103 0 104 0;
#X connect 104 0 105 0;
#X connect 105 0 188 0;
#X connect 106 0 101 0;
#X connect 107 0 116 0;
#X connect 108 0 109 0;
#X connect 109 0 105 1;
#X connect 110 0 122 0;
#X connect 111 0 123 0;
#X connect 112 0 124 0;
#X connect 113 0 125 0;
#X connect 114 0 80 0;
#X connect 115 0 98 0;
#X connect 116 0 108 0;
#X connect 117 0 90 0;
#X connect 118 0 126 0;
#X connect 119 0 127 0;
#X connect 120 0 128 0;
#X connect 121 0 129 0;
#X connect 122 0 118 0;
#X connect 123 0 119 0;
#X connect 124 0 120 0;
#X connect 125 0 121 0;
#X connect 126 0 78 0;
#X connect 127 0 96 0;
#X connect 128 0 106 0;
#X connect 129 0 88 0;
#X connect 130 0 79 0;
#X connect 131 0 97 0;
#X connect 132 0 107 0;
#X connect 133 0 89 0;
#X connect 134 0 110 0;
#X connect 135 0 111 0;
#X connect 136 0 112 0;
#X connect 137 0 113 0;
#X connect 139 0 138 0;
#X connect 140 0 141 0;
#X connect 141 0 142 0;
#X connect 141 1 143 0;
#X connect 142 0 144 0;
#X connect 142 0 59 1;
#X connect 143 0 59 1;
#X connect 143 0 46 1;
#X connect 144 0 46 1;
#X connect 145 0 225 5;
#X connect 146 0 225 5;
#X connect 147 0 148 0;
#X connect 148 0 149 0;
#X connect 148 1 150 0;
#X connect 149 0 151 0;
#X connect 149 0 146 1;
#X connect 150 0 146 1;
#X connect 150 0 145 1;
#X connect 151 0 145 1;
#X connect 152 0 225 6;
#X connect 153 0 225 6;
#X connect 154 0 155 0;
#X connect 155 0 156 0;
#X connect 155 1 157 0;
#X connect 156 0 158 0;
#X connect 156 0 153 1;
#X connect 157 0 153 1;
#X connect 157 0 152 1;
#X connect 158 0 152 1;
#X connect 159 0 225 7;
#X connect 160 0 225 7;
#X connect 161 0 162 0;
#X connect 162 0 163 0;
#X connect 162 1 164 0;
#X connect 163 0 165 0;
#X connect 163 0 160 1;
#X connect 164 0 160 1;
#X connect 164 0 159 1;
#X connect 165 0 159 1;
#X connect 166 0 75 0;
#X connect 167 0 102 0;
#X connect 168 0 20 0;
#X connect 169 0 93 0;
#X connect 170 0 84 0;
#X connect 171 0 11 0;
#X connect 172 0 173 0;
#X connect 173 0 139 0;
#X connect 173 0 68 0;
#X connect 173 0 70 0;
#X connect 173 0 208 0;
#X connect 174 0 139 0;
#X connect 182 0 46 0;
#X connect 183 0 59 0;
#X connect 184 0 145 0;
#X connect 185 0 146 0;
#X connect 186 0 152 0;
#X connect 187 0 153 0;
#X connect 188 0 159 0;
#X connect 189 0 160 0;
#X connect 190 0 213 0;
#X connect 191 0 214 0;
#X connect 192 0 215 0;
#X connect 193 0 216 0;
#X connect 197 0 196 0;
#X connect 198 0 194 0;
#X connect 199 0 195 0;
#X connect 203 0 208 0;
#X connect 207 0 205 0;
#X connect 208 0 227 0;
#X connect 217 0 178 0;
#X connect 218 0 179 0;
#X connect 219 0 180 0;
#X connect 220 0 181 0;
#X connect 221 0 225 0;
#X connect 222 0 225 1;
#X connect 223 0 225 2;
#X connect 224 0 225 3;
#X connect 225 0 209 0;
#X connect 225 1 210 0;
#X connect 225 2 211 0;
#X connect 225 3 212 0;
#X connect 226 0 225 8;
#X coords 0 -1 1 1 75 125 2 100 100;
