#N canvas 245 361 1390 805 12;
#X declare -path ../../modules;
#X obj 784 -322 loadbang;
#X msg 784 -282 \; pd dsp 1;
#X obj 775 51 s osc_out;
#X obj 127 926 s osc_out;
#X obj 609 -327 bng 20 250 50 0 empty empty empty 0 -10 0 12 #fcfcfc #000000 #000000;
#X obj 606 -263 s init;
#X obj 202 27 s osc_out;
#X obj -202 20 s to_all;
#X obj -135 20 s osc_out;
#X obj 328 15 s stop_subproc;
#X obj 328 -19 bng 20 250 50 0 empty empty empty 0 -10 0 12 #fcfcfc #000000 #000000;
#X obj -201 303 s to_all;
#X obj -109 304 s osc_out;
#X obj 669 -273 file patchpath;
#X obj 670 -212 s current_path;
#X msg 678 -241 symbol \$1;
#X obj 607 -300 t b b;
#X obj 152 874 pd~ -ninsig 0 -noutsig 4;
#X obj -201 137 main_connection 101 song;
#X obj 10 -136 main_connection 100 routing;
#X obj -202 -138 main_connection 102 presets;
#X obj 10 -108 main_note_router;
#X obj -202 57 main_osc_handler;
#X obj -201 165 main_song_handler;
#X obj 630 51 main_note_sender 1;
#X obj 631 -15 main_connection 1 osc_name_1;
#X obj -202 -107 main_presets_handler;
#X obj 152 816 main_connection_ext_1 brds_synth_wrap_effects.pd 3 brds 4 brdseffects;
#X obj 152 782 main_note_receiver 1;
#X obj 244 924 main_output;
#X obj 37 73 main_midi_input 1;
#X text 666 16 put here an object;
#X obj 872 -290 declare -path ../../modules;
#X connect 0 0 1 0;
#X connect 0 0 13 0;
#X connect 4 0 16 0;
#X connect 10 0 9 0;
#X connect 13 0 15 0;
#X connect 15 0 14 0;
#X connect 16 0 5 0;
#X connect 16 1 13 0;
#X connect 17 0 3 0;
#X connect 17 1 29 0;
#X connect 17 2 29 1;
#X connect 17 3 29 2;
#X connect 17 4 29 3;
#X connect 18 0 23 0;
#X connect 19 0 21 0;
#X connect 20 0 26 0;
#X connect 21 1 6 0;
#X connect 23 0 11 0;
#X connect 23 1 12 0;
#X connect 26 0 7 0;
#X connect 26 1 8 0;
#X connect 27 0 17 0;
#X connect 28 0 27 0;
