#N canvas 523 120 1397 869 12;
#X obj 391 748 dac~ 1 2 3 4;
#X obj 763 200 loadbang;
#X msg 762 222 \; pd dsp 1;
#X obj 697 744 stdout;
#X obj 428 77 r sub1;
#X obj 288 316 audio_module;
#X obj 605 317 audio_module;
#X obj 591 79 r sub2;
#X connect 1 0 2 0;
#X connect 4 0 5 0;
#X connect 5 0 0 0;
#X connect 5 1 0 1;
#X connect 5 2 0 2;
#X connect 5 3 0 3;
#X connect 5 4 3 0;
#X connect 6 0 0 0;
#X connect 6 1 0 1;
#X connect 6 2 0 2;
#X connect 6 3 0 3;
#X connect 6 4 3 0;
#X connect 7 0 6 0;
#X coords 0 869 1 868 1015 155 0;
