#N canvas 457 159 1390 805 12;
#X declare -path ../modules/commons;
#X floatatom 2093 192 5 0 127 0 - - - 0;
#X obj 2007 106 i;
#X obj 2088 106 i;
#X obj 2119 135 max 0;
#X obj 2006 29 r algo+_\$0;
#X obj 2084 19 r algo-_\$0;
#X obj 2009 157 min 127;
#X obj 2046 105 + 3;
#X obj 2116 106 - 3;
#X obj 2023 192 loadbang;
#X msg 2023 215 0;
#X obj 2092 244 s algo_select_\$0;
#X obj -71 332 *~;
#X obj 571 -74 s ID_\$0;
#X obj 569 -127 loadbang;
#X obj 2149 164 r preset_algo_select_\$0;
#X obj 438 339 *~;
#X obj 96 331 *~;
#X obj 248 335 *~;
#X obj -326 -65 s bang_\$0;
#X obj -255 -65 s rst_\$0;
#X obj -114 447 quad_pan;
#X obj 67 446 quad_pan;
#X obj 245 447 quad_pan;
#X obj 422 446 quad_pan;
#X obj 93 603 outlet~;
#X obj 154 603 outlet~;
#X obj 220 603 outlet~;
#X obj 282 603 outlet~;
#X obj -77 394 r x_1_\$0;
#X obj -15 394 r y_1_\$0;
#X obj 90 393 r x_2_\$0;
#X obj 157 393 r y_2_\$0;
#X obj 255 396 r x_3_\$0;
#X obj 319 398 r y_3_\$0;
#X obj 515 395 r y_4_\$0;
#X obj 454 396 r x_4_\$0;
#X obj 192 -93 s note_in_\$0;
#X obj 572 -48 loadbang;
#X msg 572 -22 \; pd dsp 1;
#X msg 570 -100 0;
#X obj 2010 65 bng 20 250 50 0 empty empty empty 0 -10 0 12 #fcfcfc #000000 #000000;
#X obj 2093 69 bng 20 250 50 0 empty empty empty 0 -10 0 12 #fcfcfc #000000 #000000;
#X obj -276 -152 inlet;
#X obj -50 -63 s save_\$0;
#X obj -126 -62 s load_\$0;
#X obj -186 -63 s ID_\$0;
#X obj 77 27 s control_\$0;
#X obj 77 -1 route name;
#X obj -26 -91 s osc_name_\$0;
#X obj 704 408 r control_out_\$0;
#X obj 682 585 outlet;
#X obj 682 559 oscformat;
#X obj 685 481 list split 1;
#X obj 715 527 list trim;
#X obj 809 480 r osc_name_\$0;
#X obj 715 505 list prepend;
#X obj 809 525 list trim;
#X obj 809 503 list prepend set;
#X text 685 608 osc_out;
#X obj 99 -32 r osc_name_\$0;
#X obj 99 -58 s current_path_\$0;
#N canvas 273 156 1390 797 handle_presets 0;
#X obj 519 520 tabwrite presets_\$0;
#X msg 789 471 \$1 0;
#X obj 519 444 list;
#X obj 519 493 unpack 0 0;
#X obj 1221 351 r control_\$0;
#X obj 227 421 r x_1_\$0;
#X obj 292 422 r y_1_\$0;
#X obj 360 376 r feedback_algo_name_\$0;
#X obj 360 399 t a b;
#X obj 360 520 s control_out_\$0;
#X obj 360 444 list trim;
#X msg 408 400 104;
#X msg 227 443 \$1 106;
#X obj 360 422 list append;
#X msg 292 444 \$1 107;
#X obj 979 205 f;
#X obj 741 321 r save_\$0;
#X obj 979 168 r load_\$0;
#X obj 1026 234 r ID_\$0;
#X obj 783 384 r ID_\$0;
#X obj 741 424 save_preset presets_\$0 49;
#X obj 1083 233 r current_path_\$0;
#X obj 840 383 r current_path_\$0;
#X obj 979 267 load_preset presets_\$0;
#X obj 1310 425 route 100 101 102;
#X obj 740 471 s p_\$0;
#X obj 740 493 s p_\$0;
#X obj 740 515 s p_\$0;
#X obj 519 421 r p_\$0;
#X obj 828 471 r value0_\$0;
#X obj 828 493 r value1_\$0;
#X obj 828 515 r value2_\$0;
#X msg 789 493 \$1 1;
#X msg 789 515 \$1 2;
#X obj 740 537 s p_\$0;
#X obj 740 559 s p_\$0;
#X obj 740 581 s p_\$0;
#X msg 789 537 \$1 3;
#X msg 789 559 \$1 4;
#X msg 789 581 \$1 5;
#X obj 828 537 r value3_\$0;
#X obj 828 559 r value4_\$0;
#X obj 828 581 r value5_\$0;
#X obj 1045 593 s preset_value0_\$0;
#X obj 1064 571 s preset_value1_\$0;
#X obj 1084 549 s preset_value2_\$0;
#X obj 1045 426 route 0 1 2 3 4 5;
#X obj 1103 527 s preset_value3_\$0;
#X obj 1122 505 s preset_value4_\$0;
#X obj 1142 483 s preset_value5_\$0;
#X obj 1310 530 s ctrl_value6_\$0;
#X obj 1349 508 s ctrl_value7_\$0;
#X obj 1387 486 s ctrl_value8_\$0;
#X obj 409 213 table presets_\$0 6;
#X obj 1242 209 r load_init_\$0;
#X obj 1242 234 f;
#X obj 1243 264 load_init presets_\$0 insert_abs_folder;
#X connect 1 0 25 0;
#X connect 2 0 3 0;
#X connect 2 0 9 0;
#X connect 3 0 0 0;
#X connect 3 1 0 1;
#X connect 4 0 46 0;
#X connect 5 0 12 0;
#X connect 6 0 14 0;
#X connect 7 0 8 0;
#X connect 8 0 13 0;
#X connect 8 1 11 0;
#X connect 10 0 9 0;
#X connect 11 0 13 1;
#X connect 12 0 9 0;
#X connect 13 0 10 0;
#X connect 14 0 9 0;
#X connect 15 0 23 0;
#X connect 16 0 20 0;
#X connect 17 0 15 0;
#X connect 18 0 23 1;
#X connect 19 0 20 1;
#X connect 21 0 23 2;
#X connect 22 0 20 2;
#X connect 23 0 46 0;
#X connect 24 0 50 0;
#X connect 24 1 51 0;
#X connect 24 2 52 0;
#X connect 28 0 2 0;
#X connect 29 0 1 0;
#X connect 30 0 32 0;
#X connect 31 0 33 0;
#X connect 32 0 26 0;
#X connect 33 0 27 0;
#X connect 37 0 34 0;
#X connect 38 0 35 0;
#X connect 39 0 36 0;
#X connect 40 0 37 0;
#X connect 41 0 38 0;
#X connect 42 0 39 0;
#X connect 46 0 43 0;
#X connect 46 1 44 0;
#X connect 46 2 45 0;
#X connect 46 3 47 0;
#X connect 46 4 48 0;
#X connect 46 5 49 0;
#X connect 46 6 24 0;
#X connect 54 0 55 0;
#X connect 55 0 56 0;
#X connect 56 0 46 0;
#X restore 567 22 pd handle_presets;
#X obj 569 57 declare -path ../modules/commons;
#X text 131 119 This is the template;
#X text 111 152 for a simple audio module;
#X text 578 82 change the path to ./commons;
#X obj -275 -126 route bang_bpm rst instance_id load save osc_name osc current_path notes load_init, f 90;
#X obj 247 -61 s load_init_\$0;
#X connect 0 0 2 1;
#X connect 0 0 1 1;
#X connect 0 0 11 0;
#X connect 1 0 7 0;
#X connect 2 0 8 0;
#X connect 3 0 0 0;
#X connect 4 0 41 0;
#X connect 5 0 42 0;
#X connect 6 0 0 0;
#X connect 7 0 6 0;
#X connect 8 0 3 0;
#X connect 9 0 10 0;
#X connect 10 0 0 0;
#X connect 12 0 21 0;
#X connect 14 0 40 0;
#X connect 15 0 0 0;
#X connect 16 0 24 0;
#X connect 17 0 22 0;
#X connect 18 0 23 0;
#X connect 21 0 25 0;
#X connect 21 1 26 0;
#X connect 21 2 27 0;
#X connect 21 3 28 0;
#X connect 22 0 25 0;
#X connect 22 1 26 0;
#X connect 22 2 27 0;
#X connect 22 3 28 0;
#X connect 23 0 25 0;
#X connect 23 1 26 0;
#X connect 23 2 27 0;
#X connect 23 3 28 0;
#X connect 24 0 25 0;
#X connect 24 1 26 0;
#X connect 24 2 27 0;
#X connect 24 3 28 0;
#X connect 29 0 21 1;
#X connect 30 0 21 2;
#X connect 31 0 22 1;
#X connect 32 0 22 2;
#X connect 33 0 23 1;
#X connect 34 0 23 2;
#X connect 35 0 24 2;
#X connect 36 0 24 1;
#X connect 38 0 39 0;
#X connect 40 0 13 0;
#X connect 41 0 1 0;
#X connect 42 0 2 0;
#X connect 43 0 67 0;
#X connect 48 0 47 0;
#X connect 50 0 53 0;
#X connect 52 0 51 0;
#X connect 53 0 52 0;
#X connect 53 1 56 0;
#X connect 54 0 52 0;
#X connect 55 0 58 0;
#X connect 56 0 54 0;
#X connect 57 0 56 1;
#X connect 58 0 57 0;
#X connect 60 0 48 1;
#X connect 67 0 19 0;
#X connect 67 1 20 0;
#X connect 67 2 46 0;
#X connect 67 3 45 0;
#X connect 67 4 44 0;
#X connect 67 5 49 0;
#X connect 67 6 48 0;
#X connect 67 7 61 0;
#X connect 67 8 37 0;
#X connect 67 9 68 0;
#X coords 0 -1 1 1 200 100 2 100 100;
