#N canvas 255 135 1390 805 10;
#X declare -path ./commons;
#X declare -path ./big_module_abs;
#X obj 126 641 outlet~;
#X obj 176 641 outlet~;
#X obj 226 641 outlet~;
#X obj 277 641 outlet~;
#X obj 947 87 r control_id1_\$0;
#X obj 946 113 r control_id2_\$0;
#X obj 947 138 r control_id3_\$0;
#X obj 670 84 s control_id1_\$0;
#X obj 669 110 s control_id2_\$0;
#X obj 670 135 s control_id3_\$0;
#X obj 833 43 loadbang;
#X obj 476 458 r control_out_id4_\$0;
#X obj 371 377 r control_out_id1_\$0;
#X obj 400 406 r control_out_id2_\$0;
#X obj 445 434 r control_out_id3_\$0;
#X msg 804 83 module_id 1;
#X msg 804 109 module_id 2;
#X msg 806 135 module_id 3;
#X obj 668 190 s control_\$0;
#X obj 512 497 r control_out_glob_\$0;
#X obj 99 -200 inlet;
#X obj 303 -73 s save_\$0;
#X obj 269 -37 s load_\$0;
#X obj 206 -71 s ID_\$0;
#X text 114 -224 internal_in;
#X obj 410 -10 route name;
#X obj 343 -104 s osc_name_\$0;
#X obj 456 -37 r osc_name_\$0;
#X obj 399 640 outlet;
#X obj 399 614 oscformat;
#X obj 400 536 list split 1;
#X obj 432 582 list trim;
#X obj 526 535 r osc_name_\$0;
#X obj 432 560 list prepend;
#X obj 526 580 list trim;
#X obj 526 558 list prepend set;
#X text 402 663 osc_out;
#X obj 767 -139 declare -path ./commons;
#N canvas 66 225 1854 739 handle_presets 0;
#X obj 145 925 tabwrite presets_\$0;
#X msg 453 311 \$1 1;
#X msg 453 288 \$1 0;
#X msg 453 334 \$1 2;
#X msg 453 357 \$1 3;
#X msg 453 380 \$1 4;
#X msg 453 403 \$1 5;
#X msg 453 426 \$1 6;
#X msg 453 449 \$1 7;
#X msg 453 472 \$1 8;
#X msg 453 495 \$1 9;
#X msg 453 518 \$1 10;
#X msg 453 541 \$1 11;
#X msg 453 564 \$1 12;
#X msg 453 587 \$1 13;
#X msg 453 610 \$1 14;
#X msg 453 633 \$1 15;
#X msg 453 656 \$1 16;
#X msg 453 679 \$1 17;
#X msg 453 702 \$1 18;
#X msg 453 725 \$1 19;
#X msg 453 748 \$1 20;
#X msg 453 771 \$1 21;
#X msg 453 794 \$1 22;
#X msg 453 817 \$1 23;
#X msg 453 840 \$1 24;
#X msg 453 863 \$1 25;
#X msg 453 886 \$1 26;
#X msg 453 909 \$1 27;
#X msg 453 932 \$1 28;
#X msg 453 954 \$1 29;
#X msg 453 976 \$1 30;
#X msg 453 998 \$1 31;
#X msg 453 1020 \$1 32;
#X msg 453 1042 \$1 33;
#X msg 453 1064 \$1 34;
#X msg 453 1086 \$1 35;
#X msg 453 1108 \$1 36;
#X obj 224 726 list;
#X obj 222 851 unpack 0 0;
#X msg 453 1130 \$1 37;
#X msg 453 1152 \$1 38;
#X msg 453 1174 \$1 39;
#X msg 453 1196 \$1 40;
#X msg 453 1218 \$1 41;
#X msg 453 1240 \$1 42;
#X msg 453 1262 \$1 43;
#X msg 453 1284 \$1 44;
#X obj 294 61 r save_\$0;
#X msg 452 1307 \$1 45;
#X msg 457 1332 \$1 46;
#X obj 976 505 r control_\$0;
#X msg 457 1357 \$1 47;
#X msg 458 1387 \$1 48;
#X msg 461 1421 \$1 49;
#X msg 462 1451 \$1 50;
#X msg 465 1478 \$1 51;
#X msg 466 1508 \$1 52;
#X obj 812 609 s preset_glob_vol_\$0;
#X obj 813 633 s preset_glob_sync_\$0;
#X obj 517 315 r glob_sync_\$0;
#X obj 516 291 r glob_vol_\$0;
#X obj 1184 634 s ctrl_solo_\$0;
#X obj 63 1184 s control_out_glob_\$0;
#X obj -6 945 r feedbk_fx_name_\$0;
#X obj 709 68 table presets_\$0 10;
#X obj 397 60 r ID_\$0;
#X obj 457 60 r current_path_\$0;
#X obj 360 118 save_preset presets_\$0 9;
#X obj 1021 173 r ID_\$0;
#X obj 1081 173 r current_path_\$0;
#X obj 984 231 load_preset presets_\$0;
#X obj 918 174 r load_\$0;
#X msg 28 1085 \$2 5 209;
#X msg 144 1123 \$1 5 \$2;
#X obj 1295 188 r load_init_\$0;
#X obj 201 206 r save_init_\$0;
#X obj 1175 590 route 100;
#X obj 848 545 route 0 1 2 3, f 55;
#X obj 1361 245 load_init presets_\$0 big_module_abs;
#X obj 201 247 save_init presets_\$0 big_module_abs 9;
#X connect 1 0 38 0;
#X connect 2 0 38 0;
#X connect 3 0 38 0;
#X connect 4 0 38 0;
#X connect 5 0 38 0;
#X connect 6 0 38 0;
#X connect 7 0 38 0;
#X connect 8 0 38 0;
#X connect 9 0 38 0;
#X connect 10 0 38 0;
#X connect 11 0 38 0;
#X connect 12 0 38 0;
#X connect 13 0 38 0;
#X connect 14 0 38 0;
#X connect 15 0 38 0;
#X connect 16 0 38 0;
#X connect 17 0 38 0;
#X connect 18 0 38 0;
#X connect 19 0 38 0;
#X connect 20 0 38 0;
#X connect 21 0 38 0;
#X connect 22 0 38 0;
#X connect 23 0 38 0;
#X connect 24 0 38 0;
#X connect 25 0 38 0;
#X connect 26 0 38 0;
#X connect 27 0 38 0;
#X connect 28 0 38 0;
#X connect 29 0 38 0;
#X connect 30 0 38 0;
#X connect 31 0 38 0;
#X connect 32 0 38 0;
#X connect 33 0 38 0;
#X connect 34 0 38 0;
#X connect 35 0 38 0;
#X connect 36 0 38 0;
#X connect 37 0 38 0;
#X connect 38 0 39 0;
#X connect 38 0 74 0;
#X connect 39 0 0 0;
#X connect 39 1 0 1;
#X connect 40 0 38 0;
#X connect 41 0 38 0;
#X connect 42 0 38 0;
#X connect 43 0 38 0;
#X connect 44 0 38 0;
#X connect 45 0 38 0;
#X connect 46 0 38 0;
#X connect 47 0 38 0;
#X connect 48 0 68 0;
#X connect 49 0 38 0;
#X connect 50 0 38 0;
#X connect 51 0 78 0;
#X connect 52 0 38 0;
#X connect 53 0 38 0;
#X connect 54 0 38 0;
#X connect 55 0 38 0;
#X connect 56 0 38 0;
#X connect 57 0 38 0;
#X connect 60 0 1 0;
#X connect 61 0 2 0;
#X connect 64 0 73 0;
#X connect 66 0 68 1;
#X connect 67 0 68 2;
#X connect 69 0 71 1;
#X connect 70 0 71 2;
#X connect 71 0 78 0;
#X connect 72 0 71 0;
#X connect 73 0 63 0;
#X connect 74 0 63 0;
#X connect 75 0 79 0;
#X connect 76 0 80 0;
#X connect 77 0 62 0;
#X connect 78 0 58 0;
#X connect 78 1 59 0;
#X connect 78 4 77 0;
#X connect 79 0 78 0;
#X restore 766 -114 pd handle_presets;
#X obj 435 -74 s current_path_\$0;
#X obj 117 -157 s to_all_submodules_\$0;
#X obj 394 191 r to_all_submodules_\$0;
#X obj 619 -231 loadbang;
#X msg 619 -207 \; pd dsp 1;
#X msg 597 272 bang_bpm \$1;
#X msg 678 272 rst \$1;
#X obj 800 317 internal_sync_simple;
#X obj 70 -73 s ext_bang_\$0;
#X obj 151 -30 s ext_rst_\$0;
#X obj 639 318 s to_all_submodules_\$0;
#X obj 95 -134 route bang_bpm rst instance_id load save osc_name osc current_path init, f 75;
#X obj 512 -96 s load_init_\$0;
#X obj 471 96 route 0;
#X obj 607 -13 s save_init_\$0;
#X msg 590 11 save_init \$1;
#X msg 590 -47 0;
#X obj 396 38 route 1 2 3;
#X obj 766 -162 declare -path ./big_module_abs;
#X obj 1088 106 sub_module;
#X obj 1087 140 sub_module;
#X obj 1087 171 sub_module;
#X obj 847 284 r ext_rst_\$0;
#X obj 796 257 r ext_bang_\$0;
#X connect 4 0 58 0;
#X connect 5 0 59 0;
#X connect 6 0 60 0;
#X connect 10 0 15 0;
#X connect 11 0 30 0;
#X connect 12 0 30 0;
#X connect 13 0 30 0;
#X connect 14 0 30 0;
#X connect 15 0 7 0;
#X connect 15 0 16 0;
#X connect 16 0 8 0;
#X connect 16 0 17 0;
#X connect 17 0 9 0;
#X connect 19 0 30 0;
#X connect 20 0 40 0;
#X connect 20 0 50 0;
#X connect 25 0 56 0;
#X connect 27 0 25 1;
#X connect 29 0 28 0;
#X connect 30 0 29 0;
#X connect 30 1 33 0;
#X connect 31 0 29 0;
#X connect 32 0 35 0;
#X connect 33 0 31 0;
#X connect 34 0 33 1;
#X connect 35 0 34 0;
#X connect 41 0 7 0;
#X connect 41 0 8 0;
#X connect 41 0 9 0;
#X connect 42 0 43 0;
#X connect 44 0 49 0;
#X connect 45 0 49 0;
#X connect 46 0 44 0;
#X connect 46 1 45 0;
#X connect 50 0 47 0;
#X connect 50 1 48 0;
#X connect 50 2 23 0;
#X connect 50 3 22 0;
#X connect 50 4 21 0;
#X connect 50 5 26 0;
#X connect 50 6 25 0;
#X connect 50 7 39 0;
#X connect 50 8 51 0;
#X connect 52 0 18 0;
#X connect 54 0 7 0;
#X connect 54 0 8 0;
#X connect 54 0 9 0;
#X connect 55 0 53 0;
#X connect 55 0 54 0;
#X connect 56 0 7 0;
#X connect 56 1 8 0;
#X connect 56 2 9 0;
#X connect 61 0 46 1;
#X connect 62 0 46 0;
#X coords 0 805 1 804 1380 745 0;
