#N canvas 307 312 1534 805 10;
#X declare -path ../commons;
#X obj 105 544 brds~;
#X msg -31 299 pitch \$1;
#X msg 53 473 shape \$1;
#X obj 34 196 vsl 15 128 0 127 0 0 empty empty timbre 0 -9 0 10 #fcfcfc #000000 #000000 0 1;
#X msg 114 473 timbre \$1;
#X obj -31 255 * 128;
#X obj -31 277 + 8252;
#X obj 151 124 vsl 15 128 0 127 0 0 empty empty colour 0 -9 0 10 #fcfcfc #000000 #000000 0 1;
#X msg 179 473 colour \$1;
#X symbolatom 243 108 10 0 0 0 - - - 0;
#X obj -178 -123 inlet;
#X obj 28 742 *~;
#X obj 28 771 outlet~;
#X obj 35 451 / 127;
#X obj 96 448 / 127;
#X obj 154 448 / 127;
#X obj 662 -252 declare -path ../commons;
#X obj 181 128 adsr;
#X floatatom -75 526 5 0 127 0 - - - 0;
#X obj -167 445 i;
#X obj -86 445 i;
#X obj -55 474 max 0;
#X obj -168 404 r algo+_\$0;
#X obj -90 394 r algo-_\$0;
#X obj -165 496 min 127;
#X obj 237 47 s algo-_\$0;
#X obj 165 48 s algo+_\$0;
#X obj 201 106 bng 18 250 50 0 empty empty empty 0 -9 0 10 #fcfcfc #000000 #000000;
#X obj 222 106 bng 18 250 50 0 empty empty empty 0 -9 0 10 #fcfcfc #000000 #000000;
#X obj -128 444 + 3;
#X obj -58 445 - 3;
#X obj -151 531 loadbang;
#X msg -151 554 0;
#X obj 62 710 r~ adsr_\$0;
#X obj 183 253 s~ adsr_\$0;
#X obj 103 573 s~ from_osc_\$0;
#X obj 500 -4 r~ from_osc_\$0;
#X obj 1037 304 s~ from_filt_\$0;
#X obj 1 675 r~ from_filt_\$0;
#X obj -60 126 t f b;
#X obj -83 -126 inlet;
#X obj -37 -126 inlet;
#X obj 10 -125 inlet;
#X obj -126 -124 inlet;
#X obj 68 -121 inlet;
#X obj 112 -121 inlet;
#X obj 155 -121 inlet;
#X obj 199 -121 inlet;
#X obj 245 -119 inlet;
#X text -88 -154 timbre;
#X text -44 -154 colour;
#X text 4 -154 algo_sel;
#X text 62 -154 attack;
#X text 109 -154 decay;
#X text 148 -154 sustain;
#X text 195 -154 release;
#X text 247 -154 curve;
#X obj 700 -115 inlet;
#X obj 744 -115 inlet;
#X obj 653 -114 inlet;
#X text 693 -150 filt_fr;
#X text 740 -150 filt1_q;
#X obj -114 -40 unpack 0 0;
#X obj -93 -9 swap;
#X obj -43 90 i;
#X obj -96 15 sel 0;
#X obj -58 60 bng 18 250 50 0 empty empty empty 0 -9 0 10 #fcfcfc #000000 #000000;
#X text -125 -154 panic;
#X obj 24 54 bng 18 250 50 0 empty empty empty 0 -9 0 10 #fcfcfc #000000 #000000;
#X obj 148 770 outlet;
#X text 142 796 wav_name;
#X text 27 795 signal;
#X text -189 -154 note_in;
#X obj 666 180 filter_selection;
#X obj 570 184 wavefold;
#X obj 292 -122 inlet;
#X obj 332 -118 inlet;
#X obj 1003 -124 inlet;
#X obj 1047 -124 inlet;
#X obj 1090 -124 inlet;
#X obj 1173 -125 inlet;
#X obj 1217 -125 inlet;
#X obj 1129 -124 inlet;
#X obj 1255 -122 inlet;
#X obj 1299 -122 inlet;
#X text 1262 -156 spd;
#X text 1309 -156 dep;
#X text 646 -150 flt_sel;
#X obj 1406 -126 inlet;
#X text 1387 -155 lfo2assign;
#X obj 991 559 *~;
#X msg 966 444 1;
#X obj 1395 76 s~ from_lfo2_\$0;
#X obj 771 506 r~ from_lfo2_\$0;
#X msg 1021 443 1;
#X obj 1170 239 hradio 18 1 0 3 empty empty empty 0 -9 0 10 #fcfcfc #000000 #000000 0;
#X text 285 -154 fold;
#X text 328 -154 stgs;
#X obj 365 225 adsr;
#X obj -32 149 s start_env_\$0;
#X obj 175 19 r start_env_\$0;
#X obj 314 347 r start_env_\$0;
#X obj 357 364 r stop_env_\$0;
#X obj 189 -5 r stop_env_\$0;
#X obj 19 89 s stop_env_\$0;
#X obj 426 -115 inlet;
#X obj 462 -116 inlet;
#X obj 502 -118 inlet;
#X obj 547 -118 inlet;
#X text 420 -154 attack;
#X text 459 -153 decay;
#X text 495 -152 sustain;
#X text 543 -151 release;
#X obj 1473 -119 inlet;
#X obj 1490 -72 switch~;
#X text 1470 -152 on/off;
#X msg -117 262 8443;
#X obj -36 222 - 66;
#X obj -136 207 loadbang;
#X obj 592 -119 inlet~;
#X obj 1346 -122 inlet~;
#X text 1339 -156 lfo2_in;
#X text 589 -149 lfo1_in;
#X obj 998 595 metro 50;
#X obj 1036 552 tgl 18 0 empty empty empty 0 -9 0 10 #fcfcfc #000000 #000000 0 1;
#X obj 990 624 snapshot~;
#X obj 989 660 s to_timbre_fm_\$0;
#X obj 1127 556 *~;
#X obj 1134 592 metro 50;
#X obj 1167 556 tgl 18 0 empty empty empty 0 -9 0 10 #fcfcfc #000000 #000000 0 1;
#X obj 1126 621 snapshot~;
#X msg 1129 444 1;
#X obj 1068 333 sel 0 1 2 3 4;
#X obj 66 387 *;
#X obj 84 282 r to_timbre_fm_\$0;
#X obj 139 396 *;
#X obj 174 311 r to_colour_fm_\$0;
#X obj 1130 658 s to_colour_fm_\$0;
#X obj 1056 574 delay 10;
#X msg 1055 598 1;
#X obj 1200 596 delay 10;
#X msg 1199 620 1;
#X obj 68 333 t b f;
#X obj 167 348 t b f;
#X obj 1267 555 *~;
#X msg 1231 445 1;
#X obj 998 335 t f b;
#X msg 879 471 0;
#X obj 1274 591 metro 50;
#X obj 1266 620 snapshot~;
#X obj 1340 595 delay 10;
#X msg 1339 619 1;
#X obj 1301 554 tgl 18 0 empty empty empty 0 -9 0 10 #fcfcfc #000000 #000000 0 1;
#X obj 1270 657 s to_fold_fm_\$0;
#X obj 860 565 *~;
#X obj 867 601 metro 50;
#X obj 903 556 tgl 18 0 empty empty empty 0 -9 0 10 #fcfcfc #000000 #000000 0 1;
#X obj 859 630 snapshot~;
#X obj 925 580 delay 10;
#X msg 924 604 1;
#X obj 858 666 s to_trem_fm_\$0;
#X obj 777 181 rngs;
#X obj 797 -119 inlet;
#X obj 834 -119 inlet;
#X obj 875 -121 inlet;
#X obj 954 -122 inlet;
#X obj 914 -121 inlet;
#X text 1057 -155 struct;
#X text 1097 -155 bright;
#X text 1143 -156 damp;
#X text 1183 -153 model;
#X text 980 -154 transp;
#X text 1020 -155 posit;
#X text 1226 -155 d/w;
#X text 894 -153 poly;
#X text 841 -153 exciter;
#X text 791 -150 trigger;
#X text 939 -155 pitch;
#X obj 377 -116 inlet;
#X text 371 -155 mix;
#X connect 0 0 35 0;
#X connect 0 1 9 0;
#X connect 0 1 69 0;
#X connect 1 0 0 0;
#X connect 2 0 0 0;
#X connect 3 0 133 0;
#X connect 4 0 0 0;
#X connect 5 0 6 0;
#X connect 6 0 1 0;
#X connect 7 0 135 0;
#X connect 8 0 0 0;
#X connect 10 0 62 0;
#X connect 11 0 12 0;
#X connect 13 0 2 0;
#X connect 14 0 4 0;
#X connect 15 0 8 0;
#X connect 17 0 34 0;
#X connect 18 0 20 1;
#X connect 18 0 19 1;
#X connect 18 0 13 0;
#X connect 19 0 29 0;
#X connect 20 0 30 0;
#X connect 21 0 18 0;
#X connect 22 0 19 0;
#X connect 23 0 20 0;
#X connect 24 0 18 0;
#X connect 27 0 26 0;
#X connect 28 0 25 0;
#X connect 29 0 24 0;
#X connect 30 0 21 0;
#X connect 31 0 32 0;
#X connect 32 0 18 0;
#X connect 33 0 11 1;
#X connect 36 0 74 0;
#X connect 38 0 11 0;
#X connect 39 0 117 0;
#X connect 39 1 99 0;
#X connect 40 0 3 0;
#X connect 41 0 7 0;
#X connect 42 0 18 0;
#X connect 44 0 17 2;
#X connect 45 0 17 3;
#X connect 46 0 17 4;
#X connect 47 0 17 5;
#X connect 48 0 17 6;
#X connect 48 0 98 6;
#X connect 57 0 73 2;
#X connect 58 0 73 3;
#X connect 59 0 73 1;
#X connect 62 0 63 0;
#X connect 62 1 63 1;
#X connect 63 0 65 0;
#X connect 63 1 64 1;
#X connect 64 0 39 0;
#X connect 65 0 68 0;
#X connect 65 1 66 0;
#X connect 66 0 64 0;
#X connect 68 0 104 0;
#X connect 73 0 161 0;
#X connect 74 0 73 0;
#X connect 75 0 74 1;
#X connect 76 0 74 2;
#X connect 77 0 161 6;
#X connect 78 0 161 7;
#X connect 79 0 161 8;
#X connect 80 0 161 10;
#X connect 81 0 161 11;
#X connect 82 0 161 9;
#X connect 88 0 95 0;
#X connect 90 0 125 0;
#X connect 91 0 156 0;
#X connect 91 0 154 0;
#X connect 93 0 90 0;
#X connect 93 0 127 0;
#X connect 93 0 144 0;
#X connect 93 0 154 0;
#X connect 94 0 124 0;
#X connect 94 0 90 1;
#X connect 95 0 146 0;
#X connect 98 0 73 5;
#X connect 100 0 17 0;
#X connect 101 0 98 0;
#X connect 102 0 98 1;
#X connect 103 0 17 1;
#X connect 105 0 98 2;
#X connect 106 0 98 3;
#X connect 107 0 98 4;
#X connect 108 0 98 5;
#X connect 113 0 114 0;
#X connect 116 0 6 1;
#X connect 117 0 5 0;
#X connect 118 0 116 0;
#X connect 119 0 73 4;
#X connect 120 0 92 0;
#X connect 123 0 125 0;
#X connect 124 0 123 0;
#X connect 124 0 138 0;
#X connect 125 0 126 0;
#X connect 127 0 130 0;
#X connect 128 0 130 0;
#X connect 129 0 128 0;
#X connect 129 0 140 0;
#X connect 130 0 137 0;
#X connect 131 0 129 0;
#X connect 131 0 127 1;
#X connect 132 0 91 0;
#X connect 132 1 94 0;
#X connect 132 2 131 0;
#X connect 132 3 145 0;
#X connect 133 0 14 0;
#X connect 134 0 142 0;
#X connect 135 0 15 0;
#X connect 136 0 143 0;
#X connect 138 0 139 0;
#X connect 139 0 126 0;
#X connect 140 0 141 0;
#X connect 141 0 137 0;
#X connect 142 0 133 0;
#X connect 142 1 133 1;
#X connect 143 0 135 0;
#X connect 143 1 135 1;
#X connect 144 0 149 0;
#X connect 145 0 144 1;
#X connect 145 0 152 0;
#X connect 146 0 132 0;
#X connect 146 1 147 0;
#X connect 147 0 90 1;
#X connect 147 0 124 0;
#X connect 147 0 127 1;
#X connect 147 0 129 0;
#X connect 147 0 144 1;
#X connect 147 0 156 0;
#X connect 147 0 154 1;
#X connect 148 0 149 0;
#X connect 149 0 153 0;
#X connect 150 0 151 0;
#X connect 151 0 153 0;
#X connect 152 0 150 0;
#X connect 152 0 148 0;
#X connect 154 0 157 0;
#X connect 155 0 157 0;
#X connect 156 0 155 0;
#X connect 156 0 158 0;
#X connect 157 0 160 0;
#X connect 158 0 159 0;
#X connect 159 0 160 0;
#X connect 161 0 37 0;
#X connect 162 0 161 1;
#X connect 163 0 161 2;
#X connect 164 0 161 3;
#X connect 165 0 161 5;
#X connect 166 0 161 4;
#X connect 178 0 74 3;
#X coords 0 805 1 804 685 260 0;
