#N canvas 52 20 1534 977 12;
#X obj 1026 263 line;
#X obj 1168 251 line;
#X text 1206 252 wet;
#X text 1063 260 dry, f 4;
#X obj 1025 206 expr 1 - $f1;
#X obj 575 87 inlet~;
#X obj 661 603 outlet~;
#X obj 1068 87 inlet;
#X obj 572 435 *~;
#X obj 1068 159 sqrt;
#X obj 1068 123 / 127;
#X obj 623 87 inlet~;
#X obj 671 87 inlet~;
#X obj 723 87 inlet~;
#X obj 719 602 outlet~;
#X obj 630 434 *~;
#X obj 776 601 outlet~;
#X obj 687 433 *~;
#X obj 833 601 outlet~;
#X obj 744 433 *~;
#X obj 795 86 inlet~;
#X obj 800 433 *~;
#X obj 843 86 inlet~;
#X obj 891 86 inlet~;
#X obj 943 86 inlet~;
#X obj 858 432 *~;
#X obj 915 431 *~;
#X obj 972 431 *~;
#X text 238 2 mix;
#X text 3 42 LF;
#X text 80 42 RF;
#X text 169 42 LR;
#X text 247 42 RR;
#X obj 1 21 cnv 20 270 20 empty empty empty 20 12 0 12 #e0e0e0 #404040 0;
#X text 6 2 LF1;
#X text 34 2 RF1;
#X text 62 2 RL1;
#X text 91 2 RR1;
#X text 118 2 LF2;
#X text 147 2 RF2;
#X text 178 2 RL2;
#X text 206 2 RR2;
#X text 89 21 dry_wet_quad;
#X obj 1025 237 pack 0 50;
#X obj 1169 226 pack 0 50;
#X connect 0 0 8 1;
#X connect 0 0 15 1;
#X connect 0 0 17 1;
#X connect 0 0 19 1;
#X connect 1 0 21 1;
#X connect 1 0 25 1;
#X connect 1 0 26 1;
#X connect 1 0 27 1;
#X connect 4 0 43 0;
#X connect 5 0 8 0;
#X connect 7 0 10 0;
#X connect 8 0 6 0;
#X connect 9 0 4 0;
#X connect 9 0 44 0;
#X connect 10 0 9 0;
#X connect 11 0 15 0;
#X connect 12 0 17 0;
#X connect 13 0 19 0;
#X connect 15 0 14 0;
#X connect 17 0 16 0;
#X connect 19 0 18 0;
#X connect 20 0 21 0;
#X connect 21 0 6 0;
#X connect 22 0 25 0;
#X connect 23 0 26 0;
#X connect 24 0 27 0;
#X connect 25 0 14 0;
#X connect 26 0 16 0;
#X connect 27 0 18 0;
#X connect 43 0 0 0;
#X connect 44 0 1 0;
#X coords 0 -1 1 1 270 60 2 0 0;
