#N canvas 761 116 577 453 12;
#X obj 167 209 pack 0 0;
#X obj 167 236 line~;
#X obj 167 261 *~ 0.25;
#X obj 167 286 +~ 0.75;
#X obj 130 324 cos~;
#X obj 168 324 cos~;
#X obj 167 129 inlet;
#X obj 46 378 *~;
#X obj 128 377 *~;
#X obj 47 411 outlet~;
#X obj 129 410 outlet~;
#X obj 52 128 inlet~;
#X text 54 104 signal;
#X obj 306 122 inlet;
#X obj 312 165 loadbang;
#X msg 312 190 10;
#X text 301 98 speed;
#X text 153 98 split (0-1);
#X text 233 327 split ratio: \; 1: all signal goes to right outlet 0: all signal goes to left outlet;
#X connect 0 0 1 0;
#X connect 1 0 2 0;
#X connect 2 0 3 0;
#X connect 2 0 4 0;
#X connect 3 0 5 0;
#X connect 4 0 7 1;
#X connect 5 0 8 1;
#X connect 6 0 0 0;
#X connect 7 0 9 0;
#X connect 8 0 10 0;
#X connect 11 0 7 0;
#X connect 11 0 8 0;
#X connect 13 0 0 1;
#X connect 14 0 15 0;
#X connect 15 0 0 1;
