#N canvas 609 82 1383 721 12;
#X obj 120 259 *~;
#X obj 18 315 line~;
#X obj 121 -30 inlet~;
#X obj 418 -30 inlet;
#X obj 421 48 unpack 0 0 0 0;
#X obj 120 381 outlet~;
#X obj 318 383 outlet~;
#X obj 517 390 outlet~;
#X obj 709 390 outlet~;
#X obj 49 145 moses 0.5;
#X obj 65 244 *;
#X obj 15 242 +;
#X obj 5 176 r neg_val_\$0;
#X obj 99 177 r pos_val_\$0;
#X obj 832 -26 inlet;
#X obj 840 87 / 127;
#X obj 894 134 expr 1 - $f1;
#X obj 834 244 s neg_val_\$0;
#X obj 930 244 s pos_val_\$0;
#X obj 49 117 f;
#X obj 18 291 pack 0 10;
#X obj 5 203 t b f;
#X obj 99 208 t b f;
#X obj 319 260 *~;
#X obj 217 316 line~;
#X obj 248 146 moses 0.5;
#X obj 264 245 *;
#X obj 214 243 +;
#X obj 204 177 r neg_val_\$0;
#X obj 298 178 r pos_val_\$0;
#X obj 248 118 f;
#X obj 217 292 pack 0 10;
#X obj 204 204 t b f;
#X obj 298 209 t b f;
#X obj 517 261 *~;
#X obj 415 317 line~;
#X obj 446 147 moses 0.5;
#X obj 462 246 *;
#X obj 412 244 +;
#X obj 402 178 r neg_val_\$0;
#X obj 496 179 r pos_val_\$0;
#X obj 446 119 f;
#X obj 415 293 pack 0 10;
#X obj 402 205 t b f;
#X obj 496 210 t b f;
#X obj 710 262 *~;
#X obj 608 318 line~;
#X obj 639 148 moses 0.5;
#X obj 655 247 *;
#X obj 605 245 +;
#X obj 595 179 r neg_val_\$0;
#X obj 689 180 r pos_val_\$0;
#X obj 639 120 f;
#X obj 608 294 pack 0 10;
#X obj 595 206 t b f;
#X obj 689 211 t b f;
#X obj 894 22 loadbang;
#X obj 551 -32 loadbang;
#X text 408 -53 routing;
#X text 120 -55 input;
#X msg 551 -2 0 0 0 0;
#X text 832 -48 diffusion;
#X msg 894 50 0;
#X floatatom 14 385 5 0 0 0 - - - 0;
#X obj 815 177 * 0.25;
#X text 599 492 this object routes a signal to four outputs \; e.g to route a signal to the third output only send a message of "0 0 1 0" to the second inlet and set the spread to zero \; if the spread is not zero \, the signal will go primarily to the third outlet but also to the other four \; if the spread is full (127) \, the signal will be splitted to the four channels.;
#X obj 927 200 + 0.25;
#X obj 915 172 * 0.75;
#X obj 841 122 sqrt;
#X connect 0 0 5 0;
#X connect 1 0 0 1;
#X connect 2 0 0 0;
#X connect 2 0 23 0;
#X connect 2 0 34 0;
#X connect 2 0 45 0;
#X connect 3 0 4 0;
#X connect 4 0 19 0;
#X connect 4 1 30 0;
#X connect 4 2 41 0;
#X connect 4 3 52 0;
#X connect 9 0 11 0;
#X connect 9 1 10 0;
#X connect 10 0 20 0;
#X connect 10 0 63 0;
#X connect 11 0 20 0;
#X connect 11 0 63 0;
#X connect 12 0 21 0;
#X connect 13 0 22 0;
#X connect 14 0 15 0;
#X connect 15 0 68 0;
#X connect 16 0 67 0;
#X connect 19 0 9 0;
#X connect 20 0 1 0;
#X connect 21 0 19 0;
#X connect 21 1 11 1;
#X connect 22 0 19 0;
#X connect 22 1 10 1;
#X connect 23 0 6 0;
#X connect 24 0 23 1;
#X connect 25 0 27 0;
#X connect 25 1 26 0;
#X connect 26 0 31 0;
#X connect 27 0 31 0;
#X connect 28 0 32 0;
#X connect 29 0 33 0;
#X connect 30 0 25 0;
#X connect 31 0 24 0;
#X connect 32 0 30 0;
#X connect 32 1 27 1;
#X connect 33 0 30 0;
#X connect 33 1 26 1;
#X connect 34 0 7 0;
#X connect 35 0 34 1;
#X connect 36 0 38 0;
#X connect 36 1 37 0;
#X connect 37 0 42 0;
#X connect 38 0 42 0;
#X connect 39 0 43 0;
#X connect 40 0 44 0;
#X connect 41 0 36 0;
#X connect 42 0 35 0;
#X connect 43 0 41 0;
#X connect 43 1 38 1;
#X connect 44 0 41 0;
#X connect 44 1 37 1;
#X connect 45 0 8 0;
#X connect 46 0 45 1;
#X connect 47 0 49 0;
#X connect 47 1 48 0;
#X connect 48 0 53 0;
#X connect 49 0 53 0;
#X connect 50 0 54 0;
#X connect 51 0 55 0;
#X connect 52 0 47 0;
#X connect 53 0 46 0;
#X connect 54 0 52 0;
#X connect 54 1 49 1;
#X connect 55 0 52 0;
#X connect 55 1 48 1;
#X connect 56 0 62 0;
#X connect 57 0 60 0;
#X connect 60 0 4 0;
#X connect 62 0 15 0;
#X connect 64 0 17 0;
#X connect 66 0 18 0;
#X connect 67 0 66 0;
#X connect 68 0 16 0;
#X connect 68 0 64 0;
