#N canvas 52 20 1534 1097 12;
#X obj 0 0 cnv 20 40 40 empty c1_\$0 empty 20 12 0 12 #404040 #404040 0;
#X obj 32 0 cnv 5 5 5 empty blue_\$0 empty 20 12 0 12 #00faff #404040 0;
#X obj -884 0 inlet;
#X obj -834 1 inlet;
#X obj 22 4 cnv 5 5 5 empty red_\$0 empty 20 12 0 12 #ff0400 #000000 0;
#X obj -867 232 t b f;
#X obj 32 0 cnv 5 5 5 empty green_\$0 empty 20 12 0 12 #00ff04 #404040 0;
#X obj 32 0 cnv 5 5 5 empty yellow_\$0 empty 20 12 0 12 #faff00 #404040 0;
#X msg -912 309 \; red_\$3 pos \$1 \$2;
#X obj -886 270 pack 0 0 0;
#X obj 284 304 f \$0;
#X obj -884 138 * 110;
#X obj -842 187 * 110;
#X obj 148 275 f \$0;
#X obj 237 273 bng 20 250 50 0 empty empty empty 0 -10 0 12 #fcfcfc #000000 #000000;
#X obj 126 321 pack 0 0;
#X msg 126 348 \; c1_\$2 vis_size \$1 \$1;
#X obj 299 87 loadbang;
#X obj 29 273 s size_\$0;
#X obj -802 86 r size_\$0;
#X msg 298 351 \; c1_\$1 pos 0 0;
#X text 50 161 Set square size and canvas size +1;
#X obj -648 6 inlet;
#X obj -598 7 inlet;
#X obj -639 224 t b f;
#X obj -567 213 loadbang;
#X obj -567 238 f \$0;
#X obj -658 262 pack 0 0 0;
#X obj -656 130 * 110;
#X obj -614 179 * 110;
#X obj -574 78 r size_\$0;
#X msg -684 306 \; green_\$3 pos \$1 \$2;
#X obj -455 10 inlet;
#X obj -405 11 inlet;
#X obj -446 228 t b f;
#X obj -374 217 loadbang;
#X obj -374 242 f \$0;
#X obj -465 266 pack 0 0 0;
#X obj -463 134 * 110;
#X obj -421 183 * 110;
#X obj -381 82 r size_\$0;
#X msg -491 310 \; yellow_\$3 pos \$1 \$2;
#X obj 30 250 - 5;
#X obj -243 16 inlet;
#X obj -193 17 inlet;
#X obj -234 234 t b f;
#X obj -162 223 loadbang;
#X obj -162 248 f \$0;
#X obj -253 272 pack 0 0 0;
#X obj -251 140 * 110;
#X obj -209 189 * 110;
#X obj -169 88 r size_\$0;
#X msg -279 316 \; blue_\$3 pos \$1 \$2;
#X obj 32 0 cnv 5 5 5 empty yellow_\$0 empty 20 12 0 12 #00faff #404040 0;
#X obj 32 0 cnv 5 5 5 empty yellow_\$0 empty 20 12 0 12 #faff00 #404040 0;
#X obj -835 122 - 1;
#X obj -836 154 * -1;
#X msg 92 219 40;
#X obj 150 21 inlet;
#X connect 2 0 11 0;
#X connect 3 0 55 0;
#X connect 5 0 9 0;
#X connect 5 1 9 1;
#X connect 9 0 8 0;
#X connect 10 0 20 0;
#X connect 11 0 9 0;
#X connect 12 0 5 0;
#X connect 13 0 15 1;
#X connect 14 0 13 0;
#X connect 14 0 10 0;
#X connect 15 0 16 0;
#X connect 17 0 14 0;
#X connect 17 0 57 0;
#X connect 19 0 12 1;
#X connect 19 0 11 1;
#X connect 22 0 28 0;
#X connect 23 0 29 0;
#X connect 24 0 27 0;
#X connect 24 1 27 1;
#X connect 25 0 26 0;
#X connect 26 0 27 2;
#X connect 27 0 31 0;
#X connect 28 0 27 0;
#X connect 29 0 24 0;
#X connect 30 0 29 1;
#X connect 30 0 28 1;
#X connect 32 0 38 0;
#X connect 33 0 39 0;
#X connect 34 0 37 0;
#X connect 34 1 37 1;
#X connect 35 0 36 0;
#X connect 36 0 37 2;
#X connect 37 0 41 0;
#X connect 38 0 37 0;
#X connect 39 0 34 0;
#X connect 40 0 39 1;
#X connect 40 0 38 1;
#X connect 42 0 18 0;
#X connect 43 0 49 0;
#X connect 44 0 50 0;
#X connect 45 0 48 0;
#X connect 45 1 48 1;
#X connect 46 0 47 0;
#X connect 47 0 48 2;
#X connect 48 0 52 0;
#X connect 49 0 48 0;
#X connect 50 0 45 0;
#X connect 51 0 50 1;
#X connect 51 0 49 1;
#X connect 55 0 56 0;
#X connect 56 0 12 0;
#X connect 57 0 15 0;
#X connect 57 0 42 0;
#X connect 58 0 15 0;
#X connect 58 0 42 0;
#X coords 0 -1 1 1 71 71 2 0 0;
