#N canvas 426 115 1390 805 12;
#X declare -path ../../modules;
#X declare -path ../../modules/commons;
#X obj 750 221 s osc_out;
#X obj 150 173 s to_all;
#X obj 217 173 s osc_out;
#X obj 356 181 s to_all;
#X obj 449 180 s osc_out;
#X obj 356 19 main_connection 101 song;
#X obj 150 19 main_connection 100 presets;
#X obj 556 45 main_note_router;
#X obj 358 45 main_song_handler;
#X obj 150 46 main_presets_handler;
#X obj 455 569 main_output, f 13;
#X obj 263 46 main_osc_handler;
#X obj 556 19 main_connection 102 router;
#N canvas 66 32 1854 977 init 0;
#X obj 105 336 s stop_subproc;
#X obj 108 234 bng 20 250 50 0 empty empty empty 0 -10 0 12 #fcfcfc #000000 #000000;
#X obj 272 185 s current_path;
#X msg 272 158 symbol \$1;
#X obj 272 133 pdcontrol;
#X msg 272 106 dir;
#X obj 232 220 s start_subproc;
#X obj 328 376 declare -path ../../modules;
#X obj 231 252 s init;
#X obj 19 185 delay 2000;
#X obj 108 208 bng 20 250 50 0 empty empty empty 0 -10 0 12 #fcfcfc #000000 #000000;
#X text 427 187 start and init everything;
#X obj 13 12 r auto_start;
#X obj 20 155 delay 100;
#X obj 107 128 bng 20 250 50 0 empty empty empty 0 -10 0 12 #fcfcfc #000000 #000000;
#X obj 107 181 bng 20 250 50 0 empty empty empty 0 -10 0 12 #fcfcfc #000000 #000000;
#X obj 107 154 bng 20 250 50 0 empty empty empty 0 -10 0 12 #fcfcfc #000000 #000000;
#X text 131 154 path;
#X text 131 180 start sub;
#X text 132 233 stop sub;
#X text 132 208 init;
#X obj 161 104 tgl 20 0 empty empty empty 0 -10 0 12 #fcfcfc #000000 #000000 0 1;
#X text 130 128 start all;
#X text 183 103 gui;
#X obj 166 21 loadbang;
#X msg 166 46 0;
#X obj 232 50 s with_gui;
#X obj 15 40 delay 4000;
#X connect 1 0 0 0;
#X connect 3 0 2 0;
#X connect 4 0 3 0;
#X connect 5 0 4 0;
#X connect 9 0 10 0;
#X connect 10 0 8 0;
#X connect 12 0 27 0;
#X connect 13 0 15 0;
#X connect 13 0 9 0;
#X connect 14 0 13 0;
#X connect 14 0 16 0;
#X connect 15 0 6 0;
#X connect 16 0 5 0;
#X connect 21 0 26 0;
#X connect 24 0 25 0;
#X connect 25 0 21 0;
#X connect 27 0 14 0;
#X coords 0 -1 1 1 110 160 1 100 100;
#X restore 22 21 pd init;
#X text 1393 327 start and init everything;
#X obj 1249 65 loadbang;
#X msg 1249 93 \; pd dsp 1;
#X obj 1027 311 declare -path ../../modules/commons;
#X obj 461 334 odrz;
#X obj 643 569 s osc_out;
#X obj 460 296 main_connection 0 odrz;
#X obj 863 393 ctlin;
#X obj 867 472 swap;
#X obj 862 526 pack 0 0;
#X obj 873 630 list trim;
#X obj 724 705 print;
#X obj 876 581 list prepend osc odrz;
#X obj 805 318 readsf~;
#X msg 863 245 open ../../satie.wav;
#X msg 743 276 start;
#X connect 5 0 8 0;
#X connect 6 0 9 0;
#X connect 7 1 0 0;
#X connect 8 0 3 0;
#X connect 8 1 4 0;
#X connect 9 0 1 0;
#X connect 9 1 2 0;
#X connect 12 0 7 0;
#X connect 15 0 16 0;
#X connect 18 0 10 0;
#X connect 18 0 10 1;
#X connect 18 0 10 2;
#X connect 18 0 10 3;
#X connect 18 1 19 0;
#X connect 20 0 18 0;
#X connect 21 0 22 0;
#X connect 21 1 22 1;
#X connect 22 0 23 0;
#X connect 22 1 23 1;
#X connect 23 0 26 0;
#X connect 24 0 18 0;
#X connect 24 0 25 0;
#X connect 26 0 24 0;
#X connect 27 0 18 1;
#X connect 28 0 27 0;
#X connect 28 0 29 0;
#X connect 29 0 27 0;
