#N canvas 761 240 1390 715 10;
#X obj 145 222 t b f;
#X obj 76 282 f;
#X obj 76 312 /;
#X obj 76 252 -;
#X obj 31 176 f;
#X obj 135 134 t b f f;
#X obj 76 342 +;
#X obj 282 11 inlet;
#X obj 31 55 env~ 256;
#X obj 31 139 t f f;
#N canvas 639 436 358 251 gainreduc 0;
#X obj 32 94 -;
#X obj 32 114 / 20;
#X obj 32 134 t b f;
#X msg 32 154 10;
#X obj 32 174 pow;
#X obj 32 34 inlet output;
#X obj 47 64 inlet input;
#X obj 32 206 outlet gain-reduction;
#X text 70 172 gr = 20*log10(output - input);
#X connect 0 0 1 0;
#X connect 1 0 2 0;
#X connect 2 0 3 0;
#X connect 2 1 4 1;
#X connect 3 0 4 0;
#X connect 4 0 7 0;
#X connect 5 0 0 0;
#X connect 6 0 0 1;
#X restore 31 402 pd gainreduc;
#X obj 31 466 line~;
#X text 108 312 Gain reduction;
#X obj 31 422 min 1;
#X obj 31 222 moses 70;
#X obj 91 222 t f f;
#X obj 31 93 max;
#X obj 16 502 *~;
#X obj 15 607 outlet~ leftOutput;
#X text 78 445 ms attack/release;
#X obj 144 27 loadbang;
#X msg 31 444 \$1 40;
#X obj 16 14 inlet~ input;
#X obj 31 372 t a;
#X obj 374 603 outlet;
#X obj 393 12 inlet;
#X msg 141 59 60;
#X text 397 -8 ratio;
#X text 362 622 is_acting;
#X text 163 625 threshold;
#X text 237 625 ratio;
#X obj 237 604 outlet;
#X obj 175 603 outlet;
#X obj 478 14 inlet;
#X text 480 -9 gain;
#X text 312 623 gain;
#X obj 304 604 outlet;
#X obj 16 574 *~;
#X obj 84 563 line~;
#X obj 268 187 + 1;
#X obj 215 95 * 100;
#X text 269 -7 threshold;
#X text 780 421 code from the heavy compatible library;
#X obj 476 257 dbtorms;
#X obj 476 220 + 100;
#X text 588 92 from 0 to 1;
#X obj 476 144 * 96;
#X msg 176 59 1;
#X obj 267 164 * 60;
#X text 438 161 this gives 0-96dB gain;
#X text 225 47 threshold 0 is -100dB;
#X text 227 59 threshold 1 is 0dB;
#X obj 84 540 pack 0 40;
#X msg 413 550 1;
#X msg 377 550 0;
#X connect 0 0 1 0;
#X connect 0 1 2 1;
#X connect 1 0 2 0;
#X connect 2 0 6 0;
#X connect 3 0 1 0;
#X connect 4 0 14 0;
#X connect 5 0 4 0;
#X connect 5 1 14 1;
#X connect 5 2 15 0;
#X connect 6 0 23 0;
#X connect 7 0 32 0;
#X connect 7 0 40 0;
#X connect 8 0 16 0;
#X connect 9 0 4 0;
#X connect 9 1 10 1;
#X connect 10 0 13 0;
#X connect 11 0 17 1;
#X connect 13 0 21 0;
#X connect 14 0 23 0;
#X connect 14 0 54 0;
#X connect 14 1 3 0;
#X connect 14 1 53 0;
#X connect 15 0 3 1;
#X connect 15 1 6 1;
#X connect 16 0 9 0;
#X connect 17 0 37 0;
#X connect 20 0 26 0;
#X connect 20 0 47 0;
#X connect 21 0 11 0;
#X connect 22 0 17 0;
#X connect 22 0 8 0;
#X connect 23 0 10 0;
#X connect 25 0 31 0;
#X connect 25 0 48 0;
#X connect 26 0 5 0;
#X connect 33 0 36 0;
#X connect 33 0 46 0;
#X connect 37 0 18 0;
#X connect 38 0 37 1;
#X connect 39 0 0 0;
#X connect 40 0 5 0;
#X connect 43 0 52 0;
#X connect 44 0 43 0;
#X connect 46 0 44 0;
#X connect 47 0 0 0;
#X connect 48 0 39 0;
#X connect 52 0 38 0;
#X connect 53 0 24 0;
#X connect 54 0 24 0;
