#N canvas 52 20 1534 1097 10;
#X obj 0 0 cnv 18 335 105 empty background_canvas empty 20 12 0 10 #e0e0e0 #404040 0;
#X obj -68 972 outlet~;
#X obj -159 -396 inlet~;
#X obj 22 3 cnv 18 60 20 empty delay_1_time_\$0 960_ms 3 11 1 10 #dfdfdf #404040 0;
#X obj 2 85 tgl 18 0 empty empty empty 0 -9 0 10 #fcfcfc #000000 #000000 0 1;
#X obj 3 180 s x_1_\$0;
#X obj 3 203 s y_1_\$0;
#X obj -82 923 r~ sig_1_\$0;
#N canvas 553 115 919 780 handle_deltim1-\$0 0;
#X obj 140 96 inlet;
#X obj 235 95 inlet;
#X obj 239 471 f \$0;
#X obj 180 469 pack s 0;
#X obj 234 288 / 31;
#X obj 234 311 i;
#X obj 234 333 + 1;
#X floatatom 273 328 5 0 0 0 - - - 0;
#X obj 80 435 *;
#X obj 86 394 t b f;
#X obj 155 360 sel 1 2 3 4 5;
#X msg 129 394 1;
#X msg 162 394 2;
#X msg 190 393 3;
#X msg 219 395 4;
#X msg 255 395 5;
#X obj 255 213 spigot;
#X obj 304 210 spigot;
#X obj 314 141 tgl 18 0 empty empty empty 0 -9 0 10 #fcfcfc #000000 #000000 0 1;
#X obj 343 186 == 0;
#X obj 337 468 f \$0;
#X obj 276 468 pack f 0;
#X msg 162 416 1/4;
#X msg 191 416 1/8;
#X msg 220 416 1/16;
#X msg 255 416 bar;
#X obj 320 379 i;
#X obj 329 433 loadbang;
#X obj 283 355 i;
#X msg 129 417 1/1;
#X obj 316 357 * 15;
#X obj 276 185 f;
#X msg 193 497 \; delay_1_time_\$2 label \$1;
#X msg 357 496 \; delay_1_time_\$2 label \$1_ms;
#X floatatom 410 369 5 0 0 0 - - - 0;
#X obj 306 404 s to_del_tim_\$0;
#X connect 0 0 18 0;
#X connect 1 0 31 0;
#X connect 2 0 3 1;
#X connect 3 0 32 0;
#X connect 4 0 5 0;
#X connect 5 0 6 0;
#X connect 6 0 7 0;
#X connect 6 0 10 0;
#X connect 8 0 28 0;
#X connect 9 0 8 0;
#X connect 9 1 8 1;
#X connect 10 0 11 0;
#X connect 10 1 12 0;
#X connect 10 2 13 0;
#X connect 10 3 14 0;
#X connect 10 4 15 0;
#X connect 11 0 9 0;
#X connect 11 0 29 0;
#X connect 12 0 9 0;
#X connect 12 0 22 0;
#X connect 13 0 9 0;
#X connect 13 0 23 0;
#X connect 14 0 9 0;
#X connect 14 0 24 0;
#X connect 15 0 9 0;
#X connect 15 0 25 0;
#X connect 16 0 4 0;
#X connect 17 0 30 0;
#X connect 18 0 19 0;
#X connect 18 0 16 1;
#X connect 19 0 17 1;
#X connect 20 0 21 1;
#X connect 21 0 33 0;
#X connect 22 0 3 0;
#X connect 23 0 3 0;
#X connect 24 0 3 0;
#X connect 25 0 3 0;
#X connect 26 0 21 0;
#X connect 26 0 35 0;
#X connect 27 0 20 0;
#X connect 27 0 2 0;
#X connect 28 0 35 0;
#X connect 29 0 3 0;
#X connect 30 0 26 0;
#X connect 30 0 34 0;
#X connect 31 0 16 0;
#X connect 31 0 17 0;
#X restore 138 518 pd handle_deltim1-\$0;
#X obj 2 5 vsl 18 75 0 127 0 0 empty empty empty 0 -9 0 10 #000000 #ffffff #000000 0 1;
#X obj 58 922 r y_1_\$0;
#X obj -5 922 r x_1_\$0;
#X obj 5 971 outlet;
#X obj 54 971 outlet;
#X text -74 1000 del1_out;
#X text 8 999 del1_x;
#X text 58 999 del1_y;
#X obj 475 54 hradio 20 1 0 8 empty empty empty 0 -10 0 12 #fcfcfc #000000 #000000 0;
#X text 438 54 load;
#X obj 475 80 hradio 20 1 0 8 empty empty empty 0 -10 0 12 #fcfcfc #000000 #000000 0;
#X text 438 80 save;
#N canvas 57 37 1534 805 handle_presets 1;
#X obj 206 975 unpack 0 0;
#X obj 180 1002 tabwrite presets_\$0;
#X msg 436 557 \$1 1;
#X msg 435 537 \$1 0;
#X msg 432 583 \$1 2;
#X obj 137 465 textfile;
#X obj 137 336 until;
#X obj 137 369 i;
#X obj 172 369 + 1;
#X msg 172 308 0;
#X obj 138 239 bng 20 250 50 0 empty empty empty 0 -10 0 12 #fcfcfc #000000 #000000;
#X msg 137 430 add \$1;
#X obj 138 270 t b b b;
#X msg 211 369 clear;
#X obj 230 338 f;
#X obj 221 271 t b b f;
#X floatatom 289 357 5 0 0 0 - - - 0;
#X obj 225 302 delay 10;
#X obj 229 431 pack 0 0;
#X obj 286 400 r ID_\$0;
#X obj 137 400 tabread presets_\$0;
#X obj 903 429 soundfiler;
#X obj 988 377 f \$0;
#X obj 993 349 loadbang;
#X obj 857 348 t b b f;
#X obj 835 485 until;
#X obj 834 518 i;
#X obj 870 518 + 1;
#X obj 836 388 bng 20 250 50 0 empty empty empty 0 -10 0 12 #fcfcfc #000000 #000000;
#X obj 836 419 t b b b;
#X obj 798 639 pack 0 0;
#X obj 795 612 i;
#X obj 830 611 t b f;
#X msg 870 457 0;
#X obj 834 547 t f f;
#X obj 935 348 r ID_\$0;
#X obj 904 377 pack 0 0 0;
#X obj 214 234 f;
#X obj 926 267 f;
#X obj 834 579 tabread presets_\$0;
#X msg 432 604 \$1 3;
#X msg 433 628 \$1 4;
#X msg 438 651 \$1 5;
#X msg 435 673 \$1 6;
#X msg 431 698 \$1 7;
#X msg 431 721 \$1 8;
#X msg 433 741 \$1 9;
#X msg 430 765 \$1 10;
#X msg 430 790 \$1 11;
#X msg 431 815 \$1 12;
#X msg 430 840 \$1 13;
#X msg 430 869 \$1 14;
#X msg 430 890 \$1 15;
#X msg 432 914 \$1 16;
#X msg 436 937 \$1 17;
#X msg 433 959 \$1 18;
#X msg 429 982 \$1 19;
#X msg 429 1005 \$1 20;
#X msg 431 1025 \$1 21;
#X msg 428 1046 \$1 22;
#X msg 428 1068 \$1 23;
#X msg 429 1090 \$1 24;
#X msg 428 1112 \$1 25;
#X msg 428 1137 \$1 26;
#X msg 428 1158 \$1 27;
#X msg 431 1182 \$1 28;
#X msg 432 1204 \$1 29;
#X msg 431 1227 \$1 30;
#X msg 427 1250 \$1 31;
#X msg 427 1273 \$1 32;
#X msg 429 1293 \$1 33;
#X msg 426 1314 \$1 34;
#X msg 426 1336 \$1 35;
#X obj 798 673 route 0 1 2 3 4 5 6 7 8 9 10 11 12 13 14 15 16 17 18 19 20 21 22 23 24 25 26 27 28 29 30 31 32 33 34 35 36, f 132;
#X msg 426 1357 \$1 36;
#X obj 171 534 print;
#X text -40 308 n of presets (index + 1);
#X text 665 461 n of presets (index + 1;
#X obj 279 185 r save_preset_\$0;
#X obj 894 182 r load_preset_\$0;
#X obj 498 531 r timesync_\$0;
#X obj 499 552 r time_\$0;
#X obj 495 580 r autom_sync_\$0;
#X obj 495 600 r div_\$0;
#X obj 496 620 r bpm_\$0;
#X obj 497 642 r phase_\$0;
#X obj 498 661 r shape_\$0;
#X obj 499 682 r transition_\$0;
#X obj 501 702 r spread_\$0;
#X obj 501 725 r fbk_\$0;
#X obj 501 746 r flt_\$0;
#X obj 797 738 s preset_timesync_\$0;
#X obj 798 759 s preset_time_\$0;
#X obj 794 787 s preset_autom_sync_\$0;
#X obj 794 807 s preset_div_\$0;
#X obj 795 827 s preset_bpm_\$0;
#X obj 796 849 s preset_phase_\$0;
#X obj 797 868 s preset_shape_\$0;
#X obj 798 889 s preset_transition_\$0;
#X obj 800 909 s preset_spread_\$0;
#X obj 800 932 s preset_fbk_\$0;
#X obj 800 953 s preset_flt_\$0;
#X msg 836 458 11;
#X msg 137 308 11;
#X msg 211 465 write ../presets/delay_presets/\$2/preset_\$1_info.txt cr;
#X msg 905 403 read -ascii -resize ../presets/delay_presets/\$2/preset_\$1_info.txt presets_\$3, f 89;
#X connect 0 0 1 0;
#X connect 0 1 1 1;
#X connect 2 0 0 0;
#X connect 3 0 0 0;
#X connect 4 0 0 0;
#X connect 6 0 7 0;
#X connect 7 0 8 0;
#X connect 7 0 20 0;
#X connect 8 0 7 1;
#X connect 9 0 7 1;
#X connect 10 0 12 0;
#X connect 11 0 5 0;
#X connect 12 0 103 0;
#X connect 12 1 9 0;
#X connect 12 2 13 0;
#X connect 13 0 5 0;
#X connect 14 0 16 0;
#X connect 14 0 18 0;
#X connect 15 0 17 0;
#X connect 15 1 10 0;
#X connect 15 2 14 1;
#X connect 17 0 14 0;
#X connect 18 0 104 0;
#X connect 19 0 18 1;
#X connect 20 0 11 0;
#X connect 22 0 36 2;
#X connect 23 0 22 0;
#X connect 24 1 28 0;
#X connect 24 2 36 0;
#X connect 25 0 26 0;
#X connect 26 0 27 0;
#X connect 26 0 34 0;
#X connect 27 0 26 1;
#X connect 28 0 29 0;
#X connect 29 0 102 0;
#X connect 29 1 33 0;
#X connect 30 0 73 0;
#X connect 31 0 30 0;
#X connect 32 0 31 0;
#X connect 32 1 30 1;
#X connect 33 0 26 1;
#X connect 34 0 39 0;
#X connect 34 1 31 1;
#X connect 35 0 36 1;
#X connect 36 0 105 0;
#X connect 37 0 15 0;
#X connect 38 0 24 0;
#X connect 39 0 32 0;
#X connect 40 0 0 0;
#X connect 41 0 0 0;
#X connect 42 0 0 0;
#X connect 43 0 0 0;
#X connect 44 0 0 0;
#X connect 45 0 0 0;
#X connect 46 0 0 0;
#X connect 47 0 0 0;
#X connect 48 0 0 0;
#X connect 49 0 0 0;
#X connect 50 0 0 0;
#X connect 51 0 0 0;
#X connect 52 0 0 0;
#X connect 53 0 0 0;
#X connect 54 0 0 0;
#X connect 55 0 0 0;
#X connect 56 0 0 0;
#X connect 57 0 0 0;
#X connect 58 0 0 0;
#X connect 59 0 0 0;
#X connect 60 0 0 0;
#X connect 61 0 0 0;
#X connect 62 0 0 0;
#X connect 63 0 0 0;
#X connect 64 0 0 0;
#X connect 65 0 0 0;
#X connect 66 0 0 0;
#X connect 67 0 0 0;
#X connect 68 0 0 0;
#X connect 69 0 0 0;
#X connect 70 0 0 0;
#X connect 71 0 0 0;
#X connect 72 0 0 0;
#X connect 73 0 91 0;
#X connect 73 1 92 0;
#X connect 73 2 93 0;
#X connect 73 3 94 0;
#X connect 73 4 95 0;
#X connect 73 5 96 0;
#X connect 73 6 97 0;
#X connect 73 7 98 0;
#X connect 73 8 99 0;
#X connect 73 9 100 0;
#X connect 73 10 101 0;
#X connect 74 0 0 0;
#X connect 78 0 37 0;
#X connect 79 0 38 0;
#X connect 80 0 3 0;
#X connect 81 0 2 0;
#X connect 82 0 4 0;
#X connect 83 0 40 0;
#X connect 84 0 41 0;
#X connect 85 0 42 0;
#X connect 86 0 43 0;
#X connect 87 0 44 0;
#X connect 88 0 45 0;
#X connect 89 0 46 0;
#X connect 90 0 47 0;
#X connect 102 0 25 0;
#X connect 103 0 6 0;
#X connect 104 0 5 0;
#X connect 104 0 75 0;
#X connect 105 0 21 0;
#X restore 481 -292 pd handle_presets;
#X obj 385 -13 route load save;
#X obj 387 -37 r load_save_\$0;
#X obj 662 58 s load_preset_\$0;
#X obj 662 84 s save_preset_\$0;
#X obj -109 148 r preset_timesync_1_\$0;
#X obj -83 -188 r preset_time_1_\$0;
#X obj 119 -293 r preset_autom_sync_1_\$0;
#X obj 120 -274 r preset_div_1_\$0;
#X obj 120 -255 r preset_bpm_1_\$0;
#X obj 121 -217 r preset_shape_1_\$0;
#X obj 120 -197 r preset_transition_1_\$0;
#X obj 120 -178 r preset_spread_1_\$0;
#X obj 120 -236 r preset_phase_1_\$0;
#X obj 328 -129 r preset_fbk_1_\$0;
#X obj 329 -107 r preset_flt_1_\$0;
#X obj 699 -214 s ID_\$0;
#X obj 745 -316 loadbang;
#X obj 485 -321 table presets_\$0 38;
#X obj -28 -349 s rst_\$0;
#X obj -98 -348 s bang_\$0;
#X obj -100 -396 inlet;
#X obj -28 -394 inlet;
#X obj 719 -255 f \$0;
#X text -162 -420 signal;
#X text -108 -419 ext_metro;
#X text -39 -417 ext_rst;
#X obj 44 -344 s load_save_\$0;
#X obj 42 -394 inlet;
#X text 39 -416 load/save;
#X obj 89 -49 bng 18 250 50 0 empty empty rst 0 -9 0 10 #fcfcfc #000000 #000000;
#X obj 1 -75 r bang_\$0;
#X obj 28 -47 r rst_\$0;
#N canvas 154 428 793 555 delay1 0;
#X obj 195 112 inlet~;
#X obj 365 109 inlet;
#X obj 365 461 outlet~;
#X obj 429 354 *~;
#X obj 472 113 inlet;
#X obj 472 137 / 127;
#X obj 462 279 pack 0 50;
#X text 454 96 FEEDBACK;
#X text 365 89 DELAY;
#X text 193 90 SIGNAL IN;
#X obj 365 286 vd~ \$0-dly1;
#X obj 462 302 line;
#X obj 197 465 delwrite~ \$0-dly1 2000;
#X obj 482 217 min 0.9;
#X obj 365 148 max 40;
#X obj 365 236 line~;
#X obj 366 189 pack 0 50;
#X connect 0 0 12 0;
#X connect 1 0 14 0;
#X connect 3 0 12 0;
#X connect 4 0 5 0;
#X connect 5 0 13 0;
#X connect 6 0 11 0;
#X connect 10 0 2 0;
#X connect 10 0 3 0;
#X connect 11 0 3 1;
#X connect 13 0 6 0;
#X connect 14 0 16 0;
#X connect 15 0 10 0;
#X connect 16 0 15 0;
#X restore -100 526 pd delay1;
#X obj -66 669 lop~;
#X obj -66 691 lop~;
#X obj -2 539 / 127;
#X obj -2 588 * 4950;
#X obj -2 610 + 50;
#X obj -2 632 pack 0 50;
#X obj -2 654 line;
#X obj -65 725 s~ sig_1_\$0;
#X obj 137 482 r timesync_\$0;
#X obj 245 480 r time_\$0;
#X obj 86 184 s autom_sync_\$0;
#X obj 86 204 s div_\$0;
#X obj 88 224 s bpm_\$0;
#X obj 88 246 s phase_\$0;
#X obj 89 265 s shape_\$0;
#X obj 90 286 s transition_\$0;
#X obj 92 306 s spread_\$0;
#X obj 92 329 s fbk_\$0;
#X obj 92 350 s flt_\$0;
#X obj -83 -168 s time_\$0;
#X obj -107 123 s timesync_\$0;
#X obj 293 19 vsl 18 80 0 127 0 0 empty empty fbk 3 -9 1 10 #000000 #ffffff #7c7c7c 0 1;
#X obj 314 19 vsl 18 80 0 127 0 0 empty empty flt 3 -9 1 10 #000000 #ffffff #7c7c7c 0 1;
#X obj -74 418 r to_del_tim_\$0;
#X obj -20 451 r fbk_\$0;
#X obj 42 451 r flt_\$0;
#X floatatom 651 -215 5 0 0 0 - - - 0;
#X obj 21 24 quad_pan_automation;
#X connect 2 0 54 0;
#X connect 4 0 75 0;
#X connect 7 0 1 0;
#X connect 9 0 74 0;
#X connect 10 0 13 0;
#X connect 11 0 12 0;
#X connect 17 0 24 0;
#X connect 19 0 25 0;
#X connect 22 0 17 0;
#X connect 22 1 19 0;
#X connect 23 0 22 0;
#X connect 26 0 4 0;
#X connect 27 0 9 0;
#X connect 28 0 82 3;
#X connect 29 0 82 4;
#X connect 30 0 82 5;
#X connect 31 0 82 7;
#X connect 32 0 82 8;
#X connect 33 0 82 9;
#X connect 34 0 82 6;
#X connect 35 0 76 0;
#X connect 36 0 77 0;
#X connect 38 0 44 0;
#X connect 42 0 41 0;
#X connect 43 0 40 0;
#X connect 44 0 37 0;
#X connect 44 0 81 0;
#X connect 49 0 48 0;
#X connect 51 0 82 2;
#X connect 52 0 82 0;
#X connect 53 0 82 1;
#X connect 54 0 55 0;
#X connect 55 0 56 0;
#X connect 56 0 62 0;
#X connect 57 0 58 0;
#X connect 58 0 59 0;
#X connect 59 0 60 0;
#X connect 60 0 61 0;
#X connect 61 0 55 1;
#X connect 61 0 56 1;
#X connect 63 0 8 0;
#X connect 64 0 8 1;
#X connect 76 0 72 0;
#X connect 77 0 73 0;
#X connect 78 0 54 1;
#X connect 79 0 54 2;
#X connect 80 0 57 0;
#X connect 82 0 5 0;
#X connect 82 1 6 0;
#X connect 82 2 65 0;
#X connect 82 3 66 0;
#X connect 82 4 67 0;
#X connect 82 5 68 0;
#X connect 82 6 69 0;
#X connect 82 7 70 0;
#X connect 82 8 71 0;
#X coords 0 -1 1 1 335 105 1 0 0;
