#N canvas 192 220 1036 886 12;
#X obj 334 61 inlet~;
#X obj 314 670 outlet~;
#X obj 663 389 pack f 50;
#X obj 632 64 inlet;
#X obj 663 418 line;
#X obj 338 495 hip~, f 5;
#X obj 340 454 lop~;
#X obj 616 251 - 63;
#X obj 663 324 max 1;
#X obj 597 324 min 0;
#X obj 665 350 mtof;
#X obj 597 381 mtof;
#X obj 573 412 pack f 50;
#X obj 573 440 line;
#X obj 617 279 * 2;
#X obj 597 351 + 160;
#X obj 445 485 / 127;
#X obj 443 520 expr 1.02232 - 3.151674*$f1 + 3.151674* pow($f1 \, 2);
#X obj 314 557 *~;
#X obj 443 547 + 0.5;
#X obj 443 574 * 6;
#X text 339 31 signal;
#X text 626 34 filter;
#X connect 0 0 6 0;
#X connect 2 0 4 0;
#X connect 3 0 7 0;
#X connect 3 0 16 0;
#X connect 4 0 5 1;
#X connect 5 0 18 0;
#X connect 6 0 5 0;
#X connect 7 0 14 0;
#X connect 8 0 10 0;
#X connect 9 0 15 0;
#X connect 10 0 2 0;
#X connect 11 0 12 0;
#X connect 12 0 13 0;
#X connect 13 0 6 1;
#X connect 14 0 8 0;
#X connect 14 0 9 0;
#X connect 15 0 11 0;
#X connect 16 0 17 0;
#X connect 17 0 19 0;
#X connect 18 0 1 0;
#X connect 19 0 20 0;
#X connect 20 0 18 1;
