#N canvas 697 232 635 393 12;
#X obj 158 152 1.00058, f 13;
#X obj 158 177 pow;
#X obj 109 257 *;
#X obj 171 121 t b f;
#X obj 140 217 t b f;
#X obj 58 55 inlet;
#X obj 266 56 inlet;
#X obj 84 327 outlet;
#X text 56 28 base_freq;
#X text 251 32 n_of_cents;
#X text 82 355 comment;
#X connect 0 0 1 0;
#X connect 1 0 4 0;
#X connect 2 0 7 0;
#X connect 3 0 0 0;
#X connect 3 1 1 1;
#X connect 4 0 2 0;
#X connect 4 1 2 1;
#X connect 5 0 2 0;
#X connect 6 0 3 0;
