#N canvas 288 192 1534 805 10;
#X obj 108 121 hsl 80 15 0 32 0 0 empty ratio1 ratio 55 9 1 10 #000000 #ffffff #7c7c7c 0 1;
#X msg 278 310 ratio \$1;
#X obj 108 162 hsl 80 15 0 1 0 0 empty level1 level 56 9 1 10 #000000 #ffffff #7c7c7c 0 1;
#X msg 272 440 level \$1;
#X obj 210 624 route list;
#X obj 108 202 hsl 80 15 0 127 0 0 empty empty a 70 8 1 10 #000000 #ffffff #7c7c7c 0 1;
#X obj 108 221 hsl 80 15 0 127 0 0 empty empty d 70 8 1 10 #000000 #ffffff #7c7c7c 0 1;
#X obj 108 241 hsl 80 15 0 127 0 0 empty empty s 70 8 1 10 #000000 #ffffff #7c7c7c 0 1;
#X obj 108 260 hsl 80 15 0 127 0 0 empty empty r 70 8 1 10 #000000 #ffffff #7c7c7c 0 1;
#X obj 210 642 outlet;
#X obj 210 605 list prepend all toOscs \$1;
#X obj 308 -166 inlet;
#X obj 308 -131 route \$1;
#X obj 370 -130 route allOscs;
#X obj 367 168 unpack f f f f;
#X obj 496 121 loadbang;
#X obj 496 142 float \$1;
#X obj 55 92 i;
#X obj 55 113 sel 0;
#X msg 55 134 0.5;
#X obj 492 -187 loadbang;
#X msg 492 -166 5 250 50 1000;
#X obj 141 29 loadbang;
#X msg 141 50 1;
#X obj 108 181 hsl 80 15 0 127 0 0 empty empty mod 56 9 1 10 #000000 #ffffff #7c7c7c 0 1;
#X msg 335 440 mod \$1;
#X obj 119 105 hsl 70 10 -7 7 0 0 empty empty empty -2 -9 0 10 #000000 #ffffff #7c7c7c 0 1;
#X msg 387 440 det \$1;
#X obj 104 105 bng 10 250 50 0 empty empty empty 0 -9 0 10 #fcfcfc #000000 #000000;
#X msg 153 82 0;
#X obj 143 124 i;
#X obj 141 141 nbx 2 16 -1e+37 1e+37 0 0 empty empty empty 0 -9 0 10 #000000 #ffffff #7c7c7c 0 256;
#X obj 105 140 nbx 3 16 -1e+37 1e+37 0 0 empty empty empty 0 -9 0 10 #000000 #ffffff #7c7c7c 0 256;
#X obj 175 147 nbx 1 10 -1e+37 1e+37 0 0 empty empty osc 0 -6 0 8 #9f9f9f #ffffff #000000 0 256;
#X obj 402 213 i;
#X obj 382 300 i;
#X obj 308 -102 route ratio level env get_env mod det rst a d s r;
#X msg 96 454 a \$1;
#X msg 133 454 d \$1;
#X msg 169 454 s \$1;
#X msg 206 454 r \$1;
#X connect 0 0 17 0;
#X connect 1 0 10 0;
#X connect 2 0 3 0;
#X connect 3 0 10 0;
#X connect 4 0 9 0;
#X connect 5 0 37 0;
#X connect 6 0 38 0;
#X connect 7 0 39 0;
#X connect 8 0 40 0;
#X connect 10 0 4 0;
#X connect 11 0 12 0;
#X connect 11 0 13 0;
#X connect 12 0 36 0;
#X connect 13 0 36 0;
#X connect 14 0 5 0;
#X connect 14 1 6 0;
#X connect 14 2 7 0;
#X connect 14 3 8 0;
#X connect 15 0 16 0;
#X connect 16 0 33 0;
#X connect 17 0 18 0;
#X connect 18 0 19 0;
#X connect 18 1 32 0;
#X connect 19 0 32 0;
#X connect 20 0 21 0;
#X connect 21 0 14 0;
#X connect 22 0 23 0;
#X connect 23 0 0 0;
#X connect 23 0 2 0;
#X connect 23 0 29 0;
#X connect 24 0 25 0;
#X connect 25 0 10 0;
#X connect 26 0 30 0;
#X connect 26 0 35 0;
#X connect 27 0 10 0;
#X connect 28 0 29 0;
#X connect 29 0 26 0;
#X connect 30 0 31 0;
#X connect 32 0 1 0;
#X connect 34 0 26 0;
#X connect 35 0 27 0;
#X connect 36 0 0 0;
#X connect 36 1 2 0;
#X connect 36 2 14 0;
#X connect 36 4 24 0;
#X connect 36 5 34 0;
#X connect 36 6 28 0;
#X connect 36 7 5 0;
#X connect 36 8 6 0;
#X connect 36 9 7 0;
#X connect 36 10 8 0;
#X connect 37 0 10 0;
#X connect 38 0 10 0;
#X connect 39 0 10 0;
#X connect 40 0 10 0;
#X coords 0 -1 1 1 95 180 2 100 100;
