#N canvas -8 -8 1366 725 12;
#N canvas -8 -8 1366 725 allpass 0;
#X obj 401 208 rzero_rev~;
#X obj 400 235 rpole~;
#X obj 395 175 inlet~;
#X obj 467 175 inlet~;
#X obj 400 259 outlet~;
#X connect 0 0 1 0;
#X connect 1 0 4 0;
#X connect 2 0 0 0;
#X connect 3 0 0 1;
#X connect 3 0 1 1;
#X restore 682 201 pd allpass;
#N canvas -8 -8 1366 725 allpass 0;
#X obj 401 208 rzero_rev~;
#X obj 400 235 rpole~;
#X obj 395 175 inlet~;
#X obj 467 175 inlet~;
#X obj 400 259 outlet~;
#X connect 0 0 1 0;
#X connect 1 0 4 0;
#X connect 2 0 0 0;
#X connect 3 0 0 1;
#X connect 3 0 1 1;
#X restore 682 224 pd allpass;
#N canvas -8 -8 1366 725 allpass 0;
#X obj 401 208 rzero_rev~;
#X obj 400 235 rpole~;
#X obj 395 175 inlet~;
#X obj 467 175 inlet~;
#X obj 400 259 outlet~;
#X connect 0 0 1 0;
#X connect 1 0 4 0;
#X connect 2 0 0 0;
#X connect 3 0 0 1;
#X connect 3 0 1 1;
#X restore 682 249 pd allpass;
#N canvas -8 -8 1366 725 allpass 0;
#X obj 401 208 rzero_rev~;
#X obj 400 235 rpole~;
#X obj 395 175 inlet~;
#X obj 467 175 inlet~;
#X obj 400 259 outlet~;
#X connect 0 0 1 0;
#X connect 1 0 4 0;
#X connect 2 0 0 0;
#X connect 3 0 0 1;
#X connect 3 0 1 1;
#X restore 682 272 pd allpass;
#N canvas -8 -8 1366 725 allpass 0;
#X obj 401 208 rzero_rev~;
#X obj 400 235 rpole~;
#X obj 395 175 inlet~;
#X obj 467 175 inlet~;
#X obj 400 259 outlet~;
#X connect 0 0 1 0;
#X connect 1 0 4 0;
#X connect 2 0 0 0;
#X connect 3 0 0 1;
#X connect 3 0 1 1;
#X restore 682 296 pd allpass;
#N canvas -8 -8 1366 725 allpass 0;
#X obj 401 208 rzero_rev~;
#X obj 400 235 rpole~;
#X obj 395 175 inlet~;
#X obj 467 175 inlet~;
#X obj 400 259 outlet~;
#X connect 0 0 1 0;
#X connect 1 0 4 0;
#X connect 2 0 0 0;
#X connect 3 0 0 1;
#X connect 3 0 1 1;
#X restore 682 318 pd allpass;
#N canvas -8 -8 1366 725 allpass 0;
#X obj 401 208 rzero_rev~;
#X obj 400 235 rpole~;
#X obj 395 175 inlet~;
#X obj 467 175 inlet~;
#X obj 400 259 outlet~;
#X connect 0 0 1 0;
#X connect 1 0 4 0;
#X connect 2 0 0 0;
#X connect 3 0 0 1;
#X connect 3 0 1 1;
#X restore 682 343 pd allpass;
#N canvas -8 -8 1366 725 allpass 0;
#X obj 401 208 rzero_rev~;
#X obj 400 235 rpole~;
#X obj 395 175 inlet~;
#X obj 467 175 inlet~;
#X obj 400 259 outlet~;
#X connect 0 0 1 0;
#X connect 1 0 4 0;
#X connect 2 0 0 0;
#X connect 3 0 0 1;
#X connect 3 0 1 1;
#X restore 682 366 pd allpass;
#X obj 776 208 osc~;
#X obj 563 385 +~;
#X text 167 132 0-1;
#X obj 14 10 inlet~;
#X obj 390 540 outlet~;
#X text 226 132 0-1;
#X obj 103 9 inlet~;
#X obj 191 9 inlet~;
#X obj 277 8 inlet~;
#X obj 776 253 *~;
#X text 101 116 speed~;
#X text 166 116 depth~;
#X text 225 116 dry/wet~;
#N canvas -8 -8 1366 725 dry_wet_mixer~ 0;
#X obj 472 579 +~, f 25;
#X obj 645 501 *~;
#X obj 471 508 *~;
#X obj 489 483 abs~;
#X obj 489 459 expr~ 1-$v1;
#X obj 490 437 r~ dry_wet_\$0;
#X obj 663 474 r~ dry_wet_\$0;
#X obj 471 385 inlet~;
#X obj 645 397 inlet~;
#X obj 472 603 outlet~;
#X connect 0 0 9 0;
#X connect 1 0 0 1;
#X connect 2 0 0 0;
#X connect 3 0 2 1;
#X connect 4 0 3 0;
#X connect 5 0 4 0;
#X connect 6 0 1 1;
#X connect 7 0 2 0;
#X connect 8 0 1 0;
#X restore 391 448 pd dry_wet_mixer~;
#X f 25;
#X obj 103 54 s~ speed_\$0;
#X obj 777 186 r~ speed_\$0;
#X obj 190 54 s~ depth_\$0;
#X obj 190 31 clip~ 0 1;
#X obj 793 230 r~ depth_\$0;
#X obj 277 31 clip~ 0 1;
#X obj 277 55 s~ dry_wet_\$0;
#X text 777 297 <-allpass filters cascade;
#X obj 391 472 clip~ -1 1;
#X obj 14 33 s~ input_\$0;
#X obj 632 163 r~ input_\$0;
#X obj 391 418 r~ input_\$0;
#X obj 564 351 r~ input_\$0;
#X text 102 132 0-8;
#X obj 103 30 clip~ 0 8;
#X obj 563 409 *~ 0.5;
#X connect 0 0 1 0;
#X connect 1 0 2 0;
#X connect 2 0 3 0;
#X connect 3 0 4 0;
#X connect 4 0 5 0;
#X connect 5 0 6 0;
#X connect 6 0 7 0;
#X connect 7 0 9 1;
#X connect 8 0 17 0;
#X connect 9 0 37 0;
#X connect 11 0 31 0;
#X connect 14 0 36 0;
#X connect 15 0 25 0;
#X connect 16 0 27 0;
#X connect 17 0 0 1;
#X connect 17 0 7 1;
#X connect 17 0 6 1;
#X connect 17 0 5 1;
#X connect 17 0 4 1;
#X connect 17 0 3 1;
#X connect 17 0 2 1;
#X connect 17 0 1 1;
#X connect 21 0 30 0;
#X connect 23 0 8 0;
#X connect 25 0 24 0;
#X connect 26 0 17 1;
#X connect 27 0 28 0;
#X connect 30 0 12 0;
#X connect 32 0 0 0;
#X connect 33 0 21 0;
#X connect 34 0 9 0;
#X connect 36 0 22 0;
#X connect 37 0 21 1;
#X coords 0 -1 1 1 188 56 1 100 100;
