#N canvas 52 20 1854 1097 12;
#X obj 262 121 bng 18 250 50 0 empty empty empty 0 -9 0 10 #fcfcfc #000000 #000000;
#X obj 336 133 bng 18 250 50 0 empty empty empty 0 -9 0 10 #fcfcfc #000000 #000000;
#X obj 223 264 tabwrite~ loop_\$0;
#X obj 95 701 *~;
#X obj 140 644 line~;
#X msg 133 616 1 5;
#X msg 164 616 0 5;
#X msg 233 170 start;
#X msg 274 171 stop;
#X obj 337 171 timer;
#X obj 396 657 tabplay~ loop_\$0;
#X obj 159 793 outlet~;
#X msg 403 624 0;
#X obj 528 726 line~;
#X msg 574 661 0 5;
#X obj 535 628 delay 100;
#X obj 578 601 - 5;
#X msg 520 659 1 5;
#X obj 357 739 *~;
#X obj 852 83 spigot;
#X obj 885 27 tgl 18 0 empty empty empty 0 -9 0 10 #fcfcfc #000000 #000000 0 1;
#X msg 898 84 0;
#X text 546 2 play;
#X obj 541 82 spigot;
#X obj 574 26 tgl 18 0 empty empty empty 0 -9 0 10 #fcfcfc #000000 #000000 0 1;
#X msg 587 83 0;
#X obj 118 -182 inlet~;
#X text 419 195 start playing \; turn off vol;
#X obj 230 81 spigot;
#X obj 263 25 tgl 18 0 empty empty empty 0 -9 0 10 #fcfcfc #000000 #000000 0 1;
#X msg 276 82 0;
#X obj 377 79 spigot;
#X obj 410 23 tgl 18 0 empty empty empty 0 -9 0 10 #fcfcfc #000000 #000000 0 1;
#X msg 423 80 0;
#X text 235 1 rec start;
#X text 382 -1 rec stop;
#X obj 198 -175 inlet;
#X text 850 -553 stop pedal;
#X obj 889 -583 bng 20 250 50 0 empty empty empty 0 -10 0 12 #fcfcfc #000000 #000000;
#X obj 584 -583 bng 20 250 50 0 empty empty empty 0 -10 0 12 #fcfcfc #000000 #000000;
#X obj 370 868 dac~;
#X obj 900 734 noise~;
#X obj 900 760 *~;
#X obj 148 -495 table loop_\$0 441000;
#X obj 1007 725 tgl 20 0 empty empty empty 0 -10 0 12 #fcfcfc #000000 #000000 0 1;
#X obj 1034 830 delay 10;
#X msg 984 828 1;
#X msg 1034 855 0;
#X obj 983 888 s in_bang_\$0;
#X obj 855 58 r in_bang_\$0;
#X obj 541 56 r in_bang_\$0;
#X obj 376 56 r in_bang_\$0;
#X obj 230 55 r in_bang_\$0;
#X obj 217 -262 s in_bang_\$0;
#X obj 617 541 delay 5;
#X obj 690 84 spigot;
#X obj 723 28 tgl 18 0 empty empty empty 0 -9 0 10 #fcfcfc #000000 #000000 0 1;
#X msg 736 85 0;
#X text 699 7 stop;
#X obj 693 59 r in_bang_\$0;
#X text 571 -555 rec pedal;
#X obj 731 -583 bng 20 250 50 0 empty empty empty 0 -10 0 12 #fcfcfc #000000 #000000;
#X text 718 -555 play pedal;
#X obj 473 -407 tgl 20 0 empty empty empty 0 -10 0 12 #fcfcfc #000000 #000000 0 1;
#X text 436 -430 is recording;
#X obj 575 -386 f;
#X obj 716 -386 f;
#X obj 866 -386 f;
#X obj 547 -358 moses 1;
#X obj 695 -358 moses 1;
#X obj 847 -358 moses 1;
#X obj 474 -315 tgl 20 0 empty empty empty 0 -10 0 12 #fcfcfc #000000 #000000 0 1;
#X obj 537 -248 f;
#X obj 680 -291 f;
#X obj 838 -291 f;
#X obj 840 -321 bng 20 250 50 0 empty empty empty 0 -10 0 12 #fcfcfc #000000 #000000;
#X obj 888 -321 bng 20 250 50 0 empty empty empty 0 -10 0 12 #fcfcfc #000000 #000000;
#X obj 683 -321 bng 20 250 50 0 empty empty empty 0 -10 0 12 #fcfcfc #000000 #000000;
#X obj 730 -321 bng 20 250 50 0 empty empty empty 0 -10 0 12 #fcfcfc #000000 #000000;
#X obj 542 -321 bng 20 250 50 0 empty empty empty 0 -10 0 12 #fcfcfc #000000 #000000;
#X obj 731 -291 f;
#X obj 889 -291 f;
#X text 437 -338 has_recording;
#X obj 518 -181 moses 1;
#X obj 650 -260 moses 1;
#X obj 802 -260 moses 1;
#X obj 723 -259 moses 1;
#X obj 875 -259 moses 1;
#X obj 516 -154 bng 20 250 50 0 empty empty empty 0 -10 0 12 #fcfcfc #000000 #000000;
#X obj 564 -153 bng 20 250 50 0 empty empty empty 0 -10 0 12 #fcfcfc #000000 #000000;
#X obj 692 -232 bng 20 250 50 0 empty empty empty 0 -10 0 12 #fcfcfc #000000 #000000;
#X obj 730 -233 bng 20 250 50 0 empty empty empty 0 -10 0 12 #fcfcfc #000000 #000000;
#X obj 757 -231 bng 20 250 50 0 empty empty empty 0 -10 0 12 #fcfcfc #000000 #000000;
#X obj 810 -231 bng 20 250 50 0 empty empty empty 0 -10 0 12 #fcfcfc #000000 #000000;
#X obj 831 -230 bng 20 250 50 0 empty empty empty 0 -10 0 12 #fcfcfc #000000 #000000;
#X obj 879 -231 bng 20 250 50 0 empty empty empty 0 -10 0 12 #fcfcfc #000000 #000000;
#X obj 904 -230 bng 20 250 50 0 empty empty empty 0 -10 0 12 #fcfcfc #000000 #000000;
#X obj 823 -201 bng 20 250 50 0 empty empty empty 0 -10 0 12 #fcfcfc #000000 #000000;
#X obj 895 -199 bng 20 250 50 0 empty empty empty 0 -10 0 12 #fcfcfc #000000 #000000;
#X msg 516 -125 1;
#X obj 743 -203 bng 20 250 50 0 empty empty empty 0 -10 0 12 #fcfcfc #000000 #000000;
#X msg 739 -175 1;
#X msg 686 -202 1;
#X msg 894 -170 1;
#X obj 988 785 metro 1500;
#X msg 299 -158 1;
#X obj 333 -409 loadbang;
#X msg 333 -383 0;
#X obj -171 -172 osc~;
#X obj -134 -148 *~;
#X msg -92 -198 1 5;
#X msg -55 -183 0 5;
#X obj -77 -245 bng 20 250 50 0 empty empty empty 0 -10 0 12 #fcfcfc #000000 #000000;
#X obj -79 -149 line~;
#X obj -55 -209 delay 200;
#X msg -156 -296 330;
#X msg -90 -300 440;
#X msg -39 -302 550;
#X obj 818 447 spigot;
#X obj 753 444 spigot;
#X obj 896 268 bng 20 250 50 0 empty empty empty 0 -10 0 12 #fcfcfc #000000 #000000;
#X text 723 419 play again;
#X obj -55 538 loadbang;
#X text 813 406 stop playing turn on vol;
#X msg 896 319 1;
#X msg 865 319 0;
#X obj 401 225 t b b b b b;
#X obj 799 270 bng 20 250 50 0 empty empty empty 0 -10 0 12 #fcfcfc #000000 #000000;
#X msg 818 319 1;
#X msg 787 319 0;
#X obj 473 -246 tgl 20 0 empty empty empty 0 -10 0 12 #fcfcfc #000000 #000000 0 1;
#X text 440 -271 is_playing;
#X text 861 6 stop next bang;
#X text 1008 6 stop_immediately;
#X obj 1042 39 bng 20 250 50 0 empty empty empty 0 -10 0 12 #fcfcfc #000000 #000000;
#X obj 1025 74 t b b b;
#X msg 979 108 0;
#X msg 738 591 stop;
#X connect 0 0 7 0;
#X connect 0 0 9 0;
#X connect 1 0 8 0;
#X connect 1 0 9 1;
#X connect 1 0 5 0;
#X connect 3 0 11 0;
#X connect 3 0 40 0;
#X connect 4 0 3 1;
#X connect 5 0 4 0;
#X connect 6 0 4 0;
#X connect 7 0 2 0;
#X connect 8 0 2 0;
#X connect 9 0 16 0;
#X connect 10 0 18 0;
#X connect 12 0 10 0;
#X connect 13 0 18 1;
#X connect 14 0 13 0;
#X connect 15 0 14 0;
#X connect 15 0 54 0;
#X connect 16 0 15 1;
#X connect 17 0 13 0;
#X connect 18 0 11 0;
#X connect 18 0 40 0;
#X connect 19 0 21 0;
#X connect 20 0 19 1;
#X connect 21 0 20 0;
#X connect 23 0 25 0;
#X connect 23 0 126 0;
#X connect 24 0 23 1;
#X connect 25 0 24 0;
#X connect 26 0 3 0;
#X connect 26 0 2 0;
#X connect 28 0 30 0;
#X connect 28 0 0 0;
#X connect 28 0 105 0;
#X connect 29 0 28 1;
#X connect 30 0 29 0;
#X connect 31 0 33 0;
#X connect 31 0 1 0;
#X connect 32 0 31 1;
#X connect 33 0 32 0;
#X connect 33 0 63 0;
#X connect 36 0 53 0;
#X connect 38 0 67 0;
#X connect 39 0 65 0;
#X connect 41 0 42 0;
#X connect 42 0 40 0;
#X connect 44 0 104 0;
#X connect 45 0 47 0;
#X connect 46 0 42 1;
#X connect 47 0 42 1;
#X connect 49 0 19 0;
#X connect 50 0 23 0;
#X connect 51 0 31 0;
#X connect 52 0 28 0;
#X connect 54 0 119 0;
#X connect 54 0 118 0;
#X connect 55 0 57 0;
#X connect 55 0 120 0;
#X connect 56 0 55 1;
#X connect 57 0 56 0;
#X connect 59 0 55 0;
#X connect 61 0 66 0;
#X connect 63 0 65 1;
#X connect 63 0 66 1;
#X connect 63 0 67 1;
#X connect 65 0 68 0;
#X connect 66 0 69 0;
#X connect 67 0 70 0;
#X connect 68 0 79 0;
#X connect 69 0 77 0;
#X connect 69 1 78 0;
#X connect 70 0 75 0;
#X connect 70 1 76 0;
#X connect 71 0 73 1;
#X connect 71 0 74 1;
#X connect 71 0 80 1;
#X connect 71 0 81 1;
#X connect 72 0 83 0;
#X connect 73 0 84 0;
#X connect 74 0 85 0;
#X connect 75 0 74 0;
#X connect 76 0 81 0;
#X connect 77 0 73 0;
#X connect 78 0 80 0;
#X connect 79 0 72 0;
#X connect 80 0 86 0;
#X connect 81 0 87 0;
#X connect 83 0 88 0;
#X connect 83 1 89 0;
#X connect 84 1 90 0;
#X connect 85 0 93 0;
#X connect 85 1 94 0;
#X connect 86 0 91 0;
#X connect 86 1 92 0;
#X connect 87 0 95 0;
#X connect 87 1 96 0;
#X connect 88 0 99 0;
#X connect 90 0 102 0;
#X connect 91 0 100 0;
#X connect 92 0 100 0;
#X connect 93 0 97 0;
#X connect 94 0 97 0;
#X connect 95 0 98 0;
#X connect 96 0 98 0;
#X connect 97 0 56 0;
#X connect 98 0 103 0;
#X connect 99 0 29 0;
#X connect 100 0 101 0;
#X connect 101 0 24 0;
#X connect 101 0 32 0;
#X connect 102 0 24 0;
#X connect 103 0 32 0;
#X connect 104 0 46 0;
#X connect 104 0 45 0;
#X connect 104 0 48 0;
#X connect 105 0 63 0;
#X connect 105 0 71 0;
#X connect 106 0 107 0;
#X connect 107 0 71 0;
#X connect 108 0 109 0;
#X connect 109 0 2 0;
#X connect 109 0 3 0;
#X connect 110 0 113 0;
#X connect 111 0 113 0;
#X connect 112 0 110 0;
#X connect 112 0 114 0;
#X connect 113 0 109 1;
#X connect 114 0 111 0;
#X connect 115 0 112 0;
#X connect 115 0 108 0;
#X connect 116 0 108 0;
#X connect 116 0 112 0;
#X connect 117 0 112 0;
#X connect 117 0 108 0;
#X connect 118 0 5 0;
#X connect 119 0 126 0;
#X connect 120 0 124 0;
#X connect 120 0 125 0;
#X connect 122 0 5 0;
#X connect 124 0 118 1;
#X connect 125 0 119 1;
#X connect 125 0 130 0;
#X connect 126 0 12 0;
#X connect 126 1 17 0;
#X connect 126 2 15 0;
#X connect 126 3 6 0;
#X connect 126 4 127 0;
#X connect 127 0 128 0;
#X connect 127 0 129 0;
#X connect 128 0 119 1;
#X connect 128 0 130 0;
#X connect 129 0 118 1;
#X connect 130 0 72 1;
#X connect 134 0 135 0;
#X connect 135 0 8 0;
#X connect 135 0 136 0;
#X connect 135 1 14 0;
#X connect 135 1 120 0;
#X connect 135 2 5 0;
#X connect 135 2 137 0;
#X connect 136 0 130 0;
#X connect 137 0 15 0;
#X connect 137 0 54 0;
