#N canvas 372 312 1534 805 10;
#X obj 35 -48 inlet~;
#X obj 310 534 outlet~;
#X obj 139 -49 inlet;
#X obj 191 -47 inlet;
#X obj 485 -46 inlet;
#X obj 485 -7 switch~;
#X obj 354 -47 inlet~;
#X obj 425 -48 inlet~;
#X text 350 -67 mod;
#X text 425 -68 env;
#X obj 336 172 + 100;
#X obj 336 196 dbtorms;
#X obj 133 185 line~;
#X obj 293 307 line~;
#X floatatom 336 225 5 0 0 0 - - - 0;
#X obj 336 143 nbx 5 14 -1e+37 1e+37 0 1 empty empty empty 0 -8 0 10 #fcfcfc #000000 #000000 3.06061 256;
#X obj 474 290 nbx 5 14 -1e+37 1e+37 0 1 empty empty empty 0 -8 0 10 #fcfcfc #000000 #000000 -1 256;
#X msg 474 312 \$1 100;
#X obj 474 336 line~;
#X text 860 61 Outlet: filtered signal;
#X obj 161 400 omniFilter_abs~ lowpass;
#X obj 132 -13 / 127;
#X obj 220 238 *~;
#X obj 439 267 loadbang;
#X obj 379 106 - 3;
#X obj 372 77 * 20;
#X obj 351 36 / 127;
#X obj 245 489 clip~ -1 1;
#X obj 241 300 *~;
#X obj 139 33 0_to_1_log 300;
#X obj 149 128 + 50;
#X obj 154 97 * 17000;
#X msg 419 288 -1;
#X msg 133 161 \$1 10;
#X msg 293 283 \$1 10;
#X connect 0 0 20 0;
#X connect 2 0 21 0;
#X connect 3 0 26 0;
#X connect 4 0 5 0;
#X connect 6 0 28 1;
#X connect 7 0 22 1;
#X connect 10 0 11 0;
#X connect 11 0 14 0;
#X connect 12 0 22 0;
#X connect 13 0 20 2;
#X connect 14 0 34 0;
#X connect 15 0 10 0;
#X connect 16 0 17 0;
#X connect 17 0 18 0;
#X connect 18 0 20 3;
#X connect 20 0 27 0;
#X connect 21 0 29 0;
#X connect 22 0 28 0;
#X connect 23 0 32 0;
#X connect 24 0 15 0;
#X connect 25 0 24 0;
#X connect 26 0 25 0;
#X connect 27 0 1 0;
#X connect 28 0 20 1;
#X connect 29 0 31 0;
#X connect 30 0 33 0;
#X connect 31 0 30 0;
#X connect 32 0 18 0;
#X connect 33 0 12 0;
#X connect 34 0 13 0;
#X coords 0 -1 1 1 175 100 2 100 100;
