#N canvas 52 20 1854 977 10;
#X obj 84 200 exp;
#X obj 84 152 *;
#X obj 84 175 +;
#X obj 162 132 log;
#X obj 237 127 log;
#X obj 187 168 t b f;
#X obj 187 190 -;
#X obj 83 290 outlet;
#X obj 84 6 inlet;
#X obj 327 17 loadbang;
#X msg 325 83 127;
#X obj 115 53 hsl 153 18 0 127 0 0 empty empty empty -2 -9 0 10 #fcfcfc #000000 #000000 0 1;
#X obj 83 105 / 127;
#X msg 184 104 1.27;
#X connect 0 0 7 0;
#X connect 1 0 2 0;
#X connect 2 0 0 0;
#X connect 3 0 2 1;
#X connect 3 0 5 0;
#X connect 4 0 6 0;
#X connect 5 0 6 0;
#X connect 5 1 6 1;
#X connect 6 0 1 1;
#X connect 8 0 1 0;
#X connect 9 0 13 0;
#X connect 9 0 10 0;
#X connect 10 0 4 0;
#X connect 11 0 12 0;
#X connect 12 0 1 0;
#X connect 13 0 3 0;
