#N canvas 524 65 945 820 10;
#X obj 39 597 cos~;
#X obj 39 564 +~;
#X obj 39 521 phasor~;
#X obj 45 827 outlet~;
#X obj 41 446 inlet~;
#X obj 39 631 *~;
#X obj 94 317 unpack f f;
#X obj 113 142 inlet;
#N canvas 422 312 786 500 freq 0;
#X obj 44 133 * 1;
#X obj 39 240 sig~ 220;
#X obj 38 279 outlet~;
#X obj 46 68 inlet;
#X obj 113 65 inlet;
#X obj 46 96 mtof;
#X obj 183 68 inlet;
#X obj 40 194 add_cent;
#X connect 0 0 7 0;
#X connect 1 0 2 0;
#X connect 3 0 5 0;
#X connect 4 0 0 1;
#X connect 5 0 0 0;
#X connect 6 0 7 1;
#X connect 7 0 1 0;
#X restore 91 468 pd freq;
#N canvas 0 23 450 300 ratio 0;
#X obj 37 37 inlet;
#X obj 38 80 sel 0;
#X obj 38 59 i;
#X msg 38 101 0.5;
#X obj 38 122 outlet;
#X connect 0 0 2 0;
#X connect 1 0 3 0;
#X connect 1 1 4 0;
#X connect 2 0 1 0;
#X connect 3 0 4 0;
#X restore 129 413 pd ratio;
#X obj 256 553 t f f;
#X obj 248 586 > 0;
#X obj 282 584 / 128;
#X obj 38 774 *~;
#X obj 110 646 pack f 20;
#X obj 116 691 line~;
#X obj 200 676 loadbang;
#X msg 200 697 1;
#X obj 113 173 route allOscs;
#X obj 33 171 route \$1;
#X obj 328 136 inlet~;
#X obj 171 769 *~;
#X obj 233 772 pack f 20;
#X obj 233 793 line~;
#X obj 236 740 / 127;
#X obj 275 622 fm_adsr 1 5 200 50 300;
#X obj 38 734 *~;
#X obj 110 763 sig~;
#X obj 110 786 +~;
#X obj 114 216 route ratio env level mod det a d s r;
#X connect 0 0 5 0;
#X connect 1 0 0 0;
#X connect 2 0 1 0;
#X connect 4 0 1 1;
#X connect 5 0 26 0;
#X connect 6 0 8 0;
#X connect 6 1 10 0;
#X connect 7 0 18 0;
#X connect 7 0 19 0;
#X connect 8 0 2 0;
#X connect 9 0 8 1;
#X connect 10 0 11 0;
#X connect 10 1 12 0;
#X connect 11 0 25 0;
#X connect 12 0 25 1;
#X connect 13 0 3 0;
#X connect 14 0 15 0;
#X connect 15 0 26 1;
#X connect 16 0 17 0;
#X connect 17 0 14 0;
#X connect 17 0 27 0;
#X connect 18 0 29 0;
#X connect 19 0 29 0;
#X connect 20 0 21 0;
#X connect 21 0 28 1;
#X connect 22 0 23 0;
#X connect 23 0 21 1;
#X connect 24 0 22 0;
#X connect 25 0 5 1;
#X connect 26 0 13 0;
#X connect 27 0 28 0;
#X connect 28 0 13 1;
#X connect 29 0 9 0;
#X connect 29 2 14 0;
#X connect 29 3 24 0;
#X connect 29 4 8 2;
#X connect 29 5 25 2;
#X connect 29 6 25 3;
#X connect 29 7 25 4;
#X connect 29 8 25 5;
#X connect 29 9 6 0;
#X coords 0 820 1 819 180 150 0;
