#N canvas 975 79 945 820 10;
#X obj 39 597 cos~;
#X obj 39 564 +~;
#X obj 39 521 phasor~;
#X obj 45 827 outlet~;
#X obj 3 144 inlet~;
#X obj 39 631 *~;
#X obj 72 311 unpack f f;
#X obj 113 142 inlet;
#N canvas 422 312 786 500 freq 0;
#X obj 44 133 * 1;
#X obj 39 240 sig~ 220;
#X obj 38 279 outlet~;
#X obj 46 68 inlet;
#X obj 113 65 inlet;
#X obj 46 96 mtof;
#X obj 183 68 inlet;
#X obj 40 194 add_cent;
#X connect 0 0 7 0;
#X connect 1 0 2 0;
#X connect 3 0 5 0;
#X connect 4 0 0 1;
#X connect 5 0 0 0;
#X connect 6 0 7 1;
#X connect 7 0 1 0;
#X restore 72 481 pd freq;
#N canvas 0 23 450 300 ratio 0;
#X obj 37 37 inlet;
#X obj 38 80 sel 0;
#X obj 38 59 i;
#X msg 38 101 0.5;
#X obj 38 122 outlet;
#X connect 0 0 2 0;
#X connect 1 0 3 0;
#X connect 1 1 4 0;
#X connect 2 0 1 0;
#X connect 3 0 4 0;
#X restore 109 407 pd ratio;
#X obj 38 774 *~;
#X obj 144 590 pack f 20;
#X obj 116 691 line~;
#X obj 113 173 route allOscs;
#X obj 33 171 route \$1;
#X obj 328 136 inlet~;
#X obj 216 754 *~;
#X obj 260 675 / 127;
#X obj 38 734 *~;
#X obj 139 725 sig~ 1;
#X obj 138 766 -~;
#X obj 366 579 adsr;
#X obj 441 507 * 1.27;
#X msg 591 506 0;
#X obj 592 457 loadbang;
#X obj 382 531 bng 18 250 50 0 empty empty empty 0 -9 0 10 #fcfcfc #000000 #000000;
#X obj 323 539 bng 18 250 50 0 empty empty empty 0 -9 0 10 #fcfcfc #000000 #000000;
#X obj 298 485 sel 0;
#X obj 101 208 route ratio env level mod det a d s r detune, f 58;
#X obj 69 383 + 0;
#X obj 544 277 print;
#X connect 0 0 5 0;
#X connect 1 0 0 0;
#X connect 2 0 1 0;
#X connect 4 0 1 1;
#X connect 5 0 18 0;
#X connect 6 0 29 0;
#X connect 6 1 27 0;
#X connect 7 0 13 0;
#X connect 7 0 14 0;
#X connect 8 0 2 0;
#X connect 9 0 8 1;
#X connect 10 0 3 0;
#X connect 11 0 12 0;
#X connect 12 0 18 1;
#X connect 13 0 28 0;
#X connect 14 0 28 0;
#X connect 15 0 16 0;
#X connect 16 0 20 1;
#X connect 17 0 16 1;
#X connect 18 0 10 0;
#X connect 19 0 20 0;
#X connect 20 0 10 1;
#X connect 21 0 5 1;
#X connect 22 0 21 4;
#X connect 23 0 21 6;
#X connect 24 0 23 0;
#X connect 25 0 21 1;
#X connect 26 0 21 0;
#X connect 27 0 25 0;
#X connect 27 1 26 0;
#X connect 28 0 9 0;
#X connect 28 2 11 0;
#X connect 28 3 17 0;
#X connect 28 4 8 2;
#X connect 28 5 21 2;
#X connect 28 6 21 3;
#X connect 28 7 22 0;
#X connect 28 8 21 5;
#X connect 28 9 29 1;
#X connect 28 9 30 0;
#X connect 28 10 6 0;
#X connect 29 0 8 0;
#X coords 0 820 1 819 180 150 0;
