#N canvas 372 192 1534 805 12;
#X obj 149 396 bng 15 250 50 0 empty empty empty 17 7 0 10 #fcfcfc #000000 #000000;
#X msg 830 678 1;
#X obj 698 666 until;
#X obj 737 860 + 12;
#X obj 695 849 f;
#X obj 702 882 + 0;
#X obj 698 697 f;
#X obj 727 697 + 1, f 4;
#X obj 697 769 % 12;
#X obj 698 721 t f f;
#X msg 975 120 0, f 4;
#X msg 795 186 0 1 2 3 4 5 6 7 8 9 10 11;
#X obj 746 125 t b f b;
#X obj 462 350 array define scala_\$0 12;
#X msg 463 304 \; scala_\$2 resize \$1;
#X obj 447 273 pack 0 0;
#X floatatom 516 222 5 0 0 0 - - - 0;
#X obj 747 204 delay 10;
#X obj 724 205 bng 15 250 50 0 empty empty empty 0 -8 0 8 #fcfcfc #000000 #000000;
#X obj 746 186 delay 10;
#X obj 723 187 bng 15 250 50 0 empty empty empty 0 -8 0 8 #fcfcfc #000000 #000000;
#X msg 691 186 12;
#X obj 746 219 delay 10;
#X obj 723 220 bng 15 250 50 0 empty empty empty 0 -8 0 8 #fcfcfc #000000 #000000;
#X msg 691 219 7;
#X obj 747 255 delay 10;
#X obj 724 256 bng 15 250 50 0 empty empty empty 0 -8 0 8 #fcfcfc #000000 #000000;
#X obj 746 237 delay 10;
#X obj 723 238 bng 15 250 50 0 empty empty empty 0 -8 0 8 #fcfcfc #000000 #000000;
#X obj 746 278 delay 10;
#X obj 723 279 bng 15 250 50 0 empty empty empty 0 -8 0 8 #fcfcfc #000000 #000000;
#X obj 752 312 delay 10;
#X obj 729 313 bng 15 250 50 0 empty empty empty 0 -8 0 8 #fcfcfc #000000 #000000;
#X obj 751 294 delay 10;
#X obj 728 295 bng 15 250 50 0 empty empty empty 0 -8 0 8 #fcfcfc #000000 #000000;
#X obj 751 327 delay 10;
#X obj 728 328 bng 15 250 50 0 empty empty empty 0 -8 0 8 #fcfcfc #000000 #000000;
#X obj 846 509 array set scala_\$0;
#X obj 462 375 array define scalacompleta_\$0 127;
#X obj 747 572 bng 15 250 50 0 empty empty empty 0 -8 0 8 #fcfcfc #000000 #000000;
#X obj 517 275 s scale_len_\$0;
#X obj 746 732 r scale_len_\$0;
#X obj 673 809 sel 0;
#X obj 690 1009 array set scalacompleta_\$0;
#X obj 790 792 array get scala_\$0;
#X obj 738 614 t b b b b;
#X msg 698 643 100;
#X msg 744 667 0;
#X msg 736 823 0;
#X obj 291 739 array get scalacompleta_\$0;
#X msg 374 694 1;
#X obj 331 641 r scale_len_\$0;
#X obj 330 670 * 5;
#X obj 298 700 +;
#X obj 165 516 until;
#X obj 173 547 i;
#X obj 217 549 + 1;
#X msg 246 538 1;
#X msg 215 516 0;
#X obj 179 818 array set Seq2_\$0;
#X obj 179 717 f;
#X obj 178 575 t b f f;
#X obj 149 422 t b b b b;
#X msg 193 688 0;
#X obj 276 665 - 60;
#X obj 382 664 loadbang;
#X obj 266 512 loadbang;
#X obj 821 67 r sel_scale_\$0;
#X obj 710 911 r sel_tonality_\$0;
#X obj 845 850 sel 0 1 2 3 4 5 6;
#X obj 688 940 +;
#X obj 847 819 r sel_octave_\$0;
#X obj 688 969 +;
#X msg 879 930 0;
#X msg 866 911 -12;
#X msg 855 894 -24;
#X msg 845 880 -36;
#X msg 892 947 12;
#X msg 902 964 24;
#X msg 913 983 36;
#X obj -135 -100 s rebuild_\$0;
#X obj -286 -158 bng 15 250 50 0 empty empty empty 0 -8 0 8 #fcfcfc #000000 #000000;
#X obj 829 103 r rebuild_\$0;
#X obj 750 102 f;
#X obj -269 -512 inlet;
#X obj -153 -510 inlet;
#X obj -70 -509 inlet;
#X obj 131 109 bng 20 250 50 0 empty empty + 7 10 1 12 #000000 #7c7c7c #ffffff;
#X obj 106 109 bng 20 250 50 0 empty empty - 8 11 1 12 #000000 #7c7c7c #ffffff;
#X obj 153 107 cnv 20 50 20 empty scale_label_\$0 min_harm 3 12 1 12 #ffffff #000000 0;
#X floatatom -244 -319 5 0 27 0 - - - 0;
#X obj -118 -298 i;
#X obj -196 -298 i;
#X obj -117 -273 + 1;
#X obj -196 -272 - 1;
#X obj -238 -272 max 0;
#X obj -251 -243 s sel_scale_\$0;
#X obj 1415 -307 r sel_scale_\$0;
#X obj 1404 -20 pack s 0;
#X msg 1404 10 \; scale_label_\$2 label \$1;
#X msg 1331 -241 cromatic;
#X msg 1374 -213 minor;
#X msg 1442 -157 iwato;
#X msg 1452 -147 bebop;
#X msg 1462 -137 blues;
#X msg 1472 -127 hirajoshi;
#X msg 1483 -117 persian;
#X obj 551 -43 pack s 0;
#X msg 543 -260 c;
#X msg 553 -250 c#;
#X msg 563 -240 d;
#X msg 573 -230 d#;
#X msg 583 -220 e;
#X msg 593 -210 f;
#X msg 603 -200 f#;
#X msg 613 -190 g;
#X msg 624 -180 g#;
#X msg 635 -170 a;
#X msg 645 -160 a#;
#X msg 656 -150 b;
#X obj 544 -283 sel 0 1 2 3 4 5 6 7 8 9 10 11;
#X msg 551 -13 \; tonality_label_\$2 label \$1;
#X obj 545 -307 r sel_tonality_\$0;
#X obj 131 157 bng 20 250 50 0 empty empty + 7 10 1 12 #000000 #7c7c7c #ffffff;
#X obj 106 157 bng 20 250 50 0 empty empty - 8 11 1 12 #000000 #7c7c7c #ffffff;
#X obj 155 155 cnv 20 50 20 empty octave_label_\$0 4_ 3 12 1 12 #ffffff #000000 0;
#X floatatom 127 -300 5 0 27 0 - - - 0;
#X obj 254 -274 i;
#X obj 176 -274 i;
#X obj 255 -249 + 1;
#X obj 176 -248 - 1;
#X obj 134 -248 max 0;
#X obj 112 -216 s sel_octave_\$0;
#X obj 796 -326 r sel_octave_\$0;
#X msg 798 -46 \; octave_label_\$2 label \$1;
#X obj 795 -302 sel 0 1 2 3 4 5 6;
#X msg 806 -263 2_;
#X msg 814 -259 3_;
#X msg 824 -249 4_;
#X msg 834 -239 5_;
#X msg 844 -229 6_;
#X obj 131 133 bng 20 250 50 0 empty empty + 7 10 1 12 #000000 #7c7c7c #ffffff;
#X obj 106 133 bng 20 250 50 0 empty empty - 8 11 1 12 #000000 #7c7c7c #ffffff;
#X obj 155 132 cnv 20 25 20 empty tonality_label_\$0 c 3 12 1 12 #ffffff #000000 0;
#X obj 268 -379 loadbang;
#X floatatom -53 -307 5 0 27 0 - - - 0;
#X obj 68 -282 i;
#X obj -10 -282 i;
#X obj 69 -257 + 1;
#X obj -10 -256 - 1;
#X obj -52 -256 max 0;
#X obj -65 -227 s sel_tonality_\$0;
#X obj 19 -257 min 11;
#X msg -4 -309 0;
#X msg 794 -274 1_;
#X obj 35 -330 delay 2;
#X msg 1339 -229 pentatonic;
#X msg 1359 -223 major;
#X msg 1390 -201 harmonic min;
#X msg 1401 -192 dorian;
#X msg 1411 -182 phrigian;
#X msg 1432 -165 locrian;
#X msg 1421 -172 lydian;
#X msg 1504 -92 hungarian;
#X msg 1493 -102 bizantin;
#X obj 1339 -267 sel 0 1 2 3 4 5 6 7 8 9 10 11 12 13 14 15;
#X obj 752 365 delay 10;
#X obj 729 366 bng 15 250 50 0 empty empty empty 0 -8 0 8 #fcfcfc #000000 #000000;
#X obj 751 347 delay 10;
#X obj 728 348 bng 15 250 50 0 empty empty empty 0 -8 0 8 #fcfcfc #000000 #000000;
#X obj 751 380 delay 10;
#X obj 728 381 bng 15 250 50 0 empty empty empty 0 -8 0 8 #fcfcfc #000000 #000000;
#X obj 757 414 delay 10;
#X obj 734 415 bng 15 250 50 0 empty empty empty 0 -8 0 8 #fcfcfc #000000 #000000;
#X obj 756 396 delay 10;
#X obj 733 397 bng 15 250 50 0 empty empty empty 0 -8 0 8 #fcfcfc #000000 #000000;
#X obj 756 429 delay 10;
#X obj 733 430 bng 15 250 50 0 empty empty empty 0 -8 0 8 #fcfcfc #000000 #000000;
#X msg 696 347 5;
#X msg 697 365 5;
#X obj 1140 333 pack s 0;
#X msg 1140 363 \; scale_label_\$2 label \$1;
#X msg 979 186 cromatic;
#X msg 969 238 minor;
#X msg 961 346 iwato;
#X msg 962 380 blues;
#X msg 962 417 persian;
#X msg 972 206 pentatonic;
#X msg 971 222 major;
#X msg 967 278 dorian;
#X msg 964 296 phrigian;
#X msg 962 329 locrian;
#X msg 962 312 lydian;
#X msg 958 451 hungarian;
#X msg 960 435 bizantin;
#X obj 759 449 delay 10;
#X obj 736 450 bng 15 250 50 0 empty empty empty 0 -8 0 8 #fcfcfc #000000 #000000;
#X msg 795 237 0 2 3 5 7 8 10;
#X msg 797 219 0 2 4 5 7 9 11;
#X msg 796 204 0 2 4 7 9;
#X msg 798 258 0 2 3 5 7 8 11;
#X msg 797 277 0 2 4 5 7 9 11;
#X msg 798 294 0 2 4 5 7 9 11;
#X msg 799 310 0 2 4 5 7 9 11;
#X msg 801 327 0 2 4 5 7 9 11;
#X msg 696 326 7;
#X msg 697 312 7;
#X msg 696 294 7;
#X msg 696 278 7;
#X msg 694 256 7;
#X msg 691 238 7;
#X msg 692 204 5;
#X msg 801 345 0 1 5 6 10;
#X msg 800 366 0 2 3 7 8;
#X msg 961 365 hirajoshi;
#X msg 960 399 bebop;
#X msg 802 382 0 3 5 6 7 10;
#X msg 696 380 6;
#X msg 802 401 0 3 5 6 7 10 11;
#X msg 701 396 7;
#X msg 803 417 0 1 4 5 6 8 11;
#X msg 701 412 7;
#X msg 805 434 0 1 3 4 6 7 8;
#X msg 701 429 7;
#X msg 805 452 0 2 3 6 7 8 11;
#X msg 704 449 7;
#X obj 757 471 delay 10;
#X obj 734 472 bng 15 250 50 0 empty empty empty 0 -8 0 8 #fcfcfc #000000 #000000;
#X msg 956 473 esatonal;
#X msg 803 474 0 2 4 6 8 10;
#X msg 702 471 6;
#X obj 763 147 sel 0 1 2 3 4 5 6 7 8 9 10 11 12 13 14 15 16;
#X obj 54 -504 inlet;
#X obj 207 -504 inlet;
#X obj 32 -465 s table_name_from_\$0;
#X obj 186 -463 s table_name_to_\$0;
#X obj -122 1133 outlet;
#X obj 426 443 r table_name_from_\$0;
#X obj 293 783 r table_name_to_\$0;
#X obj 149 364 r write_\$0;
#X obj -178 -9 s write_\$0;
#X obj -350 -515 inlet;
#X obj 209 1094 r sel_scale_\$0;
#X obj 335 1100 r sel_tonality_\$0;
#X obj 516 1098 r sel_octave_\$0;
#X obj 214 1150 outlet;
#X obj 336 1152 outlet;
#X obj 519 1153 outlet;
#X text 222 1176 scale;
#X text 336 1182 tonality;
#X text 527 1176 octave;
#X text -122 1174 done;
#X text -272 -532 scale;
#X text -159 -537 tonality;
#X text -79 -532 octave;
#X text -339 -537 go;
#X text 51 -527 from_name;
#X text 197 -524 to_name;
#X obj 1176 311 f \$0;
#X obj 1167 284 loadbang;
#X obj 463 192 f \$0;
#X obj 454 165 loadbang;
#X obj 861 -115 f \$0;
#X obj 852 -142 loadbang;
#X obj -167 -273 min 15;
#X msg -190 -325 2;
#X msg 182 -301 3;
#X obj 211 654 moses 1;
#X obj 238 481 array size;
#X obj 219 620 array get;
#X obj 42 674 delay 100;
#X obj -165 -172 t b b;
#X obj -172 -145 delay 10;
#X obj 690 520 delay 10;
#X obj 397 -495 inlet;
#X obj 444 -494 inlet;
#X text 437 -518 scale+;
#X text 384 -518 scale-;
#X obj 508 -496 inlet;
#X obj 555 -495 inlet;
#X text 495 -519 tona-;
#X text 548 -519 tona+;
#X obj 613 -497 inlet;
#X obj 660 -496 inlet;
#X text 600 -520 oct-;
#X text 653 -520 oct+;
#X obj 691 1157 outlet;
#X obj 804 1152 outlet;
#X obj 871 1149 outlet;
#X text 687 1194 scale_name;
#X text 796 1195 tonality_name;
#X text 889 1188 octave_name;
#X obj 1144 451 s scale_name_out_\$0;
#X obj 506 53 s tonality_name_out_\$0;
#X obj 525 26 unpack s 0;
#X obj 1388 50 unpack s 0;
#X obj 763 25 s octave_name_out_\$0;
#X obj 806 1065 r tonality_name_out_\$0;
#X obj 650 1098 r scale_name_out_\$0;
#X obj 884 1103 r octave_name_out_\$0;
#X obj 1134 423 unpack s 0;
#X obj 794 -76 pack s 0;
#X msg 903 -213 7_;
#X obj 757 -132 + 1;
#X obj 205 -249 min 7;
#X msg 962 258 min_harm;
#X connect 0 0 62 0;
#X connect 1 0 44 1;
#X connect 2 0 6 0;
#X connect 3 0 4 1;
#X connect 4 0 3 0;
#X connect 4 0 5 1;
#X connect 5 0 70 0;
#X connect 6 0 7 0;
#X connect 6 0 9 0;
#X connect 7 0 6 1;
#X connect 8 0 42 0;
#X connect 8 0 44 0;
#X connect 9 0 8 0;
#X connect 9 1 43 1;
#X connect 10 0 37 1;
#X connect 11 0 37 0;
#X connect 11 0 182 0;
#X connect 12 0 273 0;
#X connect 12 1 231 0;
#X connect 12 2 10 0;
#X connect 15 0 14 0;
#X connect 16 0 15 0;
#X connect 16 0 40 0;
#X connect 17 0 199 0;
#X connect 18 0 17 0;
#X connect 19 0 11 0;
#X connect 20 0 19 0;
#X connect 21 0 20 0;
#X connect 21 0 16 0;
#X connect 22 0 198 0;
#X connect 23 0 22 0;
#X connect 24 0 23 0;
#X connect 24 0 16 0;
#X connect 25 0 200 0;
#X connect 26 0 25 0;
#X connect 27 0 197 0;
#X connect 28 0 27 0;
#X connect 29 0 201 0;
#X connect 30 0 29 0;
#X connect 31 0 203 0;
#X connect 32 0 31 0;
#X connect 33 0 202 0;
#X connect 34 0 33 0;
#X connect 35 0 204 0;
#X connect 36 0 35 0;
#X connect 39 0 45 0;
#X connect 41 0 8 1;
#X connect 42 0 4 0;
#X connect 44 0 5 0;
#X connect 45 0 46 0;
#X connect 45 1 47 0;
#X connect 45 2 48 0;
#X connect 45 3 1 0;
#X connect 46 0 2 0;
#X connect 47 0 6 1;
#X connect 48 0 4 1;
#X connect 49 0 60 1;
#X connect 50 0 49 1;
#X connect 51 0 52 0;
#X connect 52 0 53 1;
#X connect 53 0 49 0;
#X connect 54 0 55 0;
#X connect 55 0 56 0;
#X connect 55 0 61 0;
#X connect 56 0 55 1;
#X connect 57 0 269 1;
#X connect 58 0 55 1;
#X connect 60 0 59 0;
#X connect 61 0 60 0;
#X connect 61 1 59 1;
#X connect 61 2 269 0;
#X connect 62 0 270 0;
#X connect 62 1 268 0;
#X connect 62 3 58 0;
#X connect 63 0 60 1;
#X connect 64 0 53 0;
#X connect 65 0 50 0;
#X connect 66 0 57 0;
#X connect 67 0 83 0;
#X connect 68 0 70 1;
#X connect 69 0 76 0;
#X connect 69 1 75 0;
#X connect 69 2 74 0;
#X connect 69 3 73 0;
#X connect 69 4 77 0;
#X connect 69 5 78 0;
#X connect 69 6 79 0;
#X connect 70 0 72 0;
#X connect 71 0 69 0;
#X connect 72 0 43 0;
#X connect 73 0 72 1;
#X connect 74 0 72 1;
#X connect 75 0 72 1;
#X connect 76 0 72 1;
#X connect 77 0 72 1;
#X connect 78 0 72 1;
#X connect 79 0 72 1;
#X connect 81 0 240 0;
#X connect 82 0 83 0;
#X connect 83 0 12 0;
#X connect 84 0 90 0;
#X connect 85 0 145 0;
#X connect 86 0 126 0;
#X connect 87 0 91 0;
#X connect 88 0 92 0;
#X connect 90 0 91 1;
#X connect 90 0 92 1;
#X connect 90 0 96 0;
#X connect 90 0 271 0;
#X connect 91 0 93 0;
#X connect 92 0 94 0;
#X connect 93 0 264 0;
#X connect 94 0 95 0;
#X connect 95 0 90 0;
#X connect 98 0 99 0;
#X connect 98 0 295 0;
#X connect 100 0 98 0;
#X connect 101 0 98 0;
#X connect 102 0 98 0;
#X connect 103 0 98 0;
#X connect 104 0 98 0;
#X connect 105 0 98 0;
#X connect 106 0 98 0;
#X connect 107 0 121 0;
#X connect 107 0 294 0;
#X connect 108 0 107 0;
#X connect 109 0 107 0;
#X connect 110 0 107 0;
#X connect 111 0 107 0;
#X connect 112 0 107 0;
#X connect 113 0 107 0;
#X connect 114 0 107 0;
#X connect 115 0 107 0;
#X connect 116 0 107 0;
#X connect 117 0 107 0;
#X connect 118 0 107 0;
#X connect 119 0 107 0;
#X connect 120 0 108 0;
#X connect 120 1 109 0;
#X connect 120 2 110 0;
#X connect 120 3 111 0;
#X connect 120 4 112 0;
#X connect 120 5 113 0;
#X connect 120 6 114 0;
#X connect 120 7 115 0;
#X connect 120 8 116 0;
#X connect 120 9 117 0;
#X connect 120 10 118 0;
#X connect 120 11 119 0;
#X connect 122 0 120 0;
#X connect 123 0 127 0;
#X connect 124 0 128 0;
#X connect 126 0 127 1;
#X connect 126 0 128 1;
#X connect 126 0 132 0;
#X connect 126 0 271 0;
#X connect 127 0 129 0;
#X connect 128 0 130 0;
#X connect 129 0 304 0;
#X connect 130 0 131 0;
#X connect 131 0 126 0;
#X connect 133 0 135 0;
#X connect 133 0 303 0;
#X connect 135 0 154 0;
#X connect 135 1 136 0;
#X connect 135 2 137 0;
#X connect 135 3 138 0;
#X connect 135 4 139 0;
#X connect 135 5 140 0;
#X connect 135 6 302 0;
#X connect 136 0 301 0;
#X connect 137 0 301 0;
#X connect 138 0 301 0;
#X connect 139 0 301 0;
#X connect 140 0 301 0;
#X connect 141 0 146 0;
#X connect 142 0 147 0;
#X connect 144 0 155 0;
#X connect 145 0 146 1;
#X connect 145 0 147 1;
#X connect 145 0 151 0;
#X connect 145 0 271 0;
#X connect 146 0 148 0;
#X connect 147 0 149 0;
#X connect 148 0 152 0;
#X connect 149 0 150 0;
#X connect 150 0 145 0;
#X connect 152 0 145 0;
#X connect 153 0 145 0;
#X connect 154 0 301 0;
#X connect 155 0 153 0;
#X connect 155 0 265 0;
#X connect 155 0 266 0;
#X connect 156 0 98 0;
#X connect 157 0 98 0;
#X connect 158 0 98 0;
#X connect 159 0 98 0;
#X connect 160 0 98 0;
#X connect 161 0 98 0;
#X connect 162 0 98 0;
#X connect 163 0 98 0;
#X connect 164 0 98 0;
#X connect 165 0 100 0;
#X connect 165 1 156 0;
#X connect 165 2 157 0;
#X connect 165 3 101 0;
#X connect 165 4 158 0;
#X connect 165 5 159 0;
#X connect 165 6 160 0;
#X connect 165 7 162 0;
#X connect 165 8 161 0;
#X connect 165 9 102 0;
#X connect 165 10 103 0;
#X connect 165 11 104 0;
#X connect 165 12 105 0;
#X connect 165 13 106 0;
#X connect 165 14 164 0;
#X connect 165 15 163 0;
#X connect 166 0 213 0;
#X connect 167 0 166 0;
#X connect 168 0 212 0;
#X connect 169 0 168 0;
#X connect 170 0 216 0;
#X connect 171 0 170 0;
#X connect 172 0 220 0;
#X connect 173 0 172 0;
#X connect 174 0 218 0;
#X connect 175 0 174 0;
#X connect 176 0 222 0;
#X connect 177 0 176 0;
#X connect 178 0 169 0;
#X connect 178 0 16 0;
#X connect 179 0 167 0;
#X connect 179 0 16 0;
#X connect 180 0 181 0;
#X connect 180 0 300 0;
#X connect 182 0 180 0;
#X connect 183 0 180 0;
#X connect 184 0 180 0;
#X connect 185 0 180 0;
#X connect 186 0 180 0;
#X connect 187 0 180 0;
#X connect 188 0 180 0;
#X connect 189 0 180 0;
#X connect 190 0 180 0;
#X connect 191 0 180 0;
#X connect 192 0 180 0;
#X connect 193 0 180 0;
#X connect 194 0 180 0;
#X connect 195 0 224 0;
#X connect 196 0 195 0;
#X connect 197 0 37 0;
#X connect 197 0 183 0;
#X connect 198 0 37 0;
#X connect 198 0 188 0;
#X connect 199 0 37 0;
#X connect 199 0 187 0;
#X connect 200 0 37 0;
#X connect 200 0 305 0;
#X connect 201 0 37 0;
#X connect 201 0 189 0;
#X connect 202 0 37 0;
#X connect 202 0 190 0;
#X connect 203 0 37 0;
#X connect 203 0 192 0;
#X connect 204 0 37 0;
#X connect 204 0 191 0;
#X connect 205 0 36 0;
#X connect 205 0 16 0;
#X connect 206 0 32 0;
#X connect 206 0 16 0;
#X connect 207 0 34 0;
#X connect 207 0 16 0;
#X connect 208 0 30 0;
#X connect 208 0 16 0;
#X connect 209 0 26 0;
#X connect 209 0 16 0;
#X connect 210 0 28 0;
#X connect 210 0 16 0;
#X connect 211 0 18 0;
#X connect 211 0 16 0;
#X connect 212 0 184 0;
#X connect 213 0 214 0;
#X connect 214 0 180 0;
#X connect 215 0 180 0;
#X connect 216 0 185 0;
#X connect 217 0 171 0;
#X connect 217 0 16 0;
#X connect 218 0 215 0;
#X connect 219 0 175 0;
#X connect 219 0 16 0;
#X connect 220 0 186 0;
#X connect 221 0 173 0;
#X connect 221 0 16 0;
#X connect 222 0 194 0;
#X connect 223 0 177 0;
#X connect 223 0 16 0;
#X connect 224 0 193 0;
#X connect 225 0 196 0;
#X connect 225 0 16 0;
#X connect 226 0 229 0;
#X connect 227 0 226 0;
#X connect 228 0 180 0;
#X connect 229 0 228 0;
#X connect 230 0 227 0;
#X connect 230 0 16 0;
#X connect 231 0 21 0;
#X connect 231 1 211 0;
#X connect 231 2 24 0;
#X connect 231 3 210 0;
#X connect 231 4 209 0;
#X connect 231 5 208 0;
#X connect 231 6 207 0;
#X connect 231 7 206 0;
#X connect 231 8 205 0;
#X connect 231 9 178 0;
#X connect 231 10 179 0;
#X connect 231 11 217 0;
#X connect 231 12 219 0;
#X connect 231 13 221 0;
#X connect 231 14 223 0;
#X connect 231 15 225 0;
#X connect 231 16 230 0;
#X connect 232 0 234 0;
#X connect 233 0 235 0;
#X connect 237 0 268 1;
#X connect 237 0 269 2;
#X connect 238 0 59 2;
#X connect 239 0 0 0;
#X connect 241 0 81 0;
#X connect 242 0 245 0;
#X connect 243 0 246 0;
#X connect 244 0 247 0;
#X connect 258 0 180 1;
#X connect 259 0 258 0;
#X connect 260 0 15 1;
#X connect 261 0 260 0;
#X connect 262 0 107 1;
#X connect 262 0 98 1;
#X connect 262 0 301 1;
#X connect 263 0 262 0;
#X connect 264 0 90 0;
#X connect 265 0 90 0;
#X connect 266 0 126 0;
#X connect 267 0 63 0;
#X connect 267 1 64 0;
#X connect 268 0 54 0;
#X connect 269 0 267 0;
#X connect 270 0 236 0;
#X connect 271 0 272 0;
#X connect 271 1 80 0;
#X connect 273 0 39 0;
#X connect 274 0 88 0;
#X connect 275 0 87 0;
#X connect 278 0 142 0;
#X connect 279 0 141 0;
#X connect 282 0 124 0;
#X connect 283 0 123 0;
#X connect 294 0 293 0;
#X connect 297 0 287 0;
#X connect 298 0 286 0;
#X connect 299 0 288 0;
#X connect 300 0 292 0;
#X connect 301 0 134 0;
#X connect 302 0 301 0;
#X connect 303 0 296 0;
#X connect 304 0 126 0;
#X connect 305 0 180 0;
#X coords 0 -1 1 1 120 85 2 100 100;
