#N canvas 199 167 450 300 12;
#X obj 56 46 inlet~;
#X obj 442 55 inlet~;
#X obj 179 47 inlet~;
#X obj 311 53 inlet~;
#X obj 58 252 outlet~;
#X obj 445 261 outlet~;
#X obj 182 251 outlet~;
#X obj 319 257 outlet~;
#X obj 86 155 - 100;
#X obj 87 114 env~;
#X obj 218 159 - 100;
#X obj 219 118 env~;
#X obj 346 161 - 100;
#X obj 347 120 env~;
#X obj 478 155 - 100;
#X obj 479 114 env~;
#X obj 627 259 outlet;
#X msg 86 186 \$1 301;
#X msg 218 190 \$1 302;
#X msg 346 192 \$1 303;
#X msg 478 186 \$1 304;
#X connect 0 0 4 0;
#X connect 0 0 9 0;
#X connect 1 0 5 0;
#X connect 1 0 15 0;
#X connect 2 0 6 0;
#X connect 2 0 11 0;
#X connect 3 0 7 0;
#X connect 3 0 13 0;
#X connect 8 0 17 0;
#X connect 9 0 8 0;
#X connect 10 0 18 0;
#X connect 11 0 10 0;
#X connect 12 0 19 0;
#X connect 13 0 12 0;
#X connect 14 0 20 0;
#X connect 15 0 14 0;
#X connect 17 0 16 0;
#X connect 18 0 16 0;
#X connect 19 0 16 0;
#X connect 20 0 16 0;
