#N canvas -8 -8 1366 725 12;
#X obj 230 223 inlet~;
#X obj 228 468 outlet~;
#X obj 229 430 clip~ -1 1;
#X obj 229 320 samphold~;
#X obj 339 139 -~ 1;
#X obj 339 162 abs~;
#X obj 340 301 phasor~;
#X obj 339 277 *~ 20000;
#X obj 338 184 pow~ 4;
#X obj 524 119 noise~;
#X obj 612 183 *~;
#X obj 338 253 clip~ 0 1;
#X obj 631 98 pow~ 0.4;
#X obj 524 165 hip~ 200;
#X obj 524 141 *~ 0.05;
#X obj 339 116 *~ 0.8;
#X text 124 116 depth~;
#X text 134 134 0-1;
#X text 638 141 add noise to control depth little bit;
#N canvas 66 32 1366 725 dry_wet_mixer~ 0;
#X obj 214 215 +~, f 25;
#X obj 387 137 *~;
#X obj 213 144 *~;
#X obj 231 72 r~ dry_wet_\$0;
#X obj 405 110 r~ dry_wet_\$0;
#X obj 213 21 inlet~;
#X obj 387 33 inlet~;
#X obj 214 239 outlet~;
#X obj 231 95 -~ 1;
#X obj 231 119 abs~;
#X connect 0 0 7 0;
#X connect 1 0 0 1;
#X connect 2 0 0 0;
#X connect 3 0 8 0;
#X connect 4 0 1 1;
#X connect 5 0 2 0;
#X connect 6 0 1 0;
#X connect 8 0 9 0;
#X connect 9 0 2 1;
#X restore 132 394 pd dry_wet_mixer~;
#X f 25;
#X obj 924 131 s~ dry_wet_\$0;
#X obj 924 82 inlet~;
#X obj 924 106 clip~ 0 1;
#X text 187 133 0-1;
#X text 178 115 dry/wet~;
#X obj 344 64 sig~;
#X obj 343 20 inlet;
#X connect 0 0 3 0;
#X connect 0 0 19 0;
#X connect 2 0 1 0;
#X connect 3 0 19 1;
#X connect 4 0 5 0;
#X connect 5 0 8 0;
#X connect 6 0 3 1;
#X connect 7 0 6 0;
#X connect 8 0 11 0;
#X connect 9 0 14 0;
#X connect 10 0 11 0;
#X connect 11 0 7 0;
#X connect 12 0 10 1;
#X connect 13 0 10 0;
#X connect 14 0 13 0;
#X connect 15 0 4 0;
#X connect 19 0 2 0;
#X connect 21 0 22 0;
#X connect 22 0 20 0;
#X connect 25 0 12 0;
#X connect 25 0 15 0;
#X connect 26 0 25 0;
#X coords 0 -1 1 1 143 58 1 100 100;
