#N canvas 71 32 1257 935 10;
#X obj 12 735 hip~ 3;
#X obj 12 757 clip~ -1 1;
#X obj 12 606 mtof;
#X obj 12 627 mct~;
#X obj 12 778 *~ 1;
#X obj 12 713 *~ 0.9;
#X obj 214 105 vsl 17 127 1 127 0 1 empty empty VELOCITY 0 -9 0 10 #fcfcfc #000000 #000000 9700 1;
#X obj 214 240 nbx 3 17 1 127 0 0 empty empty empty 0 -8 0 10 #fcfcfc #000000 #000000 0 256;
#X obj 214 262 v \$0-vel;
#X obj 75 430 pack f f f;
#X obj 75 451 s \$0-poly;
#X obj 12 543 r \$0-poly;
#X obj 12 564 route 1;
#X obj 12 585 unpack f f;
#X obj 102 606 mtof;
#X obj 102 627 mct~;
#X obj 102 543 r \$0-poly;
#X obj 102 585 unpack f f;
#X obj 102 564 route 2;
#X obj 192 606 mtof;
#X obj 192 627 mct~;
#X obj 192 543 r \$0-poly;
#X obj 192 585 unpack f f;
#X obj 282 606 mtof;
#X obj 282 627 mct~;
#X obj 282 543 r \$0-poly;
#X obj 282 585 unpack f f;
#X obj 192 564 route 3;
#X obj 282 564 route 4;
#X obj 372 606 mtof;
#X obj 372 627 mct~;
#X obj 372 543 r \$0-poly;
#X obj 372 585 unpack f f;
#X obj 462 606 mtof;
#X obj 462 627 mct~;
#X obj 462 543 r \$0-poly;
#X obj 462 585 unpack f f;
#X obj 372 564 route 5;
#X obj 462 564 route 6;
#X obj 75 409 poly 6 1;
#X text 432 725 Miguel Moreno 2018;
#X text 432 740 Email: mianmogra94@gmail.com;
#X text 432 755 GitHub: github.com/MikeMorenoAudio;
#X text 432 780 Facebook: fb.com/MikeMorenoAudio;
#X text 432 810 WordPress: mikemorenoaudio.wordpress.com;
#X text 432 825 PatchStorage: patchstorage.com/author/mianmogra;
#X text 291 153 MACETA;
#X text 291 193 INLET 1: Frequency;
#X text 291 229 INLET 2: Trigger / Velocity;
#X text 301 245 Trigger the instrument by sending a number from 1 to 127;
#X text 432 705 MACETA v1;
#X text 301 168 A Mallet synthesized instrument called Maceta (plantpot).;
#X text 301 208 An incoming float or signal sets the frequency.;
#X text 281 273 Activate the KEYBOARD tgl to play the instrument with your computer keyboard.;
#X text 432 795 Youtube: youtube.com/c/mikemorenoaudio;
#X obj 75 379 inlet;
#X obj 12 648 *~ 0.5;
#X obj 102 648 *~ 0.5;
#X obj 192 648 *~ 0.5;
#X obj 282 648 *~ 0.5;
#X obj 372 648 *~ 0.5;
#X obj 462 648 *~ 0.5;
#X obj 12 801 outlet~;
#X connect 0 0 1 0;
#X connect 1 0 4 0;
#X connect 2 0 3 0;
#X connect 3 0 56 0;
#X connect 4 0 62 0;
#X connect 5 0 0 0;
#X connect 6 0 7 0;
#X connect 7 0 8 0;
#X connect 9 0 10 0;
#X connect 11 0 12 0;
#X connect 12 0 13 0;
#X connect 13 0 2 0;
#X connect 13 1 3 1;
#X connect 14 0 15 0;
#X connect 15 0 57 0;
#X connect 16 0 18 0;
#X connect 17 0 14 0;
#X connect 17 1 15 1;
#X connect 18 0 17 0;
#X connect 19 0 20 0;
#X connect 20 0 58 0;
#X connect 21 0 27 0;
#X connect 22 0 19 0;
#X connect 22 1 20 1;
#X connect 23 0 24 0;
#X connect 24 0 59 0;
#X connect 25 0 28 0;
#X connect 26 0 23 0;
#X connect 26 1 24 1;
#X connect 27 0 22 0;
#X connect 28 0 26 0;
#X connect 29 0 30 0;
#X connect 30 0 60 0;
#X connect 31 0 37 0;
#X connect 32 0 29 0;
#X connect 32 1 30 1;
#X connect 33 0 34 0;
#X connect 34 0 61 0;
#X connect 35 0 38 0;
#X connect 36 0 33 0;
#X connect 36 1 34 1;
#X connect 37 0 32 0;
#X connect 38 0 36 0;
#X connect 39 0 9 0;
#X connect 39 1 9 1;
#X connect 39 2 9 2;
#X connect 55 0 39 0;
#X connect 56 0 5 0;
#X connect 57 0 5 0;
#X connect 58 0 5 0;
#X connect 59 0 5 0;
#X connect 60 0 5 0;
#X connect 61 0 5 0;
#X coords 0 935 1 934 100 100 0;
