#N canvas 162 325 1127 694 10;
#X obj 0 0 cnv 18 110 110 empty empty empty 20 12 0 10 #e0e0e0 #404040 0;
#X obj 136 -98 inlet~;
#X obj 152 548 outlet~;
#N canvas 599 49 1150 805 delay1 1;
#X obj 285 -102 inlet~;
#X obj 377 -99 inlet;
#X obj 376 540 outlet~;
#X obj 440 433 *~;
#X obj 504 -101 inlet;
#X obj 529 38 / 127;
#X obj 529 109 pack 0 50;
#X obj 529 132 line;
#X obj 366 33 / 127;
#X obj 377 301 line~;
#X obj 381 328 +~;
#X obj 376 365 delread4~ \$0-dly1;
#X text 283 -124 signal;
#X text 375 -124 delay;
#X text 487 -124 fbk;
#X obj 384 -66 loadbang;
#X msg 384 -43 0;
#X obj 377 277 pack 0 50;
#X obj 528 77 min 0.8;
#X obj 153 509 delwrite~ \$0-dly1 1000;
#X obj 371 157 * 900;
#X obj 373 80 + 0.1;
#X connect 0 0 19 0;
#X connect 1 0 8 0;
#X connect 3 0 19 0;
#X connect 4 0 5 0;
#X connect 5 0 18 0;
#X connect 6 0 7 0;
#X connect 7 0 3 1;
#X connect 8 0 21 0;
#X connect 9 0 10 0;
#X connect 10 0 11 0;
#X connect 11 0 2 0;
#X connect 11 0 3 0;
#X connect 15 0 16 0;
#X connect 16 0 8 0;
#X connect 16 0 5 0;
#X connect 17 0 9 0;
#X connect 18 0 6 0;
#X connect 20 0 17 0;
#X connect 21 0 20 0;
#X restore 311 244 pd delay1;
#X f 22;
#X obj 261 -99 inlet;
#X obj 323 -97 inlet;
#X text 135 -136 signal;
#X text 258 -137 delay;
#X text 324 -135 fbk;
#X obj 504 -102 inlet;
#X text 504 -140 d/w;
#X obj 287 373 loadbang;
#X msg 287 396 0;
#X obj 5 16 vsl 18 70 0 127 0 0 empty empty del 0 -9 1 10 #000000 #ffffff #7c7c7c 0 1;
#X obj 27 15 vsl 18 70 0 127 0 0 empty empty fbk 0 -9 1 10 #000000 #ffffff #7c7c7c 0 1;
#X obj 86 16 vsl 18 70 0 127 0 0 empty empty d/w 0 -9 1 10 #000000 #ffffff #7c7c7c 0 1;
#X text 153 576 out;
#X obj 282 549 outlet;
#X obj 343 550 outlet;
#X obj 508 548 outlet;
#X text 282 574 delay;
#X text 348 576 fbk;
#X text 528 571 d/w;
#X obj 151 462 two_to_one;
#X obj 167 382 / 127;
#X connect 1 0 3 0;
#X connect 1 0 23 0;
#X connect 3 0 23 1;
#X connect 4 0 13 0;
#X connect 5 0 14 0;
#X connect 9 0 15 0;
#X connect 11 0 12 0;
#X connect 12 0 23 2;
#X connect 13 0 17 0;
#X connect 13 0 3 1;
#X connect 14 0 18 0;
#X connect 14 0 3 2;
#X connect 15 0 19 0;
#X connect 15 0 24 0;
#X connect 23 0 2 0;
#X connect 24 0 23 2;
#X coords 0 -1 1 1 110 110 2 0 0;
