#N canvas 973 12 927 1097 10;
#X obj 407 520 *~;
#X obj 334 519 *~;
#X obj 471 513 *~;
#X obj 605 510 *~;
#X obj 541 511 *~;
#X obj 678 505 *~;
#X obj 731 506 *~;
#X obj 987 1090 outlet~;
#X obj 294 38 inlet;
#X obj 418 43 inlet;
#X obj 461 43 inlet;
#X obj 505 43 inlet;
#X obj 549 42 inlet;
#X obj 593 42 inlet;
#X obj 636 42 inlet;
#X obj 680 42 inlet;
#X obj 723 42 inlet;
#X obj 767 42 inlet;
#X obj 810 42 inlet;
#X obj 856 41 inlet;
#X text 291 19 note;
#X text 416 25 piano;
#X text 457 24 rhodes;
#X text 499 24 gamelan;
#X text 546 25 chimes;
#X text 587 25 marimba;
#X text 642 22 harp;
#X text 680 25 mct;
#X text 723 25 str;
#X obj 330 201 mtof;
#X obj 294 64 unpack 0 0;
#X obj 295 86 swap;
#X obj 315 145 f;
#X obj 271 111 sel 0;
#X msg 243 152 0;
#X msg 366 151 100;
#X obj 77 45 bng 20 250 50 0 empty empty empty 0 -10 0 12 #fcfcfc #000000 #000000;
#X obj 78 94 makenote 100 1000;
#X obj 78 118 pack 0 0;
#X obj 197 152 bng 18 250 50 0 empty empty empty 0 -9 0 10 #fcfcfc #000000 #000000;
#X obj 358 116 t b b;
#X obj 767 742 wavefold;
#X obj 1032 735 rngs;
#X obj 1055 942 *~;
#X obj 1075 875 loadbang;
#X msg 1075 897 1;
#X obj 910 738 filter_selection;
#X obj 904 39 inlet;
#X obj 947 39 inlet;
#X obj 991 39 inlet;
#X obj 1038 37 inlet;
#X obj 1081 37 inlet;
#X obj 1125 37 inlet;
#X obj 1002 666 sig~ 1;
#X obj 1175 35 inlet;
#X obj 1218 35 inlet;
#X obj 1262 35 inlet;
#X obj 1309 33 inlet;
#X obj 1352 33 inlet;
#X obj 1396 33 inlet;
#X obj 1443 41 inlet;
#X obj 1486 41 inlet;
#X obj 1530 41 inlet;
#X obj 248 521 *~;
#X msg 77 71 60;
#X obj 1587 42 inlet;
#X text 1002 20 freq;
#X text 1054 19 q;
#X text 942 19 selection;
#X text 1344 14 struct;
#X text 1384 14 bright;
#X text 1455 18 damp;
#X text 1495 21 model;
#X text 1267 15 transp;
#X text 1307 14 posit;
#X text 1538 19 d/w;
#X text 1181 16 poly;
#X text 1128 16 exciter;
#X text 1078 19 trigger;
#X text 1226 14 pitch;
#X text 1585 19 volume;
#N canvas 492 232 450 300 rds 0;
#X obj 90 251 outlet~;
#X obj 278 39 inlet;
#X obj 278 62 switch~;
#X obj 68 167 rds~;
#X obj 98 37 r velocity_\$0;
#X obj -3 36 r key_freq_\$0;
#X connect 1 0 2 0;
#X connect 3 0 0 0;
#X connect 4 0 3 1;
#X connect 5 0 3 0;
#X restore 336 398 pd rds;
#N canvas 492 232 450 300 gamelan 0;
#X obj 90 251 outlet~;
#X obj 278 39 inlet;
#X obj 278 62 switch~;
#X obj 98 37 r velocity_\$0;
#X obj 68 167 gamelan~;
#X obj 11 76 r midi_note_\$0;
#X connect 1 0 2 0;
#X connect 3 0 4 1;
#X connect 4 0 0 0;
#X connect 5 0 4 0;
#X restore 402 395 pd gamelan;
#N canvas 1130 427 450 300 chimes 0;
#X obj 90 251 outlet~;
#X obj 278 39 inlet;
#X obj 278 62 switch~;
#X obj 98 37 r velocity_\$0;
#X obj 68 168 chimes~;
#X obj 50 79 r key_freq_\$0;
#X connect 1 0 2 0;
#X connect 3 0 4 1;
#X connect 4 0 0 0;
#X connect 5 0 4 0;
#X restore 470 395 pd chimes;
#N canvas 492 232 639 541 marimba 0;
#X obj 90 251 outlet~;
#X obj 278 39 inlet;
#X obj 278 62 switch~;
#X obj 98 37 r velocity_\$0;
#X obj 67 167 marimba~;
#X obj 50 79 r key_freq_\$0;
#X connect 1 0 2 0;
#X connect 3 0 4 1;
#X connect 4 0 0 0;
#X connect 5 0 4 0;
#X restore 537 394 pd marimba;
#N canvas 492 232 450 300 harp 0;
#X obj 90 251 outlet~;
#X obj 278 39 inlet;
#X obj 278 62 switch~;
#X obj 98 37 r velocity_\$0;
#X obj 68 167 harp~;
#X obj 50 79 r key_freq_\$0;
#X connect 1 0 2 0;
#X connect 3 0 4 1;
#X connect 4 0 0 0;
#X connect 5 0 4 0;
#X restore 607 394 pd harp;
#N canvas 379 300 450 300 mct 0;
#X obj 90 251 outlet~;
#X obj 278 39 inlet;
#X obj 278 62 switch~;
#X obj 98 37 r velocity_\$0;
#X obj 68 168 mct~;
#X obj 50 79 r key_freq_\$0;
#X connect 1 0 2 0;
#X connect 3 0 4 1;
#X connect 4 0 0 0;
#X connect 5 0 4 0;
#X restore 678 395 pd mct;
#N canvas 52 20 1854 1097 piano 0;
#X obj 90 251 outlet~;
#X obj 278 39 inlet;
#X obj 278 62 switch~;
#X obj 98 37 r velocity_\$0;
#X obj 83 211 *~ 0.3;
#X obj 68 167 piano~ 1416 4;
#X obj 23 66 r midi_note_\$0;
#X connect 1 0 2 0;
#X connect 3 0 5 1;
#X connect 4 0 0 0;
#X connect 5 0 4 0;
#X connect 5 1 4 0;
#X connect 6 0 5 0;
#X restore 255 397 pd piano;
#X obj 330 223 s key_freq_\$0;
#X obj 221 222 s midi_note_\$0;
#N canvas 492 232 639 541 str 0;
#X obj 90 251 outlet~;
#X obj 278 39 inlet;
#X obj 278 62 switch~;
#X obj 98 37 r velocity_\$0;
#X obj 67 167 str~;
#X obj 50 79 r key_freq_\$0;
#X connect 1 0 2 0;
#X connect 3 0 4 1;
#X connect 4 0 0 0;
#X connect 5 0 4 0;
#X restore 730 394 pd str;
#X obj 257 369 > 0;
#X obj 339 367 > 0;
#X obj 399 367 > 0;
#X obj 473 368 > 0;
#X obj 535 364 > 0;
#X obj 609 365 > 0;
#X obj 665 362 > 0;
#X obj 728 363 > 0;
#X obj 270 330 t f f;
#X obj 338 332 t f f, f 6;
#X obj 402 330 t f f;
#X obj 470 332 t f f;
#X obj 536 326 t f f;
#X obj 604 328 t f f;
#X obj 662 321 t f f;
#X obj 733 321 t f f;
#X obj 219 391 tgl 18 0 empty empty empty 0 -9 0 10 #fcfcfc #000000 #000000 0 1;
#X obj 389 193 s velocity_\$0;
#X obj 269 456 pack 0 20;
#X obj 269 476 line~;
#X obj 348 455 pack 0 20;
#X obj 348 475 line~;
#X obj 420 451 pack 0 20;
#X obj 420 471 line~;
#X obj 489 452 pack 0 20;
#X obj 489 472 line~;
#X obj 558 452 pack 0 20;
#X obj 558 472 line~;
#X obj 630 448 pack 0 20;
#X obj 630 468 line~;
#X obj 696 447 pack 0 20;
#X obj 696 467 line~;
#X obj 760 445 pack 0 20;
#X obj 760 465 line~;
#X text 1635 19 lfoIn;
#X obj 1636 42 inlet~;
#X connect 0 0 41 0;
#X connect 1 0 41 0;
#X connect 2 0 41 0;
#X connect 3 0 41 0;
#X connect 4 0 41 0;
#X connect 5 0 41 0;
#X connect 6 0 41 0;
#X connect 8 0 30 0;
#X connect 9 0 99 0;
#X connect 10 0 100 0;
#X connect 11 0 101 0;
#X connect 12 0 102 0;
#X connect 13 0 103 0;
#X connect 14 0 104 0;
#X connect 15 0 105 0;
#X connect 16 0 106 0;
#X connect 17 0 41 1;
#X connect 18 0 41 2;
#X connect 19 0 41 3;
#X connect 29 0 88 0;
#X connect 30 0 31 0;
#X connect 30 1 31 1;
#X connect 31 0 33 0;
#X connect 31 1 32 1;
#X connect 32 0 29 0;
#X connect 32 0 89 0;
#X connect 33 0 34 0;
#X connect 33 0 39 0;
#X connect 33 1 40 0;
#X connect 34 0 108 0;
#X connect 35 0 108 0;
#X connect 36 0 64 0;
#X connect 37 0 38 0;
#X connect 37 1 38 1;
#X connect 38 0 30 0;
#X connect 40 0 32 0;
#X connect 40 1 35 0;
#X connect 41 0 46 0;
#X connect 42 0 43 0;
#X connect 43 0 7 0;
#X connect 44 0 45 0;
#X connect 45 0 43 1;
#X connect 46 0 42 0;
#X connect 47 0 41 4;
#X connect 48 0 46 1;
#X connect 49 0 46 2;
#X connect 50 0 46 3;
#X connect 51 0 42 1;
#X connect 52 0 42 2;
#X connect 53 0 46 5;
#X connect 54 0 42 3;
#X connect 55 0 42 4;
#X connect 56 0 42 5;
#X connect 57 0 42 6;
#X connect 58 0 42 7;
#X connect 59 0 42 8;
#X connect 60 0 42 9;
#X connect 61 0 42 10;
#X connect 62 0 42 11;
#X connect 63 0 41 0;
#X connect 64 0 37 0;
#X connect 65 0 43 1;
#X connect 81 0 1 0;
#X connect 82 0 0 0;
#X connect 83 0 2 0;
#X connect 84 0 4 0;
#X connect 85 0 3 0;
#X connect 86 0 5 0;
#X connect 87 0 63 0;
#X connect 90 0 6 0;
#X connect 91 0 87 0;
#X connect 91 0 107 0;
#X connect 92 0 81 0;
#X connect 93 0 82 0;
#X connect 94 0 83 0;
#X connect 95 0 84 0;
#X connect 96 0 85 0;
#X connect 97 0 86 0;
#X connect 98 0 90 0;
#X connect 99 0 91 0;
#X connect 99 1 109 0;
#X connect 100 0 92 0;
#X connect 100 1 111 0;
#X connect 101 0 93 0;
#X connect 101 1 113 0;
#X connect 102 0 94 0;
#X connect 102 1 115 0;
#X connect 103 0 95 0;
#X connect 103 1 117 0;
#X connect 104 0 96 0;
#X connect 104 1 119 0;
#X connect 105 0 97 0;
#X connect 105 1 121 0;
#X connect 106 0 98 0;
#X connect 106 1 123 0;
#X connect 109 0 110 0;
#X connect 110 0 63 1;
#X connect 111 0 112 0;
#X connect 112 0 1 1;
#X connect 113 0 114 0;
#X connect 114 0 0 1;
#X connect 115 0 116 0;
#X connect 116 0 2 1;
#X connect 117 0 118 0;
#X connect 118 0 4 1;
#X connect 119 0 120 0;
#X connect 120 0 3 1;
#X connect 121 0 122 0;
#X connect 122 0 5 1;
#X connect 123 0 124 0;
#X connect 124 0 6 1;
#X connect 126 0 46 4;
#X coords 0 -1 1 1 175 100 2 100 100;
