#N canvas 558 225 928 597 12;
#X obj 418 387 fx_chain;
#X obj 434 140 ctlin;
#X obj 443 177 swap;
#X obj 432 211 pack 0 0;
#X msg -26 153 start;
#X obj -46 290 readsf~;
#X obj 61 354 spigot;
#X msg 171 221 1;
#X obj 205 225 bng 18 250 50 0 empty empty empty 0 -9 0 10 #fcfcfc #000000 #000000;
#X obj 241 221 loadbang;
#X msg 205 254 stop;
#X msg 184 278 0;
#X obj 420 535 dac~;
#X msg 191 161 open ../../808.wav;
#X msg 144 127 open ../../final_countdown.wav;
#X msg 120 91 open ../../ambient_synth.wav;
#X obj 45 443 spigot;
#X msg 71 396 1;
#X obj 124 486 spigot;
#X msg 220 486 1;
#X obj 505 134 print;
#X obj 471 244 route 100 101 102;
#X obj 430 327 / 127;
#X obj 476 327 / 127;
#X connect 0 0 12 0;
#X connect 0 0 12 1;
#X connect 1 0 2 0;
#X connect 1 1 2 1;
#X connect 2 0 3 0;
#X connect 2 1 3 1;
#X connect 3 0 20 0;
#X connect 3 0 21 0;
#X connect 4 0 5 0;
#X connect 5 0 0 0;
#X connect 5 1 6 0;
#X connect 5 1 16 0;
#X connect 5 1 18 0;
#X connect 6 0 13 0;
#X connect 7 0 6 1;
#X connect 8 0 10 0;
#X connect 9 0 10 0;
#X connect 10 0 5 0;
#X connect 10 0 11 0;
#X connect 11 0 6 1;
#X connect 11 0 16 1;
#X connect 11 0 18 1;
#X connect 13 0 5 0;
#X connect 13 0 4 0;
#X connect 13 0 7 0;
#X connect 14 0 5 0;
#X connect 14 0 4 0;
#X connect 14 0 17 0;
#X connect 15 0 5 0;
#X connect 15 0 4 0;
#X connect 15 0 19 0;
#X connect 16 0 14 0;
#X connect 17 0 16 1;
#X connect 18 0 15 0;
#X connect 19 0 18 1;
#X connect 21 0 22 0;
#X connect 21 1 23 0;
#X connect 21 2 0 3;
#X connect 22 0 0 1;
#X connect 23 0 0 2;
#X coords 0 -1 1 1 225 150 1 100 100;
