#N canvas 866 178 1353 977 12;
#X obj 720 598 textfile;
#X obj 720 469 until;
#X obj 720 502 i;
#X obj 755 502 + 1;
#X msg 755 441 0;
#X obj 721 372 bng 20 250 50 0 empty empty empty 0 -10 0 12 #fcfcfc #000000 #000000;
#X msg 720 563 add \$1;
#X obj 721 403 t b b b;
#X msg 794 502 clear;
#X obj 184 344 f;
#X obj 221 271 t b b f;
#X obj 185 306 delay 10;
#X obj 182 380 pack 0 0;
#X obj 99 667 list append;
#X obj 100 705 list prepend;
#X obj 102 687 list trim;
#X obj 100 726 list trim;
#X obj 251 678 loadbang;
#X obj 102 802 print;
#X msg 214 654 cr;
#X msg 208 708 write;
#X msg 276 608 set \$1;
#X obj 277 584 makefilename %s%%s;
#X obj 99 639 makefilename;
#X obj 212 174 inlet;
#X text 199 150 preset_n;
#X obj 214 234 t f b;
#X obj 720 533 tabread;
#X obj 716 439 f \$2;
#X obj 286 172 inlet;
#X text 298 150 ID;
#X obj 356 175 inlet;
#X text 337 153 current_path;
#X obj 296 272 symbol \$1;
#X msg 297 307 set \$1;
#X msg 99 511 symbol /presets/\$2/\$1;
#X msg 343 505 set \$1;
#X obj 344 477 makefilename %%s%s.txt;
#X obj 344 413 loadbang;
#X text 402 501 set %s.txt if no argument;
#X text 404 516 set %stest.txt if argument is test;
#X obj 99 567 makefilename;
#X text 335 608 set /path/to/file%s;
#X obj 344 443 symbol \$3;
#X text 410 221 \$1 is the table name;
#X text 412 254 \$3 is the filename specification (if any);
#X text 411 238 \$2 is the number of preset values;
#X text 412 204 arguments:;
#X obj 519 173 inlet;
#X text 500 151 n_of_preset_values;
#X obj 219 460 print;
#X msg 94 300 2;
#X obj 754 168 inlet;
#X text 683 38 inlets:;
#X text 681 55 \$1 is the preset n;
#X text 681 72 \$2 is the current path;
#X text 683 88 \$3 is the n of presets;
#X text 683 105 \$4 is the filename specification (if any);
#X connect 1 0 2 0;
#X connect 2 0 3 0;
#X connect 2 0 27 0;
#X connect 3 0 2 1;
#X connect 4 0 2 1;
#X connect 5 0 7 0;
#X connect 6 0 0 0;
#X connect 7 0 28 0;
#X connect 7 1 4 0;
#X connect 7 2 8 0;
#X connect 8 0 0 0;
#X connect 9 0 12 0;
#X connect 10 0 11 0;
#X connect 10 1 5 0;
#X connect 10 2 9 1;
#X connect 11 0 9 0;
#X connect 12 0 35 0;
#X connect 12 0 50 0;
#X connect 13 0 15 0;
#X connect 14 0 16 0;
#X connect 15 0 14 0;
#X connect 16 0 18 0;
#X connect 16 0 0 0;
#X connect 17 0 20 0;
#X connect 17 0 19 0;
#X connect 19 0 13 1;
#X connect 20 0 14 1;
#X connect 21 0 23 0;
#X connect 22 0 21 0;
#X connect 23 0 13 0;
#X connect 24 0 26 0;
#X connect 26 0 10 0;
#X connect 26 1 33 0;
#X connect 27 0 6 0;
#X connect 28 0 1 0;
#X connect 29 0 12 1;
#X connect 31 0 22 0;
#X connect 33 0 34 0;
#X connect 34 0 27 0;
#X connect 35 0 41 0;
#X connect 36 0 41 0;
#X connect 37 0 36 0;
#X connect 38 0 43 0;
#X connect 41 0 23 0;
#X connect 43 0 37 0;
#X connect 48 0 28 1;
#X connect 51 0 12 0;
#X connect 52 0 43 0;
