#N canvas 257 128 1150 805 12;
#X obj 100 100 cnv 20 185 120 empty empty empty 20 12 0 12 #e0e0e0 #404040 0;
#X obj 126 759 outlet~;
#X obj 295 450 *~;
#X obj 186 173 tgl 20 0 empty empty empty 0 -10 0 12 #fcfcfc #000000 #000000 0 1;
#X obj 351 -298 inlet~;
#X obj 351 174 *~;
#X obj 187 141 tgl 20 0 empty empty empty 0 -10 0 12 #fcfcfc #000000 #000000 0 1;
#X obj -171 155 noise~;
#X obj 31 354 *~;
#X obj 105 150 tgl 20 0 empty empty empty 0 -10 0 12 #fcfcfc #000000 #000000 0 1;
#X obj 211 758 outlet~;
#X obj 380 449 *~;
#X obj 211 173 tgl 20 0 empty empty empty 0 -10 0 12 #fcfcfc #000000 #000000 0 1;
#X obj 408 -299 inlet~;
#X obj 408 173 *~;
#X obj 211 141 tgl 20 0 empty empty empty 0 -10 0 12 #fcfcfc #000000 #000000 0 1;
#X obj 306 759 outlet~;
#X obj 475 450 *~;
#X obj 236 173 tgl 20 0 empty empty empty 0 -10 0 12 #fcfcfc #000000 #000000 0 1;
#X obj 503 -298 inlet~;
#X obj 503 174 *~;
#X obj 236 141 tgl 20 0 empty empty empty 0 -10 0 12 #fcfcfc #000000 #000000 0 1;
#X obj 388 757 outlet~;
#X obj 557 448 *~;
#X obj 260 173 tgl 20 0 empty empty empty 0 -10 0 12 #fcfcfc #000000 #000000 0 1;
#X obj 585 -300 inlet~;
#X obj 585 172 *~;
#X obj 260 141 tgl 20 0 empty empty empty 0 -10 0 12 #fcfcfc #000000 #000000 0 1;
#X obj -112 157 osc~;
#X obj 105 127 tgl 20 0 empty empty empty 0 -10 0 12 #fcfcfc #000000 #000000 0 1;
#X obj -154 261 *~;
#X obj -191 259 *~;
#X obj 6 272 line~;
#X obj 6 117 metro 500;
#X obj 105 104 tgl 20 0 empty empty empty 0 -10 0 12 #fcfcfc #000000 #000000 0 1;
#X obj 6 146 i;
#X obj 38 145 + 1;
#X obj 6 175 % 2;
#X obj 6 200 sel 0 1;
#X msg 6 236 0 10;
#X msg 49 236 1 10;
#X obj -34 318 *~;
#X obj 74 14 loadbang;
#X msg 74 40 0;
#X obj -36 117 sel 0;
#X msg -31 236 1 10;
#X obj 108 173 hsl 70 20 0 127 0 0 empty empty empty -2 -10 0 12 #fcfcfc #000000 #000000 0 1;
#X obj 110 279 / 127;
#X msg -113 129 440;
#X obj -111 37 loadbang;
#X obj 94 347 line~;
#X obj 97 310 pack 0 50;
#X text 126 104 rhythm;
#X text 127 148 osc;
#X text 126 126 noise;
#X obj 246 297 pack 0 10;
#X obj 246 322 line~;
#X obj 328 296 pack 0 10;
#X obj 328 321 line~;
#X obj 414 296 pack 0 10;
#X obj 414 321 line~;
#X obj 495 296 pack 0 10;
#X obj 495 321 line~;
#X obj 317 50 pack 0 10;
#X obj 317 75 line~;
#X obj 399 49 pack 0 10;
#X obj 399 74 line~;
#X obj 485 49 pack 0 10;
#X obj 485 74 line~;
#X obj 566 49 pack 0 10;
#X obj 566 74 line~;
#X text 187 141 FL;
#X text 212 141 FR;
#X text 237 141 RL;
#X text 260 141 RR;
#X text 186 173 FL;
#X text 211 173 FR;
#X text 236 173 RL;
#X text 259 173 RR;
#X obj 46 -95 snapshot~;
#X obj 46 -41 sel 1;
#X obj 187 109 bng 20 50 10 0 empty empty empty 0 -10 0 12 #fcfcfc #000000 #000000;
#X obj 77 -239 tgl 20 0 empty empty empty 0 -10 0 12 #fcfcfc #000000 #000000 0 1;
#X obj -100 210 pack 0 10;
#X obj -100 235 line~;
#X obj -174 200 pack 0 10;
#X obj -174 225 line~;
#X obj 123 -95 snapshot~;
#X obj 123 -41 sel 1;
#X obj 212 109 bng 20 250 50 0 empty empty empty 0 -10 0 12 #fcfcfc #000000 #000000;
#X obj 198 -96 snapshot~;
#X obj 198 -42 sel 1;
#X obj 236 109 bng 20 250 50 0 empty empty empty 0 -10 0 12 #fcfcfc #000000 #000000;
#X obj 270 -95 snapshot~;
#X obj 270 -41 sel 1;
#X obj 260 109 bng 20 250 50 0 empty empty empty 0 -10 0 12 #fcfcfc #000000 #000000;
#X text 191 124 |;
#X text 216 124 |;
#X text 240 124 |;
#X text 264 124 |;
#X text 191 156 |;
#X text 216 156 |;
#X text 240 156 |;
#X text 264 156 |;
#X obj 534 660 *~;
#X obj 617 659 *~;
#X obj 717 654 *~;
#X obj 795 652 *~;
#X obj 578 758 dac~ 1 2 3 4;
#X obj 682 295 pack 0 10;
#X obj 682 320 line~;
#X obj 105 196 tgl 20 0 empty empty empty 0 -10 0 12 #fcfcfc #000000 #000000 0 1;
#X obj 642 588 *~;
#X obj 750 588 *~, f 4;
#X obj 951 496 pack 0 10;
#X obj 951 521 line~;
#X obj 156 197 tgl 20 0 empty empty empty 0 -10 0 12 #fcfcfc #000000 #000000 0 1;
#X text 129 197 dac;
#X text 178 197 stereo;
#X obj 141 -278 loadbang;
#X msg 141 -252 1;
#X obj 46 -66 > 0.001;
#X obj 123 -66 > 0.001;
#X obj 198 -67 > 0.001;
#X obj 270 -66 > 0.001;
#X obj 46 -177 metro 5;
#X obj 296 419 *~;
#X obj 380 418 *~;
#X obj 474 417 *~;
#X obj 557 415 *~;
#X connect 2 0 1 0;
#X connect 2 0 104 0;
#X connect 3 0 55 0;
#X connect 4 0 5 0;
#X connect 4 0 79 0;
#X connect 5 0 126 0;
#X connect 6 0 63 0;
#X connect 7 0 31 0;
#X connect 9 0 83 0;
#X connect 11 0 10 0;
#X connect 11 0 105 0;
#X connect 12 0 57 0;
#X connect 13 0 14 0;
#X connect 13 0 87 0;
#X connect 14 0 127 0;
#X connect 15 0 65 0;
#X connect 17 0 16 0;
#X connect 17 0 106 0;
#X connect 18 0 59 0;
#X connect 19 0 20 0;
#X connect 19 0 90 0;
#X connect 20 0 128 0;
#X connect 21 0 67 0;
#X connect 23 0 22 0;
#X connect 23 0 107 0;
#X connect 24 0 61 0;
#X connect 25 0 26 0;
#X connect 25 0 93 0;
#X connect 26 0 129 0;
#X connect 27 0 69 0;
#X connect 28 0 30 0;
#X connect 29 0 85 0;
#X connect 30 0 41 0;
#X connect 31 0 41 0;
#X connect 32 0 41 1;
#X connect 33 0 35 0;
#X connect 34 0 33 0;
#X connect 34 0 44 0;
#X connect 35 0 36 0;
#X connect 35 0 37 0;
#X connect 36 0 35 1;
#X connect 37 0 38 0;
#X connect 38 0 39 0;
#X connect 38 1 40 0;
#X connect 39 0 32 0;
#X connect 40 0 32 0;
#X connect 41 0 8 0;
#X connect 42 0 43 0;
#X connect 43 0 35 1;
#X connect 43 0 6 0;
#X connect 43 0 15 0;
#X connect 43 0 21 0;
#X connect 43 0 27 0;
#X connect 43 0 3 0;
#X connect 43 0 12 0;
#X connect 43 0 18 0;
#X connect 43 0 24 0;
#X connect 43 0 34 0;
#X connect 43 0 29 0;
#X connect 43 0 9 0;
#X connect 43 0 46 0;
#X connect 44 0 45 0;
#X connect 45 0 32 0;
#X connect 46 0 47 0;
#X connect 47 0 51 0;
#X connect 48 0 28 0;
#X connect 49 0 48 0;
#X connect 50 0 8 1;
#X connect 50 0 2 1;
#X connect 50 0 11 1;
#X connect 50 0 17 1;
#X connect 50 0 23 1;
#X connect 51 0 50 0;
#X connect 55 0 56 0;
#X connect 56 0 126 1;
#X connect 57 0 58 0;
#X connect 58 0 127 1;
#X connect 59 0 60 0;
#X connect 60 0 128 1;
#X connect 61 0 62 0;
#X connect 62 0 129 1;
#X connect 63 0 64 0;
#X connect 64 0 5 1;
#X connect 65 0 66 0;
#X connect 66 0 14 1;
#X connect 67 0 68 0;
#X connect 68 0 20 1;
#X connect 69 0 70 0;
#X connect 70 0 26 1;
#X connect 79 0 121 0;
#X connect 80 0 81 0;
#X connect 82 0 125 0;
#X connect 83 0 84 0;
#X connect 84 0 30 1;
#X connect 85 0 86 0;
#X connect 86 0 31 1;
#X connect 87 0 122 0;
#X connect 88 0 89 0;
#X connect 90 0 123 0;
#X connect 91 0 92 0;
#X connect 93 0 124 0;
#X connect 94 0 95 0;
#X connect 104 0 108 0;
#X connect 105 0 108 1;
#X connect 106 0 108 2;
#X connect 106 0 112 0;
#X connect 107 0 108 3;
#X connect 107 0 113 0;
#X connect 109 0 110 0;
#X connect 110 0 107 1;
#X connect 110 0 106 1;
#X connect 110 0 105 1;
#X connect 110 0 104 1;
#X connect 111 0 109 0;
#X connect 112 0 104 0;
#X connect 113 0 105 0;
#X connect 114 0 115 0;
#X connect 115 0 113 1;
#X connect 115 0 112 1;
#X connect 116 0 114 0;
#X connect 119 0 120 0;
#X connect 120 0 82 0;
#X connect 121 0 80 0;
#X connect 122 0 88 0;
#X connect 123 0 91 0;
#X connect 124 0 94 0;
#X connect 125 0 79 0;
#X connect 125 0 87 0;
#X connect 125 0 90 0;
#X connect 125 0 93 0;
#X connect 126 0 2 0;
#X connect 127 0 11 0;
#X connect 128 0 17 0;
#X connect 129 0 23 0;
#X coords 0 -1 1 1 185 120 2 100 100;
