#N canvas 338 110 1150 784 10;
#X obj 1 0 cnv 18 50 100 empty empty empty 20 12 0 10 #e0e0e0 #404040 0;
#X obj 218 166 / 127;
#X obj 218 209 pack 0 10;
#X obj 386 334 / 127;
#X obj 381 401 pack 0 10;
#X obj 102 -82 inlet~;
#X obj 197 540 outlet~;
#X obj 197 -83 inlet;
#X obj 290 -81 inlet;
#X obj 379 432 line;
#X text 194 -106 freq;
#X text 286 -105 depth;
#X obj 223 345 osc~;
#X obj 225 380 *~ 0.5;
#X obj 195 491 *~;
#X obj 225 405 +~ 0.5;
#X obj 226 429 expr~ 1 - $v1;
#X obj 383 363 / 2;
#X obj 372 -78 inlet~;
#X text 375 -101 fm;
#X obj 216 256 +~;
#X obj 216 233 line~;
#X text 308 581 freq;
#X text 400 582 depth;
#X obj 308 552 outlet;
#X obj 402 554 outlet;
#X obj 3 15 vsl 18 80 0 127 0 0 empty empty frq 0 -9 1 10 #000000 #ffffff #7c7c7c 0 1;
#X obj 27 15 vsl 18 80 0 127 0 0 empty empty dep 0 -9 1 10 #000000 #ffffff #7c7c7c 0 1;
#X obj 214 284 *~ 12;
#X connect 1 0 2 0;
#X connect 2 0 21 0;
#X connect 3 0 17 0;
#X connect 4 0 9 0;
#X connect 5 0 14 0;
#X connect 7 0 26 0;
#X connect 8 0 27 0;
#X connect 9 0 13 1;
#X connect 9 0 15 1;
#X connect 12 0 13 0;
#X connect 13 0 15 0;
#X connect 14 0 6 0;
#X connect 15 0 16 0;
#X connect 16 0 14 1;
#X connect 17 0 4 0;
#X connect 20 0 28 0;
#X connect 21 0 20 0;
#X connect 26 0 1 0;
#X connect 26 0 24 0;
#X connect 27 0 3 0;
#X connect 27 0 25 0;
#X connect 28 0 12 0;
#X coords 0 -1 1 1 50 100 2 0 0;
