#N canvas 407 62 1440 851 8;
#X obj 34 146 f;
#X obj 70 146 + 1;
#X obj 34 73 t b b;
#X obj 34 30 inlet bang;
#X obj 35 243 outlet;
#X msg 89 118 0;
#X obj 33 117 until;
#X obj 34 191 sel 16;
#X obj 98 245 outlet;
#X msg 34 95 19;
#X obj 174 40 inlet how_many;
#X floatatom 175 61 5 0 0 0 - - - 0;
#X obj 174 81 + 1;
#X msg 107 83 set \$1;
#X obj 318 84 loadbang;
#X msg 318 104 16;
#X connect 0 0 1 0;
#X connect 0 0 7 0;
#X connect 1 0 0 1;
#X connect 2 0 9 0;
#X connect 2 1 5 0;
#X connect 3 0 2 0;
#X connect 5 0 0 1;
#X connect 6 0 0 0;
#X connect 7 0 8 0;
#X connect 7 1 4 0;
#X connect 9 0 6 0;
#X connect 10 0 11 0;
#X connect 11 0 12 0;
#X connect 11 0 7 1;
#X connect 12 0 13 0;
#X connect 13 0 9 0;
#X connect 14 0 15 0;
#X connect 15 0 11 0;
