#N canvas 52 20 1854 977 12;
#X obj 56 46 inlet~;
#X obj 58 252 outlet~;
#X obj 86 155 - 100;
#X obj 87 114 env~;
#X obj 145 251 outlet;
#X msg 86 186 \$1 300;
#X connect 0 0 1 0;
#X connect 0 0 3 0;
#X connect 2 0 5 0;
#X connect 3 0 2 0;
#X connect 5 0 4 0;
